<svg xmlns="http://www.w3.org/2000/svg" xmlns:xlink="http://www.w3.org/1999/xlink" width="139" height="139" viewBox="0 0 139 139">
  <defs>
    <clipPath id="clip-path">
      <rect id="Rectángulo_400938" data-name="Rectángulo 400938" width="139" height="139" transform="translate(-0.043 -0.043)" fill="none"/>
    </clipPath>
    <clipPath id="clip-path-2">
      <rect id="Rectángulo_401073" data-name="Rectángulo 401073" width="105.872" height="47.68" fill="#7d3a1b"/>
    </clipPath>
  </defs>
  <g id="Grupo_1118362" data-name="Grupo 1118362" transform="translate(-422.047 -2528.029)">
    <g id="Grupo_1099388" data-name="Grupo 1099388" transform="translate(157.09 -2755.928)">
      <g id="Grupo_1099379" data-name="Grupo 1099379" transform="translate(265 5284)">
        <rect id="Rectángulo_401103" data-name="Rectángulo 401103" width="139" height="139" transform="translate(-0.043 -0.043)" fill="none"/>
        <g id="Grupo_1099348" data-name="Grupo 1099348" transform="translate(0)">
          <g id="Grupo_1099282" data-name="Grupo 1099282">
            <g id="Grupo_1099281" data-name="Grupo 1099281" clip-path="url(#clip-path-2)">
              <path id="Trazado_873375" data-name="Trazado 873375" d="M85.879,10.449c-4.752,0-7.21-2.33-9.379-4.386C74.371,4.047,72.538,2.3,68.7,2.3s-5.668,1.742-7.8,3.758c-2.17,2.056-4.624,4.386-9.379,4.386s-7.21-2.33-9.379-4.386C40.018,4.047,38.184,2.3,34.349,2.3s-5.668,1.742-7.794,3.758c-2.17,2.056-4.627,4.386-9.379,4.386S9.963,8.119,7.794,6.063C5.668,4.047,3.835,2.3,0,2.3V0C4.752,0,7.21,2.334,9.379,4.386c2.129,2.02,3.963,3.758,7.8,3.758s5.668-1.738,7.794-3.755C27.136,2.334,29.6,0,34.349,0s7.213,2.334,9.379,4.386c2.129,2.02,3.963,3.758,7.8,3.758s5.668-1.738,7.8-3.758C61.489,2.334,63.951,0,68.7,0s7.213,2.334,9.379,4.386c2.129,2.02,3.963,3.758,7.8,3.758s5.668-1.738,7.8-3.758C95.843,2.334,98.3,0,103.056,0V2.3c-3.835,0-5.668,1.742-7.8,3.758-2.169,2.056-4.627,4.386-9.379,4.386" transform="translate(2.816 37.231)" fill="#7d3a1b"/>
              <path id="Trazado_873376" data-name="Trazado 873376" d="M85.879,10.449c-4.752,0-7.213-2.33-9.379-4.39C74.371,4.043,72.538,2.3,68.7,2.3s-5.668,1.738-7.8,3.755c-2.166,2.06-4.624,4.39-9.379,4.39s-7.213-2.33-9.379-4.39C40.018,4.043,38.184,2.3,34.349,2.3s-5.668,1.742-7.794,3.755c-2.17,2.06-4.627,4.39-9.379,4.39s-7.213-2.33-9.383-4.39C5.668,4.043,3.835,2.3,0,2.3V0C4.752,0,7.213,2.33,9.379,4.386c2.129,2.02,3.963,3.758,7.8,3.758s5.668-1.738,7.794-3.758C27.136,2.33,29.6,0,34.349,0s7.213,2.33,9.383,4.386c2.126,2.02,3.959,3.758,7.794,3.758s5.668-1.738,7.8-3.758C61.489,2.33,63.951,0,68.7,0s7.213,2.33,9.379,4.386c2.129,2.02,3.963,3.758,7.8,3.758s5.668-1.738,7.8-3.758C95.846,2.33,98.3,0,103.059,0V2.3c-3.835,0-5.672,1.742-7.8,3.755-2.169,2.06-4.628,4.39-9.379,4.39" transform="translate(1.877 24.821)" fill="#7d3a1b"/>
              <path id="Trazado_873377" data-name="Trazado 873377" d="M85.879,10.449c-4.752,0-7.213-2.33-9.379-4.39C74.371,4.043,72.538,2.3,68.7,2.3s-5.668,1.738-7.8,3.755c-2.166,2.06-4.627,4.39-9.379,4.39s-7.213-2.33-9.379-4.39C40.018,4.043,38.184,2.3,34.349,2.3s-5.668,1.742-7.794,3.755c-2.169,2.06-4.627,4.39-9.379,4.39s-7.213-2.33-9.383-4.39C5.668,4.043,3.835,2.3,0,2.3V0C4.752,0,7.213,2.33,9.379,4.386c2.126,2.02,3.963,3.758,7.8,3.758s5.668-1.738,7.794-3.758C27.136,2.33,29.6,0,34.349,0s7.213,2.33,9.383,4.386c2.126,2.02,3.959,3.758,7.794,3.758s5.668-1.738,7.8-3.758C61.489,2.33,63.951,0,68.7,0s7.213,2.33,9.379,4.386c2.129,2.02,3.963,3.758,7.8,3.758s5.668-1.738,7.8-3.758C95.846,2.33,98.3,0,103.059,0V2.3c-3.835,0-5.672,1.742-7.8,3.755-2.169,2.06-4.627,4.39-9.379,4.39" transform="translate(0.939 12.41)" fill="#7d3a1b"/>
              <path id="Trazado_873378" data-name="Trazado 873378" d="M85.879,10.445c-4.752,0-7.21-2.33-9.379-4.386C74.371,4.043,72.538,2.3,68.7,2.3s-5.668,1.738-7.794,3.755c-2.169,2.056-4.627,4.386-9.383,4.386s-7.21-2.33-9.379-4.386C40.018,4.043,38.184,2.3,34.349,2.3s-5.668,1.738-7.794,3.751c-2.166,2.06-4.627,4.39-9.379,4.39S9.963,8.115,7.794,6.059C5.668,4.043,3.835,2.3,0,2.3V0C4.752,0,7.213,2.33,9.379,4.386c2.129,2.016,3.963,3.755,7.8,3.755S22.845,6.4,24.971,4.386C27.14,2.33,29.6,0,34.349,0s7.21,2.33,9.383,4.386c2.126,2.016,3.959,3.755,7.794,3.755s5.668-1.738,7.8-3.755C61.493,2.33,63.951,0,68.7,0s7.21,2.33,9.379,4.386c2.129,2.016,3.963,3.755,7.8,3.755s5.668-1.738,7.8-3.755C95.846,2.33,98.3,0,103.059,0V2.3c-3.839,0-5.672,1.738-7.8,3.755-2.169,2.056-4.627,4.386-9.379,4.386" transform="translate(0 0.004)" fill="#7d3a1b"/>
            </g>
          </g>
        </g>
        <path id="Trazado_873425" data-name="Trazado 873425" d="M57.977,0A57.977,57.977,0,1,1,0,57.977,57.977,57.977,0,0,1,57.977,0Z" transform="translate(17.221 20.665)" fill="#ffe2b7"/>
        <circle id="Elipse_11503" data-name="Elipse 11503" cx="60.5" cy="60.5" r="60.5" transform="translate(8.957 8.957)" fill="#fff"/>
      </g>
    </g>
    <g id="Grupo_1099390" data-name="Grupo 1099390" transform="translate(105.047 -3865.971)">
      <g id="Grupo_1099389" data-name="Grupo 1099389" transform="translate(347.893 6422.744)">
        <rect id="Rectángulo_401104" data-name="Rectángulo 401104" width="78" height="79" transform="translate(0.107 0.256)" fill="none"/>
      </g>
      <path id="Trazado_905252" data-name="Trazado 905252" d="M89.449,39.183a6.551,6.551,0,0,0-4.057-2.793A6.589,6.589,0,0,0,81,26.892a6.6,6.6,0,0,0-.341-6.712A6.546,6.546,0,0,0,76.6,17.388a6.6,6.6,0,0,0-9.481-8.566l-6.566,4.349A41.033,41.033,0,0,0,49.466,9.419,30.486,30.486,0,0,0,45.235,4.3L42.518,1.667a5.944,5.944,0,0,0-9.093,7.55q.107.162.21.326a41.373,41.373,0,1,0,47.158,54.6,1.422,1.422,0,1,0-2.675-.966,38.579,38.579,0,0,1-48.413,23.48L41.276,79h0L50.9,72.625h0A3.879,3.879,0,0,0,51.99,67.25l-.127-.193,1.868-1.237a6.335,6.335,0,0,1,4.514-.976,9.17,9.17,0,0,0,6.535-1.413L80.274,53.171a38.608,38.608,0,0,1-.524,3.994,1.422,1.422,0,0,0,1.139,1.658,1.387,1.387,0,0,0,.261.024,1.422,1.422,0,0,0,1.4-1.163,41.592,41.592,0,0,0,.68-6.468l4.366-2.892a6.6,6.6,0,0,0,1.858-9.142ZM57.791,15l-4.345,2.878-.856-2.3a30.434,30.434,0,0,0-1.22-2.827A38.175,38.175,0,0,1,57.791,15ZM12.757,24.858A38.531,38.531,0,0,1,35,12.178a17.569,17.569,0,0,1,.886,10.641L32.415,37.8a3.871,3.871,0,0,0-4.963-.578l-9.822,6.5h0L3.462,53.106c-.077-1-.118-2.006-.118-3.012A38.516,38.516,0,0,1,12.757,24.858ZM49.769,69.6a1.03,1.03,0,0,1-.444.657h0L40.88,75.847,25.2,52.468a1.422,1.422,0,0,0-2.362,1.584L38.508,77.418,26.451,85.4A38.646,38.646,0,0,1,3.834,56.217l14.182-9.361,1.632,2.435a1.422,1.422,0,0,0,2.363-1.584L20.39,45.289l8.632-5.7a1.035,1.035,0,0,1,1.433.292L49.619,68.821A1.025,1.025,0,0,1,49.769,69.6ZM87.627,43.572a3.727,3.727,0,0,1-1.606,2.382L81.03,49.259l0,0L63.209,61.06a6.331,6.331,0,0,1-4.514.976,9.175,9.175,0,0,0-6.535,1.413l-1.868,1.237-15.7-23.7,4.057-17.525a20.433,20.433,0,0,0-1.5-13.413,1.394,1.394,0,0,0-.06-.126,20.117,20.117,0,0,0-1.3-2.276,3.1,3.1,0,0,1,4.742-3.937l2.717,2.634a27.787,27.787,0,0,1,6.668,10.219L51.4,20.547l.008.021.011.028c.01.024.02.047.031.066a1.4,1.4,0,0,0,.1.176,1.421,1.421,0,0,0,1.971.4L68.69,11.194a3.752,3.752,0,0,1,4.144,6.257l-1.317.872h0l-2.937,1.945-.011.008c-.017.012-.033.023-.046.034a1.421,1.421,0,0,0,1.628,2.329l2.939-1.947a3.752,3.752,0,0,1,4.141,6.259L72.974,29.77a1.422,1.422,0,1,0,1.57,2.371l.659-.436L77.482,30.2a3.752,3.752,0,0,1,4.144,6.257L79.5,37.86l-.033.022-2.1,1.388a1.422,1.422,0,1,0,1.57,2.372l.659-.436h0L81.879,39.7a3.751,3.751,0,0,1,5.748,3.875Zm0,0" transform="translate(344.452 6416.769)" fill="#6a4d23"/>
    </g>
  </g>
</svg>
