<svg xmlns="http://www.w3.org/2000/svg" xmlns:xlink="http://www.w3.org/1999/xlink" width="139" height="139" viewBox="0 0 139 139">
  <defs>
    <clipPath id="clip-path">
      <rect id="Rectángulo_400938" data-name="Rectángulo 400938" width="139" height="139" transform="translate(-0.043 -0.043)" fill="none"/>
    </clipPath>
    <clipPath id="clip-path-2">
      <rect id="Rectángulo_401073" data-name="Rectángulo 401073" width="105.872" height="47.68" fill="#7d3a1b"/>
    </clipPath>
  </defs>
  <g id="Grupo_1118362" data-name="Grupo 1118362" transform="translate(-421.492 -4063.563)">
    <g id="Grupo_1117890" data-name="Grupo 1117890" transform="translate(156.535 -1220.395)">
      <g id="Grupo_1099379" data-name="Grupo 1099379" transform="translate(265 5284)">
        <rect id="Rectángulo_401103" data-name="Rectángulo 401103" width="139" height="139" transform="translate(-0.043 -0.043)" fill="none"/>
        <g id="Grupo_1099348" data-name="Grupo 1099348" transform="translate(0)">
          <g id="Grupo_1099282" data-name="Grupo 1099282">
            <g id="Grupo_1099281" data-name="Grupo 1099281" clip-path="url(#clip-path-2)">
              <path id="Trazado_873375" data-name="Trazado 873375" d="M85.879,10.449c-4.752,0-7.21-2.33-9.379-4.386C74.371,4.047,72.538,2.3,68.7,2.3s-5.668,1.742-7.8,3.758c-2.17,2.056-4.624,4.386-9.379,4.386s-7.21-2.33-9.379-4.386C40.018,4.047,38.184,2.3,34.349,2.3s-5.668,1.742-7.794,3.758c-2.17,2.056-4.627,4.386-9.379,4.386S9.963,8.119,7.794,6.063C5.668,4.047,3.835,2.3,0,2.3V0C4.752,0,7.21,2.334,9.379,4.386c2.129,2.02,3.963,3.758,7.8,3.758s5.668-1.738,7.794-3.755C27.136,2.334,29.6,0,34.349,0s7.213,2.334,9.379,4.386c2.129,2.02,3.963,3.758,7.8,3.758s5.668-1.738,7.8-3.758C61.489,2.334,63.951,0,68.7,0s7.213,2.334,9.379,4.386c2.129,2.02,3.963,3.758,7.8,3.758s5.668-1.738,7.8-3.758C95.843,2.334,98.3,0,103.056,0V2.3c-3.835,0-5.668,1.742-7.8,3.758-2.169,2.056-4.627,4.386-9.379,4.386" transform="translate(2.816 37.231)" fill="#7d3a1b"/>
              <path id="Trazado_873376" data-name="Trazado 873376" d="M85.879,10.449c-4.752,0-7.213-2.33-9.379-4.39C74.371,4.043,72.538,2.3,68.7,2.3s-5.668,1.738-7.8,3.755c-2.166,2.06-4.624,4.39-9.379,4.39s-7.213-2.33-9.379-4.39C40.018,4.043,38.184,2.3,34.349,2.3s-5.668,1.742-7.794,3.755c-2.17,2.06-4.627,4.39-9.379,4.39s-7.213-2.33-9.383-4.39C5.668,4.043,3.835,2.3,0,2.3V0C4.752,0,7.213,2.33,9.379,4.386c2.129,2.02,3.963,3.758,7.8,3.758s5.668-1.738,7.794-3.758C27.136,2.33,29.6,0,34.349,0s7.213,2.33,9.383,4.386c2.126,2.02,3.959,3.758,7.794,3.758s5.668-1.738,7.8-3.758C61.489,2.33,63.951,0,68.7,0s7.213,2.33,9.379,4.386c2.129,2.02,3.963,3.758,7.8,3.758s5.668-1.738,7.8-3.758C95.846,2.33,98.3,0,103.059,0V2.3c-3.835,0-5.672,1.742-7.8,3.755-2.169,2.06-4.628,4.39-9.379,4.39" transform="translate(1.877 24.821)" fill="#7d3a1b"/>
              <path id="Trazado_873377" data-name="Trazado 873377" d="M85.879,10.449c-4.752,0-7.213-2.33-9.379-4.39C74.371,4.043,72.538,2.3,68.7,2.3s-5.668,1.738-7.8,3.755c-2.166,2.06-4.627,4.39-9.379,4.39s-7.213-2.33-9.379-4.39C40.018,4.043,38.184,2.3,34.349,2.3s-5.668,1.742-7.794,3.755c-2.169,2.06-4.627,4.39-9.379,4.39s-7.213-2.33-9.383-4.39C5.668,4.043,3.835,2.3,0,2.3V0C4.752,0,7.213,2.33,9.379,4.386c2.126,2.02,3.963,3.758,7.8,3.758s5.668-1.738,7.794-3.758C27.136,2.33,29.6,0,34.349,0s7.213,2.33,9.383,4.386c2.126,2.02,3.959,3.758,7.794,3.758s5.668-1.738,7.8-3.758C61.489,2.33,63.951,0,68.7,0s7.213,2.33,9.379,4.386c2.129,2.02,3.963,3.758,7.8,3.758s5.668-1.738,7.8-3.758C95.846,2.33,98.3,0,103.059,0V2.3c-3.835,0-5.672,1.742-7.8,3.755-2.169,2.06-4.627,4.39-9.379,4.39" transform="translate(0.939 12.41)" fill="#7d3a1b"/>
              <path id="Trazado_873378" data-name="Trazado 873378" d="M85.879,10.445c-4.752,0-7.21-2.33-9.379-4.386C74.371,4.043,72.538,2.3,68.7,2.3s-5.668,1.738-7.794,3.755c-2.169,2.056-4.627,4.386-9.383,4.386s-7.21-2.33-9.379-4.386C40.018,4.043,38.184,2.3,34.349,2.3s-5.668,1.738-7.794,3.751c-2.166,2.06-4.627,4.39-9.379,4.39S9.963,8.115,7.794,6.059C5.668,4.043,3.835,2.3,0,2.3V0C4.752,0,7.213,2.33,9.379,4.386c2.129,2.016,3.963,3.755,7.8,3.755S22.845,6.4,24.971,4.386C27.14,2.33,29.6,0,34.349,0s7.21,2.33,9.383,4.386c2.126,2.016,3.959,3.755,7.794,3.755s5.668-1.738,7.8-3.755C61.493,2.33,63.951,0,68.7,0s7.21,2.33,9.379,4.386c2.129,2.016,3.963,3.755,7.8,3.755s5.668-1.738,7.8-3.755C95.846,2.33,98.3,0,103.059,0V2.3c-3.839,0-5.672,1.738-7.8,3.755-2.169,2.056-4.627,4.386-9.379,4.386" transform="translate(0 0.004)" fill="#7d3a1b"/>
            </g>
          </g>
        </g>
        <path id="Trazado_873425" data-name="Trazado 873425" d="M57.977,0A57.977,57.977,0,1,1,0,57.977,57.977,57.977,0,0,1,57.977,0Z" transform="translate(17.221 20.665)" fill="#ffe2b7"/>
        <circle id="Elipse_11503" data-name="Elipse 11503" cx="60.5" cy="60.5" r="60.5" transform="translate(8.957 8.957)" fill="#fff"/>
      </g>
    </g>
    <g id="Grupo_1117893" data-name="Grupo 1117893" transform="translate(451.156 4087)">
      <path id="Trazado_904246" data-name="Trazado 904246" d="M74.729,50.673V42.546a1.359,1.359,0,0,0-1.355-1.355H66.6V35.773H63.892v5.418H51.7V35.773A6.775,6.775,0,0,0,44.928,29H36.8a6.775,6.775,0,0,0-6.773,6.773v5.418H17.837V35.773H15.127v5.418H8.355A1.359,1.359,0,0,0,7,42.546v8.127a1.359,1.359,0,0,0,1.355,1.355h65.02A1.359,1.359,0,0,0,74.729,50.673Zm-41.992-14.9A4.076,4.076,0,0,1,36.8,31.709H39.51v6.773h2.709V31.709h2.709a4.076,4.076,0,0,1,4.064,4.064v5.418H32.737ZM23.255,49.319H9.709V43.9H23.255Zm32.51,0h-29.8V43.9h29.8Zm16.255,0H58.474V43.9H72.02Z" transform="translate(2.127 9.928)" fill="#7a4f00"/>
      <path id="Trazado_904247" data-name="Trazado 904247" d="M33.773,18a6.773,6.773,0,1,0,6.773,6.773A6.775,6.775,0,0,0,33.773,18Zm0,10.837a4.064,4.064,0,1,1,4.064-4.064A4.076,4.076,0,0,1,33.773,28.837Z" transform="translate(9.219 6.028)" fill="#7a4f00"/>
      <path id="Trazado_904248" data-name="Trazado 904248" d="M42.286,30.272l9.482,12.191a1.354,1.354,0,0,0,1.07.528,1.527,1.527,0,0,0,.433-.068,1.373,1.373,0,0,0,.921-1.287V30.8h5.418a1.354,1.354,0,0,0,1.1-.555,1.373,1.373,0,0,0,.2-1.206L54.559,8.735a4.072,4.072,0,1,0-3.59-.081L42.11,28.9A1.315,1.315,0,0,0,42.286,30.272ZM52.839,3.709a1.355,1.355,0,1,1-1.355,1.355A1.359,1.359,0,0,1,52.839,3.709Zm-.217,7.924,5.147,16.458H52.839a1.359,1.359,0,0,0-1.355,1.355V37.7l-6.57-8.439,7.708-17.61Z" transform="translate(14.536 0)" fill="#7a4f00"/>
      <path id="Trazado_904249" data-name="Trazado 904249" d="M8.26,30.245a1.354,1.354,0,0,0,1.1.555h5.418V41.637a1.355,1.355,0,0,0,.921,1.287,1.255,1.255,0,0,0,.433.068,1.354,1.354,0,0,0,1.07-.528l9.482-12.191a1.353,1.353,0,0,0,.176-1.368L18,8.653a4.056,4.056,0,1,0-3.59.081L8.057,29.04a1.331,1.331,0,0,0,.2,1.206ZM16.13,3.709a1.355,1.355,0,1,1-1.355,1.355A1.359,1.359,0,0,1,16.13,3.709Zm.217,7.924,7.708,17.61-6.57,8.439V29.433a1.359,1.359,0,0,0-1.355-1.355H11.2L16.347,11.62Z" transform="translate(2.479)" fill="#7a4f00"/>
      <path id="Trazado_904250" data-name="Trazado 904250" d="M4,54.418A5.418,5.418,0,1,0,9.418,49,5.417,5.417,0,0,0,4,54.418Zm8.127,0a2.709,2.709,0,1,1-2.709-2.709A2.717,2.717,0,0,1,12.127,54.418Z" transform="translate(1.064 17.02)" fill="#7a4f00"/>
      <path id="Trazado_904251" data-name="Trazado 904251" d="M28,54.418A5.418,5.418,0,1,0,33.418,49,5.417,5.417,0,0,0,28,54.418Zm8.127,0a2.709,2.709,0,1,1-2.709-2.709A2.717,2.717,0,0,1,36.127,54.418Z" transform="translate(9.574 17.02)" fill="#7a4f00"/>
      <path id="Trazado_904252" data-name="Trazado 904252" d="M57.418,59.837A5.418,5.418,0,1,0,52,54.418,5.417,5.417,0,0,0,57.418,59.837Zm0-8.127a2.709,2.709,0,1,1-2.709,2.709A2.717,2.717,0,0,1,57.418,51.709Z" transform="translate(18.084 17.02)" fill="#7a4f00"/>
      <path id="Trazado_904253" data-name="Trazado 904253" d="M78.211,58H72.793a6.764,6.764,0,0,0-5.418,2.75A6.727,6.727,0,0,0,61.956,58H56.538a6.764,6.764,0,0,0-5.418,2.75A6.727,6.727,0,0,0,45.7,58H40.283a6.764,6.764,0,0,0-5.418,2.75A6.727,6.727,0,0,0,29.446,58H24.028a6.764,6.764,0,0,0-5.418,2.75A6.727,6.727,0,0,0,13.191,58H7.773A6.775,6.775,0,0,0,1,64.773H3.709a4.076,4.076,0,0,1,4.064-4.064h5.418a4.076,4.076,0,0,1,4.064,4.064h2.709a4.076,4.076,0,0,1,4.064-4.064h5.418a4.076,4.076,0,0,1,4.064,4.064h2.709a4.076,4.076,0,0,1,4.064-4.064H45.7a4.076,4.076,0,0,1,4.064,4.064h2.709a4.076,4.076,0,0,1,4.064-4.064h5.418a4.076,4.076,0,0,1,4.064,4.064h2.709a4.076,4.076,0,0,1,4.064-4.064h5.418a4.076,4.076,0,0,1,4.064,4.064h2.709A6.775,6.775,0,0,0,78.211,58Z" transform="translate(0 20.211)" fill="#7a4f00"/>
      <path id="Trazado_904254" data-name="Trazado 904254" d="M40,54.418A5.418,5.418,0,1,0,45.418,49,5.417,5.417,0,0,0,40,54.418Zm8.127,0a2.709,2.709,0,1,1-2.709-2.709A2.717,2.717,0,0,1,48.127,54.418Z" transform="translate(13.829 17.02)" fill="#7a4f00"/>
      <path id="Trazado_904255" data-name="Trazado 904255" d="M16,54.418A5.418,5.418,0,1,0,21.418,49,5.417,5.417,0,0,0,16,54.418Zm8.127,0a2.709,2.709,0,1,1-2.709-2.709A2.717,2.717,0,0,1,24.127,54.418Z" transform="translate(5.319 17.02)" fill="#7a4f00"/>
    </g>
  </g>
</svg>
