<svg xmlns="http://www.w3.org/2000/svg" xmlns:xlink="http://www.w3.org/1999/xlink" width="139" height="139" viewBox="0 0 139 139">
  <defs>
    <clipPath id="clip-path">
      <rect id="Rectángulo_400938" data-name="Rectángulo 400938" width="139" height="139" transform="translate(-0.043 -0.043)" fill="none"/>
    </clipPath>
    <clipPath id="clip-path-2">
      <rect id="Rectángulo_401073" data-name="Rectángulo 401073" width="105.872" height="47.68" fill="#7d3a1b"/>
    </clipPath>
  </defs>
  <g id="Grupo_1118363" data-name="Grupo 1118363" transform="translate(-1041.492 -4063.563)">
    <g id="Grupo_1117891" data-name="Grupo 1117891" transform="translate(776.535 -1220.395)">
      <g id="Grupo_1099379" data-name="Grupo 1099379" transform="translate(265 5284)">
        <rect id="Rectángulo_401103" data-name="Rectángulo 401103" width="139" height="139" transform="translate(-0.043 -0.043)" fill="none"/>
        <g id="Grupo_1099348" data-name="Grupo 1099348" transform="translate(0)">
          <g id="Grupo_1099282" data-name="Grupo 1099282">
            <g id="Grupo_1099281" data-name="Grupo 1099281" clip-path="url(#clip-path-2)">
              <path id="Trazado_873375" data-name="Trazado 873375" d="M85.879,10.449c-4.752,0-7.21-2.33-9.379-4.386C74.371,4.047,72.538,2.3,68.7,2.3s-5.668,1.742-7.8,3.758c-2.17,2.056-4.624,4.386-9.379,4.386s-7.21-2.33-9.379-4.386C40.018,4.047,38.184,2.3,34.349,2.3s-5.668,1.742-7.794,3.758c-2.17,2.056-4.627,4.386-9.379,4.386S9.963,8.119,7.794,6.063C5.668,4.047,3.835,2.3,0,2.3V0C4.752,0,7.21,2.334,9.379,4.386c2.129,2.02,3.963,3.758,7.8,3.758s5.668-1.738,7.794-3.755C27.136,2.334,29.6,0,34.349,0s7.213,2.334,9.379,4.386c2.129,2.02,3.963,3.758,7.8,3.758s5.668-1.738,7.8-3.758C61.489,2.334,63.951,0,68.7,0s7.213,2.334,9.379,4.386c2.129,2.02,3.963,3.758,7.8,3.758s5.668-1.738,7.8-3.758C95.843,2.334,98.3,0,103.056,0V2.3c-3.835,0-5.668,1.742-7.8,3.758-2.169,2.056-4.627,4.386-9.379,4.386" transform="translate(2.816 37.231)" fill="#7d3a1b"/>
              <path id="Trazado_873376" data-name="Trazado 873376" d="M85.879,10.449c-4.752,0-7.213-2.33-9.379-4.39C74.371,4.043,72.538,2.3,68.7,2.3s-5.668,1.738-7.8,3.755c-2.166,2.06-4.624,4.39-9.379,4.39s-7.213-2.33-9.379-4.39C40.018,4.043,38.184,2.3,34.349,2.3s-5.668,1.742-7.794,3.755c-2.17,2.06-4.627,4.39-9.379,4.39s-7.213-2.33-9.383-4.39C5.668,4.043,3.835,2.3,0,2.3V0C4.752,0,7.213,2.33,9.379,4.386c2.129,2.02,3.963,3.758,7.8,3.758s5.668-1.738,7.794-3.758C27.136,2.33,29.6,0,34.349,0s7.213,2.33,9.383,4.386c2.126,2.02,3.959,3.758,7.794,3.758s5.668-1.738,7.8-3.758C61.489,2.33,63.951,0,68.7,0s7.213,2.33,9.379,4.386c2.129,2.02,3.963,3.758,7.8,3.758s5.668-1.738,7.8-3.758C95.846,2.33,98.3,0,103.059,0V2.3c-3.835,0-5.672,1.742-7.8,3.755-2.169,2.06-4.628,4.39-9.379,4.39" transform="translate(1.877 24.821)" fill="#7d3a1b"/>
              <path id="Trazado_873377" data-name="Trazado 873377" d="M85.879,10.449c-4.752,0-7.213-2.33-9.379-4.39C74.371,4.043,72.538,2.3,68.7,2.3s-5.668,1.738-7.8,3.755c-2.166,2.06-4.627,4.39-9.379,4.39s-7.213-2.33-9.379-4.39C40.018,4.043,38.184,2.3,34.349,2.3s-5.668,1.742-7.794,3.755c-2.169,2.06-4.627,4.39-9.379,4.39s-7.213-2.33-9.383-4.39C5.668,4.043,3.835,2.3,0,2.3V0C4.752,0,7.213,2.33,9.379,4.386c2.126,2.02,3.963,3.758,7.8,3.758s5.668-1.738,7.794-3.758C27.136,2.33,29.6,0,34.349,0s7.213,2.33,9.383,4.386c2.126,2.02,3.959,3.758,7.794,3.758s5.668-1.738,7.8-3.758C61.489,2.33,63.951,0,68.7,0s7.213,2.33,9.379,4.386c2.129,2.02,3.963,3.758,7.8,3.758s5.668-1.738,7.8-3.758C95.846,2.33,98.3,0,103.059,0V2.3c-3.835,0-5.672,1.742-7.8,3.755-2.169,2.06-4.627,4.39-9.379,4.39" transform="translate(0.939 12.41)" fill="#7d3a1b"/>
              <path id="Trazado_873378" data-name="Trazado 873378" d="M85.879,10.445c-4.752,0-7.21-2.33-9.379-4.386C74.371,4.043,72.538,2.3,68.7,2.3s-5.668,1.738-7.794,3.755c-2.169,2.056-4.627,4.386-9.383,4.386s-7.21-2.33-9.379-4.386C40.018,4.043,38.184,2.3,34.349,2.3s-5.668,1.738-7.794,3.751c-2.166,2.06-4.627,4.39-9.379,4.39S9.963,8.115,7.794,6.059C5.668,4.043,3.835,2.3,0,2.3V0C4.752,0,7.213,2.33,9.379,4.386c2.129,2.016,3.963,3.755,7.8,3.755S22.845,6.4,24.971,4.386C27.14,2.33,29.6,0,34.349,0s7.21,2.33,9.383,4.386c2.126,2.016,3.959,3.755,7.794,3.755s5.668-1.738,7.8-3.755C61.493,2.33,63.951,0,68.7,0s7.21,2.33,9.379,4.386c2.129,2.016,3.963,3.755,7.8,3.755s5.668-1.738,7.8-3.755C95.846,2.33,98.3,0,103.059,0V2.3c-3.839,0-5.672,1.738-7.8,3.755-2.169,2.056-4.627,4.386-9.379,4.386" transform="translate(0 0.004)" fill="#7d3a1b"/>
            </g>
          </g>
        </g>
        <path id="Trazado_873425" data-name="Trazado 873425" d="M57.977,0A57.977,57.977,0,1,1,0,57.977,57.977,57.977,0,0,1,57.977,0Z" transform="translate(17.221 20.665)" fill="#efb499"/>
        <circle id="Elipse_11503" data-name="Elipse 11503" cx="60.5" cy="60.5" r="60.5" transform="translate(8.957 8.957)" fill="#fff"/>
      </g>
    </g>
    <path id="Trazado_904256" data-name="Trazado 904256" d="M73.887,42.508,60.869,26.8a5.807,5.807,0,0,0-2.214-1.619A19.034,19.034,0,1,0,21.044,21.04a19.679,19.679,0,0,0,.329,3.352,5.771,5.771,0,0,0-2.075,1.29L5.521,39.055a5.794,5.794,0,0,0,4.036,9.969,5.861,5.861,0,0,0,2.707-.7l.734.607a15.641,15.641,0,0,1,4.263,5.655,4.766,4.766,0,0,0-.089,3,4.846,4.846,0,0,0,2.973,3.175,4.8,4.8,0,0,0-.177,3.58,4.936,4.936,0,0,0,3.112,3.049,4.43,4.43,0,0,0,.81.19,1.471,1.471,0,0,0-.051.228,4.832,4.832,0,0,0,.734,3.669,4.972,4.972,0,0,0,4.415,2.138,4.919,4.919,0,0,0,1.126-.215,4.788,4.788,0,0,0,.822,2.315,4.921,4.921,0,0,0,4.086,2.176,4.59,4.59,0,0,0,2.593-.784l13.005-7.224a10.887,10.887,0,0,0,4.453-4.516A44.8,44.8,0,0,1,66.119,52.11l.873-.683a5.731,5.731,0,0,0,1.9.531c.19.013.367.025.557.025a5.8,5.8,0,0,0,3.694-1.328,5.744,5.744,0,0,0,2.075-3.922,5.82,5.82,0,0,0-1.3-4.251ZM40.1,4.53A16.529,16.529,0,0,1,56.606,21.04a16.346,16.346,0,0,1-.417,3.681,5.743,5.743,0,0,0-5.554,6.25l-.772.62a15.511,15.511,0,0,1-8.514,3.378,30.826,30.826,0,0,0-4.909.822,8.64,8.64,0,0,0-.9-.114l-6.578-4.339a5.728,5.728,0,0,0-5.035-7.249A16.366,16.366,0,0,1,40.109,4.518ZM11.834,45.582a3.277,3.277,0,0,1-5.554-2.4,3.24,3.24,0,0,1,1-2.3L21.095,27.492a3.259,3.259,0,0,1,2.277-.924h.051a3.275,3.275,0,0,1,2.227,5.63Zm7.11,6.7A18.227,18.227,0,0,0,14.6,47l-.316-.266L27.407,34.019c.139-.127.24-.291.367-.43l6.654,4.4a1.363,1.363,0,0,0,.7.215,6.687,6.687,0,0,1,1.139.139,15.975,15.975,0,0,1,6.5,2.771A28.358,28.358,0,0,0,47.687,43.8c2.783,1.278,4.352,2.075,4.3,3.555a1.747,1.747,0,0,1-.734,1.379c-1.493,1.164-4.972,1.392-8.843.569a12.1,12.1,0,0,0-2.5-.342h-.974c-2.366.063-5.921.152-11.12-4.693a1.262,1.262,0,0,0-1.721,1.847c.291.278.582.519.86.759l-7.7,5.162c-.114.076-.2.164-.3.24ZM64.55,50.149a47.216,47.216,0,0,0-11.689,14,8.571,8.571,0,0,1-3.378,3.5L36.276,75a2.359,2.359,0,0,1-3.264-.645,2.3,2.3,0,0,1,.076-2.669l9.045-6.515a1.269,1.269,0,0,0-1.48-2.062l-9.248,6.654h-.013l-1.455.987a2.366,2.366,0,0,1-3.277-.645,2.286,2.286,0,0,1-.354-1.758,2.387,2.387,0,0,1,1-1.505h.013l12.942-9.02a1.263,1.263,0,1,0-1.442-2.075l-12.9,8.995a2.294,2.294,0,0,1-2.037.291,2.367,2.367,0,0,1-1.518-1.505,2.429,2.429,0,0,1,1-2.733l8.248-5.174a1.267,1.267,0,1,0-1.341-2.151L22.22,58.512a2.31,2.31,0,0,1-2.631-1.632,2.468,2.468,0,0,1,1.075-2.72l8.388-5.63A14.855,14.855,0,0,0,39,51.49c.316,0,.595-.013.86,0a9.8,9.8,0,0,1,2.011.278,23.712,23.712,0,0,0,4.871.544,9.967,9.967,0,0,0,6.06-1.594,4.274,4.274,0,0,0,1.708-3.277c.127-3.226-2.872-4.6-5.769-5.946a26.387,26.387,0,0,1-4.5-2.442A18.6,18.6,0,0,0,41.627,37.5a18.229,18.229,0,0,0,9.817-3.922l.051-.038a7.668,7.668,0,0,0,.443.67l12.98,15.674-.354.278Zm6.958-1.417a3.268,3.268,0,0,1-4.6-.443L53.886,32.577a3.287,3.287,0,0,1,.43-4.618,3.248,3.248,0,0,1,2.087-.746,2.751,2.751,0,0,1,.316.013A3.189,3.189,0,0,1,58.933,28.4L71.951,44.115a3.268,3.268,0,0,1-.443,4.6ZM32.265,21.419a.977.977,0,0,1,.278.873l-.468,2.733a3.52,3.52,0,0,0,5.1,3.719l2.454-1.29a.993.993,0,0,1,.924,0l2.454,1.29a3.475,3.475,0,0,0,1.645.4,3.549,3.549,0,0,0,2.062-.67,3.511,3.511,0,0,0,1.4-3.441L47.649,22.3a.985.985,0,0,1,.291-.873L49.926,19.5a3.522,3.522,0,0,0-1.936-6.009l-2.745-.4a1.031,1.031,0,0,1-.746-.544l-1.227-2.492a3.511,3.511,0,0,0-6.3,0l-1.227,2.492a.986.986,0,0,1-.746.544l-2.745.392a3.517,3.517,0,0,0-1.961,6l1.986,1.936ZM31.8,16.65a.969.969,0,0,1,.8-.671l2.745-.392A3.528,3.528,0,0,0,38,13.664l1.227-2.492a.969.969,0,0,1,.886-.557.945.945,0,0,1,.886.557l1.227,2.492a3.507,3.507,0,0,0,2.644,1.923l2.745.4a.984.984,0,0,1,.544,1.683L46.169,19.61a3.484,3.484,0,0,0-1.012,3.112l.468,2.733a.99.99,0,0,1-.392.974A.961.961,0,0,1,44.2,26.5l-2.454-1.29a3.591,3.591,0,0,0-1.645-.4,3.5,3.5,0,0,0-1.632.4L36.01,26.5a.927.927,0,0,1-1.037-.076.954.954,0,0,1-.392-.974l.468-2.733a3.484,3.484,0,0,0-1.012-3.112L32.05,17.674a.989.989,0,0,1-.253-1.012ZM14.061,11.779l4.428.961a1.268,1.268,0,0,1-.278,2.5.947.947,0,0,1-.266-.025l-4.428-.961a1.263,1.263,0,0,1,.544-2.467Zm-.721,9.387,2.91-.734a1.264,1.264,0,0,1,.607,2.454l-2.91.734a1.264,1.264,0,1,1-.607-2.454ZM18.931,8.123,16.578,6.251A1.269,1.269,0,0,1,18.16,4.265l2.353,1.872a1.278,1.278,0,0,1,.2,1.784,1.264,1.264,0,0,1-.987.481,1.216,1.216,0,0,1-.784-.278Zm48.681,4.63a1.269,1.269,0,0,1-.974,1.505l-4.428.961a.947.947,0,0,1-.266.025,1.266,1.266,0,0,1-.266-2.5l4.428-.961a1.26,1.26,0,0,1,1.505.961Zm-.784,8.413a1.265,1.265,0,0,1-.3,2.492.836.836,0,0,1-.3-.038l-2.91-.734a1.264,1.264,0,0,1,.607-2.454Zm-3.049-16.7a1.281,1.281,0,0,1-.2,1.784L61.223,8.123a1.216,1.216,0,0,1-.784.278,1.264,1.264,0,0,1-.987-.481,1.281,1.281,0,0,1,.2-1.784l2.353-1.872a1.269,1.269,0,0,1,1.784.2Z" transform="translate(1071.498 4093.116)" fill="#7d3a1b"/>
  </g>
</svg>
