<svg xmlns="http://www.w3.org/2000/svg" xmlns:xlink="http://www.w3.org/1999/xlink" width="1030" height="365.75" viewBox="0 0 1030 365.75">
  <defs>
    <clipPath id="clip-path">
      <path id="Trazado_905040" data-name="Trazado 905040" d="M283,0H0V365.75H1030V0Z" fill="none"/>
    </clipPath>
  </defs>
  <g id="Grupo_1118373" data-name="Grupo 1118373" transform="translate(-285 -5832)">
    <g id="Grupo_1118136" data-name="Grupo 1118136" transform="translate(285 5832)">
      <path id="Trazado_904916" data-name="Trazado 904916" d="M283,0H0V365.75H1030V0Z" fill="#feebcf"/>
      <path id="Trazado_904917" data-name="Trazado 904917" d="M30.25,56.11h98.36a5.88,5.88,0,0,0,3-6.94,5.426,5.426,0,0,0-6.95-3.57,8.618,8.618,0,0,0-3.08-3.68c-2.82-1.82-6.63-1.58-9.88.51.2-.78,1.51-6.45-1.88-11.31a12.555,12.555,0,0,0-13.7-4.76c-7.82-10.24-19.8-13.25-27.78-8.53-6.11,3.61-8.11,10.72-8.64,12.89a9.306,9.306,0,0,0-8.07,2.18,9.87,9.87,0,0,0-2.82,5.36A10.213,10.213,0,0,0,38.49,33.7c-4.72.97-8.32,5.71-8.26,11.31a5.629,5.629,0,0,0-4.51,5.16,5.69,5.69,0,0,0,4.51,5.95Z" fill="#fcfcfa"/>
    </g>
    <line id="Línea_3464" data-name="Línea 3464" x2="504.15" transform="translate(744.97 6073.69)" fill="none" stroke="#7d3a1b" stroke-miterlimit="10" stroke-width="1"/>
    <line id="Línea_3465" data-name="Línea 3465" x2="504.15" transform="translate(744.97 6017.67)" fill="none" stroke="#7d3a1b" stroke-miterlimit="10" stroke-width="1"/>
    <line id="Línea_3466" data-name="Línea 3466" x2="504.15" transform="translate(744.97 5989.65)" fill="none" stroke="#7d3a1b" stroke-miterlimit="10" stroke-width="1"/>
    <line id="Línea_3467" data-name="Línea 3467" x2="504.15" transform="translate(744.97 5961.64)" fill="none" stroke="#7d3a1b" stroke-miterlimit="10" stroke-width="1"/>
    <line id="Línea_3468" data-name="Línea 3468" x2="504.15" transform="translate(744.97 5933.63)" fill="none" stroke="#7d3a1b" stroke-miterlimit="10" stroke-width="1"/>
    <line id="Línea_3469" data-name="Línea 3469" x2="504.15" transform="translate(744.97 5905.62)" fill="none" stroke="#7d3a1b" stroke-miterlimit="10" stroke-width="1"/>
    <line id="Línea_3470" data-name="Línea 3470" x2="504.15" transform="translate(744.97 5877.6)" fill="none" stroke="#7d3a1b" stroke-miterlimit="10" stroke-width="1"/>
    <line id="Línea_3471" data-name="Línea 3471" x2="504.15" transform="translate(744.97 5849.59)" fill="none" stroke="#7d3a1b" stroke-miterlimit="10" stroke-width="1"/>
    <line id="Línea_3472" data-name="Línea 3472" x2="504.15" transform="translate(744.97 6101.7)" fill="none" stroke="#7d3a1b" stroke-miterlimit="10" stroke-width="1"/>
    <g id="Grupo_1118137" data-name="Grupo 1118137" transform="translate(285 5832)">
      <line id="Línea_3473" data-name="Línea 3473" y1="251.52" transform="translate(796.13 17.7)" fill="none" stroke="#7d3a1b" stroke-miterlimit="10" stroke-width="1"/>
      <line id="Línea_3474" data-name="Línea 3474" y1="251.52" transform="translate(754.14 17.7)" fill="none" stroke="#7d3a1b" stroke-miterlimit="10" stroke-width="1"/>
      <line id="Línea_3475" data-name="Línea 3475" y1="251.52" transform="translate(712.16 17.7)" fill="none" stroke="#7d3a1b" stroke-miterlimit="10" stroke-width="1"/>
      <line id="Línea_3476" data-name="Línea 3476" y1="251.52" transform="translate(670.17 17.7)" fill="none" stroke="#7d3a1b" stroke-miterlimit="10" stroke-width="1"/>
      <line id="Línea_3477" data-name="Línea 3477" y1="251.52" transform="translate(628.18 17.7)" fill="none" stroke="#7d3a1b" stroke-miterlimit="10" stroke-width="1"/>
      <line id="Línea_3478" data-name="Línea 3478" y1="251.52" transform="translate(586.19 17.7)" fill="none" stroke="#7d3a1b" stroke-miterlimit="10" stroke-width="1"/>
      <line id="Línea_3479" data-name="Línea 3479" y1="251.52" transform="translate(544.2 17.7)" fill="none" stroke="#7d3a1b" stroke-miterlimit="10" stroke-width="1"/>
      <line id="Línea_3480" data-name="Línea 3480" y1="251.52" transform="translate(502.22 17.7)" fill="none" stroke="#7d3a1b" stroke-miterlimit="10" stroke-width="1"/>
      <line id="Línea_3481" data-name="Línea 3481" y1="251.52" transform="translate(460.23 17.7)" fill="none" stroke="#7d3a1b" stroke-miterlimit="10" stroke-width="1"/>
      <line id="Línea_3482" data-name="Línea 3482" y1="251.52" transform="translate(838.12 17.7)" fill="none" stroke="#7d3a1b" stroke-miterlimit="10" stroke-width="1"/>
      <line id="Línea_3483" data-name="Línea 3483" y1="251.52" transform="translate(922.13 17.7)" fill="none" stroke="#7d3a1b" stroke-miterlimit="10" stroke-width="1"/>
      <line id="Línea_3484" data-name="Línea 3484" y1="251.52" transform="translate(880.14 17.7)" fill="none" stroke="#7d3a1b" stroke-miterlimit="10" stroke-width="1"/>
      <line id="Línea_3485" data-name="Línea 3485" y1="251.52" transform="translate(964.12 17.7)" fill="none" stroke="#7d3a1b" stroke-miterlimit="10" stroke-width="1"/>
    </g>
    <circle id="Elipse_11556" data-name="Elipse 11556" cx="6" cy="6" r="6" transform="translate(822.62 5912.2)" fill="#09614d"/>
    <circle id="Elipse_11557" data-name="Elipse 11557" cx="6" cy="6" r="6" transform="translate(822.62 5941.2)" fill="#7d3a1b"/>
    <circle id="Elipse_11558" data-name="Elipse 11558" cx="6" cy="6" r="6" transform="translate(822.62 6003.2)" fill="#727997"/>
    <circle id="Elipse_11559" data-name="Elipse 11559" cx="6" cy="6" r="6" transform="translate(822.62 5989.2)" fill="#ffb937"/>
    <circle id="Elipse_11560" data-name="Elipse 11560" cx="6" cy="6" r="6" transform="translate(1117.12 5946.2)" fill="#09614d"/>
    <circle id="Elipse_11561" data-name="Elipse 11561" cx="6" cy="6" r="6" transform="translate(865.62 6069.2)" fill="#727997"/>
    <circle id="Elipse_11562" data-name="Elipse 11562" cx="6" cy="6" r="6" transform="translate(865.62 6061.2)" fill="#ffb937"/>
    <circle id="Elipse_11563" data-name="Elipse 11563" cx="6" cy="6" r="6" transform="translate(865.62 6046.2)" fill="#7d3a1b"/>
    <circle id="Elipse_11564" data-name="Elipse 11564" cx="6" cy="6" r="6" transform="translate(865.62 6038.2)" fill="#09614d"/>
    <circle id="Elipse_11565" data-name="Elipse 11565" cx="6" cy="6" r="6" transform="translate(907.62 6088.2)" fill="#ffb937"/>
    <circle id="Elipse_11566" data-name="Elipse 11566" cx="6" cy="6" r="6" transform="translate(907.62 6064.2)" fill="#727997"/>
    <circle id="Elipse_11567" data-name="Elipse 11567" cx="6" cy="6" r="6" transform="translate(907.62 5985.2)" fill="#09614d"/>
    <circle id="Elipse_11568" data-name="Elipse 11568" cx="6" cy="6" r="6" transform="translate(907.62 5977.2)" fill="#7d3a1b"/>
    <circle id="Elipse_11569" data-name="Elipse 11569" cx="6" cy="6" r="6" transform="translate(949.71 5964.64)" fill="#ffb937"/>
    <circle id="Elipse_11570" data-name="Elipse 11570" cx="6" cy="6" r="6" transform="translate(949.71 6013.65)" fill="#727997"/>
    <circle id="Elipse_11571" data-name="Elipse 11571" cx="6" cy="6" r="6" transform="translate(949.72 6021.67)" fill="#09614d"/>
    <circle id="Elipse_11572" data-name="Elipse 11572" cx="6" cy="6" r="6" transform="translate(949.62 6067.2)" fill="#7d3a1b"/>
    <circle id="Elipse_11573" data-name="Elipse 11573" cx="6" cy="6" r="6" transform="translate(991.71 5956.65)" fill="#ffb937"/>
    <circle id="Elipse_11574" data-name="Elipse 11574" cx="6" cy="6" r="6" transform="translate(991.71 6013.64)" fill="#09614d"/>
    <circle id="Elipse_11575" data-name="Elipse 11575" cx="6" cy="6" r="6" transform="translate(991.71 6038.65)" fill="#727997"/>
    <circle id="Elipse_11576" data-name="Elipse 11576" cx="6" cy="6" r="6" transform="translate(991.71 6029.66)" fill="#7d3a1b"/>
    <circle id="Elipse_11577" data-name="Elipse 11577" cx="6" cy="6" r="6" transform="translate(1033.19 5954.64)" fill="#09614d"/>
    <circle id="Elipse_11578" data-name="Elipse 11578" cx="6" cy="6" r="6" transform="translate(1033.19 5966.55)" fill="#ffb937"/>
    <circle id="Elipse_11579" data-name="Elipse 11579" cx="6" cy="6" r="6" transform="translate(1033.19 6011.65)" fill="#727997"/>
    <circle id="Elipse_11580" data-name="Elipse 11580" cx="6" cy="6" r="6" transform="translate(1033.19 6030.65)" fill="#7d3a1b"/>
    <circle id="Elipse_11581" data-name="Elipse 11581" cx="6" cy="6" r="6" transform="translate(1075.13 6013.65)" fill="#727997"/>
    <circle id="Elipse_11582" data-name="Elipse 11582" cx="6" cy="6" r="6" transform="translate(1117.12 5975.2)" fill="#ffb937"/>
    <circle id="Elipse_11583" data-name="Elipse 11583" cx="6" cy="6" r="6" transform="translate(1117.12 6000.2)" fill="#727997"/>
    <circle id="Elipse_11584" data-name="Elipse 11584" cx="6" cy="6" r="6" transform="translate(1117.12 6038.2)" fill="#7d3a1b"/>
    <circle id="Elipse_11585" data-name="Elipse 11585" cx="6" cy="6" r="6" transform="translate(1158.95 6013.2)" fill="#09614d"/>
    <circle id="Elipse_11586" data-name="Elipse 11586" cx="6" cy="6" r="6" transform="translate(1158.95 6058.2)" fill="#7d3a1b"/>
    <circle id="Elipse_11587" data-name="Elipse 11587" cx="6" cy="6" r="6" transform="translate(1201.62 5924.2)" fill="#09614d"/>
    <circle id="Elipse_11588" data-name="Elipse 11588" cx="6" cy="6" r="6" transform="translate(1201.62 5976.2)" fill="#ffb937"/>
    <circle id="Elipse_11589" data-name="Elipse 11589" cx="6" cy="6" r="6" transform="translate(1201.62 6024.2)" fill="#727997"/>
    <circle id="Elipse_11590" data-name="Elipse 11590" cx="6" cy="6" r="6" transform="translate(1201.62 6042.2)" fill="#7d3a1b"/>
    <circle id="Elipse_11591" data-name="Elipse 11591" cx="6" cy="6" r="6" transform="translate(1243.72 5967.2)" fill="#09614d"/>
    <circle id="Elipse_11592" data-name="Elipse 11592" cx="6" cy="6" r="6" transform="translate(1243.72 6022.2)" fill="#ffb937"/>
    <circle id="Elipse_11593" data-name="Elipse 11593" cx="6" cy="6" r="6" transform="translate(1243.72 6037.67)" fill="#727997"/>
    <circle id="Elipse_11594" data-name="Elipse 11594" cx="6" cy="6" r="6" transform="translate(1243.72 6058.68)" fill="#7d3a1b"/>
    <path id="Trazado_904918" data-name="Trazado 904918" d="M504.62,83.2s32,8,45,43,25,92,36,91,15-10,30-52c0,0,6-15,12-15s14,25,22,46,15,45,21,45,10,0,21-15,15-26,28-26,27,7,42,1,28-17,51-5,55,37,69,36,29-17,41-16,31,17,39,16" transform="translate(285 5832)" fill="none" stroke="#7d3a1b" stroke-miterlimit="10" stroke-width="2"/>
    <path id="Trazado_904919" data-name="Trazado 904919" d="M500.62,82.2s33-18,42,1,13,33,19,57,19,72,24,73,11,7,24-25c0,0,12.27-28.19,18.14-30.1s10.86,3.1,10.86,3.1l32.1,34.46s13.9,2.54,20.9.54,23.93,2.76,61.97-66.62L775.62,81.2s12.78-26.83,20.39-25.92,15.61,12.92,35.61,52.92,36,82,48,79,27-62,27-62,11-31,18-28,8,3,16,14,16,24,21,28" transform="translate(285 5832)" fill="none" stroke="#09614d" stroke-miterlimit="10" stroke-width="2"/>
    <path id="Trazado_904920" data-name="Trazado 904920" d="M503.62,85.2l80,148s33,49,45,29c0,0,12-21,20-55s13.18-51.13,22.09-68.56c0,0,3.96-19.67,40.93-9.05,0,0,33.98,15.62,40.98,11.62s14-17,22-32,17-24,21-24,14,6,33,47c0,0,28,57,29,58s13.67,27,22.33,29,20.67-31,20.67-31,16.39-39.93,21.7-38.96,10.3,3.96,22.3,21.96,15,23,19,26" transform="translate(285 5832)" fill="none" stroke="#ffb937" stroke-miterlimit="10" stroke-width="2"/>
    <path id="Trazado_904921" data-name="Trazado 904921" d="M504.8,89.32s55.41,132.15,78.61,150.52c0,0,15.2,14.37,35.2,3.37s31-33,40-45,15-14,26-5,19,19,27,18,14-6,24-14,12-16,32-13,27,7,38,0,31-19,41-5,27,45,39,41c14.85-4.95,31-29,51-20s29,12,29,12" transform="translate(285 5832)" fill="none" stroke="#727997" stroke-miterlimit="10" stroke-width="2"/>
    <circle id="Elipse_11595" data-name="Elipse 11595" cx="6" cy="6" r="6" transform="translate(1074.54 5912.04)" fill="#ffb937"/>
    <circle id="Elipse_11596" data-name="Elipse 11596" cx="6" cy="6" r="6" transform="translate(1076.1 5882.04)" fill="#09614d"/>
    <circle id="Elipse_11597" data-name="Elipse 11597" cx="6" cy="6" r="6" transform="translate(781.62 5909.2)" fill="#09614d"/>
    <circle id="Elipse_11598" data-name="Elipse 11598" cx="6" cy="6" r="6" transform="translate(1075.13 6017.14)" fill="#7d3a1b"/>
    <circle id="Elipse_11599" data-name="Elipse 11599" cx="6" cy="6" r="6" transform="translate(1158.95 6045.2)" fill="#ffb937"/>
    <path id="Trazado_905810" data-name="Trazado 905810" d="M8.4,0H.945V-1.039L4.883-5.414A9.354,9.354,0,0,0,6.09-7.027a2.693,2.693,0,0,0,.332-1.285,2.041,2.041,0,0,0-.539-1.461,1.885,1.885,0,0,0-1.437-.57A2.232,2.232,0,0,0,2.77-9.73a2.343,2.343,0,0,0-.6,1.707H.727a3.355,3.355,0,0,1,1.012-2.539,3.751,3.751,0,0,1,2.707-.969,3.6,3.6,0,0,1,2.508.832,2.838,2.838,0,0,1,.922,2.215q0,1.68-2.141,4L2.688-1.18H8.4Zm8.875-10.562L12.563,0H11.047l4.7-10.187H9.586v-1.187h7.688Zm8.773,5.711a6.61,6.61,0,0,1-.867,3.773A3.084,3.084,0,0,1,22.469.156a3.107,3.107,0,0,1-2.7-1.207,6.274,6.274,0,0,1-.906-3.605v-1.93a6.463,6.463,0,0,1,.867-3.727,3.108,3.108,0,0,1,2.719-1.219,3.136,3.136,0,0,1,2.7,1.176,6.237,6.237,0,0,1,.891,3.629ZM24.6-6.828A5.3,5.3,0,0,0,24.086-9.5a1.775,1.775,0,0,0-1.633-.84,1.751,1.751,0,0,0-1.617.836,5.171,5.171,0,0,0-.523,2.57v2.313A5.381,5.381,0,0,0,20.848-1.9a1.771,1.771,0,0,0,1.621.879,1.747,1.747,0,0,0,1.59-.828A5.186,5.186,0,0,0,24.6-4.461Zm10.43,1.977a6.61,6.61,0,0,1-.867,3.773A3.084,3.084,0,0,1,31.453.156a3.107,3.107,0,0,1-2.7-1.207,6.274,6.274,0,0,1-.906-3.605v-1.93a6.463,6.463,0,0,1,.867-3.727,3.108,3.108,0,0,1,2.719-1.219,3.136,3.136,0,0,1,2.7,1.176,6.237,6.237,0,0,1,.891,3.629ZM33.586-6.828A5.3,5.3,0,0,0,33.07-9.5a1.775,1.775,0,0,0-1.633-.84,1.751,1.751,0,0,0-1.617.836,5.171,5.171,0,0,0-.523,2.57v2.313A5.381,5.381,0,0,0,29.832-1.9a1.771,1.771,0,0,0,1.621.879,1.747,1.747,0,0,0,1.59-.828,5.186,5.186,0,0,0,.543-2.609Z" transform="translate(699.93 5855.9)" fill="#12263f"/>
    <path id="Trazado_905811" data-name="Trazado 905811" d="M8.4,0H.945V-1.039L4.883-5.414A9.354,9.354,0,0,0,6.09-7.027a2.693,2.693,0,0,0,.332-1.285,2.041,2.041,0,0,0-.539-1.461,1.885,1.885,0,0,0-1.437-.57A2.232,2.232,0,0,0,2.77-9.73a2.343,2.343,0,0,0-.6,1.707H.727a3.355,3.355,0,0,1,1.012-2.539,3.751,3.751,0,0,1,2.707-.969,3.6,3.6,0,0,1,2.508.832,2.838,2.838,0,0,1,.922,2.215q0,1.68-2.141,4L2.688-1.18H8.4Zm7.633-3.82h1.578v1.18H16.031V0H14.578V-2.641H9.4v-.852l5.094-7.883h1.539Zm-4.992,0h3.539V-9.4l-.172.313ZM26.047-4.852a6.61,6.61,0,0,1-.867,3.773A3.084,3.084,0,0,1,22.469.156a3.107,3.107,0,0,1-2.7-1.207,6.274,6.274,0,0,1-.906-3.605v-1.93a6.463,6.463,0,0,1,.867-3.727,3.108,3.108,0,0,1,2.719-1.219,3.136,3.136,0,0,1,2.7,1.176,6.237,6.237,0,0,1,.891,3.629ZM24.6-6.828A5.3,5.3,0,0,0,24.086-9.5a1.775,1.775,0,0,0-1.633-.84,1.751,1.751,0,0,0-1.617.836,5.171,5.171,0,0,0-.523,2.57v2.313A5.381,5.381,0,0,0,20.848-1.9a1.771,1.771,0,0,0,1.621.879,1.747,1.747,0,0,0,1.59-.828A5.186,5.186,0,0,0,24.6-4.461Zm10.43,1.977a6.61,6.61,0,0,1-.867,3.773A3.084,3.084,0,0,1,31.453.156a3.107,3.107,0,0,1-2.7-1.207,6.274,6.274,0,0,1-.906-3.605v-1.93a6.463,6.463,0,0,1,.867-3.727,3.108,3.108,0,0,1,2.719-1.219,3.136,3.136,0,0,1,2.7,1.176,6.237,6.237,0,0,1,.891,3.629ZM33.586-6.828A5.3,5.3,0,0,0,33.07-9.5a1.775,1.775,0,0,0-1.633-.84,1.751,1.751,0,0,0-1.617.836,5.171,5.171,0,0,0-.523,2.57v2.313A5.381,5.381,0,0,0,29.832-1.9a1.771,1.771,0,0,0,1.621.879,1.747,1.747,0,0,0,1.59-.828,5.186,5.186,0,0,0,.543-2.609Z" transform="translate(699.93 5883.9)" fill="#12263f"/>
    <path id="Trazado_905812" data-name="Trazado 905812" d="M8.4,0H.945V-1.039L4.883-5.414A9.354,9.354,0,0,0,6.09-7.027a2.693,2.693,0,0,0,.332-1.285,2.041,2.041,0,0,0-.539-1.461,1.885,1.885,0,0,0-1.437-.57A2.232,2.232,0,0,0,2.77-9.73a2.343,2.343,0,0,0-.6,1.707H.727a3.355,3.355,0,0,1,1.012-2.539,3.751,3.751,0,0,1,2.707-.969,3.6,3.6,0,0,1,2.508.832,2.838,2.838,0,0,1,.922,2.215q0,1.68-2.141,4L2.688-1.18H8.4ZM14.68,0H13.227V-9.633l-2.914,1.07V-9.875l4.141-1.555h.227ZM26.047-4.852a6.61,6.61,0,0,1-.867,3.773A3.084,3.084,0,0,1,22.469.156a3.107,3.107,0,0,1-2.7-1.207,6.274,6.274,0,0,1-.906-3.605v-1.93a6.463,6.463,0,0,1,.867-3.727,3.108,3.108,0,0,1,2.719-1.219,3.136,3.136,0,0,1,2.7,1.176,6.237,6.237,0,0,1,.891,3.629ZM24.6-6.828A5.3,5.3,0,0,0,24.086-9.5a1.775,1.775,0,0,0-1.633-.84,1.751,1.751,0,0,0-1.617.836,5.171,5.171,0,0,0-.523,2.57v2.313A5.381,5.381,0,0,0,20.848-1.9a1.771,1.771,0,0,0,1.621.879,1.747,1.747,0,0,0,1.59-.828A5.186,5.186,0,0,0,24.6-4.461Zm10.43,1.977a6.61,6.61,0,0,1-.867,3.773A3.084,3.084,0,0,1,31.453.156a3.107,3.107,0,0,1-2.7-1.207,6.274,6.274,0,0,1-.906-3.605v-1.93a6.463,6.463,0,0,1,.867-3.727,3.108,3.108,0,0,1,2.719-1.219,3.136,3.136,0,0,1,2.7,1.176,6.237,6.237,0,0,1,.891,3.629ZM33.586-6.828A5.3,5.3,0,0,0,33.07-9.5a1.775,1.775,0,0,0-1.633-.84,1.751,1.751,0,0,0-1.617.836,5.171,5.171,0,0,0-.523,2.57v2.313A5.381,5.381,0,0,0,29.832-1.9a1.771,1.771,0,0,0,1.621.879,1.747,1.747,0,0,0,1.59-.828,5.186,5.186,0,0,0,.543-2.609Z" transform="translate(699.93 5911.9)" fill="#12263f"/>
    <path id="Trazado_905813" data-name="Trazado 905813" d="M5.7,0H4.242V-9.633L1.328-8.562V-9.875L5.469-11.43H5.7ZM16.828-8.406a2.641,2.641,0,0,1-.449,1.516,3.056,3.056,0,0,1-1.215,1.039,3.26,3.26,0,0,1,1.41,1.117,2.811,2.811,0,0,1,.52,1.664,2.972,2.972,0,0,1-1,2.352,3.827,3.827,0,0,1-2.621.875,3.81,3.81,0,0,1-2.629-.879A2.986,2.986,0,0,1,9.859-3.07a2.9,2.9,0,0,1,.5-1.664,3.136,3.136,0,0,1,1.395-1.125,2.981,2.981,0,0,1-1.2-1.039,2.679,2.679,0,0,1-.437-1.508,2.94,2.94,0,0,1,.922-2.281,3.458,3.458,0,0,1,2.43-.844,3.461,3.461,0,0,1,2.426.844A2.934,2.934,0,0,1,16.828-8.406Zm-1.18,5.3a2.1,2.1,0,0,0-.605-1.555,2.147,2.147,0,0,0-1.582-.6,2.11,2.11,0,0,0-1.566.594A2.12,2.12,0,0,0,11.3-3.1a2.019,2.019,0,0,0,.574,1.523,2.2,2.2,0,0,0,1.6.555,2.2,2.2,0,0,0,1.594-.559A2.014,2.014,0,0,0,15.648-3.1Zm-2.172-7.242a1.865,1.865,0,0,0-1.379.527,1.937,1.937,0,0,0-.527,1.434,1.928,1.928,0,0,0,.52,1.4,1.844,1.844,0,0,0,1.387.535,1.844,1.844,0,0,0,1.387-.535,1.928,1.928,0,0,0,.52-1.4A1.929,1.929,0,0,0,14.844-9.8,1.839,1.839,0,0,0,13.477-10.344Zm12.57,5.492a6.61,6.61,0,0,1-.867,3.773A3.084,3.084,0,0,1,22.469.156a3.107,3.107,0,0,1-2.7-1.207,6.274,6.274,0,0,1-.906-3.605v-1.93a6.463,6.463,0,0,1,.867-3.727,3.108,3.108,0,0,1,2.719-1.219,3.136,3.136,0,0,1,2.7,1.176,6.237,6.237,0,0,1,.891,3.629ZM24.6-6.828A5.3,5.3,0,0,0,24.086-9.5a1.775,1.775,0,0,0-1.633-.84,1.751,1.751,0,0,0-1.617.836,5.171,5.171,0,0,0-.523,2.57v2.313A5.381,5.381,0,0,0,20.848-1.9a1.771,1.771,0,0,0,1.621.879,1.747,1.747,0,0,0,1.59-.828A5.186,5.186,0,0,0,24.6-4.461Zm10.43,1.977a6.61,6.61,0,0,1-.867,3.773A3.084,3.084,0,0,1,31.453.156a3.107,3.107,0,0,1-2.7-1.207,6.274,6.274,0,0,1-.906-3.605v-1.93a6.463,6.463,0,0,1,.867-3.727,3.108,3.108,0,0,1,2.719-1.219,3.136,3.136,0,0,1,2.7,1.176,6.237,6.237,0,0,1,.891,3.629ZM33.586-6.828A5.3,5.3,0,0,0,33.07-9.5a1.775,1.775,0,0,0-1.633-.84,1.751,1.751,0,0,0-1.617.836,5.171,5.171,0,0,0-.523,2.57v2.313A5.381,5.381,0,0,0,29.832-1.9a1.771,1.771,0,0,0,1.621.879,1.747,1.747,0,0,0,1.59-.828,5.186,5.186,0,0,0,.543-2.609Z" transform="translate(699.93 5939.9)" fill="#12263f"/>
    <path id="Trazado_905814" data-name="Trazado 905814" d="M5.7,0H4.242V-9.633L1.328-8.562V-9.875L5.469-11.43H5.7Zm4.9-5.7.578-5.672H17v1.336H12.4l-.344,3.1a3.671,3.671,0,0,1,1.9-.492A3.138,3.138,0,0,1,16.422-6.4a4.026,4.026,0,0,1,.914,2.777,3.886,3.886,0,0,1-.949,2.77A3.46,3.46,0,0,1,13.734.156,3.6,3.6,0,0,1,11.273-.68a3.337,3.337,0,0,1-1.086-2.312h1.367a2.3,2.3,0,0,0,.7,1.473,2.162,2.162,0,0,0,1.484.5,1.95,1.95,0,0,0,1.582-.687,2.874,2.874,0,0,0,.574-1.9,2.638,2.638,0,0,0-.621-1.832,2.113,2.113,0,0,0-1.652-.691,2.383,2.383,0,0,0-1.484.414l-.383.313Zm15.453.852a6.61,6.61,0,0,1-.867,3.773A3.084,3.084,0,0,1,22.469.156a3.107,3.107,0,0,1-2.7-1.207,6.274,6.274,0,0,1-.906-3.605v-1.93a6.463,6.463,0,0,1,.867-3.727,3.108,3.108,0,0,1,2.719-1.219,3.136,3.136,0,0,1,2.7,1.176,6.237,6.237,0,0,1,.891,3.629ZM24.6-6.828A5.3,5.3,0,0,0,24.086-9.5a1.775,1.775,0,0,0-1.633-.84,1.751,1.751,0,0,0-1.617.836,5.171,5.171,0,0,0-.523,2.57v2.313A5.381,5.381,0,0,0,20.848-1.9a1.771,1.771,0,0,0,1.621.879,1.747,1.747,0,0,0,1.59-.828A5.186,5.186,0,0,0,24.6-4.461Zm10.43,1.977a6.61,6.61,0,0,1-.867,3.773A3.084,3.084,0,0,1,31.453.156a3.107,3.107,0,0,1-2.7-1.207,6.274,6.274,0,0,1-.906-3.605v-1.93a6.463,6.463,0,0,1,.867-3.727,3.108,3.108,0,0,1,2.719-1.219,3.136,3.136,0,0,1,2.7,1.176,6.237,6.237,0,0,1,.891,3.629ZM33.586-6.828A5.3,5.3,0,0,0,33.07-9.5a1.775,1.775,0,0,0-1.633-.84,1.751,1.751,0,0,0-1.617.836,5.171,5.171,0,0,0-.523,2.57v2.313A5.381,5.381,0,0,0,29.832-1.9a1.771,1.771,0,0,0,1.621.879,1.747,1.747,0,0,0,1.59-.828,5.186,5.186,0,0,0,.543-2.609Z" transform="translate(699.93 5967.9)" fill="#12263f"/>
    <path id="Trazado_905815" data-name="Trazado 905815" d="M5.7,0H4.242V-9.633L1.328-8.562V-9.875L5.469-11.43H5.7ZM17.383,0H9.93V-1.039l3.938-4.375a9.354,9.354,0,0,0,1.207-1.613,2.693,2.693,0,0,0,.332-1.285,2.041,2.041,0,0,0-.539-1.461,1.885,1.885,0,0,0-1.437-.57,2.232,2.232,0,0,0-1.676.613,2.343,2.343,0,0,0-.6,1.707H9.711a3.355,3.355,0,0,1,1.012-2.539,3.751,3.751,0,0,1,2.707-.969,3.6,3.6,0,0,1,2.508.832,2.838,2.838,0,0,1,.922,2.215q0,1.68-2.141,4l-3.047,3.3h5.711Zm8.664-4.852a6.61,6.61,0,0,1-.867,3.773A3.084,3.084,0,0,1,22.469.156a3.107,3.107,0,0,1-2.7-1.207,6.274,6.274,0,0,1-.906-3.605v-1.93a6.463,6.463,0,0,1,.867-3.727,3.108,3.108,0,0,1,2.719-1.219,3.136,3.136,0,0,1,2.7,1.176,6.237,6.237,0,0,1,.891,3.629ZM24.6-6.828A5.3,5.3,0,0,0,24.086-9.5a1.775,1.775,0,0,0-1.633-.84,1.751,1.751,0,0,0-1.617.836,5.171,5.171,0,0,0-.523,2.57v2.313A5.381,5.381,0,0,0,20.848-1.9a1.771,1.771,0,0,0,1.621.879,1.747,1.747,0,0,0,1.59-.828A5.186,5.186,0,0,0,24.6-4.461Zm10.43,1.977a6.61,6.61,0,0,1-.867,3.773A3.084,3.084,0,0,1,31.453.156a3.107,3.107,0,0,1-2.7-1.207,6.274,6.274,0,0,1-.906-3.605v-1.93a6.463,6.463,0,0,1,.867-3.727,3.108,3.108,0,0,1,2.719-1.219,3.136,3.136,0,0,1,2.7,1.176,6.237,6.237,0,0,1,.891,3.629ZM33.586-6.828A5.3,5.3,0,0,0,33.07-9.5a1.775,1.775,0,0,0-1.633-.84,1.751,1.751,0,0,0-1.617.836,5.171,5.171,0,0,0-.523,2.57v2.313A5.381,5.381,0,0,0,29.832-1.9a1.771,1.771,0,0,0,1.621.879,1.747,1.747,0,0,0,1.59-.828,5.186,5.186,0,0,0,.543-2.609Z" transform="translate(699.93 5995.9)" fill="#12263f"/>
    <path id="Trazado_905816" data-name="Trazado 905816" d="M6.484-5A3.536,3.536,0,0,1,5.4-4.133,2.936,2.936,0,0,1,4.023-3.8a3.031,3.031,0,0,1-1.715-.484A3.149,3.149,0,0,1,1.18-5.652a4.648,4.648,0,0,1-.4-1.941,4.735,4.735,0,0,1,.434-2.055,3.185,3.185,0,0,1,1.23-1.4A3.509,3.509,0,0,1,4.3-11.531a3.177,3.177,0,0,1,2.66,1.262,5.5,5.5,0,0,1,.973,3.441v.422q0,3.32-1.312,4.848A5.043,5.043,0,0,1,2.664.008H2.383V-1.219h.3a3.979,3.979,0,0,0,2.75-.932A4,4,0,0,0,6.484-5ZM4.258-5A2.232,2.232,0,0,0,5.6-5.445a2.625,2.625,0,0,0,.895-1.1v-.578a3.977,3.977,0,0,0-.617-2.312,1.842,1.842,0,0,0-1.562-.891,1.856,1.856,0,0,0-1.531.73A3.013,3.013,0,0,0,2.2-7.672a3.136,3.136,0,0,0,.559,1.918A1.769,1.769,0,0,0,4.258-5Zm12.8.148A6.61,6.61,0,0,1,16.2-1.078,3.084,3.084,0,0,1,13.484.156a3.107,3.107,0,0,1-2.7-1.207,6.274,6.274,0,0,1-.906-3.605v-1.93a6.463,6.463,0,0,1,.867-3.727,3.108,3.108,0,0,1,2.719-1.219,3.136,3.136,0,0,1,2.7,1.176,6.237,6.237,0,0,1,.891,3.629ZM15.617-6.828A5.3,5.3,0,0,0,15.1-9.5a1.775,1.775,0,0,0-1.633-.84,1.751,1.751,0,0,0-1.617.836,5.171,5.171,0,0,0-.523,2.57v2.313A5.381,5.381,0,0,0,11.863-1.9a1.771,1.771,0,0,0,1.621.879,1.747,1.747,0,0,0,1.59-.828,5.186,5.186,0,0,0,.543-2.609Zm10.43,1.977a6.61,6.61,0,0,1-.867,3.773A3.084,3.084,0,0,1,22.469.156a3.107,3.107,0,0,1-2.7-1.207,6.274,6.274,0,0,1-.906-3.605v-1.93a6.463,6.463,0,0,1,.867-3.727,3.108,3.108,0,0,1,2.719-1.219,3.136,3.136,0,0,1,2.7,1.176,6.237,6.237,0,0,1,.891,3.629ZM24.6-6.828A5.3,5.3,0,0,0,24.086-9.5a1.775,1.775,0,0,0-1.633-.84,1.751,1.751,0,0,0-1.617.836,5.171,5.171,0,0,0-.523,2.57v2.313A5.381,5.381,0,0,0,20.848-1.9a1.771,1.771,0,0,0,1.621.879,1.747,1.747,0,0,0,1.59-.828A5.186,5.186,0,0,0,24.6-4.461Z" transform="translate(708.92 6023.9)" fill="#12263f"/>
    <path id="Trazado_905817" data-name="Trazado 905817" d="M6.617-11.383v1.227H6.352a3.805,3.805,0,0,0-2.687,1A4.161,4.161,0,0,0,2.508-6.43,3.085,3.085,0,0,1,4.961-7.461,2.95,2.95,0,0,1,7.332-6.414a4.038,4.038,0,0,1,.887,2.7A4.025,4.025,0,0,1,7.262-.9,3.3,3.3,0,0,1,4.7.156,3.247,3.247,0,0,1,2.047-1.1a4.97,4.97,0,0,1-1.016-3.23v-.555a7.488,7.488,0,0,1,1.34-4.8,4.921,4.921,0,0,1,3.988-1.7Zm-1.9,5.125a2.306,2.306,0,0,0-1.367.445A2.32,2.32,0,0,0,2.484-4.7v.531A3.731,3.731,0,0,0,3.117-1.9,1.9,1.9,0,0,0,4.7-1.039,1.838,1.838,0,0,0,6.23-1.758a2.982,2.982,0,0,0,.559-1.883,2.983,2.983,0,0,0-.566-1.895A1.816,1.816,0,0,0,4.719-6.258ZM17.063-4.852A6.61,6.61,0,0,1,16.2-1.078,3.084,3.084,0,0,1,13.484.156a3.107,3.107,0,0,1-2.7-1.207,6.274,6.274,0,0,1-.906-3.605v-1.93a6.463,6.463,0,0,1,.867-3.727,3.108,3.108,0,0,1,2.719-1.219,3.136,3.136,0,0,1,2.7,1.176,6.237,6.237,0,0,1,.891,3.629ZM15.617-6.828A5.3,5.3,0,0,0,15.1-9.5a1.775,1.775,0,0,0-1.633-.84,1.751,1.751,0,0,0-1.617.836,5.171,5.171,0,0,0-.523,2.57v2.313A5.381,5.381,0,0,0,11.863-1.9a1.771,1.771,0,0,0,1.621.879,1.747,1.747,0,0,0,1.59-.828,5.186,5.186,0,0,0,.543-2.609Zm10.43,1.977a6.61,6.61,0,0,1-.867,3.773A3.084,3.084,0,0,1,22.469.156a3.107,3.107,0,0,1-2.7-1.207,6.274,6.274,0,0,1-.906-3.605v-1.93a6.463,6.463,0,0,1,.867-3.727,3.108,3.108,0,0,1,2.719-1.219,3.136,3.136,0,0,1,2.7,1.176,6.237,6.237,0,0,1,.891,3.629ZM24.6-6.828A5.3,5.3,0,0,0,24.086-9.5a1.775,1.775,0,0,0-1.633-.84,1.751,1.751,0,0,0-1.617.836,5.171,5.171,0,0,0-.523,2.57v2.313A5.381,5.381,0,0,0,20.848-1.9a1.771,1.771,0,0,0,1.621.879,1.747,1.747,0,0,0,1.59-.828A5.186,5.186,0,0,0,24.6-4.461Z" transform="translate(708.92 6051.9)" fill="#12263f"/>
    <path id="Trazado_905818" data-name="Trazado 905818" d="M3.047-6.391H4.133A2.387,2.387,0,0,0,5.742-6.93a1.8,1.8,0,0,0,.586-1.414,1.764,1.764,0,0,0-1.992-2,2.072,2.072,0,0,0-1.5.535,1.873,1.873,0,0,0-.559,1.418H.836a2.9,2.9,0,0,1,.988-2.246,3.6,3.6,0,0,1,2.512-.895,3.558,3.558,0,0,1,2.523.852,3.076,3.076,0,0,1,.914,2.367,2.5,2.5,0,0,1-.48,1.438A2.9,2.9,0,0,1,5.984-5.836a2.8,2.8,0,0,1,1.449.984,2.734,2.734,0,0,1,.512,1.68,3.1,3.1,0,0,1-1,2.43,3.745,3.745,0,0,1-2.6.9A3.844,3.844,0,0,1,1.738-.711,2.877,2.877,0,0,1,.734-3H2.188a1.859,1.859,0,0,0,.586,1.438,2.229,2.229,0,0,0,1.57.539,2.187,2.187,0,0,0,1.6-.547A2.108,2.108,0,0,0,6.5-3.141a1.912,1.912,0,0,0-.609-1.523,2.655,2.655,0,0,0-1.758-.547H3.047ZM17.063-4.852A6.61,6.61,0,0,1,16.2-1.078,3.084,3.084,0,0,1,13.484.156a3.107,3.107,0,0,1-2.7-1.207,6.274,6.274,0,0,1-.906-3.605v-1.93a6.463,6.463,0,0,1,.867-3.727,3.108,3.108,0,0,1,2.719-1.219,3.136,3.136,0,0,1,2.7,1.176,6.237,6.237,0,0,1,.891,3.629ZM15.617-6.828A5.3,5.3,0,0,0,15.1-9.5a1.775,1.775,0,0,0-1.633-.84,1.751,1.751,0,0,0-1.617.836,5.171,5.171,0,0,0-.523,2.57v2.313A5.381,5.381,0,0,0,11.863-1.9a1.771,1.771,0,0,0,1.621.879,1.747,1.747,0,0,0,1.59-.828,5.186,5.186,0,0,0,.543-2.609Zm10.43,1.977a6.61,6.61,0,0,1-.867,3.773A3.084,3.084,0,0,1,22.469.156a3.107,3.107,0,0,1-2.7-1.207,6.274,6.274,0,0,1-.906-3.605v-1.93a6.463,6.463,0,0,1,.867-3.727,3.108,3.108,0,0,1,2.719-1.219,3.136,3.136,0,0,1,2.7,1.176,6.237,6.237,0,0,1,.891,3.629ZM24.6-6.828A5.3,5.3,0,0,0,24.086-9.5a1.775,1.775,0,0,0-1.633-.84,1.751,1.751,0,0,0-1.617.836,5.171,5.171,0,0,0-.523,2.57v2.313A5.381,5.381,0,0,0,20.848-1.9a1.771,1.771,0,0,0,1.621.879,1.747,1.747,0,0,0,1.59-.828A5.186,5.186,0,0,0,24.6-4.461Z" transform="translate(708.92 6079.9)" fill="#12263f"/>
    <path id="Trazado_905820" data-name="Trazado 905820" d="M8.078-4.852a6.61,6.61,0,0,1-.867,3.773A3.084,3.084,0,0,1,4.5.156,3.107,3.107,0,0,1,1.8-1.051,6.274,6.274,0,0,1,.9-4.656v-1.93a6.463,6.463,0,0,1,.867-3.727,3.108,3.108,0,0,1,2.719-1.219,3.136,3.136,0,0,1,2.7,1.176,6.237,6.237,0,0,1,.891,3.629ZM6.633-6.828A5.3,5.3,0,0,0,6.117-9.5a1.775,1.775,0,0,0-1.633-.84,1.751,1.751,0,0,0-1.617.836,5.171,5.171,0,0,0-.523,2.57v2.313A5.381,5.381,0,0,0,2.879-1.9,1.771,1.771,0,0,0,4.5-1.023a1.747,1.747,0,0,0,1.59-.828,5.186,5.186,0,0,0,.543-2.609Z" transform="translate(726.88 6107.9)" fill="#12263f"/>
    <path id="Trazado_905821" data-name="Trazado 905821" d="M8.078-4.852a6.61,6.61,0,0,1-.867,3.773A3.084,3.084,0,0,1,4.5.156,3.107,3.107,0,0,1,1.8-1.051,6.274,6.274,0,0,1,.9-4.656v-1.93a6.463,6.463,0,0,1,.867-3.727,3.108,3.108,0,0,1,2.719-1.219,3.136,3.136,0,0,1,2.7,1.176,6.237,6.237,0,0,1,.891,3.629ZM6.633-6.828A5.3,5.3,0,0,0,6.117-9.5a1.775,1.775,0,0,0-1.633-.84,1.751,1.751,0,0,0-1.617.836,5.171,5.171,0,0,0-.523,2.57v2.313A5.381,5.381,0,0,0,2.879-1.9,1.771,1.771,0,0,0,4.5-1.023a1.747,1.747,0,0,0,1.59-.828,5.186,5.186,0,0,0,.543-2.609Z" transform="translate(741.41 6123.9)" fill="#12263f"/>
    <path id="Trazado_905822" data-name="Trazado 905822" d="M5.7,0H4.242V-9.633L1.328-8.562V-9.875L5.469-11.43H5.7Z" transform="translate(783.41 6123.9)" fill="#12263f"/>
    <path id="Trazado_905823" data-name="Trazado 905823" d="M8.4,0H.945V-1.039L4.883-5.414A9.354,9.354,0,0,0,6.09-7.027a2.693,2.693,0,0,0,.332-1.285,2.041,2.041,0,0,0-.539-1.461,1.885,1.885,0,0,0-1.437-.57A2.232,2.232,0,0,0,2.77-9.73a2.343,2.343,0,0,0-.6,1.707H.727a3.355,3.355,0,0,1,1.012-2.539,3.751,3.751,0,0,1,2.707-.969,3.6,3.6,0,0,1,2.508.832,2.838,2.838,0,0,1,.922,2.215q0,1.68-2.141,4L2.688-1.18H8.4Z" transform="translate(825.41 6123.9)" fill="#12263f"/>
    <path id="Trazado_905824" data-name="Trazado 905824" d="M3.047-6.391H4.133A2.387,2.387,0,0,0,5.742-6.93a1.8,1.8,0,0,0,.586-1.414,1.764,1.764,0,0,0-1.992-2,2.072,2.072,0,0,0-1.5.535,1.873,1.873,0,0,0-.559,1.418H.836a2.9,2.9,0,0,1,.988-2.246,3.6,3.6,0,0,1,2.512-.895,3.558,3.558,0,0,1,2.523.852,3.076,3.076,0,0,1,.914,2.367,2.5,2.5,0,0,1-.48,1.438A2.9,2.9,0,0,1,5.984-5.836a2.8,2.8,0,0,1,1.449.984,2.734,2.734,0,0,1,.512,1.68,3.1,3.1,0,0,1-1,2.43,3.745,3.745,0,0,1-2.6.9A3.844,3.844,0,0,1,1.738-.711,2.877,2.877,0,0,1,.734-3H2.188a1.859,1.859,0,0,0,.586,1.438,2.229,2.229,0,0,0,1.57.539,2.187,2.187,0,0,0,1.6-.547A2.108,2.108,0,0,0,6.5-3.141a1.912,1.912,0,0,0-.609-1.523,2.655,2.655,0,0,0-1.758-.547H3.047Z" transform="translate(867.41 6123.9)" fill="#12263f"/>
    <path id="Trazado_905825" data-name="Trazado 905825" d="M7.047-3.82H8.625v1.18H7.047V0H5.594V-2.641H.414v-.852l5.094-7.883H7.047Zm-4.992,0H5.594V-9.4l-.172.313Z" transform="translate(908.41 6123.9)" fill="#12263f"/>
    <path id="Trazado_905826" data-name="Trazado 905826" d="M1.609-5.7l.578-5.672H8.016v1.336h-4.6l-.344,3.1a3.671,3.671,0,0,1,1.9-.492A3.138,3.138,0,0,1,7.438-6.4a4.026,4.026,0,0,1,.914,2.777A3.886,3.886,0,0,1,7.4-.855,3.46,3.46,0,0,1,4.75.156,3.6,3.6,0,0,1,2.289-.68,3.337,3.337,0,0,1,1.2-2.992H2.57a2.3,2.3,0,0,0,.7,1.473,2.162,2.162,0,0,0,1.484.5,1.95,1.95,0,0,0,1.582-.687,2.874,2.874,0,0,0,.574-1.9,2.638,2.638,0,0,0-.621-1.832,2.113,2.113,0,0,0-1.652-.691,2.383,2.383,0,0,0-1.484.414l-.383.313Z" transform="translate(950.41 6123.9)" fill="#12263f"/>
    <path id="Trazado_905828" data-name="Trazado 905828" d="M6.617-11.383v1.227H6.352a3.805,3.805,0,0,0-2.687,1A4.161,4.161,0,0,0,2.508-6.43,3.085,3.085,0,0,1,4.961-7.461,2.95,2.95,0,0,1,7.332-6.414a4.038,4.038,0,0,1,.887,2.7A4.025,4.025,0,0,1,7.262-.9,3.3,3.3,0,0,1,4.7.156,3.247,3.247,0,0,1,2.047-1.1a4.97,4.97,0,0,1-1.016-3.23v-.555a7.488,7.488,0,0,1,1.34-4.8,4.921,4.921,0,0,1,3.988-1.7Zm-1.9,5.125a2.306,2.306,0,0,0-1.367.445A2.32,2.32,0,0,0,2.484-4.7v.531A3.731,3.731,0,0,0,3.117-1.9,1.9,1.9,0,0,0,4.7-1.039,1.838,1.838,0,0,0,6.23-1.758a2.982,2.982,0,0,0,.559-1.883,2.983,2.983,0,0,0-.566-1.895A1.816,1.816,0,0,0,4.719-6.258Z" transform="translate(993.41 6123.9)" fill="#12263f"/>
    <path id="Trazado_905829" data-name="Trazado 905829" d="M8.289-10.562,3.578,0H2.063l4.7-10.187H.6v-1.187H8.289Z" transform="translate(1035.41 6123.9)" fill="#12263f"/>
    <path id="Trazado_905830" data-name="Trazado 905830" d="M7.844-8.406a2.641,2.641,0,0,1-.449,1.516A3.057,3.057,0,0,1,6.18-5.852,3.26,3.26,0,0,1,7.59-4.734a2.811,2.811,0,0,1,.52,1.664,2.972,2.972,0,0,1-1,2.352A3.827,3.827,0,0,1,4.492.156,3.81,3.81,0,0,1,1.863-.723,2.986,2.986,0,0,1,.875-3.07a2.9,2.9,0,0,1,.5-1.664A3.136,3.136,0,0,1,2.773-5.859,2.981,2.981,0,0,1,1.578-6.9a2.679,2.679,0,0,1-.437-1.508,2.94,2.94,0,0,1,.922-2.281,3.458,3.458,0,0,1,2.43-.844,3.461,3.461,0,0,1,2.426.844A2.934,2.934,0,0,1,7.844-8.406ZM6.664-3.1a2.1,2.1,0,0,0-.605-1.555,2.147,2.147,0,0,0-1.582-.6,2.11,2.11,0,0,0-1.566.594A2.12,2.12,0,0,0,2.32-3.1a2.019,2.019,0,0,0,.574,1.523,2.2,2.2,0,0,0,1.6.555,2.2,2.2,0,0,0,1.594-.559A2.014,2.014,0,0,0,6.664-3.1ZM4.492-10.344a1.865,1.865,0,0,0-1.379.527,1.937,1.937,0,0,0-.527,1.434,1.928,1.928,0,0,0,.52,1.4,1.844,1.844,0,0,0,1.387.535A1.844,1.844,0,0,0,5.879-6.98a1.928,1.928,0,0,0,.52-1.4A1.929,1.929,0,0,0,5.859-9.8,1.839,1.839,0,0,0,4.492-10.344Z" transform="translate(1077.41 6123.9)" fill="#12263f"/>
    <path id="Trazado_905831" data-name="Trazado 905831" d="M6.484-5A3.536,3.536,0,0,1,5.4-4.133,2.936,2.936,0,0,1,4.023-3.8a3.031,3.031,0,0,1-1.715-.484A3.149,3.149,0,0,1,1.18-5.652a4.648,4.648,0,0,1-.4-1.941,4.735,4.735,0,0,1,.434-2.055,3.185,3.185,0,0,1,1.23-1.4A3.509,3.509,0,0,1,4.3-11.531a3.177,3.177,0,0,1,2.66,1.262,5.5,5.5,0,0,1,.973,3.441v.422q0,3.32-1.312,4.848A5.043,5.043,0,0,1,2.664.008H2.383V-1.219h.3a3.979,3.979,0,0,0,2.75-.932A4,4,0,0,0,6.484-5ZM4.258-5A2.232,2.232,0,0,0,5.6-5.445a2.625,2.625,0,0,0,.895-1.1v-.578a3.977,3.977,0,0,0-.617-2.312,1.842,1.842,0,0,0-1.562-.891,1.856,1.856,0,0,0-1.531.73A3.013,3.013,0,0,0,2.2-7.672a3.136,3.136,0,0,0,.559,1.918A1.769,1.769,0,0,0,4.258-5Z" transform="translate(1119.41 6123.9)" fill="#12263f"/>
    <path id="Trazado_905832" data-name="Trazado 905832" d="M5.7,0H4.242V-9.633L1.328-8.562V-9.875L5.469-11.43H5.7ZM17.063-4.852A6.61,6.61,0,0,1,16.2-1.078,3.084,3.084,0,0,1,13.484.156a3.107,3.107,0,0,1-2.7-1.207,6.274,6.274,0,0,1-.906-3.605v-1.93a6.463,6.463,0,0,1,.867-3.727,3.108,3.108,0,0,1,2.719-1.219,3.136,3.136,0,0,1,2.7,1.176,6.237,6.237,0,0,1,.891,3.629ZM15.617-6.828A5.3,5.3,0,0,0,15.1-9.5a1.775,1.775,0,0,0-1.633-.84,1.751,1.751,0,0,0-1.617.836,5.171,5.171,0,0,0-.523,2.57v2.313A5.381,5.381,0,0,0,11.863-1.9a1.771,1.771,0,0,0,1.621.879,1.747,1.747,0,0,0,1.59-.828,5.186,5.186,0,0,0,.543-2.609Z" transform="translate(1155.42 6123.9)" fill="#12263f"/>
    <path id="Trazado_905833" data-name="Trazado 905833" d="M5.7,0H4.242V-9.633L1.328-8.562V-9.875L5.469-11.43H5.7ZM14.68,0H13.227V-9.633l-2.914,1.07V-9.875l4.141-1.555h.227Z" transform="translate(1199.42 6123.9)" fill="#12263f"/>
    <path id="Trazado_905834" data-name="Trazado 905834" d="M5.7,0H4.242V-9.633L1.328-8.562V-9.875L5.469-11.43H5.7ZM17.383,0H9.93V-1.039l3.938-4.375a9.354,9.354,0,0,0,1.207-1.613,2.693,2.693,0,0,0,.332-1.285,2.041,2.041,0,0,0-.539-1.461,1.885,1.885,0,0,0-1.437-.57,2.232,2.232,0,0,0-1.676.613,2.343,2.343,0,0,0-.6,1.707H9.711a3.355,3.355,0,0,1,1.012-2.539,3.751,3.751,0,0,1,2.707-.969,3.6,3.6,0,0,1,2.508.832,2.838,2.838,0,0,1,.922,2.215q0,1.68-2.141,4l-3.047,3.3h5.711Z" transform="matrix(1, 0.006, -0.006, 1, 1239.29, 6123.86)" fill="#12263f"/>
    <path id="Trazado_905819" data-name="Trazado 905819" d="M10.063,0H8.555L2.828-8.766V0H1.32V-11.375H2.828L8.57-2.57v-8.8h1.492Zm7.656-.836a3.07,3.07,0,0,1-2.477.992,2.628,2.628,0,0,1-2.059-.785,3.4,3.4,0,0,1-.715-2.324v-5.5h1.445v5.461q0,1.922,1.563,1.922A2.163,2.163,0,0,0,17.68-2.3V-8.453h1.445V0H17.75ZM16.547-12H18.3L16.2-9.7l-1.164,0ZM22.68-8.453l.039.938a3.122,3.122,0,0,1,2.508-1.094A2.417,2.417,0,0,1,27.641-7.25a3.2,3.2,0,0,1,1.1-.984,3.242,3.242,0,0,1,1.6-.375q2.781,0,2.828,2.945V0H31.719V-5.578A1.941,1.941,0,0,0,31.3-6.934a1.823,1.823,0,0,0-1.391-.449,1.916,1.916,0,0,0-1.336.48,1.949,1.949,0,0,0-.617,1.293V0H26.508V-5.539a1.613,1.613,0,0,0-1.8-1.844,1.934,1.934,0,0,0-1.945,1.211V0H21.313V-8.453ZM38.852.156a3.693,3.693,0,0,1-2.8-1.129,4.19,4.19,0,0,1-1.078-3.02v-.266a5.073,5.073,0,0,1,.48-2.246A3.748,3.748,0,0,1,36.8-8.051a3.378,3.378,0,0,1,1.871-.559,3.166,3.166,0,0,1,2.563,1.086,4.7,4.7,0,0,1,.914,3.109v.6H36.422a3,3,0,0,0,.73,2.02,2.3,2.3,0,0,0,1.777.77,2.517,2.517,0,0,0,1.3-.312,3.259,3.259,0,0,0,.93-.828l.883.688A3.55,3.55,0,0,1,38.852.156Zm-.18-7.578a1.928,1.928,0,0,0-1.469.637A3.1,3.1,0,0,0,36.469-5H40.7v-.109a2.753,2.753,0,0,0-.594-1.707A1.815,1.815,0,0,0,38.672-7.422Zm9.234.266a4.331,4.331,0,0,0-.711-.055A1.9,1.9,0,0,0,45.266-6V0H43.82V-8.453h1.406l.023.977a2.251,2.251,0,0,1,2.016-1.133,1.477,1.477,0,0,1,.641.109ZM48.7-4.3a4.993,4.993,0,0,1,.488-2.234A3.643,3.643,0,0,1,50.543-8.07a3.7,3.7,0,0,1,1.988-.539,3.565,3.565,0,0,1,2.793,1.2,4.6,4.6,0,0,1,1.066,3.18v.1a5.036,5.036,0,0,1-.473,2.215A3.589,3.589,0,0,1,54.566-.391a3.743,3.743,0,0,1-2.02.547,3.556,3.556,0,0,1-2.785-1.2A4.575,4.575,0,0,1,48.7-4.2Zm1.453.172A3.616,3.616,0,0,0,50.8-1.875a2.088,2.088,0,0,0,1.746.852,2.075,2.075,0,0,0,1.75-.863A3.955,3.955,0,0,0,54.945-4.3a3.61,3.61,0,0,0-.66-2.254,2.1,2.1,0,0,0-1.754-.863A2.075,2.075,0,0,0,50.8-6.57,3.925,3.925,0,0,0,50.148-4.133ZM61.813-4.3a4.952,4.952,0,0,1,.922-3.129,2.915,2.915,0,0,1,2.414-1.184A2.932,2.932,0,0,1,67.5-7.594V-12h1.445V0H67.617l-.07-.906A2.943,2.943,0,0,1,65.133.156a2.887,2.887,0,0,1-2.395-1.2,5.008,5.008,0,0,1-.926-3.141Zm1.445.164a3.749,3.749,0,0,0,.594,2.25,1.92,1.92,0,0,0,1.641.813A2.109,2.109,0,0,0,67.5-2.3V-6.187a2.125,2.125,0,0,0-1.992-1.2,1.929,1.929,0,0,0-1.656.82A4.128,4.128,0,0,0,63.258-4.133ZM74.7.156A3.693,3.693,0,0,1,71.9-.973a4.19,4.19,0,0,1-1.078-3.02v-.266A5.073,5.073,0,0,1,71.3-6.5a3.748,3.748,0,0,1,1.344-1.547,3.378,3.378,0,0,1,1.871-.559,3.166,3.166,0,0,1,2.563,1.086,4.7,4.7,0,0,1,.914,3.109v.6H72.266A3,3,0,0,0,73-1.793a2.3,2.3,0,0,0,1.777.77,2.517,2.517,0,0,0,1.3-.312A3.259,3.259,0,0,0,77-2.164l.883.688A3.55,3.55,0,0,1,74.7.156Zm-.18-7.578a1.928,1.928,0,0,0-1.469.637A3.1,3.1,0,0,0,72.313-5h4.234v-.109a2.753,2.753,0,0,0-.594-1.707A1.815,1.815,0,0,0,74.516-7.422Zm16.25,3.289a5.062,5.062,0,0,1-.883,3.109A2.829,2.829,0,0,1,87.492.156,3.1,3.1,0,0,1,85.07-.82V3.25H83.625v-11.7h1.32l.07.938a2.977,2.977,0,0,1,2.453-1.094,2.882,2.882,0,0,1,2.41,1.148,5.117,5.117,0,0,1,.887,3.2ZM89.32-4.3a3.735,3.735,0,0,0-.609-2.258,1.963,1.963,0,0,0-1.672-.828A2.125,2.125,0,0,0,85.07-6.219V-2.18a2.129,2.129,0,0,0,1.984,1.156,1.954,1.954,0,0,0,1.652-.824A4.077,4.077,0,0,0,89.32-4.3ZM96.109.156a3.693,3.693,0,0,1-2.8-1.129,4.19,4.19,0,0,1-1.078-3.02v-.266a5.073,5.073,0,0,1,.48-2.246,3.748,3.748,0,0,1,1.344-1.547,3.378,3.378,0,0,1,1.871-.559,3.166,3.166,0,0,1,2.563,1.086,4.7,4.7,0,0,1,.914,3.109v.6H93.68a3,3,0,0,0,.73,2.02,2.3,2.3,0,0,0,1.777.77,2.517,2.517,0,0,0,1.3-.312,3.259,3.259,0,0,0,.93-.828l.883.688A3.55,3.55,0,0,1,96.109.156Zm-.18-7.578a1.928,1.928,0,0,0-1.469.637A3.1,3.1,0,0,0,93.727-5h4.234v-.109a2.753,2.753,0,0,0-.594-1.707A1.815,1.815,0,0,0,95.93-7.422Zm9.234.266a4.331,4.331,0,0,0-.711-.055A1.9,1.9,0,0,0,102.523-6V0h-1.445V-8.453h1.406l.023.977a2.251,2.251,0,0,1,2.016-1.133,1.477,1.477,0,0,1,.641.109Zm6.25,4.914a1.064,1.064,0,0,0-.441-.91,4.249,4.249,0,0,0-1.539-.559,7.277,7.277,0,0,1-1.742-.562,2.479,2.479,0,0,1-.953-.781,1.869,1.869,0,0,1-.309-1.078,2.193,2.193,0,0,1,.879-1.758,3.432,3.432,0,0,1,2.246-.719,3.532,3.532,0,0,1,2.332.742,2.357,2.357,0,0,1,.895,1.9h-1.453a1.3,1.3,0,0,0-.5-1.023,1.888,1.888,0,0,0-1.27-.43,1.976,1.976,0,0,0-1.234.344,1.082,1.082,0,0,0-.445.9.877.877,0,0,0,.414.789,5.1,5.1,0,0,0,1.5.508,7.8,7.8,0,0,1,1.754.578,2.558,2.558,0,0,1,1,.809,1.988,1.988,0,0,1,.324,1.152,2.163,2.163,0,0,1-.906,1.816A3.8,3.8,0,0,1,109.6.156,4.257,4.257,0,0,1,107.8-.2a2.922,2.922,0,0,1-1.223-1,2.42,2.42,0,0,1-.441-1.395h1.445a1.5,1.5,0,0,0,.582,1.152,2.258,2.258,0,0,0,1.434.426,2.331,2.331,0,0,0,1.316-.332A1.02,1.02,0,0,0,111.414-2.242ZM114.359-4.3a4.993,4.993,0,0,1,.488-2.234,3.643,3.643,0,0,1,1.359-1.531,3.7,3.7,0,0,1,1.988-.539,3.565,3.565,0,0,1,2.793,1.2,4.6,4.6,0,0,1,1.066,3.18v.1a5.036,5.036,0,0,1-.473,2.215A3.589,3.589,0,0,1,120.23-.391a3.743,3.743,0,0,1-2.02.547,3.556,3.556,0,0,1-2.785-1.2A4.575,4.575,0,0,1,114.359-4.2Zm1.453.172a3.616,3.616,0,0,0,.652,2.258,2.088,2.088,0,0,0,1.746.852,2.075,2.075,0,0,0,1.75-.863,3.955,3.955,0,0,0,.648-2.418,3.61,3.61,0,0,0-.66-2.254,2.1,2.1,0,0,0-1.754-.863,2.075,2.075,0,0,0-1.727.852A3.925,3.925,0,0,0,115.813-4.133Zm9.422-4.32.047,1.063a3.08,3.08,0,0,1,2.531-1.219q2.68,0,2.7,3.023V0H129.07V-5.594a1.946,1.946,0,0,0-.418-1.352,1.675,1.675,0,0,0-1.277-.437,2.086,2.086,0,0,0-1.234.375,2.546,2.546,0,0,0-.828.984V0h-1.445V-8.453ZM137.914,0a3.036,3.036,0,0,1-.2-.891A3.225,3.225,0,0,1,135.3.156a2.984,2.984,0,0,1-2.051-.707,2.287,2.287,0,0,1-.8-1.793,2.39,2.39,0,0,1,1-2.051,4.733,4.733,0,0,1,2.824-.73h1.406v-.664A1.623,1.623,0,0,0,137.234-7a1.821,1.821,0,0,0-1.336-.449,2.107,2.107,0,0,0-1.3.391,1.151,1.151,0,0,0-.523.945h-1.453a2,2,0,0,1,.449-1.223,3.066,3.066,0,0,1,1.219-.934,4.1,4.1,0,0,1,1.691-.344,3.342,3.342,0,0,1,2.289.73,2.635,2.635,0,0,1,.859,2.012v3.891a4.757,4.757,0,0,0,.3,1.852V0Zm-2.4-1.1a2.54,2.54,0,0,0,1.289-.352,2.127,2.127,0,0,0,.883-.914V-4.1h-1.133q-2.656,0-2.656,1.555a1.316,1.316,0,0,0,.453,1.063A1.742,1.742,0,0,0,135.516-1.1Zm10.8-1.141a1.064,1.064,0,0,0-.441-.91,4.249,4.249,0,0,0-1.539-.559,7.277,7.277,0,0,1-1.742-.562,2.479,2.479,0,0,1-.953-.781,1.869,1.869,0,0,1-.309-1.078,2.193,2.193,0,0,1,.879-1.758,3.432,3.432,0,0,1,2.246-.719,3.532,3.532,0,0,1,2.332.742,2.357,2.357,0,0,1,.895,1.9h-1.453a1.3,1.3,0,0,0-.5-1.023,1.888,1.888,0,0,0-1.27-.43,1.976,1.976,0,0,0-1.234.344,1.082,1.082,0,0,0-.445.9.877.877,0,0,0,.414.789,5.1,5.1,0,0,0,1.5.508,7.8,7.8,0,0,1,1.754.578,2.558,2.558,0,0,1,1,.809,1.988,1.988,0,0,1,.324,1.152,2.163,2.163,0,0,1-.906,1.816,3.8,3.8,0,0,1-2.352.684,4.257,4.257,0,0,1-1.8-.359,2.922,2.922,0,0,1-1.223-1,2.42,2.42,0,0,1-.441-1.395h1.445a1.5,1.5,0,0,0,.582,1.152,2.258,2.258,0,0,0,1.434.426,2.331,2.331,0,0,0,1.316-.332A1.02,1.02,0,0,0,146.32-2.242Z" transform="translate(692.77 6058.5) rotate(-90)" fill="#12263f"/>
    <path id="Trazado_905827" data-name="Trazado 905827" d="M3.258-11.375,6.977-2.094,10.7-11.375h1.945V0h-1.5V-4.43l.141-4.781L7.547,0H6.4L2.672-9.187,2.82-4.43V0H1.32V-11.375ZM18.57.156a3.693,3.693,0,0,1-2.8-1.129A4.19,4.19,0,0,1,14.7-3.992v-.266a5.073,5.073,0,0,1,.48-2.246A3.748,3.748,0,0,1,16.52-8.051a3.378,3.378,0,0,1,1.871-.559,3.166,3.166,0,0,1,2.563,1.086,4.7,4.7,0,0,1,.914,3.109v.6H16.141a3,3,0,0,0,.73,2.02,2.3,2.3,0,0,0,1.777.77,2.517,2.517,0,0,0,1.3-.312,3.259,3.259,0,0,0,.93-.828l.883.688A3.55,3.55,0,0,1,18.57.156Zm-.18-7.578a1.928,1.928,0,0,0-1.469.637A3.1,3.1,0,0,0,16.188-5h4.234v-.109a2.753,2.753,0,0,0-.594-1.707A1.815,1.815,0,0,0,18.391-7.422Zm10.07,5.18a1.064,1.064,0,0,0-.441-.91,4.249,4.249,0,0,0-1.539-.559,7.277,7.277,0,0,1-1.742-.562,2.479,2.479,0,0,1-.953-.781,1.869,1.869,0,0,1-.309-1.078,2.193,2.193,0,0,1,.879-1.758A3.432,3.432,0,0,1,26.6-8.609a3.532,3.532,0,0,1,2.332.742,2.357,2.357,0,0,1,.895,1.9H28.375a1.3,1.3,0,0,0-.5-1.023,1.888,1.888,0,0,0-1.27-.43,1.976,1.976,0,0,0-1.234.344,1.082,1.082,0,0,0-.445.9.877.877,0,0,0,.414.789,5.1,5.1,0,0,0,1.5.508,7.8,7.8,0,0,1,1.754.578,2.558,2.558,0,0,1,1,.809,1.988,1.988,0,0,1,.324,1.152A2.163,2.163,0,0,1,29-.527a3.8,3.8,0,0,1-2.352.684,4.257,4.257,0,0,1-1.8-.359,2.922,2.922,0,0,1-1.223-1A2.42,2.42,0,0,1,23.188-2.6h1.445a1.5,1.5,0,0,0,.582,1.152,2.258,2.258,0,0,0,1.434.426,2.331,2.331,0,0,0,1.316-.332A1.02,1.02,0,0,0,28.461-2.242ZM35.3.156A3.693,3.693,0,0,1,32.5-.973a4.19,4.19,0,0,1-1.078-3.02v-.266A5.073,5.073,0,0,1,31.9-6.5a3.748,3.748,0,0,1,1.344-1.547,3.378,3.378,0,0,1,1.871-.559A3.166,3.166,0,0,1,37.68-7.523a4.7,4.7,0,0,1,.914,3.109v.6H32.867a3,3,0,0,0,.73,2.02,2.3,2.3,0,0,0,1.777.77,2.517,2.517,0,0,0,1.3-.312,3.259,3.259,0,0,0,.93-.828l.883.688A3.55,3.55,0,0,1,35.3.156Zm-.18-7.578a1.928,1.928,0,0,0-1.469.637A3.1,3.1,0,0,0,32.914-5h4.234v-.109a2.753,2.753,0,0,0-.594-1.707A1.815,1.815,0,0,0,35.117-7.422Zm10.07,5.18a1.064,1.064,0,0,0-.441-.91,4.249,4.249,0,0,0-1.539-.559,7.277,7.277,0,0,1-1.742-.562,2.479,2.479,0,0,1-.953-.781A1.869,1.869,0,0,1,40.2-6.133a2.193,2.193,0,0,1,.879-1.758,3.432,3.432,0,0,1,2.246-.719,3.532,3.532,0,0,1,2.332.742,2.357,2.357,0,0,1,.895,1.9H45.1a1.3,1.3,0,0,0-.5-1.023,1.888,1.888,0,0,0-1.27-.43,1.976,1.976,0,0,0-1.234.344,1.082,1.082,0,0,0-.445.9.877.877,0,0,0,.414.789,5.1,5.1,0,0,0,1.5.508,7.8,7.8,0,0,1,1.754.578,2.558,2.558,0,0,1,1,.809,1.988,1.988,0,0,1,.324,1.152,2.163,2.163,0,0,1-.906,1.816,3.8,3.8,0,0,1-2.352.684,4.257,4.257,0,0,1-1.8-.359,2.922,2.922,0,0,1-1.223-1A2.42,2.42,0,0,1,39.914-2.6h1.445a1.5,1.5,0,0,0,.582,1.152,2.258,2.258,0,0,0,1.434.426,2.331,2.331,0,0,0,1.316-.332A1.02,1.02,0,0,0,45.188-2.242Z" transform="translate(966.36 6140.11)" fill="#12263f"/>
    <circle id="Elipse_11600" data-name="Elipse 11600" cx="6" cy="6" r="6" transform="translate(847.12 6163.95)" fill="#727997"/>
    <path id="Trazado_905838" data-name="Trazado 905838" d="M8.4,0H.945V-1.039L4.883-5.414A9.354,9.354,0,0,0,6.09-7.027a2.693,2.693,0,0,0,.332-1.285,2.041,2.041,0,0,0-.539-1.461,1.885,1.885,0,0,0-1.437-.57A2.232,2.232,0,0,0,2.77-9.73a2.343,2.343,0,0,0-.6,1.707H.727a3.355,3.355,0,0,1,1.012-2.539,3.751,3.751,0,0,1,2.707-.969,3.6,3.6,0,0,1,2.508.832,2.838,2.838,0,0,1,.922,2.215q0,1.68-2.141,4L2.688-1.18H8.4Zm8.664-4.852A6.61,6.61,0,0,1,16.2-1.078,3.084,3.084,0,0,1,13.484.156a3.107,3.107,0,0,1-2.7-1.207,6.274,6.274,0,0,1-.906-3.605v-1.93a6.463,6.463,0,0,1,.867-3.727,3.108,3.108,0,0,1,2.719-1.219,3.136,3.136,0,0,1,2.7,1.176,6.237,6.237,0,0,1,.891,3.629ZM15.617-6.828A5.3,5.3,0,0,0,15.1-9.5a1.775,1.775,0,0,0-1.633-.84,1.751,1.751,0,0,0-1.617.836,5.171,5.171,0,0,0-.523,2.57v2.313A5.381,5.381,0,0,0,11.863-1.9a1.771,1.771,0,0,0,1.621.879,1.747,1.747,0,0,0,1.59-.828,5.186,5.186,0,0,0,.543-2.609ZM23.664,0H22.211V-9.633L19.3-8.562V-9.875l4.141-1.555h.227Zm4.9-5.7.578-5.672h5.828v1.336h-4.6l-.344,3.1a3.671,3.671,0,0,1,1.9-.492A3.138,3.138,0,0,1,34.391-6.4,4.026,4.026,0,0,1,35.3-3.625a3.886,3.886,0,0,1-.949,2.77A3.46,3.46,0,0,1,31.7.156,3.6,3.6,0,0,1,29.242-.68a3.337,3.337,0,0,1-1.086-2.312h1.367a2.3,2.3,0,0,0,.7,1.473,2.162,2.162,0,0,0,1.484.5,1.95,1.95,0,0,0,1.582-.687,2.874,2.874,0,0,0,.574-1.9,2.638,2.638,0,0,0-.621-1.832,2.113,2.113,0,0,0-1.652-.691,2.383,2.383,0,0,0-1.484.414l-.383.313Z" transform="translate(869.08 6174.62)" fill="#12263f"/>
    <line id="Línea_3486" data-name="Línea 3486" x2="26" transform="translate(840.12 6169.95)" fill="none" stroke="#727997" stroke-miterlimit="10" stroke-width="2"/>
    <circle id="Elipse_11601" data-name="Elipse 11601" cx="6" cy="6" r="6" transform="translate(918.12 6164.29)" fill="#7d3a1b"/>
    <path id="Trazado_905837" data-name="Trazado 905837" d="M8.4,0H.945V-1.039L4.883-5.414A9.354,9.354,0,0,0,6.09-7.027a2.693,2.693,0,0,0,.332-1.285,2.041,2.041,0,0,0-.539-1.461,1.885,1.885,0,0,0-1.437-.57A2.232,2.232,0,0,0,2.77-9.73a2.343,2.343,0,0,0-.6,1.707H.727a3.355,3.355,0,0,1,1.012-2.539,3.751,3.751,0,0,1,2.707-.969,3.6,3.6,0,0,1,2.508.832,2.838,2.838,0,0,1,.922,2.215q0,1.68-2.141,4L2.688-1.18H8.4Zm8.664-4.852A6.61,6.61,0,0,1,16.2-1.078,3.084,3.084,0,0,1,13.484.156a3.107,3.107,0,0,1-2.7-1.207,6.274,6.274,0,0,1-.906-3.605v-1.93a6.463,6.463,0,0,1,.867-3.727,3.108,3.108,0,0,1,2.719-1.219,3.136,3.136,0,0,1,2.7,1.176,6.237,6.237,0,0,1,.891,3.629ZM15.617-6.828A5.3,5.3,0,0,0,15.1-9.5a1.775,1.775,0,0,0-1.633-.84,1.751,1.751,0,0,0-1.617.836,5.171,5.171,0,0,0-.523,2.57v2.313A5.381,5.381,0,0,0,11.863-1.9a1.771,1.771,0,0,0,1.621.879,1.747,1.747,0,0,0,1.59-.828,5.186,5.186,0,0,0,.543-2.609ZM23.664,0H22.211V-9.633L19.3-8.562V-9.875l4.141-1.555h.227ZM33.57-11.383v1.227H33.3a3.805,3.805,0,0,0-2.687,1A4.161,4.161,0,0,0,29.461-6.43a3.085,3.085,0,0,1,2.453-1.031,2.95,2.95,0,0,1,2.371,1.047,4.038,4.038,0,0,1,.887,2.7A4.025,4.025,0,0,1,34.215-.9,3.3,3.3,0,0,1,31.648.156,3.247,3.247,0,0,1,29-1.1a4.97,4.97,0,0,1-1.016-3.23v-.555a7.488,7.488,0,0,1,1.34-4.8,4.921,4.921,0,0,1,3.988-1.7Zm-1.9,5.125a2.306,2.306,0,0,0-1.367.445A2.32,2.32,0,0,0,29.438-4.7v.531A3.731,3.731,0,0,0,30.07-1.9a1.9,1.9,0,0,0,1.578.859,1.838,1.838,0,0,0,1.535-.719,2.982,2.982,0,0,0,.559-1.883,2.983,2.983,0,0,0-.566-1.895A1.816,1.816,0,0,0,31.672-6.258Z" transform="translate(938.84 6174.62)" fill="#12263f"/>
    <line id="Línea_3487" data-name="Línea 3487" x2="26" transform="translate(911.12 6170.29)" fill="none" stroke="#7d3a1b" stroke-miterlimit="10" stroke-width="2"/>
    <circle id="Elipse_11602" data-name="Elipse 11602" cx="6" cy="6" r="6" transform="translate(989.24 6163.95)" fill="#ffb937"/>
    <path id="Trazado_905836" data-name="Trazado 905836" d="M8.4,0H.945V-1.039L4.883-5.414A9.354,9.354,0,0,0,6.09-7.027a2.693,2.693,0,0,0,.332-1.285,2.041,2.041,0,0,0-.539-1.461,1.885,1.885,0,0,0-1.437-.57A2.232,2.232,0,0,0,2.77-9.73a2.343,2.343,0,0,0-.6,1.707H.727a3.355,3.355,0,0,1,1.012-2.539,3.751,3.751,0,0,1,2.707-.969,3.6,3.6,0,0,1,2.508.832,2.838,2.838,0,0,1,.922,2.215q0,1.68-2.141,4L2.688-1.18H8.4Zm8.664-4.852A6.61,6.61,0,0,1,16.2-1.078,3.084,3.084,0,0,1,13.484.156a3.107,3.107,0,0,1-2.7-1.207,6.274,6.274,0,0,1-.906-3.605v-1.93a6.463,6.463,0,0,1,.867-3.727,3.108,3.108,0,0,1,2.719-1.219,3.136,3.136,0,0,1,2.7,1.176,6.237,6.237,0,0,1,.891,3.629ZM15.617-6.828A5.3,5.3,0,0,0,15.1-9.5a1.775,1.775,0,0,0-1.633-.84,1.751,1.751,0,0,0-1.617.836,5.171,5.171,0,0,0-.523,2.57v2.313A5.381,5.381,0,0,0,11.863-1.9a1.771,1.771,0,0,0,1.621.879,1.747,1.747,0,0,0,1.59-.828,5.186,5.186,0,0,0,.543-2.609ZM23.664,0H22.211V-9.633L19.3-8.562V-9.875l4.141-1.555h.227ZM35.242-10.562,30.531,0H29.016l4.7-10.187H27.555v-1.187h7.688Z" transform="translate(1008.46 6174.62)" fill="#12263f"/>
    <line id="Línea_3488" data-name="Línea 3488" x2="26" transform="translate(982.24 6170.29)" fill="none" stroke="#ffb937" stroke-miterlimit="10" stroke-width="2"/>
    <circle id="Elipse_11603" data-name="Elipse 11603" cx="6" cy="6" r="6" transform="translate(1059.12 6164.29)" fill="#09614d"/>
    <path id="Trazado_905835" data-name="Trazado 905835" d="M8.4,0H.945V-1.039L4.883-5.414A9.354,9.354,0,0,0,6.09-7.027a2.693,2.693,0,0,0,.332-1.285,2.041,2.041,0,0,0-.539-1.461,1.885,1.885,0,0,0-1.437-.57A2.232,2.232,0,0,0,2.77-9.73a2.343,2.343,0,0,0-.6,1.707H.727a3.355,3.355,0,0,1,1.012-2.539,3.751,3.751,0,0,1,2.707-.969,3.6,3.6,0,0,1,2.508.832,2.838,2.838,0,0,1,.922,2.215q0,1.68-2.141,4L2.688-1.18H8.4Zm8.664-4.852A6.61,6.61,0,0,1,16.2-1.078,3.084,3.084,0,0,1,13.484.156a3.107,3.107,0,0,1-2.7-1.207,6.274,6.274,0,0,1-.906-3.605v-1.93a6.463,6.463,0,0,1,.867-3.727,3.108,3.108,0,0,1,2.719-1.219,3.136,3.136,0,0,1,2.7,1.176,6.237,6.237,0,0,1,.891,3.629ZM15.617-6.828A5.3,5.3,0,0,0,15.1-9.5a1.775,1.775,0,0,0-1.633-.84,1.751,1.751,0,0,0-1.617.836,5.171,5.171,0,0,0-.523,2.57v2.313A5.381,5.381,0,0,0,11.863-1.9a1.771,1.771,0,0,0,1.621.879,1.747,1.747,0,0,0,1.59-.828,5.186,5.186,0,0,0,.543-2.609ZM23.664,0H22.211V-9.633L19.3-8.562V-9.875l4.141-1.555h.227ZM34.8-8.406a2.641,2.641,0,0,1-.449,1.516,3.057,3.057,0,0,1-1.215,1.039,3.26,3.26,0,0,1,1.41,1.117,2.811,2.811,0,0,1,.52,1.664,2.972,2.972,0,0,1-1,2.352,3.827,3.827,0,0,1-2.621.875,3.81,3.81,0,0,1-2.629-.879,2.986,2.986,0,0,1-.988-2.348,2.9,2.9,0,0,1,.5-1.664,3.136,3.136,0,0,1,1.395-1.125,2.981,2.981,0,0,1-1.2-1.039,2.679,2.679,0,0,1-.437-1.508,2.94,2.94,0,0,1,.922-2.281,3.458,3.458,0,0,1,2.43-.844,3.461,3.461,0,0,1,2.426.844A2.934,2.934,0,0,1,34.8-8.406Zm-1.18,5.3a2.1,2.1,0,0,0-.605-1.555,2.147,2.147,0,0,0-1.582-.6,2.11,2.11,0,0,0-1.566.594,2.12,2.12,0,0,0-.59,1.563,2.019,2.019,0,0,0,.574,1.523,2.2,2.2,0,0,0,1.6.555,2.2,2.2,0,0,0,1.594-.559A2.014,2.014,0,0,0,33.617-3.1Zm-2.172-7.242a1.865,1.865,0,0,0-1.379.527,1.937,1.937,0,0,0-.527,1.434,1.928,1.928,0,0,0,.52,1.4,1.844,1.844,0,0,0,1.387.535,1.844,1.844,0,0,0,1.387-.535,1.928,1.928,0,0,0,.52-1.4A1.929,1.929,0,0,0,32.813-9.8,1.839,1.839,0,0,0,31.445-10.344Z" transform="translate(1079.34 6174.62)" fill="#12263f"/>
    <line id="Línea_3489" data-name="Línea 3489" x2="26" transform="translate(1052.12 6170.29)" fill="none" stroke="#09614d" stroke-miterlimit="10" stroke-width="2"/>
    <g id="Grupo_1118187" data-name="Grupo 1118187" transform="translate(285 5832)" clip-path="url(#clip-path)">
      <g id="Grupo_1118186" data-name="Grupo 1118186">
        <g id="Grupo_1118157" data-name="Grupo 1118157">
          <path id="Trazado_904922" data-name="Trazado 904922" d="M306.61,261.84c-3.99,42.83-22.92,79.9-19.13,110.56,5.21,42.09-24.18,74.35-25,110.61-.18,7.89,3.49,13.06-5.12,12.05-6.74-.78-10.72,3.01-17.13,2.21-8.67-1.08-7.57-3.61-3.69-4.86,5.65-1.82,11.99-8.37,12.41-11.46,4.36-31.76,5.05-93.59,4.28-110.86-.8-18.1-7.75-67.17,8.22-133.49,8.82-36.66,48.56-11.24,45.16,25.23Z" fill="#ffa794"/>
          <path id="Trazado_904923" data-name="Trazado 904923" d="M330.48,250.72c8.3,42.21-13.09,84.86-1.39,113.46,16.06,39.26,1.65,78.11,10.37,113.31,1.9,7.66,6.79,11.69-1.78,12.97-6.71,1.01-9.64,5.52-16.04,6.43-8.65,1.23-8.25-1.5-4.84-3.73,4.98-3.24,9.46-11.02,9.06-14.12-4.12-31.79-25.15-91.66-30.42-108.13-5.52-17.26-18.28-84.42-12.24-123.58,5.77-37.37,38.89-39.32,47.28,3.37Z" fill="#ffa794"/>
          <g id="Grupo_1118144" data-name="Grupo 1118144">
            <path id="Trazado_904924" data-name="Trazado 904924" d="M267.64,129.88c-10.76,11.78-25.28,42.12-28.58,55.96-3.03,12.7,3.53,17.74,14,5.97,9.86-11.08,29.4-37.71,34.99-53.98,6.59-19.2-4.58-25.3-20.41-7.96Z" fill="#ffa794"/>
            <g id="Grupo_1118142" data-name="Grupo 1118142">
              <path id="Trazado_904925" data-name="Trazado 904925" d="M248.06,180.7c-4.86-11.14-15.98-24.82-23.38-37.31-3.28-5.54-9.45-3.06-7.18,3.1,3.45,9.36,11.95,39.9,18.52,47.78,8.7,10.44,17.67-.66,12.04-13.58Z" fill="#ffa794"/>
              <path id="Trazado_904926" data-name="Trazado 904926" d="M248.06,181.02a.313.313,0,0,1-.3-.2c-2.94-6.75-8.1-14.29-13.55-22.27-2.73-3.99-5.55-8.11-8.04-12.1a.326.326,0,1,1,.55-.35c2.48,3.97,5.3,8.09,8.02,12.07,5.47,8.01,10.64,15.57,13.61,22.38a.323.323,0,0,1-.17.43.308.308,0,0,1-.13.03Z" fill="#ff947d"/>
            </g>
            <path id="Trazado_904927" data-name="Trazado 904927" d="M282.09,150.71c3.05.65,10.76-9.7,9-22.92-.94-7.04-5.41-11.3-14.61-7.32-8.79,3.8-14.44,11.45-12.42,13.78,5.34,6.15,3.07,13.25,18.02,16.45Z" fill="#72968c"/>
            <g id="Grupo_1118143" data-name="Grupo 1118143">
              <path id="Trazado_904928" data-name="Trazado 904928" d="M218.01,147.93c-1.9-4.41-4.56-4.97-4.6-7.87a12.872,12.872,0,0,0-.45-3.29c-.5-1.7,2.05-2.62,3.87-2.73s4.45-1.12,5.35.45c.75,1.31,1.75,7.12,3.35,10.29,1.28,2.54-5.71,7.3-7.51,3.14Z" fill="#ffa794"/>
              <path id="Trazado_904929" data-name="Trazado 904929" d="M223.21,131.64a32.5,32.5,0,0,0,.52,4.61c.37,1.52.5,3.85.9,6.74.31,2.23-4.54,2.98-5.38-1.23-.67-3.37,1.56-4.99,1.45-5.78a8.584,8.584,0,0,1,.18-3.96c.51-1.36,2.2-1.84,2.34-.38Z" fill="#ffa794"/>
              <path id="Trazado_904930" data-name="Trazado 904930" d="M222.08,134.13a15.362,15.362,0,0,0-2.64-4.91,21.772,21.772,0,0,0-3.55-2.42,1.116,1.116,0,0,0-1.32,1.68c.55,1.05,2.33,1.95,2.65,2.43a20.687,20.687,0,0,1,1.89,4.54c.52,1.63,3.33.1,2.98-1.32Z" fill="#ffa794"/>
              <path id="Trazado_904931" data-name="Trazado 904931" d="M218.18,134.59a7.94,7.94,0,0,0-2.38-2.71,1.318,1.318,0,0,0-2,1.55,20.888,20.888,0,0,0,2.04,2.95c.9,1.27,2.77-1.09,2.33-1.79Z" fill="#ffa794"/>
              <path id="Trazado_904932" data-name="Trazado 904932" d="M212.25,134.57a7.068,7.068,0,0,0-.05,2.75,1,1,0,0,0,1.92.15,16.591,16.591,0,0,0,.37-2.72c.15-1.18-1.74-2.07-2.24-.19Z" fill="#ffa794"/>
              <path id="Trazado_904933" data-name="Trazado 904933" d="M219.87,134.49a7.813,7.813,0,0,0-1.76-3.26c-1.02-1.05-3.07-.62-2.65.86.19.68,1.32,2.2,2.06,3.58s2.58-.3,2.36-1.19Z" fill="#ffa794"/>
              <path id="Trazado_904934" data-name="Trazado 904934" d="M215.42,135.43a4.744,4.744,0,0,0-1.32-1.93c-.79-.62-2.03.42-1.72,1.53.19.68.41,1.06.62,1.86.4,1.51,2.77-.71,2.43-1.46Z" fill="#ffa794"/>
            </g>
          </g>
          <path id="Trazado_904935" data-name="Trazado 904935" d="M261.96,233.3c-10.08,54.62,74.48,45.02,65.12,5.44-17.2-72.71,17.23-104.33,1.66-115.43-11.11-7.92-52.64-11.36-56.52,3.14-7.01,26.19-21.4,23.85-12.3,44.02,3.37,7.47,7.22,34.77,2.04,62.83Z" fill="#ffa794"/>
          <path id="Trazado_904936" data-name="Trazado 904936" d="M286.99,117.04c-5.79,1.86-9.56,10.21,1.43,11.78,14.28,2.04,24.96-12.35,20.84-12.9-6.2-.83-19.19.13-22.27,1.12Z" fill="#ffa794"/>
          <g id="Grupo_1118145" data-name="Grupo 1118145">
            <path id="Trazado_904937" data-name="Trazado 904937" d="M345.08,382.6c-7.92-51.4-13.03-75-9.84-107.46,2.52-25.59-9.05-41.81-11.31-61.5-3.95-34.43,9.96-73.01,9.96-73.01,7.41-32.77-52.24-26.84-59.39-18.54-3.82,4.44-4.18,10.16-6.55,15-4.73,9.68-17.2,16.59-9.38,33.62,2.98,6.5,5.87,38.09,3.87,44.83-14.92,50.31-19.55,116.91-21,174.42-.23,8.95,39.87,13.04,58.63,10.83,22.2-2.62,46.38-9.23,45-18.2Z" fill="#72968c"/>
            <path id="Trazado_904938" data-name="Trazado 904938" d="M241.44,390.3h0a.327.327,0,0,1-.32-.34c1.92-76.22,8.79-133.3,21.01-174.51,1.89-6.37-.85-38.05-3.85-44.6-5.86-12.78-.52-19.87,4.65-26.74a46,46,0,0,0,4.74-7.17.329.329,0,0,1,.59.29,45.91,45.91,0,0,1-4.8,7.28c-5.05,6.71-10.27,13.64-4.57,26.07,3.13,6.83,5.86,38.42,3.89,45.06-12.2,41.15-19.07,98.17-20.98,174.34a.324.324,0,0,1-.33.32Z" fill="#727997"/>
            <path id="Trazado_904939" data-name="Trazado 904939" d="M286.24,176.14a.353.353,0,0,1-.19-.06c-3.24-2.25-12.22-3.76-21.34-3.6a.313.313,0,0,1-.33-.32.324.324,0,0,1,.32-.33c7.69-.13,17.76.97,21.73,3.72a.324.324,0,0,1,.08.46.332.332,0,0,1-.27.14Z" fill="#727997"/>
            <path id="Trazado_904940" data-name="Trazado 904940" d="M262.2,216.34c8.19,2.67,34.89,5.07,62.05-.28.55-.42.12-10.74-.94-10.61-23.36,2.92-46.88,1.47-60.22.74-1.71-.09-.31,1.8-.65,4.98s-.92,4.95-.23,5.17Z" fill="#ffd6b3"/>
            <path id="Trazado_904941" data-name="Trazado 904941" d="M290.41,219.6c-13.3,0-23.78-1.48-28.31-2.95-.74-.24-.59-1.23-.32-3.03.11-.72.23-1.53.33-2.48a11.911,11.911,0,0,0-.12-3.09c-.12-.87-.2-1.5.15-1.89a1.13,1.13,0,0,1,.96-.29l1.34.07c13.56.75,36.25,2.01,58.82-.81a.328.328,0,1,1,.09.65c-22.63,2.83-45.36,1.57-58.94.81l-1.34-.07a.648.648,0,0,0-.44.08c-.15.16-.07.74.02,1.35a13,13,0,0,1,.12,3.25c-.1.97-.23,1.82-.34,2.51-.15,1-.34,2.24-.12,2.31,7.92,2.59,34.21,5.16,61.89-.28a.331.331,0,1,1,.13.65,178.19,178.19,0,0,1-33.91,3.22Z" fill="#727997"/>
          </g>
          <g id="Grupo_1118146" data-name="Grupo 1118146">
            <path id="Trazado_904942" data-name="Trazado 904942" d="M342.9,203.71c9.76,3.11,12.07,35,8.85,44.13-2.21,6.27-58.12,10.05-57.59-.88.31-6.4,2.24-41.35,9.24-42.42s33.33-2.8,39.49-.83Z" fill="#821616"/>
            <path id="Trazado_904943" data-name="Trazado 904943" d="M303.95,208.31l1.77-.1c-.08-.77-8.59-93,15.88-89.77,17.43,2.3,19.08,49.05,19.94,73.3.24,6.83.43,12.23.9,14.84l1.76-.17c-.45-2.55-.64-7.92-.88-14.71-.94-26.33-2.5-70.4-21-73.78a10.326,10.326,0,0,0-7.55,1.33c-18.32,11.41-11.13,85.89-10.82,89.05Z" fill="#821616"/>
            <path id="Trazado_904944" data-name="Trazado 904944" d="M328.8,222.42c-17.36,0-23.75-10.12-24.7-15.71a.33.33,0,1,1,.65-.11c.91,5.4,7.14,15.16,24.06,15.16.79,0,1.59-.02,2.42-.06,6.53-.34,10.82-2.3,12.74-5.81,2.21-4.04.52-8.64-.05-9.64a.329.329,0,0,1,.57-.33c.94,1.66,2.2,6.36.06,10.28-2.04,3.73-6.51,5.8-13.28,6.15-.84.04-1.66.07-2.46.07Z" fill="#d93b3b"/>
          </g>
          <g id="Grupo_1118152" data-name="Grupo 1118152">
            <g id="Grupo_1118150" data-name="Grupo 1118150">
              <g id="Grupo_1118147" data-name="Grupo 1118147">
                <path id="Trazado_904945" data-name="Trazado 904945" d="M310.9,229.41a26.877,26.877,0,0,1-2.92,2.9c-2.53,2.35-2.9,4.58-4.02,6.74-.8,1.53,5.63,5.52,6.7,3.91,1.85-2.77,3.2-5.75,6.14-8.55,2.73-2.6-3.11-8.44-5.89-5Z" fill="#ffa794"/>
                <path id="Trazado_904946" data-name="Trazado 904946" d="M298.96,238.54a22.2,22.2,0,0,0,3.33-3.14c1-1.15,5.1-2.97,6.16-3.57,2.35-1.34,4.33,1.89.89,4.62-2.26,1.79-4.7.91-5.34,1.34s-1.89,1.97-3.6,2.43c-1.37.37-2.56-.82-1.44-1.68Z" fill="#ffa794"/>
                <path id="Trazado_904947" data-name="Trazado 904947" d="M304.16,238.78c-.6.78-.98,1.91-1.39,2.24s-2.05.12-3.03.71c-1,.6-.63,1.81.09,1.85,1.06.06,3.28.45,4.02-.19a17.167,17.167,0,0,0,2.38-2.62c.99-1.27-1.19-3.14-2.07-1.99Z" fill="#ffa794"/>
                <path id="Trazado_904948" data-name="Trazado 904948" d="M305.34,240.28c-.54.82-.84,1.97-1.22,2.34s-2.14.02-3.08.67c-.95.67-.5,1.85.22,1.84,1.06-.01,3.41.47,4.11-.22a16.75,16.75,0,0,0,2.18-2.79C308.45,240.78,306.14,239.07,305.34,240.28Z" fill="#ffa794"/>
                <path id="Trazado_904949" data-name="Trazado 904949" d="M306.96,240.6c-.44.88-.59,2.06-.92,2.47s-2.12.28-2.97,1.05-.27,1.89.45,1.8c1.05-.14,3.44.04,4.05-.73a16.636,16.636,0,0,0,1.82-3.04c.73-1.44-1.78-2.85-2.42-1.55Z" fill="#ffa794"/>
                <path id="Trazado_904950" data-name="Trazado 904950" d="M308.68,241.44c-.48.62-.97,1.64-1.22,2.02s-1.73.5-2.41,1.23c-.68.75-.08,1.66.54,1.52.9-.21,2.96-.27,3.45-.97.48-.67,1.06-1.42,1.8-2.57C311.6,241.49,309.45,240.44,308.68,241.44Z" fill="#ffa794"/>
              </g>
              <g id="Grupo_1118148" data-name="Grupo 1118148">
                <path id="Trazado_904951" data-name="Trazado 904951" d="M314.26,139.62c3.7,15.9,20.69,45.86,30.32,56.77,8.84,10.01,16.33,8.31,13.37-7.52-2.8-15-14.07-45.14-23.65-59.92C324.79,114.26,308.81,116.23,314.26,139.62Z" fill="#ffa794"/>
                <path id="Trazado_904952" data-name="Trazado 904952" d="M344.58,196.72a.358.358,0,0,1-.25-.11c-8.75-9.91-23.96-36.2-29.23-52.76a.329.329,0,0,1,.21-.41.321.321,0,0,1,.41.21c5.25,16.49,20.39,42.66,29.1,52.52a.321.321,0,0,1-.03.46.3.3,0,0,1-.22.08Z" fill="#ff9782"/>
              </g>
              <g id="Grupo_1118149" data-name="Grupo 1118149">
                <path id="Trazado_904953" data-name="Trazado 904953" d="M344.53,192.19c-12.24,6.49-25.52,27.35-34.02,37.72-4.03,4.91,1.79,8.91,5.82,4.97,5.8-5.68,30.99-20.38,39.93-32.03,6.13-7.98-.78-16.45-11.73-10.65Z" fill="#ffa794"/>
                <path id="Trazado_904954" data-name="Trazado 904954" d="M310.51,230.24a.293.293,0,0,1-.21-.08.321.321,0,0,1-.04-.46c2.11-2.56,4.55-5.81,7.13-9.25,7.89-10.53,17.72-23.64,26.99-28.55a.32.32,0,0,1,.44.14.328.328,0,0,1-.14.44c-9.14,4.84-18.92,17.89-26.77,28.37-2.58,3.45-5.02,6.7-7.15,9.27a.317.317,0,0,1-.25.12Z" fill="#ff9782"/>
              </g>
            </g>
            <g id="Grupo_1118151" data-name="Grupo 1118151">
              <path id="Trazado_904955" data-name="Trazado 904955" d="M316.81,150.04c-2.22,2.31-9.36-11.26-5.14-23.99,2.25-6.78,7.98-10.27,16.83-5.53s11.11,11.5,10.19,15.06-12.01,4.22-21.88,14.46Z" fill="#72968c"/>
              <path id="Trazado_904956" data-name="Trazado 904956" d="M316.22,150.62a1.347,1.347,0,0,1-.47-.09c-2.22-.81-5.17-7.13-5.65-14.06a.326.326,0,0,1,.3-.35.333.333,0,0,1,.35.3c.49,7.15,3.47,12.86,5.22,13.49a.5.5,0,0,0,.6-.11c5.73-5.94,11.78-8.64,16.2-10.61,3.05-1.36,5.25-2.34,5.6-3.7.85-3.29-1.12-9.93-10.03-14.69a.324.324,0,1,1,.31-.57c9.25,4.94,11.26,11.94,10.35,15.43-.43,1.66-2.63,2.65-5.96,4.13-4.37,1.95-10.35,4.62-15.99,10.47a1.108,1.108,0,0,1-.82.36Z" fill="#727997"/>
            </g>
          </g>
          <g id="Grupo_1118156" data-name="Grupo 1118156">
            <path id="Trazado_904957" data-name="Trazado 904957" d="M295.73,113.04c4.92-2.05-7.73-33.02-7.24-37.2s.39-7.4-3.39-15.03-17.67-5.63-19.28,4.89c-.7,4.53.21,7.03-2.76,10.42-7.1,8.12,4.28,9.39-1.25,18.76-5.06,8.57,2.66,17.16,12.67,15.82,8.31-1.11,9.74,7.13,21.25,2.34Z" fill="#4f2628"/>
            <g id="Grupo_1118153" data-name="Grupo 1118153">
              <path id="Trazado_904958" data-name="Trazado 904958" d="M286.03,92.01c.19,3.85,1.85,20.88,1.71,27.64-.18,8.8,18.51,2.5,17.67-3.49-1.34-9.62-3.01-18.24-3.73-24.51S285.65,84.5,286.03,92.01Z" fill="#ffa794"/>
              <path id="Trazado_904959" data-name="Trazado 904959" d="M286.24,95.14c.45,5.71,1.38,16.33,1.49,22.5,8.62-2.78,12.06-12.83,13.54-20.1C302.39,92.03,292.17,93.73,286.24,95.14Z" fill="#ff9782"/>
            </g>
            <g id="Grupo_1118155" data-name="Grupo 1118155">
              <path id="Trazado_904960" data-name="Trazado 904960" d="M280.46,114.49c-13.49-.53-15.14-29.66-11.07-39.2,6.46-15.12,30.93-17.95,33.41,6.9,1.72,17.24-10.64,32.76-22.33,32.3Z" fill="#ffa794"/>
              <path id="Trazado_904961" data-name="Trazado 904961" d="M267.54,79.35c-.11-.43,1.59-.71,2.78-.79,1.45-.09,3.03-.17,2.98.42s-1.73.6-3.27.68c-1.3.07-2.39.09-2.5-.31Z" fill="#4f2628"/>
              <path id="Trazado_904962" data-name="Trazado 904962" d="M288.48,81.97c.07-.37-1.67-1.14-3.09-1.58-1.72-.54-3.62-.99-3.69-.46-.09.69,1.93,1.03,3.76,1.59,1.55.47,2.95.82,3.01.45Z" fill="#4f2628"/>
              <path id="Trazado_904963" data-name="Trazado 904963" d="M271.19,84.32a.739.739,0,0,1-.8.67.747.747,0,0,1-.81-.66.739.739,0,0,1,.8-.67A.754.754,0,0,1,271.19,84.32Z" fill="#2e3142"/>
              <path id="Trazado_904964" data-name="Trazado 904964" d="M285.01,85.67a.815.815,0,1,1-.71-.77A.739.739,0,0,1,285.01,85.67Z" fill="#2e3142"/>
              <path id="Trazado_904965" data-name="Trazado 904965" d="M276.26,83.29a23.85,23.85,0,0,1-1.98,8.26c-.72,1.41.8,2.31,1.14,2.75,1,1.26-3.42-.82-2.64-1.91C275.55,88.54,276.42,81.38,276.26,83.29Z" fill="#ff9782"/>
              <path id="Trazado_904966" data-name="Trazado 904966" d="M273.86,101.66c.35,2.31,4.78,2.73,5.39.12C279.36,101.32,273.77,101.07,273.86,101.66Z" fill="#fff"/>
              <path id="Trazado_904967" data-name="Trazado 904967" d="M298.36,88.98c-.45,2.48-.29,5.54,1.46,5.88s3.37-2.22,4.14-4.61c1-3.13.2-4.8-1.5-5.13-2.13-.41-3.66,1.39-4.11,3.87Z" fill="#ffa794"/>
              <g id="Grupo_1118154" data-name="Grupo 1118154">
                <path id="Trazado_904968" data-name="Trazado 904968" d="M290.57,83.11c1.05,1.34-.24,7.5-5.61,8.79s-7.87-5.35-6.8-8.53,9.31-4.21,12.41-.26Z" fill="#2e3142" opacity="0.9"/>
                <path id="Trazado_904969" data-name="Trazado 904969" d="M262.62,81.41c-1.02,1.35.05,7.42,5.09,8.58s7.54-5.49,6.61-8.61-8.68-3.96-11.7.04Z" fill="#2e3142" opacity="0.9"/>
                <path id="Trazado_904970" data-name="Trazado 904970" d="M283.64,92.66a5.537,5.537,0,0,1-4.15-1.88,8.435,8.435,0,0,1-1.91-7.61c.5-1.5,2.28-2.65,4.75-3.07,2.7-.47,6.6-.05,8.71,2.64.61.78.62,2.47.01,4.21a8.426,8.426,0,0,1-5.96,5.54,6.2,6.2,0,0,1-1.46.18Zm.65-11.52a9.8,9.8,0,0,0-1.74.15c-1.97.34-3.47,1.23-3.81,2.27a7.3,7.3,0,0,0,1.66,6.41,4.365,4.365,0,0,0,4.44,1.35,7.25,7.25,0,0,0,5.1-4.77,4.16,4.16,0,0,0,.18-3.06h0a7.326,7.326,0,0,0-5.81-2.34Z" fill="#eeeef6"/>
                <path id="Trazado_904971" data-name="Trazado 904971" d="M268.86,90.72a5.811,5.811,0,0,1-1.29-.15,7.583,7.583,0,0,1-5.4-4.98c-.66-1.83-.68-3.7-.04-4.55h0c1.98-2.62,5.7-3.28,8.51-2.78,2.23.4,3.82,1.5,4.25,2.93a8.956,8.956,0,0,1-2.12,7.73A5.258,5.258,0,0,1,268.86,90.72Zm-5.76-8.95a4.639,4.639,0,0,0,.21,3.41,6.405,6.405,0,0,0,4.54,4.22,4.1,4.1,0,0,0,4.05-1.29,7.712,7.712,0,0,0,1.85-6.56c-.29-.97-1.56-1.78-3.31-2.09-2.45-.44-5.66.1-7.33,2.32h0Z" fill="#eeeef6"/>
                <path id="Trazado_904972" data-name="Trazado 904972" d="M277.85,83.3c-.74-1.07-2.4-.88-3.12-.54l-.51-1.09c1.24-.59,3.5-.68,4.62.94l-.99.69Z" fill="#eeeef6"/>
                <path id="Trazado_904973" data-name="Trazado 904973" d="M293.82,87.9l-1.7-3.03a.661.661,0,0,0-.31-.29l-1.23-.47.43-1.13,1.23.47a1.847,1.847,0,0,1,.94.83l1.7,3.03-1.05.59Z" fill="#eeeef6"/>
              </g>
              <path id="Trazado_904974" data-name="Trazado 904974" d="M289.67,53.07c-12.85.45-19.26,10.33-13.92,18.44,3.54,5.39,10.71,3.16,10.5,10.61-.23,7.84,4.07,9.5,7.56,11.37,4.35,2.34-3.98,14.75,5.87,17.34,12.54,3.29,14.84-7.26,19.76-9.51,5.16-2.37,9.85-11.15-.86-18.34-5.74-3.85,2.84-14.08-8.73-19.26-5.43-2.43-5.43-11.16-20.17-10.65Z" fill="#4f2628"/>
            </g>
          </g>
        </g>
        <g id="Grupo_1118185" data-name="Grupo 1118185">
          <g id="Grupo_1118163" data-name="Grupo 1118163">
            <path id="Trazado_904975" data-name="Trazado 904975" d="M162.75,119.01c10.66,17.54,20.63,59.12,22.61,82.72,1.39,16.59-9.35,21.61-19.74,10.19-11.45-12.59-32.55-53.91-34.93-81.14-1.89-21.62,22.94-26.77,32.06-11.76Z" fill="#ffa794"/>
            <g id="Grupo_1118159" data-name="Grupo 1118159">
              <path id="Trazado_904976" data-name="Trazado 904976" d="M180.42,160.21c-1.47-5.13-9.39-34.16-19.47-45.37-9.8-10.91-29.56-7.83-31.24,12.04-.98,11.56,7.71,38.09,14.16,52.66,3.67,8.3,38.54-12.44,36.56-19.32Z" fill="#ff6b5e"/>
              <g id="Grupo_1118158" data-name="Grupo 1118158">
                <path id="Trazado_904977" data-name="Trazado 904977" d="M159.55,167.18c-1.63,1.92,4.23,3.47,10.83,4.58,1.5-1.03,2.9-2.09,4.16-3.13-4.77-1.8-12.65-4.19-14.98-1.44Z" fill="#ffb55e"/>
                <path id="Trazado_904978" data-name="Trazado 904978" d="M170.18,143.63c-5.87,1.48,7.49,19.94,7.49,19.94s-7.55-9.35-11.76-7.74c-3.08,1.18,4.97,8.3,9.51,12.04,3.43-3,5.52-5.82,4.99-7.66-.56-1.95-2.06-7.38-4.26-13.97-1.98-2.19-4.03-3.11-5.98-2.62Z" fill="#ffb55e"/>
              </g>
            </g>
            <g id="Grupo_1118162" data-name="Grupo 1118162">
              <g id="Grupo_1118160" data-name="Grupo 1118160">
                <path id="Trazado_904979" data-name="Trazado 904979" d="M192.91,173.38c1.76-2.88,3.31-4.92,3.74-7.7.4-2.54,2.77-3.32,5.11-3.9,1.09-.27,4.04-2.02,8.14-4.57,2.03-1.26,3.43,5.32,2.44,7.93-.42,1.11-.71,1.73-6.51,6.27-1.69,1.33-2.25,3.89-3.84,7.15-1.5,3.08-10.95-2.13-9.09-5.19Z" fill="#ffa794"/>
                <path id="Trazado_904980" data-name="Trazado 904980" d="M201.84,152.67a53.021,53.021,0,0,1-2.49,6.08,22.553,22.553,0,0,0-2.85,8.05c-.31,3.14,3.33,6.29,6.05.86,2.18-4.35.13-7.26.58-8.29a13.732,13.732,0,0,0,1.39-5.43c-.07-2.01-1.92-3.19-2.68-1.27Z" fill="#ffa794"/>
              </g>
              <g id="Grupo_1118161" data-name="Grupo 1118161">
                <path id="Trazado_904981" data-name="Trazado 904981" d="M167.47,200.26c3.03-10.28,19.36-16.99,26.55-28.66,2.89-4.68,10.24,1.74,8.9,4.93-1.77,4.2-10.04,30.18-19.49,39.02-6.63,6.2-20.76.98-15.96-15.29Z" fill="#ffa794"/>
                <path id="Trazado_904982" data-name="Trazado 904982" d="M167.47,200.59a.387.387,0,0,1-.09-.01.33.33,0,0,1-.22-.41c1.66-5.63,7.19-10.17,13.04-14.98,5.04-4.14,10.25-8.42,13.55-13.76a.328.328,0,0,1,.56.34c-3.36,5.44-8.61,9.75-13.69,13.92-5.78,4.74-11.23,9.22-12.83,14.66a.33.33,0,0,1-.31.24Z" fill="#ff947d"/>
              </g>
            </g>
          </g>
          <g id="Grupo_1118164" data-name="Grupo 1118164">
            <path id="Trazado_904983" data-name="Trazado 904983" d="M213.5,137.63l-9.09-.59a2.154,2.154,0,0,0-2.1,1.56l-6.01,22.8c-.24.92.41,1.99,1.87,2.23l8.44.14a2.154,2.154,0,0,0,2.1-1.56l6.88-22.74c0-1.51-1.17-1.78-2.09-1.84Z" fill="#2a2e40"/>
            <path id="Trazado_904984" data-name="Trazado 904984" d="M214.31,138.1l-9.09-.59a2.154,2.154,0,0,0-2.1,1.56l-6.01,22.8a1.346,1.346,0,0,0,1.22,1.78l9.09.59a2.154,2.154,0,0,0,2.1-1.56l6.01-22.8A1.346,1.346,0,0,0,214.31,138.1Z" fill="#454b69"/>
          </g>
          <g id="Grupo_1118165" data-name="Grupo 1118165">
            <path id="Trazado_904985" data-name="Trazado 904985" d="M214.91,160.01a7.144,7.144,0,0,0-.06-3.99c-.56-1.55-1.98-2.16-3.02-3.09-.66-.59-1.97.59-1.46,2.12.32.95,1.41,1.84,1.57,2.58.14.63-.08,1.41,0,3.07s2.25,1.36,2.98-.69Z" fill="#ffa794"/>
            <path id="Trazado_904986" data-name="Trazado 904986" d="M214.1,161.94c.31-1.75,0-4.1-.87-5.12-1.24-1.47-3.19-2.37-4.55-3.26-.9-.59-2.42,1.16-1.44,2.93.61,1.09,2.43,1.77,2.81,2.64.32.75.11,2.01.59,4.05S213.63,164.62,214.1,161.94Z" fill="#ffa794"/>
            <path id="Trazado_904987" data-name="Trazado 904987" d="M212.27,163.48c-.27-1.27-1.27-3.77-2.16-4.55s-2.85-1.35-4.24-1.98c-.85-.38-2.14,1.47-1.01,2.87.7.87,2.3,1.4,2.77,2.11.4.61.72,2.61,1.47,4.35s3.81.26,3.16-2.81Z" fill="#ffa794"/>
            <path id="Trazado_904988" data-name="Trazado 904988" d="M209.83,165.45a8.982,8.982,0,0,0-1.87-3.55c-1.05-.94-2.61-.94-3.46-1.21-.7-.23-1.66,1.09-.79,2.07.54.6,1.82.92,2.18,1.42.3.43.42,1.55.98,2.78s3.29.55,2.96-1.5Z" fill="#ffa794"/>
          </g>
          <path id="Trazado_904989" data-name="Trazado 904989" d="M63.99,113.08c-9.35,52.31-36.75,87.44-24.95,104.49,9.87,14.26,24.34,18.05,66.18,12.7,21.96-2.81,12.38-112.12,10.47-120.29C112.19,95.05,66.59,98.57,63.99,113.08Z" fill="#394061"/>
          <path id="Trazado_904990" data-name="Trazado 904990" d="M165.43,249.68c2.87,22.84,1.51,65.08.52,108.24-.5,21.69-4.13,97.53-5.41,108.26-.68,5.71-29.35,4.97-31.71,1.84-4.58-6.09-.32-10.49-1.2-15.57-.95-5.5-4.86-9.38-4.01-16.11,2.22-17.44-7.61-35.64-4.09-78.08,1.31-15.8-20.91-72.08-14.3-109.41s55.56-35.97,60.19.83Z" fill="#90b6d4"/>
          <g id="Grupo_1118166" data-name="Grupo 1118166">
            <path id="Trazado_904991" data-name="Trazado 904991" d="M64.61,251.07c-8.22,37.2.79,85.71-1.09,104.26-2.31,22.76-6.55,43.28-5.46,64.67.55,10.72-5.36,12.79-1.72,27.78,2.32,9.53-4.5,11.57.63,19.51,2.75,4.26,27.83,5.28,28.42,2.61,3.59-16.25,24.65-92.52,27.16-109.22,2.49-16.58,11.4-73.34,11.71-108.87.33-37.91-51.86-36-59.65-.73Z" fill="#90b6d4"/>
            <path id="Trazado_904992" data-name="Trazado 904992" d="M85.39,470.22h-.07a.323.323,0,0,1-.25-.39c1.34-6.07,5.1-20.45,9.46-37.09,7.19-27.47,16.13-61.66,17.7-72.11l.51-3.37c2.98-19.71,10.9-72.06,11.2-105.46a.324.324,0,0,1,.33-.32h0a.318.318,0,0,1,.32.33c-.29,33.45-8.22,85.83-11.2,105.55l-.51,3.37c-1.57,10.48-10.52,44.69-17.71,72.18-4.35,16.63-8.11,31-9.45,37.06a.331.331,0,0,1-.32.26Z" fill="#b7d2e8"/>
            <path id="Trazado_904993" data-name="Trazado 904993" d="M66.47,465.15h-.02a.319.319,0,0,1-.3-.35c.47-6.22,1.49-12.85,2.48-19.27,1.24-8,2.51-16.26,2.65-23.51.14-7.27,1.86-21.32,3.68-36.2,1.44-11.75,2.92-23.9,3.68-33.17.65-8.01,1.03-19.96,1.43-32.61.66-20.76,1.4-44.29,3.55-59.99a.328.328,0,0,1,.65.09c-2.15,15.67-2.89,39.18-3.55,59.92-.4,12.66-.78,24.62-1.43,32.64-.75,9.28-2.24,21.44-3.68,33.2-1.82,14.86-3.54,28.9-3.67,36.13-.14,7.29-1.42,15.58-2.66,23.59-.99,6.4-2.01,13.02-2.48,19.21a.328.328,0,0,1-.33.3Z" fill="#b7d2e8"/>
            <path id="Trazado_904994" data-name="Trazado 904994" d="M122.35,286.73h-.16a.331.331,0,0,1,.04-.66,2.358,2.358,0,0,0,1.78-.72c4.1-3.87,4.15-21.08,4.15-21.25a.34.34,0,0,1,.33-.33h0a.333.333,0,0,1,.33.33c0,.72-.06,17.66-4.36,21.73a3.026,3.026,0,0,1-2.1.91Z" fill="#b7d2e8"/>
            <path id="Trazado_904995" data-name="Trazado 904995" d="M82.45,290.09c-.31,0-.63-.02-.95-.05a.327.327,0,1,1,.07-.65,7.6,7.6,0,0,0,5.96-1.93c7.57-6.52,8.52-26.97,8.52-27.17a.325.325,0,0,1,.34-.31.319.319,0,0,1,.31.34c-.04.85-.97,20.94-8.75,27.64a8.285,8.285,0,0,1-5.52,2.14Z" fill="#b7d2e8"/>
          </g>
          <path id="Trazado_904996" data-name="Trazado 904996" d="M167.09,257.51c1.65,10.28-23.4,12.16-43.38,10.02-37.23-3.98-63.95.63-62.53-7.61,11.08-64.05-15.15-136.15,5.09-148.13,16.49-9.76,82.18-12.45,93.49,2.93,12.65,17.2-1.96,84.78,7.32,142.79Z" fill="#4f1515"/>
          <g id="Grupo_1118171" data-name="Grupo 1118171">
            <g id="Grupo_1118170" data-name="Grupo 1118170">
              <path id="Trazado_904997" data-name="Trazado 904997" d="M169.31,251.8c1.17,8.3-13.22,12.73-17.15,12.3s-4.11-52.04-4.66-80.26-12.69-64.35-13.05-65.33-.78-9.79-8.45-14.32c0,0-.56-2.57-.19-2.71s5.74,2.41,10.1,3.42,21.35,1.51,26.88,14.15,2.55,67.13,2.69,81.89a346.232,346.232,0,0,0,3.84,50.87Z" fill="#ff6b5e"/>
              <g id="Grupo_1118169" data-name="Grupo 1118169">
                <g id="Grupo_1118167" data-name="Grupo 1118167">
                  <path id="Trazado_904998" data-name="Trazado 904998" d="M168.69,247.25c-.44-3.29-.81-6.38-1.14-9.29-5.8-2.66-16.45-7.07-16.75-3.68-.42,4.67,12.73,7.72,12.73,7.72a117.272,117.272,0,0,0-14.72-1.6c.14,3.08.31,5.98.49,8.62A83.807,83.807,0,0,0,168.69,247.25Z" fill="#ffb55e"/>
                  <path id="Trazado_904999" data-name="Trazado 904999" d="M166.4,225.68c-2.04-2.53-3.83-3.8-4.83-2.34-2.15,3.13,2.22,8.8,5.76,12.57-.39-3.65-.69-7.03-.93-10.23Z" fill="#ffb55e"/>
                </g>
                <g id="Grupo_1118168" data-name="Grupo 1118168">
                  <path id="Trazado_905000" data-name="Trazado 905000" d="M164.51,125.72c-4.71-2.26-18.52-8.54-18.87-4.67-.42,4.67,12.73,7.72,12.73,7.72s-13.99-2.51-21.11-1.29c.66,2.25,1.4,4.85,2.16,7.72,5.5,1.19,14.44.8,26-1.55-.23-2.93-.53-5.61-.91-7.93Z" fill="#ffb55e"/>
                  <path id="Trazado_905001" data-name="Trazado 905001" d="M155.98,111.01c-1.18,4.04,5.22,10.84,8.39,13.9a27.145,27.145,0,0,0-1.58-5.86,18.689,18.689,0,0,0-6.81-8.03Z" fill="#ffb55e"/>
                </g>
                <path id="Trazado_905002" data-name="Trazado 905002" d="M154.74,191.9c2.97-3.63-6.19-13.54-6.19-13.54s10.49,10.26,17.05,13.06c.06-2.89.14-6.14.22-9.62-4.07-3.46-10.58-7.26-19.26-10.98.52,4.42.86,8.8.94,13.01.02.85.03,1.73.05,2.63,2.85,3.93,5.84,7.09,7.19,5.44Z" fill="#ffb55e"/>
              </g>
              <path id="Trazado_905003" data-name="Trazado 905003" d="M169.31,252.13a.323.323,0,0,1-.32-.28,347.353,347.353,0,0,1-3.84-50.91c-.03-3.32.1-8.74.25-15.02.33-14.11.79-33.43-.03-48.12a.331.331,0,0,1,.66-.04c.83,14.72.37,34.05.03,48.17-.15,6.28-.28,11.7-.25,15a347.538,347.538,0,0,0,3.83,50.83.321.321,0,0,1-.28.37h-.05Z" fill="#ffaf7d"/>
            </g>
            <path id="Trazado_905004" data-name="Trazado 905004" d="M134.44,118.51c.99-.88,5.18.6,5.79.53s-2.07-7.99-4.33-11.19-9.69-6.93-10.23-6.89-.08,3.11.27,3.41a37.058,37.058,0,0,1,5.49,5.63c1.66,2.4,3.01,8.5,3.01,8.5Z" fill="#ff877d"/>
          </g>
          <g id="Grupo_1118172" data-name="Grupo 1118172">
            <path id="Trazado_905005" data-name="Trazado 905005" d="M127.02,77.49c.07,3.81.06,34.87.11,36.49.27,8.22-23.43-2.84-22.89-9.61.75-9.4.9-17.32,1.35-23.62s21.3-10.68,21.42-3.26Z" fill="#ffa794"/>
            <path id="Trazado_905006" data-name="Trazado 905006" d="M107.87,79.23c3.62-5.27,19.04-8.46,19.15-1.75.05,2.91.06,21.81.08,31.23-7.43,7.56-24.31-5.58-19.24-29.49Z" fill="#ff9782"/>
          </g>
          <path id="Trazado_905007" data-name="Trazado 905007" d="M104.54,100.37c-.05,2.84-2.54,5.89,5.57,20.4,0,0-1.36,33.69.57,62.1s-.88,81-3.65,81.24c-17.4,1.5-46.85-.83-48.69-9.31-.58-2.68,4.73-22.5.6-88.16-1.07-17.08-6.09-45.46,6.09-54.87,5.52-4.27,16.77-5.94,27.42-7.53,5.35-.8,12.11-5.32,12.08-3.86Z" fill="#ff6b5e"/>
          <g id="Grupo_1118173" data-name="Grupo 1118173">
            <path id="Trazado_905008" data-name="Trazado 905008" d="M127.27,107.01c21.42-.41,18.49-36.15,16.7-43.22-3.22-12.71-28.63-16.34-36.42,7.39-4.29,13.08.61,36.19,19.72,35.82Z" fill="#ffa794"/>
            <path id="Trazado_905009" data-name="Trazado 905009" d="M106.91,77.95c2.53-.07,4.96-1.54,5.92-5.48,1.3-5.38,2.78-6.81,8.31-6.1,4.09.52,6.01-5.26,11.66-3.11,14.3,5.44,17.66-1.67,16.55-6.21-1.3-5.35-8.28-3.81-10.82-5.61s-3.15-6.79-10.39-3.27c-8.69,4.21-30.55-3.07-27.78,20.2C100.96,73.41,102.89,78.07,106.91,77.95Z" fill="#4f2628"/>
            <path id="Trazado_905010" data-name="Trazado 905010" d="M108.98,76.54c-.05,2.76-.87,6.03-2.84,6.02s-3.15-3.11-3.47-5.86c-.41-3.58.81-5.22,2.71-5.21,2.38,0,3.65,2.28,3.59,5.05Z" fill="#ffa794"/>
            <path id="Trazado_905011" data-name="Trazado 905011" d="M144.84,72.79c.1-.74-1.79-1.21-3.12-1.32-1.61-.14-3.37-.25-3.28.77s1.94,1.01,3.65,1.13c1.45.1,2.65.12,2.75-.58Z" fill="#4f2628"/>
            <path id="Trazado_905012" data-name="Trazado 905012" d="M123.18,72.59c.02-.75,1.89-1.41,3.36-1.59,1.79-.22,3.75-.21,3.7.85-.07,1.37-2.12,1.08-4.02,1.29-1.61.18-3.06.19-3.04-.55Z" fill="#4f2628"/>
            <path id="Trazado_905013" data-name="Trazado 905013" d="M140.56,77.08a.738.738,0,0,0,.71.76.753.753,0,0,0,.88-.57.738.738,0,0,0-.71-.76A.753.753,0,0,0,140.56,77.08Z" fill="#2e3142"/>
            <path id="Trazado_905014" data-name="Trazado 905014" d="M126.68,76.83a.747.747,0,0,0,.81.66.736.736,0,0,0,.79-.68.747.747,0,0,0-.81-.66A.736.736,0,0,0,126.68,76.83Z" fill="#2e3142"/>
            <path id="Trazado_905015" data-name="Trazado 905015" d="M135.65,75.48c-.03.96.7,9.9-.44,11.03s.4,1.07,1.57.41-1.07-13.35-1.13-11.45Z" fill="#ff9782"/>
            <path id="Trazado_905016" data-name="Trazado 905016" d="M135.91,94c-.49,1.92-4.6,2.28-5.37-.51C130.42,93.04,136.05,93.42,135.91,94Z" fill="#fff"/>
          </g>
          <g id="Grupo_1118177" data-name="Grupo 1118177">
            <g id="Grupo_1118176" data-name="Grupo 1118176">
              <path id="Trazado_905017" data-name="Trazado 905017" d="M104.54,100.37c-.05,2.84-2.54,5.89,5.57,20.4,0,0-1.36,33.69.57,62.1s-.88,81-3.65,81.24c-17.4,1.5-46.85-.83-48.69-9.31-.58-2.68,4.73-22.5.6-88.16-1.07-17.08-6.09-45.46,6.09-54.87,5.52-4.27,16.77-5.94,27.42-7.53,5.35-.8,12.11-5.32,12.08-3.86Z" fill="#ff6b5e"/>
              <g id="Grupo_1118175" data-name="Grupo 1118175">
                <path id="Trazado_905018" data-name="Trazado 905018" d="M76.29,249.28C80.54,224.9,87.98,211.75,93.75,214s-8.73,23.65-8.73,23.65,8.12-10.78,12.22-8.5-13.26,16.47-13.26,16.47,15.73-7.35,18.89-2.19-26.59,5.85-26.59,5.85Z" fill="#ffb55e"/>
                <g id="Grupo_1118174" data-name="Grupo 1118174">
                  <path id="Trazado_905019" data-name="Trazado 905019" d="M60.4,200.05c6.39.05,17.83-.31,16.72-3.52-1.53-4.43-14.77-1.82-14.77-1.82s25.08-6.27,22.29-11.79c-2.18-4.31-11.38-2.31-24.56,6.06.14,3.91.25,7.59.32,11.08Z" fill="#ffb55e"/>
                  <path id="Trazado_905020" data-name="Trazado 905020" d="M71.8,210.93c.73-3.99-6.52-7.57-11.37-9.49.04,1.97.06,3.87.08,5.7,5.47,3.77,10.78,6.6,11.29,3.79Z" fill="#ffb55e"/>
                </g>
              </g>
            </g>
            <path id="Trazado_905021" data-name="Trazado 905021" d="M110.11,120.76c-1.29-1.11-5.96,1.72-6.52,1.91s-4.61-7.52-5.16-11.81.74-9.15,1.23-9.64,4.4-1.9,4.94-1.73c.18.06-.76,7.2,1.64,12.31s3.87,8.98,3.87,8.98Z" fill="#ff877d"/>
          </g>
          <path id="Trazado_905022" data-name="Trazado 905022" d="M86.31,105.17c6.82,8.96,8.79,99.75-29.1,99.04-1.33,6.75-.63,9.82-.27,10.01s29.31,2.2,38.41-42.24.47-66.01-1.05-68.14-9.23-.29-7.99,1.34Z" fill="#212538"/>
          <g id="Grupo_1118184" data-name="Grupo 1118184">
            <g id="Grupo_1118178" data-name="Grupo 1118178">
              <path id="Trazado_905023" data-name="Trazado 905023" d="M115.39,194.27c11.48-13.43,40.65-18.87,59.13-30.52,5.43-3.42,10.79,4.48,6.92,8.59-4.76,5.03-38.18,35.51-55.93,43.86-12.45,5.86-21.89-8.18-10.12-21.93Z" fill="#ffa794"/>
              <path id="Trazado_905024" data-name="Trazado 905024" d="M125.51,216.54a.34.34,0,0,1-.3-.19.336.336,0,0,1,.16-.44c16.36-7.7,46.18-34.27,54.61-42.56a.325.325,0,0,1,.46.46c-8.46,8.31-38.36,34.95-54.79,42.69a.353.353,0,0,1-.14.03Z" fill="#ff947d"/>
            </g>
            <g id="Grupo_1118179" data-name="Grupo 1118179">
              <path id="Trazado_905025" data-name="Trazado 905025" d="M181.78,147.24a22.737,22.737,0,0,1-2.84,4.57c-1.11,1.4-1.34,4.95-2.28,7.64-1.06,3.06,3.66,5.64,5.95.98,1.5-3.05-.43-5.97-.09-6.82s1.85-2.62,1.85-4.82c0-1.75-1.88-3.07-2.59-1.56Z" fill="#ffa794"/>
              <path id="Trazado_905026" data-name="Trazado 905026" d="M179.34,155.22c1-2.85,2.69-4.06,4.32-5.53,1.84-1.65,7.05-2.76,8.51-3.41.85-.38,2.26.93,1.27,2.61-1.04,1.77-4.59,2.02-6.18,4.05s-2.31,3.75-4.34,5.04c-2.17,1.38-4.72.5-3.58-2.75Z" fill="#ffa794"/>
              <path id="Trazado_905027" data-name="Trazado 905027" d="M180.04,158.79c.35-1.82,5.38-6.77,7.53-7.09,1.94-.29,4.38,2.55,5.14,3.28.56.54.35,2.09-1.68,2.2-1.83.11-2.21-1.31-2.72-1.24-.91.13-2.76,4-4.05,5.35S179.61,161.05,180.04,158.79Z" fill="#ffa794"/>
              <path id="Trazado_905028" data-name="Trazado 905028" d="M181.18,159.65c.67-1.73,5.87-5.83,8.92-5.67,1.96.1,2.79,4.24,3.33,5.89.24.74-1.26,1.69-2.52,1.17-1.12-.46-.96-2.35-1.47-2.37-.92-.04-3.04,3.12-4.56,4.21s-4.52-1.09-3.69-3.23Z" fill="#ffa794"/>
              <path id="Trazado_905029" data-name="Trazado 905029" d="M183.59,160.42c.9-1.13,6.92-3.51,8.76-2.05,1.19.95.47,3.64-1.05,5.7-.36.48-1.41.12-1.76-.88-.32-.91.33-1.54.13-1.67-.61-.37-1.14.98-2.12,2.91-.66,1.3-5.06-2.62-3.95-4.02Z" fill="#ffa794"/>
              <path id="Trazado_905030" data-name="Trazado 905030" d="M178.51,154.45c-2.32,5.41-2.51,8.53-5.91,10.47-4.07,2.32,5.83,10.85,8.6,7.66,1.66-1.9,4.57-4.47,6.52-8.51,2.19-4.54-8.04-12.36-9.21-9.62Z" fill="#ffa794"/>
            </g>
            <g id="Grupo_1118180" data-name="Grupo 1118180">
              <path id="Trazado_905031" data-name="Trazado 905031" d="M89.7,117.09c13.69,16.39,31.02,57.8,37.21,81.93,4.35,16.96-5.38,23.98-17.7,13.89-13.58-11.12-41.87-50.39-49.11-78.22-5.75-22.09,17.89-31.62,29.61-17.6Z" fill="#ffa794"/>
              <path id="Trazado_905032" data-name="Trazado 905032" d="M126.91,199.35a.33.33,0,0,1-.32-.25c-6.4-24.93-24.02-66.1-37.14-81.8a.326.326,0,0,1,.5-.42c13.39,16.03,30.73,56.54,37.27,82.06a.332.332,0,0,1-.24.4c-.03,0-.06.01-.08.01Z" fill="#ff947d"/>
            </g>
            <g id="Grupo_1118183" data-name="Grupo 1118183">
              <path id="Trazado_905033" data-name="Trazado 905033" d="M118.17,163.41c-4.39-12.55-19.27-40.86-31.1-50.52-11.51-9.4-29.86-3.14-28.15,17.4.99,11.95,7.06,29.79,21.64,52.6,4.55,7.12,40.05-12.51,37.62-19.48Z" fill="#ff6b5e"/>
              <g id="Grupo_1118182" data-name="Grupo 1118182">
                <path id="Trazado_905034" data-name="Trazado 905034" d="M62.66,147.05A123.056,123.056,0,0,0,67.41,159c8.58-.58,21.32-2.03,19.19-5.49-3.17-5.15-18.89,2.19-18.89,2.19s17.35-14.19,13.26-16.47-12.22,8.5-12.22,8.5,14.5-21.4,8.73-23.65c-4.7-1.84-10.52,6.58-14.81,22.97Z" fill="#ffb55e"/>
                <path id="Trazado_905035" data-name="Trazado 905035" d="M118.17,163.41c-.44-1.24-.98-2.65-1.61-4.17-5.63-2.32-12.19-4.44-12.43-1.79-.42,4.67,12.73,7.72,12.73,7.72s-25.44-4.57-25.16,1.61c.2,4.35,7.71,6.36,20.5,5.09,4.12-3.25,6.7-6.41,5.98-8.46Z" fill="#ffb55e"/>
                <g id="Grupo_1118181" data-name="Grupo 1118181">
                  <path id="Trazado_905036" data-name="Trazado 905036" d="M75.67,108.63a1.346,1.346,0,0,0,.66,1.86c1.42.69,3.11.2,4.82-.9a17.69,17.69,0,0,0-5.48-.95Z" fill="#ffb55e"/>
                  <path id="Trazado_905037" data-name="Trazado 905037" d="M95.25,121.7c.72,5.04,2.07,9.2,4.59,8.7a3.749,3.749,0,0,0,1.19-.47c-1.89-2.92-3.84-5.7-5.78-8.22Z" fill="#ffb55e"/>
                  <path id="Trazado_905038" data-name="Trazado 905038" d="M88.75,119.5a3.81,3.81,0,0,0,2.84-2.22,42.2,42.2,0,0,0-4.19-4.11c-.51,3.61-.38,6.43,1.35,6.32Z" fill="#ffb55e"/>
                </g>
              </g>
              <path id="Trazado_905039" data-name="Trazado 905039" d="M84.43,184.72c-1.92,0-3.4-.49-4.15-1.67-8.38-13.1-14.47-25.36-18.12-36.44a.326.326,0,1,1,.62-.2c3.63,11.03,9.7,23.24,18.05,36.29,1.69,2.65,8.86,1.4,18.26-3.17,10.06-4.89,20-12.5,18.77-16.02-3.46-9.89-14.2-31.16-24.58-43.76a.339.339,0,0,1,.04-.46.33.33,0,0,1,.46.04c10.42,12.66,21.22,34.03,24.69,43.96,1.41,4.03-8.6,11.72-19.1,16.83-5.2,2.53-11,4.6-14.95,4.6Z" fill="#ffaf7d"/>
            </g>
          </g>
        </g>
      </g>
    </g>
  </g>
</svg>
