<svg xmlns="http://www.w3.org/2000/svg" xmlns:xlink="http://www.w3.org/1999/xlink" width="247.625" height="528.601" viewBox="0 0 247.625 528.601">
  <defs>
    <clipPath id="clip-path">
      <path id="Trazado_194907" data-name="Trazado 194907" d="M0,139.241c0,47.447,39.179,85.908,87.511,85.908s87.511-38.461,87.511-85.908S135.841,53.333,87.511,53.333,0,91.8,0,139.241" transform="translate(0 -53.333)" fill="#fecab2"/>
    </clipPath>
    <clipPath id="clip-path-2">
      <path id="Trazado_194907-2" data-name="Trazado 194907" d="M0,95.647A42.315,42.315,0,1,0,42.315,53.333,42.315,42.315,0,0,0,0,95.647" transform="translate(0 -53.333)" fill="#7f4fc7"/>
    </clipPath>
    <clipPath id="clip-path-3">
      <rect id="Rectángulo_46351" data-name="Rectángulo 46351" width="115.414" height="119.42" fill="none"/>
    </clipPath>
    <clipPath id="clip-path-4">
      <rect id="Rectángulo_408713" data-name="Rectángulo 408713" width="189.312" height="528.601" fill="none"/>
    </clipPath>
  </defs>
  <g id="conectada_01.375dd2a5" transform="translate(-2.443)">
    <g id="Grupo_155444" data-name="Grupo 155444" transform="translate(1.513 22.364)">
      <g id="Grupo_155253" data-name="Grupo 155253" transform="translate(5.211 181.396)">
        <path id="Trazado_196478" data-name="Trazado 196478" d="M319.689,149.033q-.327.339-.648.683a52.147,52.147,0,0,0-14.068,37.632l21.849-.761a30.63,30.63,0,1,1,61.222-2.141l21.849-.761a52.492,52.492,0,0,0-90.2-34.646" transform="translate(-304.936 -133.025)" fill="#ffe2b7"/>
        <path id="Trazado_196479" data-name="Trazado 196479" d="M304.88,231.066A52.492,52.492,0,1,0,409.8,227.4l-21.85.761a30.629,30.629,0,0,1-61.221,2.141Z" transform="translate(-304.844 -176.744)" fill="#7d3a1b"/>
      </g>
      <g id="Grupo_154313" data-name="Grupo 154313" transform="translate(73.533 321.892)">
        <g id="Grupo_152768" data-name="Grupo 152768" clip-path="url(#clip-path)">
          <path id="Trazado_194826" data-name="Trazado 194826" d="M4.605,55.593a2.284,2.284,0,0,0-2.3-2.26,2.262,2.262,0,1,0,0,4.522,2.284,2.284,0,0,0,2.3-2.263" transform="translate(0.001 -53.333)" fill="#fecab2"/>
          <path id="Trazado_194827" data-name="Trazado 194827" d="M12.879,55.589a2.3,2.3,0,1,0-2.3,2.263,2.3,2.3,0,0,0,2.3-2.263" transform="translate(13.028 -53.329)" fill="#fecab2"/>
          <path id="Trazado_194828" data-name="Trazado 194828" d="M21.152,55.589a2.3,2.3,0,1,0-2.3,2.263,2.3,2.3,0,0,0,2.3-2.263" transform="translate(26.059 -53.329)" fill="#fecab2"/>
          <path id="Trazado_194829" data-name="Trazado 194829" d="M29.425,55.589a2.3,2.3,0,1,0-2.3,2.263,2.3,2.3,0,0,0,2.3-2.263" transform="translate(39.088 -53.329)" fill="#fecab2"/>
          <path id="Trazado_194830" data-name="Trazado 194830" d="M37.7,55.589a2.3,2.3,0,1,0-2.3,2.263,2.3,2.3,0,0,0,2.3-2.263" transform="translate(52.116 -53.329)" fill="#fecab2"/>
          <path id="Trazado_194831" data-name="Trazado 194831" d="M45.966,55.589a2.3,2.3,0,1,0-2.3,2.263,2.3,2.3,0,0,0,2.3-2.263" transform="translate(65.146 -53.329)" fill="#fecab2"/>
          <path id="Trazado_194832" data-name="Trazado 194832" d="M54.242,55.589a2.3,2.3,0,1,0-2.3,2.263,2.3,2.3,0,0,0,2.3-2.263" transform="translate(78.175 -53.329)" fill="#fecab2"/>
          <path id="Trazado_194833" data-name="Trazado 194833" d="M62.515,55.589a2.3,2.3,0,1,0-2.3,2.263,2.3,2.3,0,0,0,2.3-2.263" transform="translate(91.204 -53.329)" fill="#fecab2"/>
          <path id="Trazado_194834" data-name="Trazado 194834" d="M70.788,55.589a2.3,2.3,0,1,0-2.3,2.262,2.3,2.3,0,0,0,2.3-2.262" transform="translate(104.234 -53.329)" fill="#fecab2"/>
          <path id="Trazado_194835" data-name="Trazado 194835" d="M4.609,63.866a2.284,2.284,0,0,0-2.3-2.26,2.26,2.26,0,0,0,0,4.52,2.284,2.284,0,0,0,2.3-2.26" transform="translate(-0.002 -40.693)" fill="#fecab2"/>
          <path id="Trazado_194836" data-name="Trazado 194836" d="M12.879,63.862a2.3,2.3,0,1,0-2.3,2.26,2.3,2.3,0,0,0,2.3-2.26" transform="translate(13.028 -40.689)" fill="#fecab2"/>
          <path id="Trazado_194837" data-name="Trazado 194837" d="M21.152,63.862a2.3,2.3,0,1,0-2.3,2.26,2.3,2.3,0,0,0,2.3-2.26" transform="translate(26.059 -40.689)" fill="#fecab2"/>
          <path id="Trazado_194838" data-name="Trazado 194838" d="M29.425,63.862a2.3,2.3,0,1,0-2.3,2.26,2.3,2.3,0,0,0,2.3-2.26" transform="translate(39.088 -40.689)" fill="#fecab2"/>
          <path id="Trazado_194839" data-name="Trazado 194839" d="M37.7,63.862a2.3,2.3,0,1,0-2.3,2.26,2.3,2.3,0,0,0,2.3-2.26" transform="translate(52.116 -40.689)" fill="#fecab2"/>
          <path id="Trazado_194840" data-name="Trazado 194840" d="M45.966,63.862a2.3,2.3,0,1,0-2.3,2.26,2.3,2.3,0,0,0,2.3-2.26" transform="translate(65.146 -40.689)" fill="#fecab2"/>
          <path id="Trazado_194841" data-name="Trazado 194841" d="M54.242,63.862a2.3,2.3,0,1,0-2.3,2.26,2.3,2.3,0,0,0,2.3-2.26" transform="translate(78.175 -40.689)" fill="#fecab2"/>
          <path id="Trazado_194842" data-name="Trazado 194842" d="M62.515,63.862a2.3,2.3,0,1,0-2.3,2.26,2.3,2.3,0,0,0,2.3-2.26" transform="translate(91.204 -40.689)" fill="#fecab2"/>
          <path id="Trazado_194843" data-name="Trazado 194843" d="M70.788,63.862a2.3,2.3,0,1,0-2.3,2.26,2.3,2.3,0,0,0,2.3-2.26" transform="translate(104.234 -40.689)" fill="#fecab2"/>
          <path id="Trazado_194844" data-name="Trazado 194844" d="M4.609,72.139a2.284,2.284,0,0,0-2.3-2.26,2.26,2.26,0,0,0,0,4.52,2.284,2.284,0,0,0,2.3-2.26" transform="translate(-0.002 -28.054)" fill="#fecab2"/>
          <path id="Trazado_194845" data-name="Trazado 194845" d="M12.879,72.135a2.3,2.3,0,1,0-2.3,2.26,2.3,2.3,0,0,0,2.3-2.26" transform="translate(13.028 -28.049)" fill="#fecab2"/>
          <path id="Trazado_194846" data-name="Trazado 194846" d="M21.152,72.135a2.3,2.3,0,1,0-2.3,2.26,2.3,2.3,0,0,0,2.3-2.26" transform="translate(26.059 -28.049)" fill="#fecab2"/>
          <path id="Trazado_194847" data-name="Trazado 194847" d="M29.425,72.135a2.3,2.3,0,1,0-2.3,2.26,2.3,2.3,0,0,0,2.3-2.26" transform="translate(39.088 -28.049)" fill="#fecab2"/>
          <path id="Trazado_194848" data-name="Trazado 194848" d="M37.7,72.135a2.3,2.3,0,1,0-2.3,2.26,2.3,2.3,0,0,0,2.3-2.26" transform="translate(52.116 -28.049)" fill="#fecab2"/>
          <path id="Trazado_194849" data-name="Trazado 194849" d="M45.966,72.135a2.3,2.3,0,1,0-2.3,2.26,2.3,2.3,0,0,0,2.3-2.26" transform="translate(65.146 -28.049)" fill="#fecab2"/>
          <path id="Trazado_194850" data-name="Trazado 194850" d="M54.242,72.135a2.3,2.3,0,1,0-2.3,2.26,2.3,2.3,0,0,0,2.3-2.26" transform="translate(78.175 -28.049)" fill="#fecab2"/>
          <path id="Trazado_194851" data-name="Trazado 194851" d="M62.515,72.135a2.3,2.3,0,1,0-2.3,2.26,2.3,2.3,0,0,0,2.3-2.26" transform="translate(91.204 -28.049)" fill="#fecab2"/>
          <path id="Trazado_194852" data-name="Trazado 194852" d="M70.788,72.135a2.3,2.3,0,1,0-2.3,2.26,2.3,2.3,0,0,0,2.3-2.26" transform="translate(104.234 -28.049)" fill="#fecab2"/>
          <path id="Trazado_194853" data-name="Trazado 194853" d="M4.609,80.411a2.284,2.284,0,0,0-2.3-2.26,2.26,2.26,0,0,0,0,4.52,2.284,2.284,0,0,0,2.3-2.26" transform="translate(-0.002 -15.416)" fill="#fecab2"/>
          <path id="Trazado_194854" data-name="Trazado 194854" d="M12.879,80.407a2.3,2.3,0,1,0-2.3,2.259,2.3,2.3,0,0,0,2.3-2.259" transform="translate(13.028 -15.411)" fill="#fecab2"/>
          <path id="Trazado_194855" data-name="Trazado 194855" d="M21.152,80.407a2.3,2.3,0,1,0-2.3,2.259,2.3,2.3,0,0,0,2.3-2.259" transform="translate(26.059 -15.411)" fill="#fecab2"/>
          <path id="Trazado_194856" data-name="Trazado 194856" d="M29.425,80.407a2.3,2.3,0,1,0-2.3,2.259,2.3,2.3,0,0,0,2.3-2.259" transform="translate(39.088 -15.411)" fill="#fecab2"/>
          <path id="Trazado_194857" data-name="Trazado 194857" d="M37.7,80.407a2.3,2.3,0,1,0-2.3,2.259,2.3,2.3,0,0,0,2.3-2.259" transform="translate(52.116 -15.411)" fill="#fecab2"/>
          <path id="Trazado_194858" data-name="Trazado 194858" d="M45.966,80.407a2.3,2.3,0,1,0-2.3,2.259,2.3,2.3,0,0,0,2.3-2.259" transform="translate(65.146 -15.411)" fill="#fecab2"/>
          <path id="Trazado_194859" data-name="Trazado 194859" d="M54.242,80.407a2.3,2.3,0,1,0-2.3,2.259,2.3,2.3,0,0,0,2.3-2.259" transform="translate(78.175 -15.411)" fill="#fecab2"/>
          <path id="Trazado_194860" data-name="Trazado 194860" d="M62.515,80.407a2.3,2.3,0,1,0-2.3,2.259,2.3,2.3,0,0,0,2.3-2.259" transform="translate(91.204 -15.411)" fill="#fecab2"/>
          <path id="Trazado_194861" data-name="Trazado 194861" d="M70.788,80.407a2.3,2.3,0,1,0-2.3,2.259,2.3,2.3,0,0,0,2.3-2.259" transform="translate(104.234 -15.411)" fill="#fecab2"/>
          <path id="Trazado_194862" data-name="Trazado 194862" d="M4.605,88.685a2.284,2.284,0,0,0-2.3-2.26,2.262,2.262,0,1,0,0,4.522,2.284,2.284,0,0,0,2.3-2.262" transform="translate(0.001 -2.776)" fill="#fecab2"/>
          <path id="Trazado_194863" data-name="Trazado 194863" d="M12.879,88.681a2.3,2.3,0,1,0-2.3,2.262,2.3,2.3,0,0,0,2.3-2.262" transform="translate(13.028 -2.771)" fill="#fecab2"/>
          <path id="Trazado_194864" data-name="Trazado 194864" d="M21.152,88.681a2.3,2.3,0,1,0-2.3,2.262,2.3,2.3,0,0,0,2.3-2.262" transform="translate(26.059 -2.771)" fill="#fecab2"/>
          <path id="Trazado_194865" data-name="Trazado 194865" d="M29.425,88.681a2.3,2.3,0,1,0-2.3,2.262,2.3,2.3,0,0,0,2.3-2.262" transform="translate(39.088 -2.771)" fill="#fecab2"/>
          <path id="Trazado_194866" data-name="Trazado 194866" d="M37.7,88.681a2.3,2.3,0,1,0-2.3,2.262,2.3,2.3,0,0,0,2.3-2.262" transform="translate(52.116 -2.771)" fill="#fecab2"/>
          <path id="Trazado_194867" data-name="Trazado 194867" d="M45.966,88.681a2.3,2.3,0,1,0-2.3,2.262,2.3,2.3,0,0,0,2.3-2.262" transform="translate(65.146 -2.771)" fill="#fecab2"/>
          <path id="Trazado_194868" data-name="Trazado 194868" d="M54.242,88.681a2.3,2.3,0,1,0-2.3,2.262,2.3,2.3,0,0,0,2.3-2.262" transform="translate(78.175 -2.771)" fill="#fecab2"/>
          <path id="Trazado_194869" data-name="Trazado 194869" d="M62.515,88.681a2.3,2.3,0,1,0-2.3,2.262,2.3,2.3,0,0,0,2.3-2.262" transform="translate(91.204 -2.771)" fill="#fecab2"/>
          <path id="Trazado_194870" data-name="Trazado 194870" d="M70.788,88.681a2.3,2.3,0,1,0-2.3,2.261,2.3,2.3,0,0,0,2.3-2.261" transform="translate(104.234 -2.771)" fill="#fecab2"/>
          <path id="Trazado_194871" data-name="Trazado 194871" d="M4.609,96.957a2.284,2.284,0,0,0-2.3-2.257,2.26,2.26,0,0,0,0,4.52,2.284,2.284,0,0,0,2.3-2.26" transform="translate(-0.002 9.864)" fill="#fecab2"/>
          <path id="Trazado_194872" data-name="Trazado 194872" d="M12.879,96.953a2.3,2.3,0,1,0-2.3,2.26,2.3,2.3,0,0,0,2.3-2.26" transform="translate(13.028 9.869)" fill="#fecab2"/>
          <path id="Trazado_194873" data-name="Trazado 194873" d="M21.152,96.953a2.3,2.3,0,1,0-2.3,2.26,2.3,2.3,0,0,0,2.3-2.26" transform="translate(26.059 9.869)" fill="#fecab2"/>
          <path id="Trazado_194874" data-name="Trazado 194874" d="M29.425,96.953a2.3,2.3,0,1,0-2.3,2.26,2.3,2.3,0,0,0,2.3-2.26" transform="translate(39.088 9.869)" fill="#fecab2"/>
          <path id="Trazado_194875" data-name="Trazado 194875" d="M37.7,96.953a2.3,2.3,0,1,0-2.3,2.26,2.3,2.3,0,0,0,2.3-2.26" transform="translate(52.116 9.869)" fill="#fecab2"/>
          <path id="Trazado_194876" data-name="Trazado 194876" d="M45.966,96.953a2.3,2.3,0,1,0-2.3,2.26,2.3,2.3,0,0,0,2.3-2.26" transform="translate(65.146 9.869)" fill="#fecab2"/>
          <path id="Trazado_194877" data-name="Trazado 194877" d="M54.242,96.953a2.3,2.3,0,1,0-2.3,2.26,2.3,2.3,0,0,0,2.3-2.26" transform="translate(78.175 9.869)" fill="#fecab2"/>
          <path id="Trazado_194878" data-name="Trazado 194878" d="M62.515,96.953a2.3,2.3,0,1,0-2.3,2.26,2.3,2.3,0,0,0,2.3-2.26" transform="translate(91.204 9.869)" fill="#fecab2"/>
          <path id="Trazado_194879" data-name="Trazado 194879" d="M70.788,96.953a2.3,2.3,0,1,0-2.3,2.26,2.3,2.3,0,0,0,2.3-2.26" transform="translate(104.234 9.869)" fill="#fecab2"/>
          <path id="Trazado_194880" data-name="Trazado 194880" d="M4.609,105.229a2.284,2.284,0,0,0-2.3-2.26,2.26,2.26,0,1,0,0,4.52,2.284,2.284,0,0,0,2.3-2.26" transform="translate(-0.002 22.503)" fill="#fecab2"/>
          <path id="Trazado_194881" data-name="Trazado 194881" d="M12.879,105.225a2.3,2.3,0,1,0-2.3,2.26,2.3,2.3,0,0,0,2.3-2.26" transform="translate(13.028 22.507)" fill="#fecab2"/>
          <path id="Trazado_194882" data-name="Trazado 194882" d="M21.152,105.225a2.3,2.3,0,1,0-2.3,2.26,2.3,2.3,0,0,0,2.3-2.26" transform="translate(26.059 22.507)" fill="#fecab2"/>
          <path id="Trazado_194883" data-name="Trazado 194883" d="M29.425,105.225a2.3,2.3,0,1,0-2.3,2.26,2.3,2.3,0,0,0,2.3-2.26" transform="translate(39.088 22.507)" fill="#fecab2"/>
          <path id="Trazado_194884" data-name="Trazado 194884" d="M37.7,105.225a2.3,2.3,0,1,0-2.3,2.26,2.3,2.3,0,0,0,2.3-2.26" transform="translate(52.116 22.507)" fill="#fecab2"/>
          <path id="Trazado_194885" data-name="Trazado 194885" d="M45.966,105.225a2.3,2.3,0,1,0-2.3,2.26,2.3,2.3,0,0,0,2.3-2.26" transform="translate(65.146 22.507)" fill="#fecab2"/>
          <path id="Trazado_194886" data-name="Trazado 194886" d="M54.242,105.225a2.3,2.3,0,1,0-2.3,2.26,2.3,2.3,0,0,0,2.3-2.26" transform="translate(78.175 22.507)" fill="#fecab2"/>
          <path id="Trazado_194887" data-name="Trazado 194887" d="M62.515,105.225a2.3,2.3,0,1,0-2.3,2.26,2.3,2.3,0,0,0,2.3-2.26" transform="translate(91.204 22.507)" fill="#fecab2"/>
          <path id="Trazado_194888" data-name="Trazado 194888" d="M70.788,105.225a2.3,2.3,0,1,0-2.3,2.26,2.3,2.3,0,0,0,2.3-2.26" transform="translate(104.234 22.507)" fill="#fecab2"/>
          <path id="Trazado_194889" data-name="Trazado 194889" d="M4.609,113.5a2.284,2.284,0,0,0-2.3-2.26,2.26,2.26,0,0,0,0,4.52,2.284,2.284,0,0,0,2.3-2.26" transform="translate(-0.002 35.142)" fill="#fecab2"/>
          <path id="Trazado_194890" data-name="Trazado 194890" d="M12.879,113.5a2.3,2.3,0,1,0-2.3,2.26,2.3,2.3,0,0,0,2.3-2.26" transform="translate(13.028 35.146)" fill="#fecab2"/>
          <path id="Trazado_194891" data-name="Trazado 194891" d="M21.152,113.5a2.3,2.3,0,1,0-2.3,2.26,2.3,2.3,0,0,0,2.3-2.26" transform="translate(26.059 35.146)" fill="#fecab2"/>
          <path id="Trazado_194892" data-name="Trazado 194892" d="M29.425,113.5a2.3,2.3,0,1,0-2.3,2.26,2.3,2.3,0,0,0,2.3-2.26" transform="translate(39.088 35.146)" fill="#fecab2"/>
          <path id="Trazado_194893" data-name="Trazado 194893" d="M37.7,113.5a2.3,2.3,0,1,0-2.3,2.26,2.3,2.3,0,0,0,2.3-2.26" transform="translate(52.116 35.146)" fill="#fecab2"/>
          <path id="Trazado_194894" data-name="Trazado 194894" d="M45.966,113.5a2.3,2.3,0,1,0-2.3,2.26,2.3,2.3,0,0,0,2.3-2.26" transform="translate(65.146 35.146)" fill="#fecab2"/>
          <path id="Trazado_194895" data-name="Trazado 194895" d="M54.242,113.5a2.3,2.3,0,1,0-2.3,2.26,2.3,2.3,0,0,0,2.3-2.26" transform="translate(78.175 35.146)" fill="#fecab2"/>
          <path id="Trazado_194896" data-name="Trazado 194896" d="M62.515,113.5a2.3,2.3,0,1,0-2.3,2.26,2.3,2.3,0,0,0,2.3-2.26" transform="translate(91.204 35.146)" fill="#fecab2"/>
          <path id="Trazado_194897" data-name="Trazado 194897" d="M70.788,113.5a2.3,2.3,0,1,0-2.3,2.26,2.3,2.3,0,0,0,2.3-2.26" transform="translate(104.234 35.146)" fill="#fecab2"/>
          <path id="Trazado_194898" data-name="Trazado 194898" d="M4.609,121.774a2.284,2.284,0,0,0-2.3-2.26,2.26,2.26,0,0,0,0,4.52,2.284,2.284,0,0,0,2.3-2.26" transform="translate(-0.002 47.78)" fill="#fecab2"/>
          <path id="Trazado_194899" data-name="Trazado 194899" d="M12.879,121.77a2.3,2.3,0,1,0-2.3,2.26,2.3,2.3,0,0,0,2.3-2.26" transform="translate(13.028 47.784)" fill="#fecab2"/>
          <path id="Trazado_194900" data-name="Trazado 194900" d="M21.152,121.77a2.3,2.3,0,1,0-2.3,2.26,2.3,2.3,0,0,0,2.3-2.26" transform="translate(26.059 47.784)" fill="#fecab2"/>
          <path id="Trazado_194901" data-name="Trazado 194901" d="M29.425,121.77a2.3,2.3,0,1,0-2.3,2.26,2.3,2.3,0,0,0,2.3-2.26" transform="translate(39.088 47.784)" fill="#fecab2"/>
          <path id="Trazado_194902" data-name="Trazado 194902" d="M37.7,121.77a2.3,2.3,0,1,0-2.3,2.26,2.3,2.3,0,0,0,2.3-2.26" transform="translate(52.116 47.784)" fill="#fecab2"/>
          <path id="Trazado_194903" data-name="Trazado 194903" d="M45.966,121.77a2.3,2.3,0,1,0-2.3,2.26,2.3,2.3,0,0,0,2.3-2.26" transform="translate(65.146 47.784)" fill="#fecab2"/>
          <path id="Trazado_194904" data-name="Trazado 194904" d="M54.242,121.77a2.3,2.3,0,1,0-2.3,2.26,2.3,2.3,0,0,0,2.3-2.26" transform="translate(78.175 47.784)" fill="#fecab2"/>
          <path id="Trazado_194905" data-name="Trazado 194905" d="M62.515,121.77a2.3,2.3,0,1,0-2.3,2.26,2.3,2.3,0,0,0,2.3-2.26" transform="translate(91.204 47.784)" fill="#fecab2"/>
          <path id="Trazado_194906" data-name="Trazado 194906" d="M70.788,121.77a2.3,2.3,0,1,0-2.3,2.26,2.3,2.3,0,0,0,2.3-2.26" transform="translate(104.234 47.784)" fill="#fecab2"/>
        </g>
      </g>
      <g id="Grupo_154805" data-name="Grupo 154805" transform="translate(148.638 0)">
        <g id="Grupo_152768-2" data-name="Grupo 152768" transform="translate(0)" clip-path="url(#clip-path-2)">
          <path id="Trazado_194826-2" data-name="Trazado 194826" d="M2.228,54.443a1.113,1.113,0,1,0-1.113,1.114,1.113,1.113,0,0,0,1.113-1.114" transform="translate(0 -53.333)" fill="#7f4fc7"/>
          <path id="Trazado_194827-2" data-name="Trazado 194827" d="M10.5,54.443a1.113,1.113,0,1,0-1.113,1.114A1.113,1.113,0,0,0,10.5,54.443" transform="translate(2.028 -53.333)" fill="#7f4fc7"/>
          <path id="Trazado_194828-2" data-name="Trazado 194828" d="M18.773,54.443a1.113,1.113,0,1,0-1.113,1.114,1.113,1.113,0,0,0,1.113-1.114" transform="translate(4.056 -53.333)" fill="#7f4fc7"/>
          <path id="Trazado_194829-2" data-name="Trazado 194829" d="M27.046,54.443a1.113,1.113,0,1,0-1.113,1.114,1.113,1.113,0,0,0,1.113-1.114" transform="translate(6.083 -53.333)" fill="#7f4fc7"/>
          <path id="Trazado_194830-2" data-name="Trazado 194830" d="M35.318,54.443A1.113,1.113,0,1,0,34.2,55.558a1.113,1.113,0,0,0,1.113-1.114" transform="translate(8.111 -53.333)" fill="#7f4fc7"/>
          <path id="Trazado_194831-2" data-name="Trazado 194831" d="M43.587,54.443a1.113,1.113,0,1,0-1.113,1.114,1.113,1.113,0,0,0,1.113-1.114" transform="translate(10.139 -53.333)" fill="#7f4fc7"/>
          <path id="Trazado_194832-2" data-name="Trazado 194832" d="M51.863,54.443a1.113,1.113,0,1,0-1.113,1.114,1.113,1.113,0,0,0,1.113-1.114" transform="translate(12.167 -53.333)" fill="#7f4fc7"/>
          <path id="Trazado_194833-2" data-name="Trazado 194833" d="M60.136,54.443a1.113,1.113,0,1,0-1.113,1.114,1.113,1.113,0,0,0,1.113-1.114" transform="translate(14.194 -53.333)" fill="#7f4fc7"/>
          <path id="Trazado_194834-2" data-name="Trazado 194834" d="M68.409,54.443A1.113,1.113,0,1,0,67.3,55.558a1.113,1.113,0,0,0,1.113-1.114" transform="translate(16.222 -53.333)" fill="#7f4fc7"/>
          <path id="Trazado_194835-2" data-name="Trazado 194835" d="M2.228,62.719a1.112,1.112,0,1,0-.326.788,1.113,1.113,0,0,0,.326-.788" transform="translate(0 -51.305)" fill="#7f4fc7"/>
          <path id="Trazado_194836-2" data-name="Trazado 194836" d="M10.5,62.719a1.112,1.112,0,1,0-.326.788,1.113,1.113,0,0,0,.326-.788" transform="translate(2.028 -51.305)" fill="#7f4fc7"/>
          <path id="Trazado_194837-2" data-name="Trazado 194837" d="M18.773,62.719a1.112,1.112,0,1,0-.326.788,1.113,1.113,0,0,0,.326-.788" transform="translate(4.056 -51.305)" fill="#7f4fc7"/>
          <path id="Trazado_194838-2" data-name="Trazado 194838" d="M27.046,62.719a1.112,1.112,0,1,0-.326.788,1.113,1.113,0,0,0,.326-.788" transform="translate(6.083 -51.305)" fill="#7f4fc7"/>
          <path id="Trazado_194839-2" data-name="Trazado 194839" d="M35.318,62.719a1.112,1.112,0,1,0-.326.788,1.113,1.113,0,0,0,.326-.788" transform="translate(8.111 -51.305)" fill="#7f4fc7"/>
          <path id="Trazado_194840-2" data-name="Trazado 194840" d="M43.587,62.719a1.112,1.112,0,1,0-.326.788,1.113,1.113,0,0,0,.326-.788" transform="translate(10.139 -51.305)" fill="#7f4fc7"/>
          <path id="Trazado_194841-2" data-name="Trazado 194841" d="M51.863,62.719a1.112,1.112,0,1,0-.326.788,1.113,1.113,0,0,0,.326-.788" transform="translate(12.167 -51.305)" fill="#7f4fc7"/>
          <path id="Trazado_194842-2" data-name="Trazado 194842" d="M60.136,62.719a1.113,1.113,0,1,0-1.113,1.113,1.113,1.113,0,0,0,1.113-1.113" transform="translate(14.194 -51.305)" fill="#7f4fc7"/>
          <path id="Trazado_194843-2" data-name="Trazado 194843" d="M68.409,62.719a1.112,1.112,0,1,0-.326.788,1.113,1.113,0,0,0,.326-.788" transform="translate(16.222 -51.305)" fill="#7f4fc7"/>
          <path id="Trazado_194844-2" data-name="Trazado 194844" d="M2.228,70.992a1.112,1.112,0,1,0-.326.788,1.113,1.113,0,0,0,.326-.788" transform="translate(0 -49.277)" fill="#7f4fc7"/>
          <path id="Trazado_194845-2" data-name="Trazado 194845" d="M10.5,70.992a1.112,1.112,0,1,0-.326.788,1.113,1.113,0,0,0,.326-.788" transform="translate(2.028 -49.277)" fill="#7f4fc7"/>
          <path id="Trazado_194846-2" data-name="Trazado 194846" d="M18.773,70.992a1.112,1.112,0,1,0-.326.788,1.113,1.113,0,0,0,.326-.788" transform="translate(4.056 -49.277)" fill="#7f4fc7"/>
          <path id="Trazado_194847-2" data-name="Trazado 194847" d="M27.046,70.992a1.112,1.112,0,1,0-.326.788,1.113,1.113,0,0,0,.326-.788" transform="translate(6.083 -49.277)" fill="#7f4fc7"/>
          <path id="Trazado_194848-2" data-name="Trazado 194848" d="M35.318,70.992a1.112,1.112,0,1,0-.326.788,1.113,1.113,0,0,0,.326-.788" transform="translate(8.111 -49.277)" fill="#7f4fc7"/>
          <path id="Trazado_194849-2" data-name="Trazado 194849" d="M43.587,70.992a1.112,1.112,0,1,0-.326.788,1.113,1.113,0,0,0,.326-.788" transform="translate(10.139 -49.277)" fill="#7f4fc7"/>
          <path id="Trazado_194850-2" data-name="Trazado 194850" d="M51.863,70.992a1.112,1.112,0,1,0-.326.788,1.113,1.113,0,0,0,.326-.788" transform="translate(12.167 -49.277)" fill="#7f4fc7"/>
          <path id="Trazado_194851-2" data-name="Trazado 194851" d="M60.136,70.992a1.113,1.113,0,1,0-1.113,1.113,1.113,1.113,0,0,0,1.113-1.113" transform="translate(14.194 -49.277)" fill="#7f4fc7"/>
          <path id="Trazado_194852-2" data-name="Trazado 194852" d="M68.409,70.992a1.112,1.112,0,1,0-.326.788,1.113,1.113,0,0,0,.326-.788" transform="translate(16.222 -49.277)" fill="#7f4fc7"/>
          <path id="Trazado_194853-2" data-name="Trazado 194853" d="M2.228,79.264a1.112,1.112,0,1,0-.326.788,1.113,1.113,0,0,0,.326-.788" transform="translate(0 -47.25)" fill="#7f4fc7"/>
          <path id="Trazado_194854-2" data-name="Trazado 194854" d="M10.5,79.264a1.112,1.112,0,1,0-.326.788,1.113,1.113,0,0,0,.326-.788" transform="translate(2.028 -47.25)" fill="#7f4fc7"/>
          <path id="Trazado_194855-2" data-name="Trazado 194855" d="M18.773,79.264a1.112,1.112,0,1,0-.326.788,1.113,1.113,0,0,0,.326-.788" transform="translate(4.056 -47.25)" fill="#7f4fc7"/>
          <path id="Trazado_194856-2" data-name="Trazado 194856" d="M27.046,79.264a1.112,1.112,0,1,0-.326.788,1.113,1.113,0,0,0,.326-.788" transform="translate(6.083 -47.25)" fill="#7f4fc7"/>
          <path id="Trazado_194857-2" data-name="Trazado 194857" d="M35.318,79.264a1.112,1.112,0,1,0-.326.788,1.113,1.113,0,0,0,.326-.788" transform="translate(8.111 -47.25)" fill="#7f4fc7"/>
          <path id="Trazado_194858-2" data-name="Trazado 194858" d="M43.587,79.264a1.112,1.112,0,1,0-.326.788,1.113,1.113,0,0,0,.326-.788" transform="translate(10.139 -47.25)" fill="#7f4fc7"/>
          <path id="Trazado_194859-2" data-name="Trazado 194859" d="M51.863,79.264a1.112,1.112,0,1,0-.326.788,1.113,1.113,0,0,0,.326-.788" transform="translate(12.167 -47.25)" fill="#7f4fc7"/>
          <path id="Trazado_194860-2" data-name="Trazado 194860" d="M60.136,79.264a1.113,1.113,0,1,0-1.113,1.113,1.113,1.113,0,0,0,1.113-1.113" transform="translate(14.194 -47.25)" fill="#7f4fc7"/>
          <path id="Trazado_194861-2" data-name="Trazado 194861" d="M68.409,79.264a1.112,1.112,0,1,0-.326.788,1.113,1.113,0,0,0,.326-.788" transform="translate(16.222 -47.25)" fill="#7f4fc7"/>
          <path id="Trazado_194862-2" data-name="Trazado 194862" d="M2.228,87.537a1.112,1.112,0,1,0-.325.788,1.113,1.113,0,0,0,.325-.788" transform="translate(0 -45.222)" fill="#7f4fc7"/>
          <path id="Trazado_194863-2" data-name="Trazado 194863" d="M10.5,87.537a1.112,1.112,0,1,0-.325.788,1.113,1.113,0,0,0,.325-.788" transform="translate(2.028 -45.222)" fill="#7f4fc7"/>
          <path id="Trazado_194864-2" data-name="Trazado 194864" d="M18.773,87.537a1.112,1.112,0,1,0-.325.788,1.113,1.113,0,0,0,.325-.788" transform="translate(4.056 -45.222)" fill="#7f4fc7"/>
          <path id="Trazado_194865-2" data-name="Trazado 194865" d="M27.046,87.537a1.112,1.112,0,1,0-.325.788,1.113,1.113,0,0,0,.325-.788" transform="translate(6.083 -45.222)" fill="#7f4fc7"/>
          <path id="Trazado_194866-2" data-name="Trazado 194866" d="M35.318,87.537a1.112,1.112,0,1,0-.325.788,1.113,1.113,0,0,0,.325-.788" transform="translate(8.111 -45.222)" fill="#7f4fc7"/>
          <path id="Trazado_194867-2" data-name="Trazado 194867" d="M43.587,87.537a1.112,1.112,0,1,0-.325.788,1.113,1.113,0,0,0,.325-.788" transform="translate(10.139 -45.222)" fill="#7f4fc7"/>
          <path id="Trazado_194868-2" data-name="Trazado 194868" d="M51.863,87.537a1.112,1.112,0,1,0-.325.788,1.113,1.113,0,0,0,.325-.788" transform="translate(12.167 -45.222)" fill="#7f4fc7"/>
          <path id="Trazado_194869-2" data-name="Trazado 194869" d="M60.136,87.537a1.113,1.113,0,1,0-1.113,1.114,1.113,1.113,0,0,0,1.113-1.114" transform="translate(14.194 -45.222)" fill="#7f4fc7"/>
          <path id="Trazado_194870-2" data-name="Trazado 194870" d="M68.409,87.537a1.112,1.112,0,1,0-.325.788,1.113,1.113,0,0,0,.325-.788" transform="translate(16.222 -45.222)" fill="#7f4fc7"/>
          <path id="Trazado_194871-2" data-name="Trazado 194871" d="M2.228,95.81A1.112,1.112,0,1,0,1.9,96.6a1.113,1.113,0,0,0,.326-.788" transform="translate(0 -43.194)" fill="#7f4fc7"/>
          <path id="Trazado_194872-2" data-name="Trazado 194872" d="M10.5,95.81a1.112,1.112,0,1,0-.326.788,1.113,1.113,0,0,0,.326-.788" transform="translate(2.028 -43.194)" fill="#7f4fc7"/>
          <path id="Trazado_194873-2" data-name="Trazado 194873" d="M18.773,95.81a1.112,1.112,0,1,0-.326.788,1.113,1.113,0,0,0,.326-.788" transform="translate(4.056 -43.194)" fill="#7f4fc7"/>
          <path id="Trazado_194874-2" data-name="Trazado 194874" d="M27.046,95.81a1.112,1.112,0,1,0-.326.788,1.113,1.113,0,0,0,.326-.788" transform="translate(6.083 -43.194)" fill="#7f4fc7"/>
          <path id="Trazado_194875-2" data-name="Trazado 194875" d="M35.318,95.81a1.112,1.112,0,1,0-.326.788,1.113,1.113,0,0,0,.326-.788" transform="translate(8.111 -43.194)" fill="#7f4fc7"/>
          <path id="Trazado_194876-2" data-name="Trazado 194876" d="M43.587,95.81a1.112,1.112,0,1,0-.326.788,1.113,1.113,0,0,0,.326-.788" transform="translate(10.139 -43.194)" fill="#7f4fc7"/>
          <path id="Trazado_194877-2" data-name="Trazado 194877" d="M51.863,95.81a1.112,1.112,0,1,0-.326.788,1.113,1.113,0,0,0,.326-.788" transform="translate(12.167 -43.194)" fill="#7f4fc7"/>
          <path id="Trazado_194878-2" data-name="Trazado 194878" d="M60.136,95.81a1.113,1.113,0,1,0-1.113,1.113,1.113,1.113,0,0,0,1.113-1.113" transform="translate(14.194 -43.194)" fill="#7f4fc7"/>
          <path id="Trazado_194879-2" data-name="Trazado 194879" d="M68.409,95.81a1.112,1.112,0,1,0-.326.788,1.113,1.113,0,0,0,.326-.788" transform="translate(16.222 -43.194)" fill="#7f4fc7"/>
          <path id="Trazado_194880-2" data-name="Trazado 194880" d="M2.228,104.082a1.112,1.112,0,1,0-.326.788,1.113,1.113,0,0,0,.326-.788" transform="translate(0 -41.166)" fill="#7f4fc7"/>
          <path id="Trazado_194881-2" data-name="Trazado 194881" d="M10.5,104.082a1.112,1.112,0,1,0-.326.788,1.113,1.113,0,0,0,.326-.788" transform="translate(2.028 -41.166)" fill="#7f4fc7"/>
          <path id="Trazado_194882-2" data-name="Trazado 194882" d="M18.773,104.082a1.112,1.112,0,1,0-.326.788,1.113,1.113,0,0,0,.326-.788" transform="translate(4.056 -41.166)" fill="#7f4fc7"/>
          <path id="Trazado_194883-2" data-name="Trazado 194883" d="M27.046,104.082a1.112,1.112,0,1,0-.326.788,1.113,1.113,0,0,0,.326-.788" transform="translate(6.083 -41.166)" fill="#7f4fc7"/>
          <path id="Trazado_194884-2" data-name="Trazado 194884" d="M35.318,104.082a1.112,1.112,0,1,0-.326.788,1.113,1.113,0,0,0,.326-.788" transform="translate(8.111 -41.166)" fill="#7f4fc7"/>
          <path id="Trazado_194885-2" data-name="Trazado 194885" d="M43.587,104.082a1.112,1.112,0,1,0-.326.788,1.113,1.113,0,0,0,.326-.788" transform="translate(10.139 -41.166)" fill="#7f4fc7"/>
          <path id="Trazado_194886-2" data-name="Trazado 194886" d="M51.863,104.082a1.112,1.112,0,1,0-.326.788,1.113,1.113,0,0,0,.326-.788" transform="translate(12.167 -41.166)" fill="#7f4fc7"/>
          <path id="Trazado_194887-2" data-name="Trazado 194887" d="M60.136,104.082a1.113,1.113,0,1,0-1.113,1.113,1.113,1.113,0,0,0,1.113-1.113" transform="translate(14.194 -41.166)" fill="#7f4fc7"/>
          <path id="Trazado_194888-2" data-name="Trazado 194888" d="M68.409,104.082a1.112,1.112,0,1,0-.326.788,1.113,1.113,0,0,0,.326-.788" transform="translate(16.222 -41.166)" fill="#7f4fc7"/>
          <path id="Trazado_194889-2" data-name="Trazado 194889" d="M2.228,112.355a1.112,1.112,0,1,0-.326.788,1.113,1.113,0,0,0,.326-.788" transform="translate(0 -39.138)" fill="#7f4fc7"/>
          <path id="Trazado_194890-2" data-name="Trazado 194890" d="M10.5,112.355a1.112,1.112,0,1,0-.326.788,1.113,1.113,0,0,0,.326-.788" transform="translate(2.028 -39.138)" fill="#7f4fc7"/>
          <path id="Trazado_194891-2" data-name="Trazado 194891" d="M18.773,112.355a1.112,1.112,0,1,0-.326.788,1.113,1.113,0,0,0,.326-.788" transform="translate(4.056 -39.138)" fill="#7f4fc7"/>
          <path id="Trazado_194892-2" data-name="Trazado 194892" d="M27.046,112.355a1.112,1.112,0,1,0-.326.788,1.113,1.113,0,0,0,.326-.788" transform="translate(6.083 -39.138)" fill="#7f4fc7"/>
          <path id="Trazado_194893-2" data-name="Trazado 194893" d="M35.318,112.355a1.112,1.112,0,1,0-.326.788,1.113,1.113,0,0,0,.326-.788" transform="translate(8.111 -39.138)" fill="#7f4fc7"/>
          <path id="Trazado_194894-2" data-name="Trazado 194894" d="M43.587,112.355a1.112,1.112,0,1,0-.326.788,1.113,1.113,0,0,0,.326-.788" transform="translate(10.139 -39.138)" fill="#7f4fc7"/>
          <path id="Trazado_194895-2" data-name="Trazado 194895" d="M51.863,112.355a1.112,1.112,0,1,0-.326.788,1.113,1.113,0,0,0,.326-.788" transform="translate(12.167 -39.138)" fill="#7f4fc7"/>
          <path id="Trazado_194896-2" data-name="Trazado 194896" d="M60.136,112.355a1.113,1.113,0,1,0-1.113,1.113,1.113,1.113,0,0,0,1.113-1.113" transform="translate(14.194 -39.138)" fill="#7f4fc7"/>
          <path id="Trazado_194897-2" data-name="Trazado 194897" d="M68.409,112.355a1.112,1.112,0,1,0-.326.788,1.113,1.113,0,0,0,.326-.788" transform="translate(16.222 -39.138)" fill="#7f4fc7"/>
          <path id="Trazado_194898-2" data-name="Trazado 194898" d="M2.228,120.627a1.112,1.112,0,1,0-.326.788,1.113,1.113,0,0,0,.326-.788" transform="translate(0 -37.111)" fill="#7f4fc7"/>
          <path id="Trazado_194899-2" data-name="Trazado 194899" d="M10.5,120.627a1.112,1.112,0,1,0-.326.788,1.113,1.113,0,0,0,.326-.788" transform="translate(2.028 -37.111)" fill="#7f4fc7"/>
          <path id="Trazado_194900-2" data-name="Trazado 194900" d="M18.773,120.627a1.112,1.112,0,1,0-.326.788,1.113,1.113,0,0,0,.326-.788" transform="translate(4.056 -37.111)" fill="#7f4fc7"/>
          <path id="Trazado_194901-2" data-name="Trazado 194901" d="M27.046,120.627a1.112,1.112,0,1,0-.326.788,1.113,1.113,0,0,0,.326-.788" transform="translate(6.083 -37.111)" fill="#7f4fc7"/>
          <path id="Trazado_194902-2" data-name="Trazado 194902" d="M35.318,120.627a1.112,1.112,0,1,0-.326.788,1.113,1.113,0,0,0,.326-.788" transform="translate(8.111 -37.111)" fill="#7f4fc7"/>
          <path id="Trazado_194903-2" data-name="Trazado 194903" d="M43.587,120.627a1.112,1.112,0,1,0-.326.788,1.113,1.113,0,0,0,.326-.788" transform="translate(10.139 -37.111)" fill="#7f4fc7"/>
          <path id="Trazado_194904-2" data-name="Trazado 194904" d="M51.863,120.627a1.112,1.112,0,1,0-.326.788,1.113,1.113,0,0,0,.326-.788" transform="translate(12.167 -37.111)" fill="#7f4fc7"/>
          <path id="Trazado_194905-2" data-name="Trazado 194905" d="M60.136,120.627a1.113,1.113,0,1,0-1.113,1.113,1.113,1.113,0,0,0,1.113-1.113" transform="translate(14.194 -37.111)" fill="#7f4fc7"/>
          <path id="Trazado_194906-2" data-name="Trazado 194906" d="M68.409,120.627a1.112,1.112,0,1,0-.326.788,1.113,1.113,0,0,0,.326-.788" transform="translate(16.222 -37.111)" fill="#7f4fc7"/>
        </g>
      </g>
      <g id="Grupo_155254" data-name="Grupo 155254" transform="translate(29.69 403.11)">
        <g id="Grupo_154318" data-name="Grupo 154318">
          <g id="Grupo_154315" data-name="Grupo 154315" transform="translate(32.747 9.551)">
            <path id="Trazado_195058" data-name="Trazado 195058" d="M14.017,225.789H54.543a1.523,1.523,0,0,0,0-3.038H14.017a1.523,1.523,0,1,0,0,3.038" transform="translate(-12.394 -222.747)" fill="#12263f"/>
            <path id="Trazado_195059" data-name="Trazado 195059" d="M83.974,225.789H94.206a1.523,1.523,0,0,0,0-3.038H83.974a1.523,1.523,0,1,0,0,3.038" transform="translate(-35.06 -222.747)" fill="#12263f"/>
            <path id="Trazado_195064" data-name="Trazado 195064" d="M112.811,232.612H84.346a1.067,1.067,0,1,0,0,2.134h28.469a1.067,1.067,0,1,0,0-2.134" transform="translate(-35.33 -225.943)" fill="#12263f"/>
            <path id="Trazado_195065" data-name="Trazado 195065" d="M73.867,232.612H66.681a1.067,1.067,0,1,0,0,2.134h7.186a1.067,1.067,0,1,0,0-2.134" transform="translate(-29.607 -225.943)" fill="#12263f"/>
          </g>
          <g id="Grupo_154316" data-name="Grupo 154316">
            <path id="Trazado_195062" data-name="Trazado 195062" d="M161.607,1.333H113.762c-.991,0-1.793.476-1.793,1.067s.8,1.068,1.793,1.068h47.845c.991,0,1.794-.476,1.794-1.068s-.8-1.067-1.794-1.067" transform="translate(-80.777 -1.333)" fill="#12263f"/>
            <path id="Trazado_195063" data-name="Trazado 195063" d="M115.873,1.333H97.1c-1.541,0-2.787.476-2.787,1.067S95.556,3.467,97.1,3.467h18.777c1.541,0,2.787-.476,2.787-1.068s-1.247-1.067-2.787-1.067" transform="translate(-94.309 -1.333)" fill="#12263f"/>
          </g>
        </g>
      </g>
      <g id="Grupo_154801" data-name="Grupo 154801" transform="translate(0.93 386.815)">
        <g id="Grupo_154721" data-name="Grupo 154721" clip-path="url(#clip-path-3)">
          <line id="Línea_1878" data-name="Línea 1878" x1="21.605" y2="101.839" transform="translate(61.14 29.463)" fill="none" stroke="#1e0b4a" stroke-linecap="round" stroke-linejoin="round" stroke-width="1.052"/>
          <path id="Trazado_196481" data-name="Trazado 196481" d="M238.009,274.732a8.116,8.116,0,1,1-8.116-8.116,8.116,8.116,0,0,1,8.116,8.116" transform="translate(-147.148 -245.268)" fill="#efb499"/>
          <path id="Trazado_196482" data-name="Trazado 196482" d="M250.969,334.8c-8.993,25.883-37.317,39.553-37.317,39.553s-13.743-28.29-4.749-54.171,37.317-39.552,37.317-39.552,13.743,28.289,4.749,54.17" transform="translate(-144.709 -243.048)" fill="#12263f"/>
          <path id="Trazado_196483" data-name="Trazado 196483" d="M294.477,324.773c4.17,39.347-24.428,74.631-24.428,74.631s-35.357-28.508-39.526-67.855,24.429-74.631,24.429-74.631,35.356,28.508,39.525,67.855" transform="translate(-213.683 -246.805)" fill="#efb499"/>
          <path id="Trazado_196484" data-name="Trazado 196484" d="M301.225,323.107A14.827,14.827,0,1,1,286.4,308.28a14.827,14.827,0,0,1,14.827,14.827" transform="translate(-268.053 -238.666)" fill="#12263f"/>
          <line id="Línea_1879" data-name="Línea 1879" x2="14.585" y2="137.648" transform="translate(41.781 14.95)" fill="none" stroke="#1e0b4a" stroke-linecap="round" stroke-linejoin="round" stroke-width="1.052"/>
          <line id="Línea_1880" data-name="Línea 1880" y1="17.929" x2="27.876" transform="translate(50.522 79.509)" fill="none" stroke="#1e0b4a" stroke-linecap="round" stroke-linejoin="round" stroke-width="1.052"/>
          <line id="Línea_1881" data-name="Línea 1881" x1="23.957" y1="12.551" transform="translate(22.858 49.911)" fill="none" stroke="#1e0b4a" stroke-linecap="round" stroke-linejoin="round" stroke-width="1.052"/>
          <line id="Línea_1882" data-name="Línea 1882" x2="26.068" y2="53.467" transform="translate(18.345 84.441)" fill="none" stroke="#1e0b4a" stroke-linecap="round" stroke-linejoin="round" stroke-width="1.052"/>
        </g>
      </g>
      <g id="Grupo_155255" data-name="Grupo 155255" transform="translate(0.931 23.371)">
        <g id="Grupo_154317" data-name="Grupo 154317">
          <g id="Grupo_154315-2" data-name="Grupo 154315" transform="translate(47.652 8.224)">
            <path id="Trazado_195058-2" data-name="Trazado 195058" d="M14.7,227.158H73.5a2.2,2.2,0,1,0,0-4.407H14.7a2.2,2.2,0,1,0,0,4.407" transform="translate(-12.5 -222.751)" fill="#7d3a1b"/>
            <path id="Trazado_195059-2" data-name="Trazado 195059" d="M84.665,227.158H99.51a2.2,2.2,0,1,0,0-4.407H84.665a2.2,2.2,0,1,0,0,4.407" transform="translate(-13.851 -222.751)" fill="#7d3a1b"/>
            <path id="Trazado_195064-2" data-name="Trazado 195064" d="M126.12,232.612h-41.3a1.548,1.548,0,1,0,0,3.1h41.3a1.548,1.548,0,0,0,0-3.1" transform="translate(-13.866 -222.941)" fill="#7d3a1b"/>
            <path id="Trazado_195065-2" data-name="Trazado 195065" d="M77.591,232.612H67.161a1.548,1.548,0,1,0,0,3.1H77.591a1.548,1.548,0,0,0,0-3.1" transform="translate(-13.525 -222.941)" fill="#7d3a1b"/>
          </g>
          <g id="Grupo_154316-2" data-name="Grupo 154316">
            <path id="Trazado_195062-2" data-name="Trazado 195062" d="M183.977,1.333h-69.41c-1.437,0-2.6.694-2.6,1.547s1.164,1.548,2.6,1.548h69.408c1.437,0,2.6-.694,2.6-1.548s-1.166-1.547-2.6-1.547" transform="translate(-66.719 -1.333)" fill="#7d3a1b"/>
            <path id="Trazado_195063-2" data-name="Trazado 195063" d="M125.591,1.333H98.352c-2.234,0-4.043.694-4.043,1.547s1.808,1.548,4.043,1.548h27.239c2.234,0,4.043-.694,4.043-1.548s-1.808-1.547-4.043-1.547" transform="translate(-94.309 -1.333)" fill="#7d3a1b"/>
          </g>
        </g>
      </g>
      <g id="Grupo_155256" data-name="Grupo 155256" transform="translate(200.263 155.617)">
        <rect id="Rectángulo_45220" data-name="Rectángulo 45220" width="106.857" height="25.376" transform="translate(48.291) rotate(90)" fill="#6a4d23"/>
        <rect id="Rectángulo_45221" data-name="Rectángulo 45221" width="3.287" height="3.287" transform="translate(0 23.055) rotate(-90)" fill="#ffe2b7"/>
        <rect id="Rectángulo_45222" data-name="Rectángulo 45222" width="3.287" height="3.287" transform="translate(0 30.038) rotate(-90)" fill="#ffe2b7"/>
        <rect id="Rectángulo_45223" data-name="Rectángulo 45223" width="3.287" height="3.287" transform="translate(0 37.022) rotate(-90)" fill="#ffe2b7"/>
        <rect id="Rectángulo_45224" data-name="Rectángulo 45224" width="3.286" height="3.287" transform="translate(0 44.005) rotate(-90)" fill="#ffe2b7"/>
        <rect id="Rectángulo_45225" data-name="Rectángulo 45225" width="3.287" height="3.287" transform="translate(0 50.989) rotate(-90)" fill="#ffe2b7"/>
        <rect id="Rectángulo_45226" data-name="Rectángulo 45226" width="3.286" height="3.287" transform="translate(0 57.972) rotate(-90)" fill="#ffe2b7"/>
        <rect id="Rectángulo_45227" data-name="Rectángulo 45227" width="3.287" height="3.287" transform="translate(0 64.955) rotate(-90)" fill="#ffe2b7"/>
        <rect id="Rectángulo_45228" data-name="Rectángulo 45228" width="3.286" height="3.287" transform="translate(0 71.939) rotate(-90)" fill="#ffe2b7"/>
        <rect id="Rectángulo_45229" data-name="Rectángulo 45229" width="3.287" height="3.287" transform="translate(0 78.923) rotate(-90)" fill="#ffe2b7"/>
        <rect id="Rectángulo_46135" data-name="Rectángulo 46135" width="3.287" height="3.287" transform="translate(0 99.873) rotate(-90)" fill="#ffe2b7"/>
        <rect id="Rectángulo_46159" data-name="Rectángulo 46159" width="3.287" height="3.287" transform="translate(0 120.824) rotate(-90)" fill="#ffe2b7"/>
        <rect id="Rectángulo_45230" data-name="Rectángulo 45230" width="3.287" height="3.287" transform="translate(0 85.906) rotate(-90)" fill="#ffe2b7"/>
        <rect id="Rectángulo_46125" data-name="Rectángulo 46125" width="3.287" height="3.287" transform="translate(0 106.857) rotate(-90)" fill="#ffe2b7"/>
        <rect id="Rectángulo_46160" data-name="Rectángulo 46160" width="3.287" height="3.287" transform="translate(0 127.807) rotate(-90)" fill="#ffe2b7"/>
        <rect id="Rectángulo_46168" data-name="Rectángulo 46168" width="3.287" height="3.287" transform="translate(0 141.773) rotate(-90)" fill="#ffe2b7"/>
        <rect id="Rectángulo_45231" data-name="Rectángulo 45231" width="3.287" height="3.287" transform="translate(0 92.889) rotate(-90)" fill="#ffe2b7"/>
        <rect id="Rectángulo_46123" data-name="Rectángulo 46123" width="3.287" height="3.287" transform="translate(0 113.84) rotate(-90)" fill="#ffe2b7"/>
        <rect id="Rectángulo_46161" data-name="Rectángulo 46161" width="3.287" height="3.287" transform="translate(0 134.79) rotate(-90)" fill="#ffe2b7"/>
        <rect id="Rectángulo_46162" data-name="Rectángulo 46162" width="3.287" height="3.287" transform="translate(0 148.757) rotate(-90)" fill="#ffe2b7"/>
        <rect id="Rectángulo_45232" data-name="Rectángulo 45232" width="3.287" height="3.287" transform="translate(6.984 23.055) rotate(-90)" fill="#ffe2b7"/>
        <rect id="Rectángulo_45233" data-name="Rectángulo 45233" width="3.287" height="3.287" transform="translate(6.984 30.038) rotate(-90)" fill="#ffe2b7"/>
        <rect id="Rectángulo_45234" data-name="Rectángulo 45234" width="3.287" height="3.287" transform="translate(6.984 37.022) rotate(-90)" fill="#ffe2b7"/>
        <rect id="Rectángulo_45235" data-name="Rectángulo 45235" width="3.286" height="3.287" transform="translate(6.984 44.005) rotate(-90)" fill="#ffe2b7"/>
        <rect id="Rectángulo_45236" data-name="Rectángulo 45236" width="3.287" height="3.287" transform="translate(6.984 50.989) rotate(-90)" fill="#ffe2b7"/>
        <rect id="Rectángulo_45237" data-name="Rectángulo 45237" width="3.286" height="3.287" transform="translate(6.984 57.972) rotate(-90)" fill="#ffe2b7"/>
        <rect id="Rectángulo_45238" data-name="Rectángulo 45238" width="3.287" height="3.287" transform="translate(6.984 64.955) rotate(-90)" fill="#ffe2b7"/>
        <rect id="Rectángulo_45239" data-name="Rectángulo 45239" width="3.286" height="3.287" transform="translate(6.984 71.939) rotate(-90)" fill="#ffe2b7"/>
        <rect id="Rectángulo_45240" data-name="Rectángulo 45240" width="3.287" height="3.287" transform="translate(6.984 78.923) rotate(-90)" fill="#ffe2b7"/>
        <rect id="Rectángulo_46136" data-name="Rectángulo 46136" width="3.287" height="3.287" transform="translate(6.984 99.873) rotate(-90)" fill="#ffe2b7"/>
        <rect id="Rectángulo_46156" data-name="Rectángulo 46156" width="3.287" height="3.287" transform="translate(6.984 120.824) rotate(-90)" fill="#ffe2b7"/>
        <rect id="Rectángulo_45241" data-name="Rectángulo 45241" width="3.287" height="3.287" transform="translate(6.984 85.906) rotate(-90)" fill="#ffe2b7"/>
        <rect id="Rectángulo_46126" data-name="Rectángulo 46126" width="3.287" height="3.287" transform="translate(6.984 106.857) rotate(-90)" fill="#ffe2b7"/>
        <rect id="Rectángulo_46157" data-name="Rectángulo 46157" width="3.287" height="3.287" transform="translate(6.984 127.807) rotate(-90)" fill="#ffe2b7"/>
        <rect id="Rectángulo_46169" data-name="Rectángulo 46169" width="3.287" height="3.287" transform="translate(6.984 141.773) rotate(-90)" fill="#ffe2b7"/>
        <rect id="Rectángulo_45242" data-name="Rectángulo 45242" width="3.287" height="3.287" transform="translate(6.984 92.889) rotate(-90)" fill="#ffe2b7"/>
        <rect id="Rectángulo_46124" data-name="Rectángulo 46124" width="3.287" height="3.287" transform="translate(6.984 113.84) rotate(-90)" fill="#ffe2b7"/>
        <rect id="Rectángulo_46158" data-name="Rectángulo 46158" width="3.287" height="3.287" transform="translate(6.984 134.79) rotate(-90)" fill="#ffe2b7"/>
        <rect id="Rectángulo_46163" data-name="Rectángulo 46163" width="3.287" height="3.287" transform="translate(6.984 148.757) rotate(-90)" fill="#ffe2b7"/>
        <rect id="Rectángulo_45243" data-name="Rectángulo 45243" width="3.287" height="3.287" transform="translate(12.856 23.055) rotate(-90)" fill="#ffe2b7"/>
        <rect id="Rectángulo_45244" data-name="Rectángulo 45244" width="3.287" height="3.287" transform="translate(12.856 30.038) rotate(-90)" fill="#ffe2b7"/>
        <rect id="Rectángulo_45245" data-name="Rectángulo 45245" width="3.287" height="3.287" transform="translate(12.856 37.022) rotate(-90)" fill="#ffe2b7"/>
        <rect id="Rectángulo_45246" data-name="Rectángulo 45246" width="3.286" height="3.287" transform="translate(12.856 44.005) rotate(-90)" fill="#ffe2b7"/>
        <rect id="Rectángulo_45247" data-name="Rectángulo 45247" width="3.287" height="3.287" transform="translate(12.856 50.989) rotate(-90)" fill="#ffe2b7"/>
        <rect id="Rectángulo_45248" data-name="Rectángulo 45248" width="3.286" height="3.287" transform="translate(12.856 57.972) rotate(-90)" fill="#ffe2b7"/>
        <rect id="Rectángulo_45249" data-name="Rectángulo 45249" width="3.287" height="3.287" transform="translate(12.856 64.955) rotate(-90)" fill="#ffe2b7"/>
        <rect id="Rectángulo_45250" data-name="Rectángulo 45250" width="3.286" height="3.287" transform="translate(12.856 71.939) rotate(-90)" fill="#ffe2b7"/>
        <rect id="Rectángulo_45251" data-name="Rectángulo 45251" width="3.287" height="3.287" transform="translate(12.856 78.923) rotate(-90)" fill="#ffe2b7"/>
        <rect id="Rectángulo_46137" data-name="Rectángulo 46137" width="3.287" height="3.287" transform="translate(12.856 99.873) rotate(-90)" fill="#ffe2b7"/>
        <rect id="Rectángulo_46146" data-name="Rectángulo 46146" width="3.287" height="3.287" transform="translate(12.856 120.824) rotate(-90)" fill="#ffe2b7"/>
        <rect id="Rectángulo_45252" data-name="Rectángulo 45252" width="3.287" height="3.287" transform="translate(12.856 85.906) rotate(-90)" fill="#ffe2b7"/>
        <rect id="Rectángulo_46127" data-name="Rectángulo 46127" width="3.287" height="3.287" transform="translate(12.856 106.857) rotate(-90)" fill="#ffe2b7"/>
        <rect id="Rectángulo_46147" data-name="Rectángulo 46147" width="3.287" height="3.287" transform="translate(12.856 127.807) rotate(-90)" fill="#ffe2b7"/>
        <rect id="Rectángulo_46170" data-name="Rectángulo 46170" width="3.287" height="3.287" transform="translate(12.856 141.773) rotate(-90)" fill="#ffe2b7"/>
        <rect id="Rectángulo_45253" data-name="Rectángulo 45253" width="3.287" height="3.287" transform="translate(12.856 92.889) rotate(-90)" fill="#ffe2b7"/>
        <rect id="Rectángulo_46128" data-name="Rectángulo 46128" width="3.287" height="3.287" transform="translate(12.856 113.84) rotate(-90)" fill="#ffe2b7"/>
        <rect id="Rectángulo_46148" data-name="Rectángulo 46148" width="3.287" height="3.287" transform="translate(12.856 134.79) rotate(-90)" fill="#ffe2b7"/>
        <rect id="Rectángulo_46164" data-name="Rectángulo 46164" width="3.287" height="3.287" transform="translate(12.856 148.757) rotate(-90)" fill="#ffe2b7"/>
        <rect id="Rectángulo_45221-2" data-name="Rectángulo 45221" width="3.287" height="3.287" transform="translate(18.747 23.055) rotate(-90)" fill="#ffe2b7"/>
        <rect id="Rectángulo_45222-2" data-name="Rectángulo 45222" width="3.287" height="3.287" transform="translate(18.747 30.038) rotate(-90)" fill="#ffe2b7"/>
        <rect id="Rectángulo_45223-2" data-name="Rectángulo 45223" width="3.287" height="3.287" transform="translate(18.747 37.022) rotate(-90)" fill="#ffe2b7"/>
        <rect id="Rectángulo_45224-2" data-name="Rectángulo 45224" width="3.286" height="3.287" transform="translate(18.747 44.005) rotate(-90)" fill="#ffe2b7"/>
        <rect id="Rectángulo_45225-2" data-name="Rectángulo 45225" width="3.287" height="3.287" transform="translate(18.747 50.989) rotate(-90)" fill="#ffe2b7"/>
        <rect id="Rectángulo_45226-2" data-name="Rectángulo 45226" width="3.286" height="3.287" transform="translate(18.747 57.972) rotate(-90)" fill="#ffe2b7"/>
        <rect id="Rectángulo_45227-2" data-name="Rectángulo 45227" width="3.287" height="3.287" transform="translate(18.747 64.955) rotate(-90)" fill="#ffe2b7"/>
        <rect id="Rectángulo_45228-2" data-name="Rectángulo 45228" width="3.286" height="3.287" transform="translate(18.747 71.939) rotate(-90)" fill="#ffe2b7"/>
        <rect id="Rectángulo_45229-2" data-name="Rectángulo 45229" width="3.287" height="3.287" transform="translate(18.747 78.923) rotate(-90)" fill="#ffe2b7"/>
        <rect id="Rectángulo_46138" data-name="Rectángulo 46138" width="3.287" height="3.287" transform="translate(18.747 99.873) rotate(-90)" fill="#ffe2b7"/>
        <rect id="Rectángulo_46149" data-name="Rectángulo 46149" width="3.287" height="3.287" transform="translate(18.747 120.824) rotate(-90)" fill="#ffe2b7"/>
        <rect id="Rectángulo_45230-2" data-name="Rectángulo 45230" width="3.287" height="3.287" transform="translate(18.747 85.906) rotate(-90)" fill="#ffe2b7"/>
        <rect id="Rectángulo_46129" data-name="Rectángulo 46129" width="3.287" height="3.287" transform="translate(18.747 106.857) rotate(-90)" fill="#ffe2b7"/>
        <rect id="Rectángulo_46150" data-name="Rectángulo 46150" width="3.287" height="3.287" transform="translate(18.747 127.807) rotate(-90)" fill="#ffe2b7"/>
        <rect id="Rectángulo_46171" data-name="Rectángulo 46171" width="3.287" height="3.287" transform="translate(18.747 141.773) rotate(-90)" fill="#ffe2b7"/>
        <rect id="Rectángulo_45231-2" data-name="Rectángulo 45231" width="3.287" height="3.287" transform="translate(18.747 92.889) rotate(-90)" fill="#ffe2b7"/>
        <rect id="Rectángulo_46130" data-name="Rectángulo 46130" width="3.287" height="3.287" transform="translate(18.747 113.84) rotate(-90)" fill="#ffe2b7"/>
        <rect id="Rectángulo_46151" data-name="Rectángulo 46151" width="3.287" height="3.287" transform="translate(18.747 134.79) rotate(-90)" fill="#ffe2b7"/>
        <rect id="Rectángulo_46165" data-name="Rectángulo 46165" width="3.287" height="3.287" transform="translate(18.747 148.757) rotate(-90)" fill="#ffe2b7"/>
        <rect id="Rectángulo_45232-2" data-name="Rectángulo 45232" width="3.287" height="3.287" transform="translate(25.175 23.055) rotate(-90)" fill="#ffe2b7"/>
        <rect id="Rectángulo_45233-2" data-name="Rectángulo 45233" width="3.287" height="3.287" transform="translate(25.175 30.038) rotate(-90)" fill="#ffe2b7"/>
        <rect id="Rectángulo_45234-2" data-name="Rectángulo 45234" width="3.287" height="3.287" transform="translate(25.175 37.022) rotate(-90)" fill="#ffe2b7"/>
        <rect id="Rectángulo_45235-2" data-name="Rectángulo 45235" width="3.286" height="3.287" transform="translate(25.175 44.005) rotate(-90)" fill="#ffe2b7"/>
        <rect id="Rectángulo_45236-2" data-name="Rectángulo 45236" width="3.287" height="3.287" transform="translate(25.175 50.989) rotate(-90)" fill="#ffe2b7"/>
        <rect id="Rectángulo_45237-2" data-name="Rectángulo 45237" width="3.286" height="3.287" transform="translate(25.175 57.972) rotate(-90)" fill="#ffe2b7"/>
        <rect id="Rectángulo_45238-2" data-name="Rectángulo 45238" width="3.287" height="3.287" transform="translate(25.175 64.955) rotate(-90)" fill="#ffe2b7"/>
        <rect id="Rectángulo_45239-2" data-name="Rectángulo 45239" width="3.286" height="3.287" transform="translate(25.175 71.939) rotate(-90)" fill="#ffe2b7"/>
        <rect id="Rectángulo_45240-2" data-name="Rectángulo 45240" width="3.287" height="3.287" transform="translate(25.175 78.923) rotate(-90)" fill="#ffe2b7"/>
        <rect id="Rectángulo_46139" data-name="Rectángulo 46139" width="3.287" height="3.287" transform="translate(25.175 99.873) rotate(-90)" fill="#ffe2b7"/>
        <rect id="Rectángulo_46152" data-name="Rectángulo 46152" width="3.287" height="3.287" transform="translate(25.175 120.824) rotate(-90)" fill="#ffe2b7"/>
        <rect id="Rectángulo_45241-2" data-name="Rectángulo 45241" width="3.287" height="3.287" transform="translate(25.175 85.906) rotate(-90)" fill="#ffe2b7"/>
        <rect id="Rectángulo_46131" data-name="Rectángulo 46131" width="3.287" height="3.287" transform="translate(25.175 106.857) rotate(-90)" fill="#ffe2b7"/>
        <rect id="Rectángulo_46153" data-name="Rectángulo 46153" width="3.287" height="3.287" transform="translate(25.175 127.807) rotate(-90)" fill="#ffe2b7"/>
        <rect id="Rectángulo_46172" data-name="Rectángulo 46172" width="3.287" height="3.287" transform="translate(25.175 141.773) rotate(-90)" fill="#ffe2b7"/>
        <rect id="Rectángulo_45242-2" data-name="Rectángulo 45242" width="3.287" height="3.287" transform="translate(25.175 92.889) rotate(-90)" fill="#ffe2b7"/>
        <rect id="Rectángulo_46132" data-name="Rectángulo 46132" width="3.287" height="3.287" transform="translate(25.175 113.84) rotate(-90)" fill="#ffe2b7"/>
        <rect id="Rectángulo_46154" data-name="Rectángulo 46154" width="3.287" height="3.287" transform="translate(25.175 134.79) rotate(-90)" fill="#ffe2b7"/>
        <rect id="Rectángulo_46166" data-name="Rectángulo 46166" width="3.287" height="3.287" transform="translate(25.175 148.757) rotate(-90)" fill="#ffe2b7"/>
        <rect id="Rectángulo_45243-2" data-name="Rectángulo 45243" width="3.287" height="3.287" transform="translate(31.603 23.055) rotate(-90)" fill="#ffe2b7"/>
        <rect id="Rectángulo_45244-2" data-name="Rectángulo 45244" width="3.287" height="3.287" transform="translate(31.603 30.038) rotate(-90)" fill="#ffe2b7"/>
        <rect id="Rectángulo_45245-2" data-name="Rectángulo 45245" width="3.287" height="3.287" transform="translate(31.603 37.022) rotate(-90)" fill="#ffe2b7"/>
        <rect id="Rectángulo_45246-2" data-name="Rectángulo 45246" width="3.286" height="3.287" transform="translate(31.603 44.005) rotate(-90)" fill="#ffe2b7"/>
        <rect id="Rectángulo_45247-2" data-name="Rectángulo 45247" width="3.287" height="3.287" transform="translate(31.603 50.989) rotate(-90)" fill="#ffe2b7"/>
        <rect id="Rectángulo_45248-2" data-name="Rectángulo 45248" width="3.286" height="3.287" transform="translate(31.603 57.972) rotate(-90)" fill="#ffe2b7"/>
        <rect id="Rectángulo_45249-2" data-name="Rectángulo 45249" width="3.287" height="3.287" transform="translate(31.603 64.955) rotate(-90)" fill="#ffe2b7"/>
        <rect id="Rectángulo_45250-2" data-name="Rectángulo 45250" width="3.286" height="3.287" transform="translate(31.603 71.939) rotate(-90)" fill="#ffe2b7"/>
        <rect id="Rectángulo_45251-2" data-name="Rectángulo 45251" width="3.287" height="3.287" transform="translate(31.603 78.923) rotate(-90)" fill="#ffe2b7"/>
        <rect id="Rectángulo_46140" data-name="Rectángulo 46140" width="3.287" height="3.287" transform="translate(31.603 99.873) rotate(-90)" fill="#ffe2b7"/>
        <rect id="Rectángulo_46144" data-name="Rectángulo 46144" width="3.287" height="3.287" transform="translate(31.603 120.824) rotate(-90)" fill="#ffe2b7"/>
        <rect id="Rectángulo_45252-2" data-name="Rectángulo 45252" width="3.287" height="3.287" transform="translate(31.603 85.906) rotate(-90)" fill="#ffe2b7"/>
        <rect id="Rectángulo_46133" data-name="Rectángulo 46133" width="3.287" height="3.287" transform="translate(31.603 106.857) rotate(-90)" fill="#ffe2b7"/>
        <rect id="Rectángulo_46145" data-name="Rectángulo 46145" width="3.287" height="3.287" transform="translate(31.603 127.807) rotate(-90)" fill="#ffe2b7"/>
        <rect id="Rectángulo_46173" data-name="Rectángulo 46173" width="3.287" height="3.287" transform="translate(31.603 141.773) rotate(-90)" fill="#ffe2b7"/>
        <rect id="Rectángulo_45253-2" data-name="Rectángulo 45253" width="3.287" height="3.287" transform="translate(31.603 92.889) rotate(-90)" fill="#ffe2b7"/>
        <rect id="Rectángulo_46134" data-name="Rectángulo 46134" width="3.287" height="3.287" transform="translate(31.603 113.84) rotate(-90)" fill="#ffe2b7"/>
        <rect id="Rectángulo_46155" data-name="Rectángulo 46155" width="3.287" height="3.287" transform="translate(31.603 134.79) rotate(-90)" fill="#ffe2b7"/>
        <rect id="Rectángulo_46167" data-name="Rectángulo 46167" width="3.287" height="3.287" transform="translate(31.603 148.757) rotate(-90)" fill="#ffe2b7"/>
      </g>
    </g>
    <g id="Grupo_1117823" data-name="Grupo 1117823" transform="translate(31.795)">
      <g id="Grupo_1117823-2" data-name="Grupo 1117823" clip-path="url(#clip-path-4)">
        <path id="Trazado_903910" data-name="Trazado 903910" d="M200.535,60.947c-4.82,8.819-4.293,12.89-.459,21.977s.965,13.64-3.479,21.339-7.494,13.413-4.626,21.3,7.394,10.476,3.869,11.013a24.341,24.341,0,0,1-24.022-14.03c-6.855-13.957-23.128-16.756-22.814-39.093s-6.051-19.93-3.225-32.63-7.728-25.219-5.242-34.2,12.153-10.738,19.7-9.558c11.534,1.8,46.625,42.3,40.3,53.881" transform="translate(-31.029 -1.492)" fill="#592b2d"/>
        <path id="Trazado_903911" data-name="Trazado 903911" d="M124.895,191.428c1.9,9.022,36.808,16.935,48.186,17.227s30.94-1.46,35.9-9.927.584-67-5.548-83.722-38.012-19.811-49.883-17.462-32.528,75.49-28.659,93.885" transform="translate(-27.545 -21.442)" fill="#e84d4d"/>
        <path id="Trazado_903912" data-name="Trazado 903912" d="M217.608,184.591a.376.376,0,0,1-.087-.01.389.389,0,0,1-.293-.466c3.059-13.4,1.826-34.794,1.009-48.954-.209-3.639-.391-6.782-.48-9.342-.4-11.465-2.348-17.686-6.325-20.168a.39.39,0,0,1,.413-.661c4.221,2.635,6.284,9.051,6.691,20.8.089,2.55.27,5.689.48,9.324.818,14.2,2.056,35.668-1.028,49.171a.389.389,0,0,1-.379.3" transform="translate(-46.769 -23.231)" fill="#fa7a7a"/>
        <path id="Trazado_903913" data-name="Trazado 903913" d="M55.325,557.147c.179,5.1,5,49.7,3.163,73.292-.306,3.924-9.032,7.705-15.122,10.449s-7.7,6.959,4.007,7.96,12.93-1.661,21.125-.895c10.3.962,7.721-6.656,7.189-16.587-1.335-24.913,6.489-64.336,6.378-73.754s-27.213-13.928-26.74-.465" transform="translate(-8.56 -121.477)" fill="#ffa794"/>
        <path id="Trazado_903914" data-name="Trazado 903914" d="M37.579,674.576c-.218.6.253,1.366,3.673,2.3a48.479,48.479,0,0,0,14.526.9c5.085-.418,18.111.11,18.787-.245s.977-1.99.977-1.99Z" transform="translate(-8.31 -149.345)" fill="#de9b7f"/>
        <path id="Trazado_903915" data-name="Trazado 903915" d="M38.211,671.471c2.763,2.038,10.076,2.461,20.028,1.648s15.687.452,17.5-1.813,2.024-8.062.141-8.694-18.763,11.358-15.406,1.227c1.258-3.8-2.85-8.743-5.271-6.954-9.279,6.858-22.535,10.494-16.989,14.586" transform="translate(-8.169 -145.345)" fill="#ffd8b3"/>
        <path id="Trazado_903916" data-name="Trazado 903916" d="M88.648,242.592C64.93,304.15,58.76,355.846,54.4,390.324c-2.731,21.585,2.548,82.976,2.548,126.992,0,6.57,33.286,7.226,35.913,0,1.6-4.4,3.723-9.417,2.409-22.336-.679-6.681,6.766-14.365,4.869-22.8-4.869-21.655,8.27-14.866,3.305-64.8-1.261-12.686,43.84-59.392,42.7-109.252-1.063-46.292-46.121-85.051-57.491-55.541" transform="translate(-11.87 -51.429)" fill="#76bae3"/>
        <path id="Trazado_903917" data-name="Trazado 903917" d="M184.193,278.525c-4.283-15.87-15.863-39.964-16.853-49.453-.7-6.681-43.988-3.05-46.616,3.3s-10.344,38.508-5.046,55.768c13.577,44.234,76.818,21.147,68.515-9.617" transform="translate(-25.208 -49.925)" fill="#76bae3"/>
        <path id="Trazado_903918" data-name="Trazado 903918" d="M186.814,556.969c1.486,4.883,17.62,46.742,21.909,70.013.713,3.871-6.746,9.768-11.926,13.987s-5.651,8.706,5.919,6.661,12.068-4.93,20.185-6.3c10.2-1.72,5.749-8.417,2.681-17.877-7.7-23.732-10.278-63.84-12.808-72.914s-29.88-6.459-25.96,6.429" transform="translate(-41.274 -120.696)" fill="#ffa794"/>
        <path id="Trazado_903919" data-name="Trazado 903919" d="M194.8,674.749c-.058.633.6,1.256,4.142,1.28a48.494,48.494,0,0,0,14.268-2.868c4.806-1.712,17.53-4.552,18.092-5.069s.431-2.174.431-2.174Z" transform="translate(-43.126 -147.428)" fill="#de9b7f"/>
        <path id="Trazado_903920" data-name="Trazado 903920" d="M195.531,672.658c3.194,1.259,10.37-.214,19.777-3.559s15.276-3.6,16.442-6.253-.118-8.312-2.1-8.438-15.21,15.8-14.571,5.148c.239-3.991-5-7.715-6.883-5.364-7.2,9.015-19.077,15.939-12.666,18.465" transform="translate(-42.882 -144.67)" fill="#ffd8b3"/>
        <path id="Trazado_903921" data-name="Trazado 903921" d="M124.947,260.783c-14.47,69.788,9.2,129.082,15.053,150.75,5.673,21.005,23.558,83.713,32.983,107.246,3.032,7.57,37.358,1.651,37.351-5.138-.008-9.074.393-16.643-6.132-25.4-3.733-5.01,2.677-14-.359-20.915-7.06-16.093.62-29.983-14.766-60.9-8.234-16.546,15.121-74.881-2.324-121.6-17.46-46.762-56.343-50.392-61.807-24.04" transform="translate(-26.641 -54.106)" fill="#76bae3"/>
        <path id="Trazado_903922" data-name="Trazado 903922" d="M172.86,523.718a.389.389,0,0,1-.361-.245c-9.416-23.509-27.482-86.869-33-107.288-.765-2.833-1.841-6.33-3.088-10.38-8.585-27.891-24.564-79.808-11.97-140.551a.389.389,0,1,1,.762.158c-12.554,60.547,3.388,112.339,11.952,140.164,1.248,4.057,2.326,7.56,3.1,10.405,5.512,20.408,23.565,83.725,32.968,107.2a.389.389,0,0,1-.216.506.379.379,0,0,1-.145.028" transform="translate(-26.519 -58.656)" fill="#9ad4f7"/>
        <path id="Trazado_903923" data-name="Trazado 903923" d="M118.916,303.677a.388.388,0,0,1-.327-.178c-8.975-13.809-3.29-43.678-3.044-44.942a.389.389,0,1,1,.764.149c-.059.307-5.87,30.825,2.934,44.37a.389.389,0,0,1-.326.6" transform="translate(-25.138 -57.173)" fill="#9ad4f7"/>
        <path id="Trazado_903924" data-name="Trazado 903924" d="M209.905,522.191a.389.389,0,0,1-.388-.367c-.289-5.172-1.672-11.465-3.424-19.433-1.806-8.215-3.854-17.526-5.4-28.712-1.688-12.18-4.525-22.935-7.528-34.323-2.512-9.524-5.109-19.373-7.438-31.309-2.415-12.382-2.414-35.466-2.413-59.9,0-28.252,0-57.465-3.695-73.262a.389.389,0,0,1,.758-.178c3.719,15.885,3.716,45.145,3.715,73.44,0,24.4,0,47.447,2.4,59.755,2.324,11.913,4.918,21.749,7.426,31.26,3.01,11.411,5.853,22.188,7.547,34.414,1.547,11.156,3.591,20.451,5.394,28.652,1.759,8,3.149,14.323,3.441,19.556a.389.389,0,0,1-.368.41h-.022" transform="translate(-39.763 -60.75)" fill="#9ad4f7"/>
        <path id="Trazado_903925" data-name="Trazado 903925" d="M178.978,304.03A10.7,10.7,0,0,1,171.44,301c-7.554-7.106-7.875-24.078-7.885-24.8a.389.389,0,0,1,.384-.395.382.382,0,0,1,.395.384c0,.173.328,17.364,7.64,24.242a9.973,9.973,0,0,0,7.549,2.808.389.389,0,0,1,.037.778c-.2.009-.389.014-.582.014" transform="translate(-36.21 -61.061)" fill="#9ad4f7"/>
        <path id="Trazado_903926" data-name="Trazado 903926" d="M95.04,252.823c16.32,18.847,62.849,32.234,80.015,18.518.671-.723,3.648,4.327,2.013,5.671s-16.418,12-50.066,1.927c-21.916-6.561-33.932-17.5-34.649-18.712s1.971-8.228,2.686-7.4" transform="translate(-20.42 -55.958)" fill="#cf3434"/>
        <path id="Trazado_903927" data-name="Trazado 903927" d="M68.559,157.471c-5.4-19.362-22.946-31.337-27.6-44.155-2.517-6.925-10.241-2.572-8.235,2.167,3.224,7.614,6.711,30.771,20.892,51.052,6.687,9.564,18.491,3.651,14.947-9.064" transform="translate(-7.171 -24.289)" fill="#ffa794"/>
        <path id="Trazado_903928" data-name="Trazado 903928" d="M116.748,106.472c-15.37,8.67-40.412,34.6-50.972,46.5-8.041,9.054-4.7,20.931,7.967,15.4,15.087-6.593,42.123-22.541,57.211-39.466,11.878-13.324,6.688-34.211-14.206-22.425" transform="translate(-13.598 -22.802)" fill="#ffa794"/>
        <path id="Trazado_903929" data-name="Trazado 903929" d="M39.676,111.184c-1.882-4.132.673-7.454-3.679-10.512a13.746,13.746,0,0,1-2.63-2.373c-1.2-1.458-3.542.232-4.729,1.778s-3.656,3.256-2.807,4.989c.706,1.443,4.736,6.2,5.954,8.8,1.1,2.338,9.9,1.727,7.891-2.678" transform="translate(-5.68 -21.639)" fill="#ffa794"/>
        <path id="Trazado_903930" data-name="Trazado 903930" d="M41.322,93.156a34.6,34.6,0,0,0-.2,4.947c.151,1.661-.023,5.264-.069,8.377-.036,2.406-5.334,1.294-5.547-3.282-.171-3.662,2.447-5.016,2.455-5.861a9.239,9.239,0,0,1,.826-4.153c.761-1.352,2.615-1.583,2.53-.028" transform="translate(-7.86 -20.385)" fill="#ffa794"/>
        <path id="Trazado_903931" data-name="Trazado 903931" d="M31.526,98.489a16.508,16.508,0,0,1-2.751-5.275,22.5,22.5,0,0,1,0-4.585,1.191,1.191,0,0,1,2.276-.156c.6,1.113.322,3.221.557,3.8a21.98,21.98,0,0,0,2.872,4.384c1.131,1.436-1.905,3-2.954,1.835" transform="translate(-6.344 -19.416)" fill="#ffa794"/>
        <path id="Trazado_903932" data-name="Trazado 903932" d="M28.059,100.4a12.069,12.069,0,0,1-1.309-4.485c-.053-1.542,1.147-2.566,2.042-1.824.624.516,1.659,3.763,2.246,5.324s-2.621,1.788-2.98.985" transform="translate(-5.922 -20.777)" fill="#ffa794"/>
        <path id="Trazado_903933" data-name="Trazado 903933" d="M27.059,103.194a11.377,11.377,0,0,1-2.084-4.11c-.318-1.535.966-3.195,2.017-1.937.483.578,1.753,3.2,2.529,4.679s-1.808,2.1-2.461,1.369" transform="translate(-5.518 -21.409)" fill="#ffa794"/>
        <path id="Trazado_903934" data-name="Trazado 903934" d="M25.536,105.628a7.386,7.386,0,0,1-1.352-3.793c-.033-1.072.916-2.194,1.445-1.658a29.77,29.77,0,0,1,2.55,4.25c.776,1.475-2.191,1.956-2.643,1.2" transform="translate(-5.354 -22.147)" fill="#ffa794"/>
        <path id="Trazado_903935" data-name="Trazado 903935" d="M92.552,128.9c-2.154,2.737,1.356,9.93,7.441,13.748s7.6,10.858,11.993,10.584,29.948-21.345,34.052-33.616-.139-23.143-16.058-17.61c-13.129,4.564-35.841,24.877-37.428,26.894" transform="translate(-20.349 -22.256)" fill="#e2f5f1"/>
        <path id="Trazado_903936" data-name="Trazado 903936" d="M47.46,82.979H44.337a1.629,1.629,0,0,1-1.487-1.741,3.747,3.747,0,0,0-3.42-4H32.8A2.023,2.023,0,0,0,30.952,79.4v2.2a2.062,2.062,0,0,1-1.02,1.816,4.508,4.508,0,0,0-2.153,3.98v9.284c0,2.435,1.687,4.41,3.768,4.41H47.46c2.081,0,3.768-1.975,3.768-4.41V87.389c0-2.435-1.686-4.41-3.768-4.41" transform="translate(-6.15 -17.099)" fill="#252838"/>
        <path id="Trazado_903937" data-name="Trazado 903937" d="M39.907,82.979H36.784A1.629,1.629,0,0,1,35.3,81.238a3.747,3.747,0,0,0-3.42-4H25.246A2.023,2.023,0,0,0,23.4,79.4v2.2a2.062,2.062,0,0,1-1.02,1.816,4.508,4.508,0,0,0-2.153,3.98v9.284c0,2.435,1.687,4.41,3.768,4.41H39.907c2.08,0,3.768-1.975,3.768-4.41V87.389c0-2.435-1.687-4.41-3.768-4.41" transform="translate(-4.478 -17.099)" fill="#393e57"/>
        <path id="Trazado_903938" data-name="Trazado 903938" d="M35.212,94.114c0,3.774-2.594,6.833-5.793,6.833s-5.794-3.059-5.794-6.833,2.594-6.833,5.794-6.833,5.793,3.059,5.793,6.833" transform="translate(-5.231 -19.323)" fill="#252838"/>
        <rect id="Rectángulo_408711" data-name="Rectángulo 408711" width="10.072" height="13.666" transform="translate(14.117 67.958)" fill="#252838"/>
        <rect id="Rectángulo_408712" data-name="Rectángulo 408712" width="7.758" height="14.635" transform="translate(6.204 67.474)" fill="#393e57"/>
        <path id="Trazado_903939" data-name="Trazado 903939" d="M22.372,93.976c0,4.041-2.777,7.317-6.2,7.317s-6.2-3.276-6.2-7.317,2.777-7.317,6.2-7.317,6.2,3.276,6.2,7.317" transform="translate(-2.206 -19.186)" fill="#393e57"/>
        <path id="Trazado_903940" data-name="Trazado 903940" d="M22.276,94.114c0,3.774-2.594,6.833-5.793,6.833s-5.794-3.059-5.794-6.833,2.594-6.833,5.794-6.833,5.793,3.059,5.793,6.833" transform="translate(-2.367 -19.323)" fill="#393e57"/>
        <path id="Trazado_903941" data-name="Trazado 903941" d="M12.408,93.976c0,4.041-2.777,7.317-6.2,7.317S0,98.017,0,93.976s2.777-7.317,6.2-7.317,6.2,3.276,6.2,7.317" transform="translate(0 -19.186)" fill="#252838"/>
        <path id="Trazado_903942" data-name="Trazado 903942" d="M11.751,94.285c0,3.443-2.366,6.234-5.285,6.234s-5.284-2.791-5.284-6.234,2.366-6.234,5.284-6.234,5.285,2.791,5.285,6.234" transform="translate(-0.261 -19.494)" fill="#1a1c26"/>
        <path id="Trazado_903943" data-name="Trazado 903943" d="M32.407,82.737H27.886A1.383,1.383,0,0,1,26.5,81.354V80.082A1.383,1.383,0,0,1,27.886,78.7h4.521a1.383,1.383,0,0,1,1.383,1.383v1.272a1.383,1.383,0,0,1-1.383,1.383" transform="translate(-5.868 -17.423)" fill="#e3e7ff"/>
        <path id="Trazado_903944" data-name="Trazado 903944" d="M92.086,220.149c-2.808,10.833,8.51-.811,30.5,11.7,33.166,18.866,57.008,4.092,53.075-10.386-15.388-56.644,20.675-92.628,4.295-110.534-9.793-10.705-53.051-18.627-60.292,0-9.03,23.229-30.866,28.2-17.764,51.19,3.2,5.619,1.581,23.419-2.007,39.052-1.263,5.5-6.277,13.066-7.81,18.979" transform="translate(-20.294 -22.08)" fill="#e2f5f1"/>
        <path id="Trazado_903945" data-name="Trazado 903945" d="M92.1,228.48a.389.389,0,0,1-.377-.487,56.9,56.9,0,0,1,3.969-9.584,49.428,49.428,0,0,0,3.839-9.385c3.445-15.008,5.255-33.145,2.049-38.772-8.541-14.99-2.406-22.51,5.363-32.03q.987-1.21,2-2.471a.389.389,0,0,1,.607.487c-.677.846-1.349,1.669-2.008,2.477-7.876,9.652-13.567,16.626-5.29,31.152,3.459,6.07,1.405,24.644-1.966,39.332a49.93,49.93,0,0,1-3.9,9.549,56.328,56.328,0,0,0-3.917,9.441.389.389,0,0,1-.376.291" transform="translate(-20.303 -30.022)" fill="#e6d0bf"/>
        <path id="Trazado_903946" data-name="Trazado 903946" d="M168.628,270.4c-2.682,0-6.182-1.293-10.2-2.775-5.59-2.063-11.926-4.4-18.581-4.4a.389.389,0,0,1,0-.779c6.794,0,13.479,2.468,18.85,4.452,6.267,2.313,11.218,4.141,13.353,1.184.431-.6.579-1.051.44-1.351-.4-.852-3.068-1.057-5.652-1.254-3.516-.269-7.5-.575-9.92-2.326a.389.389,0,0,1,.457-.631c2.239,1.622,6.109,1.918,9.522,2.181,3.192.244,5.712.438,6.3,1.7a2.117,2.117,0,0,1-.515,2.134,4.636,4.636,0,0,1-4.057,1.865" transform="translate(-30.875 -58.103)" fill="#e6d0bf"/>
        <path id="Trazado_903947" data-name="Trazado 903947" d="M115.4,126.381a114.578,114.578,0,0,1,32.343-26.973c.329-1.338-4.479-1.936-9.909.615-6.462,3.035-14.708,8.941-19.6,15.511s-3.484,11.672-2.835,10.848" transform="translate(-25.395 -21.753)" fill="#cf3434"/>
        <path id="Trazado_903948" data-name="Trazado 903948" d="M184.249,104.046c-9.5,2.636-36.641,26.333-36.377,49.962.22,19.61,14.333,46.755,38.275,49.885,1.751,0,2.184-8.655,1.022-8.841-7.3-1.168-31.816-14.41-31.972-39.417-.184-29.49,30.374-46.057,32.56-47.336s-1.493-4.813-3.508-4.254" transform="translate(-32.737 -23.022)" fill="#cf3434"/>
        <path id="Trazado_903949" data-name="Trazado 903949" d="M134.051,278.8c-.361,11.972,7.426,26.061,27.865,28.689s32.787-9.051,31.8-16.643-3.23-15.412-9.021-15.912-6.277,4.609-21.533,5.115-28.85-9.742-29.106-1.248" transform="translate(-29.675 -60.861)" fill="#e84d4d"/>
        <path id="Trazado_903950" data-name="Trazado 903950" d="M165.881,284.913c-6.051,0-11.543-1.38-16.183-2.547-3.8-.955-7.095-1.78-9.839-1.72h-.009a.389.389,0,0,1-.009-.779c2.844-.06,6.188.774,10.047,1.744,9.7,2.436,21.765,5.47,35.3-3.216a.39.39,0,0,1,.421.656,35.589,35.589,0,0,1-19.728,5.861" transform="translate(-30.875 -61.621)" fill="#fa7a7a"/>
        <path id="Trazado_903951" data-name="Trazado 903951" d="M93.219,160.3c-7.39-18.693-28.893-34.162-34.865-46.422-3.227-6.624-10.32-1.692-7.829,2.811,4,7.236,12.553,35.5,28.775,54.187,7.65,8.812,18.771,1.7,13.918-10.576" transform="translate(-11.071 -24.498)" fill="#ffa794"/>
        <path id="Trazado_903952" data-name="Trazado 903952" d="M95.826,162.12a.39.39,0,0,1-.362-.246c-4.23-10.7-13.182-20.411-21.078-28.978-5-5.421-9.718-10.542-12.548-15.189a.39.39,0,0,1,.666-.4c2.79,4.581,7.484,9.674,12.455,15.066,7.943,8.617,16.946,18.384,21.23,29.22a.39.39,0,0,1-.219.505.386.386,0,0,1-.143.027" transform="translate(-13.678 -25.928)" fill="#ff9782"/>
        <path id="Trazado_903953" data-name="Trazado 903953" d="M79.763,173.757a.388.388,0,0,1-.294-.134C67.4,159.721,59.45,140.261,54.7,128.634c-.981-2.4-1.829-4.476-2.576-6.179a.389.389,0,1,1,.713-.313c.751,1.712,1.6,3.791,2.583,6.2,4.732,11.583,12.652,30.968,24.636,44.773a.389.389,0,0,1-.294.645" transform="translate(-11.532 -26.99)" fill="#ff9782"/>
        <path id="Trazado_903954" data-name="Trazado 903954" d="M56.887,111.264c-1.882-4.132.673-7.454-3.68-10.512a13.744,13.744,0,0,1-2.629-2.373c-1.2-1.458-3.542.232-4.729,1.778s-3.656,3.256-2.807,4.989c.706,1.443,4.736,6.2,5.954,8.8,1.1,2.338,9.9,1.727,7.891-2.678" transform="translate(-9.49 -21.657)" fill="#ffa794"/>
        <path id="Trazado_903955" data-name="Trazado 903955" d="M58.533,93.236a34.487,34.487,0,0,0-.2,4.947c.151,1.661-.023,5.264-.069,8.377-.036,2.406-5.334,1.294-5.547-3.282-.171-3.662,2.447-5.016,2.455-5.861A9.239,9.239,0,0,1,56,93.264c.761-1.352,2.615-1.583,2.53-.028" transform="translate(-11.671 -20.403)" fill="#ffa794"/>
        <path id="Trazado_903956" data-name="Trazado 903956" d="M48.737,98.569a16.508,16.508,0,0,1-2.751-5.275,22.5,22.5,0,0,1,0-4.585,1.191,1.191,0,0,1,2.276-.156c.6,1.113.322,3.221.557,3.8a21.98,21.98,0,0,0,2.872,4.384c1.131,1.436-1.905,3-2.954,1.835" transform="translate(-10.155 -19.434)" fill="#ffa794"/>
        <path id="Trazado_903957" data-name="Trazado 903957" d="M45.27,100.482A12.069,12.069,0,0,1,43.962,96c-.053-1.542,1.147-2.566,2.042-1.824.624.516,1.659,3.763,2.246,5.324s-2.621,1.788-2.98.985" transform="translate(-9.732 -20.794)" fill="#ffa794"/>
        <path id="Trazado_903958" data-name="Trazado 903958" d="M44.27,103.274a11.377,11.377,0,0,1-2.084-4.11c-.318-1.535.966-3.195,2.017-1.937.483.578,1.753,3.2,2.529,4.679s-1.808,2.1-2.461,1.369" transform="translate(-9.329 -21.427)" fill="#ffa794"/>
        <path id="Trazado_903959" data-name="Trazado 903959" d="M42.746,105.708a7.38,7.38,0,0,1-1.352-3.794c-.033-1.071.916-2.193,1.445-1.658a29.771,29.771,0,0,1,2.55,4.25c.776,1.475-2.191,1.956-2.643,1.2" transform="translate(-9.164 -22.165)" fill="#ffa794"/>
        <path id="Trazado_903960" data-name="Trazado 903960" d="M162.122,116.676C143.626,123.7,110.7,147.22,96.6,158.118c-10.743,8.3-9.972,20.86,4.9,16.723,17.7-4.927,50.4-17.987,70.546-33.493,15.856-12.2,15.23-34.214-9.915-24.672" transform="translate(-19.775 -25.314)" fill="#ffa794"/>
        <path id="Trazado_903961" data-name="Trazado 903961" d="M98.554,159.06a.389.389,0,0,1-.238-.7c14.607-11.281,47.12-34.474,65.626-41.5a.389.389,0,1,1,.276.728c-18.42,6.99-50.852,30.129-65.426,41.386a.389.389,0,0,1-.237.081" transform="translate(-21.733 -25.867)" fill="#ff9782"/>
        <path id="Trazado_903962" data-name="Trazado 903962" d="M135.86,135.8c-2.685,2.218,1.606,11.534,7.3,15.912s6.532,11.534,10.93,11.68,31.845-18.395,37.1-30.22,2.066-23.051-14.307-19.06c-13.5,3.293-39.345,20.3-41.023,21.687" transform="translate(-29.897 -25.081)" fill="#e2f5f1"/>
        <path id="Trazado_903963" data-name="Trazado 903963" d="M154.026,164.749h-.061c-2.608-.086-4.044-2.407-5.706-5.094a23.293,23.293,0,0,0-5.448-6.666c-4.335-3.335-8.2-9.824-8.271-13.888a3.161,3.161,0,0,1,.961-2.633c1.233-1.018,18.885-12.726,32.739-18.761a.389.389,0,1,1,.311.714c-13.788,6.006-31.33,17.637-32.554,18.648a2.447,2.447,0,0,0-.678,2.019c.06,3.424,3.48,9.833,7.967,13.285a23.911,23.911,0,0,1,5.636,6.872c1.608,2.6,2.878,4.654,5.07,4.727h.047c2.716,0,14.6-7.308,24.258-15.638a.389.389,0,1,1,.508.589c-9.146,7.892-21.581,15.828-24.778,15.828" transform="translate(-29.786 -26.052)" fill="#e6d0bf"/>
        <path id="Trazado_903964" data-name="Trazado 903964" d="M161.953,60.088c-1.473,4.334-4.191,23.249-8.448,30.807-10.914,19.38,19.682,6.427,20.631,1.9,2.268-10.811,2.75-20.607,4.7-27.848s-14.007-13.315-16.883-4.858" transform="translate(-33.464 -12.392)" fill="#ffa794"/>
        <path id="Trazado_903965" data-name="Trazado 903965" d="M178.088,59.465c-4.052-4.013-12.943-5.481-15.019.624-1.282,3.771-3.505,18.575-6.866,27.338,10.74,1.078,20.485-14.866,21.884-27.962" transform="translate(-34.582 -12.393)" fill="#ff9782"/>
        <path id="Trazado_903966" data-name="Trazado 903966" d="M184.027,59.183c-1.148,2.453-1.834,5.682-.1,6.519s4.116-1.377,5.577-3.656c1.907-2.975,1.535-4.94-.139-5.752-2.1-1.019-4.192.436-5.339,2.889" transform="translate(-40.487 -12.39)" fill="#ffa794"/>
        <path id="Trazado_903967" data-name="Trazado 903967" d="M142.438,73.28c-15.325-4.719-8.108-40.839.177-51.861,10.87-14.461,39.9-8.252,35.183,21.021-3.275,20.312-22.083,34.928-35.36,30.84" transform="translate(-29.548 -3.084)" fill="#ffa794"/>
        <path id="Trazado_903968" data-name="Trazado 903968" d="M140.171,31.878c.174-.492,2.039.353,3.263,1.072,1.486.871,3.1,1.848,2.654,2.39s-2.1-.558-3.669-1.5c-1.331-.795-2.412-1.5-2.249-1.964" transform="translate(-31.029 -7.025)" fill="#282c3d"/>
        <path id="Trazado_903969" data-name="Trazado 903969" d="M167.806,43.456c.1-.441-1.926-1.437-3.581-2.031-2.01-.722-4.245-1.36-4.352-.73-.139.818,2.238,1.323,4.379,2.076,1.813.638,3.454,1.123,3.554.686" transform="translate(-35.393 -8.952)" fill="#282c3d"/>
        <path id="Trazado_903970" data-name="Trazado 903970" d="M142.607,41.761a.966.966,0,1,1-.722-1.008.883.883,0,0,1,.722,1.008" transform="translate(-31.16 -9.014)" fill="#2e3142"/>
        <path id="Trazado_903971" data-name="Trazado 903971" d="M162.454,49.12a.967.967,0,1,1-.58-1.1.883.883,0,0,1,.58,1.1" transform="translate(-35.565 -10.614)" fill="#2e3142"/>
        <path id="Trazado_903972" data-name="Trazado 903972" d="M149.013,42.428c-.254.709-1.884,5.622-4.792,8.882-1.254,1.405.21,2.9.472,3.5.765,1.753-3.677-1.985-2.45-2.992,4.351-3.576,7.533-11.52,6.77-9.388" transform="translate(-31.444 -9.314)" fill="#ff9782"/>
        <path id="Trazado_903973" data-name="Trazado 903973" d="M145.9,71.479c-1.208,2.02-6.011,1.048-5.938-2.385.012-.557,6.3,1.777,5.938,2.385" transform="translate(-30.987 -15.278)" fill="#fff"/>
        <path id="Trazado_903974" data-name="Trazado 903974" d="M153.964,3.6c-3.876,3.721-1.631,11.3,4.169,16.777,10.384,9.8-1.627,15.22,13.593,24.745,8.337,5.219-6.7,15.2.109,29.016s.622,13.723-6.569,17.955.512,9.964-8.1,14.454c-6.621,3.449,5.263,2.344,9.964-.111,8.808-4.6,9.963-15.767,18.593-16.932,11.07-1.5,11.009-1.521,10.614-13.64S206.9,61.6,204.76,49.213s-9.613-11.275-10.2-19.229-.4-17.379-9.478-23.948S160.141-2.327,153.964,3.6" transform="translate(-33.659 0)" fill="#592b2d"/>
        <path id="Trazado_903975" data-name="Trazado 903975" d="M172.534,74.345c-2.254-2.792-3.8-9.1-2.158-16.9.164-.777.322-1.487.469-2.141,1.236-5.527,1.529-6.841-3.754-11.124-5.234-4.242-5.71-8.275-6.129-11.833-.321-2.725-.6-5.08-3.053-7-7.074-5.524-6.747-10.268-3.927-16.133l.7.338c-2.722,5.657-2.988,9.955,3.705,15.181,2.708,2.115,3.019,4.74,3.346,7.518.4,3.411.857,7.277,5.847,11.319,5.658,4.587,5.279,6.282,4.022,11.9-.145.651-.3,1.359-.467,2.132-1.577,7.506-.067,13.683,2,16.246Z" transform="translate(-33.676 -2.042)" fill="#592b2d"/>
      </g>
    </g>
  </g>
</svg>
