<svg xmlns="http://www.w3.org/2000/svg" width="90" height="90" viewBox="0 0 90 90">
  <g id="Grupo_1117142" data-name="Grupo 1117142" transform="translate(-179.711 -766)">
    <g id="Elipse_11510" data-name="Elipse 11510" transform="translate(179.711 766)" fill="#fff" stroke="#ffce73" stroke-width="5">
      <circle cx="45" cy="45" r="45" stroke="none"/>
      <circle cx="45" cy="45" r="42.5" fill="none"/>
    </g>
    <g id="Grupo_1117299" data-name="Grupo 1117299" transform="translate(190.711 776.354)">
      <path id="Trazado_874450" data-name="Trazado 874450" d="M319.481,309.205a9.368,9.368,0,1,0,9.369,9.369A9.38,9.38,0,0,0,319.481,309.205Z" transform="translate(-270.642 -268.992)" fill="#6cf5c2"/>
      <path id="Trazado_874451" data-name="Trazado 874451" d="M22,139.751v28.29a1.589,1.589,0,0,0,1.586,1.589H50.937a10.8,10.8,0,0,1-.384-2.858q0-.408.03-.809H47.943a.729.729,0,0,1-.729-.729v-3.965a.729.729,0,0,1,.729-.729h3.965a.726.726,0,0,1,.491.191,10.912,10.912,0,0,1,3.559-3.328h-.953a.729.729,0,0,1-.729-.729v-3.965a.729.729,0,0,1,.729-.729h3.965a.729.729,0,0,1,.729.729v3.367a10.871,10.871,0,0,1,4.373.209V139.751Z" transform="translate(-12.542 -117.19)" fill="#eceff1"/>
      <path id="Trazado_874452" data-name="Trazado 874452" d="M52.99,39.582V15.965a3.048,3.048,0,0,0-3.044-3.044h-3.91V11.436a2.5,2.5,0,0,0-5,0v1.485H37.344V11.436a2.5,2.5,0,0,0-5,0v1.485H28.651V11.436a2.5,2.5,0,0,0-5,0v1.485H19.958V11.436a2.5,2.5,0,0,0-5,0v1.485h-3.91A3.048,3.048,0,0,0,8,15.965v37.78a3.049,3.049,0,0,0,3.044,3.047H40.771A10.824,10.824,0,1,0,52.99,39.582ZM42.49,11.436a1.044,1.044,0,0,1,2.088,0v1.485H42.49Zm-8.693,0a1.044,1.044,0,0,1,2.088,0v1.485H33.8Zm-8.693,0a1.044,1.044,0,0,1,2.088,0v1.485H25.1Zm-8.693,0a1.044,1.044,0,0,1,2.088,0v1.485H16.412ZM11.044,14.38h3.91v.8a2.505,2.505,0,0,0,2.5,2.5.729.729,0,1,0,0-1.458,1.045,1.045,0,0,1-1.045-1.042v-.8h7.234v.8a2.505,2.505,0,0,0,2.5,2.5.729.729,0,1,0,0-1.458A1.045,1.045,0,0,1,25.1,15.18v-.8h7.234v.8a2.505,2.505,0,0,0,2.5,2.5.729.729,0,0,0,0-1.458A1.045,1.045,0,0,1,33.8,15.18v-.8h7.234v.8a2.505,2.505,0,0,0,2.5,2.5.729.729,0,0,0,0-1.458A1.045,1.045,0,0,1,42.49,15.18v-.8h7.456a1.588,1.588,0,0,1,1.586,1.586V21.1H9.458V15.965a1.588,1.588,0,0,1,1.586-1.586ZM9.458,22.561H51.532V39.093a10.871,10.871,0,0,0-4.373-.209V35.518a.729.729,0,0,0-.729-.729H42.464a.729.729,0,0,0-.729.729v3.965a.729.729,0,0,0,.729.729h.953a10.912,10.912,0,0,0-3.559,3.328.725.725,0,0,0-.491-.191H35.4a.729.729,0,0,0-.729.729v3.965a.729.729,0,0,0,.729.729h2.641q-.03.4-.03.809A10.8,10.8,0,0,0,38.4,52.44H11.044a1.589,1.589,0,0,1-1.586-1.589ZM45.7,38.754H43.193V36.247H45.7Zm-7.063,7.2a10.736,10.736,0,0,0-.386,1.361H36.13V44.807h2.507Zm-27.593,9.38a1.589,1.589,0,0,1-1.586-1.589v-.294a3.024,3.024,0,0,0,1.586.447H38.911a10.814,10.814,0,0,0,.76,1.435H11.044Zm37.795,3.614a9.368,9.368,0,1,1,9.369-9.366A9.378,9.378,0,0,1,48.839,58.948ZM14.212,31.65h3.965a.729.729,0,0,0,.729-.729V26.955a.729.729,0,0,0-.729-.729H14.212a.729.729,0,0,0-.729.729v3.965A.729.729,0,0,0,14.212,31.65Zm.729-3.965h2.507v2.507H14.942Zm-.729,21.088h3.965a.729.729,0,0,0,.729-.729V44.078a.729.729,0,0,0-.729-.729H14.212a.729.729,0,0,0-.729.729v3.965A.729.729,0,0,0,14.212,48.773Zm.729-3.965h2.507v2.507H14.942ZM21.275,31.65h3.965a.729.729,0,0,0,.729-.729V26.955a.729.729,0,0,0-.729-.729H21.275a.729.729,0,0,0-.729.729v3.965A.729.729,0,0,0,21.275,31.65ZM22,27.685h2.507v2.507H22Zm-.729,21.088h3.965a.729.729,0,0,0,.729-.729V44.078a.729.729,0,0,0-.729-.729H21.275a.729.729,0,0,0-.729.729v3.965A.729.729,0,0,0,21.275,48.773ZM22,44.807h2.507v2.507H22ZM28.338,31.65H32.3a.729.729,0,0,0,.729-.729V26.956a.729.729,0,0,0-.729-.729H28.338a.729.729,0,0,0-.729.729v3.965A.729.729,0,0,0,28.338,31.65Zm.729-3.965h2.507v2.507H29.067Zm-.729,21.088H32.3a.729.729,0,0,0,.729-.729V44.078a.729.729,0,0,0-.729-.729H28.338a.729.729,0,0,0-.729.729v3.965A.729.729,0,0,0,28.338,48.773Zm.729-3.965h2.507v2.507H29.067ZM35.4,31.65h3.965a.729.729,0,0,0,.729-.729V26.956a.729.729,0,0,0-.729-.729H35.4a.729.729,0,0,0-.729.729v3.965A.729.729,0,0,0,35.4,31.65Zm.729-3.965h2.507v2.507H36.13Zm6.334,3.965h3.965a.729.729,0,0,0,.729-.729V26.956a.729.729,0,0,0-.729-.729H42.464a.729.729,0,0,0-.729.729v3.965A.729.729,0,0,0,42.464,31.65Zm.729-3.965H45.7v2.507H43.193ZM14.213,40.213h3.965a.729.729,0,0,0,.729-.729V35.518a.729.729,0,0,0-.729-.729H14.213a.729.729,0,0,0-.729.729v3.965A.729.729,0,0,0,14.213,40.213Zm.729-3.965h2.507v2.507H14.942Zm6.334,3.965h3.965a.729.729,0,0,0,.729-.729V35.518a.729.729,0,0,0-.729-.729H21.275a.729.729,0,0,0-.729.729v3.965A.729.729,0,0,0,21.275,40.213ZM22,36.248h2.507v2.507H22Zm6.334,3.965H32.3a.729.729,0,0,0,.729-.729V35.518a.729.729,0,0,0-.729-.729H28.338a.729.729,0,0,0-.729.729v3.965A.729.729,0,0,0,28.338,40.213Zm.729-3.965h2.507v2.507H29.067ZM35.4,40.213h3.965a.729.729,0,0,0,.729-.729V35.518a.729.729,0,0,0-.729-.729H35.4a.729.729,0,0,0-.729.729v3.965A.729.729,0,0,0,35.4,40.213Zm.729-3.965h2.507v2.507H36.13Zm15.028,9.358-3.752,3.789-.9-.88a1.973,1.973,0,0,0-2.752,2.827h0l2.3,2.232a1.98,1.98,0,0,0,2.767-.021L53.946,48.4a1.973,1.973,0,0,0-2.788-2.791Zm1.755,1.762-5.127,5.157a.514.514,0,0,1-.719,0l-2.3-2.231a.513.513,0,0,1-.155-.362.514.514,0,0,1,.871-.377l1.423,1.385a.729.729,0,0,0,1.027-.009l4.257-4.3a.514.514,0,1,1,.723.731Z" transform="translate(0 0)"/>
      <g id="Grupo_1117298" data-name="Grupo 1117298" transform="translate(14.942 27.684)">
        <path id="Trazado_874453" data-name="Trazado 874453" d="M142.443,353.311h2.507v2.507h-2.507Z" transform="translate(-135.38 -336.188)" fill="#8ac9fe"/>
        <path id="Trazado_874454" data-name="Trazado 874454" d="M142.443,188.932h2.507v2.507h-2.507Z" transform="translate(-135.38 -188.932)" fill="#8ac9fe"/>
        <path id="Trazado_874455" data-name="Trazado 874455" d="M142.443,271.135h2.507v2.507h-2.507Z" transform="translate(-135.38 -262.572)" fill="#8ac9fe"/>
        <path id="Trazado_874456" data-name="Trazado 874456" d="M210.248,188.932h2.507v2.507h-2.507Z" transform="translate(-196.122 -188.932)" fill="#8ac9fe"/>
        <path id="Trazado_874457" data-name="Trazado 874457" d="M210.248,271.135h2.507v2.507h-2.507Z" transform="translate(-196.122 -262.572)" fill="#8ac9fe"/>
        <path id="Trazado_874458" data-name="Trazado 874458" d="M210.248,353.311h2.507v2.507h-2.507Z" transform="translate(-196.122 -336.188)" fill="#8ac9fe"/>
        <path id="Trazado_874459" data-name="Trazado 874459" d="M74.64,188.932h2.507v2.507H74.64Z" transform="translate(-74.64 -188.932)" fill="#8ac9fe"/>
      </g>
      <path id="Trazado_874460" data-name="Trazado 874460" d="M367.068,369.586l-4.257,4.3a.729.729,0,0,1-1.026.009l-1.423-1.385a.514.514,0,0,0-.716.739l2.3,2.231a.514.514,0,0,0,.719,0l5.127-5.157a.514.514,0,1,0-.723-.731Z" transform="translate(-314.877 -322.951)" fill="#fff"/>
      <path id="Trazado_874461" data-name="Trazado 874461" d="M345.856,271.135h2.507v2.507h-2.507Z" transform="translate(-302.663 -234.888)" fill="#8ac9fe"/>
      <path id="Trazado_874462" data-name="Trazado 874462" d="M74.64,271.135h2.507v2.507H74.64Z" transform="translate(-59.698 -234.888)" fill="#8ac9fe"/>
      <path id="Trazado_874463" data-name="Trazado 874463" d="M74.64,353.311h2.507v2.507H74.64Z" transform="translate(-59.698 -308.504)" fill="#8ac9fe"/>
      <path id="Trazado_874464" data-name="Trazado 874464" d="M280.173,355.818a10.739,10.739,0,0,1,.386-1.361v-1.147h-2.507v2.507Z" transform="translate(-241.922 -308.504)" fill="#8ac9fe"/>
      <path id="Trazado_874465" data-name="Trazado 874465" d="M23.586,436.743A3.024,3.024,0,0,1,22,436.3v.294a1.589,1.589,0,0,0,1.586,1.589H52.212a10.811,10.811,0,0,1-.76-1.435H23.586Z" transform="translate(-12.542 -382.845)" fill="#d2d9db"/>
      <path id="Trazado_874466" data-name="Trazado 874466" d="M64.073,62.789A1.588,1.588,0,0,0,62.488,61.2H55.032V62a1.045,1.045,0,0,0,1.045,1.042.729.729,0,0,1,0,1.458,2.505,2.505,0,0,1-2.5-2.5v-.8H46.339V62a1.045,1.045,0,0,0,1.045,1.042.729.729,0,1,1,0,1.458,2.505,2.505,0,0,1-2.5-2.5v-.8H37.646V62a1.045,1.045,0,0,0,1.045,1.042.729.729,0,1,1,0,1.458,2.505,2.505,0,0,1-2.5-2.5v-.8H28.954V62A1.045,1.045,0,0,0,30,63.046.729.729,0,1,1,30,64.5,2.505,2.505,0,0,1,27.5,62v-.8h-3.91A1.588,1.588,0,0,0,22,62.789v5.138H64.073Z" transform="translate(-12.542 -46.824)" fill="#fe646f"/>
      <path id="Trazado_874467" data-name="Trazado 874467" d="M278.052,188.932h2.507v2.507h-2.507Z" transform="translate(-241.922 -161.248)" fill="#8ac9fe"/>
      <path id="Trazado_874468" data-name="Trazado 874468" d="M345.856,188.932h2.507v2.507h-2.507Z" transform="translate(-302.663 -161.248)" fill="#8ac9fe"/>
      <path id="Trazado_874469" data-name="Trazado 874469" d="M278.052,271.135h2.507v2.507h-2.507Z" transform="translate(-241.922 -234.888)" fill="#8ac9fe"/>
    </g>
  </g>
</svg>
