<svg xmlns="http://www.w3.org/2000/svg" width="90" height="90" viewBox="0 0 90 90">
  <g id="Grupo_1117136" data-name="Grupo 1117136" transform="translate(-179.711 -766)">
    <g id="Elipse_11510" data-name="Elipse 11510" transform="translate(179.711 766)" fill="#fff" stroke="#ffce73" stroke-width="5">
      <circle cx="45" cy="45" r="45" stroke="none"/>
      <circle cx="45" cy="45" r="42.5" fill="none"/>
    </g>
    <g id="Grupo_1117198" data-name="Grupo 1117198" transform="translate(192.711 778.745)">
      <path id="Trazado_873478" data-name="Trazado 873478" d="M41,32a9,9,0,1,0-12.5,8.29V44.5a3.5,3.5,0,0,0,7,0V40.29A9,9,0,0,0,41,32Z" fill="#ffdf66"/>
      <path id="Trazado_873479" data-name="Trazado 873479" d="M35.5,42v2.5a3.5,3.5,0,0,1-7,0V42Z" fill="#7e97b3"/>
      <g id="Grupo_1117197" data-name="Grupo 1117197">
        <circle id="Elipse_11520" data-name="Elipse 11520" cx="4" cy="4" r="4" transform="translate(2 20.91)" fill="#ff7375"/>
        <circle id="Elipse_11521" data-name="Elipse 11521" cx="4" cy="4" r="4" transform="translate(54 21)" fill="#ff7375"/>
        <circle id="Elipse_11522" data-name="Elipse 11522" cx="4" cy="4" r="4" transform="translate(28 2)" fill="#ff7375"/>
        <circle id="Elipse_11523" data-name="Elipse 11523" cx="4" cy="4" r="4" transform="translate(12 52)" fill="#ff7375"/>
        <circle id="Elipse_11524" data-name="Elipse 11524" cx="4" cy="4" r="4" transform="translate(44 52)" fill="#ff7375"/>
      </g>
      <path id="Trazado_873480" data-name="Trazado 873480" d="M6,29.91a5,5,0,1,0-5-5,5,5,0,0,0,5,5Zm0-8a3,3,0,1,1-3,3,3,3,0,0,1,3-3Z"/>
      <path id="Trazado_873481" data-name="Trazado 873481" d="M58,20a5,5,0,1,0,5,5A5,5,0,0,0,58,20Zm0,8a3,3,0,1,1,3-3,3,3,0,0,1-3,3Z"/>
      <path id="Trazado_873482" data-name="Trazado 873482" d="M37,6a5,5,0,1,0-5,5A5,5,0,0,0,37,6ZM32,9a3,3,0,1,1,3-3A3,3,0,0,1,32,9Z"/>
      <path id="Trazado_873483" data-name="Trazado 873483" d="M16,61a5,5,0,1,0-5-5,5,5,0,0,0,5,5Zm0-8a3,3,0,1,1-3,3,3,3,0,0,1,3-3Z"/>
      <path id="Trazado_873484" data-name="Trazado 873484" d="M53,56a5,5,0,1,0-5,5A5,5,0,0,0,53,56Zm-5,3a3,3,0,1,1,3-3,3,3,0,0,1-3,3Z"/>
      <path id="Trazado_873485" data-name="Trazado 873485" d="M39.7,57.84a26.07,26.07,0,0,1-11.52.86l1.74-.87L29,56l-4.47,2.25a1.036,1.036,0,0,0-.28,1.6l3.41,3.66,1.46-1.36-1.39-1.5A27.371,27.371,0,0,0,32,61a27.92,27.92,0,0,0,8.3-1.25Z"/>
      <path id="Trazado_873486" data-name="Trazado 873486" d="M54.63,45.79l-.26-1.88-2,.27.67,5a1,1,0,0,0,.51.74.91.91,0,0,0,.48.13,1,1,0,0,0,.41-.09l4.57-2-.82-1.83-1.92.86A27.82,27.82,0,0,0,60,33H58a25.86,25.86,0,0,1-3.37,12.79Z"/>
      <path id="Trazado_873487" data-name="Trazado 873487" d="M9.19,16.77l1.62,1.16a26,26,0,0,1,10-8.4l-.71,1.68L22,12l2-4.6A1.019,1.019,0,0,0,23.12,6l-5-.59-.23,2,2.18.26a27.86,27.86,0,0,0-10.88,9.1Z"/>
      <path id="Trazado_873488" data-name="Trazado 873488" d="M54,18a1.012,1.012,0,0,0,1-1.1l-.51-5-2,.21.21,2A28.15,28.15,0,0,0,40.29,6.25l-.58,1.91a26.14,26.14,0,0,1,11.46,7.31l-2-.36-.36,2,4.92.9Z"/>
      <path id="Trazado_873489" data-name="Trazado 873489" d="M9.19,36.9,5.72,33.31a1.005,1.005,0,0,0-1.59.19L1.65,37.84l1.74,1,.95-1.66a27.69,27.69,0,0,0,5.1,12.41l1.61-1.18A25.8,25.8,0,0,1,6.3,36.78l1.45,1.51Z"/>
      <path id="Trazado_873490" data-name="Trazado 873490" d="M22,32a10,10,0,0,0,5.5,8.93V44.5a4.5,4.5,0,0,0,9,0V40.93A10,10,0,1,0,22,32ZM34.5,44.5a2.5,2.5,0,1,1-5,0V43h5ZM32,24a8,8,0,0,1,3.11,15.37,1,1,0,0,0-.61.92V41H33V37a1,1,0,0,0-.17-.55L30.27,32.6l1.49.37a1,1,0,0,0,.48,0L34,32.54,33.13,34l1.74,1,2-3.5A1,1,0,0,0,35.76,30L32,31l-3.76-1a.987.987,0,0,0-1.06,1.52L31,37.3V41H29.5v-.71a1,1,0,0,0-.61-.92A8,8,0,0,1,32,24Z"/>
      <path id="Trazado_873491" data-name="Trazado 873491" d="M44,31h3v2H44Z"/>
      <path id="Trazado_873492" data-name="Trazado 873492" d="M17,31h3v2H17Z"/>
      <path id="Trazado_873493" data-name="Trazado 873493" d="M40.05,21.45h3v2h-3Z" transform="translate(-3.71 35.95) rotate(-45)"/>
      <path id="Trazado_873494" data-name="Trazado 873494" d="M20.95,40.55h3v2h-3Z" transform="translate(-22.8 28.05) rotate(-45)"/>
      <path id="Trazado_873495" data-name="Trazado 873495" d="M40.55,40.05h2v3h-2Z" transform="translate(-17.21 41.55) rotate(-45)"/>
      <path id="Trazado_873496" data-name="Trazado 873496" d="M21.45,20.95h2v3h-2Z" transform="translate(-9.3 22.45) rotate(-45)"/>
      <path id="Trazado_873497" data-name="Trazado 873497" d="M31,17h2v3H31Z"/>
    </g>
  </g>
</svg>
