<svg xmlns="http://www.w3.org/2000/svg" width="90" height="90" viewBox="0 0 90 90">
  <g id="Grupo_1117143" data-name="Grupo 1117143" transform="translate(-179.711 -766)">
    <g id="Elipse_11510" data-name="Elipse 11510" transform="translate(179.711 766)" fill="#fff" stroke="#ffce73" stroke-width="5">
      <circle cx="45" cy="45" r="45" stroke="none"/>
      <circle cx="45" cy="45" r="42.5" fill="none"/>
    </g>
    <g id="Grupo_1117207" data-name="Grupo 1117207" transform="translate(200.715 779.249)">
      <g id="Grupo_1117206" data-name="Grupo 1117206" transform="translate(1.729 9.885)">
        <g id="Grupo_1117203" data-name="Grupo 1117203" transform="translate(0 0)">
          <path id="Trazado_873535" data-name="Trazado 873535" d="M10.762,17.154A1.768,1.768,0,0,0,9,18.916V50.779a1.768,1.768,0,0,0,1.762,1.762h32.41a1.768,1.768,0,0,0,1.762-1.762V23.139L38.9,17.2c-9.383.11-18.757-.042-28.137-.042Z" transform="translate(-9 -17.154)" fill="#eff4f7" fill-rule="evenodd"/>
          <path id="Trazado_873536" data-name="Trazado 873536" d="M10.762,17.154A1.768,1.768,0,0,0,9,18.916V50.779a1.768,1.768,0,0,0,1.762,1.762h.909V20.989a1.768,1.768,0,0,1,1.762-1.762c9.194,0,18.381.146,27.577.049L38.9,17.2c-9.383.11-18.757-.042-28.137-.042Z" transform="translate(-9 -17.154)" fill="#dee8ee" fill-rule="evenodd"/>
          <path id="Trazado_873537" data-name="Trazado 873537" d="M340.679,24.443,334.742,18.5l-.148,4.638a1.3,1.3,0,0,0,1.306,1.306Z" transform="translate(-304.785 -18.376)" fill="#dee8ee" fill-rule="evenodd"/>
          <path id="Trazado_873538" data-name="Trazado 873538" d="M340.678,24.443l-.415-.416h-3.29a1.3,1.3,0,0,1-1.306-1.306l.1-3.194L334.741,18.5l-.148,4.638a1.3,1.3,0,0,0,1.306,1.306h4.779Z" transform="translate(-304.784 -18.376)" fill="#cedde5" fill-rule="evenodd"/>
        </g>
        <g id="Grupo_1117205" data-name="Grupo 1117205" transform="translate(13.146 14.015)">
          <rect id="Rectángulo_408196" data-name="Rectángulo 408196" width="32.08" height="29.718" transform="translate(0)" fill="#fc685b"/>
          <path id="Trazado_873539" data-name="Trazado 873539" d="M377.349,369.077h-.916v9.072a1.532,1.532,0,0,1-1.527,1.527h-10.22v.915h11.136a1.532,1.532,0,0,0,1.527-1.527Z" transform="translate(-345.269 -350.873)" fill="#fb4737" fill-rule="evenodd"/>
          <path id="Trazado_873540" data-name="Trazado 873540" d="M265.115,256.12a.732.732,0,0,1,1.036-1.036l2,2,2-2a.732.732,0,0,1,1.036,1.036l-2,2,2,2a.732.732,0,0,1-1.036,1.036l-2-2-2,2a.732.732,0,1,1-1.036-1.036l2-2Z" transform="translate(-254.619 -247.122)" fill="#fb4737" fill-rule="evenodd"/>
          <path id="Trazado_873541" data-name="Trazado 873541" d="M409.675,380.823a.732.732,0,0,1,1.036-1.036l2,2,2-2a.732.732,0,1,1,1.036,1.036l-2,2,2,2a.732.732,0,1,1-1.036,1.036l-2-2-2,2a.732.732,0,0,1-1.036-1.036l2-2Z" transform="translate(-385.944 -360.408)" fill="#fb4737" fill-rule="evenodd"/>
          <path id="Trazado_873542" data-name="Trazado 873542" d="M377.348,240.43H364.685v11.778h12.663Z" transform="translate(-345.268 -234.004)" fill="#64b5f6" fill-rule="evenodd"/>
          <path id="Trazado_873543" data-name="Trazado 873543" d="M493,240.43h.916v11.778H493Z" transform="translate(-461.836 -234.004)" fill="#42a5f5"/>
          <path id="Trazado_873544" data-name="Trazado 873544" d="M404.849,261.832a.732.732,0,0,1,1.036-1.036l1.7,1.7,3.131-3.757a.729.729,0,1,1,1.121.933l-3.6,4.322a.733.733,0,0,1-1.121.1l-2.267-2.268Z" transform="translate(-381.559 -250.401)" fill="#42a5f5" fill-rule="evenodd"/>
          <path id="Trazado_873545" data-name="Trazado 873545" d="M237.937,380.591V369.077H225.164v11.514Z" transform="translate(-218.52 -350.873)" fill="#64b5f6" fill-rule="evenodd"/>
          <path id="Trazado_873546" data-name="Trazado 873546" d="M225.164,484.848h12.773v.915H225.164Z" transform="translate(-218.52 -456.045)" fill="#42a5f5"/>
          <g id="Grupo_1117204" data-name="Grupo 1117204">
            <path id="Trazado_873547" data-name="Trazado 873547" d="M260.289,386.534a.732.732,0,1,1,1.036-1.036l1.7,1.7,3.131-3.757a.729.729,0,0,1,1.121.933l-3.6,4.322a.733.733,0,0,1-1.121.1l-2.268-2.268Z" transform="translate(-250.234 -363.686)" fill="#42a5f5" fill-rule="evenodd"/>
            <path id="Trazado_873548" data-name="Trazado 873548" d="M152.591,176.663h6.644v-6.426h-5.117a1.532,1.532,0,0,0-1.527,1.527Z" transform="translate(-152.591 -170.237)" fill="#72d561" fill-rule="evenodd"/>
            <path id="Trazado_873549" data-name="Trazado 873549" d="M152.591,176.663h.915V172.68a1.532,1.532,0,0,1,1.527-1.527h4.2v-.915h-5.117a1.532,1.532,0,0,0-1.527,1.527Z" transform="translate(-152.591 -170.237)" fill="#42c345" fill-rule="evenodd"/>
            <path id="Trazado_873550" data-name="Trazado 873550" d="M159.234,369.077H152.59v9.987a1.532,1.532,0,0,0,1.527,1.527h5.117Z" transform="translate(-152.59 -350.873)" fill="#72d561" fill-rule="evenodd"/>
            <path id="Trazado_873551" data-name="Trazado 873551" d="M153.507,369.077h-.915v9.987a1.532,1.532,0,0,0,1.527,1.527h5.117v-.915h-4.2a1.532,1.532,0,0,1-1.527-1.527Z" transform="translate(-152.591 -350.873)" fill="#42c345" fill-rule="evenodd"/>
            <path id="Trazado_873552" data-name="Trazado 873552" d="M225.164,173.377v3.285h12.773v-6.426H225.164v3.141Z" transform="translate(-218.52 -170.236)" fill="#ffda2d" fill-rule="evenodd"/>
          </g>
          <path id="Trazado_873553" data-name="Trazado 873553" d="M225.164,170.236h12.773v.915H225.164Z" transform="translate(-218.52 -170.236)" fill="#ffc700"/>
          <path id="Trazado_873554" data-name="Trazado 873554" d="M364.685,170.236v6.426h12.663v-4.9a1.532,1.532,0,0,0-1.527-1.527H364.685Z" transform="translate(-345.268 -170.236)" fill="#eff4f7" fill-rule="evenodd"/>
          <path id="Trazado_873555" data-name="Trazado 873555" d="M364.685,170.236v.915h10.22a1.532,1.532,0,0,1,1.527,1.527v3.984h.916v-4.9a1.532,1.532,0,0,0-1.527-1.527Z" transform="translate(-345.268 -170.236)" fill="#dee8ee" fill-rule="evenodd"/>
          <path id="Trazado_873556" data-name="Trazado 873556" d="M159.235,248.57v-8.14h-6.644v11.778h6.644Z" transform="translate(-152.591 -234.004)" fill="#ffda2d" fill-rule="evenodd"/>
          <path id="Trazado_873557" data-name="Trazado 873557" d="M153.507,240.43h-.915v11.778h.915V240.43Z" transform="translate(-152.591 -234.004)" fill="#ffc700" fill-rule="evenodd"/>
        </g>
      </g>
      <path id="Trazado_873558" data-name="Trazado 873558" d="M44.233,44.28a.732.732,0,0,0-1.036,0l-1.995,2-2-2a.733.733,0,0,0-1.036,1.036l2,2-2,2A.732.732,0,0,0,39.2,50.344l2-2,1.995,2a.727.727,0,0,0,.518.214.732.732,0,0,0,.518-1.249l-1.995-2,1.995-2A.734.734,0,0,0,44.233,44.28Zm.393-11.134a.733.733,0,0,0-1.032.094L40.464,37l-1.7-1.7a.732.732,0,0,0-1.036,1.035L39.994,38.6a.734.734,0,0,0,.518.214h.035a.731.731,0,0,0,.527-.262l3.648-4.373a.732.732,0,0,0-.095-1.031ZM31,32.864a.733.733,0,0,0-1.036,0l-1.995,2-1.995-2A.733.733,0,0,0,24.935,33.9l1.995,2-1.995,2a.733.733,0,0,0,1.036,1.037l1.995-2,1.995,2a.744.744,0,0,0,.522.214A.732.732,0,0,0,31,37.891L29,35.9,31,33.9A.726.726,0,0,0,31,32.864Zm.4,11.7a.737.737,0,0,0-1.036.093l-3.13,3.757-1.7-1.7a.734.734,0,1,0-1.04,1.036l2.271,2.267a.731.731,0,0,0,.518.215h.03a.734.734,0,0,0,.531-.263l3.644-4.373a.735.735,0,0,0-.091-1.031Zm14.035,8.322h-10.4V42.836h11.2v9.255A.794.794,0,0,1,45.429,52.885Zm-29.025,0h4.382V42.836H15.61v9.255A.794.794,0,0,0,16.4,52.885Zm-2.262-8.346H3.491a1.03,1.03,0,0,1-1.028-1.03V11.647a1.031,1.031,0,0,1,1.028-1.03c3.445,0,6.946.021,10.331.041,5.608.034,11.4.067,17.109.009l-.125,3.956a1.953,1.953,0,0,0,.561,1.435,2.063,2.063,0,0,0,1.477.628h4.088v6.482H16.4a2.263,2.263,0,0,0-2.262,2.26V44.539ZM32.27,14.669a.508.508,0,0,0,.151.369.6.6,0,0,0,.423.182h3.117l-3.6-3.539-.1,2.988Zm13.159,9.963h-10.4v4.961h11.2V25.426a.794.794,0,0,0-.794-.795Zm-10.4,16.739V31.058h11.2V41.371ZM33.561,29.593V24.632H22.254v4.961ZM22.254,52.885V42.836H33.561V52.885ZM20.786,29.593V24.632H16.4a.794.794,0,0,0-.794.795v4.167h5.176ZM15.61,41.371h5.176V31.058H15.61Zm6.644,0V31.058H33.561V41.371Zm25.433,10.72a2.281,2.281,0,0,1-.281,1.094.749.749,0,0,1,.142.433.733.733,0,0,1-.734.732h-31.8a.733.733,0,0,1-.734-.732.749.749,0,0,1,.142-.433,2.236,2.236,0,0,1-.285-1.094V46H3.491A2.5,2.5,0,0,1,1,43.51V11.647a2.5,2.5,0,0,1,2.5-2.495c3.45,0,6.951.021,10.34.041,5.833.035,11.86.071,17.791,0a.735.735,0,0,1,.522.211l6.031,5.942a.723.723,0,0,1,.22.522v7.3h7.033a2.26,2.26,0,0,1,2.258,2.26V52.091ZM7.174,21.327H32.218a.732.732,0,1,0,0-1.465H7.174a.732.732,0,0,0,0,1.465Zm4.956,4.248H7.174a.732.732,0,0,0,0,1.465H12.13a.732.732,0,0,0,0-1.465Zm-4.956-9.96h20.74a.732.732,0,1,0,0-1.465H7.174a.732.732,0,0,0,0,1.465ZM12.13,31.288H7.174a.732.732,0,0,0,0,1.464H12.13a.732.732,0,0,0,0-1.464Zm.73,6.445A.729.729,0,0,0,12.13,37H7.174a.732.732,0,0,0,0,1.465H12.13A.729.729,0,0,0,12.86,37.733Z" fill-rule="evenodd"/>
    </g>
  </g>
</svg>
