<svg xmlns="http://www.w3.org/2000/svg" width="90" height="90" viewBox="0 0 90 90">
  <g id="Grupo_1117138" data-name="Grupo 1117138" transform="translate(-179.711 -766)">
    <g id="Elipse_11510" data-name="Elipse 11510" transform="translate(179.711 766)" fill="#fff" stroke="#ffce73" stroke-width="5">
      <circle cx="45" cy="45" r="45" stroke="none"/>
      <circle cx="45" cy="45" r="42.5" fill="none"/>
    </g>
    <g id="Grupo_1117202" data-name="Grupo 1117202" transform="translate(191.711 778)">
      <path id="Trazado_873511" data-name="Trazado 873511" d="M60.187,357.562H55.97V343.49l4.217.04Z" transform="translate(-41.672 -302.31)" fill="#fedf30" fill-rule="evenodd"/>
      <path id="Trazado_873512" data-name="Trazado 873512" d="M131.68,397.76H135.9v9H131.68Z" transform="translate(-110.303 -351.506)" fill="#ff5a5a" fill-rule="evenodd"/>
      <path id="Trazado_873513" data-name="Trazado 873513" d="M211.617,367.9H207.4V354.89l.659.78a10.87,10.87,0,0,0,3.354,2.661l.2.1Z" transform="translate(-178.944 -312.644)" fill="#05e39c" fill-rule="evenodd"/>
      <path id="Trazado_873514" data-name="Trazado 873514" d="M287.317,410.148H283.1v-8.537l.422.054a10.822,10.822,0,0,0,3.353-.085l.441-.08v8.648Z" transform="translate(-247.566 -354.896)" fill="#87d4ed" fill-rule="evenodd"/>
      <path id="Trazado_873515" data-name="Trazado 873515" d="M389.5,373.6l5.769,4.909a2.345,2.345,0,0,1,.808,1.716,2.8,2.8,0,0,1-2.913,2.912,2.345,2.345,0,0,1-1.714-.807l-4.91-5.769Z" transform="translate(-341.335 -329.605)" fill="#fedf30" fill-rule="evenodd"/>
      <path id="Trazado_873516" data-name="Trazado 873516" d="M370.97,355.51l1.7,1.448-2.919,2.919-1.462-1.719.319-.238a10.89,10.89,0,0,0,2.121-2.1Z" transform="translate(-324.791 -313.206)" fill="#f1f1f2" fill-rule="evenodd"/>
      <path id="Trazado_873517" data-name="Trazado 873517" d="M211.984,187.627A10.427,10.427,0,1,1,201.558,177.2,10.438,10.438,0,0,1,211.984,187.627Z" transform="translate(-164.195 -151.567)" fill="#fedf30" fill-rule="evenodd"/>
      <path id="Trazado_873518" data-name="Trazado 873518" d="M451.17,20.82l3.741,3.741H451.17Z" transform="translate(-399.922 -9.808)" fill="#fedf30" fill-rule="evenodd"/>
      <path id="Trazado_873519" data-name="Trazado 873519" d="M258.073,20.4a.187.187,0,0,0-.187-.187H256.11V18h17.863v4.191a.188.188,0,0,0,.187.187h4.191v27.67h-7.917l-.945-.8.169-.273a10.8,10.8,0,0,0-13.041-15.753l-.508.194V30.551h1.776a.188.188,0,0,0,.187-.187Z" transform="translate(-223.1 -7.252)" fill="#f1f1f2" fill-rule="evenodd"/>
      <path id="Trazado_873520" data-name="Trazado 873520" d="M18,45.66H41.852v9.591H18Z" transform="translate(-7.252 -32.326)" fill="#87d4ed" fill-rule="evenodd"/>
      <path id="Trazado_873521" data-name="Trazado 873521" d="M227.792,206.14a7.721,7.721,0,1,0,7.722,7.721A7.73,7.73,0,0,0,227.792,206.14Z" transform="translate(-190.429 -177.802)" fill="#f1f1f2" fill-rule="evenodd"/>
      <path id="Trazado_873522" data-name="Trazado 873522" d="M234.621,328.229a7.463,7.463,0,0,1-.731-.9l-.4-.585h1.776v2.172Z" transform="translate(-202.595 -287.126)" fill="#05e39c" fill-rule="evenodd"/>
      <g id="Grupo_1117201" data-name="Grupo 1117201" transform="translate(21.176 16.382)">
        <path id="Trazado_873523" data-name="Trazado 873523" d="M287.051,271.124a7.331,7.331,0,0,1-3.655.152l-.3-.064V261.55h4.217v9.494Z" transform="translate(-268.742 -244.413)" fill="#87d4ed" fill-rule="evenodd"/>
        <path id="Trazado_873524" data-name="Trazado 873524" d="M300.547,78.26a.187.187,0,0,0,0,.374h10.64a.187.187,0,0,0,0-.374Z" transform="translate(-284.388 -78.26)" fill="#87d4ed" fill-rule="evenodd"/>
        <path id="Trazado_873525" data-name="Trazado 873525" d="M300.547,125.74a.187.187,0,0,0,0,.374h14.39a.187.187,0,0,0,0-.374Z" transform="translate(-284.388 -121.301)" fill="#87d4ed" fill-rule="evenodd"/>
        <path id="Trazado_873526" data-name="Trazado 873526" d="M379.527,173.21a.187.187,0,1,0,0,.374h7a.187.187,0,1,0,0-.374Z" transform="translate(-355.984 -164.333)" fill="#87d4ed" fill-rule="evenodd"/>
        <path id="Trazado_873527" data-name="Trazado 873527" d="M434.53,268.347a.188.188,0,0,0,.187.187h1.846a.187.187,0,0,0,0-.374h-1.846A.186.186,0,0,0,434.53,268.347Z" transform="translate(-406.014 -250.405)" fill="#87d4ed" fill-rule="evenodd"/>
        <path id="Trazado_873528" data-name="Trazado 873528" d="M433.716,315.63h-2.139a.187.187,0,0,0,0,.374h2.139a.187.187,0,0,0,0-.374Z" transform="translate(-403.167 -293.437)" fill="#87d4ed" fill-rule="evenodd"/>
        <path id="Trazado_873529" data-name="Trazado 873529" d="M420.427,220.68a.187.187,0,0,0,0,.374h3.182a.187.187,0,0,0,0-.374Z" transform="translate(-393.06 -207.364)" fill="#87d4ed" fill-rule="evenodd"/>
        <path id="Trazado_873530" data-name="Trazado 873530" d="M129.717,109.9a.187.187,0,1,0,0,.374h11.114a.187.187,0,1,0,0-.374Z" transform="translate(-129.53 -106.942)" fill="#87d4ed" fill-rule="evenodd"/>
        <path id="Trazado_873531" data-name="Trazado 873531" d="M137.622,80.187a.187.187,0,0,0-.187-.187h-7.718a.187.187,0,1,0,0,.374h7.718A.186.186,0,0,0,137.622,80.187Z" transform="translate(-129.53 -79.837)" fill="#87d4ed" fill-rule="evenodd"/>
      </g>
      <path id="Trazado_873532" data-name="Trazado 873532" d="M43.931,70.5l1.3-.962a.187.187,0,0,0-.223-.3l-1.073.8v-.812a.188.188,0,0,0-.187-.187H38.9a.186.186,0,0,0-.187.187v4.847a.186.186,0,0,0,.187.187h4.847a.188.188,0,0,0,.187-.187Z" transform="translate(-26.026 -53.511)" fill="#f1f1f2" fill-rule="evenodd"/>
      <path id="Trazado_873533" data-name="Trazado 873533" d="M47.183,77.5H42.71V73.03h4.473v.9L45,75.557l-.8-1.043a.187.187,0,1,0-.3.226l.91,1.192a.188.188,0,0,0,.26.036L47.184,74.4v3.1Z" transform="translate(-29.652 -57.137)" fill="#05e39c" fill-rule="evenodd"/>
      <path id="Trazado_873534" data-name="Trazado 873534" d="M17.157,19.992H13.432V16.267h3.725v.341L15.416,17.9l-.574-.751a.561.561,0,0,0-.892.68l.91,1.192a.561.561,0,0,0,.78.11l1.517-1.126v1.986Zm1.6-4.57-.476.353v-.069a.561.561,0,0,0-.561-.561H12.871a.561.561,0,0,0-.561.561v4.847a.561.561,0,0,0,.561.561h4.847a.561.561,0,0,0,.561-.561v-3.38l1.144-.85a.561.561,0,0,0-.668-.9Zm14.282,4.105a.561.561,0,0,1-.561.561H21.363a.561.561,0,1,1,0-1.122H32.476A.561.561,0,0,1,33.037,19.527ZM20.8,16.732a.561.561,0,0,1,.561-.561h7.718a.561.561,0,1,1,0,1.122H21.363A.561.561,0,0,1,20.8,16.732ZM37.363,29.086a6.972,6.972,0,0,1,3.136,13.2V33.332a.561.561,0,0,0-.561-.561H35.347a.561.561,0,0,0-.561.561v9.206a6.913,6.913,0,0,1-1.366-.73v-2.38a.561.561,0,0,0-.561-.561H30.98a6.969,6.969,0,0,1,6.382-9.78ZM35.908,42.88a6.961,6.961,0,0,0,3.469-.145V33.893H35.908ZM32.3,40.846v-.858h-.694A6.876,6.876,0,0,0,32.3,40.846Zm5.064,3.309a8.1,8.1,0,1,0-8.1-8.1A8.105,8.105,0,0,0,37.363,44.155Zm14.923-5.393a.561.561,0,0,1-.561.561H49.585a.561.561,0,1,1,0-1.122h2.139A.561.561,0,0,1,52.285,38.762Zm0-4.438a.561.561,0,0,1-.561.561H49.879a.561.561,0,0,1,0-1.122h1.846A.56.56,0,0,1,52.285,34.324Zm0-4.439a.56.56,0,0,1-.561.561H48.543a.561.561,0,0,1,0-1.122h3.182A.561.561,0,0,1,52.285,29.885Zm0-4.438a.561.561,0,0,1-.561.561h-7a.561.561,0,1,1,0-1.122h7A.561.561,0,0,1,52.285,25.446Zm0-4.438a.561.561,0,0,1-.561.561H37.334a.561.561,0,0,1,0-1.122h14.39A.56.56,0,0,1,52.285,21.008ZM36.773,16.569a.561.561,0,0,1,.561-.561h10.64a.561.561,0,0,1,0,1.122H37.334A.56.56,0,0,1,36.773,16.569Zm10.7,25.854h7.406V15.5H51.061a.561.561,0,0,1-.561-.561V11.122H33.384v1.464h1.4a.561.561,0,0,1,.561.561v9.965a.561.561,0,0,1-.561.561h-1.4v1.944a11.172,11.172,0,0,1,13.492,16.3Zm6.9,8.213a2.428,2.428,0,0,1-2.524,2.523,1.969,1.969,0,0,1-1.445-.676l-4.686-5.506L48.187,44.5l5.506,4.686A1.972,1.972,0,0,1,54.368,50.635Zm-8.132-7.791,1.093.93L44.983,46.12l-.942-1.107A11.268,11.268,0,0,0,46.236,42.844Zm-6.86,12.034H35.908V47.14a11.3,11.3,0,0,0,1.455.094,11.166,11.166,0,0,0,2.014-.182Zm-24.7-13.32,3.469.033V54.878H14.672Zm7.079,5.07h3.469v8.25H21.751Zm7.079-3.361A11.246,11.246,0,0,0,32.3,46.019v8.859H28.829Zm5.958,3.668v7.943H33.421V46.516A11.159,11.159,0,0,0,34.787,46.935Zm2.576-20.928A10.053,10.053,0,1,0,47.415,36.059,10.064,10.064,0,0,0,37.363,26.007Zm-26.241-12.3v8.843h23.1V13.708Zm40.5-1.793,2.464,2.464H51.622ZM56,14.939a.559.559,0,0,0-.164-.4l-4.378-4.378a.559.559,0,0,0-.4-.164H32.824a.561.561,0,0,0-.561.561v2.025h-21.7a.561.561,0,0,0-.561.561v9.965a.561.561,0,0,0,.561.561h21.7v2.445a11.166,11.166,0,0,0-4.555,15.563v13.2H26.342V46.067a.561.561,0,0,0-.561-.561H21.191a.561.561,0,0,0-.561.561v8.811H19.264V41.034a.561.561,0,0,0-.555-.561l-4.591-.042h-.006a.562.562,0,0,0-.561.561V54.878H11.122V29.314a.561.561,0,0,0-1.122,0V55.439a.561.561,0,0,0,.561.561h34.7a.561.561,0,0,0,0-1.122H40.5V46.786A11.127,11.127,0,0,0,43.1,45.643l6.441,7.567A3.077,3.077,0,0,0,51.8,54.28l.141,0A3.548,3.548,0,0,0,55.49,50.59a3.08,3.08,0,0,0-1.07-2.254l-5.629-4.792h6.648A.561.561,0,0,0,56,42.984V14.939Z" fill-rule="evenodd"/>
    </g>
  </g>
</svg>
