<svg xmlns="http://www.w3.org/2000/svg" width="90" height="90" viewBox="0 0 90 90">
  <g id="Grupo_1117140" data-name="Grupo 1117140" transform="translate(-179.711 -766)">
    <g id="Elipse_11510" data-name="Elipse 11510" transform="translate(179.711 766)" fill="#fff" stroke="#ffce73" stroke-width="5">
      <circle cx="45" cy="45" r="45" stroke="none"/>
      <circle cx="45" cy="45" r="42.5" fill="none"/>
    </g>
    <g id="Grupo_1117311" data-name="Grupo 1117311" transform="translate(197.678 761.754)">
      <g id="Grupo_1117302" data-name="Grupo 1117302" transform="translate(33.154 54.963)">
        <path id="Trazado_874515" data-name="Trazado 874515" d="M324.508,320.308l-2.53,2.53a1.612,1.612,0,0,1-2.28,0l-11.25-11.25,4.81-4.81,11.25,11.25A1.612,1.612,0,0,1,324.508,320.308Z" transform="translate(-308.449 -306.778)" fill="#9d6b6b"/>
      </g>
      <g id="Grupo_1117303" data-name="Grupo 1117303" transform="translate(35.964 54.963)">
        <path id="Trazado_874516" data-name="Trazado 874516" d="M347.845,318.027,336.6,306.778l-2,2,9.352,9.352a1.468,1.468,0,0,1,0,2.076l-1.773,1.773.859.859a1.613,1.613,0,0,0,2.281,0l2.529-2.529A1.613,1.613,0,0,0,347.845,318.027Z" transform="translate(-334.596 -306.778)" fill="#785252"/>
      </g>
      <g id="Grupo_1117304" data-name="Grupo 1117304" transform="translate(12.145 33.954)">
        <circle id="Elipse_11525" data-name="Elipse 11525" cx="15.626" cy="15.626" r="15.626" transform="translate(0 0)" fill="#b3d8fb"/>
      </g>
      <g id="Grupo_1117305" data-name="Grupo 1117305" transform="translate(14.053 35.862)">
        <path id="Trazado_874517" data-name="Trazado 874517" d="M155.506,131.736a15.631,15.631,0,0,0-3.56-2.669,15.63,15.63,0,0,1-21.206,21.206,15.627,15.627,0,1,0,24.767-18.538Z" transform="translate(-130.739 -129.067)" fill="#89c6fc"/>
      </g>
      <g id="Grupo_1117306" data-name="Grupo 1117306" transform="translate(17.1 43.589)">
        <path id="Trazado_874518" data-name="Trazado 874518" d="M179.918,205.763a1.743,1.743,0,0,1,0,2.527c-1.873,1.778-5.711,4.8-10.141,4.8s-8.268-3.025-10.141-4.8a1.743,1.743,0,0,1,0-2.527c1.873-1.778,5.711-4.8,10.141-4.8S178.046,203.985,179.918,205.763Z" transform="translate(-159.095 -200.96)" fill="#fceed9"/>
      </g>
      <g id="Grupo_1117307" data-name="Grupo 1117307" transform="translate(17.144 46.505)">
        <path id="Trazado_874519" data-name="Trazado 874519" d="M180.282,229.976a22.372,22.372,0,0,0-2.27-1.887,1.74,1.74,0,0,1-.5,1.646c-1.873,1.778-5.711,4.8-10.141,4.8a13.827,13.827,0,0,1-7.871-2.916,1.731,1.731,0,0,0,.5.881c1.873,1.778,5.71,4.8,10.141,4.8s8.268-3.025,10.141-4.8A1.743,1.743,0,0,0,180.282,229.976Z" transform="translate(-159.502 -228.089)" fill="#fad59a"/>
      </g>
      <g id="Grupo_1117308" data-name="Grupo 1117308" transform="translate(24.633 46.505)">
        <circle id="Elipse_11526" data-name="Elipse 11526" cx="3.151" cy="3.151" r="3.151" transform="translate(0 0)" fill="#7c8b96"/>
      </g>
      <g id="Grupo_1117309" data-name="Grupo 1117309" transform="translate(24.807 46.68)">
        <path id="Trazado_874520" data-name="Trazado 874520" d="M234.8,229.714a3.151,3.151,0,0,1-4.011,4.011,3.151,3.151,0,1,0,4.011-4.011Z" transform="translate(-230.794 -229.714)" fill="#465961"/>
      </g>
      <g id="Grupo_1117310" data-name="Grupo 1117310" transform="translate(0 24.637)">
        <path id="Trazado_874521" data-name="Trazado 874521" d="M141.278,133.721a.806.806,0,0,0-1.141,1.141l2.65,2.65a.834.834,0,0,1,0,1.14l-2.529,2.529a.807.807,0,0,1-1.14,0l-7.566-7.566a16.368,16.368,0,0,0,3.671-3.668l2.34,2.34a.806.806,0,0,0,1.14-1.141l-2.581-2.581a16.433,16.433,0,1,0-26.175,3,.806.806,0,0,0,1.174-1.106,14.819,14.819,0,1,1,21.272.324,14.913,14.913,0,0,1-18.4,2.047.806.806,0,0,0-.864,1.362,16.428,16.428,0,0,0,17.045.318l7.808,7.808a2.422,2.422,0,0,0,3.421,0l2.529-2.529a2.422,2.422,0,0,0,0-3.421Z" transform="translate(-94.145 -95.366)"/>
        <path id="Trazado_874522" data-name="Trazado 874522" d="M168.481,195.64a.806.806,0,0,0-.414-1.063,12.388,12.388,0,0,0-4.986-1.119c-4.7,0-8.719,3.148-10.7,5.025a2.55,2.55,0,0,0,0,3.7c1.977,1.877,6,5.025,10.7,5.025s8.719-3.148,10.7-5.025a2.55,2.55,0,0,0,0-3.7,23.139,23.139,0,0,0-2.222-1.862.806.806,0,0,0-.955,1.3,21.529,21.529,0,0,1,2.067,1.731.936.936,0,0,1,0,1.357c-1.8,1.711-5.445,4.582-9.585,4.582s-7.783-2.871-9.585-4.582a.937.937,0,0,1,0-1.357c1.8-1.711,5.445-4.582,9.585-4.582a10.789,10.789,0,0,1,4.337.983.806.806,0,0,0,1.063-.414Z" transform="translate(-135.298 -175.312)"/>
        <path id="Trazado_874523" data-name="Trazado 874523" d="M221.667,224.543a3.957,3.957,0,1,0,3.957-3.957A3.962,3.962,0,0,0,221.667,224.543Zm6.3,0a2.344,2.344,0,1,1-2.344-2.344A2.347,2.347,0,0,1,227.969,224.543Z" transform="translate(-197.841 -199.524)"/>
        <path id="Trazado_874524" data-name="Trazado 874524" d="M381.539,45.878a.8.8,0,0,0,.57-.236l3.519-3.519,1.519,1.519a1.2,1.2,0,0,0,1.7,0l4.267-4.267v1.083a.806.806,0,0,0,1.613,0V37.47a.806.806,0,0,0-.806-.806h-2.988a.806.806,0,0,0,0,1.613h1L388,42.212l-1.519-1.519a1.2,1.2,0,0,0-1.7,0L380.969,44.5a.806.806,0,0,0,.57,1.377Z" transform="translate(-339.809 -35.371)"/>
        <path id="Trazado_874525" data-name="Trazado 874525" d="M5.093,32.942A4.153,4.153,0,1,0,.94,28.79,4.157,4.157,0,0,0,5.093,32.942Zm0-6.692a2.54,2.54,0,1,1-2.54,2.54,2.543,2.543,0,0,1,2.54-2.54Z" transform="translate(-0.839 -24.637)"/>
        <path id="Trazado_874526" data-name="Trazado 874526" d="M6.24,127.624a4.153,4.153,0,1,0,4.153,4.153,4.157,4.157,0,0,0-4.153-4.153Zm0,6.692a2.54,2.54,0,1,1,2.54-2.54A2.543,2.543,0,0,1,6.24,134.316Z" transform="translate(-1.863 -116.554)"/>
        <path id="Trazado_874527" data-name="Trazado 874527" d="M6.24,229.406a4.153,4.153,0,1,0,4.153,4.153,4.157,4.157,0,0,0-4.153-4.153Zm0,6.692a2.54,2.54,0,1,1,2.54-2.54A2.543,2.543,0,0,1,6.24,236.1Z" transform="translate(-1.863 -207.396)"/>
        <path id="Trazado_874528" data-name="Trazado 874528" d="M101.993,38.224h7.137a.806.806,0,0,0,0-1.613h-7.137a.806.806,0,1,0,0,1.613Z" transform="translate(-90.311 -35.324)"/>
        <path id="Trazado_874529" data-name="Trazado 874529" d="M101.993,70.195h3.568a.806.806,0,1,0,0-1.613h-3.568a.806.806,0,1,0,0,1.613Z" transform="translate(-90.311 -63.859)"/>
        <path id="Trazado_874530" data-name="Trazado 874530" d="M465.1,142.775h-3.938a.806.806,0,0,0,0,1.613H465.1a.806.806,0,0,0,0-1.613Z" transform="translate(-410.878 -130.077)"/>
        <circle id="Elipse_11527" data-name="Elipse 11527" cx="0.896" cy="0.896" r="0.896" transform="translate(46.402 12.63)"/>
        <path id="Trazado_874531" data-name="Trazado 874531" d="M465.1,173.356h-3.938a.806.806,0,0,0,0,1.613H465.1a.806.806,0,0,0,0-1.613Z" transform="translate(-410.878 -157.371)"/>
        <circle id="Elipse_11528" data-name="Elipse 11528" cx="0.896" cy="0.896" r="0.896" transform="translate(46.402 15.917)"/>
        <path id="Trazado_874532" data-name="Trazado 874532" d="M266.793,440.751h-3.938a.806.806,0,0,0,0,1.613h3.938a.806.806,0,1,0,0-1.613Z" transform="translate(-233.882 -396.025)"/>
        <path id="Trazado_874533" data-name="Trazado 874533" d="M234.293,440.115a.9.9,0,1,0,.9.9A.9.9,0,0,0,234.293,440.115Z" transform="translate(-208.31 -395.457)"/>
        <path id="Trazado_874534" data-name="Trazado 874534" d="M266.793,471.333h-3.938a.806.806,0,0,0,0,1.613h3.938a.806.806,0,1,0,0-1.613Z" transform="translate(-233.882 -423.32)"/>
        <circle id="Elipse_11529" data-name="Elipse 11529" cx="0.896" cy="0.896" r="0.896" transform="translate(25.087 47.945)"/>
        <path id="Trazado_874535" data-name="Trazado 874535" d="M465.1,204h-3.938a.806.806,0,0,0,0,1.613H465.1a.806.806,0,0,0,0-1.613Z" transform="translate(-410.878 -184.722)"/>
        <path id="Trazado_874536" data-name="Trazado 874536" d="M465.1,234.583h-3.938a.806.806,0,0,0,0,1.613H465.1a.806.806,0,0,0,0-1.613Z" transform="translate(-410.878 -212.017)"/>
        <circle id="Elipse_11530" data-name="Elipse 11530" cx="0.896" cy="0.896" r="0.896" transform="translate(46.402 22.498)"/>
        <path id="Trazado_874537" data-name="Trazado 874537" d="M465.1,265.165h-3.938a.806.806,0,0,0,0,1.613H465.1a.806.806,0,0,0,0-1.613Z" transform="translate(-410.878 -239.312)"/>
        <path id="Trazado_874538" data-name="Trazado 874538" d="M465.1,295.746h-3.938a.806.806,0,0,0,0,1.613H465.1a.806.806,0,0,0,0-1.613Z" transform="translate(-410.878 -266.606)"/>
        <path id="Trazado_874539" data-name="Trazado 874539" d="M432.6,295.11a.9.9,0,1,0,.9.9A.9.9,0,0,0,432.6,295.11Z" transform="translate(-385.306 -266.038)"/>
        <path id="Trazado_874540" data-name="Trazado 874540" d="M21.762,398.868H18.745v-4.61a1.238,1.238,0,0,0-1.237-1.237H14.584a1.238,1.238,0,0,0-1.237,1.237v4.61H12.2v-7.5a1.238,1.238,0,0,0-1.237-1.237H8.037A1.238,1.238,0,0,0,6.8,391.371v7.5H5.807v-2.548a1.238,1.238,0,0,0-1.237-1.237H1.646a1.238,1.238,0,0,0-1.237,1.237v2.654a.806.806,0,0,0,.4,1.508H21.762a.806.806,0,0,0,0-1.613Zm-6.8-4.234h2.172v4.234H14.96Zm-6.547-2.887h2.172v7.121H8.413ZM2.022,396.7H4.194v2.172H2.022Z" transform="translate(0 -350.848)"/>
      </g>
    </g>
  </g>
</svg>
