<svg xmlns="http://www.w3.org/2000/svg" xmlns:xlink="http://www.w3.org/1999/xlink" width="139" height="139" viewBox="0 0 139 139">
  <defs>
    <clipPath id="clip-path">
      <rect id="Rectángulo_400938" data-name="Rectángulo 400938" width="139" height="139" transform="translate(-0.043 -0.043)" fill="none"/>
    </clipPath>
    <clipPath id="clip-path-2">
      <rect id="Rectángulo_401073" data-name="Rectángulo 401073" width="105.872" height="47.68" fill="#7d3a1b"/>
    </clipPath>
  </defs>
  <g id="Grupo_1118365" data-name="Grupo 1118365" transform="translate(-1042.492 -2102.563)">
    <g id="Grupo_1117780" data-name="Grupo 1117780" transform="translate(777.535 -3181.395)">
      <g id="Grupo_1099379" data-name="Grupo 1099379" transform="translate(265 5284)">
        <rect id="Rectángulo_401103" data-name="Rectángulo 401103" width="139" height="139" transform="translate(-0.043 -0.043)" fill="none"/>
        <g id="Grupo_1099348" data-name="Grupo 1099348" transform="translate(0)">
          <g id="Grupo_1099282" data-name="Grupo 1099282">
            <g id="Grupo_1099281" data-name="Grupo 1099281" clip-path="url(#clip-path-2)">
              <path id="Trazado_873375" data-name="Trazado 873375" d="M85.879,10.449c-4.752,0-7.21-2.33-9.379-4.386C74.371,4.047,72.538,2.3,68.7,2.3s-5.668,1.742-7.8,3.758c-2.17,2.056-4.624,4.386-9.379,4.386s-7.21-2.33-9.379-4.386C40.018,4.047,38.184,2.3,34.349,2.3s-5.668,1.742-7.794,3.758c-2.17,2.056-4.627,4.386-9.379,4.386S9.963,8.119,7.794,6.063C5.668,4.047,3.835,2.3,0,2.3V0C4.752,0,7.21,2.334,9.379,4.386c2.129,2.02,3.963,3.758,7.8,3.758s5.668-1.738,7.794-3.755C27.136,2.334,29.6,0,34.349,0s7.213,2.334,9.379,4.386c2.129,2.02,3.963,3.758,7.8,3.758s5.668-1.738,7.8-3.758C61.489,2.334,63.951,0,68.7,0s7.213,2.334,9.379,4.386c2.129,2.02,3.963,3.758,7.8,3.758s5.668-1.738,7.8-3.758C95.843,2.334,98.3,0,103.056,0V2.3c-3.835,0-5.668,1.742-7.8,3.758-2.169,2.056-4.627,4.386-9.379,4.386" transform="translate(2.816 37.231)" fill="#7d3a1b"/>
              <path id="Trazado_873376" data-name="Trazado 873376" d="M85.879,10.449c-4.752,0-7.213-2.33-9.379-4.39C74.371,4.043,72.538,2.3,68.7,2.3s-5.668,1.738-7.8,3.755c-2.166,2.06-4.624,4.39-9.379,4.39s-7.213-2.33-9.379-4.39C40.018,4.043,38.184,2.3,34.349,2.3s-5.668,1.742-7.794,3.755c-2.17,2.06-4.627,4.39-9.379,4.39s-7.213-2.33-9.383-4.39C5.668,4.043,3.835,2.3,0,2.3V0C4.752,0,7.213,2.33,9.379,4.386c2.129,2.02,3.963,3.758,7.8,3.758s5.668-1.738,7.794-3.758C27.136,2.33,29.6,0,34.349,0s7.213,2.33,9.383,4.386c2.126,2.02,3.959,3.758,7.794,3.758s5.668-1.738,7.8-3.758C61.489,2.33,63.951,0,68.7,0s7.213,2.33,9.379,4.386c2.129,2.02,3.963,3.758,7.8,3.758s5.668-1.738,7.8-3.758C95.846,2.33,98.3,0,103.059,0V2.3c-3.835,0-5.672,1.742-7.8,3.755-2.169,2.06-4.628,4.39-9.379,4.39" transform="translate(1.877 24.821)" fill="#7d3a1b"/>
              <path id="Trazado_873377" data-name="Trazado 873377" d="M85.879,10.449c-4.752,0-7.213-2.33-9.379-4.39C74.371,4.043,72.538,2.3,68.7,2.3s-5.668,1.738-7.8,3.755c-2.166,2.06-4.627,4.39-9.379,4.39s-7.213-2.33-9.379-4.39C40.018,4.043,38.184,2.3,34.349,2.3s-5.668,1.742-7.794,3.755c-2.169,2.06-4.627,4.39-9.379,4.39s-7.213-2.33-9.383-4.39C5.668,4.043,3.835,2.3,0,2.3V0C4.752,0,7.213,2.33,9.379,4.386c2.126,2.02,3.963,3.758,7.8,3.758s5.668-1.738,7.794-3.758C27.136,2.33,29.6,0,34.349,0s7.213,2.33,9.383,4.386c2.126,2.02,3.959,3.758,7.794,3.758s5.668-1.738,7.8-3.758C61.489,2.33,63.951,0,68.7,0s7.213,2.33,9.379,4.386c2.129,2.02,3.963,3.758,7.8,3.758s5.668-1.738,7.8-3.758C95.846,2.33,98.3,0,103.059,0V2.3c-3.835,0-5.672,1.742-7.8,3.755-2.169,2.06-4.627,4.39-9.379,4.39" transform="translate(0.939 12.41)" fill="#7d3a1b"/>
              <path id="Trazado_873378" data-name="Trazado 873378" d="M85.879,10.445c-4.752,0-7.21-2.33-9.379-4.386C74.371,4.043,72.538,2.3,68.7,2.3s-5.668,1.738-7.794,3.755c-2.169,2.056-4.627,4.386-9.383,4.386s-7.21-2.33-9.379-4.386C40.018,4.043,38.184,2.3,34.349,2.3s-5.668,1.738-7.794,3.751c-2.166,2.06-4.627,4.39-9.379,4.39S9.963,8.115,7.794,6.059C5.668,4.043,3.835,2.3,0,2.3V0C4.752,0,7.213,2.33,9.379,4.386c2.129,2.016,3.963,3.755,7.8,3.755S22.845,6.4,24.971,4.386C27.14,2.33,29.6,0,34.349,0s7.21,2.33,9.383,4.386c2.126,2.016,3.959,3.755,7.794,3.755s5.668-1.738,7.8-3.755C61.493,2.33,63.951,0,68.7,0s7.21,2.33,9.379,4.386c2.129,2.016,3.963,3.755,7.8,3.755s5.668-1.738,7.8-3.755C95.846,2.33,98.3,0,103.059,0V2.3c-3.839,0-5.672,1.738-7.8,3.755-2.169,2.056-4.627,4.386-9.379,4.386" transform="translate(0 0.004)" fill="#7d3a1b"/>
            </g>
          </g>
        </g>
        <path id="Trazado_873425" data-name="Trazado 873425" d="M57.977,0A57.977,57.977,0,1,1,0,57.977,57.977,57.977,0,0,1,57.977,0Z" transform="translate(17.221 20.665)" fill="#efb499"/>
        <circle id="Elipse_11503" data-name="Elipse 11503" cx="60.5" cy="60.5" r="60.5" transform="translate(8.957 8.957)" fill="#fff"/>
      </g>
    </g>
    <g id="Grupo_1117879" data-name="Grupo 1117879" transform="translate(1072.156 2131)">
      <g id="Grupo_1117877" data-name="Grupo 1117877" transform="translate(0.001 41.978)">
        <path id="Trazado_904211" data-name="Trazado 904211" d="M6.565,45.1q-1.13,0-2.379,0l-2.874,0a1.311,1.311,0,0,1,0-2.621l2.879,0c6.7.013,12.488.026,13.224-1.083a7.949,7.949,0,0,0,.565-1.27c.558-1.447,1.324-3.427,3.312-3.952a4.182,4.182,0,0,1,2.093.047c.484.107.616.123.8.034a1.743,1.743,0,0,0,.87-1.6c-.014-.048-.028-.1-.215-.224a1.31,1.31,0,1,1,1.434-2.194,2.934,2.934,0,0,1,1.308,1.72,4.27,4.27,0,0,1-2.263,4.657,3.54,3.54,0,0,1-2.506.16,1.8,1.8,0,0,0-.856-.069c-.691.182-1.138,1.338-1.532,2.359a9.281,9.281,0,0,1-.824,1.773C18.215,44.928,14.466,45.1,6.566,45.1Z" transform="translate(-0.001 -32.029)" fill="#7d3a1b"/>
        <path id="Trazado_904212" data-name="Trazado 904212" d="M70.7,49.023c-.042,0-.084,0-.126-.007-4.43-.052-8.114-2.908-10.811-5-1.1-.851-2.6-2.014-3.1-2.014h0a9.339,9.339,0,0,0-2.448.472,16.633,16.633,0,0,1-5.419.761c-2-.055-6.155-.17-8.725-2.864a6.621,6.621,0,0,1-1.128-7.644,1.311,1.311,0,1,1,2.322,1.219,4,4,0,0,0,.7,4.615c1.826,1.912,5.252,2.007,6.9,2.051a13.693,13.693,0,0,0,4.633-.662,11.875,11.875,0,0,1,3.114-.573c1.464-.058,2.822,1.062,4.761,2.564,2.557,1.983,5.742,4.451,9.33,4.451a1.313,1.313,0,0,1,0,2.626Z" transform="translate(11.864 -32.029)" fill="#7d3a1b"/>
      </g>
      <path id="Trazado_904213" data-name="Trazado 904213" d="M53.311,38.591A1.309,1.309,0,0,1,52,37.281V16.311a1.311,1.311,0,1,1,2.621,0v20.97A1.309,1.309,0,0,1,53.311,38.591Z" transform="translate(16.152 4.659)" fill="#7d3a1b"/>
      <path id="Trazado_904214" data-name="Trazado 904214" d="M53.312,22.932a1.311,1.311,0,0,1-.588-2.484l2.621-1.311a1.311,1.311,0,0,1,1.173,2.345L53.9,22.793a1.318,1.318,0,0,1-.585.138Z" transform="translate(16.152 5.902)" fill="#7d3a1b"/>
      <path id="Trazado_904215" data-name="Trazado 904215" d="M53.931,20.932a1.314,1.314,0,0,1-.585-.138l-2.621-1.311A1.311,1.311,0,0,1,51.9,17.139l2.621,1.311a1.311,1.311,0,0,1-.588,2.484Z" transform="translate(15.531 5.281)" fill="#7d3a1b"/>
      <path id="Trazado_904216" data-name="Trazado 904216" d="M40.311,38.281A1.309,1.309,0,0,1,39,36.97V17.311a1.311,1.311,0,1,1,2.621,0V36.97A1.309,1.309,0,0,1,40.311,38.281Z" transform="translate(12.114 4.97)" fill="#7d3a1b"/>
      <path id="Trazado_904217" data-name="Trazado 904217" d="M40.312,23.932a1.311,1.311,0,0,1-.588-2.484l2.621-1.311a1.311,1.311,0,0,1,1.173,2.345L40.9,23.793a1.318,1.318,0,0,1-.585.138Z" transform="translate(12.114 6.212)" fill="#7d3a1b"/>
      <path id="Trazado_904218" data-name="Trazado 904218" d="M40.931,21.932a1.314,1.314,0,0,1-.585-.138l-2.621-1.311A1.311,1.311,0,0,1,38.9,18.139l2.621,1.311a1.311,1.311,0,0,1-.588,2.484Z" transform="translate(11.493 5.592)" fill="#7d3a1b"/>
      <path id="Trazado_904219" data-name="Trazado 904219" d="M61.349,32.591a7.778,7.778,0,0,1-5.857-2.649q-.311-.029-.633-.087a6.487,6.487,0,0,1-5.305,2.737A6.561,6.561,0,0,1,43,26.039a6.462,6.462,0,0,1,1.76-4.45,5.132,5.132,0,0,1-.45-2.1,5.245,5.245,0,0,1,6.649-5.051A6.542,6.542,0,0,1,63.43,12.989,5.25,5.25,0,0,1,67.9,18.175a5.139,5.139,0,0,1-.318,1.769,7.857,7.857,0,0,1-6.235,12.648Zm-5.215-5.245a1.312,1.312,0,0,1,1.046.52A5.228,5.228,0,1,0,65.1,21.072a1.311,1.311,0,0,1-.191-1.581,2.574,2.574,0,0,0,.374-1.318,2.624,2.624,0,0,0-2.621-2.621c.017.007-.052.014-.123.017a1.264,1.264,0,0,1-1.326-.986A3.921,3.921,0,0,0,53.581,16.4a1.31,1.31,0,0,1-2.2,1.215,2.61,2.61,0,0,0-3.91,3.442,1.31,1.31,0,0,1-.261,1.841,3.9,3.9,0,0,0-1.594,3.14,3.919,3.919,0,0,0,7.439,1.734,1.315,1.315,0,0,1,1.55-.674,5.183,5.183,0,0,0,1.448.249l.075,0Z" transform="translate(13.357 2.796)" fill="#7d3a1b"/>
      <path id="Trazado_904220" data-name="Trazado 904220" d="M38.553,32.038c-3.8,0-6.553-3-6.553-7.13a7.053,7.053,0,0,1,1.433-4.28,4.688,4.688,0,0,1-.266-1.552A4.818,4.818,0,0,1,37.19,14.33a5.963,5.963,0,0,1,11.3,1.237,4.744,4.744,0,0,1,1.126-.136,1.342,1.342,0,0,1,1.349,1.311,1.276,1.276,0,0,1-1.271,1.311h-.079a2.17,2.17,0,0,0-1.52.633,1.31,1.31,0,0,1-2.2-1.191,3.976,3.976,0,0,0,.092-.752,3.341,3.341,0,0,0-6.581-.818,1.308,1.308,0,0,1-1.519.963,2.192,2.192,0,0,0-2.1,2.187,2.118,2.118,0,0,0,.312,1.1,1.311,1.311,0,0,1-.191,1.592,4.446,4.446,0,0,0-1.286,3.142c0,2.172,1.229,4.509,3.932,4.509A5.737,5.737,0,0,0,42.724,27.6a1.3,1.3,0,0,1,1.045-.519,2.623,2.623,0,0,1,1.151.309,8.711,8.711,0,0,0,4.118.713,1.311,1.311,0,0,1,0,2.621,11.723,11.723,0,0,1-4.893-.809,8.61,8.61,0,0,1-5.592,2.119Z" transform="translate(9.94 3.349)" fill="#7d3a1b"/>
      <path id="Trazado_904221" data-name="Trazado 904221" d="M40.523,37.577a1.3,1.3,0,0,1-.969-.427L29.37,25.98a2.678,2.678,0,0,0-3.9-.007L15.279,37.15a1.311,1.311,0,0,1-1.937-1.767L23.527,24.214a5.243,5.243,0,0,1,7.788.007l10.18,11.164a1.311,1.311,0,0,1-.969,2.194Z" transform="translate(4.038 6.984)" fill="#7d3a1b"/>
      <path id="Trazado_904222" data-name="Trazado 904222" d="M1.311,39.117a1.311,1.311,0,0,1-.986-2.174l15.439-17.6a5.236,5.236,0,0,1,3.91-1.813,5.156,5.156,0,0,1,3.936,1.735l5.87,6.526a1.31,1.31,0,0,1-1.948,1.754l-5.872-6.527a2.779,2.779,0,0,0-1.959-.865,2.62,2.62,0,0,0-1.957.91L2.3,38.67a1.307,1.307,0,0,1-.986.447Z" transform="translate(0 5.444)" fill="#7d3a1b"/>
      <path id="Trazado_904223" data-name="Trazado 904223" d="M13.932,27.787c-.042,0-.085,0-.13-.007a1.308,1.308,0,0,1-.961-.577L10.22,23.272A1.311,1.311,0,1,1,12.4,21.817l1.734,2.6,1.491-1.491a1.3,1.3,0,0,1,1.512-.246l1.586.793,1.758-2.641a1.31,1.31,0,0,1,2.181,1.452l-2.4,3.6a1.314,1.314,0,0,1-1.676.447l-1.776-.889L14.86,27.4a1.312,1.312,0,0,1-.927.384Z" transform="translate(3.106 6.289)" fill="#7d3a1b"/>
      <path id="Trazado_904224" data-name="Trazado 904224" d="M22.879,31.606c-.042,0-.085,0-.128-.007a1.309,1.309,0,0,1-.962-.575l-2.4-3.591a1.312,1.312,0,1,1,2.181-1.457l1.51,2.263,1.493-1.491a1.306,1.306,0,0,1,1.512-.246l1.587.793,1.26-1.883a1.31,1.31,0,1,1,2.178,1.457l-1.9,2.844a1.311,1.311,0,0,1-1.675.444l-1.776-.889-1.953,1.953a1.312,1.312,0,0,1-.927.384Z" transform="translate(5.954 7.713)" fill="#7d3a1b"/>
      <path id="Trazado_904225" data-name="Trazado 904225" d="M25.485,19.727a8.714,8.714,0,0,1-6.545-2.621h-.008a3.932,3.932,0,0,1-1.189-7.68,5.254,5.254,0,0,1,5.121-4.115,5.171,5.171,0,0,1,2.717.772A5.875,5.875,0,0,1,35.793,8.556a5.231,5.231,0,0,1-2.444,9.861,5.136,5.136,0,0,1-2.2-.491A9.31,9.31,0,0,1,25.485,19.727ZM19.528,14.41a1.314,1.314,0,0,1,1.1.6,5.813,5.813,0,0,0,4.857,2.1,6.294,6.294,0,0,0,4.54-1.691,1.31,1.31,0,0,1,1.755-.159,2.593,2.593,0,0,0,1.569.539,2.611,2.611,0,0,0,.844-5.085,1.312,1.312,0,0,1-.882-1.118,3.258,3.258,0,0,0-6.235-1.01,1.31,1.31,0,0,1-2.207.308,2.606,2.606,0,0,0-4.625,1.662,1.309,1.309,0,0,1-1.311,1.311,1.311,1.311,0,0,0,0,2.621,1.368,1.368,0,0,0,.3-.039,1.291,1.291,0,0,1,.3-.034Z" transform="translate(4.659 1.242)" fill="#7d3a1b"/>
      <g id="Grupo_1117878" data-name="Grupo 1117878">
        <path id="Trazado_904226" data-name="Trazado 904226" d="M7.932,11.864a3.932,3.932,0,1,1,3.932-3.932A3.937,3.937,0,0,1,7.932,11.864Zm0-5.242A1.311,1.311,0,1,0,9.242,7.932,1.311,1.311,0,0,0,7.932,6.621Z" transform="translate(1.242 1.242)" fill="#7d3a1b"/>
        <path id="Trazado_904227" data-name="Trazado 904227" d="M7.311,14.932A1.309,1.309,0,0,1,6,13.621V12.311a1.311,1.311,0,1,1,2.621,0v1.311A1.309,1.309,0,0,1,7.311,14.932Z" transform="translate(1.864 3.417)" fill="#7d3a1b"/>
        <path id="Trazado_904228" data-name="Trazado 904228" d="M7.311,3.932A1.309,1.309,0,0,1,6,2.621V1.311a1.311,1.311,0,0,1,2.621,0V2.621A1.309,1.309,0,0,1,7.311,3.932Z" transform="translate(1.864)" fill="#7d3a1b"/>
        <path id="Trazado_904229" data-name="Trazado 904229" d="M2.621,8.621H1.311A1.311,1.311,0,0,1,1.311,6H2.621a1.311,1.311,0,0,1,0,2.621Z" transform="translate(0 1.864)" fill="#7d3a1b"/>
        <path id="Trazado_904230" data-name="Trazado 904230" d="M13.621,8.621H12.311a1.311,1.311,0,0,1,0-2.621h1.311a1.311,1.311,0,1,1,0,2.621Z" transform="translate(3.417 1.864)" fill="#7d3a1b"/>
        <path id="Trazado_904231" data-name="Trazado 904231" d="M11.772,13.083a1.307,1.307,0,0,1-.927-.384l-.927-.927a1.31,1.31,0,0,1,1.853-1.853l.927.927a1.311,1.311,0,0,1-.927,2.237Z" transform="translate(2.962 2.962)" fill="#7d3a1b"/>
        <path id="Trazado_904232" data-name="Trazado 904232" d="M4,5.306a1.307,1.307,0,0,1-.927-.384L2.142,4A1.31,1.31,0,0,1,4,2.142l.927.927A1.311,1.311,0,0,1,4,5.306Z" transform="translate(0.546 0.546)" fill="#7d3a1b"/>
        <path id="Trazado_904233" data-name="Trazado 904233" d="M3.069,13.083a1.311,1.311,0,0,1-.927-2.237l.927-.927a1.31,1.31,0,0,1,1.853,1.853L4,12.7A1.307,1.307,0,0,1,3.069,13.083Z" transform="translate(0.546 2.962)" fill="#7d3a1b"/>
        <path id="Trazado_904234" data-name="Trazado 904234" d="M10.846,5.306a1.311,1.311,0,0,1-.927-2.237l.927-.927A1.31,1.31,0,0,1,12.7,4l-.927.927A1.307,1.307,0,0,1,10.846,5.306Z" transform="translate(2.962 0.546)" fill="#7d3a1b"/>
      </g>
      <path id="Trazado_904235" data-name="Trazado 904235" d="M82.569,34.621H1.311a1.311,1.311,0,1,1,0-2.621H82.569a1.311,1.311,0,0,1,0,2.621Z" transform="translate(0 9.94)" fill="#7d3a1b"/>
      <path id="Trazado_904236" data-name="Trazado 904236" d="M15.309,73.94a1.311,1.311,0,0,1-1.139-1.957L36.451,32.664a1.311,1.311,0,1,1,2.28,1.292L16.451,73.275a1.313,1.313,0,0,1-1.142.664Z" transform="translate(4.349 9.94)" fill="#7d3a1b"/>
      <path id="Trazado_904237" data-name="Trazado 904237" d="M47.106,73.94a1.31,1.31,0,0,1-1.256-.934l-11.8-39.319a1.311,1.311,0,1,1,2.511-.752l11.8,39.319a1.312,1.312,0,0,1-.879,1.632A1.34,1.34,0,0,1,47.106,73.94Z" transform="translate(10.561 9.94)" fill="#7d3a1b"/>
      <path id="Trazado_904238" data-name="Trazado 904238" d="M19.417,56.485H6.311A1.309,1.309,0,0,1,5,55.174V47.311A1.309,1.309,0,0,1,6.311,46H19.417a1.309,1.309,0,0,1,1.311,1.311v7.864A1.309,1.309,0,0,1,19.417,56.485Zm-11.8-2.621H18.106V48.621H7.621Z" transform="translate(1.553 14.289)" fill="#7d3a1b"/>
      <path id="Trazado_904239" data-name="Trazado 904239" d="M11.311,67.727A1.309,1.309,0,0,1,10,66.417V53.311a1.311,1.311,0,1,1,2.621,0V66.417A1.309,1.309,0,0,1,11.311,67.727Z" transform="translate(3.106 16.152)" fill="#7d3a1b"/>
      <path id="Trazado_904240" data-name="Trazado 904240" d="M55.787,58.8H53.166a1.309,1.309,0,0,1-1.311-1.311V54.864A7.872,7.872,0,0,1,59.719,47H62.34a1.309,1.309,0,0,1,1.311,1.311v2.621A7.872,7.872,0,0,1,55.787,58.8Zm-1.311-2.621h1.311a5.248,5.248,0,0,0,5.242-5.242V49.621H59.719a5.248,5.248,0,0,0-5.242,5.242Z" transform="translate(16.107 14.599)" fill="#7d3a1b"/>
      <path id="Trazado_904241" data-name="Trazado 904241" d="M55.34,63.8H52.719a7.872,7.872,0,0,1-7.864-7.864V53.311A1.309,1.309,0,0,1,46.166,52h2.621a7.872,7.872,0,0,1,7.864,7.864v2.621A1.309,1.309,0,0,1,55.34,63.8Zm-7.864-9.174v1.311a5.248,5.248,0,0,0,5.242,5.242h1.311V59.864a5.248,5.248,0,0,0-5.242-5.242Z" transform="translate(13.933 16.152)" fill="#7d3a1b"/>
      <path id="Trazado_904242" data-name="Trazado 904242" d="M53.166,67.727a1.309,1.309,0,0,1-1.311-1.311V53.311a1.311,1.311,0,0,1,2.621,0V66.417A1.309,1.309,0,0,1,53.166,67.727Z" transform="translate(16.107 16.152)" fill="#7d3a1b"/>
      <path id="Trazado_904243" data-name="Trazado 904243" d="M32.312,49.485a1.215,1.215,0,0,1-.216-.018,1.31,1.31,0,0,1-1.077-1.507L32.329,40.1a1.31,1.31,0,0,1,2.585.43L33.6,48.39A1.311,1.311,0,0,1,32.312,49.485Z" transform="translate(9.629 12.114)" fill="#7d3a1b"/>
      <path id="Trazado_904244" data-name="Trazado 904244" d="M30.312,63.106a1.392,1.392,0,0,1-.164-.01,1.309,1.309,0,0,1-1.138-1.463l1.311-10.485a1.31,1.31,0,1,1,2.6.325L31.611,61.958A1.31,1.31,0,0,1,30.312,63.106Z" transform="translate(9.008 15.531)" fill="#7d3a1b"/>
    </g>
  </g>
</svg>
