<svg xmlns="http://www.w3.org/2000/svg" width="90" height="90" viewBox="0 0 90 90">
  <g id="Grupo_1117139" data-name="Grupo 1117139" transform="translate(-179.711 -766)">
    <g id="Elipse_11510" data-name="Elipse 11510" transform="translate(179.711 766)" fill="#fff" stroke="#ffce73" stroke-width="5">
      <circle cx="45" cy="45" r="45" stroke="none"/>
      <circle cx="45" cy="45" r="42.5" fill="none"/>
    </g>
    <g id="Grupo_1117301" data-name="Grupo 1117301" transform="translate(195.663 781.952)">
      <path id="Trazado_874470" data-name="Trazado 874470" d="M22.013,26.763h-.132a3.342,3.342,0,0,1-.417-.026,2.922,2.922,0,0,1-2.4-2.227,4.395,4.395,0,0,1-3.849,0,2.921,2.921,0,0,1-2.4,2.227,3.2,3.2,0,0,1-.417.027h-.132A3.274,3.274,0,0,0,9,30.036v4.87H25.286v-4.87a3.274,3.274,0,0,0-3.274-3.274Z" transform="translate(-0.762 -2.238)" fill="#efbe9c"/>
      <path id="Trazado_874471" data-name="Trazado 874471" d="M22.013,26.984h-.132a3.342,3.342,0,0,1-.417-.026,2.7,2.7,0,0,1-.545-.13l-.687.687a4.369,4.369,0,0,1-6.178,0l-.687-.687a2.689,2.689,0,0,1-.545.13,3.364,3.364,0,0,1-.417.026h-.132A3.274,3.274,0,0,0,9,30.257v4.87H25.286v-4.87A3.274,3.274,0,0,0,22.013,26.984Z" transform="translate(-0.762 -2.459)" fill="#4472b0"/>
      <path id="Trazado_874472" data-name="Trazado 874472" d="M21.881,26.984a3.342,3.342,0,0,1-.417-.026,2.7,2.7,0,0,1-.545-.13l-.687.687a4.369,4.369,0,0,1-6.178,0l-.687-.687a2.689,2.689,0,0,1-.545.13,3.364,3.364,0,0,1-.417.026h-.132A3.274,3.274,0,0,0,9,30.257v3.021c.3.014.6.039.9.039a17.132,17.132,0,0,0,13.4-6.065,3.25,3.25,0,0,0-1.295-.269Z" transform="translate(-0.762 -2.459)" fill="#698ec0"/>
      <path id="Trazado_874473" data-name="Trazado 874473" d="M17.524,23.857A4.524,4.524,0,0,1,13,19.333v-1.81a4.524,4.524,0,0,1,9.048,0v1.81A4.524,4.524,0,0,1,17.524,23.857Z" transform="translate(-1.143 -1.143)" fill="#efbe9c"/>
      <path id="Trazado_874474" data-name="Trazado 874474" d="M50.013,26.763h-.132a3.342,3.342,0,0,1-.417-.026,2.922,2.922,0,0,1-2.4-2.227,4.395,4.395,0,0,1-3.849,0,2.921,2.921,0,0,1-2.4,2.227,3.2,3.2,0,0,1-.417.027h-.132A3.274,3.274,0,0,0,37,30.036v4.87H53.286v-4.87a3.274,3.274,0,0,0-3.274-3.274Z" transform="translate(-3.428 -2.238)" fill="#efbe9c"/>
      <path id="Trazado_874475" data-name="Trazado 874475" d="M50.013,26.984h-.132a3.342,3.342,0,0,1-.417-.026,2.7,2.7,0,0,1-.545-.13l-.687.687a4.369,4.369,0,0,1-6.178,0l-.687-.687a2.688,2.688,0,0,1-.545.13,3.364,3.364,0,0,1-.417.026h-.132A3.274,3.274,0,0,0,37,30.257v4.87H53.286v-4.87A3.274,3.274,0,0,0,50.013,26.984Z" transform="translate(-3.428 -2.459)" fill="#4472b0"/>
      <path id="Trazado_874476" data-name="Trazado 874476" d="M49.881,26.984a3.342,3.342,0,0,1-.417-.026,2.7,2.7,0,0,1-.545-.13l-.687.687a4.369,4.369,0,0,1-6.178,0l-.687-.687a2.688,2.688,0,0,1-.545.13,3.364,3.364,0,0,1-.417.026h-.132A3.274,3.274,0,0,0,37,30.257v3.021c.3.014.6.039.9.039a17.132,17.132,0,0,0,13.4-6.065,3.25,3.25,0,0,0-1.295-.269Z" transform="translate(-3.428 -2.459)" fill="#698ec0"/>
      <path id="Trazado_874477" data-name="Trazado 874477" d="M45.524,23.857A4.524,4.524,0,0,1,41,19.333v-1.81a4.524,4.524,0,0,1,9.048,0v1.81A4.524,4.524,0,0,1,45.524,23.857Z" transform="translate(-3.809 -1.143)" fill="#efbe9c"/>
      <path id="Trazado_874478" data-name="Trazado 874478" d="M36.013,23.763h-.132a3.342,3.342,0,0,1-.417-.026,2.922,2.922,0,0,1-2.4-2.227,4.395,4.395,0,0,1-3.849,0,2.921,2.921,0,0,1-2.4,2.227,3.2,3.2,0,0,1-.417.027h-.132A3.274,3.274,0,0,0,23,27.036V31H39.286V27.036A3.274,3.274,0,0,0,36.013,23.763Z" transform="translate(-2.095 -1.953)" fill="#efbe9c"/>
      <path id="Trazado_874479" data-name="Trazado 874479" d="M36.013,23.984h-.132a3.342,3.342,0,0,1-.417-.026,2.7,2.7,0,0,1-.545-.13l-.687.687a4.369,4.369,0,0,1-6.178,0l-.687-.687a2.689,2.689,0,0,1-.545.13,3.364,3.364,0,0,1-.417.026h-.132A3.274,3.274,0,0,0,23,27.257v3.965H39.286V27.257A3.274,3.274,0,0,0,36.013,23.984Z" transform="translate(-2.095 -2.173)" fill="#4472b0"/>
      <path id="Trazado_874480" data-name="Trazado 874480" d="M35.881,23.984a3.342,3.342,0,0,1-.417-.026,2.7,2.7,0,0,1-.545-.13l-.687.687a4.369,4.369,0,0,1-6.178,0l-.687-.687a2.689,2.689,0,0,1-.545.13,3.364,3.364,0,0,1-.417.026h-.132A3.274,3.274,0,0,0,23,27.257v3.021c.3.014.6.039.9.039a17.132,17.132,0,0,0,13.4-6.065,3.25,3.25,0,0,0-1.295-.269Z" transform="translate(-2.095 -2.173)" fill="#698ec0"/>
      <path id="Trazado_874481" data-name="Trazado 874481" d="M31.524,20.857A4.524,4.524,0,0,1,27,16.333v-1.81a4.524,4.524,0,1,1,9.048,0v1.81A4.524,4.524,0,0,1,31.524,20.857Z" transform="translate(-2.476 -0.857)" fill="#efbe9c"/>
      <path id="Trazado_874482" data-name="Trazado 874482" d="M34.1,49.238l18.962-5.172a3.492,3.492,0,0,1,4.563,3.362v.9L28.667,58.286l-5.429-1.81H16V42H26.857Z" transform="translate(-1.428 -3.904)" fill="#efbe9c"/>
      <path id="Trazado_874483" data-name="Trazado 874483" d="M2,40H9.238V59.905H2Z" transform="translate(-0.095 -3.713)" fill="#4472b0"/>
      <path id="Trazado_874484" data-name="Trazado 874484" d="M10,40h5.429V58.1H10Z" transform="translate(-0.857 -3.713)" fill="#698ec0"/>
      <g id="Grupo_1117300" data-name="Grupo 1117300" transform="translate(1 1)">
        <path id="Trazado_874485" data-name="Trazado 874485" d="M11.619,17.143v1.81a5.422,5.422,0,0,0,2.5,4.566,2.342,2.342,0,0,1-1.812.863h-.132A4.183,4.183,0,0,0,8,28.56v4.87a.9.9,0,0,0,.9.9H25.191a.9.9,0,0,0,.9-.9V30.715h7.238v2.714a.9.9,0,0,0,.9.9H50.525a.9.9,0,0,0,.9-.9V28.56a4.183,4.183,0,0,0-4.178-4.178h-.132a2.34,2.34,0,0,1-1.811-.863,5.424,5.424,0,0,0,2.5-4.566v-1.81a5.429,5.429,0,0,0-10.857,0v1.81a5.422,5.422,0,0,0,2.5,4.566,2.321,2.321,0,0,1-1.02.711,4.185,4.185,0,0,0-3.853-2.562h-.132a2.34,2.34,0,0,1-1.811-.863,5.424,5.424,0,0,0,2.5-4.566v-1.81a5.429,5.429,0,1,0-10.857,0v1.81a5.422,5.422,0,0,0,2.5,4.566,2.342,2.342,0,0,1-1.812.863h-.132a4.183,4.183,0,0,0-3.853,2.563,2.321,2.321,0,0,1-1.02-.711,5.425,5.425,0,0,0,2.5-4.566v-1.81a5.429,5.429,0,0,0-10.857,0ZM24.286,32.524H9.81V28.56a2.371,2.371,0,0,1,2.369-2.369h.132a4.261,4.261,0,0,0,.683-.061l.326.326a5.264,5.264,0,0,0,7.348.1V29.81a.9.9,0,0,0,.9.9h2.714Zm22.965-6.333A2.371,2.371,0,0,1,49.62,28.56v3.965H35.144v-1.81h2.714a.9.9,0,0,0,.9-.9V26.556a5.264,5.264,0,0,0,7.348-.1l.326-.326a4.261,4.261,0,0,0,.683.061Zm-8.489-9.048a3.619,3.619,0,0,1,7.238,0v1.81a3.619,3.619,0,1,1-7.238,0Zm3.619,7.238a5.414,5.414,0,0,0,1.212-.141,4.163,4.163,0,0,0,1.021,1.111,3.544,3.544,0,0,1-4.466,0,4.148,4.148,0,0,0,1.021-1.111,5.414,5.414,0,0,0,1.212.141ZM26.1,14.429a3.619,3.619,0,1,1,7.238,0v1.81a3.619,3.619,0,0,1-7.238,0Zm3.619,7.238a5.414,5.414,0,0,0,1.212-.141,4.163,4.163,0,0,0,1.021,1.111,3.544,3.544,0,0,1-4.466,0A4.148,4.148,0,0,0,28.5,21.526a5.414,5.414,0,0,0,1.212.141Zm-7.238,4.178a2.371,2.371,0,0,1,2.369-2.369h.132a4.261,4.261,0,0,0,.683-.061l.326.326a5.273,5.273,0,0,0,7.457,0l.326-.326a4.261,4.261,0,0,0,.683.061h.132a2.371,2.371,0,0,1,2.369,2.369v3.06H22.477Zm-3.2-.495a3.544,3.544,0,0,1-4.466,0,4.148,4.148,0,0,0,1.021-1.111,5.261,5.261,0,0,0,2.425,0,4.131,4.131,0,0,0,1.021,1.11Zm1.386-8.207v1.81a3.619,3.619,0,1,1-7.238,0v-1.81a3.619,3.619,0,0,1,7.238,0Z" transform="translate(-1.667 -1.762)"/>
        <path id="Trazado_874486" data-name="Trazado 874486" d="M51.391,42.908,32.853,47.964a3.478,3.478,0,0,0-.451-.556l-6.333-6.333a.905.905,0,0,0-.64-.264H15.477v-.9a.9.9,0,0,0-.9-.9H1.9a.9.9,0,0,0-.9.9V59.81a.9.9,0,0,0,.9.9H9.143a.9.9,0,0,0,.9-.9v-.9h4.524a.9.9,0,0,0,.9-.9v-.9h6.187l5.289,1.763a.893.893,0,0,0,.58,0L56.486,48.9a.9.9,0,0,0,.611-.855v-.9a4.4,4.4,0,0,0-5.706-4.235Zm-43.153,16H2.81V40.81H8.238v18.1Zm5.429-1.81H10.048V40.81h3.619ZM55.287,47.4,27.234,57.045,22.1,55.332a.932.932,0,0,0-.286-.046H15.477V42.619h9.578l6.068,6.068a1.654,1.654,0,0,1-2.34,2.34L24.259,46.5,22.98,47.783,27.5,52.307a3.451,3.451,0,0,0,5.9-2.616l18.468-5.037a2.589,2.589,0,0,1,3.42,2.489Z" transform="translate(-1 -4.618)"/>
        <path id="Trazado_874487" data-name="Trazado 874487" d="M40.93,2.325q-.879-.27-1.782-.486l-.42,1.76q.846.2,1.668.456Z" transform="translate(-4.592 -1.08)"/>
        <path id="Trazado_874488" data-name="Trazado 874488" d="M61,31.942c0,.407-.009.813-.028,1.216l1.808.083q.03-.646.03-1.3,0-.274-.005-.547l-1.81.035c0,.171.005.342.005.512Z" transform="translate(-6.71 -3.894)"/>
        <path id="Trazado_874489" data-name="Trazado 874489" d="M36.981,1.407c-.6-.1-1.212-.184-1.83-.247l-.184,1.8q.865.087,1.712.232Z" transform="translate(-4.234 -1.015)"/>
        <path id="Trazado_874490" data-name="Trazado 874490" d="M60.281,25.523l1.767-.389c-.132-.6-.285-1.2-.455-1.79l-1.738.5q.239.828.426,1.675Z" transform="translate(-6.604 -3.127)"/>
        <path id="Trazado_874491" data-name="Trazado 874491" d="M44.732,3.763c-.561-.259-1.135-.5-1.7-.718L42.38,4.734q.81.311,1.593.672Z" transform="translate(-4.94 -1.195)"/>
        <path id="Trazado_874492" data-name="Trazado 874492" d="M60.875,29.317l1.8-.154q-.079-.926-.216-1.833l-1.79.271q.13.85.2,1.716Z" transform="translate(-6.682 -3.507)"/>
        <path id="Trazado_874493" data-name="Trazado 874493" d="M55.631,15.077l1.48-1.041q-.531-.756-1.11-1.475L54.59,13.7q.543.673,1.041,1.381Z" transform="translate(-6.103 -2.101)"/>
        <path id="Trazado_874494" data-name="Trazado 874494" d="M59.194,21.842l1.7-.619c-.211-.579-.442-1.155-.688-1.712l-1.656.73q.346.787.642,1.6Z" transform="translate(-6.48 -2.762)"/>
        <path id="Trazado_874495" data-name="Trazado 874495" d="M54.549,10.876c-.412-.448-.848-.891-1.295-1.317l-1.249,1.309q.624.6,1.211,1.232Z" transform="translate(-5.857 -1.815)"/>
        <path id="Trazado_874496" data-name="Trazado 874496" d="M48.307,5.694c-.516-.327-1.052-.642-1.594-.937l-.864,1.591q.76.414,1.489.876Z" transform="translate(-5.27 -1.358)"/>
        <path id="Trazado_874497" data-name="Trazado 874497" d="M59.627,40.67l1.724.551c.188-.588.357-1.187.5-1.779L60.1,39.008q-.209.843-.471,1.662Z" transform="translate(-6.582 -4.619)"/>
        <path id="Trazado_874498" data-name="Trazado 874498" d="M62.593,35.45l-1.8-.2q-.1.863-.248,1.709l1.782.32c.108-.6.2-1.218.265-1.829Z" transform="translate(-6.67 -4.261)"/>
        <path id="Trazado_874499" data-name="Trazado 874499" d="M51.6,8.079c-.472-.394-.963-.777-1.456-1.137L49.076,8.4q.7.51,1.362,1.065Z" transform="translate(-5.578 -1.566)"/>
        <path id="Trazado_874500" data-name="Trazado 874500" d="M57.635,18.343l1.6-.838c-.283-.542-.588-1.082-.907-1.606l-1.545.94Q57.235,17.575,57.635,18.343Z" transform="translate(-6.312 -2.418)"/>
        <path id="Trazado_874501" data-name="Trazado 874501" d="M3.974,23.641,2.24,23.123c-.176.591-.334,1.192-.469,1.788l1.764.4Q3.728,24.465,3.974,23.641Z" transform="translate(-1.073 -3.106)"/>
        <path id="Trazado_874502" data-name="Trazado 874502" d="M5.291,20.04,3.641,19.3c-.251.556-.487,1.132-.7,1.711l1.7.631q.3-.813.656-1.6Z" transform="translate(-1.185 -2.742)"/>
        <path id="Trazado_874503" data-name="Trazado 874503" d="M7.074,16.644l-1.537-.955c-.323.521-.633,1.06-.922,1.6l1.6.85Q6.619,17.378,7.074,16.644Z" transform="translate(-1.344 -2.398)"/>
        <path id="Trazado_874504" data-name="Trazado 874504" d="M9.288,13.515l-1.4-1.145q-.585.714-1.123,1.466l1.471,1.053Q8.741,14.186,9.288,13.515Z" transform="translate(-1.549 -2.082)"/>
        <path id="Trazado_874505" data-name="Trazado 874505" d="M2.829,32.943c-.014-.339-.02-.681-.02-1.022,0-.237,0-.471.009-.706l-1.809-.05c-.007.25-.01.5-.01.756q0,.547.021,1.09Z" transform="translate(-1 -3.872)"/>
        <path id="Trazado_874506" data-name="Trazado 874506" d="M3.148,27.387,1.36,27.1c-.1.606-.173,1.222-.229,1.831l1.8.166Q3.013,28.236,3.148,27.387Z" transform="translate(-1.012 -3.485)"/>
        <path id="Trazado_874507" data-name="Trazado 874507" d="M1.167,35.223q.1.926.252,1.829L3.2,36.747q-.145-.847-.235-1.712Z" transform="translate(-1.016 -4.241)"/>
        <path id="Trazado_874508" data-name="Trazado 874508" d="M14.846,8.266,13.789,6.8q-.749.539-1.463,1.125l1.15,1.4Q14.142,8.772,14.846,8.266Z" transform="translate(-2.078 -1.552)"/>
        <path id="Trazado_874509" data-name="Trazado 874509" d="M21.576,4.659l-.635-1.695c-.576.216-1.15.453-1.7.7l.746,1.649q.784-.354,1.594-.658Z" transform="translate(-2.736 -1.187)"/>
        <path id="Trazado_874510" data-name="Trazado 874510" d="M25.244,3.55l-.4-1.763c-.6.137-1.2.3-1.787.473l.523,1.732C24.125,3.827,24.686,3.679,25.244,3.55Z" transform="translate(-3.1 -1.075)"/>
        <path id="Trazado_874511" data-name="Trazado 874511" d="M29.032,2.94l-.168-1.8c-.606.056-1.223.135-1.833.234l.289,1.787c.565-.091,1.136-.166,1.713-.219Z" transform="translate(-3.479 -1.013)"/>
        <path id="Trazado_874512" data-name="Trazado 874512" d="M18.091,6.239l-.852-1.6c-.543.29-1.08.6-1.6.924L16.6,7.1Q17.327,6.646,18.091,6.239Z" transform="translate(-2.394 -1.347)"/>
        <path id="Trazado_874513" data-name="Trazado 874513" d="M31.836,2.81c.344,0,.695.005,1.04.017l.062-1.808C32.6,1.006,32.256,1,31.916,1c-.277,0-.551,0-.825.011l.055,1.81C31.374,2.813,31.6,2.81,31.836,2.81Z" transform="translate(-3.865 -1)"/>
        <path id="Trazado_874514" data-name="Trazado 874514" d="M11.894,10.711,10.658,9.389c-.442.413-.881.853-1.306,1.307l1.323,1.235c.4-.425.806-.836,1.219-1.221Z" transform="translate(-1.795 -1.799)"/>
      </g>
    </g>
  </g>
</svg>
