<svg xmlns="http://www.w3.org/2000/svg" xmlns:xlink="http://www.w3.org/1999/xlink" width="139" height="139" viewBox="0 0 139 139">
  <defs>
    <clipPath id="clip-path">
      <rect id="Rectángulo_400938" data-name="Rectángulo 400938" width="139" height="139" transform="translate(-0.043 -0.043)" fill="none"/>
    </clipPath>
    <clipPath id="clip-path-2">
      <rect id="Rectángulo_401073" data-name="Rectángulo 401073" width="105.872" height="47.68" fill="#7d3a1b"/>
    </clipPath>
  </defs>
  <g id="Grupo_1118384" data-name="Grupo 1118384" transform="translate(-1041.914 -3160.291)">
    <g id="Grupo_1117780" data-name="Grupo 1117780" transform="translate(776.957 -2123.666)">
      <g id="Grupo_1099379" data-name="Grupo 1099379" transform="translate(265 5284)">
        <rect id="Rectángulo_401103" data-name="Rectángulo 401103" width="139" height="139" transform="translate(-0.043 -0.043)" fill="none"/>
        <g id="Grupo_1099348" data-name="Grupo 1099348" transform="translate(0)">
          <g id="Grupo_1099282" data-name="Grupo 1099282">
            <g id="Grupo_1099281" data-name="Grupo 1099281" clip-path="url(#clip-path-2)">
              <path id="Trazado_873375" data-name="Trazado 873375" d="M85.879,10.449c-4.752,0-7.21-2.33-9.379-4.386C74.371,4.047,72.538,2.3,68.7,2.3s-5.668,1.742-7.8,3.758c-2.17,2.056-4.624,4.386-9.379,4.386s-7.21-2.33-9.379-4.386C40.018,4.047,38.184,2.3,34.349,2.3s-5.668,1.742-7.794,3.758c-2.17,2.056-4.627,4.386-9.379,4.386S9.963,8.119,7.794,6.063C5.668,4.047,3.835,2.3,0,2.3V0C4.752,0,7.21,2.334,9.379,4.386c2.129,2.02,3.963,3.758,7.8,3.758s5.668-1.738,7.794-3.755C27.136,2.334,29.6,0,34.349,0s7.213,2.334,9.379,4.386c2.129,2.02,3.963,3.758,7.8,3.758s5.668-1.738,7.8-3.758C61.489,2.334,63.951,0,68.7,0s7.213,2.334,9.379,4.386c2.129,2.02,3.963,3.758,7.8,3.758s5.668-1.738,7.8-3.758C95.843,2.334,98.3,0,103.056,0V2.3c-3.835,0-5.668,1.742-7.8,3.758-2.169,2.056-4.627,4.386-9.379,4.386" transform="translate(2.816 37.231)" fill="#7d3a1b"/>
              <path id="Trazado_873376" data-name="Trazado 873376" d="M85.879,10.449c-4.752,0-7.213-2.33-9.379-4.39C74.371,4.043,72.538,2.3,68.7,2.3s-5.668,1.738-7.8,3.755c-2.166,2.06-4.624,4.39-9.379,4.39s-7.213-2.33-9.379-4.39C40.018,4.043,38.184,2.3,34.349,2.3s-5.668,1.742-7.794,3.755c-2.17,2.06-4.627,4.39-9.379,4.39s-7.213-2.33-9.383-4.39C5.668,4.043,3.835,2.3,0,2.3V0C4.752,0,7.213,2.33,9.379,4.386c2.129,2.02,3.963,3.758,7.8,3.758s5.668-1.738,7.794-3.758C27.136,2.33,29.6,0,34.349,0s7.213,2.33,9.383,4.386c2.126,2.02,3.959,3.758,7.794,3.758s5.668-1.738,7.8-3.758C61.489,2.33,63.951,0,68.7,0s7.213,2.33,9.379,4.386c2.129,2.02,3.963,3.758,7.8,3.758s5.668-1.738,7.8-3.758C95.846,2.33,98.3,0,103.059,0V2.3c-3.835,0-5.672,1.742-7.8,3.755-2.169,2.06-4.628,4.39-9.379,4.39" transform="translate(1.877 24.821)" fill="#7d3a1b"/>
              <path id="Trazado_873377" data-name="Trazado 873377" d="M85.879,10.449c-4.752,0-7.213-2.33-9.379-4.39C74.371,4.043,72.538,2.3,68.7,2.3s-5.668,1.738-7.8,3.755c-2.166,2.06-4.627,4.39-9.379,4.39s-7.213-2.33-9.379-4.39C40.018,4.043,38.184,2.3,34.349,2.3s-5.668,1.742-7.794,3.755c-2.169,2.06-4.627,4.39-9.379,4.39s-7.213-2.33-9.383-4.39C5.668,4.043,3.835,2.3,0,2.3V0C4.752,0,7.213,2.33,9.379,4.386c2.126,2.02,3.963,3.758,7.8,3.758s5.668-1.738,7.794-3.758C27.136,2.33,29.6,0,34.349,0s7.213,2.33,9.383,4.386c2.126,2.02,3.959,3.758,7.794,3.758s5.668-1.738,7.8-3.758C61.489,2.33,63.951,0,68.7,0s7.213,2.33,9.379,4.386c2.129,2.02,3.963,3.758,7.8,3.758s5.668-1.738,7.8-3.758C95.846,2.33,98.3,0,103.059,0V2.3c-3.835,0-5.672,1.742-7.8,3.755-2.169,2.06-4.627,4.39-9.379,4.39" transform="translate(0.939 12.41)" fill="#7d3a1b"/>
              <path id="Trazado_873378" data-name="Trazado 873378" d="M85.879,10.445c-4.752,0-7.21-2.33-9.379-4.386C74.371,4.043,72.538,2.3,68.7,2.3s-5.668,1.738-7.794,3.755c-2.169,2.056-4.627,4.386-9.383,4.386s-7.21-2.33-9.379-4.386C40.018,4.043,38.184,2.3,34.349,2.3s-5.668,1.738-7.794,3.751c-2.166,2.06-4.627,4.39-9.379,4.39S9.963,8.115,7.794,6.059C5.668,4.043,3.835,2.3,0,2.3V0C4.752,0,7.213,2.33,9.379,4.386c2.129,2.016,3.963,3.755,7.8,3.755S22.845,6.4,24.971,4.386C27.14,2.33,29.6,0,34.349,0s7.21,2.33,9.383,4.386c2.126,2.016,3.959,3.755,7.794,3.755s5.668-1.738,7.8-3.755C61.493,2.33,63.951,0,68.7,0s7.21,2.33,9.379,4.386c2.129,2.016,3.963,3.755,7.8,3.755s5.668-1.738,7.8-3.755C95.846,2.33,98.3,0,103.059,0V2.3c-3.839,0-5.672,1.738-7.8,3.755-2.169,2.056-4.627,4.386-9.379,4.386" transform="translate(0 0.004)" fill="#7d3a1b"/>
            </g>
          </g>
        </g>
        <path id="Trazado_873425" data-name="Trazado 873425" d="M57.977,0A57.977,57.977,0,1,1,0,57.977,57.977,57.977,0,0,1,57.977,0Z" transform="translate(17.221 20.665)" fill="#efb499"/>
        <circle id="Elipse_11503" data-name="Elipse 11503" cx="60.5" cy="60.5" r="60.5" transform="translate(8.957 8.957)" fill="#fff"/>
      </g>
    </g>
    <g id="Grupo_1117781" data-name="Grupo 1117781" transform="translate(544.578 3505.619)">
      <path id="Trazado_903909" data-name="Trazado 903909" d="M86.04,22.051a46.667,46.667,0,0,0-18.08-16.8A1.362,1.362,0,0,0,66.7,7.661a43.871,43.871,0,0,1,9.754,6.933L71.4,19.651a5.911,5.911,0,0,0-7.27.85l-.374.374a30.6,30.6,0,0,0-15.9-5.245V2.747a43.6,43.6,0,0,1,13.1,2.422,1.362,1.362,0,1,0,.9-2.571A46.5,46.5,0,0,0,0,46.487,46,46,0,0,0,5,67.481,46.918,46.918,0,0,0,18.371,83.51a1.362,1.362,0,1,0,1.649-2.168A44.175,44.175,0,0,1,7.429,66.249a43.227,43.227,0,0,1-4.684-18.4H15.63a30.886,30.886,0,0,0,61.713,0H90.227A43.775,43.775,0,0,1,25.213,84.741a1.362,1.362,0,0,0-1.326,2.379A46.5,46.5,0,0,0,86.04,22.051Zm-19.987.376a3.178,3.178,0,0,1,4.494,4.494L48.734,48.734a3.182,3.182,0,0,1-4.494,0L35.856,40.35a3.178,3.178,0,0,1,4.494-4.494l5.174,5.174a1.362,1.362,0,0,0,1.926,0ZM45.125,2.747V15.63a30.769,30.769,0,0,0-19.484,8.084l-9.12-9.12A43.426,43.426,0,0,1,45.125,2.747ZM2.747,45.125A43.426,43.426,0,0,1,14.6,16.521l9.12,9.12A30.769,30.769,0,0,0,15.63,45.125Zm43.74,29.526a28.164,28.164,0,1,1,15.3-51.81l-15.3,15.3L42.276,33.93a5.9,5.9,0,0,0-8.346,8.346l8.384,8.384a5.909,5.909,0,0,0,8.346,0L70.134,31.186A28.166,28.166,0,0,1,46.487,74.651ZM77.345,45.125a30.6,30.6,0,0,0-5.245-15.9l.374-.374a5.911,5.911,0,0,0,.85-7.27l5.058-5.058A43.659,43.659,0,0,1,90.228,45.125ZM37.17,61.758,41.4,57.872a1.362,1.362,0,1,0-1.843-2.005L36.211,58.94v-2.2a1.362,1.362,0,0,0-2.724,0V67.2a1.362,1.362,0,1,0,2.724,0V64.618L39.9,68.179a1.362,1.362,0,0,0,1.891-1.96Zm20.954-6.383a1.362,1.362,0,0,0-1.362,1.362V67.2a1.362,1.362,0,1,0,2.724,0V56.737A1.362,1.362,0,0,0,58.124,55.375Zm-8.739,0H46.472a1.362,1.362,0,0,0-1.362,1.362V67.2a1.362,1.362,0,1,0,2.724,0v-3.19c.571,0,1.189-.005,1.551-.005a4.315,4.315,0,1,0,0-8.629Zm0,5.9c-.362,0-.979,0-1.551.005V58.1h1.551a1.591,1.591,0,1,1,0,3.181Z" transform="translate(522 -320.864)" fill="#7d3a1b"/>
    </g>
  </g>
</svg>
