<svg xmlns="http://www.w3.org/2000/svg" width="107" height="107" viewBox="0 0 107 107">
  <g id="Grupo_1118362" data-name="Grupo 1118362" transform="translate(-285.867 -1415)">
    <g id="Grupo_156312" data-name="Grupo 156312" transform="translate(-2.801 -3033.437)">
      <path id="Elipse_5845" data-name="Elipse 5845" d="M53.5,0A53.5,53.5,0,1,1,0,53.5,53.5,53.5,0,0,1,53.5,0Z" transform="translate(288.668 4448.437)" fill="#ffce73"/>
    </g>
    <g id="Grupo_1117835" data-name="Grupo 1117835" transform="translate(-298.635 -96.248)">
      <g id="Grupo_1117834" data-name="Grupo 1117834" transform="translate(605.868 1531.622)">
        <path id="Trazado_903988" data-name="Trazado 903988" d="M55,49.267V41h2a4.986,4.986,0,0,0,3-8.979V32a6,6,0,0,0-12,0v.021A4.986,4.986,0,0,0,51,41h2v6.708a35.042,35.042,0,0,0-20.05-6.691V37.028l1.182-1.117,1.575,1.575a4.985,4.985,0,0,0,8.469-4.228l.016-.015a6,6,0,1,0-8.486-8.484l-.015.014a4.988,4.988,0,0,0-4.226,8.47L32.718,34.5,31.264,35.87a1,1,0,0,0-.313.727v4.454a34.785,34.785,0,0,0-3.95.4V38H25v3.823a35,35,0,0,0-4,1.121V39H19v4.7a35.2,35.2,0,0,0-4,1.977V42H13v4.924a35.286,35.286,0,0,0-4,3.128V46H7v6h.01a34.852,34.852,0,0,0-4.875,6.5l1.73,1c.5-.866,1.051-1.693,1.623-2.5H9.73l.772,2.316a1,1,0,0,0,.752.664l5,1a.948.948,0,0,0,.2.02.99.99,0,0,0,.242-.03l4-1a1,1,0,0,0,.59-.416L22.986,57h2.465a1,1,0,0,0,.447-.1l8-4a1,1,0,0,0,.522-1.137l-1-4a1,1,0,0,0-.773-.738l-4.663-.933-2.09-2.422a32.813,32.813,0,0,1,23.06,3.778l-1.335,2a1,1,0,0,0-.168.555v2.7l-1.832,2.748a1,1,0,0,0-.116.871l1,3a1,1,0,0,0,.948.683h3.586l1.707,1.707a1,1,0,0,0,.707.293h3a1,1,0,0,0,.857-.485l2.435-4.058c.453.664.888,1.343,1.294,2.045l1.73-1A34.91,34.91,0,0,0,55,49.267ZM26.694,47.653a1,1,0,0,0,.561.327l4.38.876.651,2.608L25.215,55H22.451a1,1,0,0,0-.832.445l-1.785,2.678-3.407.852-4.21-.842-.817-2.45A1,1,0,0,0,10.451,55H7.021A33.2,33.2,0,0,1,23.708,44.193ZM32,29.707a2.974,2.974,0,0,1,2.983-2.984,3.076,3.076,0,0,1,.826.114,1,1,0,0,0,1.05-.336l.117-.151a1.772,1.772,0,0,1,.145-.179,4,4,0,0,1,5.658,5.656,1.725,1.725,0,0,1-.177.145l-.156.122a1,1,0,0,0-.333,1.046,2.988,2.988,0,0,1-4.992,2.932l-1.535-1.535,1-.946,3.166.633.393-1.961-1.777-.355,1.559-1.473-1.373-1.454-1.542,1.457-.326-1.633-1.961.393.572,2.861-1.127,1.065-1.293-1.293A2.988,2.988,0,0,1,32,29.707ZM51,39a2.988,2.988,0,0,1-1.457-5.6,1,1,0,0,0,.5-.977l-.023-.193A1.545,1.545,0,0,1,50,32a4,4,0,0,1,8,0,1.727,1.727,0,0,1-.023.228l-.023.193a1,1,0,0,0,.5.977A2.987,2.987,0,0,1,57,39H55V37.535l2.555-1.7-1.109-1.664L55,35.132V33H53v2.132l-1.445-.964-1.109,1.664L53,37.535V39Zm4.885,21h-2.02l-1.707-1.707A1,1,0,0,0,51.451,58H48.172l-.617-1.852,1.729-2.593A1,1,0,0,0,49.452,53V50.3l1.2-1.805A33.1,33.1,0,0,1,58.463,55.7Z" fill="#7a4f00"/>
        <path id="Trazado_903989" data-name="Trazado 903989" d="M2.5,29.491l3.464,2a1,1,0,0,0,.5.134,1,1,0,0,0,.866-.5l7.282-12.612,5.4,6.022a1,1,0,0,0,.726.332h.019a1,1,0,0,0,.719-.305,34.109,34.109,0,0,0,8.243-14.276,1,1,0,0,0-.755-1.253L21.051,7.365l.281-.487a3,3,0,1,0-5.2-3l-.375.646a8.972,8.972,0,0,1-1.01-1.312.971.971,0,0,0-.865-.47,1,1,0,0,0-.849.5l-6,10.393a1,1,0,0,0,.831,1.5,8.932,8.932,0,0,1,1.641.218L2.134,28.125A1,1,0,0,0,2.5,29.491ZM27.484,10.763a32.152,32.152,0,0,1-6.711,11.623L19.42,20.878a33.777,33.777,0,0,0,6.259-10.495ZM17.866,4.876a1,1,0,1,1,1.731,1l-.533.923A9.093,9.093,0,0,1,17.3,5.86ZM14,5.566a11.082,11.082,0,0,0,6.124,3.647l3.57.752a31.754,31.754,0,0,1-5.624,9.412L15.753,16.79a11.072,11.072,0,0,0-6.22-3.48ZM11.435,16.015a9.1,9.1,0,0,1,1.7,1.061L6.1,29.258l-1.731-1Z" fill="#7a4f00"/>
      </g>
    </g>
  </g>
</svg>
