<svg xmlns="http://www.w3.org/2000/svg" xmlns:xlink="http://www.w3.org/1999/xlink" width="145" height="145" viewBox="0 0 145 145">
  <defs>
    <clipPath id="clip-path">
      <rect id="Rectángulo_400938" data-name="Rectángulo 400938" width="145" height="145" transform="translate(0 -0.281)" fill="none"/>
    </clipPath>
    <clipPath id="clip-path-2">
      <rect id="Rectángulo_401073" data-name="Rectángulo 401073" width="110.228" height="49.642" fill="#7d3a1b"/>
    </clipPath>
  </defs>
  <g id="Grupo_1117912" data-name="Grupo 1117912" transform="translate(-175 -9540.719)">
    <g id="Grupo_1099404" data-name="Grupo 1099404" transform="translate(175 9541)">
      <g id="Grupo_1099379" data-name="Grupo 1099379" transform="translate(0 0)">
        <rect id="Rectángulo_401103" data-name="Rectángulo 401103" width="145" height="145" transform="translate(0 -0.281)" fill="none"/>
        <g id="Grupo_1099348" data-name="Grupo 1099348" transform="translate(0.045 0.045)">
          <g id="Grupo_1099282" data-name="Grupo 1099282">
            <g id="Grupo_1099281" data-name="Grupo 1099281" clip-path="url(#clip-path-2)">
              <path id="Trazado_873375" data-name="Trazado 873375" d="M89.413,10.879c-4.947,0-7.506-2.426-9.765-4.567C77.431,4.213,75.522,2.4,71.529,2.4s-5.9,1.814-8.118,3.913c-2.259,2.141-4.814,4.567-9.765,4.567S46.14,8.453,43.881,6.312C41.664,4.213,39.755,2.4,35.763,2.4s-5.9,1.814-8.114,3.913c-2.259,2.141-4.818,4.567-9.765,4.567s-7.51-2.426-9.769-4.567C5.9,4.213,3.993,2.4,0,2.4V0C4.947,0,7.506,2.43,9.765,4.567c2.217,2.1,4.126,3.913,8.118,3.913S23.785,6.67,26,4.571C28.253,2.43,30.816,0,35.763,0s7.51,2.43,9.765,4.567c2.217,2.1,4.126,3.913,8.118,3.913s5.9-1.81,8.118-3.913C64.019,2.43,66.582,0,71.529,0s7.51,2.43,9.765,4.567c2.217,2.1,4.126,3.913,8.118,3.913s5.9-1.81,8.118-3.913C99.786,2.43,102.345,0,107.3,0V2.4c-3.993,0-5.9,1.814-8.118,3.913-2.259,2.141-4.818,4.567-9.765,4.567" transform="translate(2.932 38.763)" fill="#7d3a1b"/>
              <path id="Trazado_873376" data-name="Trazado 873376" d="M89.413,10.879c-4.947,0-7.51-2.426-9.765-4.571C77.431,4.209,75.522,2.4,71.529,2.4s-5.9,1.81-8.118,3.909c-2.255,2.145-4.814,4.571-9.765,4.571s-7.51-2.426-9.765-4.571C41.664,4.209,39.755,2.4,35.763,2.4s-5.9,1.814-8.115,3.909c-2.259,2.145-4.818,4.571-9.765,4.571s-7.51-2.426-9.769-4.571C5.9,4.209,3.993,2.4,0,2.4V0C4.947,0,7.51,2.426,9.765,4.567c2.217,2.1,4.126,3.913,8.118,3.913S23.785,6.67,26,4.567C28.253,2.426,30.816,0,35.763,0s7.51,2.426,9.769,4.567c2.213,2.1,4.122,3.913,8.115,3.913s5.9-1.81,8.118-3.913C64.019,2.426,66.582,0,71.529,0s7.51,2.426,9.765,4.567c2.217,2.1,4.126,3.913,8.118,3.913s5.9-1.81,8.118-3.913C99.79,2.426,102.349,0,107.3,0V2.4c-3.993,0-5.905,1.814-8.122,3.909-2.259,2.145-4.818,4.571-9.765,4.571" transform="translate(1.955 25.842)" fill="#7d3a1b"/>
              <path id="Trazado_873377" data-name="Trazado 873377" d="M89.412,10.879c-4.947,0-7.51-2.426-9.765-4.571C77.431,4.209,75.522,2.4,71.529,2.4s-5.9,1.81-8.118,3.909c-2.255,2.145-4.818,4.571-9.765,4.571s-7.51-2.426-9.765-4.571C41.664,4.209,39.755,2.4,35.763,2.4s-5.9,1.814-8.115,3.909c-2.259,2.145-4.818,4.571-9.765,4.571s-7.51-2.426-9.769-4.571C5.9,4.209,3.993,2.4,0,2.4V0C4.947,0,7.51,2.426,9.765,4.567c2.213,2.1,4.126,3.913,8.118,3.913S23.785,6.67,26,4.567C28.253,2.426,30.816,0,35.763,0s7.51,2.426,9.769,4.567c2.213,2.1,4.122,3.913,8.115,3.913s5.9-1.81,8.118-3.913C64.019,2.426,66.582,0,71.529,0s7.51,2.426,9.765,4.567c2.217,2.1,4.126,3.913,8.118,3.913s5.9-1.81,8.118-3.913C99.79,2.426,102.345,0,107.3,0V2.4c-3.993,0-5.905,1.814-8.122,3.909-2.259,2.145-4.818,4.571-9.765,4.571" transform="translate(0.977 12.921)" fill="#7d3a1b"/>
              <path id="Trazado_873378" data-name="Trazado 873378" d="M89.413,10.875c-4.947,0-7.506-2.426-9.765-4.567C77.431,4.209,75.522,2.4,71.529,2.4s-5.9,1.81-8.115,3.909c-2.259,2.141-4.818,4.567-9.769,4.567S46.14,8.449,43.881,6.308C41.664,4.209,39.755,2.4,35.763,2.4s-5.9,1.81-8.115,3.905c-2.255,2.145-4.818,4.571-9.765,4.571s-7.51-2.426-9.769-4.567C5.9,4.209,3.993,2.4,0,2.4V0C4.947,0,7.51,2.426,9.765,4.567c2.217,2.1,4.126,3.909,8.118,3.909s5.9-1.81,8.115-3.909C28.257,2.426,30.816,0,35.763,0s7.506,2.426,9.769,4.567c2.213,2.1,4.122,3.909,8.115,3.909s5.9-1.81,8.118-3.909C64.023,2.426,66.582,0,71.529,0s7.506,2.426,9.765,4.567c2.217,2.1,4.126,3.909,8.118,3.909s5.9-1.81,8.118-3.909C99.79,2.426,102.349,0,107.3,0V2.4c-4,0-5.905,1.81-8.122,3.909-2.259,2.141-4.818,4.567-9.765,4.567" transform="translate(0 0.004)" fill="#7d3a1b"/>
            </g>
          </g>
        </g>
        <path id="Trazado_873425" data-name="Trazado 873425" d="M60.362,0A60.362,60.362,0,1,1,0,60.362,60.362,60.362,0,0,1,60.362,0Z" transform="translate(17.974 21.56)" fill="#efb499"/>
        <circle id="Elipse_11503" data-name="Elipse 11503" cx="63" cy="63" r="63" transform="translate(9 9.719)" fill="#fef7eb"/>
      </g>
    </g>
    <g id="Grupo_1117948" data-name="Grupo 1117948" transform="translate(204 9571.719)">
      <path id="Trazado_904302" data-name="Trazado 904302" d="M155.579,55.292H154.3V11.087A4.694,4.694,0,0,0,149.611,6.4H123.229V2.984A2.987,2.987,0,0,0,120.245,0H109.76a2.987,2.987,0,0,0-2.984,2.984V6.4h-9.02a1.279,1.279,0,1,0,0,2.557h51.854a2.134,2.134,0,0,1,2.131,2.131V55.292H131.6a1.279,1.279,0,0,0,0,2.557h23.975a.427.427,0,0,1,.426.426v2.988a.427.427,0,0,1-.426.426H87.371a1.279,1.279,0,0,0,0,2.557H94.8l-4.3,21.342A1.279,1.279,0,0,0,91.76,87.12H99.43a1.279,1.279,0,0,0,1.254-1.026l1.4-6.965H128l1.4,6.965a1.279,1.279,0,0,0,1.254,1.026h7.671a1.279,1.279,0,0,0,1.254-1.531l-4.3-21.342h20.3a2.987,2.987,0,0,0,2.984-2.984V58.276a2.987,2.987,0,0,0-2.983-2.984ZM109.334,2.984a.427.427,0,0,1,.426-.426h10.485a.427.427,0,0,1,.426.426V6.4H109.334ZM125,64.247l1.381,6.863H103.7l1.381-6.863ZM98.384,84.562H93.322L97.41,64.247h5.062Zm4.217-7.991.584-2.9H126.9l.584,2.9Zm34.163,7.991H131.7l-4.088-20.315h5.062Z" transform="translate(-71.443)" fill="#6a4d23"/>
      <path id="Trazado_904303" data-name="Trazado 904303" d="M10.813,92.893H2.984a.427.427,0,0,1-.426-.426V89.478a.427.427,0,0,1,.426-.426H55.046a1.279,1.279,0,1,0,0-2.557H6.82V42.29a2.134,2.134,0,0,1,2.131-2.131H21.2a1.279,1.279,0,1,0,0-2.557H8.952a4.694,4.694,0,0,0-4.688,4.688V86.494H2.984A2.987,2.987,0,0,0,0,89.478v2.988A2.987,2.987,0,0,0,2.984,95.45h7.83a1.279,1.279,0,1,0,0-2.557Z" transform="translate(0 -31.203)" fill="#6a4d23"/>
      <path id="Trazado_904304" data-name="Trazado 904304" d="M133.128,126.015a1.278,1.278,0,0,0-1.808.023l-4.152,4.257-1.744-1.7a1.279,1.279,0,1,0-1.783,1.833l2.659,2.586a1.279,1.279,0,0,0,1.807-.024l5.043-5.171A1.279,1.279,0,0,0,133.128,126.015Z" transform="translate(-102.282 -104.272)" fill="#6a4d23"/>
      <path id="Trazado_904305" data-name="Trazado 904305" d="M116.41,100.468a9.541,9.541,0,1,0-9.541,9.541A9.552,9.552,0,0,0,116.41,100.468Zm-9.541,6.984a6.984,6.984,0,1,1,6.984-6.984A6.992,6.992,0,0,1,106.868,107.452Z" transform="translate(-80.766 -75.455)" fill="#6a4d23"/>
      <path id="Trazado_904306" data-name="Trazado 904306" d="M136.975,236.887a1.279,1.279,0,0,0-1.808,0l-1.957,1.957-1.957-1.957a1.279,1.279,0,1,0-1.808,1.808l1.957,1.957-1.957,1.957a1.279,1.279,0,0,0,1.808,1.808l1.957-1.957,1.957,1.957a1.279,1.279,0,0,0,1.808-1.808l-1.957-1.957,1.957-1.957A1.279,1.279,0,0,0,136.975,236.887Z" transform="translate(-107.107 -196.269)" fill="#6a4d23"/>
      <path id="Trazado_904307" data-name="Trazado 904307" d="M366.157,236.887a1.279,1.279,0,0,0-1.808,0l-1.957,1.957-1.957-1.957a1.279,1.279,0,0,0-1.808,1.808l1.957,1.957-1.957,1.957a1.279,1.279,0,0,0,1.808,1.808l1.957-1.957,1.957,1.957a1.279,1.279,0,1,0,1.808-1.808l-1.957-1.957,1.957-1.957A1.279,1.279,0,0,0,366.157,236.887Z" transform="translate(-297.292 -196.269)" fill="#6a4d23"/>
      <path id="Trazado_904308" data-name="Trazado 904308" d="M248.542,131.938a1.279,1.279,0,0,0,1.808,0l1.957-1.957,1.957,1.957a1.279,1.279,0,1,0,1.808-1.808l-1.957-1.957,1.957-1.957a1.279,1.279,0,1,0-1.808-1.808l-1.957,1.957-1.957-1.957a1.279,1.279,0,1,0-1.808,1.808l1.957,1.957-1.957,1.957A1.279,1.279,0,0,0,248.542,131.938Z" transform="translate(-205.941 -102.927)" fill="#6a4d23"/>
      <path id="Trazado_904309" data-name="Trazado 904309" d="M240.658,234.42A5.418,5.418,0,1,0,246.076,229a5.424,5.424,0,0,0-5.418,5.418Zm8.279,0a2.861,2.861,0,1,1-2.861-2.861A2.864,2.864,0,0,1,248.937,234.42Z" transform="translate(-199.709 -190.036)" fill="#6a4d23"/>
      <path id="Trazado_904310" data-name="Trazado 904310" d="M224.354,128.846a1.279,1.279,0,0,0,1.03,1.486,33.331,33.331,0,0,0,5.485.423c4.207,0,10.034-.724,14.557-4.055,3.688-2.717,5.877-6.7,6.507-11.843a1.279,1.279,0,1,0-2.538-.311,14.061,14.061,0,0,1-5.477,10.088c-6.927,5.111-17.968,3.2-18.079,3.181A1.28,1.28,0,0,0,224.354,128.846Z" transform="translate(-186.162 -94.124)" fill="#6a4d23"/>
    </g>
  </g>
</svg>
