<svg xmlns="http://www.w3.org/2000/svg" xmlns:xlink="http://www.w3.org/1999/xlink" width="139" height="139" viewBox="0 0 139 139">
  <defs>
    <clipPath id="clip-path">
      <rect id="Rectángulo_400938" data-name="Rectángulo 400938" width="139" height="139" transform="translate(-0.043 -0.043)" fill="none"/>
    </clipPath>
    <clipPath id="clip-path-2">
      <rect id="Rectángulo_401073" data-name="Rectángulo 401073" width="105.872" height="47.68" fill="#7d3a1b"/>
    </clipPath>
  </defs>
  <g id="Grupo_1118383" data-name="Grupo 1118383" transform="translate(-421.914 -3160.291)">
    <g id="Grupo_1117779" data-name="Grupo 1117779" transform="translate(156.957 -2123.666)">
      <g id="Grupo_1099379" data-name="Grupo 1099379" transform="translate(265 5284)">
        <rect id="Rectángulo_401103" data-name="Rectángulo 401103" width="139" height="139" transform="translate(-0.043 -0.043)" fill="none"/>
        <g id="Grupo_1099348" data-name="Grupo 1099348" transform="translate(0)">
          <g id="Grupo_1099282" data-name="Grupo 1099282">
            <g id="Grupo_1099281" data-name="Grupo 1099281" clip-path="url(#clip-path-2)">
              <path id="Trazado_873375" data-name="Trazado 873375" d="M85.879,10.449c-4.752,0-7.21-2.33-9.379-4.386C74.371,4.047,72.538,2.3,68.7,2.3s-5.668,1.742-7.8,3.758c-2.17,2.056-4.624,4.386-9.379,4.386s-7.21-2.33-9.379-4.386C40.018,4.047,38.184,2.3,34.349,2.3s-5.668,1.742-7.794,3.758c-2.17,2.056-4.627,4.386-9.379,4.386S9.963,8.119,7.794,6.063C5.668,4.047,3.835,2.3,0,2.3V0C4.752,0,7.21,2.334,9.379,4.386c2.129,2.02,3.963,3.758,7.8,3.758s5.668-1.738,7.794-3.755C27.136,2.334,29.6,0,34.349,0s7.213,2.334,9.379,4.386c2.129,2.02,3.963,3.758,7.8,3.758s5.668-1.738,7.8-3.758C61.489,2.334,63.951,0,68.7,0s7.213,2.334,9.379,4.386c2.129,2.02,3.963,3.758,7.8,3.758s5.668-1.738,7.8-3.758C95.843,2.334,98.3,0,103.056,0V2.3c-3.835,0-5.668,1.742-7.8,3.758-2.169,2.056-4.627,4.386-9.379,4.386" transform="translate(2.816 37.231)" fill="#7d3a1b"/>
              <path id="Trazado_873376" data-name="Trazado 873376" d="M85.879,10.449c-4.752,0-7.213-2.33-9.379-4.39C74.371,4.043,72.538,2.3,68.7,2.3s-5.668,1.738-7.8,3.755c-2.166,2.06-4.624,4.39-9.379,4.39s-7.213-2.33-9.379-4.39C40.018,4.043,38.184,2.3,34.349,2.3s-5.668,1.742-7.794,3.755c-2.17,2.06-4.627,4.39-9.379,4.39s-7.213-2.33-9.383-4.39C5.668,4.043,3.835,2.3,0,2.3V0C4.752,0,7.213,2.33,9.379,4.386c2.129,2.02,3.963,3.758,7.8,3.758s5.668-1.738,7.794-3.758C27.136,2.33,29.6,0,34.349,0s7.213,2.33,9.383,4.386c2.126,2.02,3.959,3.758,7.794,3.758s5.668-1.738,7.8-3.758C61.489,2.33,63.951,0,68.7,0s7.213,2.33,9.379,4.386c2.129,2.02,3.963,3.758,7.8,3.758s5.668-1.738,7.8-3.758C95.846,2.33,98.3,0,103.059,0V2.3c-3.835,0-5.672,1.742-7.8,3.755-2.169,2.06-4.628,4.39-9.379,4.39" transform="translate(1.877 24.821)" fill="#7d3a1b"/>
              <path id="Trazado_873377" data-name="Trazado 873377" d="M85.879,10.449c-4.752,0-7.213-2.33-9.379-4.39C74.371,4.043,72.538,2.3,68.7,2.3s-5.668,1.738-7.8,3.755c-2.166,2.06-4.627,4.39-9.379,4.39s-7.213-2.33-9.379-4.39C40.018,4.043,38.184,2.3,34.349,2.3s-5.668,1.742-7.794,3.755c-2.169,2.06-4.627,4.39-9.379,4.39s-7.213-2.33-9.383-4.39C5.668,4.043,3.835,2.3,0,2.3V0C4.752,0,7.213,2.33,9.379,4.386c2.126,2.02,3.963,3.758,7.8,3.758s5.668-1.738,7.794-3.758C27.136,2.33,29.6,0,34.349,0s7.213,2.33,9.383,4.386c2.126,2.02,3.959,3.758,7.794,3.758s5.668-1.738,7.8-3.758C61.489,2.33,63.951,0,68.7,0s7.213,2.33,9.379,4.386c2.129,2.02,3.963,3.758,7.8,3.758s5.668-1.738,7.8-3.758C95.846,2.33,98.3,0,103.059,0V2.3c-3.835,0-5.672,1.742-7.8,3.755-2.169,2.06-4.627,4.39-9.379,4.39" transform="translate(0.939 12.41)" fill="#7d3a1b"/>
              <path id="Trazado_873378" data-name="Trazado 873378" d="M85.879,10.445c-4.752,0-7.21-2.33-9.379-4.386C74.371,4.043,72.538,2.3,68.7,2.3s-5.668,1.738-7.794,3.755c-2.169,2.056-4.627,4.386-9.383,4.386s-7.21-2.33-9.379-4.386C40.018,4.043,38.184,2.3,34.349,2.3s-5.668,1.738-7.794,3.751c-2.166,2.06-4.627,4.39-9.379,4.39S9.963,8.115,7.794,6.059C5.668,4.043,3.835,2.3,0,2.3V0C4.752,0,7.213,2.33,9.379,4.386c2.129,2.016,3.963,3.755,7.8,3.755S22.845,6.4,24.971,4.386C27.14,2.33,29.6,0,34.349,0s7.21,2.33,9.383,4.386c2.126,2.016,3.959,3.755,7.794,3.755s5.668-1.738,7.8-3.755C61.493,2.33,63.951,0,68.7,0s7.21,2.33,9.379,4.386c2.129,2.016,3.963,3.755,7.8,3.755s5.668-1.738,7.8-3.755C95.846,2.33,98.3,0,103.059,0V2.3c-3.839,0-5.672,1.738-7.8,3.755-2.169,2.056-4.627,4.386-9.379,4.386" transform="translate(0 0.004)" fill="#7d3a1b"/>
            </g>
          </g>
        </g>
        <path id="Trazado_873425" data-name="Trazado 873425" d="M57.977,0A57.977,57.977,0,1,1,0,57.977,57.977,57.977,0,0,1,57.977,0Z" transform="translate(17.221 20.665)" fill="#ffe2b7"/>
        <circle id="Elipse_11503" data-name="Elipse 11503" cx="60.5" cy="60.5" r="60.5" transform="translate(8.957 8.957)" fill="#fff"/>
      </g>
    </g>
    <path id="Trazado_903908" data-name="Trazado 903908" d="M33.29,109.527l5.121-22.333a1.5,1.5,0,1,1,2.921.669L36.211,110.2a1.5,1.5,0,0,1-1.458,1.163,1.586,1.586,0,0,1-.335-.037A1.5,1.5,0,0,1,33.29,109.527ZM16.568,100l12.263,6.852a1.5,1.5,0,1,0,1.461-2.616L20.37,98.692l9.923-5.544a1.5,1.5,0,0,0-1.461-2.616L16.568,97.385a1.5,1.5,0,0,0,0,2.616Zm27.188,6.275a1.5,1.5,0,0,0,2.038.577L58.057,100a1.5,1.5,0,0,0,0-2.616L45.794,90.533a1.5,1.5,0,0,0-1.461,2.616l9.923,5.544-9.923,5.544A1.5,1.5,0,0,0,43.756,106.275Zm52.172,11.7v5.254a1.5,1.5,0,0,1-1.034,1.424l-3.268,1.062a19.151,19.151,0,0,1-1.806,4.352l1.563,3.065a1.5,1.5,0,0,1-.277,1.741l-3.71,3.71a1.5,1.5,0,0,1-1.741.277L82.592,137.3a18.982,18.982,0,0,1-4.358,1.808l-.253.772-.806,2.49a1.5,1.5,0,0,1-1.426,1.036H70.5a1.5,1.5,0,0,1-1.426-1.036l-1.059-3.262a18.948,18.948,0,0,1-4.358-1.808l-3.063,1.563a1.5,1.5,0,0,1-1.741-.277l-3.71-3.71a1.5,1.5,0,0,1-.365-1.529H45.5l2.529,7.063h4.958a1.5,1.5,0,1,1,0,2.994H21.633a1.5,1.5,0,1,1,0-2.994H26.59l2.529-7.063H6.194A6.2,6.2,0,0,1,0,127.154V82.117A6.2,6.2,0,0,1,6.192,75.93H68.431a6.2,6.2,0,0,1,6.192,6.187V97.8H75.75a1.5,1.5,0,0,1,1.426,1.036l1.059,3.264a19.179,19.179,0,0,1,4.356,1.806l3.067-1.559a1.5,1.5,0,0,1,1.737.275l3.712,3.706a1.5,1.5,0,0,1,.277,1.741l-1.563,3.063a19.043,19.043,0,0,1,1.808,4.356l.772.253,2.49.806a1.508,1.508,0,0,1,1.038,1.43ZM3,82.117v36.348H50.323v-.489a1.5,1.5,0,0,1,1.036-1.426l3.264-1.059a19.1,19.1,0,0,1,1.808-4.356l-1.563-3.065a1.5,1.5,0,0,1,.277-1.741l3.712-3.706a1.5,1.5,0,0,1,1.737-.277l3.067,1.559a19.178,19.178,0,0,1,4.356-1.806l.253-.774.806-2.49A1.5,1.5,0,0,1,70.5,97.8h1.132V82.115a3.2,3.2,0,0,0-3.2-3.193H6.194A3.2,3.2,0,0,0,3,82.117Zm3.2,48.236H56.287l.144-.283a19.185,19.185,0,0,1-1.806-4.352l-3.268-1.062a1.5,1.5,0,0,1-1.034-1.424v-1.769H3v5.694a3.2,3.2,0,0,0,3.2,3.2Zm36.132,2.994H32.3l-2.529,7.063H44.856Zm50.606-14.281-3.02-.984a1.5,1.5,0,0,1-.995-1.092,16.063,16.063,0,0,0-2.076-5,1.494,1.494,0,0,1-.066-1.476l1.443-2.833-2.173-2.17-2.833,1.441a1.5,1.5,0,0,1-1.476-.066,16.183,16.183,0,0,0-5-2.076,1.5,1.5,0,0,1-1.089-.993l-.984-3.02H71.586l-.984,3.02a1.5,1.5,0,0,1-1.089.993,16.247,16.247,0,0,0-5,2.076,1.494,1.494,0,0,1-1.476.066L60.2,105.51l-2.173,2.17,1.443,2.833a1.5,1.5,0,0,1-.066,1.476,16.228,16.228,0,0,0-2.076,5,1.5,1.5,0,0,1-.993,1.089l-3.02.984v3.076l3.016.98a1.5,1.5,0,0,1,1,1.089,16.247,16.247,0,0,0,2.076,5,1.494,1.494,0,0,1,.066,1.476l-.927,1.819c-.011.022-.022.047-.036.069l-.482.946L60.2,135.7l2.833-1.443a1.5,1.5,0,0,1,1.478.067,15.977,15.977,0,0,0,5,2.074,1.5,1.5,0,0,1,1.092.995l.984,3.02h3.073l.984-3.02a1.5,1.5,0,0,1,1.092-.995,15.933,15.933,0,0,0,5-2.074,1.5,1.5,0,0,1,1.478-.067l2.833,1.443,2.173-2.173-1.443-2.833a1.5,1.5,0,0,1,.066-1.476,16.228,16.228,0,0,0,2.076-5,1.494,1.494,0,0,1,1-1.089l3.016-.98v-3.078Zm-10.548,1.54a9.26,9.26,0,1,1-9.257-9.263A9.268,9.268,0,0,1,82.384,120.606Zm-2.994,0a6.264,6.264,0,1,0-6.262,6.262,6.272,6.272,0,0,0,6.262-6.262Z" transform="translate(447.578 3120.177)" fill="#7a4f00"/>
  </g>
</svg>
