<svg xmlns="http://www.w3.org/2000/svg" xmlns:xlink="http://www.w3.org/1999/xlink" width="129" height="128" viewBox="0 0 129 128">
  <defs>
    <clipPath id="clip-path">
      <rect id="Rectángulo_400938" data-name="Rectángulo 400938" width="113" height="113" transform="translate(0.211 0.211)" fill="none"/>
    </clipPath>
    <clipPath id="clip-path-2">
      <rect id="Rectángulo_401073" data-name="Rectángulo 401073" width="86.443" height="38.93" fill="#7d3a1b"/>
    </clipPath>
  </defs>
  <g id="Grupo_1118362" data-name="Grupo 1118362" transform="translate(-389.156 -1499)">
    <g id="Grupo_108927" data-name="Grupo 108927" transform="translate(-0.844 -2968)">
      <path id="Rectángulo_36179" data-name="Rectángulo 36179" d="M0,0H129V128H0Z" transform="translate(390 4467)" fill="#feebcf"/>
    </g>
    <g id="Grupo_1099431" data-name="Grupo 1099431" transform="translate(131.945 -3777.211)">
      <g id="Grupo_1099379" data-name="Grupo 1099379" transform="translate(265 5284)">
        <rect id="Rectángulo_401103" data-name="Rectángulo 401103" width="113" height="113" transform="translate(0.211 0.211)" fill="none"/>
        <g id="Grupo_1099348" data-name="Grupo 1099348">
          <g id="Grupo_1099282" data-name="Grupo 1099282">
            <g id="Grupo_1099281" data-name="Grupo 1099281" clip-path="url(#clip-path-2)">
              <path id="Trazado_873375" data-name="Trazado 873375" d="M70.12,8.532c-3.88,0-5.887-1.9-7.658-3.581C60.723,3.3,59.226,1.882,56.1,1.882S51.467,3.3,49.728,4.95c-1.771,1.679-3.775,3.581-7.658,3.581s-5.886-1.9-7.658-3.581C32.674,3.3,31.177,1.882,28.046,1.882S23.418,3.3,21.682,4.95C19.911,6.629,17.9,8.532,14.024,8.532S8.135,6.629,6.364,4.95C4.628,3.3,3.131,1.882,0,1.882V0C3.88,0,5.887,1.906,7.658,3.581,9.4,5.23,10.893,6.65,14.024,6.65s4.628-1.419,6.364-3.066C22.157,1.906,24.166,0,28.046,0s5.89,1.906,7.658,3.581C37.442,5.23,38.939,6.65,42.07,6.65S46.7,5.23,48.437,3.581C50.205,1.906,52.215,0,56.1,0s5.89,1.906,7.658,3.581C65.491,5.23,66.988,6.65,70.12,6.65s4.628-1.419,6.367-3.069C78.255,1.906,80.261,0,84.144,0V1.882c-3.131,0-4.628,1.422-6.367,3.069C76.006,6.629,74,8.532,70.12,8.532" transform="translate(2.299 30.399)" fill="#7d3a1b"/>
              <path id="Trazado_873376" data-name="Trazado 873376" d="M70.12,8.532c-3.88,0-5.889-1.9-7.658-3.584C60.723,3.3,59.226,1.882,56.1,1.882S51.467,3.3,49.728,4.947c-1.768,1.682-3.775,3.584-7.658,3.584s-5.889-1.9-7.658-3.584C32.674,3.3,31.177,1.882,28.046,1.882S23.418,3.3,21.682,4.947C19.911,6.629,17.9,8.532,14.025,8.532s-5.889-1.9-7.661-3.584C4.628,3.3,3.131,1.882,0,1.882V0C3.88,0,5.889,1.9,7.658,3.581,9.4,5.23,10.893,6.65,14.025,6.65s4.628-1.419,6.364-3.069C22.157,1.9,24.166,0,28.046,0s5.889,1.9,7.661,3.581C37.442,5.23,38.939,6.65,42.071,6.65S46.7,5.23,48.437,3.581C50.206,1.9,52.215,0,56.1,0s5.89,1.9,7.658,3.581C65.491,5.23,66.988,6.65,70.12,6.65s4.628-1.419,6.367-3.069C78.257,1.9,80.264,0,84.147,0V1.882c-3.131,0-4.631,1.422-6.37,3.066C76.006,6.629,74,8.532,70.12,8.532" transform="translate(1.533 20.266)" fill="#7d3a1b"/>
              <path id="Trazado_873377" data-name="Trazado 873377" d="M70.119,8.532c-3.88,0-5.889-1.9-7.658-3.584C60.723,3.3,59.226,1.882,56.1,1.882S51.467,3.3,49.728,4.947C47.96,6.629,45.95,8.532,42.071,8.532s-5.89-1.9-7.658-3.584C32.674,3.3,31.177,1.882,28.046,1.882S23.418,3.3,21.682,4.947C19.911,6.629,17.9,8.532,14.025,8.532s-5.89-1.9-7.661-3.584C4.628,3.3,3.131,1.882,0,1.882V0C3.88,0,5.889,1.9,7.658,3.581,9.393,5.23,10.893,6.65,14.025,6.65s4.628-1.419,6.364-3.069C22.156,1.9,24.166,0,28.046,0s5.89,1.9,7.661,3.581C37.442,5.23,38.939,6.65,42.071,6.65S46.7,5.23,48.437,3.581C50.205,1.9,52.215,0,56.1,0s5.889,1.9,7.658,3.581C65.491,5.23,66.988,6.65,70.119,6.65s4.628-1.419,6.367-3.069C78.257,1.9,80.261,0,84.147,0V1.882c-3.131,0-4.631,1.422-6.37,3.066C76.006,6.629,74,8.532,70.119,8.532" transform="translate(0.766 10.133)" fill="#7d3a1b"/>
              <path id="Trazado_873378" data-name="Trazado 873378" d="M70.12,8.529c-3.88,0-5.887-1.9-7.658-3.581C60.723,3.3,59.226,1.882,56.095,1.882S51.467,3.3,49.731,4.947C47.96,6.626,45.953,8.529,42.07,8.529s-5.887-1.9-7.658-3.581C32.674,3.3,31.177,1.882,28.046,1.882S23.418,3.3,21.682,4.944C19.914,6.626,17.9,8.529,14.024,8.529s-5.89-1.9-7.661-3.581C4.628,3.3,3.131,1.882,0,1.882V0C3.88,0,5.89,1.9,7.658,3.581,9.4,5.228,10.893,6.647,14.024,6.647s4.628-1.419,6.364-3.066C22.159,1.9,24.166,0,28.046,0s5.887,1.9,7.661,3.581c1.736,1.646,3.233,3.066,6.364,3.066S46.7,5.228,48.437,3.581C50.208,1.9,52.215,0,56.095,0s5.887,1.9,7.658,3.581c1.739,1.646,3.236,3.066,6.367,3.066s4.628-1.419,6.367-3.066C78.257,1.9,80.264,0,84.147,0V1.882c-3.134,0-4.631,1.419-6.37,3.066C76.006,6.626,74,8.529,70.12,8.529" transform="translate(0 0.003)" fill="#7d3a1b"/>
            </g>
          </g>
        </g>
        <path id="Trazado_873425" data-name="Trazado 873425" d="M47.337,0A47.337,47.337,0,1,1,0,47.337,47.337,47.337,0,0,1,47.337,0Z" transform="translate(14.061 16.873)" fill="#7d3a1b"/>
        <circle id="Elipse_11503" data-name="Elipse 11503" cx="49.5" cy="49.5" r="49.5" transform="translate(7.211 7.211)" fill="#fff"/>
      </g>
      <g id="Grupo_1118279" data-name="Grupo 1118279" transform="translate(279.185 5303.773)">
        <path id="Trazado_905254" data-name="Trazado 905254" d="M67.617,79.946a33.56,33.56,0,1,0-23.057,9.176,33.9,33.9,0,0,0,4.287-.271Z" transform="translate(0 -18.985)" fill="#816ae2"/>
        <path id="Trazado_905255" data-name="Trazado 905255" d="M199.755,137.392a9.663,9.663,0,0,1-.307-3.326L200,128.9a17.868,17.868,0,0,0-1.66-9.4c-3.7-7.536-2.855-8.083-2.97-15.562a2.767,2.767,0,1,0-5.533,0c0,30.415.057,28.183-.131,29.075V137a6.093,6.093,0,0,1-6.086,6.086H168.473a21.49,21.49,0,0,0,9.2,7.3l.069.029c2.854,1.205,6.04,3.611,6.573,6.595l.051.213a33.449,33.449,0,0,0,19.433-9.219Z" transform="translate(-135.902 -87.316)" fill="#f9ba8f"/>
        <path id="Trazado_905256" data-name="Trazado 905256" d="M54.108,91.582l-.843-.781a3.22,3.22,0,1,0-4.377,4.724l5.219,4.836Z" transform="translate(-31.813 -77.626)" fill="#f9ba8f"/>
        <path id="Trazado_905257" data-name="Trazado 905257" d="M50.6,95.358a3.22,3.22,0,0,1-1-2.8,3.187,3.187,0,0,0-.89.67,3.229,3.229,0,0,0,.173,4.55l5.219,4.836V98.607Z" transform="translate(-31.813 -79.879)" fill="#fcad6d"/>
        <g id="Grupo_1118263" data-name="Grupo 1118263" transform="translate(43.886 50.738)">
          <path id="Trazado_905258" data-name="Trazado 905258" d="M271.3,370.388A16.308,16.308,0,0,1,251.077,383.8c2.17,1.327,4.123,3.266,4.529,5.544l.052.213a33.449,33.449,0,0,0,19.433-9.219Z" transform="translate(-251.077 -370.388)" fill="#fd995b"/>
        </g>
        <g id="Grupo_1118264" data-name="Grupo 1118264" transform="translate(22.175 0)">
          <path id="Trazado_905259" data-name="Trazado 905259" d="M119.578,55.9H97.354a4.771,4.771,0,0,1-4.766-4.766V4.766A4.771,4.771,0,0,1,97.354,0h22.224a4.771,4.771,0,0,1,4.766,4.766V51.134a4.771,4.771,0,0,1-4.766,4.766Z" transform="translate(-92.588)" fill="#2a428c"/>
        </g>
        <path id="Trazado_905260" data-name="Trazado 905260" d="M97.354,0a4.771,4.771,0,0,0-4.766,4.766V51.134A4.771,4.771,0,0,0,97.354,55.9h6.625c-1.47-1.5.245-2.965.245-2.965a3.053,3.053,0,0,1-2.215-3.178V8.456a3.275,3.275,0,0,1,2.47-3.046,1.412,1.412,0,0,1,0-2V1.768A1.289,1.289,0,0,1,103.954,0Z" transform="translate(-70.413)" fill="#142766"/>
        <g id="Grupo_1118265" data-name="Grupo 1118265" transform="translate(33.243 1.768)">
          <path id="Trazado_905261" data-name="Trazado 905261" d="M174.68,14.554H174.2a.824.824,0,1,1,0-1.647h.476a.824.824,0,0,1,0,1.647Z" transform="translate(-173.38 -12.907)" fill="#3c58a0"/>
        </g>
        <g id="Grupo_1118266" data-name="Grupo 1118266" transform="translate(36.53 1.768)">
          <path id="Trazado_905262" data-name="Trazado 905262" d="M202.773,14.554H198.2a.824.824,0,0,1,0-1.647h4.573a.824.824,0,1,1,0,1.647Z" transform="translate(-197.376 -12.907)" fill="#3c58a0"/>
        </g>
        <path id="Trazado_905263" data-name="Trazado 905263" d="M138.259,21.646h-3.34a1.127,1.127,0,0,0-1.127,1.127,1.322,1.322,0,0,1-1.318,1.318H121.82a1.322,1.322,0,0,1-1.318-1.318,1.127,1.127,0,0,0-1.127-1.127h-3.34a1.8,1.8,0,0,0-1.8,1.8V69.815a1.8,1.8,0,0,0,1.8,1.8h22.224a1.8,1.8,0,0,0,1.8-1.8V23.447A1.8,1.8,0,0,0,138.259,21.646Z" transform="translate(-89.093 -18.681)" fill="#73c3f9"/>
        <path id="Trazado_905264" data-name="Trazado 905264" d="M122.9,71.617c-.342-1.478,1.371-1.823,1.371-1.823s1.09-9.549,0-10.639a1.433,1.433,0,0,1,0-2.12s1.191-9.448,0-10.639a1.334,1.334,0,0,1,0-2.12V33.637a2.4,2.4,0,0,1-1.011-3.285V27.3a2.252,2.252,0,0,1-.105-3.209H121.82a1.322,1.322,0,0,1-1.318-1.318,1.127,1.127,0,0,0-1.127-1.127h-3.34a1.8,1.8,0,0,0-1.8,1.8V69.816a1.8,1.8,0,0,0,1.8,1.8h6.87Z" transform="translate(-89.093 -18.682)" fill="#4fabf7"/>
        <g id="Grupo_1118267" data-name="Grupo 1118267" transform="translate(29.828 8.619)">
          <path id="Trazado_905265" data-name="Trazado 905265" d="M149.976,65.972h13.4a1.526,1.526,0,0,0,0-3.051h-13.4a1.526,1.526,0,1,0,0,3.051Z" transform="translate(-148.45 -62.921)" fill="#e9efff"/>
        </g>
        <path id="Trazado_905266" data-name="Trazado 905266" d="M149.977,62.921h2.818v3.051h-2.818a1.526,1.526,0,0,1,0-3.051Z" transform="translate(-118.623 -54.302)" fill="#9bd8f9"/>
        <g id="Grupo_1118268" data-name="Grupo 1118268" transform="translate(27.273 14.955)">
          <path id="Trazado_905267" data-name="Trazado 905267" d="M149.991,119.813H131.175a1.376,1.376,0,0,1-1.372-1.372v-7.895a1.376,1.376,0,0,1,1.372-1.372h18.815a1.376,1.376,0,0,1,1.372,1.372v7.895A1.376,1.376,0,0,1,149.991,119.813Z" transform="translate(-129.803 -109.174)" fill="#e9efff"/>
          <path id="Trazado_905268" data-name="Trazado 905268" d="M149.991,212.953H131.175a1.376,1.376,0,0,1-1.372-1.372v-7.895a1.376,1.376,0,0,1,1.372-1.372h18.815a1.376,1.376,0,0,1,1.372,1.372v7.895A1.376,1.376,0,0,1,149.991,212.953Z" transform="translate(-129.803 -189.555)" fill="#e9efff"/>
          <path id="Trazado_905269" data-name="Trazado 905269" d="M149.991,306.093H131.175a1.376,1.376,0,0,1-1.372-1.372v-7.895a1.376,1.376,0,0,1,1.372-1.372h18.815a1.376,1.376,0,0,1,1.372,1.372v7.895A1.376,1.376,0,0,1,149.991,306.093Z" transform="translate(-129.803 -269.936)" fill="#e9efff"/>
          <path id="Trazado_905270" data-name="Trazado 905270" d="M149.991,119.813H131.175a1.376,1.376,0,0,1-1.372-1.372v-7.895a1.376,1.376,0,0,1,1.372-1.372h18.815a1.376,1.376,0,0,1,1.372,1.372v7.895A1.376,1.376,0,0,1,149.991,119.813Z" transform="translate(-129.803 -109.174)" fill="#e9efff"/>
          <path id="Trazado_905271" data-name="Trazado 905271" d="M149.991,212.953H131.175a1.376,1.376,0,0,1-1.372-1.372v-7.895a1.376,1.376,0,0,1,1.372-1.372h18.815a1.376,1.376,0,0,1,1.372,1.372v7.895A1.376,1.376,0,0,1,149.991,212.953Z" transform="translate(-129.803 -189.555)" fill="#e9efff"/>
          <path id="Trazado_905272" data-name="Trazado 905272" d="M149.991,306.093H131.175a1.376,1.376,0,0,1-1.372-1.372v-7.895a1.376,1.376,0,0,1,1.372-1.372h18.815a1.376,1.376,0,0,1,1.372,1.372v7.895A1.376,1.376,0,0,1,149.991,306.093Z" transform="translate(-129.803 -269.936)" fill="#e9efff"/>
        </g>
        <path id="Trazado_905273" data-name="Trazado 905273" d="M136.34,118.442v-7.894a1.376,1.376,0,0,1,1.372-1.372h-6.537a1.376,1.376,0,0,0-1.372,1.372v7.894a1.376,1.376,0,0,0,1.372,1.372h6.537A1.376,1.376,0,0,1,136.34,118.442Z" transform="translate(-102.53 -94.22)" fill="#d3dcfb"/>
        <path id="Trazado_905274" data-name="Trazado 905274" d="M136.34,211.581v-7.895a1.376,1.376,0,0,1,1.372-1.372h-6.537a1.376,1.376,0,0,0-1.372,1.372v7.895a1.376,1.376,0,0,0,1.372,1.372h6.537A1.376,1.376,0,0,1,136.34,211.581Z" transform="translate(-102.53 -174.6)" fill="#d3dcfb"/>
        <path id="Trazado_905275" data-name="Trazado 905275" d="M136.34,304.721v-7.895a1.376,1.376,0,0,1,1.372-1.372h-6.537a1.376,1.376,0,0,0-1.372,1.372v7.895a1.376,1.376,0,0,0,1.372,1.372h6.537A1.376,1.376,0,0,1,136.34,304.721Z" transform="translate(-102.53 -254.981)" fill="#d3dcfb"/>
        <g id="Grupo_1118269" data-name="Grupo 1118269" transform="translate(30.782 17.313)">
          <path id="Trazado_905276" data-name="Trazado 905276" d="M161.943,128.442h-5.5a1.027,1.027,0,0,1,0-2.055h5.5a1.027,1.027,0,0,1,0,2.055Z" transform="translate(-155.413 -126.387)" fill="#3c58a0"/>
        </g>
        <g id="Grupo_1118270" data-name="Grupo 1118270" transform="translate(30.782 21.182)">
          <path id="Trazado_905277" data-name="Trazado 905277" d="M168.929,156.684H156.44a1.027,1.027,0,0,1,0-2.055h12.489a1.027,1.027,0,1,1,0,2.055Z" transform="translate(-155.413 -154.629)" fill="#bec8f7"/>
        </g>
        <g id="Grupo_1118271" data-name="Grupo 1118271" transform="translate(39.8 17.313)">
          <path id="Trazado_905278" data-name="Trazado 905278" d="M223.052,128.442h-.776a1.027,1.027,0,0,1,0-2.055h.776a1.027,1.027,0,1,1,0,2.055Z" transform="translate(-221.248 -126.387)" fill="#bec8f7"/>
        </g>
        <g id="Grupo_1118272" data-name="Grupo 1118272" transform="translate(30.782 30.072)">
          <path id="Trazado_905279" data-name="Trazado 905279" d="M161.943,221.582h-5.5a1.027,1.027,0,1,1,0-2.055h5.5a1.027,1.027,0,0,1,0,2.055Z" transform="translate(-155.413 -219.527)" fill="#3c58a0"/>
        </g>
        <g id="Grupo_1118273" data-name="Grupo 1118273" transform="translate(30.782 33.941)">
          <path id="Trazado_905280" data-name="Trazado 905280" d="M168.929,249.824H156.44a1.027,1.027,0,1,1,0-2.055h12.489a1.027,1.027,0,1,1,0,2.055Z" transform="translate(-155.413 -247.769)" fill="#bec8f7"/>
        </g>
        <g id="Grupo_1118274" data-name="Grupo 1118274" transform="translate(39.8 30.072)">
          <path id="Trazado_905281" data-name="Trazado 905281" d="M223.052,221.582h-.776a1.027,1.027,0,0,1,0-2.055h.776a1.027,1.027,0,1,1,0,2.055Z" transform="translate(-221.248 -219.527)" fill="#bec8f7"/>
        </g>
        <g id="Grupo_1118275" data-name="Grupo 1118275" transform="translate(30.782 42.831)">
          <path id="Trazado_905282" data-name="Trazado 905282" d="M161.943,314.722h-5.5a1.027,1.027,0,1,1,0-2.055h5.5a1.027,1.027,0,1,1,0,2.055Z" transform="translate(-155.413 -312.667)" fill="#3c58a0"/>
        </g>
        <g id="Grupo_1118276" data-name="Grupo 1118276" transform="translate(30.782 46.7)">
          <path id="Trazado_905283" data-name="Trazado 905283" d="M168.929,342.964H156.44a1.027,1.027,0,1,1,0-2.055h12.489a1.027,1.027,0,1,1,0,2.055Z" transform="translate(-155.413 -340.909)" fill="#bec8f7"/>
        </g>
        <g id="Grupo_1118277" data-name="Grupo 1118277" transform="translate(39.8 42.831)">
          <path id="Trazado_905284" data-name="Trazado 905284" d="M223.052,314.722h-.776a1.027,1.027,0,1,1,0-2.055h.776a1.027,1.027,0,1,1,0,2.055Z" transform="translate(-221.248 -312.667)" fill="#bec8f7"/>
        </g>
        <path id="Trazado_905285" data-name="Trazado 905285" d="M67.087,168.4a2.821,2.821,0,0,1-3.987.152l-4.726-4.379a2.821,2.821,0,1,1,3.835-4.139l4.726,4.379A2.821,2.821,0,0,1,67.087,168.4Z" transform="translate(-40.106 -137.466)" fill="#f9ba8f"/>
        <path id="Trazado_905286" data-name="Trazado 905286" d="M65.044,167.285l-4.726-4.379a2.82,2.82,0,0,1-.811-2.786,2.817,2.817,0,0,0-1.133,4.776l4.726,4.379a2.821,2.821,0,0,0,4.646-1.353,2.817,2.817,0,0,1-2.7-.638Z" transform="translate(-40.106 -138.186)" fill="#fcad6d"/>
        <g id="Grupo_1118278" data-name="Grupo 1118278" transform="translate(17.365 37.21)">
          <path id="Trazado_905287" data-name="Trazado 905287" d="M67.087,280.752a2.821,2.821,0,0,1-3.987.152l-4.726-4.379a2.821,2.821,0,1,1,3.835-4.139l4.726,4.379A2.821,2.821,0,0,1,67.087,280.752Z" transform="translate(-57.471 -271.635)" fill="#f9ba8f"/>
        </g>
        <path id="Trazado_905288" data-name="Trazado 905288" d="M65.044,279.633l-4.726-4.379a2.82,2.82,0,0,1-.811-2.786,2.817,2.817,0,0,0-1.133,4.776l4.726,4.379a2.821,2.821,0,0,0,4.646-1.353A2.816,2.816,0,0,1,65.044,279.633Z" transform="translate(-40.106 -235.144)" fill="#fcad6d"/>
        <path id="Trazado_905289" data-name="Trazado 905289" d="M67.087,224.578a2.821,2.821,0,0,1-3.987.152l-4.726-4.379a2.821,2.821,0,0,1,3.835-4.139l4.726,4.379A2.821,2.821,0,0,1,67.087,224.578Z" transform="translate(-40.106 -185.946)" fill="#f9ba8f"/>
        <path id="Trazado_905290" data-name="Trazado 905290" d="M65.044,223.459l-4.726-4.379a2.82,2.82,0,0,1-.811-2.786,2.817,2.817,0,0,0-1.133,4.776l4.726,4.379a2.821,2.821,0,0,0,4.646-1.353A2.816,2.816,0,0,1,65.044,223.459Z" transform="translate(-40.106 -186.665)" fill="#fcad6d"/>
        <path id="Trazado_905291" data-name="Trazado 905291" d="M405.524,86.887c-1.822,2.317-3.466,5.647-2.151,9.28,2.466,6.815,6.393,12.6,4.566,22.676-.829,4.571,1.891,6.488,5.109,7.217a33.575,33.575,0,0,0-7.524-39.173Z" transform="translate(-338.214 -74.985)" fill="#9181f2"/>
      </g>
    </g>
  </g>
</svg>
