<svg xmlns="http://www.w3.org/2000/svg" xmlns:xlink="http://www.w3.org/1999/xlink" width="145" height="145" viewBox="0 0 145 145">
  <defs>
    <clipPath id="clip-path">
      <rect id="Rectángulo_400938" data-name="Rectángulo 400938" width="145" height="145" transform="translate(0 -0.281)" fill="none"/>
    </clipPath>
    <clipPath id="clip-path-2">
      <rect id="Rectángulo_401073" data-name="Rectángulo 401073" width="110.228" height="49.642" fill="#7d3a1b"/>
    </clipPath>
  </defs>
  <g id="Grupo_1117908" data-name="Grupo 1117908" transform="translate(-175 -9540.719)">
    <g id="Grupo_1099404" data-name="Grupo 1099404" transform="translate(175 9541)">
      <g id="Grupo_1099379" data-name="Grupo 1099379" transform="translate(0 0)">
        <rect id="Rectángulo_401103" data-name="Rectángulo 401103" width="145" height="145" transform="translate(0 -0.281)" fill="none"/>
        <g id="Grupo_1099348" data-name="Grupo 1099348" transform="translate(0.045 0.045)">
          <g id="Grupo_1099282" data-name="Grupo 1099282">
            <g id="Grupo_1099281" data-name="Grupo 1099281" clip-path="url(#clip-path-2)">
              <path id="Trazado_873375" data-name="Trazado 873375" d="M89.413,10.879c-4.947,0-7.506-2.426-9.765-4.567C77.431,4.213,75.522,2.4,71.529,2.4s-5.9,1.814-8.118,3.913c-2.259,2.141-4.814,4.567-9.765,4.567S46.14,8.453,43.881,6.312C41.664,4.213,39.755,2.4,35.763,2.4s-5.9,1.814-8.114,3.913c-2.259,2.141-4.818,4.567-9.765,4.567s-7.51-2.426-9.769-4.567C5.9,4.213,3.993,2.4,0,2.4V0C4.947,0,7.506,2.43,9.765,4.567c2.217,2.1,4.126,3.913,8.118,3.913S23.785,6.67,26,4.571C28.253,2.43,30.816,0,35.763,0s7.51,2.43,9.765,4.567c2.217,2.1,4.126,3.913,8.118,3.913s5.9-1.81,8.118-3.913C64.019,2.43,66.582,0,71.529,0s7.51,2.43,9.765,4.567c2.217,2.1,4.126,3.913,8.118,3.913s5.9-1.81,8.118-3.913C99.786,2.43,102.345,0,107.3,0V2.4c-3.993,0-5.9,1.814-8.118,3.913-2.259,2.141-4.818,4.567-9.765,4.567" transform="translate(2.932 38.763)" fill="#7d3a1b"/>
              <path id="Trazado_873376" data-name="Trazado 873376" d="M89.413,10.879c-4.947,0-7.51-2.426-9.765-4.571C77.431,4.209,75.522,2.4,71.529,2.4s-5.9,1.81-8.118,3.909c-2.255,2.145-4.814,4.571-9.765,4.571s-7.51-2.426-9.765-4.571C41.664,4.209,39.755,2.4,35.763,2.4s-5.9,1.814-8.115,3.909c-2.259,2.145-4.818,4.571-9.765,4.571s-7.51-2.426-9.769-4.571C5.9,4.209,3.993,2.4,0,2.4V0C4.947,0,7.51,2.426,9.765,4.567c2.217,2.1,4.126,3.913,8.118,3.913S23.785,6.67,26,4.567C28.253,2.426,30.816,0,35.763,0s7.51,2.426,9.769,4.567c2.213,2.1,4.122,3.913,8.115,3.913s5.9-1.81,8.118-3.913C64.019,2.426,66.582,0,71.529,0s7.51,2.426,9.765,4.567c2.217,2.1,4.126,3.913,8.118,3.913s5.9-1.81,8.118-3.913C99.79,2.426,102.349,0,107.3,0V2.4c-3.993,0-5.905,1.814-8.122,3.909-2.259,2.145-4.818,4.571-9.765,4.571" transform="translate(1.955 25.842)" fill="#7d3a1b"/>
              <path id="Trazado_873377" data-name="Trazado 873377" d="M89.412,10.879c-4.947,0-7.51-2.426-9.765-4.571C77.431,4.209,75.522,2.4,71.529,2.4s-5.9,1.81-8.118,3.909c-2.255,2.145-4.818,4.571-9.765,4.571s-7.51-2.426-9.765-4.571C41.664,4.209,39.755,2.4,35.763,2.4s-5.9,1.814-8.115,3.909c-2.259,2.145-4.818,4.571-9.765,4.571s-7.51-2.426-9.769-4.571C5.9,4.209,3.993,2.4,0,2.4V0C4.947,0,7.51,2.426,9.765,4.567c2.213,2.1,4.126,3.913,8.118,3.913S23.785,6.67,26,4.567C28.253,2.426,30.816,0,35.763,0s7.51,2.426,9.769,4.567c2.213,2.1,4.122,3.913,8.115,3.913s5.9-1.81,8.118-3.913C64.019,2.426,66.582,0,71.529,0s7.51,2.426,9.765,4.567c2.217,2.1,4.126,3.913,8.118,3.913s5.9-1.81,8.118-3.913C99.79,2.426,102.345,0,107.3,0V2.4c-3.993,0-5.905,1.814-8.122,3.909-2.259,2.145-4.818,4.571-9.765,4.571" transform="translate(0.977 12.921)" fill="#7d3a1b"/>
              <path id="Trazado_873378" data-name="Trazado 873378" d="M89.413,10.875c-4.947,0-7.506-2.426-9.765-4.567C77.431,4.209,75.522,2.4,71.529,2.4s-5.9,1.81-8.115,3.909c-2.259,2.141-4.818,4.567-9.769,4.567S46.14,8.449,43.881,6.308C41.664,4.209,39.755,2.4,35.763,2.4s-5.9,1.81-8.115,3.905c-2.255,2.145-4.818,4.571-9.765,4.571s-7.51-2.426-9.769-4.567C5.9,4.209,3.993,2.4,0,2.4V0C4.947,0,7.51,2.426,9.765,4.567c2.217,2.1,4.126,3.909,8.118,3.909s5.9-1.81,8.115-3.909C28.257,2.426,30.816,0,35.763,0s7.506,2.426,9.769,4.567c2.213,2.1,4.122,3.909,8.115,3.909s5.9-1.81,8.118-3.909C64.023,2.426,66.582,0,71.529,0s7.506,2.426,9.765,4.567c2.217,2.1,4.126,3.909,8.118,3.909s5.9-1.81,8.118-3.909C99.79,2.426,102.349,0,107.3,0V2.4c-4,0-5.905,1.81-8.122,3.909-2.259,2.141-4.818,4.567-9.765,4.567" transform="translate(0 0.004)" fill="#7d3a1b"/>
            </g>
          </g>
        </g>
        <path id="Trazado_873425" data-name="Trazado 873425" d="M60.362,0A60.362,60.362,0,1,1,0,60.362,60.362,60.362,0,0,1,60.362,0Z" transform="translate(17.974 21.56)" fill="#efb499"/>
        <circle id="Elipse_11503" data-name="Elipse 11503" cx="63" cy="63" r="63" transform="translate(9 9.719)" fill="#fef7eb"/>
      </g>
    </g>
    <g id="Grupo_1117947" data-name="Grupo 1117947" transform="translate(202.509 9547.339)">
      <g id="Grupo_1117946" data-name="Grupo 1117946" transform="translate(0 15.153)">
        <path id="Trazado_904295" data-name="Trazado 904295" d="M193.29,29.612a.458.458,0,0,1,.132.405l-.7,4.087a3.093,3.093,0,0,0,4.487,3.26l3.67-1.93a.458.458,0,0,1,.427,0l3.67,1.93a3.093,3.093,0,0,0,4.487-3.26l-.7-4.087a.459.459,0,0,1,.132-.405l2.969-2.895a3.093,3.093,0,0,0-1.714-5.275l-4.1-.6a.458.458,0,0,1-.345-.251l-1.835-3.718a3.093,3.093,0,0,0-5.547,0L196.483,20.6a.458.458,0,0,1-.345.25l-4.1.6a3.093,3.093,0,0,0-1.714,5.275Zm-1.247-5.251a.44.44,0,0,1,.37-.312l4.1-.6a3.091,3.091,0,0,0,2.328-1.692l1.835-3.718a.458.458,0,0,1,.821,0l1.835,3.718a3.092,3.092,0,0,0,2.329,1.692l4.1.6a.458.458,0,0,1,.254.782l-2.969,2.894a3.091,3.091,0,0,0-.889,2.737l.7,4.087a.458.458,0,0,1-.665.483l-3.67-1.93a3.093,3.093,0,0,0-2.878,0l-3.67,1.93a.458.458,0,0,1-.665-.483l.7-4.087a3.092,3.092,0,0,0-.889-2.737l-2.969-2.895a.441.441,0,0,1-.116-.47Z" transform="translate(-156.101 -15.153)" fill="#6a4d23"/>
        <path id="Trazado_904296" data-name="Trazado 904296" d="M320.352,111.875a1.317,1.317,0,0,0,.631,1.753l3.018,1.42a1.317,1.317,0,0,0,1.122-2.384l-3.018-1.42A1.317,1.317,0,0,0,320.352,111.875Z" transform="translate(-263.948 -94.252)" fill="#6a4d23"/>
        <path id="Trazado_904297" data-name="Trazado 904297" d="M333.668,83.449h3.018a1.317,1.317,0,1,0,0-2.634h-3.018a1.317,1.317,0,1,0,0,2.634Z" transform="translate(-273.941 -69.275)" fill="#6a4d23"/>
        <path id="Trazado_904298" data-name="Trazado 904298" d="M159.733,114.417a1.316,1.316,0,0,0,1.753.631l3.018-1.42a1.317,1.317,0,0,0-1.122-2.384l-3.018,1.42A1.317,1.317,0,0,0,159.733,114.417Z" transform="translate(-131.557 -94.253)" fill="#6a4d23"/>
        <path id="Trazado_904299" data-name="Trazado 904299" d="M148.8,83.449h3.018a1.317,1.317,0,1,0,0-2.634H148.8a1.317,1.317,0,1,0,0,2.634Z" transform="translate(-121.567 -69.275)" fill="#6a4d23"/>
        <path id="Trazado_904300" data-name="Trazado 904300" d="M88.665,244.7H83.059V214.061a1.317,1.317,0,0,0-1.317-1.317h-6.96a1.317,1.317,0,0,0,0,2.634h5.643V244.7H58.559V215.378H68.634a1.317,1.317,0,0,0,0-2.634H58.559v-10.4a1.317,1.317,0,0,0-1.317-1.317h-24.5a1.317,1.317,0,0,0-1.317,1.317v6.57a1.317,1.317,0,0,0,2.634,0v-5.253H55.924V244.7H34.058V215.06a1.317,1.317,0,1,0-2.634,0v8.334h-12.6a1.317,1.317,0,1,0,0,2.634h12.6V244.7H9.558V226.029h3.116a1.317,1.317,0,1,0,0-2.634H8.241a1.317,1.317,0,0,0-1.317,1.317V244.7H1.317A1.317,1.317,0,0,0,0,246.017V251.7a1.317,1.317,0,0,0,1.317,1.317H88.665a1.317,1.317,0,0,0,1.317-1.317v-5.681A1.317,1.317,0,0,0,88.665,244.7Zm-1.317,5.681H2.635v-3.047H87.348Z" transform="translate(0 -168.359)" fill="#6a4d23"/>
      </g>
    </g>
  </g>
</svg>
