<svg xmlns="http://www.w3.org/2000/svg" width="90" height="90" viewBox="0 0 90 90">
  <g id="Grupo_1117145" data-name="Grupo 1117145" transform="translate(-179.711 -766)">
    <g id="Elipse_11510" data-name="Elipse 11510" transform="translate(179.711 766)" fill="#fff" stroke="#ffce73" stroke-width="5">
      <circle cx="45" cy="45" r="45" stroke="none"/>
      <circle cx="45" cy="45" r="42.5" fill="none"/>
    </g>
    <g id="Grupo_1117196" data-name="Grupo 1117196" transform="translate(201.148 791.388)">
      <g id="Grupo_1117190" data-name="Grupo 1117190" transform="translate(8.08 -4.649)">
        <g id="Grupo_1117176" data-name="Grupo 1117176" transform="translate(2.342 32.014)">
          <g id="Grupo_1117175" data-name="Grupo 1117175">
            <path id="Trazado_873470" data-name="Trazado 873470" d="M113.279,336.231l-2.9,2.9,3.241,3.241,2.9-2.9" transform="translate(-110.377 -336.231)" fill="#ffcb7c"/>
          </g>
        </g>
        <g id="Grupo_1117177" data-name="Grupo 1117177" transform="translate(1.37 1.376)">
          <ellipse id="Elipse_11517" data-name="Elipse 11517" cx="18.873" cy="18.875" rx="18.873" ry="18.875" fill="#8481e2"/>
        </g>
        <g id="Grupo_1117189" data-name="Grupo 1117189" transform="translate(0 0)">
          <g id="Grupo_1117183" data-name="Grupo 1117183">
            <g id="Grupo_1117182" data-name="Grupo 1117182">
              <g id="Grupo_1117179" data-name="Grupo 1117179">
                <g id="Grupo_1117178" data-name="Grupo 1117178">
                  <ellipse id="Elipse_11518" data-name="Elipse 11518" cx="14.353" cy="14.339" rx="14.353" ry="14.339" transform="matrix(0.658, -0.753, 0.753, 0.658, 0, 21.615)" fill="#e5ecec"/>
                </g>
              </g>
              <g id="Grupo_1117181" data-name="Grupo 1117181" transform="translate(33.647 19.653)">
                <g id="Grupo_1117180" data-name="Grupo 1117180">
                  <path id="Trazado_873471" data-name="Trazado 873471" d="M444.649,206.488a.94.94,0,1,1,.923-.771A.949.949,0,0,1,444.649,206.488Z" transform="translate(-443.711 -204.612)"/>
                </g>
              </g>
            </g>
          </g>
          <g id="Grupo_1117188" data-name="Grupo 1117188" transform="translate(13.309 9.635)">
            <g id="Grupo_1117186" data-name="Grupo 1117186" transform="translate(0.309)">
              <g id="Grupo_1117184" data-name="Grupo 1117184" transform="translate(0.94 0.935)">
                <ellipse id="Elipse_11519" data-name="Elipse 11519" cx="5.687" cy="5.686" rx="5.687" ry="5.686" transform="translate(0 11.374) rotate(-89.885)" fill="#ffcbbe"/>
              </g>
              <g id="Grupo_1117185" data-name="Grupo 1117185">
                <path id="Trazado_873472" data-name="Trazado 873472" d="M237.077,111.194a6.626,6.626,0,1,1,6.626-6.626A6.633,6.633,0,0,1,237.077,111.194Zm0-11.374a4.748,4.748,0,1,0,4.747,4.748A4.753,4.753,0,0,0,237.077,99.819Z" transform="translate(-230.451 -97.941)"/>
              </g>
            </g>
            <g id="Grupo_1117187" data-name="Grupo 1117187" transform="translate(0 15.352)">
              <path id="Trazado_873473" data-name="Trazado 873473" d="M241.029,263.307v5.926a14.373,14.373,0,0,1-13.87.014v-5.94a1.9,1.9,0,0,1,1.9-1.9h10.078A1.9,1.9,0,0,1,241.029,263.307Z" transform="translate(-227.159 -261.411)" fill="#f5737f"/>
            </g>
          </g>
        </g>
      </g>
      <g id="Grupo_1117195" data-name="Grupo 1117195" transform="translate(0.062 -4.213)">
        <g id="Grupo_1117191" data-name="Grupo 1117191" transform="translate(0.937 36.098)">
          <path id="Trazado_873474" data-name="Trazado 873474" d="M15.617,384.371l-4.448,4.449a3.865,3.865,0,0,0,5.466,5.466l4.448-4.449Z" transform="translate(-10.037 -384.371)" fill="#ffd89e"/>
        </g>
        <g id="Grupo_1117194" data-name="Grupo 1117194" transform="translate(0)">
          <g id="Grupo_1117192" data-name="Grupo 1117192" transform="translate(6.513 33.362)">
            <path id="Trazado_873475" data-name="Trazado 873475" d="M0,0H3.862V7.73H0Z" transform="translate(0 2.731) rotate(-45)" fill="#9bc6ff"/>
          </g>
          <g id="Grupo_1117193" data-name="Grupo 1117193">
            <path id="Trazado_873476" data-name="Trazado 873476" d="M167.46,67.357a.939.939,0,0,0-1.2.577,13.309,13.309,0,0,1-3.182,5.059,13.542,13.542,0,0,1-1.6,1.37V70.148a2.838,2.838,0,0,0-2.835-2.835H148.568a2.838,2.838,0,0,0-2.835,2.835V74.38a13.412,13.412,0,0,1-1.6-20.338,13.331,13.331,0,0,1,9.482-3.932h.006a13.4,13.4,0,0,1,12.661,9.019.939.939,0,1,0,1.776-.612,15.278,15.278,0,0,0-14.437-10.286h-.007a15.293,15.293,0,0,0-7.4,28.678h0a15.3,15.3,0,0,0,7.374,1.893h.015A15.32,15.32,0,0,0,161,76.9h0a15.358,15.358,0,0,0,7.041-8.343.939.939,0,0,0-.577-1.2ZM147.611,75.52V70.149a.958.958,0,0,1,.957-.957h10.078a.958.958,0,0,1,.957.957v5.359a13.518,13.518,0,0,1-11.991.013Z" transform="translate(-125.345 -43.702)"/>
            <path id="Trazado_873477" data-name="Trazado 873477" d="M28.323,0a19.805,19.805,0,0,0-16.1,31.349l-1.8,1.8L9.974,32.7a.939.939,0,0,0-1.328,0L5.915,35.434h0L1.466,39.883A4.8,4.8,0,1,0,8.26,46.677l4.448-4.449h0L15.439,39.5a.939.939,0,0,0,0-1.328l-.448-.448,1.8-1.8A19.81,19.81,0,1,0,28.323,0ZM6.932,45.349a2.926,2.926,0,0,1-4.137-4.138l3.784-3.785,2.067,2.067,2.071,2.071Zm5.112-5.113L9.978,38.169,7.907,36.1l1.4-1.4,4.137,4.138Zm1.619-3.844-.956-.956-.957-.957L13.4,32.831a19.99,19.99,0,0,0,1.913,1.913Zm14.66,1.358A17.936,17.936,0,1,1,46.256,19.814,17.955,17.955,0,0,1,28.323,37.75Z" transform="translate(-0.062)"/>
          </g>
        </g>
      </g>
    </g>
  </g>
</svg>
