<svg xmlns="http://www.w3.org/2000/svg" xmlns:xlink="http://www.w3.org/1999/xlink" width="145" height="145" viewBox="0 0 145 145">
  <defs>
    <clipPath id="clip-path">
      <rect id="Rectángulo_400938" data-name="Rectángulo 400938" width="145" height="145" transform="translate(0 -0.281)" fill="none"/>
    </clipPath>
    <clipPath id="clip-path-2">
      <rect id="Rectángulo_401073" data-name="Rectángulo 401073" width="110.228" height="49.642" fill="#7d3a1b"/>
    </clipPath>
  </defs>
  <g id="Grupo_1117907" data-name="Grupo 1117907" transform="translate(-175 -9540.719)">
    <g id="Grupo_1099404" data-name="Grupo 1099404" transform="translate(175 9541)">
      <g id="Grupo_1099379" data-name="Grupo 1099379" transform="translate(0 0)">
        <rect id="Rectángulo_401103" data-name="Rectángulo 401103" width="145" height="145" transform="translate(0 -0.281)" fill="none"/>
        <g id="Grupo_1099348" data-name="Grupo 1099348" transform="translate(0.045 0.045)">
          <g id="Grupo_1099282" data-name="Grupo 1099282">
            <g id="Grupo_1099281" data-name="Grupo 1099281" clip-path="url(#clip-path-2)">
              <path id="Trazado_873375" data-name="Trazado 873375" d="M89.413,10.879c-4.947,0-7.506-2.426-9.765-4.567C77.431,4.213,75.522,2.4,71.529,2.4s-5.9,1.814-8.118,3.913c-2.259,2.141-4.814,4.567-9.765,4.567S46.14,8.453,43.881,6.312C41.664,4.213,39.755,2.4,35.763,2.4s-5.9,1.814-8.114,3.913c-2.259,2.141-4.818,4.567-9.765,4.567s-7.51-2.426-9.769-4.567C5.9,4.213,3.993,2.4,0,2.4V0C4.947,0,7.506,2.43,9.765,4.567c2.217,2.1,4.126,3.913,8.118,3.913S23.785,6.67,26,4.571C28.253,2.43,30.816,0,35.763,0s7.51,2.43,9.765,4.567c2.217,2.1,4.126,3.913,8.118,3.913s5.9-1.81,8.118-3.913C64.019,2.43,66.582,0,71.529,0s7.51,2.43,9.765,4.567c2.217,2.1,4.126,3.913,8.118,3.913s5.9-1.81,8.118-3.913C99.786,2.43,102.345,0,107.3,0V2.4c-3.993,0-5.9,1.814-8.118,3.913-2.259,2.141-4.818,4.567-9.765,4.567" transform="translate(2.932 38.763)" fill="#7d3a1b"/>
              <path id="Trazado_873376" data-name="Trazado 873376" d="M89.413,10.879c-4.947,0-7.51-2.426-9.765-4.571C77.431,4.209,75.522,2.4,71.529,2.4s-5.9,1.81-8.118,3.909c-2.255,2.145-4.814,4.571-9.765,4.571s-7.51-2.426-9.765-4.571C41.664,4.209,39.755,2.4,35.763,2.4s-5.9,1.814-8.115,3.909c-2.259,2.145-4.818,4.571-9.765,4.571s-7.51-2.426-9.769-4.571C5.9,4.209,3.993,2.4,0,2.4V0C4.947,0,7.51,2.426,9.765,4.567c2.217,2.1,4.126,3.913,8.118,3.913S23.785,6.67,26,4.567C28.253,2.426,30.816,0,35.763,0s7.51,2.426,9.769,4.567c2.213,2.1,4.122,3.913,8.115,3.913s5.9-1.81,8.118-3.913C64.019,2.426,66.582,0,71.529,0s7.51,2.426,9.765,4.567c2.217,2.1,4.126,3.913,8.118,3.913s5.9-1.81,8.118-3.913C99.79,2.426,102.349,0,107.3,0V2.4c-3.993,0-5.905,1.814-8.122,3.909-2.259,2.145-4.818,4.571-9.765,4.571" transform="translate(1.955 25.842)" fill="#7d3a1b"/>
              <path id="Trazado_873377" data-name="Trazado 873377" d="M89.412,10.879c-4.947,0-7.51-2.426-9.765-4.571C77.431,4.209,75.522,2.4,71.529,2.4s-5.9,1.81-8.118,3.909c-2.255,2.145-4.818,4.571-9.765,4.571s-7.51-2.426-9.765-4.571C41.664,4.209,39.755,2.4,35.763,2.4s-5.9,1.814-8.115,3.909c-2.259,2.145-4.818,4.571-9.765,4.571s-7.51-2.426-9.769-4.571C5.9,4.209,3.993,2.4,0,2.4V0C4.947,0,7.51,2.426,9.765,4.567c2.213,2.1,4.126,3.913,8.118,3.913S23.785,6.67,26,4.567C28.253,2.426,30.816,0,35.763,0s7.51,2.426,9.769,4.567c2.213,2.1,4.122,3.913,8.115,3.913s5.9-1.81,8.118-3.913C64.019,2.426,66.582,0,71.529,0s7.51,2.426,9.765,4.567c2.217,2.1,4.126,3.913,8.118,3.913s5.9-1.81,8.118-3.913C99.79,2.426,102.345,0,107.3,0V2.4c-3.993,0-5.905,1.814-8.122,3.909-2.259,2.145-4.818,4.571-9.765,4.571" transform="translate(0.977 12.921)" fill="#7d3a1b"/>
              <path id="Trazado_873378" data-name="Trazado 873378" d="M89.413,10.875c-4.947,0-7.506-2.426-9.765-4.567C77.431,4.209,75.522,2.4,71.529,2.4s-5.9,1.81-8.115,3.909c-2.259,2.141-4.818,4.567-9.769,4.567S46.14,8.449,43.881,6.308C41.664,4.209,39.755,2.4,35.763,2.4s-5.9,1.81-8.115,3.905c-2.255,2.145-4.818,4.571-9.765,4.571s-7.51-2.426-9.769-4.567C5.9,4.209,3.993,2.4,0,2.4V0C4.947,0,7.51,2.426,9.765,4.567c2.217,2.1,4.126,3.909,8.118,3.909s5.9-1.81,8.115-3.909C28.257,2.426,30.816,0,35.763,0s7.506,2.426,9.769,4.567c2.213,2.1,4.122,3.909,8.115,3.909s5.9-1.81,8.118-3.909C64.023,2.426,66.582,0,71.529,0s7.506,2.426,9.765,4.567c2.217,2.1,4.126,3.909,8.118,3.909s5.9-1.81,8.118-3.909C99.79,2.426,102.349,0,107.3,0V2.4c-4,0-5.905,1.81-8.122,3.909-2.259,2.141-4.818,4.567-9.765,4.567" transform="translate(0 0.004)" fill="#7d3a1b"/>
            </g>
          </g>
        </g>
        <path id="Trazado_873425" data-name="Trazado 873425" d="M60.362,0A60.362,60.362,0,1,1,0,60.362,60.362,60.362,0,0,1,60.362,0Z" transform="translate(17.974 21.56)" fill="#efb499"/>
        <circle id="Elipse_11503" data-name="Elipse 11503" cx="63" cy="63" r="63" transform="translate(9 9.719)" fill="#fef7eb"/>
      </g>
    </g>
    <g id="Grupo_1117945" data-name="Grupo 1117945" transform="translate(209.401 9569.12)">
      <path id="Trazado_904291" data-name="Trazado 904291" d="M79.748,73.907V15.1A5.918,5.918,0,0,0,73.907,9.26H57.373a10.363,10.363,0,0,0-20.608,0H5.841A5.9,5.9,0,0,0,0,15.1V73.907a5.847,5.847,0,0,0,5.841,5.841H73.907A6.148,6.148,0,0,0,79.748,73.907Zm-24.72-23.2L77.411,27.6v45.5ZM47.069,2.336a8.021,8.021,0,0,1,8.024,8c0,3.148-1.247,7.567-3.255,11.531-2.067,4.083-4.034,5.919-4.77,5.919-.7,0-2.637-1.666-4.83-6.138-1.941-3.958-3.195-8.4-3.195-11.312a8.022,8.022,0,0,1,8.024-8ZM2.336,15.1a3.483,3.483,0,0,1,.35-1.525L15.4,26.294,2.336,39.362Zm0,58.806v-19.2L23.079,33.969,66.522,77.411H5.841A3.509,3.509,0,0,1,2.336,73.907Zm71.57,3.5H69.826L23.905,31.49a1.168,1.168,0,0,0-1.652,0L2.336,51.407V42.666L17.883,27.12a1.168,1.168,0,0,0,0-1.652L4.347,11.932A3.482,3.482,0,0,1,5.841,11.6h6.77L46.344,45.33A1.168,1.168,0,0,0,48,45.322L62.776,30.256a1.169,1.169,0,0,0-1.668-1.636L47.162,42.843,15.915,11.6h20.85a34.146,34.146,0,0,0,3.377,11.081c3.176,6.478,5.7,7.446,6.927,7.446,2.9,0,5.758-5.035,6.854-7.2A31.949,31.949,0,0,0,57.377,11.6h16.53a3.5,3.5,0,0,1,2.674,1.243L65.742,23.894A1.169,1.169,0,0,0,67.41,25.53l10-10.2v8.909L52.55,49.91a1.168,1.168,0,0,0,.013,1.639L76.838,75.824a3.5,3.5,0,0,1-2.931,1.587Z" fill="#6a4d23"/>
      <path id="Trazado_904292" data-name="Trazado 904292" d="M272.63,43.946a5.466,5.466,0,1,0-5.455-5.466A5.466,5.466,0,0,0,272.63,43.946Zm0-8.595a3.129,3.129,0,1,1-3.118,3.129,3.127,3.127,0,0,1,3.118-3.129Z" transform="translate(-225.561 -27.873)" fill="#6a4d23"/>
      <path id="Trazado_904293" data-name="Trazado 904293" d="M103.94,292.631a1.169,1.169,0,0,0-2.091,1.043,7.9,7.9,0,0,1,.836,3.556c0,3.148-1.247,7.567-3.255,11.531-2.067,4.083-4.034,5.919-4.77,5.919-.7,0-2.637-1.666-4.83-6.138-1.941-3.958-3.195-8.4-3.195-11.312a8.028,8.028,0,0,1,11.376-7.269,1.169,1.169,0,0,0,.975-2.123A10.364,10.364,0,0,0,84.3,297.23c0,3.936,1.773,8.956,3.433,12.341,3.176,6.478,5.7,7.446,6.927,7.446,2.9,0,5.758-5.035,6.854-7.2,2.2-4.336,3.507-9.041,3.507-12.587a10.217,10.217,0,0,0-1.082-4.6Z" transform="translate(-71.171 -242.207)" fill="#6a4d23"/>
      <path id="Trazado_904294" data-name="Trazado 904294" d="M121.252,319.909a5.466,5.466,0,1,0,5.455,5.466A5.466,5.466,0,0,0,121.252,319.909Zm0,8.595a3.129,3.129,0,1,1,3.118-3.129A3.127,3.127,0,0,1,121.252,328.5Z" transform="translate(-97.761 -270.081)" fill="#6a4d23"/>
    </g>
  </g>
</svg>
