<svg xmlns="http://www.w3.org/2000/svg" width="107" height="107" viewBox="0 0 107 107">
  <g id="Grupo_1118363" data-name="Grupo 1118363" transform="translate(-285.867 -1580)">
    <g id="Grupo_156312" data-name="Grupo 156312" transform="translate(-2.801 -2868.437)">
      <path id="Elipse_5845" data-name="Elipse 5845" d="M53.5,0A53.5,53.5,0,1,1,0,53.5,53.5,53.5,0,0,1,53.5,0Z" transform="translate(288.668 4448.437)" fill="#ffce73"/>
    </g>
    <g id="Grupo_1117833" data-name="Grupo 1117833" transform="translate(306.867 1602)">
      <path id="Trazado_903980" data-name="Trazado 903980" d="M30.02,15.8l1.96.392.44-2.2H37V12H32.82l.4-2H37V8H33.62l.36-1.8L32.02,5.8,31.58,8H27v2h4.18l-.4,2H27v2h3.38Z" fill="#7a4f00"/>
      <path id="Trazado_903981" data-name="Trazado 903981" d="M58,51h-.026A4.948,4.948,0,0,0,59,48a5,5,0,0,0-10,0,4.948,4.948,0,0,0,1.026,3H50a5.006,5.006,0,0,0-5,5v6h2V56a3,3,0,0,1,3-3h8a3,3,0,0,1,3,3v6h2V56A5.006,5.006,0,0,0,58,51Zm-7-3a3,3,0,1,1,3,3A3,3,0,0,1,51,48Z" fill="#7a4f00"/>
      <path id="Trazado_903982" data-name="Trazado 903982" d="M48,56h2v6H48Z" fill="#7a4f00"/>
      <path id="Trazado_903983" data-name="Trazado 903983" d="M58,56h2v6H58Z" fill="#7a4f00"/>
      <path id="Trazado_903984" data-name="Trazado 903984" d="M3,56a3,3,0,0,1,3-3h8a3,3,0,0,1,3,3v6h2V56a5.006,5.006,0,0,0-5-5h-.026A4.948,4.948,0,0,0,15,48,5,5,0,0,0,5,48a4.948,4.948,0,0,0,1.026,3H6a5.006,5.006,0,0,0-5,5v6H3Zm4-8a3,3,0,1,1,3,3A3,3,0,0,1,7,48Z" fill="#7a4f00"/>
      <path id="Trazado_903985" data-name="Trazado 903985" d="M4,56H6v6H4Z" fill="#7a4f00"/>
      <path id="Trazado_903986" data-name="Trazado 903986" d="M14,56h2v6H14Z" fill="#7a4f00"/>
      <path id="Trazado_903987" data-name="Trazado 903987" d="M10,38a7.008,7.008,0,0,0,7-7,1,1,0,0,0-1-1h-.313L11.331,18.675a3,3,0,0,0,1.537-1.841l10.825-2.376A9.019,9.019,0,0,0,31,19.942V46H29a1,1,0,0,0-1,1v3a1,1,0,0,0-.9.553l-2,4A1,1,0,0,0,26,56H38a1,1,0,0,0,.9-1.447l-2-4A1,1,0,0,0,36,50V47a1,1,0,0,0-1-1H33V19.941A9.011,9.011,0,0,0,41,11c0-.114-.013-.225-.017-.339L51.355,8.384a3,3,0,0,0,1.314,1.29L48.313,21H48a1,1,0,0,0-1,1,7,7,0,0,0,14,0,1,1,0,0,0-1-1h-.313L55.331,9.675A2.995,2.995,0,1,0,51.06,6.4L40.686,8.679A8.989,8.989,0,0,0,23.14,12.531l-10.388,2.28a3,3,0,1,0-4.083,3.863L4.313,30H4a1,1,0,0,0-1,1,7.008,7.008,0,0,0,7,7ZM36.382,54H27.618l1-2h6.764ZM34,50H30V48h4ZM54,27a5.008,5.008,0,0,1-4.9-4h9.8A5.01,5.01,0,0,1,54,27Zm-3.544-6L54,11.786,57.544,21ZM54,6a1,1,0,1,1-.911,1.4L53,7A1,1,0,0,1,54,6ZM32,4a7,7,0,1,1-7,7A7.008,7.008,0,0,1,32,4ZM10,36a5.008,5.008,0,0,1-4.9-4h9.8A5.01,5.01,0,0,1,10,36Zm0-21a1,1,0,1,1-1,1A1,1,0,0,1,10,15Zm0,5.786L13.544,30H6.456Z" fill="#7a4f00"/>
    </g>
  </g>
</svg>
