<svg xmlns="http://www.w3.org/2000/svg" xmlns:xlink="http://www.w3.org/1999/xlink" width="129" height="128" viewBox="0 0 129 128">
  <defs>
    <clipPath id="clip-path">
      <rect id="Rectángulo_400938" data-name="Rectángulo 400938" width="113" height="113" transform="translate(0.211 0.211)" fill="none"/>
    </clipPath>
    <clipPath id="clip-path-2">
      <rect id="Rectángulo_401073" data-name="Rectángulo 401073" width="86.443" height="38.93" fill="#7d3a1b"/>
    </clipPath>
  </defs>
  <g id="Grupo_1118363" data-name="Grupo 1118363" transform="translate(-389.156 -1677)">
    <g id="Grupo_108927" data-name="Grupo 108927" transform="translate(-0.844 -2790)">
      <path id="Rectángulo_36179" data-name="Rectángulo 36179" d="M0,0H129V128H0Z" transform="translate(390 4467)" fill="#feebcf"/>
    </g>
    <g id="Grupo_1099433" data-name="Grupo 1099433" transform="translate(131.945 -3599.211)">
      <g id="Grupo_1099379" data-name="Grupo 1099379" transform="translate(265 5284)">
        <rect id="Rectángulo_401103" data-name="Rectángulo 401103" width="113" height="113" transform="translate(0.211 0.211)" fill="none"/>
        <g id="Grupo_1099348" data-name="Grupo 1099348">
          <g id="Grupo_1099282" data-name="Grupo 1099282">
            <g id="Grupo_1099281" data-name="Grupo 1099281" clip-path="url(#clip-path-2)">
              <path id="Trazado_873375" data-name="Trazado 873375" d="M70.12,8.532c-3.88,0-5.887-1.9-7.658-3.581C60.723,3.3,59.226,1.882,56.1,1.882S51.467,3.3,49.728,4.95c-1.771,1.679-3.775,3.581-7.658,3.581s-5.886-1.9-7.658-3.581C32.674,3.3,31.177,1.882,28.046,1.882S23.418,3.3,21.682,4.95C19.911,6.629,17.9,8.532,14.024,8.532S8.135,6.629,6.364,4.95C4.628,3.3,3.131,1.882,0,1.882V0C3.88,0,5.887,1.906,7.658,3.581,9.4,5.23,10.893,6.65,14.024,6.65s4.628-1.419,6.364-3.066C22.157,1.906,24.166,0,28.046,0s5.89,1.906,7.658,3.581C37.442,5.23,38.939,6.65,42.07,6.65S46.7,5.23,48.437,3.581C50.205,1.906,52.215,0,56.1,0s5.89,1.906,7.658,3.581C65.491,5.23,66.988,6.65,70.12,6.65s4.628-1.419,6.367-3.069C78.255,1.906,80.261,0,84.144,0V1.882c-3.131,0-4.628,1.422-6.367,3.069C76.006,6.629,74,8.532,70.12,8.532" transform="translate(2.299 30.399)" fill="#7d3a1b"/>
              <path id="Trazado_873376" data-name="Trazado 873376" d="M70.12,8.532c-3.88,0-5.889-1.9-7.658-3.584C60.723,3.3,59.226,1.882,56.1,1.882S51.467,3.3,49.728,4.947c-1.768,1.682-3.775,3.584-7.658,3.584s-5.889-1.9-7.658-3.584C32.674,3.3,31.177,1.882,28.046,1.882S23.418,3.3,21.682,4.947C19.911,6.629,17.9,8.532,14.025,8.532s-5.889-1.9-7.661-3.584C4.628,3.3,3.131,1.882,0,1.882V0C3.88,0,5.889,1.9,7.658,3.581,9.4,5.23,10.893,6.65,14.025,6.65s4.628-1.419,6.364-3.069C22.157,1.9,24.166,0,28.046,0s5.889,1.9,7.661,3.581C37.442,5.23,38.939,6.65,42.071,6.65S46.7,5.23,48.437,3.581C50.206,1.9,52.215,0,56.1,0s5.89,1.9,7.658,3.581C65.491,5.23,66.988,6.65,70.12,6.65s4.628-1.419,6.367-3.069C78.257,1.9,80.264,0,84.147,0V1.882c-3.131,0-4.631,1.422-6.37,3.066C76.006,6.629,74,8.532,70.12,8.532" transform="translate(1.533 20.266)" fill="#7d3a1b"/>
              <path id="Trazado_873377" data-name="Trazado 873377" d="M70.119,8.532c-3.88,0-5.889-1.9-7.658-3.584C60.723,3.3,59.226,1.882,56.1,1.882S51.467,3.3,49.728,4.947C47.96,6.629,45.95,8.532,42.071,8.532s-5.89-1.9-7.658-3.584C32.674,3.3,31.177,1.882,28.046,1.882S23.418,3.3,21.682,4.947C19.911,6.629,17.9,8.532,14.025,8.532s-5.89-1.9-7.661-3.584C4.628,3.3,3.131,1.882,0,1.882V0C3.88,0,5.889,1.9,7.658,3.581,9.393,5.23,10.893,6.65,14.025,6.65s4.628-1.419,6.364-3.069C22.156,1.9,24.166,0,28.046,0s5.89,1.9,7.661,3.581C37.442,5.23,38.939,6.65,42.071,6.65S46.7,5.23,48.437,3.581C50.205,1.9,52.215,0,56.1,0s5.889,1.9,7.658,3.581C65.491,5.23,66.988,6.65,70.119,6.65s4.628-1.419,6.367-3.069C78.257,1.9,80.261,0,84.147,0V1.882c-3.131,0-4.631,1.422-6.37,3.066C76.006,6.629,74,8.532,70.119,8.532" transform="translate(0.766 10.133)" fill="#7d3a1b"/>
              <path id="Trazado_873378" data-name="Trazado 873378" d="M70.12,8.529c-3.88,0-5.887-1.9-7.658-3.581C60.723,3.3,59.226,1.882,56.095,1.882S51.467,3.3,49.731,4.947C47.96,6.626,45.953,8.529,42.07,8.529s-5.887-1.9-7.658-3.581C32.674,3.3,31.177,1.882,28.046,1.882S23.418,3.3,21.682,4.944C19.914,6.626,17.9,8.529,14.024,8.529s-5.89-1.9-7.661-3.581C4.628,3.3,3.131,1.882,0,1.882V0C3.88,0,5.89,1.9,7.658,3.581,9.4,5.228,10.893,6.647,14.024,6.647s4.628-1.419,6.364-3.066C22.159,1.9,24.166,0,28.046,0s5.887,1.9,7.661,3.581c1.736,1.646,3.233,3.066,6.364,3.066S46.7,5.228,48.437,3.581C50.208,1.9,52.215,0,56.095,0s5.887,1.9,7.658,3.581c1.739,1.646,3.236,3.066,6.367,3.066s4.628-1.419,6.367-3.066C78.257,1.9,80.264,0,84.147,0V1.882c-3.134,0-4.631,1.419-6.37,3.066C76.006,6.626,74,8.529,70.12,8.529" transform="translate(0 0.003)" fill="#7d3a1b"/>
            </g>
          </g>
        </g>
        <path id="Trazado_873425" data-name="Trazado 873425" d="M47.337,0A47.337,47.337,0,1,1,0,47.337,47.337,47.337,0,0,1,47.337,0Z" transform="translate(14.061 16.873)" fill="#7d3a1b"/>
        <circle id="Elipse_11503" data-name="Elipse 11503" cx="49.5" cy="49.5" r="49.5" transform="translate(7.211 7.211)" fill="#fff"/>
      </g>
      <g id="Grupo_1118281" data-name="Grupo 1118281" transform="translate(292.23 5308.23)">
        <path id="Trazado_905292" data-name="Trazado 905292" d="M22.025,20h-10L10.31,26H18.8a2,2,0,0,0,1.923-1.451Z" fill="#f55082"/>
        <path id="Trazado_905293" data-name="Trazado 905293" d="M43,2H19.449A18.625,18.625,0,0,0,1.78,14.735,4,4,0,0,0,5.574,20H8.025L1.117,44.176A3,3,0,0,0,4,48h8.023a2,2,0,0,0,0-4h-.857l6.857-24H38.332a2,2,0,0,0,1.9-1.368l4.667-14A2,2,0,0,0,43,2Z" fill="#575f63"/>
        <path id="Trazado_905294" data-name="Trazado 905294" d="M4,45.368a2.633,2.633,0,0,1,.1-.722l6.806-23.822A3,3,0,0,0,8.025,17H5.574a1,1,0,0,1-.949-1.316A15.6,15.6,0,0,1,19.448,5H44.773l.123-.368A2,2,0,0,0,43,2H19.449A18.625,18.625,0,0,0,1.78,14.735,4,4,0,0,0,5.574,20H8.025L1.117,44.176A3,3,0,0,0,4,48H6.633A2.631,2.631,0,0,1,4,45.368Z" fill="#6b7477"/>
        <path id="Trazado_905295" data-name="Trazado 905295" d="M28.651,17.368l4.666-14A2,2,0,0,1,35.215,2H43a2,2,0,0,1,1.9,2.632l-4.667,14A2,2,0,0,1,38.332,20H30.548a2,2,0,0,1-1.9-2.632Z" fill="#ffe150"/>
        <path id="Trazado_905296" data-name="Trazado 905296" d="M31.935,17l4-12h5.676l-4,12Z" fill="#bee6fa"/>
        <path id="Trazado_905297" data-name="Trazado 905297" d="M6,51H9V62H6Z" fill="#575f63"/>
        <path id="Trazado_905298" data-name="Trazado 905298" d="M30,29H60V59H30Z" fill="#fafafa"/>
        <path id="Trazado_905299" data-name="Trazado 905299" d="M31.5,30.5H60V59H31.5Z" fill="#f0f0f0"/>
        <path id="Trazado_905300" data-name="Trazado 905300" d="M63,30.75a.75.75,0,0,1-.75-.75V26.75H59a.75.75,0,0,1,0-1.5h4a.75.75,0,0,1,.75.75v4A.75.75,0,0,1,63,30.75Z" fill="#f55082"/>
        <path id="Trazado_905301" data-name="Trazado 905301" d="M27,30.75a.75.75,0,0,1-.75-.75V26a.75.75,0,0,1,.75-.75h4a.75.75,0,1,1,0,1.5H27.75V30A.75.75,0,0,1,27,30.75Z" fill="#f55082"/>
        <path id="Trazado_905302" data-name="Trazado 905302" d="M31,62.75H27a.75.75,0,0,1-.75-.75V58a.75.75,0,0,1,1.5,0v3.25H31a.75.75,0,0,1,0,1.5Z" fill="#f55082"/>
        <path id="Trazado_905303" data-name="Trazado 905303" d="M63,62.75H59a.75.75,0,1,1,0-1.5h3.25V58a.75.75,0,0,1,1.5,0v4a.75.75,0,0,1-.75.75Z" fill="#f55082"/>
        <path id="Trazado_905304" data-name="Trazado 905304" d="M4,48h7v2a1,1,0,0,1-1,1H5a1,1,0,0,1-1-1Z" fill="#8a8a9e"/>
        <path id="Trazado_905305" data-name="Trazado 905305" d="M50,32h7v7H50Z" fill="#575f63"/>
        <path id="Trazado_905306" data-name="Trazado 905306" d="M57,39.75H50a.75.75,0,0,1-.75-.75V32a.75.75,0,0,1,.75-.75h7a.75.75,0,0,1,.75.75v7A.75.75,0,0,1,57,39.75Zm-6.25-1.5h5.5v-5.5h-5.5Z" fill="#575f63"/>
        <circle id="Elipse_11606" data-name="Elipse 11606" cx="1" cy="1" r="1" transform="translate(52.5 34.5)" fill="#f0f0f0"/>
        <path id="Trazado_905307" data-name="Trazado 905307" d="M33,32h7v7H33Z" fill="#575f63"/>
        <path id="Trazado_905308" data-name="Trazado 905308" d="M40,39.75H33a.75.75,0,0,1-.75-.75V32a.75.75,0,0,1,.75-.75h7a.75.75,0,0,1,.75.75v7A.75.75,0,0,1,40,39.75Zm-6.25-1.5h5.5v-5.5h-5.5Z" fill="#575f63"/>
        <circle id="Elipse_11607" data-name="Elipse 11607" cx="1" cy="1" r="1" transform="translate(35.5 34.5)" fill="#f0f0f0"/>
        <path id="Trazado_905309" data-name="Trazado 905309" d="M33,49h7v7H33Z" fill="#575f63"/>
        <path id="Trazado_905310" data-name="Trazado 905310" d="M40,56.75H33a.75.75,0,0,1-.75-.75V49a.75.75,0,0,1,.75-.75h7a.75.75,0,0,1,.75.75v7a.75.75,0,0,1-.75.75Zm-6.25-1.5h5.5v-5.5h-5.5Z" fill="#575f63"/>
        <circle id="Elipse_11608" data-name="Elipse 11608" cx="1" cy="1" r="1" transform="translate(35.5 51.5)" fill="#f0f0f0"/>
        <g id="Grupo_1118280" data-name="Grupo 1118280">
          <path id="Trazado_905311" data-name="Trazado 905311" d="M56,42.75H50a.75.75,0,0,1,0-1.5h6a.75.75,0,1,1,0,1.5Z" fill="#575f63"/>
          <path id="Trazado_905312" data-name="Trazado 905312" d="M47,36.75H43a.75.75,0,0,1,0-1.5h4a.75.75,0,0,1,0,1.5Z" fill="#575f63"/>
          <path id="Trazado_905313" data-name="Trazado 905313" d="M50,51.75H43a.75.75,0,0,1,0-1.5h7a.75.75,0,1,1,0,1.5Z" fill="#575f63"/>
          <path id="Trazado_905314" data-name="Trazado 905314" d="M56,54.75H43a.75.75,0,0,1,0-1.5H56a.75.75,0,1,1,0,1.5Z" fill="#575f63"/>
          <path id="Trazado_905315" data-name="Trazado 905315" d="M41,46.75H37a.75.75,0,0,1,0-1.5h4a.75.75,0,0,1,0,1.5Z" fill="#575f63"/>
          <path id="Trazado_905316" data-name="Trazado 905316" d="M40,43.75H36a.75.75,0,0,1,0-1.5h4a.75.75,0,0,1,0,1.5Z" fill="#575f63"/>
          <path id="Trazado_905317" data-name="Trazado 905317" d="M50,48.75H44a.75.75,0,0,1-.75-.75V45a.75.75,0,0,1,.75-.75h6a.75.75,0,0,1,.75.75v3a.75.75,0,0,1-.75.75Zm-5.25-1.5h4.5v-1.5h-4.5Z" fill="#575f63"/>
          <path id="Trazado_905318" data-name="Trazado 905318" d="M47,42.75H43a.75.75,0,0,1-.75-.75V39a.75.75,0,0,1,.75-.75h4a.75.75,0,0,1,.75.75v3A.75.75,0,0,1,47,42.75Zm-3.25-1.5h2.5v-1.5h-2.5Z" fill="#575f63"/>
          <path id="Trazado_905319" data-name="Trazado 905319" d="M56,51.75H53a.75.75,0,0,1-.75-.75V45a.75.75,0,0,1,.75-.75h3a.75.75,0,0,1,.75.75v6a.75.75,0,0,1-.75.75Zm-2.25-1.5h1.5v-4.5h-1.5Z" fill="#575f63"/>
        </g>
      </g>
    </g>
  </g>
</svg>
