<svg xmlns="http://www.w3.org/2000/svg" xmlns:xlink="http://www.w3.org/1999/xlink" width="139" height="139" viewBox="0 0 139 139">
  <defs>
    <clipPath id="clip-path">
      <rect id="Rectángulo_400938" data-name="Rectángulo 400938" width="139" height="139" transform="translate(-0.043 -0.043)" fill="none"/>
    </clipPath>
    <clipPath id="clip-path-2">
      <rect id="Rectángulo_401073" data-name="Rectángulo 401073" width="105.872" height="47.68" fill="#7d3a1b"/>
    </clipPath>
  </defs>
  <g id="Grupo_1118363" data-name="Grupo 1118363" transform="translate(-1042.047 -2528.029)">
    <g id="Grupo_1099411" data-name="Grupo 1099411" transform="translate(777.09 -2755.928)">
      <g id="Grupo_1099379" data-name="Grupo 1099379" transform="translate(265 5284)">
        <rect id="Rectángulo_401103" data-name="Rectángulo 401103" width="139" height="139" transform="translate(-0.043 -0.043)" fill="none"/>
        <g id="Grupo_1099348" data-name="Grupo 1099348" transform="translate(0)">
          <g id="Grupo_1099282" data-name="Grupo 1099282">
            <g id="Grupo_1099281" data-name="Grupo 1099281" clip-path="url(#clip-path-2)">
              <path id="Trazado_873375" data-name="Trazado 873375" d="M85.879,10.449c-4.752,0-7.21-2.33-9.379-4.386C74.371,4.047,72.538,2.3,68.7,2.3s-5.668,1.742-7.8,3.758c-2.17,2.056-4.624,4.386-9.379,4.386s-7.21-2.33-9.379-4.386C40.018,4.047,38.184,2.3,34.349,2.3s-5.668,1.742-7.794,3.758c-2.17,2.056-4.627,4.386-9.379,4.386S9.963,8.119,7.794,6.063C5.668,4.047,3.835,2.3,0,2.3V0C4.752,0,7.21,2.334,9.379,4.386c2.129,2.02,3.963,3.758,7.8,3.758s5.668-1.738,7.794-3.755C27.136,2.334,29.6,0,34.349,0s7.213,2.334,9.379,4.386c2.129,2.02,3.963,3.758,7.8,3.758s5.668-1.738,7.8-3.758C61.489,2.334,63.951,0,68.7,0s7.213,2.334,9.379,4.386c2.129,2.02,3.963,3.758,7.8,3.758s5.668-1.738,7.8-3.758C95.843,2.334,98.3,0,103.056,0V2.3c-3.835,0-5.668,1.742-7.8,3.758-2.169,2.056-4.627,4.386-9.379,4.386" transform="translate(2.816 37.231)" fill="#7d3a1b"/>
              <path id="Trazado_873376" data-name="Trazado 873376" d="M85.879,10.449c-4.752,0-7.213-2.33-9.379-4.39C74.371,4.043,72.538,2.3,68.7,2.3s-5.668,1.738-7.8,3.755c-2.166,2.06-4.624,4.39-9.379,4.39s-7.213-2.33-9.379-4.39C40.018,4.043,38.184,2.3,34.349,2.3s-5.668,1.742-7.794,3.755c-2.17,2.06-4.627,4.39-9.379,4.39s-7.213-2.33-9.383-4.39C5.668,4.043,3.835,2.3,0,2.3V0C4.752,0,7.213,2.33,9.379,4.386c2.129,2.02,3.963,3.758,7.8,3.758s5.668-1.738,7.794-3.758C27.136,2.33,29.6,0,34.349,0s7.213,2.33,9.383,4.386c2.126,2.02,3.959,3.758,7.794,3.758s5.668-1.738,7.8-3.758C61.489,2.33,63.951,0,68.7,0s7.213,2.33,9.379,4.386c2.129,2.02,3.963,3.758,7.8,3.758s5.668-1.738,7.8-3.758C95.846,2.33,98.3,0,103.059,0V2.3c-3.835,0-5.672,1.742-7.8,3.755-2.169,2.06-4.628,4.39-9.379,4.39" transform="translate(1.877 24.821)" fill="#7d3a1b"/>
              <path id="Trazado_873377" data-name="Trazado 873377" d="M85.879,10.449c-4.752,0-7.213-2.33-9.379-4.39C74.371,4.043,72.538,2.3,68.7,2.3s-5.668,1.738-7.8,3.755c-2.166,2.06-4.627,4.39-9.379,4.39s-7.213-2.33-9.379-4.39C40.018,4.043,38.184,2.3,34.349,2.3s-5.668,1.742-7.794,3.755c-2.169,2.06-4.627,4.39-9.379,4.39s-7.213-2.33-9.383-4.39C5.668,4.043,3.835,2.3,0,2.3V0C4.752,0,7.213,2.33,9.379,4.386c2.126,2.02,3.963,3.758,7.8,3.758s5.668-1.738,7.794-3.758C27.136,2.33,29.6,0,34.349,0s7.213,2.33,9.383,4.386c2.126,2.02,3.959,3.758,7.794,3.758s5.668-1.738,7.8-3.758C61.489,2.33,63.951,0,68.7,0s7.213,2.33,9.379,4.386c2.129,2.02,3.963,3.758,7.8,3.758s5.668-1.738,7.8-3.758C95.846,2.33,98.3,0,103.059,0V2.3c-3.835,0-5.672,1.742-7.8,3.755-2.169,2.06-4.627,4.39-9.379,4.39" transform="translate(0.939 12.41)" fill="#7d3a1b"/>
              <path id="Trazado_873378" data-name="Trazado 873378" d="M85.879,10.445c-4.752,0-7.21-2.33-9.379-4.386C74.371,4.043,72.538,2.3,68.7,2.3s-5.668,1.738-7.794,3.755c-2.169,2.056-4.627,4.386-9.383,4.386s-7.21-2.33-9.379-4.386C40.018,4.043,38.184,2.3,34.349,2.3s-5.668,1.738-7.794,3.751c-2.166,2.06-4.627,4.39-9.379,4.39S9.963,8.115,7.794,6.059C5.668,4.043,3.835,2.3,0,2.3V0C4.752,0,7.213,2.33,9.379,4.386c2.129,2.016,3.963,3.755,7.8,3.755S22.845,6.4,24.971,4.386C27.14,2.33,29.6,0,34.349,0s7.21,2.33,9.383,4.386c2.126,2.016,3.959,3.755,7.794,3.755s5.668-1.738,7.8-3.755C61.493,2.33,63.951,0,68.7,0s7.21,2.33,9.379,4.386c2.129,2.016,3.963,3.755,7.8,3.755s5.668-1.738,7.8-3.755C95.846,2.33,98.3,0,103.059,0V2.3c-3.839,0-5.672,1.738-7.8,3.755-2.169,2.056-4.627,4.386-9.379,4.386" transform="translate(0 0.004)" fill="#7d3a1b"/>
            </g>
          </g>
        </g>
        <path id="Trazado_873425" data-name="Trazado 873425" d="M57.977,0A57.977,57.977,0,1,1,0,57.977,57.977,57.977,0,0,1,57.977,0Z" transform="translate(17.221 20.665)" fill="#efb499"/>
        <circle id="Elipse_11503" data-name="Elipse 11503" cx="60.5" cy="60.5" r="60.5" transform="translate(8.957 8.957)" fill="#fff"/>
      </g>
    </g>
    <path id="Trazado_905253" data-name="Trazado 905253" d="M92.474,37.87a1.462,1.462,0,0,0,.032-.547,42.179,42.179,0,0,0-1-4.989c0-.017-.008-.035-.012-.052l0-.011,0-.009,0-.008h0A42.672,42.672,0,0,0,76.65,9.189,42.452,42.452,0,0,0,7.818,42.132L3.532,44.97A6.762,6.762,0,0,0,5.789,57.213,6.759,6.759,0,0,0,10.3,66.961a6.756,6.756,0,0,0,4.51,9.749A6.772,6.772,0,0,0,19.456,86.5a6.868,6.868,0,0,0,1.362.137,6.723,6.723,0,0,0,3.723-1.127l7.269-4.813c.731.354,1.476.689,2.223,1a42.125,42.125,0,0,0,8.135,2.439A31.228,31.228,0,0,0,47,90.148l2.787,2.7A6.1,6.1,0,0,0,59.117,85.1c-.215-.326-.417-.662-.61-1A42.367,42.367,0,0,0,88.639,60.645,1.459,1.459,0,0,0,86,59.393,39.453,39.453,0,0,1,57.236,81.376,18.065,18.065,0,0,1,56.6,71.143l3.558-15.373a3.945,3.945,0,0,0,2.1,1.177,4.05,4.05,0,0,0,.8.082,3.948,3.948,0,0,0,2.188-.663l24.49-16.22q.067,1.152.068,2.308a39.631,39.631,0,0,1-1.476,10.741,1.459,1.459,0,0,0,2.81.792A42.592,42.592,0,0,0,92.474,37.87ZM74.918,46.461,53.9,15.115l12.379-8.2A39.773,39.773,0,0,1,88.659,32.966l0,.012c0,.009,0,.018.006.027a38.794,38.794,0,0,1,.741,3.86ZM34.677,78.8l3.895-2.579.878,2.366q.4,1.09.893,2.15A39.161,39.161,0,0,1,35.149,79C34.992,78.931,34.834,78.862,34.677,78.8Zm19.074-8.31a21,21,0,0,0,1.228,13.109v0c0,.007.006.014.01.022a21.154,21.154,0,0,0,1.693,3.1,3.18,3.18,0,0,1-4.867,4.037l-2.786-2.7a28.332,28.332,0,0,1-4.7-5.973l-.035-.058a28.578,28.578,0,0,1-2.112-4.457l-1.517-4.09a1.46,1.46,0,0,0-1.876-.861c-.016.006-.03.014-.045.019a.839.839,0,0,0-.2.1l-.03.018-.019.012L22.928,83.074a3.851,3.851,0,1,1-4.252-6.421l1.329-.879h0l.022-.015,3.015-2a1.46,1.46,0,0,0-1.612-2.434L18.4,73.338a3.85,3.85,0,0,1-4.231-6.433l4.366-2.892a1.46,1.46,0,0,0-1.61-2.435l-3.033,2.009a3.851,3.851,0,0,1-4.235-6.432l4.367-2.893a1.459,1.459,0,1,0-1.61-2.434l-3.017,2A3.85,3.85,0,1,1,5.143,47.4l10.6-7.017a1.459,1.459,0,1,0-1.611-2.434l-3.328,2.2A39.6,39.6,0,0,1,63.582,5.2l-22.4,14.832a3.989,3.989,0,0,0-1.119,5.516l.13.2-1.915,1.27a6.509,6.509,0,0,1-4.634,1,9.414,9.414,0,0,0-6.706,1.45l-7.6,5.035a1.46,1.46,0,0,0,1.612,2.434l7.6-5.035a6.505,6.505,0,0,1,4.629-1,9.435,9.435,0,0,0,6.71-1.45l1.916-1.269L57.914,52.5Zm9.884-16.552a1.062,1.062,0,0,1-1.47-.3L43.439,25.357l0-.006,0-.006L42.5,23.939a1.067,1.067,0,0,1,.3-1.473l8.668-5.74L72.485,48.073Zm0,0" transform="translate(1063.936 2550.799)" fill="#6a4d23"/>
  </g>
</svg>
