<svg xmlns="http://www.w3.org/2000/svg" width="90" height="90" viewBox="0 0 90 90">
  <g id="Grupo_1117144" data-name="Grupo 1117144" transform="translate(-179.711 -766)">
    <g id="Elipse_11510" data-name="Elipse 11510" transform="translate(179.711 766)" fill="#fff" stroke="#ffce73" stroke-width="5">
      <circle cx="45" cy="45" r="45" stroke="none"/>
      <circle cx="45" cy="45" r="42.5" fill="none"/>
    </g>
    <g id="Grupo_1117200" data-name="Grupo 1117200" transform="translate(172.387 784.248)">
      <g id="Grupo_1117199" data-name="Grupo 1117199" transform="translate(29.68 0.836)">
        <path id="Trazado_873498" data-name="Trazado 873498" d="M81.428,28.119l-3.872-.582a18.067,18.067,0,0,0-2.848-6.872l2.327-3.151a1.386,1.386,0,0,0-.135-1.8l-2-2a1.385,1.385,0,0,0-1.8-.135L69.942,15.9a18.066,18.066,0,0,0-6.872-2.848l-.582-3.872A1.385,1.385,0,0,0,61.118,8H58.284a1.385,1.385,0,0,0-1.37,1.18l-.582,3.872A18.066,18.066,0,0,0,49.459,15.9l-3.151-2.327a1.386,1.386,0,0,0-1.8.135l-2,2a1.385,1.385,0,0,0-.135,1.8l2.327,3.151a18.066,18.066,0,0,0-2.848,6.872l-3.872.582a1.385,1.385,0,0,0-1.18,1.37v2.835a1.385,1.385,0,0,0,1.18,1.37l3.872.582a18.066,18.066,0,0,0,2.848,6.872L42.366,44.3a1.386,1.386,0,0,0,.135,1.8l2,2a1.385,1.385,0,0,0,1.8.135l3.151-2.327a18.067,18.067,0,0,0,6.872,2.848l.582,3.872a1.386,1.386,0,0,0,1.37,1.18h2.835a1.385,1.385,0,0,0,1.37-1.18l.582-3.872a18.066,18.066,0,0,0,6.872-2.848l3.151,2.327a1.385,1.385,0,0,0,1.8-.135l2-2a1.386,1.386,0,0,0,.135-1.8l-2.327-3.151a18.066,18.066,0,0,0,2.848-6.872l3.872-.582a1.386,1.386,0,0,0,1.18-1.37V29.489A1.385,1.385,0,0,0,81.428,28.119ZM59.7,44.759A13.852,13.852,0,1,1,73.553,30.907,13.852,13.852,0,0,1,59.7,44.759Z" transform="translate(-36.794 -8)" fill="#ff4755"/>
        <path id="Trazado_873499" data-name="Trazado 873499" d="M137.3,251a13.852,13.852,0,0,0,13.852-13.852c0-.316-.012-.63-.033-.94a13.851,13.851,0,0,1-27.639,0c-.021.311-.033.624-.033.94A13.852,13.852,0,0,0,137.3,251Z" transform="translate(-114.39 -212.359)" fill="#fc2b3a"/>
        <path id="Trazado_873500" data-name="Trazado 873500" d="M165.879,468.817H146.229a1.838,1.838,0,0,0-1.838,1.838v1.838h23.326v-1.838A1.838,1.838,0,0,0,165.879,468.817Z" transform="translate(-133.147 -420.662)" fill="#365e7d"/>
        <path id="Trazado_873501" data-name="Trazado 873501" d="M144.393,486c0,.014,0,.028,0,.043v1.838h23.326v-1.838c0-.014,0-.028,0-.043Z" transform="translate(-133.147 -436.049)" fill="#2b4d66"/>
        <path id="Trazado_873502" data-name="Trazado 873502" d="M204.784,233.4h-9.35a1.847,1.847,0,1,1,0-3.694h9.35a1.847,1.847,0,1,1,0,3.694Z" transform="translate(-177.202 -206.536)" fill="#407093"/>
        <path id="Trazado_873503" data-name="Trazado 873503" d="M204.784,239.284h-9.35a1.844,1.844,0,0,1-1.587-.906,1.844,1.844,0,0,0,1.587,2.787h9.35a1.844,1.844,0,0,0,1.587-2.787A1.844,1.844,0,0,1,204.784,239.284Z" transform="translate(-177.202 -214.304)" fill="#365e7d"/>
        <path id="Trazado_873504" data-name="Trazado 873504" d="M191.867,162.518v1.739a.718.718,0,0,1-.718.718h-1.037a.718.718,0,0,1-.718-.718v-1.739a.8.8,0,0,0-.8-.8h-2.218a.8.8,0,0,0-.8.8v1.739a.718.718,0,0,1-.718.718h-1.037a.718.718,0,0,1-.718-.718v-1.739a.8.8,0,0,0-.8-.8h-2.008a.8.8,0,0,0-.8.8v4.507a1.8,1.8,0,0,0,1.8,1.8h12.4a1.8,1.8,0,0,0,1.8-1.8v-4.507a.8.8,0,0,0-.8-.8h-2.008A.8.8,0,0,0,191.867,162.518Z" transform="translate(-164.576 -145.653)" fill="#4a80aa"/>
        <path id="Trazado_873505" data-name="Trazado 873505" d="M193.682,196.312h-12.4a1.8,1.8,0,0,1-1.8-1.8V196.4a1.8,1.8,0,0,0,1.8,1.8h12.4a1.8,1.8,0,0,0,1.8-1.8v-1.881A1.8,1.8,0,0,1,193.682,196.312Z" transform="translate(-164.576 -175.025)" fill="#407093"/>
        <path id="Trazado_873506" data-name="Trazado 873506" d="M195.478,282.7v-1.669a2.851,2.851,0,0,0-.533-1.661,16.454,16.454,0,0,1-3.078-9.582v-4.74H183.1v4.74a16.455,16.455,0,0,1-3.078,9.582,2.852,2.852,0,0,0-.533,1.661V282.7Z" transform="translate(-164.576 -238.191)" fill="#e6e2e6"/>
        <path id="Trazado_873507" data-name="Trazado 873507" d="M195.478,282.7v-1.669a2.851,2.851,0,0,0-.533-1.661,16.454,16.454,0,0,1-3.078-9.582v-4.74H183.1v4.74a16.455,16.455,0,0,1-3.078,9.582,2.852,2.852,0,0,0-.533,1.661V282.7Z" transform="translate(-164.576 -238.191)" fill="#4a80aa"/>
        <path id="Trazado_873508" data-name="Trazado 873508" d="M179.563,437.614H163.49a1.821,1.821,0,0,1,0-3.641h16.074a1.821,1.821,0,0,1,0,3.641Z" transform="translate(-148.62 -389.459)" fill="#407093"/>
        <path id="Trazado_873509" data-name="Trazado 873509" d="M179.563,443.275H163.49a1.818,1.818,0,0,1-1.557-.88,1.818,1.818,0,0,0,1.557,2.761h16.074a1.818,1.818,0,0,0,1.557-2.761A1.818,1.818,0,0,1,179.563,443.275Z" transform="translate(-148.62 -397.001)" fill="#365e7d"/>
      </g>
      <path id="Trazado_873510" data-name="Trazado 873510" d="M74.474,20.168l-3.336-.5A18.758,18.758,0,0,0,68.582,13.5l2.005-2.715a2.16,2.16,0,0,0-.211-2.828L68.367,5.948a2.16,2.16,0,0,0-2.828-.211L62.824,7.742a18.756,18.756,0,0,0-6.166-2.555l-.5-3.336A2.16,2.16,0,0,0,54.007,0h-2.84a2.16,2.16,0,0,0-2.149,1.85l-.5,3.336A18.757,18.757,0,0,0,42.35,7.742L39.635,5.737a2.161,2.161,0,0,0-2.828.211L34.8,7.957a2.16,2.16,0,0,0-.211,2.828L36.592,13.5a18.756,18.756,0,0,0-2.555,6.166l-3.336.5a2.16,2.16,0,0,0-1.85,2.149v2.84a2.16,2.16,0,0,0,1.85,2.149l3.336.5a18.756,18.756,0,0,0,2.555,6.166l-2.005,2.715a2.16,2.16,0,0,0,.211,2.828l2.008,2.008a2.16,2.16,0,0,0,2.828.211l2.715-2.005a18.991,18.991,0,0,0,2.479,1.34q-.173.263-.357.52a3.622,3.622,0,0,0-.681,2.121v1a2.606,2.606,0,0,0-1.62,3.6,2.631,2.631,0,0,0-2.055,2.564v1.842a.785.785,0,0,0,.785.785H64.273a.785.785,0,0,0,.785-.785V50.876A2.631,2.631,0,0,0,63,48.313a2.605,2.605,0,0,0-1.62-3.6v-1a3.622,3.622,0,0,0-.681-2.121q-.184-.257-.357-.52a18.961,18.961,0,0,0,2.479-1.34l2.715,2.005a2.16,2.16,0,0,0,2.828-.211l2.008-2.008a2.16,2.16,0,0,0,.211-2.828l-2.005-2.715a18.758,18.758,0,0,0,2.555-6.166l3.336-.5a2.16,2.16,0,0,0,1.85-2.149v-2.84a2.16,2.16,0,0,0-1.85-2.149ZM63.488,50.876v1.057h-21.8V50.876a1.058,1.058,0,0,1,1.057-1.057H62.431A1.058,1.058,0,0,1,63.488,50.876ZM61.679,47.21a1.04,1.04,0,0,1-1.039,1.039H44.534a1.039,1.039,0,1,1,0-2.078h3.65a.785.785,0,0,0,0-1.571H45.361v-.887a2.061,2.061,0,0,1,.388-1.207,17.174,17.174,0,0,0,3.231-10.058V31.47h7.215v.979a17.174,17.174,0,0,0,3.231,10.058,2.06,2.06,0,0,1,.388,1.207V44.6H51.326a.785.785,0,0,0,0,1.571h9.314A1.04,1.04,0,0,1,61.679,47.21Zm-9.092-24H46.375A1.015,1.015,0,0,1,45.361,22.2V17.683a.018.018,0,0,1,.018-.018h2.012a.018.018,0,0,1,.018.018v1.743a1.507,1.507,0,0,0,1.505,1.505h1.039a1.507,1.507,0,0,0,1.505-1.505V17.683a.018.018,0,0,1,.018-.018H53.7a.018.018,0,0,1,.018.018v1.743a1.507,1.507,0,0,0,1.505,1.505H56.26a1.507,1.507,0,0,0,1.505-1.505V17.683a.018.018,0,0,1,.018-.018h2.012a.018.018,0,0,1,.018.018V22.2A1.015,1.015,0,0,1,58.8,23.213H55.728a.785.785,0,1,0,0,1.571h1.544a1.065,1.065,0,1,1,0,2.131H47.9a1.065,1.065,0,0,1,0-2.131h4.684a.785.785,0,0,0,0-1.571Zm3.608,5.272V29.9H48.979V28.485Zm18.559-3.328a.6.6,0,0,1-.513.6l-3.88.583a.785.785,0,0,0-.655.632,17.228,17.228,0,0,1-2.73,6.587.785.785,0,0,0,.017.91l2.332,3.157a.6.6,0,0,1-.059.785l-2.008,2.008a.6.6,0,0,1-.785.059l-3.157-2.332a.785.785,0,0,0-.91-.017,17.393,17.393,0,0,1-2.863,1.583,15.568,15.568,0,0,1-1.056-2.545,14.667,14.667,0,0,0-10.358-27.4.785.785,0,0,0,.477,1.5,13.1,13.1,0,0,1,9.481,24.362,15.776,15.776,0,0,1-.321-3.173V31.47h.579a.785.785,0,1,0,0-1.571h-.579V28.438a2.632,2.632,0,0,0,1.852-3.788A2.589,2.589,0,0,0,61.384,22.2V17.683a1.59,1.59,0,0,0-1.589-1.589H57.783a1.59,1.59,0,0,0-1.589,1.589v1.677h-.908V17.683A1.59,1.59,0,0,0,53.7,16.095H51.476a1.59,1.59,0,0,0-1.589,1.589v1.677h-.908V17.683a1.59,1.59,0,0,0-1.589-1.589H45.379a1.59,1.59,0,0,0-1.589,1.589V22.2a2.589,2.589,0,0,0,1.766,2.451,2.633,2.633,0,0,0,1.852,3.788V29.9H46.83a.785.785,0,0,0,0,1.571h.579v.979a15.784,15.784,0,0,1-.321,3.173A13.1,13.1,0,0,1,45.9,12.475a.785.785,0,1,0-.8-1.35,14.658,14.658,0,0,0-7.178,12.612,14.662,14.662,0,0,0,8.766,13.426,15.568,15.568,0,0,1-1.056,2.545,17.4,17.4,0,0,1-2.863-1.583.785.785,0,0,0-.91.017L38.7,40.474a.6.6,0,0,1-.784-.059l-2.008-2.008a.6.6,0,0,1-.059-.784l2.332-3.157a.785.785,0,0,0,.017-.91,17.227,17.227,0,0,1-2.73-6.587.785.785,0,0,0-.655-.632l-3.88-.583a.6.6,0,0,1-.513-.6v-2.84a.6.6,0,0,1,.513-.6l3.88-.583a.785.785,0,0,0,.655-.632,17.227,17.227,0,0,1,2.73-6.587.785.785,0,0,0-.017-.91L35.85,9.852a.6.6,0,0,1,.059-.785l2.008-2.008A.6.6,0,0,1,38.7,7l3.157,2.332a.785.785,0,0,0,.91.017,17.226,17.226,0,0,1,6.587-2.73.785.785,0,0,0,.632-.655l.583-3.88a.6.6,0,0,1,.6-.513h2.84a.6.6,0,0,1,.6.513l.583,3.88a.785.785,0,0,0,.632.655,17.227,17.227,0,0,1,6.587,2.73.785.785,0,0,0,.91-.017L66.472,7a.6.6,0,0,1,.785.059l2.008,2.008a.6.6,0,0,1,.059.785l-2.332,3.157a.785.785,0,0,0-.017.91,17.228,17.228,0,0,1,2.73,6.587.785.785,0,0,0,.655.632l3.88.583a.6.6,0,0,1,.513.6v2.84Z"/>
    </g>
  </g>
</svg>
