<svg xmlns="http://www.w3.org/2000/svg" width="90" height="90" viewBox="0 0 90 90">
  <g id="Grupo_1117137" data-name="Grupo 1117137" transform="translate(-179.711 -766)">
    <g id="Elipse_11510" data-name="Elipse 11510" transform="translate(179.711 766)" fill="#fff" stroke="#ffce73" stroke-width="5">
      <circle cx="45" cy="45" r="45" stroke="none"/>
      <circle cx="45" cy="45" r="42.5" fill="none"/>
    </g>
    <g id="Grupo_1117297" data-name="Grupo 1117297" transform="translate(192.711 777.992)">
      <g id="Grupo_1117296" data-name="Grupo 1117296" transform="translate(7.841 7.769)">
        <g id="Grupo_1117292" data-name="Grupo 1117292" transform="translate(0.001 10.865)">
          <path id="Trazado_874433" data-name="Trazado 874433" d="M22.971,133.85a7.933,7.933,0,1,0-7.933-7.932A7.948,7.948,0,0,0,22.971,133.85Z" transform="translate(-15.038 -117.984)" fill="#837683" fill-rule="evenodd"/>
          <path id="Trazado_874434" data-name="Trazado 874434" d="M91.234,125.917a7.932,7.932,0,0,1-7.228,7.9q.349.031.706.031a7.965,7.965,0,0,0,1.136-.081l.142-.021a7.934,7.934,0,0,0-1.278-15.763q-.357,0-.706.031A7.933,7.933,0,0,1,91.234,125.917Z" transform="translate(-76.778 -117.984)" fill="#685e68" fill-rule="evenodd"/>
          <path id="Trazado_874435" data-name="Trazado 874435" d="M43.684,200.98a5.542,5.542,0,0,0-5.508,4.944,7.931,7.931,0,0,0,11.016,0A5.54,5.54,0,0,0,43.684,200.98Z" transform="translate(-35.751 -192.282)" fill="#8ac9fe" fill-rule="evenodd"/>
          <path id="Trazado_874436" data-name="Trazado 874436" d="M84.015,201.025c3.3.419,4.626,2.914,4.931,5.9a7.876,7.876,0,0,0,1.281-1,5.54,5.54,0,0,0-5.507-4.944A5.462,5.462,0,0,0,84.015,201.025Z" transform="translate(-76.786 -192.282)" fill="#60b7ff" fill-rule="evenodd"/>
          <path id="Trazado_874437" data-name="Trazado 874437" d="M66.816,149.137a2.8,2.8,0,1,0-2.8-2.8A2.807,2.807,0,0,0,66.816,149.137Z" transform="translate(-58.882 -140.858)" fill="#f6dccd" fill-rule="evenodd"/>
          <path id="Trazado_874438" data-name="Trazado 874438" d="M89.825,146.337a2.8,2.8,0,0,1-2.448,2.779,2.914,2.914,0,0,0,.352.021,2.8,2.8,0,1,0,0-5.6,2.917,2.917,0,0,0-.352.022A2.8,2.8,0,0,1,89.825,146.337Z" transform="translate(-79.796 -140.858)" fill="#f1cbbc" fill-rule="evenodd"/>
        </g>
        <g id="Grupo_1117293" data-name="Grupo 1117293" transform="translate(17.218 0)">
          <path id="Trazado_874439" data-name="Trazado 874439" d="M188.838,15.628a6.764,6.764,0,0,1,1.983.822l1.288-.572,1.518,1.518-.572,1.288a6.764,6.764,0,0,1,.822,1.983l1.315.506v2.148l-1.315.506a6.769,6.769,0,0,1-.822,1.982l.572,1.288-1.518,1.519-1.288-.573a6.766,6.766,0,0,1-1.983.823l-.506,1.314h-2.148l-.506-1.315a6.769,6.769,0,0,1-1.982-.822l-1.288.573L180.889,27.1l.573-1.287a6.787,6.787,0,0,1-.823-1.983l-1.314-.506V21.173l1.314-.506a6.766,6.766,0,0,1,.823-1.983l-.573-1.288,1.519-1.518,1.287.572a6.785,6.785,0,0,1,1.983-.822l.506-1.315h2.148Z" transform="translate(-179.325 -14.313)" fill="#ffe177" fill-rule="evenodd"/>
          <path id="Trazado_874440" data-name="Trazado 874440" d="M216.368,16.07l.433-.192,1.518,1.518-.572,1.288a6.764,6.764,0,0,1,.822,1.983l1.315.506v2.148l-1.315.506a6.769,6.769,0,0,1-.822,1.982l.572,1.288L216.8,28.616l-.433-.192L217.7,27.1l-.573-1.288a6.771,6.771,0,0,0,.822-1.982l1.315-.506V21.173l-1.315-.506a6.766,6.766,0,0,0-.822-1.983L217.7,17.4Zm-9.46,0,.192-.192,1.287.572c-.091.051-.181.1-.269.158Zm6.622-.442a6.764,6.764,0,0,1,1.983.822l-.355.158a8.853,8.853,0,0,0-2.253-.98l-.506-1.315h.625Zm-5.141,12.415-1.288.573-.192-.192,1.211-.538Q208.251,27.967,208.388,28.043Zm7.124,0a6.766,6.766,0,0,1-1.983.823l-.506,1.314H212.4l.506-1.314a8.874,8.874,0,0,0,2.253-.98Z" transform="translate(-204.017 -14.313)" fill="#ffd064" fill-rule="evenodd"/>
          <path id="Trazado_874441" data-name="Trazado 874441" d="M223.044,54.289a3.744,3.744,0,1,1-3.743,3.744A3.744,3.744,0,0,1,223.044,54.289Z" transform="translate(-215.112 -50.1)" fill="#eceff1" fill-rule="evenodd"/>
          <path id="Trazado_874442" data-name="Trazado 874442" d="M223.044,54.289c.085,0,.17,0,.254.009a3.744,3.744,0,0,0,0,7.47c-.084.005-.169.008-.254.008a3.744,3.744,0,0,1,0-7.488Z" transform="translate(-215.112 -50.1)" fill="#d1d1d6" fill-rule="evenodd"/>
        </g>
        <g id="Grupo_1117294" data-name="Grupo 1117294" transform="translate(0 32.179)">
          <path id="Trazado_874443" data-name="Trazado 874443" d="M41.491,327.374l8.3-4.809c1.559-.9,3.143-1.544,4.857-.988a58.108,58.108,0,0,0,8.207,2.522,2.307,2.307,0,0,1,1.6,2.762,2.235,2.235,0,0,1-2.765,1.6l1.113.178a5.161,5.161,0,0,0,3.558-.621l7.982-4.649c6.205-3.613,7.116,1.947,5.054,3.218L64.909,335.5a5.318,5.318,0,0,1-4.3.606L50.1,333.294l-3.893,2.247a1.573,1.573,0,0,1-2.142-.576l-3.148-5.45a1.574,1.574,0,0,1,.573-2.142Z" transform="translate(-38.018 -321.369)" fill="#f6dccd" fill-rule="evenodd"/>
          <path id="Trazado_874444" data-name="Trazado 874444" d="M41.491,327.374l8.3-4.809c1.559-.9,3.143-1.544,4.857-.988,1.021.33,2.39.866,3.926,1.379l-16.084,9.288-1.574-2.727A1.574,1.574,0,0,1,41.491,327.374Z" transform="translate(-38.018 -321.369)" fill="#f1cbbc" fill-rule="evenodd"/>
          <path id="Trazado_874445" data-name="Trazado 874445" d="M19.462,350.746l6.586,11.635a1.18,1.18,0,0,1-.443,1.6l-2.242,1.269a1.18,1.18,0,0,1-1.6-.445l-6.583-11.635a1.176,1.176,0,0,1,.443-1.6L17.86,350.3A1.179,1.179,0,0,1,19.462,350.746Z" transform="translate(-15.025 -347.134)" fill="#d1d1d6" fill-rule="evenodd"/>
          <path id="Trazado_874446" data-name="Trazado 874446" d="M49.132,358.741,50.3,360.8l1.153,2.037a1.178,1.178,0,0,1-.44,1.6l.8-.453a1.18,1.18,0,0,0,.443-1.6L51.1,360.337l-2.322-4.1-2.325-4.106-.783-1.381A1.18,1.18,0,0,0,44.3,350.2l1.354,2.392,2.322,4.1,1.156,2.042Z" transform="translate(-41.23 -347.134)" fill="#b1b1b5" fill-rule="evenodd"/>
        </g>
        <g id="Grupo_1117295" data-name="Grupo 1117295" transform="translate(34.442 10.871)">
          <path id="Trazado_874447" data-name="Trazado 874447" d="M351.6,118.043a7.928,7.928,0,1,1-7.928,7.928A7.928,7.928,0,0,1,351.6,118.043Z" transform="translate(-343.675 -118.043)" fill="#ffc338" fill-rule="evenodd"/>
          <path id="Trazado_874448" data-name="Trazado 874448" d="M413.526,118.043a7.928,7.928,0,1,1,0,15.856c-.228,0-.455-.01-.679-.029a7.928,7.928,0,0,0,0-15.8C413.071,118.053,413.3,118.043,413.526,118.043Z" transform="translate(-405.598 -118.043)" fill="#f5b829" fill-rule="evenodd"/>
        </g>
      </g>
      <path id="Trazado_874449" data-name="Trazado 874449" d="M18.944,53.638l.612,1.081v0a2.017,2.017,0,0,1-.761,2.737l-2.232,1.265h0a2.018,2.018,0,0,1-2.737-.761l-6.563-11.6a2.014,2.014,0,0,1,.757-2.74l2.235-1.265h0a2.019,2.019,0,0,1,2.738.758v0l.492.87,5.8-3.36c1.769-1.023,3.578-1.688,5.521-1.057a57.436,57.436,0,0,0,8.072,2.487.849.849,0,0,1,.109.027,3.133,3.133,0,0,1,2.14,3.771,3.571,3.571,0,0,1-.219.6,4.313,4.313,0,0,0,.89-.395l7.958-4.635c2.9-1.689,4.833-1.5,5.927-.765a3.349,3.349,0,0,1-.028,5.41L35.217,54.967a6.109,6.109,0,0,1-4.944.7h0l-10.14-2.718ZM18.1,55.544,11.534,43.949a.337.337,0,0,0-.456-.128L8.844,45.086h0a.333.333,0,0,0-.124.453h0l6.564,11.6h0a.336.336,0,0,0,.456.125L17.97,56h0A.336.336,0,0,0,18.1,55.544Zm.023-3.365,1.476-.852a.839.839,0,0,1,.636-.084L30.705,54.05a4.485,4.485,0,0,0,3.631-.51h0l14.442-8.892a1.656,1.656,0,0,0-.265-2.717c-.821-.342-2.081-.118-3.911.948l-7.958,4.635a5.972,5.972,0,0,1-4.1.723h0l-.987-.161s-3.5-.918-5.349-1.415a.838.838,0,1,1,.435-1.619c1.8.485,3.43,1.016,5.181,1.378a1.413,1.413,0,0,0,1.691-1h0a1.459,1.459,0,0,0-.99-1.724,59.946,59.946,0,0,1-8.229-2.531h0c-1.474-.479-2.822.137-4.164.913L14.31,45.451Zm-7.381-7.034a.926.926,0,1,1-.784,1.049.926.926,0,0,1,.784-1.049Zm5.035-27.28A8.773,8.773,0,1,1,7,26.639a8.772,8.772,0,0,1,8.773-8.773ZM21.689,30.56a7.1,7.1,0,1,0-11.832,0,6.4,6.4,0,0,1,3.3-3.433,3.641,3.641,0,1,1,5.235,0A6.4,6.4,0,0,1,21.689,30.56ZM11.161,32.032a7.1,7.1,0,0,0,9.224,0,4.7,4.7,0,0,0-9.224,0Zm4.612-5.466A1.964,1.964,0,1,0,13.809,24.6,1.969,1.969,0,0,0,15.773,26.566ZM35.2,8.46a7.591,7.591,0,0,1,1.4.581l.9-.4a.838.838,0,0,1,.933.173l1.517,1.517a.838.838,0,0,1,.174.932l-.4.9a7.561,7.561,0,0,1,.581,1.4l.917.353a.838.838,0,0,1,.537.782v2.146a.838.838,0,0,1-.537.782l-.917.353a7.647,7.647,0,0,1-.581,1.4l.4.9a.838.838,0,0,1-.174.932l-1.517,1.517a.838.838,0,0,1-.932.174l-.9-.4a7.565,7.565,0,0,1-1.4.581l-.353.917a.838.838,0,0,1-.783.537H31.918a.838.838,0,0,1-.782-.537l-.353-.917a7.631,7.631,0,0,1-1.4-.582l-.9.4a.838.838,0,0,1-.932-.174l-1.517-1.517a.838.838,0,0,1-.173-.933l.4-.9a7.633,7.633,0,0,1-.582-1.4l-.918-.353a.838.838,0,0,1-.537-.782V14.7a.838.838,0,0,1,.537-.782l.918-.353a7.639,7.639,0,0,1,.582-1.4l-.4-.9a.838.838,0,0,1,.173-.933l1.517-1.517a.838.838,0,0,1,.933-.173l.9.4a7.586,7.586,0,0,1,1.4-.581l.355-.92A.838.838,0,0,1,31.918,7h2.146a.838.838,0,0,1,.783.538Zm-1.412,1-.3-.779h-1l-.3.78a.839.839,0,0,1-.588.514,5.914,5.914,0,0,0-1.736.719.838.838,0,0,1-.78.052l-.762-.339-.7.7.339.762a.838.838,0,0,1-.052.78,5.964,5.964,0,0,0-.722,1.74.838.838,0,0,1-.514.587l-.777.3v1l.777.3a.838.838,0,0,1,.514.586,5.949,5.949,0,0,0,.722,1.738.839.839,0,0,1,.053.782l-.339.762.7.7.763-.338a.839.839,0,0,1,.778.052,5.956,5.956,0,0,0,1.74.72.839.839,0,0,1,.589.515l.3.777h1l.3-.777a.838.838,0,0,1,.589-.514,5.888,5.888,0,0,0,1.735-.719.839.839,0,0,1,.781-.053l.763.338.7-.7-.338-.763a.839.839,0,0,1,.052-.778,5.969,5.969,0,0,0,.721-1.738.838.838,0,0,1,.514-.589l.777-.3v-1l-.777-.3a.838.838,0,0,1-.515-.589,5.9,5.9,0,0,0-.719-1.738.839.839,0,0,1-.053-.779l.338-.763-.7-.7-.762.339a.838.838,0,0,1-.78-.052,5.914,5.914,0,0,0-1.736-.719A.839.839,0,0,1,33.788,9.459Zm-.8,1.734a4.583,4.583,0,1,1-4.582,4.582A4.583,4.583,0,0,1,32.99,11.192Zm0,1.677A2.907,2.907,0,1,0,35.9,15.775a2.9,2.9,0,0,0-2.908-2.906ZM50.208,35.412A8.772,8.772,0,1,1,58.98,26.64a8.789,8.789,0,0,1-8.772,8.772Zm0-1.677a7.095,7.095,0,1,0-7.095-7.095,7.109,7.109,0,0,0,7.095,7.095ZM49.37,22.007v-.386a.838.838,0,1,1,1.677,0V22a3.185,3.185,0,0,1,2.272,1.909.838.838,0,1,1-1.546.649,1.71,1.71,0,0,0-2.246-.844,1.057,1.057,0,0,0-.759,1.022v0a.883.883,0,0,0,.579.758,3.661,3.661,0,0,0,1,.29h0c1.44.237,3.013.9,3.219,2.613.2,1.661-1.12,2.633-2.524,2.9v.362a.838.838,0,1,1-1.677,0v-.374a3.167,3.167,0,0,1-2.519-2.309.838.838,0,0,1,1.627-.405A1.688,1.688,0,0,0,50.291,29.7h0a2.377,2.377,0,0,0,1.26-.357.754.754,0,0,0,.353-.744h0a1.079,1.079,0,0,0-.721-.856,4.444,4.444,0,0,0-1.1-.3c-1.412-.23-2.91-.949-2.989-2.624a2.681,2.681,0,0,1,1.82-2.663,3.475,3.475,0,0,1,.458-.144ZM33.828,33.231a.838.838,0,1,1-1.677,0v-5.7a.838.838,0,1,1,1.677,0Zm2.209,3.12A.838.838,0,0,1,35,35.036l4.9-3.877a.838.838,0,0,1,1.04,1.315Zm-5.053-1.315a.838.838,0,0,1-1.04,1.315l-4.9-3.877a.838.838,0,0,1,1.04-1.315Z" transform="translate(0)" fill-rule="evenodd"/>
    </g>
  </g>
</svg>
