<svg xmlns="http://www.w3.org/2000/svg" width="107" height="107" viewBox="0 0 107 107">
  <g id="Grupo_1118364" data-name="Grupo 1118364" transform="translate(-285.867 -1736)">
    <g id="Grupo_156312" data-name="Grupo 156312" transform="translate(-2.801 -2712.437)">
      <path id="Elipse_5845" data-name="Elipse 5845" d="M53.5,0A53.5,53.5,0,1,1,0,53.5,53.5,53.5,0,0,1,53.5,0Z" transform="translate(288.668 4448.437)" fill="#ffce73"/>
    </g>
    <g id="Grupo_1117832" data-name="Grupo 1117832" transform="translate(299.366 1758)">
      <g id="Grupo_1117825" data-name="Grupo 1117825" transform="translate(10.3)">
        <g id="Grupo_1117824" data-name="Grupo 1117824" transform="translate(0)">
          <path id="Trazado_903976" data-name="Trazado 903976" d="M33.039,6.3A6.3,6.3,0,0,0,36.1.9a.9.9,0,0,0-.9-.9,6.3,6.3,0,0,0-5.4,3.057A6.3,6.3,0,0,0,24.4,0a.9.9,0,0,0-.9.9,6.3,6.3,0,0,0,3.058,5.4,6.3,6.3,0,1,0,6.48,0Zm1.143-4.383a4.513,4.513,0,0,1-3.368,3.368A4.514,4.514,0,0,1,34.182,1.915ZM29.8,7.2a4.482,4.482,0,0,1,3.095,1.238.9.9,0,0,1-1.16.179.9.9,0,0,0-1.2.24.9.9,0,0,1-1.46,0,.9.9,0,0,0-1.2-.24.9.9,0,0,1-1.16-.179A4.481,4.481,0,0,1,29.8,7.2ZM25.416,1.915a4.514,4.514,0,0,1,3.368,3.368A4.514,4.514,0,0,1,25.416,1.915ZM29.8,16.194a4.5,4.5,0,0,1-4.135-6.268,2.679,2.679,0,0,0,2.461.521,2.693,2.693,0,0,0,3.347,0,2.679,2.679,0,0,0,2.462-.521A4.5,4.5,0,0,1,29.8,16.194Z" transform="translate(-23.501)" fill="#7a4f00"/>
        </g>
      </g>
      <g id="Grupo_1117827" data-name="Grupo 1117827" transform="translate(24.695 11.996)">
        <g id="Grupo_1117826" data-name="Grupo 1117826" transform="translate(0)">
          <path id="Trazado_903977" data-name="Trazado 903977" d="M149.8,100a6.3,6.3,0,1,0,6.3,6.3A6.305,6.305,0,0,0,149.8,100Zm0,1.8a4.506,4.506,0,0,1,4.394,3.536,8.081,8.081,0,0,1-5.614-3.366A4.482,4.482,0,0,1,149.8,101.8Zm0,9a4.5,4.5,0,0,1-2.83-7.992,9.878,9.878,0,0,0,7.247,4.344A4.505,4.505,0,0,1,149.8,110.8Z" transform="translate(-143.501 -100)" fill="#7a4f00"/>
        </g>
      </g>
      <g id="Grupo_1117829" data-name="Grupo 1117829" transform="translate(39.09)">
        <g id="Grupo_1117828" data-name="Grupo 1117828">
          <path id="Trazado_903978" data-name="Trazado 903978" d="M269.8,0a6.305,6.305,0,0,0-6.3,6.3v5.4a6.3,6.3,0,0,0,12.6,0V6.3A6.305,6.305,0,0,0,269.8,0Zm0,16.194a4.5,4.5,0,1,1,4.5-4.5A4.5,4.5,0,0,1,269.8,16.194Zm4.5-8.9a6.284,6.284,0,0,0-9,0v-1a4.5,4.5,0,0,1,9,0Z" transform="translate(-263.501)" fill="#7a4f00"/>
        </g>
      </g>
      <g id="Grupo_1117831" data-name="Grupo 1117831" transform="translate(8.501 5.398)">
        <g id="Grupo_1117830" data-name="Grupo 1117830" transform="translate(0)">
          <path id="Trazado_903979" data-name="Trazado 903979" d="M66.081,70.762V51.3a6.3,6.3,0,0,0-12.6,0V86.326a.9.9,0,1,0,1.8,0V71.991h9.472a6.287,6.287,0,0,1,1.324,3.858V92.623h-10.8v-2.7a.9.9,0,1,0-1.8,0v3.6a.9.9,0,0,0,.9.9h.9v3.85l-2.7.9-2.7-.9V79.091a6.276,6.276,0,0,0,1.8-4.4v-12a3.3,3.3,0,0,0-3.3-3.3h-6a3.3,3.3,0,0,0-3.3,3.3v12a6.276,6.276,0,0,0,1.8,4.4V98.273l-2.7.9-2.7-.9V82.69a6.276,6.276,0,0,0,1.8-4.4v-9a3.3,3.3,0,0,0-3.3-3.3h-6a3.3,3.3,0,0,0-3.3,3.3v9a6.276,6.276,0,0,0,1.8,4.4V98.273l-2.7.9-2.7-.9V91.784H22a.9.9,0,0,0,.9-.9V62.694a3.3,3.3,0,0,0-3.3-3.3h-6a3.3,3.3,0,0,0-3.3,3.3v8.068a8.087,8.087,0,0,0-1.8,5.087V90.884a.9.9,0,0,0,.9.9h2.7v7.138a.9.9,0,0,0,.615.854l3.6,1.2a.9.9,0,1,0,.569-1.707L13.9,98.273V91.784h5.4v7.138a.9.9,0,0,0,.615.854l3.6,1.2a.9.9,0,0,0,.569,0l3.6-1.2a.9.9,0,0,0,.615-.854V83.977a6.286,6.286,0,0,0,5.4,0V98.921a.9.9,0,0,0,.615.854l3.6,1.2a.9.9,0,0,0,.569,0l3.6-1.2a.9.9,0,0,0,.615-.854V80.379a6.286,6.286,0,0,0,5.4,0V98.921a.9.9,0,0,0,.615.854l3.6,1.2a.9.9,0,0,0,.569,0l3.6-1.2a.9.9,0,0,0,.615-.854v-4.5h5.4v3.85l-2.984.994a.9.9,0,1,0,.569,1.707l3.6-1.2a.9.9,0,0,0,.615-.854v-4.5h2.7a.9.9,0,0,0,.9-.9V75.849A8.087,8.087,0,0,0,66.081,70.762ZM59.783,46.8a4.494,4.494,0,0,1,3.6,1.8H56.187A4.494,4.494,0,0,1,59.783,46.8Zm4.5,23.392h-9V64.546a8.546,8.546,0,0,0,9,0Zm0-7.884a6.744,6.744,0,0,1-9,0V55.7a6.284,6.284,0,0,0,9,0Zm-4.5-6.511a4.5,4.5,0,0,1-4.408-5.4h8.816a4.5,4.5,0,0,1-4.408,5.4Zm-47.684,9h1.8v5.4H12.1Zm9,25.191H10.3v-1.8H21.1Zm0-3.6H10.3v-1.8H21.1Zm0-3.6H10.3V75.849a6.286,6.286,0,0,1,1.324-3.858H13.9v6.3a.9.9,0,1,0,1.8,0v-6.3h5.4Zm0-12.6H15.7v-5.4h5.4Zm0-7.2h-9v-.3a1.5,1.5,0,0,1,1.5-1.5h6a1.5,1.5,0,0,1,1.5,1.5Zm5.4,6.3a1.5,1.5,0,0,1,1.5-1.5h6a1.5,1.5,0,0,1,1.5,1.5v8.1h-9Zm4.5,13.5a4.506,4.506,0,0,1-4.408-3.6H35.4A4.506,4.506,0,0,1,30.993,82.787Zm9.9-20.093a1.5,1.5,0,0,1,1.5-1.5h6a1.5,1.5,0,0,1,1.5,1.5v11.1h-9Zm4.5,16.494a4.506,4.506,0,0,1-4.408-3.6H49.8A4.506,4.506,0,0,1,45.388,79.188Z" transform="translate(-8.501 -45)" fill="#7a4f00"/>
        </g>
      </g>
    </g>
  </g>
</svg>
