<svg xmlns="http://www.w3.org/2000/svg" xmlns:xlink="http://www.w3.org/1999/xlink" width="139" height="139" viewBox="0 0 139 139">
  <defs>
    <clipPath id="clip-path">
      <rect id="Rectángulo_400938" data-name="Rectángulo 400938" width="139" height="139" transform="translate(-0.043 -0.043)" fill="none"/>
    </clipPath>
    <clipPath id="clip-path-2">
      <rect id="Rectángulo_401073" data-name="Rectángulo 401073" width="105.872" height="47.68" fill="#7d3a1b"/>
    </clipPath>
  </defs>
  <g id="Grupo_1118364" data-name="Grupo 1118364" transform="translate(-422.492 -2102.563)">
    <g id="Grupo_1117779" data-name="Grupo 1117779" transform="translate(157.535 -3181.395)">
      <g id="Grupo_1099379" data-name="Grupo 1099379" transform="translate(265 5284)">
        <rect id="Rectángulo_401103" data-name="Rectángulo 401103" width="139" height="139" transform="translate(-0.043 -0.043)" fill="none"/>
        <g id="Grupo_1099348" data-name="Grupo 1099348" transform="translate(0)">
          <g id="Grupo_1099282" data-name="Grupo 1099282">
            <g id="Grupo_1099281" data-name="Grupo 1099281" clip-path="url(#clip-path-2)">
              <path id="Trazado_873375" data-name="Trazado 873375" d="M85.879,10.449c-4.752,0-7.21-2.33-9.379-4.386C74.371,4.047,72.538,2.3,68.7,2.3s-5.668,1.742-7.8,3.758c-2.17,2.056-4.624,4.386-9.379,4.386s-7.21-2.33-9.379-4.386C40.018,4.047,38.184,2.3,34.349,2.3s-5.668,1.742-7.794,3.758c-2.17,2.056-4.627,4.386-9.379,4.386S9.963,8.119,7.794,6.063C5.668,4.047,3.835,2.3,0,2.3V0C4.752,0,7.21,2.334,9.379,4.386c2.129,2.02,3.963,3.758,7.8,3.758s5.668-1.738,7.794-3.755C27.136,2.334,29.6,0,34.349,0s7.213,2.334,9.379,4.386c2.129,2.02,3.963,3.758,7.8,3.758s5.668-1.738,7.8-3.758C61.489,2.334,63.951,0,68.7,0s7.213,2.334,9.379,4.386c2.129,2.02,3.963,3.758,7.8,3.758s5.668-1.738,7.8-3.758C95.843,2.334,98.3,0,103.056,0V2.3c-3.835,0-5.668,1.742-7.8,3.758-2.169,2.056-4.627,4.386-9.379,4.386" transform="translate(2.816 37.231)" fill="#7d3a1b"/>
              <path id="Trazado_873376" data-name="Trazado 873376" d="M85.879,10.449c-4.752,0-7.213-2.33-9.379-4.39C74.371,4.043,72.538,2.3,68.7,2.3s-5.668,1.738-7.8,3.755c-2.166,2.06-4.624,4.39-9.379,4.39s-7.213-2.33-9.379-4.39C40.018,4.043,38.184,2.3,34.349,2.3s-5.668,1.742-7.794,3.755c-2.17,2.06-4.627,4.39-9.379,4.39s-7.213-2.33-9.383-4.39C5.668,4.043,3.835,2.3,0,2.3V0C4.752,0,7.213,2.33,9.379,4.386c2.129,2.02,3.963,3.758,7.8,3.758s5.668-1.738,7.794-3.758C27.136,2.33,29.6,0,34.349,0s7.213,2.33,9.383,4.386c2.126,2.02,3.959,3.758,7.794,3.758s5.668-1.738,7.8-3.758C61.489,2.33,63.951,0,68.7,0s7.213,2.33,9.379,4.386c2.129,2.02,3.963,3.758,7.8,3.758s5.668-1.738,7.8-3.758C95.846,2.33,98.3,0,103.059,0V2.3c-3.835,0-5.672,1.742-7.8,3.755-2.169,2.06-4.628,4.39-9.379,4.39" transform="translate(1.877 24.821)" fill="#7d3a1b"/>
              <path id="Trazado_873377" data-name="Trazado 873377" d="M85.879,10.449c-4.752,0-7.213-2.33-9.379-4.39C74.371,4.043,72.538,2.3,68.7,2.3s-5.668,1.738-7.8,3.755c-2.166,2.06-4.627,4.39-9.379,4.39s-7.213-2.33-9.379-4.39C40.018,4.043,38.184,2.3,34.349,2.3s-5.668,1.742-7.794,3.755c-2.169,2.06-4.627,4.39-9.379,4.39s-7.213-2.33-9.383-4.39C5.668,4.043,3.835,2.3,0,2.3V0C4.752,0,7.213,2.33,9.379,4.386c2.126,2.02,3.963,3.758,7.8,3.758s5.668-1.738,7.794-3.758C27.136,2.33,29.6,0,34.349,0s7.213,2.33,9.383,4.386c2.126,2.02,3.959,3.758,7.794,3.758s5.668-1.738,7.8-3.758C61.489,2.33,63.951,0,68.7,0s7.213,2.33,9.379,4.386c2.129,2.02,3.963,3.758,7.8,3.758s5.668-1.738,7.8-3.758C95.846,2.33,98.3,0,103.059,0V2.3c-3.835,0-5.672,1.742-7.8,3.755-2.169,2.06-4.627,4.39-9.379,4.39" transform="translate(0.939 12.41)" fill="#7d3a1b"/>
              <path id="Trazado_873378" data-name="Trazado 873378" d="M85.879,10.445c-4.752,0-7.21-2.33-9.379-4.386C74.371,4.043,72.538,2.3,68.7,2.3s-5.668,1.738-7.794,3.755c-2.169,2.056-4.627,4.386-9.383,4.386s-7.21-2.33-9.379-4.386C40.018,4.043,38.184,2.3,34.349,2.3s-5.668,1.738-7.794,3.751c-2.166,2.06-4.627,4.39-9.379,4.39S9.963,8.115,7.794,6.059C5.668,4.043,3.835,2.3,0,2.3V0C4.752,0,7.213,2.33,9.379,4.386c2.129,2.016,3.963,3.755,7.8,3.755S22.845,6.4,24.971,4.386C27.14,2.33,29.6,0,34.349,0s7.21,2.33,9.383,4.386c2.126,2.016,3.959,3.755,7.794,3.755s5.668-1.738,7.8-3.755C61.493,2.33,63.951,0,68.7,0s7.21,2.33,9.379,4.386c2.129,2.016,3.963,3.755,7.8,3.755s5.668-1.738,7.8-3.755C95.846,2.33,98.3,0,103.059,0V2.3c-3.839,0-5.672,1.738-7.8,3.755-2.169,2.056-4.627,4.386-9.379,4.386" transform="translate(0 0.004)" fill="#7d3a1b"/>
            </g>
          </g>
        </g>
        <path id="Trazado_873425" data-name="Trazado 873425" d="M57.977,0A57.977,57.977,0,1,1,0,57.977,57.977,57.977,0,0,1,57.977,0Z" transform="translate(17.221 20.665)" fill="#ffe2b7"/>
        <circle id="Elipse_11503" data-name="Elipse 11503" cx="60.5" cy="60.5" r="60.5" transform="translate(8.957 8.957)" fill="#fff"/>
      </g>
    </g>
    <g id="Layer_9" data-name="Layer 9" transform="translate(768.159 2136.979)">
      <path id="Trazado_904210" data-name="Trazado 904210" d="M84.4,41.68a14.325,14.325,0,0,0-1.345-1.171,20.6,20.6,0,0,0,4.775-5.033,1.4,1.4,0,0,0,.088-1.4,6.452,6.452,0,0,0-5.8-3.588H81.051a1.4,1.4,0,0,0-.628.147l-.777.389v-.536a1.361,1.361,0,0,0-.18-.649,19.341,19.341,0,0,0,4.365-8.9,1.4,1.4,0,0,0-1.376-1.685H81.224a48.475,48.475,0,0,0-5.726.345,44.3,44.3,0,0,0,1.181-6.007l.14-1.187a1.4,1.4,0,0,0-1.625-1.559l-4.915.819a24.415,24.415,0,0,0-9.426,3.651,49.153,49.153,0,0,0-.918-4.831,1.4,1.4,0,0,0-.869-.975l.5-.5a1.4,1.4,0,0,0,.176-1.772L56.932,3.021a1.4,1.4,0,0,0-2.265-.1l-2.7,3.39a27.64,27.64,0,0,0-2.018,2.932,27.182,27.182,0,0,0-4.311-7.724,1.455,1.455,0,0,0-2.194,0,27.182,27.182,0,0,0-4.311,7.724,27.48,27.48,0,0,0-2.018-2.931L34.4,2.922a1.4,1.4,0,0,0-2.265.1L29.325,7.234A1.4,1.4,0,0,0,29.5,9.006l.5.5a1.4,1.4,0,0,0-.869.975,49.153,49.153,0,0,0-.918,4.831,24.415,24.415,0,0,0-9.426-3.651l-4.915-.819A1.4,1.4,0,0,0,12.246,12.4l.147,1.187a44.3,44.3,0,0,0,1.181,6.007,48.475,48.475,0,0,0-5.724-.345H6.619a1.4,1.4,0,0,0-1.376,1.685A19.341,19.341,0,0,0,9.607,29.84a1.361,1.361,0,0,0-.18.643v.536l-.777-.389a1.4,1.4,0,0,0-.628-.147H6.95a6.452,6.452,0,0,0-5.8,3.585,1.4,1.4,0,0,0,.088,1.4,20.6,20.6,0,0,0,4.775,5.033,14.325,14.325,0,0,0-1.345,1.171L1.408,44.936a1.4,1.4,0,0,0,.652,2.355l5.618,1.4a1.427,1.427,0,0,0,.969-.105l.781-.386v.536A1.4,1.4,0,0,0,10.491,50.1l3.751.938a16.823,16.823,0,0,0,10.634-.81v2.982A4.153,4.153,0,0,0,22.558,59.1a15.761,15.761,0,0,0-3.3,9.641v6.682a1.4,1.4,0,0,0,.911,1.316l-.5.5a1.4,1.4,0,0,0-.411.993A9.878,9.878,0,0,0,23.19,86.1l2.247,1.685a1.4,1.4,0,0,0,1.685,0L29.37,86.1A9.878,9.878,0,0,0,33.3,78.232a1.4,1.4,0,0,0-.411-.993l-.5-.5a1.4,1.4,0,0,0,.911-1.316V68.742A15.756,15.756,0,0,0,30,59.1a4.153,4.153,0,0,0-2.317-5.889V50.758l3.511,2.01a1.4,1.4,0,0,0,1.865-.44l1.723-2.584a11.713,11.713,0,0,1,19.5,0L56,52.329a1.4,1.4,0,0,0,1.174.625,1.388,1.388,0,0,0,.7-.185l3.511-2.01v2.453A4.153,4.153,0,0,0,59.072,59.1a15.761,15.761,0,0,0-3.3,9.641v6.682a1.4,1.4,0,0,0,.911,1.316l-.5.5a1.4,1.4,0,0,0-.411.993A9.878,9.878,0,0,0,59.7,86.1l2.247,1.685a1.4,1.4,0,0,0,1.685,0L65.884,86.1a9.878,9.878,0,0,0,3.932-7.865,1.4,1.4,0,0,0-.411-.993l-.5-.5a1.4,1.4,0,0,0,.911-1.316V68.742a15.756,15.756,0,0,0-3.3-9.641A4.153,4.153,0,0,0,64.2,53.212V50.23a16.827,16.827,0,0,0,10.635.81l3.75-.938a1.4,1.4,0,0,0,1.063-1.362V48.2l.777.389a1.424,1.424,0,0,0,.969.105l5.618-1.4a1.4,1.4,0,0,0,.652-2.355Zm-3.021-8.388h.742a3.651,3.651,0,0,1,2.858,1.361,17.787,17.787,0,0,1-4.54,4.243,14.2,14.2,0,0,0-14.874,1.623,25.05,25.05,0,0,0-1.8-2.444l4.962-3.307a17.059,17.059,0,0,1,8.108-2.823v1.347a1.4,1.4,0,0,0,2.032,1.257Zm-49.173,2.33,2.064,9.807-9.081-2.269A22.247,22.247,0,0,1,32.209,35.622Zm2.562-1.469a20.842,20.842,0,0,1,1.975-.843l5.4,8.629a14.465,14.465,0,0,0-5.309,2.017Zm9.766-2.265a22.271,22.271,0,0,1,5,.58l-5,8-5-8A22.271,22.271,0,0,1,44.537,31.888Zm7.792,1.418q1.008.376,1.975.843l-2.063,9.8a14.465,14.465,0,0,0-5.309-2.017Zm4.536,2.316a22.247,22.247,0,0,1,7.022,7.537l-9.081,2.269ZM76.19,29.2a19.859,19.859,0,0,0-9.019,3.23L61.811,36a25.192,25.192,0,0,0-2.387-2.008,32.3,32.3,0,0,1,7.466-8.662l1.932,1.931a1.4,1.4,0,0,0,2.4-.993v-3.1a45.657,45.657,0,0,1,9.43-1.111,16.549,16.549,0,0,1-4.46,7.14ZM64.451,16.479a22.25,22.25,0,0,1,6.3-2.048l3.05-.508a41.592,41.592,0,0,1-1.379,6.134q-1.483.274-2.949.638a1.4,1.4,0,0,0-1.06,1.362v.823L68,22.468a1.4,1.4,0,0,0-1.836-.131,35.09,35.09,0,0,0-9.079,10.112,25.11,25.11,0,0,0-4.292-1.966l.94-2.348A22.244,22.244,0,0,1,64.451,16.479ZM54.157,8.068,55.67,6.176l1.1,1.659L54.779,9.829a1.4,1.4,0,0,0,.993,2.4h1.7a45.823,45.823,0,0,1,.817,4.993,25.044,25.044,0,0,0-7.162,9.866l-1.049,2.625c-.438-.1-.881-.185-1.326-.261V23.48A24.66,24.66,0,0,1,54.16,8.065Zm-9.62-3.31a24.407,24.407,0,0,1,3.553,8.1c-.265.633-.52,1.272-.739,1.928a27.431,27.431,0,0,0-1.4,8.689v5.647c-.466-.027-.934-.048-1.4-.048s-.938.021-1.4.048V23.48a27.444,27.444,0,0,0-1.4-8.69c-.219-.654-.473-1.293-.739-1.927a24.407,24.407,0,0,1,3.542-8.1ZM31.6,12.226h1.7a1.4,1.4,0,0,0,.993-2.4L32.3,7.835l1.1-1.659,1.513,1.892A24.657,24.657,0,0,1,40.324,23.48v5.969c-.445.076-.888.162-1.326.261l-1.049-2.625a25.044,25.044,0,0,0-7.162-9.866,45.823,45.823,0,0,1,.817-4.993Zm-16.33,1.7,3.05.508a22.267,22.267,0,0,1,17.017,13.7l.94,2.355a25.11,25.11,0,0,0-4.292,1.966A35.09,35.09,0,0,0,22.91,22.338a1.4,1.4,0,0,0-1.836.131l-.411.411v-.823A1.4,1.4,0,0,0,19.6,20.695q-1.465-.367-2.949-.638a41.592,41.592,0,0,1-1.376-6.134Zm2.58,9.245v3.1a1.4,1.4,0,0,0,2.4.993l1.932-1.931a32.254,32.254,0,0,1,7.467,8.662A24.952,24.952,0,0,0,27.263,36L21.907,32.43a19.859,19.859,0,0,0-9.019-3.23,16.549,16.549,0,0,1-4.465-7.143,45.656,45.656,0,0,1,9.43,1.111ZM4.091,34.653A3.651,3.651,0,0,1,6.95,33.292h.742L10.2,34.549a1.4,1.4,0,0,0,2.032-1.257V31.945a17.059,17.059,0,0,1,8.108,2.823l4.962,3.307a25.294,25.294,0,0,0-1.8,2.444A14.2,14.2,0,0,0,8.633,38.9a17.787,17.787,0,0,1-4.542-4.243ZM14.923,48.319l-2.687-.676V45.932A1.4,1.4,0,0,0,10.2,44.668L7.86,45.84l-2.708-.677,1.5-1.5A11.444,11.444,0,0,1,21.9,42.817l.181.14-1.248,2.291a1.4,1.4,0,0,0,.536,1.892l1.483.843A14.413,14.413,0,0,1,14.923,48.319ZM26.28,55.762a1.4,1.4,0,1,1-1.4,1.4A1.4,1.4,0,0,1,26.28,55.762Zm0,5.618a4.188,4.188,0,0,0,1.674-.351,12.987,12.987,0,0,1,1.774,3.344L26.28,67.82l-3.448-3.448a12.986,12.986,0,0,1,1.774-3.344A4.188,4.188,0,0,0,26.28,61.38Zm4.213,12.639h-1.4a1.4,1.4,0,0,0-.993,2.4l2.375,2.378a7.058,7.058,0,0,1-2.786,5.056L26.28,84.9l-1.4-1.053a7.058,7.058,0,0,1-2.786-5.056l2.375-2.375a1.4,1.4,0,0,0-.993-2.4h-1.4V68.742c0-.372.02-.743.051-1.112l3.17,3.17a1.4,1.4,0,0,0,1.986,0l3.17-3.17c.031.369.051.739.051,1.112Zm.963-24.341-6.407-3.66,7.6,1.9c-.065.091-.14.173-.2.265Zm26.161,0-1-1.5c-.062-.093-.14-.174-.2-.265l7.6-1.9Zm5.177,6.084a1.4,1.4,0,1,1-1.4,1.4A1.4,1.4,0,0,1,62.794,55.762Zm0,5.618a4.188,4.188,0,0,0,1.674-.351,12.986,12.986,0,0,1,1.774,3.344L62.794,67.82l-3.448-3.448a12.986,12.986,0,0,1,1.774-3.344A4.188,4.188,0,0,0,62.794,61.38Zm4.213,12.639H65.6a1.4,1.4,0,0,0-.993,2.4l2.375,2.378A7.058,7.058,0,0,1,64.2,83.85l-1.4,1.053-1.4-1.053A7.058,7.058,0,0,1,58.6,78.794l2.375-2.375a1.4,1.4,0,0,0-.993-2.4h-1.4V68.742c0-.372.02-.743.051-1.112L61.8,70.8a1.4,1.4,0,0,0,1.986,0l3.17-3.17c.031.369.051.739.051,1.112ZM81.214,45.847l-2.344-1.18a1.4,1.4,0,0,0-2.032,1.264v1.712l-2.685.671A14.417,14.417,0,0,1,66.221,48l1.483-.843a1.4,1.4,0,0,0,.536-1.892l-1.25-2.291.184-.14a11.446,11.446,0,0,1,15.243.843l1.5,1.5Z" transform="translate(-318 -11)" fill="#7a4f00"/>
    </g>
  </g>
</svg>
