<svg xmlns="http://www.w3.org/2000/svg" xmlns:xlink="http://www.w3.org/1999/xlink" width="145" height="145" viewBox="0 0 145 145">
  <defs>
    <clipPath id="clip-path">
      <rect id="Rectángulo_400938" data-name="Rectángulo 400938" width="145" height="145" transform="translate(0 -0.281)" fill="none"/>
    </clipPath>
    <clipPath id="clip-path-2">
      <rect id="Rectángulo_401073" data-name="Rectángulo 401073" width="110.228" height="49.642" fill="#7d3a1b"/>
    </clipPath>
  </defs>
  <g id="Grupo_1099406" data-name="Grupo 1099406" transform="translate(-175 -9540.719)">
    <g id="Grupo_1099404" data-name="Grupo 1099404" transform="translate(175 9541)">
      <g id="Grupo_1099379" data-name="Grupo 1099379" transform="translate(0 0)">
        <rect id="Rectángulo_401103" data-name="Rectángulo 401103" width="145" height="145" transform="translate(0 -0.281)" fill="none"/>
        <g id="Grupo_1099348" data-name="Grupo 1099348" transform="translate(0.045 0.045)">
          <g id="Grupo_1099282" data-name="Grupo 1099282">
            <g id="Grupo_1099281" data-name="Grupo 1099281" clip-path="url(#clip-path-2)">
              <path id="Trazado_873375" data-name="Trazado 873375" d="M89.413,10.879c-4.947,0-7.506-2.426-9.765-4.567C77.431,4.213,75.522,2.4,71.529,2.4s-5.9,1.814-8.118,3.913c-2.259,2.141-4.814,4.567-9.765,4.567S46.14,8.453,43.881,6.312C41.664,4.213,39.755,2.4,35.763,2.4s-5.9,1.814-8.114,3.913c-2.259,2.141-4.818,4.567-9.765,4.567s-7.51-2.426-9.769-4.567C5.9,4.213,3.993,2.4,0,2.4V0C4.947,0,7.506,2.43,9.765,4.567c2.217,2.1,4.126,3.913,8.118,3.913S23.785,6.67,26,4.571C28.253,2.43,30.816,0,35.763,0s7.51,2.43,9.765,4.567c2.217,2.1,4.126,3.913,8.118,3.913s5.9-1.81,8.118-3.913C64.019,2.43,66.582,0,71.529,0s7.51,2.43,9.765,4.567c2.217,2.1,4.126,3.913,8.118,3.913s5.9-1.81,8.118-3.913C99.786,2.43,102.345,0,107.3,0V2.4c-3.993,0-5.9,1.814-8.118,3.913-2.259,2.141-4.818,4.567-9.765,4.567" transform="translate(2.932 38.763)" fill="#7d3a1b"/>
              <path id="Trazado_873376" data-name="Trazado 873376" d="M89.413,10.879c-4.947,0-7.51-2.426-9.765-4.571C77.431,4.209,75.522,2.4,71.529,2.4s-5.9,1.81-8.118,3.909c-2.255,2.145-4.814,4.571-9.765,4.571s-7.51-2.426-9.765-4.571C41.664,4.209,39.755,2.4,35.763,2.4s-5.9,1.814-8.115,3.909c-2.259,2.145-4.818,4.571-9.765,4.571s-7.51-2.426-9.769-4.571C5.9,4.209,3.993,2.4,0,2.4V0C4.947,0,7.51,2.426,9.765,4.567c2.217,2.1,4.126,3.913,8.118,3.913S23.785,6.67,26,4.567C28.253,2.426,30.816,0,35.763,0s7.51,2.426,9.769,4.567c2.213,2.1,4.122,3.913,8.115,3.913s5.9-1.81,8.118-3.913C64.019,2.426,66.582,0,71.529,0s7.51,2.426,9.765,4.567c2.217,2.1,4.126,3.913,8.118,3.913s5.9-1.81,8.118-3.913C99.79,2.426,102.349,0,107.3,0V2.4c-3.993,0-5.905,1.814-8.122,3.909-2.259,2.145-4.818,4.571-9.765,4.571" transform="translate(1.955 25.842)" fill="#7d3a1b"/>
              <path id="Trazado_873377" data-name="Trazado 873377" d="M89.412,10.879c-4.947,0-7.51-2.426-9.765-4.571C77.431,4.209,75.522,2.4,71.529,2.4s-5.9,1.81-8.118,3.909c-2.255,2.145-4.818,4.571-9.765,4.571s-7.51-2.426-9.765-4.571C41.664,4.209,39.755,2.4,35.763,2.4s-5.9,1.814-8.115,3.909c-2.259,2.145-4.818,4.571-9.765,4.571s-7.51-2.426-9.769-4.571C5.9,4.209,3.993,2.4,0,2.4V0C4.947,0,7.51,2.426,9.765,4.567c2.213,2.1,4.126,3.913,8.118,3.913S23.785,6.67,26,4.567C28.253,2.426,30.816,0,35.763,0s7.51,2.426,9.769,4.567c2.213,2.1,4.122,3.913,8.115,3.913s5.9-1.81,8.118-3.913C64.019,2.426,66.582,0,71.529,0s7.51,2.426,9.765,4.567c2.217,2.1,4.126,3.913,8.118,3.913s5.9-1.81,8.118-3.913C99.79,2.426,102.345,0,107.3,0V2.4c-3.993,0-5.905,1.814-8.122,3.909-2.259,2.145-4.818,4.571-9.765,4.571" transform="translate(0.977 12.921)" fill="#7d3a1b"/>
              <path id="Trazado_873378" data-name="Trazado 873378" d="M89.413,10.875c-4.947,0-7.506-2.426-9.765-4.567C77.431,4.209,75.522,2.4,71.529,2.4s-5.9,1.81-8.115,3.909c-2.259,2.141-4.818,4.567-9.769,4.567S46.14,8.449,43.881,6.308C41.664,4.209,39.755,2.4,35.763,2.4s-5.9,1.81-8.115,3.905c-2.255,2.145-4.818,4.571-9.765,4.571s-7.51-2.426-9.769-4.567C5.9,4.209,3.993,2.4,0,2.4V0C4.947,0,7.51,2.426,9.765,4.567c2.217,2.1,4.126,3.909,8.118,3.909s5.9-1.81,8.115-3.909C28.257,2.426,30.816,0,35.763,0s7.506,2.426,9.769,4.567c2.213,2.1,4.122,3.909,8.115,3.909s5.9-1.81,8.118-3.909C64.023,2.426,66.582,0,71.529,0s7.506,2.426,9.765,4.567c2.217,2.1,4.126,3.909,8.118,3.909s5.9-1.81,8.118-3.909C99.79,2.426,102.349,0,107.3,0V2.4c-4,0-5.905,1.81-8.122,3.909-2.259,2.141-4.818,4.567-9.765,4.567" transform="translate(0 0.004)" fill="#7d3a1b"/>
            </g>
          </g>
        </g>
        <path id="Trazado_873425" data-name="Trazado 873425" d="M60.362,0A60.362,60.362,0,1,1,0,60.362,60.362,60.362,0,0,1,60.362,0Z" transform="translate(17.974 21.56)" fill="#efb499"/>
        <circle id="Elipse_11503" data-name="Elipse 11503" cx="63" cy="63" r="63" transform="translate(9 9.719)" fill="#fef7eb"/>
      </g>
    </g>
    <path id="Trazado_874541" data-name="Trazado 874541" d="M12.111,41.115a9.755,9.755,0,1,0,16.319,3.924,20.693,20.693,0,1,0-16.319-3.924ZM19.1,55.5a7.584,7.584,0,1,1,7.584-7.584A7.592,7.592,0,0,1,19.1,55.5Zm4.411-16.285a4.2,4.2,0,0,0,.03-1.024,2.524,2.524,0,0,1,0-.517c.061-.045.432-.271,1.812-.271.793,0,.893.248,1.137.846A1.953,1.953,0,0,0,27.8,39.613c.877.2,1.756-.288,3.62-2a3.354,3.354,0,0,1,2.594-1.2c.986.165,1.855,1.3,2.555,2.482a18.4,18.4,0,0,1-9.045,4.084,9.825,9.825,0,0,0-4.008-3.773Zm12.32-29.3c-.628,1.179-.235,2.67.072,3.838.584,2.218.428,2.513-.5,2.81a4.281,4.281,0,0,1-.862.206,2.793,2.793,0,0,1,.015-.464c.184-1.84-.5-2.651-1.115-3.008a2.979,2.979,0,0,0-3.195.457,4.633,4.633,0,0,0-2.107,4.366c.049.262.12.565.2.917.2.874.824,3.532.253,4.048-.141.127-.626.166-1.528-.144-1.894-.651-3.342,1.68-4.3,3.222-.106.171-.2.324-.284.45a1.79,1.79,0,0,1-1.172.913,1.057,1.057,0,0,1-.808-.5c-1.87-2.308-3.146-2.379-4.6-1.744-.4.175-.577.252-.872.122a19.491,19.491,0,0,1,5.179-1.638l.137-.03c2.778-.626,2.756-2.64,2.744-3.722a2.365,2.365,0,0,1,.085-.91c1.823-2.2,1.44-3.456.89-4.555-.228-.457-.233-.491-.113-.732a2.533,2.533,0,0,0,.14-2.2c-.6-1.409-2.446-1.981-3.668-2.359l-.092-.029A3.411,3.411,0,0,1,18.6,7.207a18.486,18.486,0,0,1,17.238,2.71ZM16.588,8.045A5.35,5.35,0,0,0,19.7,11.314l.094.029c.63.2,2.1.652,2.31,1.133.041.1-.034.272-.082.368a2.719,2.719,0,0,0,.11,2.681c.281.563.451.9-.619,2.194a3.352,3.352,0,0,0-.586,2.323c.012,1.053.015,1.336-1.047,1.575l-.125.028c-6,1.32-7,2.512-7.186,3.5a1.822,1.822,0,0,0,.972,1.9,3.02,3.02,0,0,0,3.247.23c.359-.157.474-.195.6-.161.152.041.6.247,1.434,1.281a3.124,3.124,0,0,0,2.467,1.306c.048,0,.095,0,.14,0a3.815,3.815,0,0,0,2.882-1.893c.091-.138.2-.307.313-.5a6.851,6.851,0,0,1,1.815-2.288c1.581.528,2.8.42,3.622-.323,1.523-1.375.852-4.253.408-6.157-.076-.327-.142-.609-.182-.823a2.308,2.308,0,0,1,.875-1.906,2.041,2.041,0,0,1,1.177-.634,1.831,1.831,0,0,1,.061.906,2.73,2.73,0,0,0,.722,2.432,3.109,3.109,0,0,0,2.957.115c3.1-1,2.37-3.776,1.933-5.436a8.8,8.8,0,0,1-.335-1.691,18.512,18.512,0,0,1,.508,25.866c-.951-1.5-2.15-2.824-3.813-3.1-1.418-.237-2.906.348-4.423,1.74a14.782,14.782,0,0,1-1.506,1.252,3.027,3.027,0,0,0-3.086-2.04c-1.729,0-2.78.3-3.406.963a2.641,2.641,0,0,0-.576,2.133c0,.032,0,.068.006.1A9.718,9.718,0,0,0,13.85,39.7a18.589,18.589,0,0,1-3.144-2.874c1.761-.405,2.916-1.253,3.145-2.38.177-.875-.111-2.153-2.492-3.273l-.074-.035c-.388-.182-1.562-.733-1.679-1.078a.56.56,0,0,1,.082-.155,3.307,3.307,0,0,0,.35-2.628,2.251,2.251,0,0,1,.782-2.551c.157-.144.32-.289.485-.437,1.847-1.652,4.376-3.914,2.873-6.988-.014-.029-.029-.056-.046-.084a2.815,2.815,0,0,0-2.144-1.464,3.359,3.359,0,0,0-2.752,1.293c-.092.105-.2.234-.319.378a14.079,14.079,0,0,1-1.008,1.123,1.375,1.375,0,0,1-.844.473A18.607,18.607,0,0,1,16.589,8.045Zm-10.07,13.1a3.262,3.262,0,0,0,2.9-1.03,15.7,15.7,0,0,0,1.173-1.3c.107-.128.2-.243.284-.336a1.341,1.341,0,0,1,.923-.56c.178.016.338.207.447.379.681,1.464-.507,2.682-2.39,4.366-.171.153-.339.3-.5.452a4.361,4.361,0,0,0-1.461,4.518c.1.594.128.853,0,1.032A2.289,2.289,0,0,0,7.5,30.614c.355,1.314,1.861,2.021,2.857,2.489l.073.034a2.836,2.836,0,0,1,1.266.893,4.116,4.116,0,0,1-2.482.829,18.535,18.535,0,0,1-2.7-13.716ZM71.143,52.261a1.088,1.088,0,0,1-1.088-1.088v-.806a4.1,4.1,0,0,1-2.874-1.853,1.088,1.088,0,0,1,1.909-1.045c.429.784,2.419,1.116,3.491.583a.842.842,0,0,0,.478-.639c.021-.171.052-.43-.5-.753a6.334,6.334,0,0,0-1.722-.579c-.263-.062-.534-.127-.811-.2a4.04,4.04,0,0,1-2.5-1.625,2.735,2.735,0,0,1,.392-3.382A4,4,0,0,1,70.055,39.8v-.786a1.088,1.088,0,0,1,2.176,0v.793a3.768,3.768,0,0,1,2.693,1.767,1.088,1.088,0,1,1-1.915,1.032,1.9,1.9,0,0,0-1.394-.7,2.755,2.755,0,0,0-2.122.463.558.558,0,0,0-.117.722,2,2,0,0,0,1.235.682c.237.066.477.123.731.184a8.064,8.064,0,0,1,2.319.819,2.855,2.855,0,0,1,1.556,2.893A3.01,3.01,0,0,1,73.549,50a4.657,4.657,0,0,1-1.318.411v.762a1.088,1.088,0,0,1-1.088,1.088ZM78.982,54.4h-1.63a11.193,11.193,0,1,0-12.417,0H63.3a3.358,3.358,0,0,0-3.354,3.354v1.906a3.338,3.338,0,0,0,.889,2.266A3.338,3.338,0,0,0,59.95,64.2V66.1a3.338,3.338,0,0,0,.889,2.266,3.338,3.338,0,0,0-.889,2.266v1.906a3.338,3.338,0,0,0,.889,2.266,3.338,3.338,0,0,0-.889,2.266v1.906A3.358,3.358,0,0,0,63.3,82.336H78.982a3.358,3.358,0,0,0,3.354-3.354V77.075a3.337,3.337,0,0,0-.889-2.266,3.338,3.338,0,0,0,.889-2.266V70.636a3.337,3.337,0,0,0-.889-2.266,3.338,3.338,0,0,0,.889-2.266V64.2a3.337,3.337,0,0,0-.889-2.266,3.338,3.338,0,0,0,.889-2.266V57.758A3.358,3.358,0,0,0,78.982,54.4ZM62.126,45.1a9.017,9.017,0,1,1,9.017,9.017A9.027,9.027,0,0,1,62.126,45.1Zm0,12.662A1.18,1.18,0,0,1,63.3,56.579H78.981a1.18,1.18,0,0,1,1.178,1.178v1.906a1.18,1.18,0,0,1-1.178,1.178H63.3a1.18,1.18,0,0,1-1.178-1.178V57.757ZM80.16,66.1a1.18,1.18,0,0,1-1.178,1.178H63.3A1.18,1.18,0,0,1,62.126,66.1V64.2A1.18,1.18,0,0,1,63.3,63.018H78.981A1.18,1.18,0,0,1,80.16,64.2V66.1Zm0,6.439a1.18,1.18,0,0,1-1.178,1.178H63.3a1.18,1.18,0,0,1-1.178-1.178V70.636A1.18,1.18,0,0,1,63.3,69.457H78.981a1.18,1.18,0,0,1,1.178,1.178v1.906Zm0,6.439a1.18,1.18,0,0,1-1.178,1.178H63.3a1.18,1.18,0,0,1-1.178-1.178V77.075A1.18,1.18,0,0,1,63.3,75.9H78.981a1.18,1.18,0,0,1,1.178,1.178ZM64.2,34.926a1.707,1.707,0,0,0,.436-1.72l-3.8-12.444a1.713,1.713,0,0,0-2.7-.847L47.985,27.889a1.713,1.713,0,0,0,.536,2.978l2.1.672c-2.631,6.722-10.5,21-31.781,30.054a1.088,1.088,0,0,0,.629,2.07c10.78-2.044,19.887-5.994,27.067-11.739A43.008,43.008,0,0,0,59.715,34.453l2.76.884a1.709,1.709,0,0,0,1.725-.412Zm-4.8-2.858a1.088,1.088,0,0,0-1.352.659C53.6,44.754,43.205,53.988,28.885,58.933a63.2,63.2,0,0,0,13.1-10.322,49.246,49.246,0,0,0,11.08-17.4,1.088,1.088,0,0,0-.693-1.4l-2.353-.754,8.938-7.018L62.3,33l-2.9-.928ZM58.518,80.16h-1.9V55.491A1.088,1.088,0,0,0,55.534,54.4h-6.76a1.088,1.088,0,0,0-1.088,1.088V80.16H44.358V61.569a1.088,1.088,0,0,0-1.088-1.088H36.51a1.088,1.088,0,0,0-1.088,1.088V80.16H32.094v-14.3a1.088,1.088,0,0,0-1.088-1.088h-6.76a1.088,1.088,0,0,0-1.088,1.088v14.3H19.83V69.635a1.088,1.088,0,0,0-1.088-1.088H11.983a1.088,1.088,0,0,0-1.088,1.088V80.16H9a1.088,1.088,0,1,0,0,2.176H58.518a1.088,1.088,0,1,0,0-2.176ZM49.862,56.579h4.584V80.16H49.862ZM37.6,62.657h4.584v17.5H37.6Zm-12.264,4.29h4.584V80.16H25.335ZM13.071,70.723h4.584V80.16H13.071Zm9.683-20.575a2.737,2.737,0,0,1-1.517,2.114,4.046,4.046,0,0,1-1.045.342v.526a1.088,1.088,0,1,1-2.176,0v-.572a3.618,3.618,0,0,1-2.448-1.636,1.088,1.088,0,1,1,1.909-1.045c.33.6,1.948.856,2.791.436a.556.556,0,0,0,.326-.429c.015-.12.033-.268-.352-.494a5.25,5.25,0,0,0-1.435-.479c-.227-.054-.461-.11-.7-.177a3.606,3.606,0,0,1-2.231-1.462,2.5,2.5,0,0,1,.356-3.091,3.447,3.447,0,0,1,1.786-.937V42.7a1.088,1.088,0,1,1,2.176,0v.555a3.339,3.339,0,0,1,2.293,1.568,1.088,1.088,0,1,1-1.916,1.032,1.482,1.482,0,0,0-1.081-.518,2.18,2.18,0,0,0-1.689.351c-.212.221-.113.379-.081.431.131.21.422.365.971.519.2.056.405.1.622.156a7.036,7.036,0,0,1,2.033.72,2.6,2.6,0,0,1,1.41,2.634Z" transform="translate(204.664 9568.657)" fill="#6a4d23"/>
  </g>
</svg>
