<svg xmlns="http://www.w3.org/2000/svg" xmlns:xlink="http://www.w3.org/1999/xlink" width="145" height="145" viewBox="0 0 145 145">
  <defs>
    <clipPath id="clip-path">
      <rect id="Rectángulo_400938" data-name="Rectángulo 400938" width="145" height="145" transform="translate(0 -0.281)" fill="none"/>
    </clipPath>
    <clipPath id="clip-path-2">
      <rect id="Rectángulo_401073" data-name="Rectángulo 401073" width="110.228" height="49.642" fill="#7d3a1b"/>
    </clipPath>
  </defs>
  <g id="Grupo_1099408" data-name="Grupo 1099408" transform="translate(-175 -9540.719)">
    <g id="Grupo_1099404" data-name="Grupo 1099404" transform="translate(175 9541)">
      <g id="Grupo_1099379" data-name="Grupo 1099379" transform="translate(0 0)">
        <rect id="Rectángulo_401103" data-name="Rectángulo 401103" width="145" height="145" transform="translate(0 -0.281)" fill="none"/>
        <g id="Grupo_1099348" data-name="Grupo 1099348" transform="translate(0.045 0.045)">
          <g id="Grupo_1099282" data-name="Grupo 1099282">
            <g id="Grupo_1099281" data-name="Grupo 1099281" clip-path="url(#clip-path-2)">
              <path id="Trazado_873375" data-name="Trazado 873375" d="M89.413,10.879c-4.947,0-7.506-2.426-9.765-4.567C77.431,4.213,75.522,2.4,71.529,2.4s-5.9,1.814-8.118,3.913c-2.259,2.141-4.814,4.567-9.765,4.567S46.14,8.453,43.881,6.312C41.664,4.213,39.755,2.4,35.763,2.4s-5.9,1.814-8.114,3.913c-2.259,2.141-4.818,4.567-9.765,4.567s-7.51-2.426-9.769-4.567C5.9,4.213,3.993,2.4,0,2.4V0C4.947,0,7.506,2.43,9.765,4.567c2.217,2.1,4.126,3.913,8.118,3.913S23.785,6.67,26,4.571C28.253,2.43,30.816,0,35.763,0s7.51,2.43,9.765,4.567c2.217,2.1,4.126,3.913,8.118,3.913s5.9-1.81,8.118-3.913C64.019,2.43,66.582,0,71.529,0s7.51,2.43,9.765,4.567c2.217,2.1,4.126,3.913,8.118,3.913s5.9-1.81,8.118-3.913C99.786,2.43,102.345,0,107.3,0V2.4c-3.993,0-5.9,1.814-8.118,3.913-2.259,2.141-4.818,4.567-9.765,4.567" transform="translate(2.932 38.763)" fill="#7d3a1b"/>
              <path id="Trazado_873376" data-name="Trazado 873376" d="M89.413,10.879c-4.947,0-7.51-2.426-9.765-4.571C77.431,4.209,75.522,2.4,71.529,2.4s-5.9,1.81-8.118,3.909c-2.255,2.145-4.814,4.571-9.765,4.571s-7.51-2.426-9.765-4.571C41.664,4.209,39.755,2.4,35.763,2.4s-5.9,1.814-8.115,3.909c-2.259,2.145-4.818,4.571-9.765,4.571s-7.51-2.426-9.769-4.571C5.9,4.209,3.993,2.4,0,2.4V0C4.947,0,7.51,2.426,9.765,4.567c2.217,2.1,4.126,3.913,8.118,3.913S23.785,6.67,26,4.567C28.253,2.426,30.816,0,35.763,0s7.51,2.426,9.769,4.567c2.213,2.1,4.122,3.913,8.115,3.913s5.9-1.81,8.118-3.913C64.019,2.426,66.582,0,71.529,0s7.51,2.426,9.765,4.567c2.217,2.1,4.126,3.913,8.118,3.913s5.9-1.81,8.118-3.913C99.79,2.426,102.349,0,107.3,0V2.4c-3.993,0-5.905,1.814-8.122,3.909-2.259,2.145-4.818,4.571-9.765,4.571" transform="translate(1.955 25.842)" fill="#7d3a1b"/>
              <path id="Trazado_873377" data-name="Trazado 873377" d="M89.412,10.879c-4.947,0-7.51-2.426-9.765-4.571C77.431,4.209,75.522,2.4,71.529,2.4s-5.9,1.81-8.118,3.909c-2.255,2.145-4.818,4.571-9.765,4.571s-7.51-2.426-9.765-4.571C41.664,4.209,39.755,2.4,35.763,2.4s-5.9,1.814-8.115,3.909c-2.259,2.145-4.818,4.571-9.765,4.571s-7.51-2.426-9.769-4.571C5.9,4.209,3.993,2.4,0,2.4V0C4.947,0,7.51,2.426,9.765,4.567c2.213,2.1,4.126,3.913,8.118,3.913S23.785,6.67,26,4.567C28.253,2.426,30.816,0,35.763,0s7.51,2.426,9.769,4.567c2.213,2.1,4.122,3.913,8.115,3.913s5.9-1.81,8.118-3.913C64.019,2.426,66.582,0,71.529,0s7.51,2.426,9.765,4.567c2.217,2.1,4.126,3.913,8.118,3.913s5.9-1.81,8.118-3.913C99.79,2.426,102.345,0,107.3,0V2.4c-3.993,0-5.905,1.814-8.122,3.909-2.259,2.145-4.818,4.571-9.765,4.571" transform="translate(0.977 12.921)" fill="#7d3a1b"/>
              <path id="Trazado_873378" data-name="Trazado 873378" d="M89.413,10.875c-4.947,0-7.506-2.426-9.765-4.567C77.431,4.209,75.522,2.4,71.529,2.4s-5.9,1.81-8.115,3.909c-2.259,2.141-4.818,4.567-9.769,4.567S46.14,8.449,43.881,6.308C41.664,4.209,39.755,2.4,35.763,2.4s-5.9,1.81-8.115,3.905c-2.255,2.145-4.818,4.571-9.765,4.571s-7.51-2.426-9.769-4.567C5.9,4.209,3.993,2.4,0,2.4V0C4.947,0,7.51,2.426,9.765,4.567c2.217,2.1,4.126,3.909,8.118,3.909s5.9-1.81,8.115-3.909C28.257,2.426,30.816,0,35.763,0s7.506,2.426,9.769,4.567c2.213,2.1,4.122,3.909,8.115,3.909s5.9-1.81,8.118-3.909C64.023,2.426,66.582,0,71.529,0s7.506,2.426,9.765,4.567c2.217,2.1,4.126,3.909,8.118,3.909s5.9-1.81,8.118-3.909C99.79,2.426,102.349,0,107.3,0V2.4c-4,0-5.905,1.81-8.122,3.909-2.259,2.141-4.818,4.567-9.765,4.567" transform="translate(0 0.004)" fill="#7d3a1b"/>
            </g>
          </g>
        </g>
        <path id="Trazado_873425" data-name="Trazado 873425" d="M60.362,0A60.362,60.362,0,1,1,0,60.362,60.362,60.362,0,0,1,60.362,0Z" transform="translate(17.974 21.56)" fill="#efb499"/>
        <circle id="Elipse_11503" data-name="Elipse 11503" cx="63" cy="63" r="63" transform="translate(9 9.719)" fill="#fef7eb"/>
      </g>
    </g>
    <g id="Grupo_1099405" data-name="Grupo 1099405" transform="translate(206.234 9571.193)">
      <g id="Grupo_1099389" data-name="Grupo 1099389" transform="translate(0 0)">
        <rect id="Rectángulo_401104" data-name="Rectángulo 401104" width="81" height="83" transform="translate(-0.234 -0.475)" fill="none"/>
      </g>
      <path id="Trazado_874542" data-name="Trazado 874542" d="M83.672,41.336A40.336,40.336,0,1,0,5.779,56.066v4.743a4.178,4.178,0,0,0,4.173,4.173,4.126,4.126,0,0,0,1.391-.256V77.5a4.173,4.173,0,0,0,8.345,0V71.936a1.391,1.391,0,0,1,2.782,0v8.345a4.173,4.173,0,1,0,8.345,0V74.717a1.391,1.391,0,0,1,2.782,0h0v8.345a4.173,4.173,0,0,0,8.345,0V77.5a1.391,1.391,0,1,1,2.782,0v5.564a4.173,4.173,0,1,0,8.345,0V74.717a1.391,1.391,0,0,1,2.782,0v5.564a4.173,4.173,0,0,0,8.345,0V71.936a1.391,1.391,0,0,1,2.782,0V77.5a4.173,4.173,0,0,0,8.345,0V64.725a4.126,4.126,0,0,0,1.391.256,4.178,4.178,0,0,0,4.173-4.173V56.071A40.138,40.138,0,0,0,83.672,41.336Zm-3.377,6.658a8.353,8.353,0,0,0-7.75-5.267h-.754a8.317,8.317,0,0,0,2.017-4.173h6.968c.068.919.114,1.846.114,2.782A37.726,37.726,0,0,1,80.295,47.994ZM15.518,37.163a5.564,5.564,0,0,1,10.423-2.709,8.249,8.249,0,0,0-1.855,7.377,5.546,5.546,0,0,1-8.568-4.668Zm11.127,2.782a5.563,5.563,0,0,1,10.422-2.709,8.255,8.255,0,0,0-1.854,7.379,5.547,5.547,0,0,1-8.568-4.669Zm11.127,2.782a5.564,5.564,0,1,1,5.564,5.564A5.569,5.569,0,0,1,37.772,42.727ZM49.6,37.233a5.578,5.578,0,1,1,1.855,7.383A8.245,8.245,0,0,0,49.6,37.233Zm30.874-1.46H73.808a8.351,8.351,0,0,0-8.22-6.954,8.251,8.251,0,0,0-2.779.5V27.427A1.391,1.391,0,0,1,64.2,26.036a4.178,4.178,0,0,0,4.173-4.173V20.473a1.391,1.391,0,0,1,1.391-1.391h3.8A37.36,37.36,0,0,1,80.476,35.772ZM60.728,34.454a5.579,5.579,0,1,1,1.855,7.379,8.252,8.252,0,0,0-1.855-7.379ZM71.3,16.3H69.763a4.178,4.178,0,0,0-4.173,4.173v1.391A1.391,1.391,0,0,1,64.2,23.254a4.178,4.178,0,0,0-4.173,4.173v3.538a8.348,8.348,0,0,0-1.458,1.723,8.3,8.3,0,0,0-11.126,2.782,8.286,8.286,0,0,0-2.716-.964v-.74a.9.9,0,0,1,.259-.625.486.486,0,0,1,.337-.153h.01A3.475,3.475,0,0,0,48.9,29.513a.7.7,0,0,1,.7-.7h3.477a4.178,4.178,0,0,0,4.173-4.173V6.463A37.7,37.7,0,0,1,71.3,16.3ZM54.463,5.465v19.18a1.391,1.391,0,0,1-1.391,1.391H49.595a3.48,3.48,0,0,0-3.477,3.477.7.7,0,0,1-.7.7H45.4a3.411,3.411,0,0,0-2.36.944,3.676,3.676,0,0,0-1.1,2.616v.74a8.253,8.253,0,0,0-2.718.965A8.368,8.368,0,0,0,32.209,31.6,8.278,8.278,0,0,0,28.1,32.69a8.366,8.366,0,0,0-2.358-2.433,2.358,2.358,0,0,1,.4-.049H36.381a4.173,4.173,0,0,0,.085-8.345,1.387,1.387,0,0,1-1.476-1.28V16.268a1.391,1.391,0,0,0-.552-1.11,5.509,5.509,0,0,1-2.23-4.422V5.465a37.625,37.625,0,0,1,22.254,0ZM14.188,17.691h6.2a2.086,2.086,0,1,1,0,4.173H17.6a3.48,3.48,0,0,0-3.477,3.477.7.7,0,0,1-.7.7H9.053A37.586,37.586,0,0,1,14.188,17.691ZM7.935,28.818h5.5a3.48,3.48,0,0,0,3.477-3.477.7.7,0,0,1,.7-.7h2.782a4.868,4.868,0,1,0,0-9.736h-3.7A37.663,37.663,0,0,1,29.427,6.463v4.273a8.249,8.249,0,0,0,2.782,6.188v3.659a4.148,4.148,0,0,0,4.2,4.061,1.391,1.391,0,0,1-.029,2.782H26.138a5.2,5.2,0,0,0-3.658,1.517,8.328,8.328,0,0,0-7.6,13.782h-.754A8.352,8.352,0,0,0,6.376,47.99a37.81,37.81,0,0,1-.594-6.654A37.378,37.378,0,0,1,7.935,28.818ZM21.079,67.763a4.178,4.178,0,0,0-4.173,4.173V77.5a1.391,1.391,0,0,1-2.782,0V51.072H11.343v9.736a1.391,1.391,0,0,1-2.782,0V51.072a5.569,5.569,0,0,1,5.564-5.564h6.957a8.32,8.32,0,0,0,4.092-1.093,8.387,8.387,0,0,0,.832,1.093h-.754a8.354,8.354,0,0,0-8.345,8.345V63.59a4.178,4.178,0,0,0,4.173,4.173,4.126,4.126,0,0,0,1.391-.256v.513A4.093,4.093,0,0,0,21.079,67.763Zm11.127,2.782a4.178,4.178,0,0,0-4.173,4.173v5.564a1.391,1.391,0,0,1-2.782,0V53.854H22.47V63.59a1.391,1.391,0,1,1-2.782,0V53.854a5.569,5.569,0,0,1,5.564-5.564h6.957A8.324,8.324,0,0,0,36.3,47.2a8.387,8.387,0,0,0,.832,1.093h-.751a8.354,8.354,0,0,0-8.345,8.345v9.736a4.178,4.178,0,0,0,4.173,4.173,4.126,4.126,0,0,0,1.391-.256V70.8a4.109,4.109,0,0,0-1.394-.257ZM50.29,83.063a1.391,1.391,0,0,1-2.782,0V77.5a4.173,4.173,0,1,0-8.345,0v5.564a1.391,1.391,0,0,1-2.782,0V56.636H33.6v9.736a1.391,1.391,0,0,1-2.782,0V56.636a5.569,5.569,0,0,1,5.564-5.564H50.29a5.569,5.569,0,0,1,5.564,5.564v9.736a1.391,1.391,0,0,1-2.782,0V56.636H50.29V83.063Zm11.127-2.782a1.391,1.391,0,0,1-2.782,0V74.717a4.178,4.178,0,0,0-4.173-4.173,4.126,4.126,0,0,0-1.391.256v-.513a4.093,4.093,0,0,0,1.391.257,4.178,4.178,0,0,0,4.173-4.173V56.636A8.354,8.354,0,0,0,50.29,48.29h-.751a8.373,8.373,0,0,0,.832-1.092A8.327,8.327,0,0,0,54.46,48.29h6.957a5.569,5.569,0,0,1,5.564,5.564V63.59a1.391,1.391,0,1,1-2.782,0V53.854H61.418V80.281ZM78.108,60.808a1.391,1.391,0,0,1-2.782,0V51.072H72.545V77.5a1.391,1.391,0,0,1-2.782,0V71.936a4.178,4.178,0,0,0-4.173-4.173,4.126,4.126,0,0,0-1.391.256v-.513a4.093,4.093,0,0,0,1.391.257,4.178,4.178,0,0,0,4.173-4.173V53.854a8.354,8.354,0,0,0-8.345-8.345h-.754a8.265,8.265,0,0,0,.832-1.093,8.324,8.324,0,0,0,4.092,1.093h6.957a5.569,5.569,0,0,1,5.564,5.564Z" transform="translate(-2.906 -3.319)" fill="#6a4d23"/>
    </g>
  </g>
</svg>
