<svg xmlns="http://www.w3.org/2000/svg" width="90" height="90" viewBox="0 0 90 90">
  <g id="Grupo_1117134" data-name="Grupo 1117134" transform="translate(-179.711 -766)">
    <g id="Elipse_11510" data-name="Elipse 11510" transform="translate(179.711 766)" fill="#fff" stroke="#ffce73" stroke-width="5">
      <circle cx="45" cy="45" r="45" stroke="none"/>
      <circle cx="45" cy="45" r="42.5" fill="none"/>
    </g>
    <g id="Grupo_1117174" data-name="Grupo 1117174" transform="translate(200.35 784.145)">
      <g id="Grupo_1117157" data-name="Grupo 1117157" transform="translate(38.739 0.759)">
        <path id="Trazado_873458" data-name="Trazado 873458" d="M388.847,12.153l-.913-3.5a1.52,1.52,0,0,0-2.545-.691l-3.915,3.915a1.52,1.52,0,0,0-.39,1.48L382.5,18.5Z" transform="translate(-381.028 -7.512)" fill="#5a5a5a"/>
      </g>
      <g id="Grupo_1117158" data-name="Grupo 1117158" transform="translate(40.216 5.4)">
        <path id="Trazado_873459" data-name="Trazado 873459" d="M402,53.493l3.5.913a1.52,1.52,0,0,1,.691,2.545l-3.915,3.915a1.52,1.52,0,0,1-1.48.39l-5.143-1.422Z" transform="translate(-395.655 -53.493)" fill="#5a5a5a"/>
      </g>
      <g id="Grupo_1117159" data-name="Grupo 1117159" transform="translate(43.355 5.963)">
        <path id="Trazado_873460" data-name="Trazado 873460" d="M434.15,61.968l-3.915,3.915a1.519,1.519,0,0,1-1.48.391l-2-.553a1.583,1.583,0,0,0,1.17-.462L432,61.183a1.583,1.583,0,0,0,.117-2.11l1.344.35A1.519,1.519,0,0,1,434.15,61.968Z" transform="translate(-426.751 -59.073)" fill="#444"/>
      </g>
      <g id="Grupo_1117160" data-name="Grupo 1117160" transform="translate(1.067 7.538)">
        <circle id="Elipse_11512" data-name="Elipse 11512" cx="21.708" cy="21.708" r="21.708" transform="translate(0)" fill="#ee6161"/>
      </g>
      <g id="Grupo_1117161" data-name="Grupo 1117161" transform="translate(9.083 11.236)">
        <path id="Trazado_873461" data-name="Trazado 873461" d="M122.621,129.323a21.708,21.708,0,0,1-35.4,16.845,21.709,21.709,0,0,0,25.816-34.854A21.687,21.687,0,0,1,122.621,129.323Z" transform="translate(-87.221 -111.313)" fill="#e94444"/>
      </g>
      <g id="Grupo_1117162" data-name="Grupo 1117162" transform="translate(6.851 13.322)">
        <circle id="Elipse_11513" data-name="Elipse 11513" cx="15.924" cy="15.924" r="15.924" fill="#f9f7f8"/>
      </g>
      <g id="Grupo_1117163" data-name="Grupo 1117163" transform="translate(12.975 15.585)">
        <path id="Trazado_873462" data-name="Trazado 873462" d="M151.505,168.054a15.925,15.925,0,0,1-25.724,12.552,15.926,15.926,0,0,0,17.987-26.213A15.918,15.918,0,0,1,151.505,168.054Z" transform="translate(-125.781 -154.393)" fill="#efedef"/>
      </g>
      <g id="Grupo_1117164" data-name="Grupo 1117164" transform="translate(12.664 19.135)">
        <circle id="Elipse_11514" data-name="Elipse 11514" cx="10.111" cy="10.111" r="10.111" fill="#ee6161"/>
      </g>
      <g id="Grupo_1117165" data-name="Grupo 1117165" transform="translate(16.222 20.285)">
        <path id="Trazado_873463" data-name="Trazado 873463" d="M174.614,209.923a10.11,10.11,0,0,1-16.663,7.7,10.111,10.111,0,0,0,11.239-16.66A10.105,10.105,0,0,1,174.614,209.923Z" transform="translate(-157.951 -200.963)" fill="#e94444"/>
      </g>
      <g id="Grupo_1117166" data-name="Grupo 1117166" transform="translate(18.184 24.656)">
        <circle id="Elipse_11515" data-name="Elipse 11515" cx="4.59" cy="4.59" r="4.59" fill="#f9f7f8"/>
      </g>
      <g id="Grupo_1117167" data-name="Grupo 1117167" transform="translate(19.183 25.09)">
        <path id="Trazado_873464" data-name="Trazado 873464" d="M195.463,252.719a4.59,4.59,0,0,1-8.182,2.858,4.59,4.59,0,0,0,5.542-7.013A4.589,4.589,0,0,1,195.463,252.719Z" transform="translate(-187.281 -248.563)" fill="#efedef"/>
      </g>
      <g id="Grupo_1117168" data-name="Grupo 1117168" transform="translate(1.067 36.732)">
        <circle id="Elipse_11516" data-name="Elipse 11516" cx="7.111" cy="7.111" r="7.111" fill="#57be92"/>
      </g>
      <g id="Grupo_1117169" data-name="Grupo 1117169" transform="translate(3.639 37.358)">
        <path id="Trazado_873465" data-name="Trazado 873465" d="M44.941,376.587a7.112,7.112,0,0,1-11.65,5.475A7.113,7.113,0,0,0,40.754,370.1,7.112,7.112,0,0,1,44.941,376.587Z" transform="translate(-33.291 -370.103)" fill="#09a76d"/>
      </g>
      <g id="Grupo_1117173" data-name="Grupo 1117173" transform="translate(0.31 0)">
        <g id="Grupo_1117170" data-name="Grupo 1117170" transform="translate(3.746 40.598)">
          <path id="Trazado_873466" data-name="Trazado 873466" d="M45.223,402.565a1.372,1.372,0,0,0-1.938.078L40.922,405.2a.257.257,0,0,1-.378,0l-.739-.8a1.375,1.375,0,0,0-2.026,1.86l1.731,1.894a1.639,1.639,0,0,0,2.414.006L45.3,404.5A1.372,1.372,0,0,0,45.223,402.565Z" transform="translate(-37.42 -402.202)" fill="#f9f7f8"/>
        </g>
        <g id="Grupo_1117171" data-name="Grupo 1117171" transform="translate(5.727 40.598)">
          <path id="Trazado_873467" data-name="Trazado 873467" d="M62.951,404.507l-3.376,3.66a1.639,1.639,0,0,1-2.414-.006l-.109-.119a1.63,1.63,0,0,0,1.2-.528l3.376-3.66a1.37,1.37,0,0,0,.166-1.639,1.371,1.371,0,0,1,1.162,2.292Z" transform="translate(-57.051 -402.206)" fill="#efedef"/>
        </g>
        <g id="Grupo_1117172" data-name="Grupo 1117172">
          <path id="Trazado_873468" data-name="Trazado 873468" d="M51.876,7.187A2.253,2.253,0,0,0,50.253,5.58l-3.074-.8-.8-3.074A2.277,2.277,0,0,0,42.564.669L38.649,4.585A2.281,2.281,0,0,0,38.065,6.8l1.3,4.707L38.075,12.8a22.507,22.507,0,0,0-5.19-3.62.757.757,0,0,0-.682,1.352A20.993,20.993,0,0,1,37,13.87L33.977,16.9A16.676,16.676,0,0,0,7.525,36a7.823,7.823,0,0,0-4,1.5A20.961,20.961,0,0,1,29.005,9.237a.757.757,0,0,0,.45-1.446A22.484,22.484,0,0,0,2.332,38.584,7.867,7.867,0,0,0,.725,46.371a.757.757,0,0,0,1.434-.486,6.36,6.36,0,1,1,1.723,2.64A.757.757,0,0,0,2.859,49.64a7.86,7.86,0,0,0,10.579.049A22.465,22.465,0,0,0,39.148,13.867l1.28-1.28,4.729,1.307a2.28,2.28,0,0,0,2.217-.585l3.915-3.915a2.252,2.252,0,0,0,.587-2.207ZM9.219,36.046A15.16,15.16,0,0,1,32.905,17.969l-3.044,3.044a10.887,10.887,0,1,0,1.076,1.066l3.043-3.043A15.16,15.16,0,0,1,15.975,42.8a7.882,7.882,0,0,0-6.756-6.754Zm12.888-6.209a.757.757,0,0,0,1.071,0l2.757-2.757a3.841,3.841,0,1,1-1.086-1.055l-2.741,2.741a.757.757,0,0,0,0,1.071Zm3.829-4.9A5.358,5.358,0,1,0,27.018,26l2.846-2.846a9.369,9.369,0,1,1-1.077-1.064Zm14.591-6.821A20.949,20.949,0,0,1,14.517,48.5a7.824,7.824,0,0,0,1.5-4,16.673,16.673,0,0,0,19.034-26.53l3.026-3.026A21.061,21.061,0,0,1,40.528,18.116Zm-1-11.718a.764.764,0,0,1,.2-.743L43.635,1.74a.734.734,0,0,1,.531-.224.8.8,0,0,1,.208.028.749.749,0,0,1,.538.544l.8,3.084L43.764,7.124a.756.756,0,0,0-.089.075L40.6,10.277ZM50.218,8.323,46.3,12.238a.764.764,0,0,1-.743.2l-3.89-1.075,5.117-5.117,3.084.8a.763.763,0,0,1,.347,1.278Z" transform="translate(-0.31 0)"/>
          <path id="Trazado_873469" data-name="Trazado 873469" d="M32.224,401.935a2.4,2.4,0,0,0,1.763.78h.006a2.4,2.4,0,0,0,1.761-.771l3.376-3.66A2.129,2.129,0,0,0,36,395.4l-2,2.163-.371-.4a2.132,2.132,0,0,0-3.141,2.884Zm-.576-3.787a.618.618,0,0,1,.873.035l.739.8a1.014,1.014,0,0,0,1.491,0l2.363-2.561a.615.615,0,1,1,.9.833l-3.376,3.66a.872.872,0,0,1-.648.284h0a.872.872,0,0,1-.649-.287l-1.731-1.894a.619.619,0,0,1,.037-.871Z" transform="translate(-26.947 -354.871)"/>
        </g>
      </g>
    </g>
  </g>
</svg>
