<svg xmlns="http://www.w3.org/2000/svg" xmlns:xlink="http://www.w3.org/1999/xlink" width="400" height="420.746" viewBox="0 0 400 420.746">
  <defs>
    <clipPath id="clip-path">
      <rect id="Rectángulo_408571" data-name="Rectángulo 408571" width="400" height="420.745" fill="none"/>
    </clipPath>
  </defs>
  <g id="Grupo_1118374" data-name="Grupo 1118374" transform="translate(3810.846 5204.805)">
    <path id="Trazado_878267" data-name="Trazado 878267" d="M0,0V420.745H400V0Z" transform="translate(-3810.846 -5204.805)" fill="#feebcf"/>
    <g id="Grupo_1117667" data-name="Grupo 1117667" transform="translate(-3810.846 -5204.805)">
      <g id="Grupo_1117666" data-name="Grupo 1117666" clip-path="url(#clip-path)">
        <path id="Trazado_878268" data-name="Trazado 878268" d="M18.078,64h98.363a5.352,5.352,0,0,0-3.942-9.949,8.275,8.275,0,0,0-3.076-3.486c-2.82-1.727-6.629-1.5-9.876.483.195-.742,1.514-6.1-1.877-10.7a12.942,12.942,0,0,0-13.7-4.505c-7.822-9.691-19.8-12.538-27.782-8.072-6.114,3.42-8.108,10.14-8.635,12.2a9.719,9.719,0,0,0-8.071,2.065,9.128,9.128,0,0,0-2.816,5.069,10.459,10.459,0,0,0-10.324-4.318,10.631,10.631,0,0,0-8.26,10.7,5.316,5.316,0,0,0,0,10.512" fill="#fcfcfa"/>
        <line id="Línea_3304" data-name="Línea 3304" x2="313.89" transform="translate(69.576 290.94)" fill="none" stroke="#7d3a1b" stroke-miterlimit="10" stroke-width="1"/>
        <line id="Línea_3305" data-name="Línea 3305" x2="313.89" transform="translate(69.576 264.277)" fill="none" stroke="#7d3a1b" stroke-miterlimit="10" stroke-width="1"/>
        <line id="Línea_3306" data-name="Línea 3306" x2="313.89" transform="translate(69.576 237.614)" fill="none" stroke="#7d3a1b" stroke-miterlimit="10" stroke-width="1"/>
        <line id="Línea_3307" data-name="Línea 3307" x2="313.89" transform="translate(69.576 210.951)" fill="none" stroke="#7d3a1b" stroke-miterlimit="10" stroke-width="1"/>
        <line id="Línea_3308" data-name="Línea 3308" x2="313.89" transform="translate(69.576 184.288)" fill="none" stroke="#7d3a1b" stroke-miterlimit="10" stroke-width="1"/>
        <line id="Línea_3309" data-name="Línea 3309" x2="313.89" transform="translate(69.576 157.625)" fill="none" stroke="#7d3a1b" stroke-miterlimit="10" stroke-width="1"/>
        <line id="Línea_3310" data-name="Línea 3310" x2="313.89" transform="translate(69.576 130.962)" fill="none" stroke="#7d3a1b" stroke-miterlimit="10" stroke-width="1"/>
        <line id="Línea_3311" data-name="Línea 3311" x2="313.89" transform="translate(69.576 104.299)" fill="none" stroke="#7d3a1b" stroke-miterlimit="10" stroke-width="1"/>
        <line id="Línea_3312" data-name="Línea 3312" x2="313.89" transform="translate(69.576 78.245)" fill="none" stroke="#7d3a1b" stroke-miterlimit="10" stroke-width="1"/>
        <line id="Línea_3313" data-name="Línea 3313" x2="313.983" y2="0.382" transform="translate(69.576 317.245)" fill="none" stroke="#7d3a1b" stroke-miterlimit="10" stroke-width="1"/>
        <line id="Línea_3314" data-name="Línea 3314" y1="239.395" transform="translate(278.875 77.745)" fill="none" stroke="#7d3a1b" stroke-miterlimit="10" stroke-width="1"/>
        <line id="Línea_3315" data-name="Línea 3315" y1="239.395" transform="translate(252.733 77.745)" fill="none" stroke="#7d3a1b" stroke-miterlimit="10" stroke-width="1"/>
        <line id="Línea_3316" data-name="Línea 3316" y1="239.395" transform="translate(226.591 77.745)" fill="none" stroke="#7d3a1b" stroke-miterlimit="10" stroke-width="1"/>
        <line id="Línea_3317" data-name="Línea 3317" y1="239.395" transform="translate(200.449 77.745)" fill="none" stroke="#7d3a1b" stroke-miterlimit="10" stroke-width="1"/>
        <line id="Línea_3318" data-name="Línea 3318" y1="239.395" transform="translate(174.306 77.745)" fill="none" stroke="#7d3a1b" stroke-miterlimit="10" stroke-width="1"/>
        <line id="Línea_3319" data-name="Línea 3319" y1="239.395" transform="translate(148.164 77.745)" fill="none" stroke="#7d3a1b" stroke-miterlimit="10" stroke-width="1"/>
        <line id="Línea_3320" data-name="Línea 3320" y1="239.395" transform="translate(122.022 77.745)" fill="none" stroke="#7d3a1b" stroke-miterlimit="10" stroke-width="1"/>
        <line id="Línea_3321" data-name="Línea 3321" y1="239.395" transform="translate(95.879 77.745)" fill="none" stroke="#7d3a1b" stroke-miterlimit="10" stroke-width="1"/>
        <line id="Línea_3322" data-name="Línea 3322" x1="0.339" y1="240" transform="translate(69.737 77.745)" fill="none" stroke="#7d3a1b" stroke-miterlimit="10" stroke-width="1"/>
        <line id="Línea_3323" data-name="Línea 3323" y1="239.395" transform="translate(305.018 77.745)" fill="none" stroke="#7d3a1b" stroke-miterlimit="10" stroke-width="1"/>
        <line id="Línea_3324" data-name="Línea 3324" y1="239.395" transform="translate(357.325 77.745)" fill="none" stroke="#7d3a1b" stroke-miterlimit="10" stroke-width="1"/>
        <line id="Línea_3325" data-name="Línea 3325" y1="239.395" transform="translate(331.182 77.745)" fill="none" stroke="#7d3a1b" stroke-miterlimit="10" stroke-width="1"/>
        <line id="Línea_3326" data-name="Línea 3326" y1="240" x2="0.391" transform="translate(383.076 77.745)" fill="none" stroke="#7d3a1b" stroke-miterlimit="10" stroke-width="1"/>
        <path id="Trazado_878269" data-name="Trazado 878269" d="M126.157,142.945a4.5,4.5,0,1,0-4.5,4.5,4.5,4.5,0,0,0,4.5-4.5" fill="#09614d"/>
        <path id="Trazado_878270" data-name="Trazado 878270" d="M126.157,170.548a4.5,4.5,0,1,0-4.5,4.5,4.5,4.5,0,0,0,4.5-4.5" fill="#7d3a1b"/>
        <path id="Trazado_878271" data-name="Trazado 878271" d="M126.157,229.56a4.5,4.5,0,1,0-4.5,4.5,4.5,4.5,0,0,0,4.5-4.5" fill="#727997"/>
        <path id="Trazado_878272" data-name="Trazado 878272" d="M309.517,175.307a4.5,4.5,0,1,0-4.5,4.5,4.5,4.5,0,0,0,4.5-4.5" fill="#09614d"/>
        <path id="Trazado_878273" data-name="Trazado 878273" d="M152.929,292.38a4.5,4.5,0,1,0-4.5,4.5,4.5,4.5,0,0,0,4.5-4.5" fill="#727997"/>
        <path id="Trazado_878274" data-name="Trazado 878274" d="M152.929,270.489a4.5,4.5,0,1,0-4.5,4.5,4.5,4.5,0,0,0,4.5-4.5" fill="#7d3a1b"/>
        <path id="Trazado_878275" data-name="Trazado 878275" d="M152.926,262.692a4.5,4.5,0,1,0-4.315,4.678,4.5,4.5,0,0,0,4.315-4.678" fill="#09614d"/>
        <path id="Trazado_878276" data-name="Trazado 878276" d="M179.079,310.465a4.5,4.5,0,1,0-4.5,4.5,4.5,4.5,0,0,0,4.5-4.5" fill="#ffb937"/>
        <path id="Trazado_878277" data-name="Trazado 878277" d="M179.079,287.621a4.5,4.5,0,1,0-4.5,4.5,4.5,4.5,0,0,0,4.5-4.5" fill="#727997"/>
        <path id="Trazado_878278" data-name="Trazado 878278" d="M179.076,204.632a4.5,4.5,0,1,0-4.316,4.677,4.5,4.5,0,0,0,4.316-4.677" fill="#7d3a1b"/>
        <path id="Trazado_878279" data-name="Trazado 878279" d="M205.081,191.522a4.5,4.5,0,1,0-2.965,5.629,4.5,4.5,0,0,0,2.965-5.629" fill="#ffb937"/>
        <path id="Trazado_878280" data-name="Trazado 878280" d="M199.159,243.7a4.5,4.5,0,1,0-2.571-5.821,4.5,4.5,0,0,0,2.571,5.821" fill="#727997"/>
        <path id="Trazado_878281" data-name="Trazado 878281" d="M199.165,251.329a4.5,4.5,0,1,0-2.571-5.82,4.5,4.5,0,0,0,2.571,5.82" fill="#09614d"/>
        <path id="Trazado_878282" data-name="Trazado 878282" d="M197.894,293.972a4.5,4.5,0,1,0-.66-6.329,4.5,4.5,0,0,0,.66,6.329" fill="#7d3a1b"/>
        <path id="Trazado_878283" data-name="Trazado 878283" d="M231.233,183.916a4.5,4.5,0,1,0-2.965,5.629,4.5,4.5,0,0,0,2.965-5.629" fill="#ffb937"/>
        <path id="Trazado_878284" data-name="Trazado 878284" d="M231.231,238.158a4.5,4.5,0,1,0-2.965,5.629,4.5,4.5,0,0,0,2.965-5.629" fill="#09614d"/>
        <path id="Trazado_878285" data-name="Trazado 878285" d="M231.231,261.968a4.5,4.5,0,1,0-2.965,5.629,4.5,4.5,0,0,0,2.965-5.629" fill="#727997"/>
        <path id="Trazado_878286" data-name="Trazado 878286" d="M231.231,253.408a4.5,4.5,0,1,0-2.965,5.629,4.5,4.5,0,0,0,2.965-5.629" fill="#7d3a1b"/>
        <path id="Trazado_878287" data-name="Trazado 878287" d="M257.058,182a4.5,4.5,0,1,0-2.965,5.629A4.5,4.5,0,0,0,257.058,182" fill="#09614d"/>
        <path id="Trazado_878288" data-name="Trazado 878288" d="M256.873,192.846a4.5,4.5,0,1,0-2.286,5.938,4.5,4.5,0,0,0,2.286-5.938" fill="#ffb937"/>
        <path id="Trazado_878289" data-name="Trazado 878289" d="M257.058,236.267a4.5,4.5,0,1,0-2.965,5.629,4.5,4.5,0,0,0,2.965-5.629" fill="#727997"/>
        <path id="Trazado_878290" data-name="Trazado 878290" d="M257.058,254.351a4.5,4.5,0,1,0-2.965,5.629,4.5,4.5,0,0,0,2.965-5.629" fill="#7d3a1b"/>
        <path id="Trazado_878291" data-name="Trazado 878291" d="M283.17,238.172A4.5,4.5,0,1,0,280.2,243.8a4.5,4.5,0,0,0,2.965-5.629" fill="#727997"/>
        <path id="Trazado_878292" data-name="Trazado 878292" d="M309.517,202.909a4.5,4.5,0,1,0-4.5,4.5,4.5,4.5,0,0,0,4.5-4.5" fill="#ffb937"/>
        <path id="Trazado_878293" data-name="Trazado 878293" d="M309.517,226.705a4.5,4.5,0,1,0-4.5,4.5,4.5,4.5,0,0,0,4.5-4.5" fill="#727997"/>
        <path id="Trazado_878294" data-name="Trazado 878294" d="M309.517,262.874a4.5,4.5,0,1,0-4.5,4.5,4.5,4.5,0,0,0,4.5-4.5" fill="#7d3a1b"/>
        <path id="Trazado_878295" data-name="Trazado 878295" d="M335.563,239.078a4.5,4.5,0,1,0-4.5,4.5,4.5,4.5,0,0,0,4.5-4.5" fill="#09614d"/>
        <path id="Trazado_878296" data-name="Trazado 878296" d="M335.563,281.91a4.5,4.5,0,1,0-4.5,4.5,4.5,4.5,0,0,0,4.5-4.5" fill="#7d3a1b"/>
        <path id="Trazado_878297" data-name="Trazado 878297" d="M362.127,154.367a4.5,4.5,0,1,0-4.5,4.5,4.5,4.5,0,0,0,4.5-4.5" fill="#09614d"/>
        <path id="Trazado_878298" data-name="Trazado 878298" d="M362.127,203.861a4.5,4.5,0,1,0-4.5,4.5,4.5,4.5,0,0,0,4.5-4.5" fill="#ffb937"/>
        <path id="Trazado_878299" data-name="Trazado 878299" d="M362.127,249.548a4.5,4.5,0,1,0-4.5,4.5,4.5,4.5,0,0,0,4.5-4.5" fill="#727997"/>
        <path id="Trazado_878300" data-name="Trazado 878300" d="M362.127,266.681a4.5,4.5,0,1,0-4.5,4.5,4.5,4.5,0,0,0,4.5-4.5" fill="#7d3a1b"/>
        <path id="Trazado_878301" data-name="Trazado 878301" d="M388.34,195.295a4.5,4.5,0,1,0-4.5,4.5,4.5,4.5,0,0,0,4.5-4.5" fill="#09614d"/>
        <path id="Trazado_878302" data-name="Trazado 878302" d="M388.34,247.645a4.5,4.5,0,1,0-4.5,4.5,4.5,4.5,0,0,0,4.5-4.5" fill="#ffb937"/>
        <path id="Trazado_878303" data-name="Trazado 878303" d="M388.313,261.877a4.5,4.5,0,1,0-3.98,4.965,4.5,4.5,0,0,0,3.98-4.965" fill="#727997"/>
        <path id="Trazado_878304" data-name="Trazado 878304" d="M388.313,281.87a4.5,4.5,0,1,0-3.98,4.965,4.5,4.5,0,0,0,3.98-4.965" fill="#7d3a1b"/>
        <path id="Trazado_878305" data-name="Trazado 878305" d="M97.375,140.089s19.924,7.615,28.018,40.928,15.565,87.568,22.414,86.616,9.339-9.518,18.678-49.495c0,0,3.736-14.277,7.471-14.277s8.717,23.8,13.7,43.784,9.339,42.832,13.075,42.832,6.226,0,13.075-14.278,9.339-24.747,17.433-24.747,16.81,6.663,26.15.952,17.433-16.181,31.753-4.759,34.244,35.217,42.96,34.265,18.056-16.181,25.527-15.229,19.3,16.181,24.282,15.229" fill="none" stroke="#7d3a1b" stroke-miterlimit="10" stroke-width="2"/>
        <path id="Trazado_878306" data-name="Trazado 878306" d="M94.885,139.137s20.546-17.133,26.15.952,8.094,31.41,11.829,54.254,11.83,68.53,14.943,69.482,6.849,6.663,14.943-23.8c0,0,7.641-26.835,11.292-28.646s6.764,2.947,6.764,2.947l19.984,32.8s8.656,2.414,13.014.51,14.9,2.632,38.581-63.408L266.1,138.185s7.955-25.541,12.694-24.668,9.72,12.295,22.172,50.367,22.414,78.049,29.885,75.194,16.811-59.013,16.811-59.013,6.849-29.506,11.207-26.651,4.981,2.856,9.962,13.326,9.962,22.843,13.075,26.651" fill="none" stroke="#09614d" stroke-miterlimit="10" stroke-width="2"/>
        <path id="Trazado_878307" data-name="Trazado 878307" d="M96.752,141.993l49.809,140.869s20.546,46.639,28.018,27.6c0,0,7.471-19.988,12.452-52.35s8.2-48.665,13.753-65.261c0,0,2.463-18.723,25.486-8.617,0,0,21.154,14.865,25.513,11.058s8.716-16.181,13.7-30.458,10.585-22.844,13.075-22.844,8.717,5.711,20.546,44.735c0,0,17.434,54.254,18.056,55.206s8.509,25.7,13.9,27.6S343.93,240.03,343.93,240.03s10.207-38.005,13.509-37.087,6.414,3.774,13.886,20.906,9.339,21.892,11.829,24.748" fill="none" stroke="#ffb937" stroke-miterlimit="10" stroke-width="2"/>
        <path id="Trazado_878308" data-name="Trazado 878308" d="M96.576,139.745s35.411,131.948,49.858,149.431c0,0,9.467,13.674,21.919,3.2s19.3-31.41,24.9-42.832,9.34-13.325,16.188-4.759,11.83,18.085,16.811,17.133,8.717-5.711,14.943-13.325,7.471-15.229,19.923-12.374,16.811,6.663,23.66,0,19.3-18.085,25.527-4.759,16.81,42.832,24.282,39.024c9.247-4.712,19.3-27.6,31.753-19.036S384.4,262.874,384.4,262.874" fill="none" stroke="#727997" stroke-miterlimit="10" stroke-width="2"/>
        <path id="Trazado_878309" data-name="Trazado 878309" d="M282.62,140.96a4.5,4.5,0,1,0-2.286,5.938,4.5,4.5,0,0,0,2.286-5.938" fill="#ffb937"/>
        <path id="Trazado_878310" data-name="Trazado 878310" d="M283.588,112.4a4.5,4.5,0,1,0-2.286,5.938,4.5,4.5,0,0,0,2.286-5.938" fill="#09614d"/>
        <path id="Trazado_878311" data-name="Trazado 878311" d="M100.63,140.089a4.5,4.5,0,1,0-4.5,4.5,4.5,4.5,0,0,0,4.5-4.5" fill="#09614d"/>
        <path id="Trazado_878312" data-name="Trazado 878312" d="M283.17,241.491a4.5,4.5,0,1,0-2.965,5.629,4.5,4.5,0,0,0,2.965-5.629" fill="#7d3a1b"/>
        <path id="Trazado_878313" data-name="Trazado 878313" d="M335.563,269.537a4.5,4.5,0,1,0-4.5,4.5,4.5,4.5,0,0,0,4.5-4.5" fill="#ffb937"/>
      </g>
    </g>
    <path id="Trazado_905839" data-name="Trazado 905839" d="M8.4,0H.945V-1.039L4.883-5.414A9.354,9.354,0,0,0,6.09-7.027a2.693,2.693,0,0,0,.332-1.285,2.041,2.041,0,0,0-.539-1.461,1.885,1.885,0,0,0-1.437-.57A2.232,2.232,0,0,0,2.77-9.73a2.343,2.343,0,0,0-.6,1.707H.727a3.355,3.355,0,0,1,1.012-2.539,3.751,3.751,0,0,1,2.707-.969,3.6,3.6,0,0,1,2.508.832,2.838,2.838,0,0,1,.922,2.215q0,1.68-2.141,4L2.688-1.18H8.4Zm8.875-10.562L12.563,0H11.047l4.7-10.187H9.586v-1.187h7.688Zm8.773,5.711a6.61,6.61,0,0,1-.867,3.773A3.084,3.084,0,0,1,22.469.156a3.107,3.107,0,0,1-2.7-1.207,6.274,6.274,0,0,1-.906-3.605v-1.93a6.463,6.463,0,0,1,.867-3.727,3.108,3.108,0,0,1,2.719-1.219,3.136,3.136,0,0,1,2.7,1.176,6.237,6.237,0,0,1,.891,3.629ZM24.6-6.828A5.3,5.3,0,0,0,24.086-9.5a1.775,1.775,0,0,0-1.633-.84,1.751,1.751,0,0,0-1.617.836,5.171,5.171,0,0,0-.523,2.57v2.313A5.381,5.381,0,0,0,20.848-1.9a1.771,1.771,0,0,0,1.621.879,1.747,1.747,0,0,0,1.59-.828A5.186,5.186,0,0,0,24.6-4.461Zm10.43,1.977a6.61,6.61,0,0,1-.867,3.773A3.084,3.084,0,0,1,31.453.156a3.107,3.107,0,0,1-2.7-1.207,6.274,6.274,0,0,1-.906-3.605v-1.93a6.463,6.463,0,0,1,.867-3.727,3.108,3.108,0,0,1,2.719-1.219,3.136,3.136,0,0,1,2.7,1.176,6.237,6.237,0,0,1,.891,3.629ZM33.586-6.828A5.3,5.3,0,0,0,33.07-9.5a1.775,1.775,0,0,0-1.633-.84,1.751,1.751,0,0,0-1.617.836,5.171,5.171,0,0,0-.523,2.57v2.313A5.381,5.381,0,0,0,29.832-1.9a1.771,1.771,0,0,0,1.621.879,1.747,1.747,0,0,0,1.59-.828,5.186,5.186,0,0,0,.543-2.609Z" transform="translate(-3780.413 -5121.983)" fill="#12263f"/>
    <path id="Trazado_905840" data-name="Trazado 905840" d="M8.4,0H.945V-1.039L4.883-5.414A9.354,9.354,0,0,0,6.09-7.027a2.693,2.693,0,0,0,.332-1.285,2.041,2.041,0,0,0-.539-1.461,1.885,1.885,0,0,0-1.437-.57A2.232,2.232,0,0,0,2.77-9.73a2.343,2.343,0,0,0-.6,1.707H.727a3.355,3.355,0,0,1,1.012-2.539,3.751,3.751,0,0,1,2.707-.969,3.6,3.6,0,0,1,2.508.832,2.838,2.838,0,0,1,.922,2.215q0,1.68-2.141,4L2.688-1.18H8.4Zm7.633-3.82h1.578v1.18H16.031V0H14.578V-2.641H9.4v-.852l5.094-7.883h1.539Zm-4.992,0h3.539V-9.4l-.172.313ZM26.047-4.852a6.61,6.61,0,0,1-.867,3.773A3.084,3.084,0,0,1,22.469.156a3.107,3.107,0,0,1-2.7-1.207,6.274,6.274,0,0,1-.906-3.605v-1.93a6.463,6.463,0,0,1,.867-3.727,3.108,3.108,0,0,1,2.719-1.219,3.136,3.136,0,0,1,2.7,1.176,6.237,6.237,0,0,1,.891,3.629ZM24.6-6.828A5.3,5.3,0,0,0,24.086-9.5a1.775,1.775,0,0,0-1.633-.84,1.751,1.751,0,0,0-1.617.836,5.171,5.171,0,0,0-.523,2.57v2.313A5.381,5.381,0,0,0,20.848-1.9a1.771,1.771,0,0,0,1.621.879,1.747,1.747,0,0,0,1.59-.828A5.186,5.186,0,0,0,24.6-4.461Zm10.43,1.977a6.61,6.61,0,0,1-.867,3.773A3.084,3.084,0,0,1,31.453.156a3.107,3.107,0,0,1-2.7-1.207,6.274,6.274,0,0,1-.906-3.605v-1.93a6.463,6.463,0,0,1,.867-3.727,3.108,3.108,0,0,1,2.719-1.219,3.136,3.136,0,0,1,2.7,1.176,6.237,6.237,0,0,1,.891,3.629ZM33.586-6.828A5.3,5.3,0,0,0,33.07-9.5a1.775,1.775,0,0,0-1.633-.84,1.751,1.751,0,0,0-1.617.836,5.171,5.171,0,0,0-.523,2.57v2.313A5.381,5.381,0,0,0,29.832-1.9a1.771,1.771,0,0,0,1.621.879,1.747,1.747,0,0,0,1.59-.828,5.186,5.186,0,0,0,.543-2.609Z" transform="translate(-3780.413 -5095.423)" fill="#12263f"/>
    <path id="Trazado_905842" data-name="Trazado 905842" d="M8.4,0H.945V-1.039L4.883-5.414A9.354,9.354,0,0,0,6.09-7.027a2.693,2.693,0,0,0,.332-1.285,2.041,2.041,0,0,0-.539-1.461,1.885,1.885,0,0,0-1.437-.57A2.232,2.232,0,0,0,2.77-9.73a2.343,2.343,0,0,0-.6,1.707H.727a3.355,3.355,0,0,1,1.012-2.539,3.751,3.751,0,0,1,2.707-.969,3.6,3.6,0,0,1,2.508.832,2.838,2.838,0,0,1,.922,2.215q0,1.68-2.141,4L2.688-1.18H8.4ZM14.68,0H13.227V-9.633l-2.914,1.07V-9.875l4.141-1.555h.227ZM26.047-4.852a6.61,6.61,0,0,1-.867,3.773A3.084,3.084,0,0,1,22.469.156a3.107,3.107,0,0,1-2.7-1.207,6.274,6.274,0,0,1-.906-3.605v-1.93a6.463,6.463,0,0,1,.867-3.727,3.108,3.108,0,0,1,2.719-1.219,3.136,3.136,0,0,1,2.7,1.176,6.237,6.237,0,0,1,.891,3.629ZM24.6-6.828A5.3,5.3,0,0,0,24.086-9.5a1.775,1.775,0,0,0-1.633-.84,1.751,1.751,0,0,0-1.617.836,5.171,5.171,0,0,0-.523,2.57v2.313A5.381,5.381,0,0,0,20.848-1.9a1.771,1.771,0,0,0,1.621.879,1.747,1.747,0,0,0,1.59-.828A5.186,5.186,0,0,0,24.6-4.461Zm10.43,1.977a6.61,6.61,0,0,1-.867,3.773A3.084,3.084,0,0,1,31.453.156a3.107,3.107,0,0,1-2.7-1.207,6.274,6.274,0,0,1-.906-3.605v-1.93a6.463,6.463,0,0,1,.867-3.727,3.108,3.108,0,0,1,2.719-1.219,3.136,3.136,0,0,1,2.7,1.176,6.237,6.237,0,0,1,.891,3.629ZM33.586-6.828A5.3,5.3,0,0,0,33.07-9.5a1.775,1.775,0,0,0-1.633-.84,1.751,1.751,0,0,0-1.617.836,5.171,5.171,0,0,0-.523,2.57v2.313A5.381,5.381,0,0,0,29.832-1.9a1.771,1.771,0,0,0,1.621.879,1.747,1.747,0,0,0,1.59-.828,5.186,5.186,0,0,0,.543-2.609Z" transform="translate(-3780.413 -5068.863)" fill="#12263f"/>
    <path id="Trazado_905843" data-name="Trazado 905843" d="M5.7,0H4.242V-9.633L1.328-8.562V-9.875L5.469-11.43H5.7ZM16.828-8.406a2.641,2.641,0,0,1-.449,1.516,3.056,3.056,0,0,1-1.215,1.039,3.26,3.26,0,0,1,1.41,1.117,2.811,2.811,0,0,1,.52,1.664,2.972,2.972,0,0,1-1,2.352,3.827,3.827,0,0,1-2.621.875,3.81,3.81,0,0,1-2.629-.879A2.986,2.986,0,0,1,9.859-3.07a2.9,2.9,0,0,1,.5-1.664,3.136,3.136,0,0,1,1.395-1.125,2.981,2.981,0,0,1-1.2-1.039,2.679,2.679,0,0,1-.437-1.508,2.94,2.94,0,0,1,.922-2.281,3.458,3.458,0,0,1,2.43-.844,3.461,3.461,0,0,1,2.426.844A2.934,2.934,0,0,1,16.828-8.406Zm-1.18,5.3a2.1,2.1,0,0,0-.605-1.555,2.147,2.147,0,0,0-1.582-.6,2.11,2.11,0,0,0-1.566.594A2.12,2.12,0,0,0,11.3-3.1a2.019,2.019,0,0,0,.574,1.523,2.2,2.2,0,0,0,1.6.555,2.2,2.2,0,0,0,1.594-.559A2.014,2.014,0,0,0,15.648-3.1Zm-2.172-7.242a1.865,1.865,0,0,0-1.379.527,1.937,1.937,0,0,0-.527,1.434,1.928,1.928,0,0,0,.52,1.4,1.844,1.844,0,0,0,1.387.535,1.844,1.844,0,0,0,1.387-.535,1.928,1.928,0,0,0,.52-1.4A1.929,1.929,0,0,0,14.844-9.8,1.839,1.839,0,0,0,13.477-10.344Zm12.57,5.492a6.61,6.61,0,0,1-.867,3.773A3.084,3.084,0,0,1,22.469.156a3.107,3.107,0,0,1-2.7-1.207,6.274,6.274,0,0,1-.906-3.605v-1.93a6.463,6.463,0,0,1,.867-3.727,3.108,3.108,0,0,1,2.719-1.219,3.136,3.136,0,0,1,2.7,1.176,6.237,6.237,0,0,1,.891,3.629ZM24.6-6.828A5.3,5.3,0,0,0,24.086-9.5a1.775,1.775,0,0,0-1.633-.84,1.751,1.751,0,0,0-1.617.836,5.171,5.171,0,0,0-.523,2.57v2.313A5.381,5.381,0,0,0,20.848-1.9a1.771,1.771,0,0,0,1.621.879,1.747,1.747,0,0,0,1.59-.828A5.186,5.186,0,0,0,24.6-4.461Zm10.43,1.977a6.61,6.61,0,0,1-.867,3.773A3.084,3.084,0,0,1,31.453.156a3.107,3.107,0,0,1-2.7-1.207,6.274,6.274,0,0,1-.906-3.605v-1.93a6.463,6.463,0,0,1,.867-3.727,3.108,3.108,0,0,1,2.719-1.219,3.136,3.136,0,0,1,2.7,1.176,6.237,6.237,0,0,1,.891,3.629ZM33.586-6.828A5.3,5.3,0,0,0,33.07-9.5a1.775,1.775,0,0,0-1.633-.84,1.751,1.751,0,0,0-1.617.836,5.171,5.171,0,0,0-.523,2.57v2.313A5.381,5.381,0,0,0,29.832-1.9a1.771,1.771,0,0,0,1.621.879,1.747,1.747,0,0,0,1.59-.828,5.186,5.186,0,0,0,.543-2.609Z" transform="translate(-3780.413 -5042.303)" fill="#12263f"/>
    <path id="Trazado_905844" data-name="Trazado 905844" d="M5.7,0H4.242V-9.633L1.328-8.562V-9.875L5.469-11.43H5.7Zm4.9-5.7.578-5.672H17v1.336H12.4l-.344,3.1a3.671,3.671,0,0,1,1.9-.492A3.138,3.138,0,0,1,16.422-6.4a4.026,4.026,0,0,1,.914,2.777,3.886,3.886,0,0,1-.949,2.77A3.46,3.46,0,0,1,13.734.156,3.6,3.6,0,0,1,11.273-.68a3.337,3.337,0,0,1-1.086-2.312h1.367a2.3,2.3,0,0,0,.7,1.473,2.162,2.162,0,0,0,1.484.5,1.95,1.95,0,0,0,1.582-.687,2.874,2.874,0,0,0,.574-1.9,2.638,2.638,0,0,0-.621-1.832,2.113,2.113,0,0,0-1.652-.691,2.383,2.383,0,0,0-1.484.414l-.383.313Zm15.453.852a6.61,6.61,0,0,1-.867,3.773A3.084,3.084,0,0,1,22.469.156a3.107,3.107,0,0,1-2.7-1.207,6.274,6.274,0,0,1-.906-3.605v-1.93a6.463,6.463,0,0,1,.867-3.727,3.108,3.108,0,0,1,2.719-1.219,3.136,3.136,0,0,1,2.7,1.176,6.237,6.237,0,0,1,.891,3.629ZM24.6-6.828A5.3,5.3,0,0,0,24.086-9.5a1.775,1.775,0,0,0-1.633-.84,1.751,1.751,0,0,0-1.617.836,5.171,5.171,0,0,0-.523,2.57v2.313A5.381,5.381,0,0,0,20.848-1.9a1.771,1.771,0,0,0,1.621.879,1.747,1.747,0,0,0,1.59-.828A5.186,5.186,0,0,0,24.6-4.461Zm10.43,1.977a6.61,6.61,0,0,1-.867,3.773A3.084,3.084,0,0,1,31.453.156a3.107,3.107,0,0,1-2.7-1.207,6.274,6.274,0,0,1-.906-3.605v-1.93a6.463,6.463,0,0,1,.867-3.727,3.108,3.108,0,0,1,2.719-1.219,3.136,3.136,0,0,1,2.7,1.176,6.237,6.237,0,0,1,.891,3.629ZM33.586-6.828A5.3,5.3,0,0,0,33.07-9.5a1.775,1.775,0,0,0-1.633-.84,1.751,1.751,0,0,0-1.617.836,5.171,5.171,0,0,0-.523,2.57v2.313A5.381,5.381,0,0,0,29.832-1.9a1.771,1.771,0,0,0,1.621.879,1.747,1.747,0,0,0,1.59-.828,5.186,5.186,0,0,0,.543-2.609Z" transform="translate(-3780.413 -5015.743)" fill="#12263f"/>
    <path id="Trazado_905845" data-name="Trazado 905845" d="M5.7,0H4.242V-9.633L1.328-8.562V-9.875L5.469-11.43H5.7ZM17.383,0H9.93V-1.039l3.938-4.375a9.354,9.354,0,0,0,1.207-1.613,2.693,2.693,0,0,0,.332-1.285,2.041,2.041,0,0,0-.539-1.461,1.885,1.885,0,0,0-1.437-.57,2.232,2.232,0,0,0-1.676.613,2.343,2.343,0,0,0-.6,1.707H9.711a3.355,3.355,0,0,1,1.012-2.539,3.751,3.751,0,0,1,2.707-.969,3.6,3.6,0,0,1,2.508.832,2.838,2.838,0,0,1,.922,2.215q0,1.68-2.141,4l-3.047,3.3h5.711Zm8.664-4.852a6.61,6.61,0,0,1-.867,3.773A3.084,3.084,0,0,1,22.469.156a3.107,3.107,0,0,1-2.7-1.207,6.274,6.274,0,0,1-.906-3.605v-1.93a6.463,6.463,0,0,1,.867-3.727,3.108,3.108,0,0,1,2.719-1.219,3.136,3.136,0,0,1,2.7,1.176,6.237,6.237,0,0,1,.891,3.629ZM24.6-6.828A5.3,5.3,0,0,0,24.086-9.5a1.775,1.775,0,0,0-1.633-.84,1.751,1.751,0,0,0-1.617.836,5.171,5.171,0,0,0-.523,2.57v2.313A5.381,5.381,0,0,0,20.848-1.9a1.771,1.771,0,0,0,1.621.879,1.747,1.747,0,0,0,1.59-.828A5.186,5.186,0,0,0,24.6-4.461Zm10.43,1.977a6.61,6.61,0,0,1-.867,3.773A3.084,3.084,0,0,1,31.453.156a3.107,3.107,0,0,1-2.7-1.207,6.274,6.274,0,0,1-.906-3.605v-1.93a6.463,6.463,0,0,1,.867-3.727,3.108,3.108,0,0,1,2.719-1.219,3.136,3.136,0,0,1,2.7,1.176,6.237,6.237,0,0,1,.891,3.629ZM33.586-6.828A5.3,5.3,0,0,0,33.07-9.5a1.775,1.775,0,0,0-1.633-.84,1.751,1.751,0,0,0-1.617.836,5.171,5.171,0,0,0-.523,2.57v2.313A5.381,5.381,0,0,0,29.832-1.9a1.771,1.771,0,0,0,1.621.879,1.747,1.747,0,0,0,1.59-.828,5.186,5.186,0,0,0,.543-2.609Z" transform="translate(-3780.413 -4989.184)" fill="#12263f"/>
    <path id="Trazado_905846" data-name="Trazado 905846" d="M6.484-5A3.536,3.536,0,0,1,5.4-4.133,2.936,2.936,0,0,1,4.023-3.8a3.031,3.031,0,0,1-1.715-.484A3.149,3.149,0,0,1,1.18-5.652a4.648,4.648,0,0,1-.4-1.941,4.735,4.735,0,0,1,.434-2.055,3.185,3.185,0,0,1,1.23-1.4A3.509,3.509,0,0,1,4.3-11.531a3.177,3.177,0,0,1,2.66,1.262,5.5,5.5,0,0,1,.973,3.441v.422q0,3.32-1.312,4.848A5.043,5.043,0,0,1,2.664.008H2.383V-1.219h.3a3.979,3.979,0,0,0,2.75-.932A4,4,0,0,0,6.484-5ZM4.258-5A2.232,2.232,0,0,0,5.6-5.445a2.625,2.625,0,0,0,.895-1.1v-.578a3.977,3.977,0,0,0-.617-2.312,1.842,1.842,0,0,0-1.562-.891,1.856,1.856,0,0,0-1.531.73A3.013,3.013,0,0,0,2.2-7.672a3.136,3.136,0,0,0,.559,1.918A1.769,1.769,0,0,0,4.258-5Zm12.8.148A6.61,6.61,0,0,1,16.2-1.078,3.084,3.084,0,0,1,13.484.156a3.107,3.107,0,0,1-2.7-1.207,6.274,6.274,0,0,1-.906-3.605v-1.93a6.463,6.463,0,0,1,.867-3.727,3.108,3.108,0,0,1,2.719-1.219,3.136,3.136,0,0,1,2.7,1.176,6.237,6.237,0,0,1,.891,3.629ZM15.617-6.828A5.3,5.3,0,0,0,15.1-9.5a1.775,1.775,0,0,0-1.633-.84,1.751,1.751,0,0,0-1.617.836,5.171,5.171,0,0,0-.523,2.57v2.313A5.381,5.381,0,0,0,11.863-1.9a1.771,1.771,0,0,0,1.621.879,1.747,1.747,0,0,0,1.59-.828,5.186,5.186,0,0,0,.543-2.609Zm10.43,1.977a6.61,6.61,0,0,1-.867,3.773A3.084,3.084,0,0,1,22.469.156a3.107,3.107,0,0,1-2.7-1.207,6.274,6.274,0,0,1-.906-3.605v-1.93a6.463,6.463,0,0,1,.867-3.727,3.108,3.108,0,0,1,2.719-1.219,3.136,3.136,0,0,1,2.7,1.176,6.237,6.237,0,0,1,.891,3.629ZM24.6-6.828A5.3,5.3,0,0,0,24.086-9.5a1.775,1.775,0,0,0-1.633-.84,1.751,1.751,0,0,0-1.617.836,5.171,5.171,0,0,0-.523,2.57v2.313A5.381,5.381,0,0,0,20.848-1.9a1.771,1.771,0,0,0,1.621.879,1.747,1.747,0,0,0,1.59-.828A5.186,5.186,0,0,0,24.6-4.461Z" transform="translate(-3771.42 -4962.623)" fill="#12263f"/>
    <path id="Trazado_905847" data-name="Trazado 905847" d="M6.617-11.383v1.227H6.352a3.805,3.805,0,0,0-2.687,1A4.161,4.161,0,0,0,2.508-6.43,3.085,3.085,0,0,1,4.961-7.461,2.95,2.95,0,0,1,7.332-6.414a4.038,4.038,0,0,1,.887,2.7A4.025,4.025,0,0,1,7.262-.9,3.3,3.3,0,0,1,4.7.156,3.247,3.247,0,0,1,2.047-1.1a4.97,4.97,0,0,1-1.016-3.23v-.555a7.488,7.488,0,0,1,1.34-4.8,4.921,4.921,0,0,1,3.988-1.7Zm-1.9,5.125a2.306,2.306,0,0,0-1.367.445A2.32,2.32,0,0,0,2.484-4.7v.531A3.731,3.731,0,0,0,3.117-1.9,1.9,1.9,0,0,0,4.7-1.039,1.838,1.838,0,0,0,6.23-1.758a2.982,2.982,0,0,0,.559-1.883,2.983,2.983,0,0,0-.566-1.895A1.816,1.816,0,0,0,4.719-6.258ZM17.063-4.852A6.61,6.61,0,0,1,16.2-1.078,3.084,3.084,0,0,1,13.484.156a3.107,3.107,0,0,1-2.7-1.207,6.274,6.274,0,0,1-.906-3.605v-1.93a6.463,6.463,0,0,1,.867-3.727,3.108,3.108,0,0,1,2.719-1.219,3.136,3.136,0,0,1,2.7,1.176,6.237,6.237,0,0,1,.891,3.629ZM15.617-6.828A5.3,5.3,0,0,0,15.1-9.5a1.775,1.775,0,0,0-1.633-.84,1.751,1.751,0,0,0-1.617.836,5.171,5.171,0,0,0-.523,2.57v2.313A5.381,5.381,0,0,0,11.863-1.9a1.771,1.771,0,0,0,1.621.879,1.747,1.747,0,0,0,1.59-.828,5.186,5.186,0,0,0,.543-2.609Zm10.43,1.977a6.61,6.61,0,0,1-.867,3.773A3.084,3.084,0,0,1,22.469.156a3.107,3.107,0,0,1-2.7-1.207,6.274,6.274,0,0,1-.906-3.605v-1.93a6.463,6.463,0,0,1,.867-3.727,3.108,3.108,0,0,1,2.719-1.219,3.136,3.136,0,0,1,2.7,1.176,6.237,6.237,0,0,1,.891,3.629ZM24.6-6.828A5.3,5.3,0,0,0,24.086-9.5a1.775,1.775,0,0,0-1.633-.84,1.751,1.751,0,0,0-1.617.836,5.171,5.171,0,0,0-.523,2.57v2.313A5.381,5.381,0,0,0,20.848-1.9a1.771,1.771,0,0,0,1.621.879,1.747,1.747,0,0,0,1.59-.828A5.186,5.186,0,0,0,24.6-4.461Z" transform="translate(-3771.42 -4936.063)" fill="#12263f"/>
    <path id="Trazado_905848" data-name="Trazado 905848" d="M3.047-6.391H4.133A2.387,2.387,0,0,0,5.742-6.93a1.8,1.8,0,0,0,.586-1.414,1.764,1.764,0,0,0-1.992-2,2.072,2.072,0,0,0-1.5.535,1.873,1.873,0,0,0-.559,1.418H.836a2.9,2.9,0,0,1,.988-2.246,3.6,3.6,0,0,1,2.512-.895,3.558,3.558,0,0,1,2.523.852,3.076,3.076,0,0,1,.914,2.367,2.5,2.5,0,0,1-.48,1.438A2.9,2.9,0,0,1,5.984-5.836a2.8,2.8,0,0,1,1.449.984,2.734,2.734,0,0,1,.512,1.68,3.1,3.1,0,0,1-1,2.43,3.745,3.745,0,0,1-2.6.9A3.844,3.844,0,0,1,1.738-.711,2.877,2.877,0,0,1,.734-3H2.188a1.859,1.859,0,0,0,.586,1.438,2.229,2.229,0,0,0,1.57.539,2.187,2.187,0,0,0,1.6-.547A2.108,2.108,0,0,0,6.5-3.141a1.912,1.912,0,0,0-.609-1.523,2.655,2.655,0,0,0-1.758-.547H3.047ZM17.063-4.852A6.61,6.61,0,0,1,16.2-1.078,3.084,3.084,0,0,1,13.484.156a3.107,3.107,0,0,1-2.7-1.207,6.274,6.274,0,0,1-.906-3.605v-1.93a6.463,6.463,0,0,1,.867-3.727,3.108,3.108,0,0,1,2.719-1.219,3.136,3.136,0,0,1,2.7,1.176,6.237,6.237,0,0,1,.891,3.629ZM15.617-6.828A5.3,5.3,0,0,0,15.1-9.5a1.775,1.775,0,0,0-1.633-.84,1.751,1.751,0,0,0-1.617.836,5.171,5.171,0,0,0-.523,2.57v2.313A5.381,5.381,0,0,0,11.863-1.9a1.771,1.771,0,0,0,1.621.879,1.747,1.747,0,0,0,1.59-.828,5.186,5.186,0,0,0,.543-2.609Zm10.43,1.977a6.61,6.61,0,0,1-.867,3.773A3.084,3.084,0,0,1,22.469.156a3.107,3.107,0,0,1-2.7-1.207,6.274,6.274,0,0,1-.906-3.605v-1.93a6.463,6.463,0,0,1,.867-3.727,3.108,3.108,0,0,1,2.719-1.219,3.136,3.136,0,0,1,2.7,1.176,6.237,6.237,0,0,1,.891,3.629ZM24.6-6.828A5.3,5.3,0,0,0,24.086-9.5a1.775,1.775,0,0,0-1.633-.84,1.751,1.751,0,0,0-1.617.836,5.171,5.171,0,0,0-.523,2.57v2.313A5.381,5.381,0,0,0,20.848-1.9a1.771,1.771,0,0,0,1.621.879,1.747,1.747,0,0,0,1.59-.828A5.186,5.186,0,0,0,24.6-4.461Z" transform="translate(-3771.42 -4909.503)" fill="#12263f"/>
    <path id="Trazado_905849" data-name="Trazado 905849" d="M8.078-4.852a6.61,6.61,0,0,1-.867,3.773A3.084,3.084,0,0,1,4.5.156,3.107,3.107,0,0,1,1.8-1.051,6.274,6.274,0,0,1,.9-4.656v-1.93a6.463,6.463,0,0,1,.867-3.727,3.108,3.108,0,0,1,2.719-1.219,3.136,3.136,0,0,1,2.7,1.176,6.237,6.237,0,0,1,.891,3.629ZM6.633-6.828A5.3,5.3,0,0,0,6.117-9.5a1.775,1.775,0,0,0-1.633-.84,1.751,1.751,0,0,0-1.617.836,5.171,5.171,0,0,0-.523,2.57v2.313A5.381,5.381,0,0,0,2.879-1.9,1.771,1.771,0,0,0,4.5-1.023a1.747,1.747,0,0,0,1.59-.828,5.186,5.186,0,0,0,.543-2.609Z" transform="translate(-3754.445 -4882.943)" fill="#12263f"/>
    <path id="Trazado_905850" data-name="Trazado 905850" d="M8.078-4.852a6.61,6.61,0,0,1-.867,3.773A3.084,3.084,0,0,1,4.5.156,3.107,3.107,0,0,1,1.8-1.051,6.274,6.274,0,0,1,.9-4.656v-1.93a6.463,6.463,0,0,1,.867-3.727,3.108,3.108,0,0,1,2.719-1.219,3.136,3.136,0,0,1,2.7,1.176,6.237,6.237,0,0,1,.891,3.629ZM6.633-6.828A5.3,5.3,0,0,0,6.117-9.5a1.775,1.775,0,0,0-1.633-.84,1.751,1.751,0,0,0-1.617.836,5.171,5.171,0,0,0-.523,2.57v2.313A5.381,5.381,0,0,0,2.879-1.9,1.771,1.771,0,0,0,4.5-1.023a1.747,1.747,0,0,0,1.59-.828,5.186,5.186,0,0,0,.543-2.609Z" transform="translate(-3745.917 -4869.871)" fill="#12263f"/>
    <path id="Trazado_905851" data-name="Trazado 905851" d="M5.7,0H4.242V-9.633L1.328-8.562V-9.875L5.469-11.43H5.7Z" transform="translate(-3719.789 -4869.871)" fill="#12263f"/>
    <path id="Trazado_905852" data-name="Trazado 905852" d="M8.4,0H.945V-1.039L4.883-5.414A9.354,9.354,0,0,0,6.09-7.027a2.693,2.693,0,0,0,.332-1.285,2.041,2.041,0,0,0-.539-1.461,1.885,1.885,0,0,0-1.437-.57A2.232,2.232,0,0,0,2.77-9.73a2.343,2.343,0,0,0-.6,1.707H.727a3.355,3.355,0,0,1,1.012-2.539,3.751,3.751,0,0,1,2.707-.969,3.6,3.6,0,0,1,2.508.832,2.838,2.838,0,0,1,.922,2.215q0,1.68-2.141,4L2.688-1.18H8.4Z" transform="translate(-3693.661 -4869.871)" fill="#12263f"/>
    <path id="Trazado_905853" data-name="Trazado 905853" d="M3.047-6.391H4.133A2.387,2.387,0,0,0,5.742-6.93a1.8,1.8,0,0,0,.586-1.414,1.764,1.764,0,0,0-1.992-2,2.072,2.072,0,0,0-1.5.535,1.873,1.873,0,0,0-.559,1.418H.836a2.9,2.9,0,0,1,.988-2.246,3.6,3.6,0,0,1,2.512-.895,3.558,3.558,0,0,1,2.523.852,3.076,3.076,0,0,1,.914,2.367,2.5,2.5,0,0,1-.48,1.438A2.9,2.9,0,0,1,5.984-5.836a2.8,2.8,0,0,1,1.449.984,2.734,2.734,0,0,1,.512,1.68,3.1,3.1,0,0,1-1,2.43,3.745,3.745,0,0,1-2.6.9A3.844,3.844,0,0,1,1.738-.711,2.877,2.877,0,0,1,.734-3H2.188a1.859,1.859,0,0,0,.586,1.438,2.229,2.229,0,0,0,1.57.539,2.187,2.187,0,0,0,1.6-.547A2.108,2.108,0,0,0,6.5-3.141a1.912,1.912,0,0,0-.609-1.523,2.655,2.655,0,0,0-1.758-.547H3.047Z" transform="translate(-3667.533 -4869.871)" fill="#12263f"/>
    <path id="Trazado_905854" data-name="Trazado 905854" d="M7.047-3.82H8.625v1.18H7.047V0H5.594V-2.641H.414v-.852l5.094-7.883H7.047Zm-4.992,0H5.594V-9.4l-.172.313Z" transform="translate(-3641.405 -4869.871)" fill="#12263f"/>
    <path id="Trazado_905855" data-name="Trazado 905855" d="M1.609-5.7l.578-5.672H8.016v1.336h-4.6l-.344,3.1a3.671,3.671,0,0,1,1.9-.492A3.138,3.138,0,0,1,7.438-6.4a4.026,4.026,0,0,1,.914,2.777A3.886,3.886,0,0,1,7.4-.855,3.46,3.46,0,0,1,4.75.156,3.6,3.6,0,0,1,2.289-.68,3.337,3.337,0,0,1,1.2-2.992H2.57a2.3,2.3,0,0,0,.7,1.473,2.162,2.162,0,0,0,1.484.5,1.95,1.95,0,0,0,1.582-.687,2.874,2.874,0,0,0,.574-1.9,2.638,2.638,0,0,0-.621-1.832,2.113,2.113,0,0,0-1.652-.691,2.383,2.383,0,0,0-1.484.414l-.383.313Z" transform="translate(-3615.276 -4869.871)" fill="#12263f"/>
    <path id="Trazado_905856" data-name="Trazado 905856" d="M6.617-11.383v1.227H6.352a3.805,3.805,0,0,0-2.687,1A4.161,4.161,0,0,0,2.508-6.43,3.085,3.085,0,0,1,4.961-7.461,2.95,2.95,0,0,1,7.332-6.414a4.038,4.038,0,0,1,.887,2.7A4.025,4.025,0,0,1,7.262-.9,3.3,3.3,0,0,1,4.7.156,3.247,3.247,0,0,1,2.047-1.1a4.97,4.97,0,0,1-1.016-3.23v-.555a7.488,7.488,0,0,1,1.34-4.8,4.921,4.921,0,0,1,3.988-1.7Zm-1.9,5.125a2.306,2.306,0,0,0-1.367.445A2.32,2.32,0,0,0,2.484-4.7v.531A3.731,3.731,0,0,0,3.117-1.9,1.9,1.9,0,0,0,4.7-1.039,1.838,1.838,0,0,0,6.23-1.758a2.982,2.982,0,0,0,.559-1.883,2.983,2.983,0,0,0-.566-1.895A1.816,1.816,0,0,0,4.719-6.258Z" transform="translate(-3589.149 -4869.871)" fill="#12263f"/>
    <path id="Trazado_905858" data-name="Trazado 905858" d="M8.289-10.562,3.578,0H2.063l4.7-10.187H.6v-1.187H8.289Z" transform="translate(-3563.021 -4869.871)" fill="#12263f"/>
    <path id="Trazado_905859" data-name="Trazado 905859" d="M7.844-8.406a2.641,2.641,0,0,1-.449,1.516A3.057,3.057,0,0,1,6.18-5.852,3.26,3.26,0,0,1,7.59-4.734a2.811,2.811,0,0,1,.52,1.664,2.972,2.972,0,0,1-1,2.352A3.827,3.827,0,0,1,4.492.156,3.81,3.81,0,0,1,1.863-.723,2.986,2.986,0,0,1,.875-3.07a2.9,2.9,0,0,1,.5-1.664A3.136,3.136,0,0,1,2.773-5.859,2.981,2.981,0,0,1,1.578-6.9a2.679,2.679,0,0,1-.437-1.508,2.94,2.94,0,0,1,.922-2.281,3.458,3.458,0,0,1,2.43-.844,3.461,3.461,0,0,1,2.426.844A2.934,2.934,0,0,1,7.844-8.406ZM6.664-3.1a2.1,2.1,0,0,0-.605-1.555,2.147,2.147,0,0,0-1.582-.6,2.11,2.11,0,0,0-1.566.594A2.12,2.12,0,0,0,2.32-3.1a2.019,2.019,0,0,0,.574,1.523,2.2,2.2,0,0,0,1.6.555,2.2,2.2,0,0,0,1.594-.559A2.014,2.014,0,0,0,6.664-3.1ZM4.492-10.344a1.865,1.865,0,0,0-1.379.527,1.937,1.937,0,0,0-.527,1.434,1.928,1.928,0,0,0,.52,1.4,1.844,1.844,0,0,0,1.387.535A1.844,1.844,0,0,0,5.879-6.98a1.928,1.928,0,0,0,.52-1.4A1.929,1.929,0,0,0,5.859-9.8,1.839,1.839,0,0,0,4.492-10.344Z" transform="translate(-3536.893 -4869.871)" fill="#12263f"/>
    <path id="Trazado_905860" data-name="Trazado 905860" d="M6.484-5A3.536,3.536,0,0,1,5.4-4.133,2.936,2.936,0,0,1,4.023-3.8a3.031,3.031,0,0,1-1.715-.484A3.149,3.149,0,0,1,1.18-5.652a4.648,4.648,0,0,1-.4-1.941,4.735,4.735,0,0,1,.434-2.055,3.185,3.185,0,0,1,1.23-1.4A3.509,3.509,0,0,1,4.3-11.531a3.177,3.177,0,0,1,2.66,1.262,5.5,5.5,0,0,1,.973,3.441v.422q0,3.32-1.312,4.848A5.043,5.043,0,0,1,2.664.008H2.383V-1.219h.3a3.979,3.979,0,0,0,2.75-.932A4,4,0,0,0,6.484-5ZM4.258-5A2.232,2.232,0,0,0,5.6-5.445a2.625,2.625,0,0,0,.895-1.1v-.578a3.977,3.977,0,0,0-.617-2.312,1.842,1.842,0,0,0-1.562-.891,1.856,1.856,0,0,0-1.531.73A3.013,3.013,0,0,0,2.2-7.672a3.136,3.136,0,0,0,.559,1.918A1.769,1.769,0,0,0,4.258-5Z" transform="translate(-3510.764 -4869.871)" fill="#12263f"/>
    <path id="Trazado_905861" data-name="Trazado 905861" d="M5.7,0H4.242V-9.633L1.328-8.562V-9.875L5.469-11.43H5.7ZM17.063-4.852A6.61,6.61,0,0,1,16.2-1.078,3.084,3.084,0,0,1,13.484.156a3.107,3.107,0,0,1-2.7-1.207,6.274,6.274,0,0,1-.906-3.605v-1.93a6.463,6.463,0,0,1,.867-3.727,3.108,3.108,0,0,1,2.719-1.219,3.136,3.136,0,0,1,2.7,1.176,6.237,6.237,0,0,1,.891,3.629ZM15.617-6.828A5.3,5.3,0,0,0,15.1-9.5a1.775,1.775,0,0,0-1.633-.84,1.751,1.751,0,0,0-1.617.836,5.171,5.171,0,0,0-.523,2.57v2.313A5.381,5.381,0,0,0,11.863-1.9a1.771,1.771,0,0,0,1.621.879,1.747,1.747,0,0,0,1.59-.828,5.186,5.186,0,0,0,.543-2.609Z" transform="translate(-3489.132 -4869.871)" fill="#12263f"/>
    <path id="Trazado_905862" data-name="Trazado 905862" d="M5.7,0H4.242V-9.633L1.328-8.562V-9.875L5.469-11.43H5.7ZM14.68,0H13.227V-9.633l-2.914,1.07V-9.875l4.141-1.555h.227Z" transform="translate(-3463.004 -4869.871)" fill="#12263f"/>
    <path id="Trazado_905863" data-name="Trazado 905863" d="M5.7,0H4.242V-9.633L1.328-8.562V-9.875L5.469-11.43H5.7ZM17.383,0H9.93V-1.039l3.937-4.375a9.354,9.354,0,0,0,1.207-1.613,2.693,2.693,0,0,0,.332-1.285,2.041,2.041,0,0,0-.539-1.461,1.885,1.885,0,0,0-1.437-.57,2.232,2.232,0,0,0-1.676.613,2.343,2.343,0,0,0-.6,1.707H9.711a3.355,3.355,0,0,1,1.012-2.539,3.751,3.751,0,0,1,2.707-.969,3.6,3.6,0,0,1,2.508.832,2.838,2.838,0,0,1,.922,2.215q0,1.68-2.141,4l-3.047,3.3h5.711Z" transform="translate(-3436.947 -4869.957) rotate(0.323)" fill="#12263f"/>
    <path id="Trazado_905841" data-name="Trazado 905841" d="M10.063,0H8.555L2.828-8.766V0H1.32V-11.375H2.828L8.57-2.57v-8.8h1.492Zm7.656-.836a3.07,3.07,0,0,1-2.477.992,2.628,2.628,0,0,1-2.059-.785,3.4,3.4,0,0,1-.715-2.324v-5.5h1.445v5.461q0,1.922,1.563,1.922A2.163,2.163,0,0,0,17.68-2.3V-8.453h1.445V0H17.75ZM16.547-12H18.3L16.2-9.7l-1.164,0ZM22.68-8.453l.039.938a3.122,3.122,0,0,1,2.508-1.094A2.417,2.417,0,0,1,27.641-7.25a3.2,3.2,0,0,1,1.1-.984,3.242,3.242,0,0,1,1.6-.375q2.781,0,2.828,2.945V0H31.719V-5.578A1.941,1.941,0,0,0,31.3-6.934a1.823,1.823,0,0,0-1.391-.449,1.916,1.916,0,0,0-1.336.48,1.949,1.949,0,0,0-.617,1.293V0H26.508V-5.539a1.613,1.613,0,0,0-1.8-1.844,1.934,1.934,0,0,0-1.945,1.211V0H21.313V-8.453ZM38.852.156a3.693,3.693,0,0,1-2.8-1.129,4.19,4.19,0,0,1-1.078-3.02v-.266a5.073,5.073,0,0,1,.48-2.246A3.748,3.748,0,0,1,36.8-8.051a3.378,3.378,0,0,1,1.871-.559,3.166,3.166,0,0,1,2.563,1.086,4.7,4.7,0,0,1,.914,3.109v.6H36.422a3,3,0,0,0,.73,2.02,2.3,2.3,0,0,0,1.777.77,2.517,2.517,0,0,0,1.3-.312,3.259,3.259,0,0,0,.93-.828l.883.688A3.55,3.55,0,0,1,38.852.156Zm-.18-7.578a1.928,1.928,0,0,0-1.469.637A3.1,3.1,0,0,0,36.469-5H40.7v-.109a2.753,2.753,0,0,0-.594-1.707A1.815,1.815,0,0,0,38.672-7.422Zm9.234.266a4.331,4.331,0,0,0-.711-.055A1.9,1.9,0,0,0,45.266-6V0H43.82V-8.453h1.406l.023.977a2.251,2.251,0,0,1,2.016-1.133,1.477,1.477,0,0,1,.641.109ZM48.551-4.3a4.993,4.993,0,0,1,.488-2.234A3.643,3.643,0,0,1,50.4-8.07a3.7,3.7,0,0,1,1.988-.539,3.565,3.565,0,0,1,2.793,1.2,4.6,4.6,0,0,1,1.066,3.18v.1a5.036,5.036,0,0,1-.473,2.215A3.589,3.589,0,0,1,54.422-.391,3.743,3.743,0,0,1,52.4.156a3.556,3.556,0,0,1-2.785-1.2A4.575,4.575,0,0,1,48.551-4.2ZM50-4.133a3.616,3.616,0,0,0,.652,2.258,2.088,2.088,0,0,0,1.746.852,2.075,2.075,0,0,0,1.75-.863A3.955,3.955,0,0,0,54.8-4.3a3.61,3.61,0,0,0-.66-2.254,2.1,2.1,0,0,0-1.754-.863,2.075,2.075,0,0,0-1.727.852A3.925,3.925,0,0,0,50-4.133ZM61.668-4.3a4.952,4.952,0,0,1,.922-3.129A2.915,2.915,0,0,1,65-8.609a2.932,2.932,0,0,1,2.352,1.016V-12H68.8V0H67.473L67.4-.906A2.943,2.943,0,0,1,64.989.156a2.887,2.887,0,0,1-2.395-1.2,5.008,5.008,0,0,1-.926-3.141Zm1.445.164a3.749,3.749,0,0,0,.594,2.25,1.92,1.92,0,0,0,1.641.813A2.109,2.109,0,0,0,67.356-2.3V-6.187a2.125,2.125,0,0,0-1.992-1.2,1.929,1.929,0,0,0-1.656.82A4.128,4.128,0,0,0,63.114-4.133ZM74.551.156a3.693,3.693,0,0,1-2.8-1.129,4.19,4.19,0,0,1-1.078-3.02v-.266a5.073,5.073,0,0,1,.48-2.246A3.748,3.748,0,0,1,72.5-8.051a3.378,3.378,0,0,1,1.871-.559,3.166,3.166,0,0,1,2.563,1.086,4.7,4.7,0,0,1,.914,3.109v.6H72.122a3,3,0,0,0,.73,2.02,2.3,2.3,0,0,0,1.777.77,2.517,2.517,0,0,0,1.3-.312,3.259,3.259,0,0,0,.93-.828l.883.688A3.55,3.55,0,0,1,74.551.156Zm-.18-7.578a1.928,1.928,0,0,0-1.469.637A3.1,3.1,0,0,0,72.169-5H76.4v-.109a2.753,2.753,0,0,0-.594-1.707A1.815,1.815,0,0,0,74.372-7.422Zm16.25,3.289a5.062,5.062,0,0,1-.883,3.109A2.829,2.829,0,0,1,87.348.156,3.1,3.1,0,0,1,84.926-.82V3.25H83.481v-11.7H84.8l.07.938a2.977,2.977,0,0,1,2.453-1.094,2.882,2.882,0,0,1,2.41,1.148,5.117,5.117,0,0,1,.887,3.2ZM89.176-4.3a3.735,3.735,0,0,0-.609-2.258A1.963,1.963,0,0,0,86.9-7.383a2.125,2.125,0,0,0-1.969,1.164V-2.18a2.129,2.129,0,0,0,1.984,1.156,1.954,1.954,0,0,0,1.652-.824A4.077,4.077,0,0,0,89.176-4.3ZM95.965.156a3.693,3.693,0,0,1-2.8-1.129,4.19,4.19,0,0,1-1.078-3.02v-.266a5.073,5.073,0,0,1,.48-2.246,3.748,3.748,0,0,1,1.344-1.547,3.378,3.378,0,0,1,1.871-.559,3.166,3.166,0,0,1,2.563,1.086,4.7,4.7,0,0,1,.914,3.109v.6H93.536a3,3,0,0,0,.73,2.02,2.3,2.3,0,0,0,1.777.77,2.517,2.517,0,0,0,1.3-.312,3.259,3.259,0,0,0,.93-.828l.883.688A3.55,3.55,0,0,1,95.965.156Zm-.18-7.578a1.928,1.928,0,0,0-1.469.637A3.1,3.1,0,0,0,93.583-5h4.234v-.109a2.753,2.753,0,0,0-.594-1.707A1.815,1.815,0,0,0,95.786-7.422Zm9.234.266a4.331,4.331,0,0,0-.711-.055A1.9,1.9,0,0,0,102.379-6V0h-1.445V-8.453h1.406l.023.977a2.251,2.251,0,0,1,2.016-1.133,1.477,1.477,0,0,1,.641.109Zm6.25,4.914a1.064,1.064,0,0,0-.441-.91,4.249,4.249,0,0,0-1.539-.559,7.277,7.277,0,0,1-1.742-.562,2.479,2.479,0,0,1-.953-.781,1.869,1.869,0,0,1-.309-1.078,2.193,2.193,0,0,1,.879-1.758,3.432,3.432,0,0,1,2.246-.719,3.532,3.532,0,0,1,2.332.742,2.357,2.357,0,0,1,.895,1.9h-1.453a1.3,1.3,0,0,0-.5-1.023,1.888,1.888,0,0,0-1.27-.43,1.976,1.976,0,0,0-1.234.344,1.082,1.082,0,0,0-.445.9.877.877,0,0,0,.414.789,5.1,5.1,0,0,0,1.5.508A7.8,7.8,0,0,1,111.4-4.3a2.558,2.558,0,0,1,1,.809,1.988,1.988,0,0,1,.324,1.152,2.163,2.163,0,0,1-.906,1.816,3.8,3.8,0,0,1-2.352.684,4.257,4.257,0,0,1-1.8-.359,2.922,2.922,0,0,1-1.223-1A2.42,2.42,0,0,1,106-2.6h1.445a1.5,1.5,0,0,0,.582,1.152,2.258,2.258,0,0,0,1.434.426,2.331,2.331,0,0,0,1.316-.332A1.02,1.02,0,0,0,111.27-2.242ZM114.215-4.3a4.993,4.993,0,0,1,.488-2.234,3.643,3.643,0,0,1,1.359-1.531,3.7,3.7,0,0,1,1.988-.539,3.565,3.565,0,0,1,2.793,1.2,4.6,4.6,0,0,1,1.066,3.18v.1a5.036,5.036,0,0,1-.473,2.215,3.589,3.589,0,0,1-1.352,1.527,3.743,3.743,0,0,1-2.02.547,3.556,3.556,0,0,1-2.785-1.2A4.575,4.575,0,0,1,114.215-4.2Zm1.453.172a3.616,3.616,0,0,0,.652,2.258,2.088,2.088,0,0,0,1.746.852,2.075,2.075,0,0,0,1.75-.863,3.955,3.955,0,0,0,.648-2.418,3.61,3.61,0,0,0-.66-2.254,2.1,2.1,0,0,0-1.754-.863,2.075,2.075,0,0,0-1.727.852A3.925,3.925,0,0,0,115.669-4.133Zm9.422-4.32.047,1.063a3.08,3.08,0,0,1,2.531-1.219q2.68,0,2.7,3.023V0h-1.445V-5.594a1.946,1.946,0,0,0-.418-1.352,1.675,1.675,0,0,0-1.277-.437A2.086,2.086,0,0,0,126-7.008a2.546,2.546,0,0,0-.828.984V0h-1.445V-8.453ZM137.77,0a3.036,3.036,0,0,1-.2-.891A3.225,3.225,0,0,1,135.161.156a2.984,2.984,0,0,1-2.051-.707,2.287,2.287,0,0,1-.8-1.793,2.39,2.39,0,0,1,1-2.051,4.733,4.733,0,0,1,2.824-.73h1.406v-.664A1.623,1.623,0,0,0,137.09-7a1.821,1.821,0,0,0-1.336-.449,2.107,2.107,0,0,0-1.3.391,1.151,1.151,0,0,0-.523.945h-1.453a2,2,0,0,1,.449-1.223,3.066,3.066,0,0,1,1.219-.934,4.1,4.1,0,0,1,1.691-.344,3.342,3.342,0,0,1,2.289.73,2.635,2.635,0,0,1,.859,2.012v3.891a4.757,4.757,0,0,0,.3,1.852V0Zm-2.4-1.1a2.54,2.54,0,0,0,1.289-.352,2.127,2.127,0,0,0,.883-.914V-4.1h-1.133q-2.656,0-2.656,1.555a1.316,1.316,0,0,0,.453,1.063A1.742,1.742,0,0,0,135.372-1.1Zm10.8-1.141a1.064,1.064,0,0,0-.441-.91,4.249,4.249,0,0,0-1.539-.559,7.277,7.277,0,0,1-1.742-.562,2.479,2.479,0,0,1-.953-.781,1.869,1.869,0,0,1-.309-1.078,2.193,2.193,0,0,1,.879-1.758,3.432,3.432,0,0,1,2.246-.719,3.532,3.532,0,0,1,2.332.742,2.357,2.357,0,0,1,.895,1.9H146.09a1.3,1.3,0,0,0-.5-1.023,1.888,1.888,0,0,0-1.27-.43,1.976,1.976,0,0,0-1.234.344,1.082,1.082,0,0,0-.445.9.877.877,0,0,0,.414.789,5.1,5.1,0,0,0,1.5.508A7.8,7.8,0,0,1,146.3-4.3a2.558,2.558,0,0,1,1,.809,1.988,1.988,0,0,1,.324,1.152,2.163,2.163,0,0,1-.906,1.816,3.8,3.8,0,0,1-2.352.684,4.257,4.257,0,0,1-1.8-.359,2.922,2.922,0,0,1-1.223-1A2.42,2.42,0,0,1,140.9-2.6h1.445a1.5,1.5,0,0,0,.582,1.152,2.258,2.258,0,0,0,1.434.426,2.331,2.331,0,0,0,1.316-.332A1.02,1.02,0,0,0,146.176-2.242Z" transform="translate(-3788.569 -4942.381) rotate(-90)" fill="#12263f"/>
    <path id="Trazado_905857" data-name="Trazado 905857" d="M3.258-11.375,6.977-2.094,10.7-11.375h1.945V0h-1.5V-4.43l.141-4.781L7.547,0H6.4L2.672-9.187,2.82-4.43V0H1.32V-11.375ZM18.57.156a3.693,3.693,0,0,1-2.8-1.129A4.19,4.19,0,0,1,14.7-3.992v-.266a5.073,5.073,0,0,1,.48-2.246A3.748,3.748,0,0,1,16.52-8.051a3.378,3.378,0,0,1,1.871-.559,3.166,3.166,0,0,1,2.563,1.086,4.7,4.7,0,0,1,.914,3.109v.6H16.141a3,3,0,0,0,.73,2.02,2.3,2.3,0,0,0,1.777.77,2.517,2.517,0,0,0,1.3-.312,3.259,3.259,0,0,0,.93-.828l.883.688A3.55,3.55,0,0,1,18.57.156Zm-.18-7.578a1.928,1.928,0,0,0-1.469.637A3.1,3.1,0,0,0,16.188-5h4.234v-.109a2.753,2.753,0,0,0-.594-1.707A1.815,1.815,0,0,0,18.391-7.422Zm10.07,5.18a1.064,1.064,0,0,0-.441-.91,4.249,4.249,0,0,0-1.539-.559,7.277,7.277,0,0,1-1.742-.562,2.479,2.479,0,0,1-.953-.781,1.869,1.869,0,0,1-.309-1.078,2.193,2.193,0,0,1,.879-1.758A3.432,3.432,0,0,1,26.6-8.609a3.532,3.532,0,0,1,2.332.742,2.357,2.357,0,0,1,.895,1.9H28.375a1.3,1.3,0,0,0-.5-1.023,1.888,1.888,0,0,0-1.27-.43,1.976,1.976,0,0,0-1.234.344,1.082,1.082,0,0,0-.445.9.877.877,0,0,0,.414.789,5.1,5.1,0,0,0,1.5.508,7.8,7.8,0,0,1,1.754.578,2.558,2.558,0,0,1,1,.809,1.988,1.988,0,0,1,.324,1.152A2.163,2.163,0,0,1,29-.527a3.8,3.8,0,0,1-2.352.684,4.257,4.257,0,0,1-1.8-.359,2.922,2.922,0,0,1-1.223-1A2.42,2.42,0,0,1,23.188-2.6h1.445a1.5,1.5,0,0,0,.582,1.152,2.258,2.258,0,0,0,1.434.426,2.331,2.331,0,0,0,1.316-.332A1.02,1.02,0,0,0,28.461-2.242ZM35.3.156A3.693,3.693,0,0,1,32.5-.973a4.19,4.19,0,0,1-1.078-3.02v-.266A5.073,5.073,0,0,1,31.9-6.5a3.748,3.748,0,0,1,1.344-1.547,3.378,3.378,0,0,1,1.871-.559A3.166,3.166,0,0,1,37.68-7.523a4.7,4.7,0,0,1,.914,3.109v.6H32.867a3,3,0,0,0,.73,2.02,2.3,2.3,0,0,0,1.777.77,2.517,2.517,0,0,0,1.3-.312,3.259,3.259,0,0,0,.93-.828l.883.688A3.55,3.55,0,0,1,35.3.156Zm-.18-7.578a1.928,1.928,0,0,0-1.469.637A3.1,3.1,0,0,0,32.914-5h4.234v-.109a2.753,2.753,0,0,0-.594-1.707A1.815,1.815,0,0,0,35.117-7.422Zm10.07,5.18a1.064,1.064,0,0,0-.441-.91,4.249,4.249,0,0,0-1.539-.559,7.277,7.277,0,0,1-1.742-.562,2.479,2.479,0,0,1-.953-.781A1.869,1.869,0,0,1,40.2-6.133a2.193,2.193,0,0,1,.879-1.758,3.432,3.432,0,0,1,2.246-.719,3.532,3.532,0,0,1,2.332.742,2.357,2.357,0,0,1,.895,1.9H45.1a1.3,1.3,0,0,0-.5-1.023,1.888,1.888,0,0,0-1.27-.43,1.976,1.976,0,0,0-1.234.344,1.082,1.082,0,0,0-.445.9.877.877,0,0,0,.414.789,5.1,5.1,0,0,0,1.5.508,7.8,7.8,0,0,1,1.754.578,2.558,2.558,0,0,1,1,.809,1.988,1.988,0,0,1,.324,1.152,2.163,2.163,0,0,1-.906,1.816,3.8,3.8,0,0,1-2.352.684,4.257,4.257,0,0,1-1.8-.359,2.922,2.922,0,0,1-1.223-1A2.42,2.42,0,0,1,39.914-2.6h1.445a1.5,1.5,0,0,0,.582,1.152,2.258,2.258,0,0,0,1.434.426,2.331,2.331,0,0,0,1.316-.332A1.02,1.02,0,0,0,45.188-2.242Z" transform="translate(-3615.983 -4848.776)" fill="#12263f"/>
    <g id="Grupo_1117669" data-name="Grupo 1117669" transform="translate(-3810.846 -5204.805)">
      <g id="Grupo_1117668" data-name="Grupo 1117668" clip-path="url(#clip-path)">
        <path id="Trazado_878314" data-name="Trazado 878314" d="M86.62,385.869a6,6,0,1,0-6,6,6,6,0,0,0,6-6" fill="#727997"/>
      </g>
    </g>
    <path id="Trazado_905867" data-name="Trazado 905867" d="M8.4,0H.945V-1.039L4.883-5.414A9.354,9.354,0,0,0,6.09-7.027a2.693,2.693,0,0,0,.332-1.285,2.041,2.041,0,0,0-.539-1.461,1.885,1.885,0,0,0-1.437-.57A2.232,2.232,0,0,0,2.77-9.73a2.343,2.343,0,0,0-.6,1.707H.727a3.355,3.355,0,0,1,1.012-2.539,3.751,3.751,0,0,1,2.707-.969,3.6,3.6,0,0,1,2.508.832,2.838,2.838,0,0,1,.922,2.215q0,1.68-2.141,4L2.688-1.18H8.4Zm8.664-4.852A6.61,6.61,0,0,1,16.2-1.078,3.084,3.084,0,0,1,13.484.156a3.107,3.107,0,0,1-2.7-1.207,6.274,6.274,0,0,1-.906-3.605v-1.93a6.463,6.463,0,0,1,.867-3.727,3.108,3.108,0,0,1,2.719-1.219,3.136,3.136,0,0,1,2.7,1.176,6.237,6.237,0,0,1,.891,3.629ZM15.617-6.828A5.3,5.3,0,0,0,15.1-9.5a1.775,1.775,0,0,0-1.633-.84,1.751,1.751,0,0,0-1.617.836,5.171,5.171,0,0,0-.523,2.57v2.313A5.381,5.381,0,0,0,11.863-1.9a1.771,1.771,0,0,0,1.621.879,1.747,1.747,0,0,0,1.59-.828,5.186,5.186,0,0,0,.543-2.609ZM23.664,0H22.211V-9.633L19.3-8.562V-9.875l4.141-1.555h.227Zm4.9-5.7.578-5.672h5.828v1.336h-4.6l-.344,3.1a3.671,3.671,0,0,1,1.9-.492A3.138,3.138,0,0,1,34.391-6.4,4.026,4.026,0,0,1,35.3-3.625a3.886,3.886,0,0,1-.949,2.77A3.46,3.46,0,0,1,31.7.156,3.6,3.6,0,0,1,29.242-.68a3.337,3.337,0,0,1-1.086-2.312h1.367a2.3,2.3,0,0,0,.7,1.473,2.162,2.162,0,0,0,1.484.5,1.95,1.95,0,0,0,1.582-.687,2.874,2.874,0,0,0,.574-1.9,2.638,2.638,0,0,0-.621-1.832,2.113,2.113,0,0,0-1.652-.691,2.383,2.383,0,0,0-1.484.414l-.383.313Z" transform="translate(-3714.264 -4814.259)" fill="#12263f"/>
    <g id="Grupo_1117671" data-name="Grupo 1117671" transform="translate(-3810.846 -5204.805)">
      <g id="Grupo_1117670" data-name="Grupo 1117670" clip-path="url(#clip-path)">
        <line id="Línea_3327" data-name="Línea 3327" x2="26" transform="translate(67.62 385.869)" fill="none" stroke="#727997" stroke-miterlimit="10" stroke-width="2"/>
        <path id="Trazado_878315" data-name="Trazado 878315" d="M157.618,386.213a6,6,0,1,0-6,6,6,6,0,0,0,6-6" fill="#7d3a1b"/>
      </g>
    </g>
    <path id="Trazado_905866" data-name="Trazado 905866" d="M8.4,0H.945V-1.039L4.883-5.414A9.354,9.354,0,0,0,6.09-7.027a2.693,2.693,0,0,0,.332-1.285,2.041,2.041,0,0,0-.539-1.461,1.885,1.885,0,0,0-1.437-.57A2.232,2.232,0,0,0,2.77-9.73a2.343,2.343,0,0,0-.6,1.707H.727a3.355,3.355,0,0,1,1.012-2.539,3.751,3.751,0,0,1,2.707-.969,3.6,3.6,0,0,1,2.508.832,2.838,2.838,0,0,1,.922,2.215q0,1.68-2.141,4L2.688-1.18H8.4Zm8.664-4.852A6.61,6.61,0,0,1,16.2-1.078,3.084,3.084,0,0,1,13.484.156a3.107,3.107,0,0,1-2.7-1.207,6.274,6.274,0,0,1-.906-3.605v-1.93a6.463,6.463,0,0,1,.867-3.727,3.108,3.108,0,0,1,2.719-1.219,3.136,3.136,0,0,1,2.7,1.176,6.237,6.237,0,0,1,.891,3.629ZM15.617-6.828A5.3,5.3,0,0,0,15.1-9.5a1.775,1.775,0,0,0-1.633-.84,1.751,1.751,0,0,0-1.617.836,5.171,5.171,0,0,0-.523,2.57v2.313A5.381,5.381,0,0,0,11.863-1.9a1.771,1.771,0,0,0,1.621.879,1.747,1.747,0,0,0,1.59-.828,5.186,5.186,0,0,0,.543-2.609ZM23.664,0H22.211V-9.633L19.3-8.562V-9.875l4.141-1.555h.227ZM33.57-11.383v1.227H33.3a3.805,3.805,0,0,0-2.687,1A4.161,4.161,0,0,0,29.461-6.43a3.085,3.085,0,0,1,2.453-1.031,2.95,2.95,0,0,1,2.371,1.047,4.038,4.038,0,0,1,.887,2.7A4.025,4.025,0,0,1,34.215-.9,3.3,3.3,0,0,1,31.648.156,3.247,3.247,0,0,1,29-1.1a4.97,4.97,0,0,1-1.016-3.23v-.555a7.488,7.488,0,0,1,1.34-4.8,4.921,4.921,0,0,1,3.988-1.7Zm-1.9,5.125a2.306,2.306,0,0,0-1.367.445A2.32,2.32,0,0,0,29.438-4.7v.531A3.731,3.731,0,0,0,30.07-1.9a1.9,1.9,0,0,0,1.578.859,1.838,1.838,0,0,0,1.535-.719,2.982,2.982,0,0,0,.559-1.883,2.983,2.983,0,0,0-.566-1.895A1.816,1.816,0,0,0,31.672-6.258Z" transform="translate(-3644.509 -4814.26)" fill="#12263f"/>
    <g id="Grupo_1117673" data-name="Grupo 1117673" transform="translate(-3810.846 -5204.805)">
      <g id="Grupo_1117672" data-name="Grupo 1117672" clip-path="url(#clip-path)">
        <line id="Línea_3328" data-name="Línea 3328" x2="26" transform="translate(138.618 386.213)" fill="none" stroke="#7d3a1b" stroke-miterlimit="10" stroke-width="2"/>
        <path id="Trazado_878316" data-name="Trazado 878316" d="M228.744,385.868a6,6,0,1,0-6,6,6,6,0,0,0,6-6" fill="#ffb937"/>
      </g>
    </g>
    <path id="Trazado_905865" data-name="Trazado 905865" d="M8.4,0H.945V-1.039L4.883-5.414A9.354,9.354,0,0,0,6.09-7.027a2.693,2.693,0,0,0,.332-1.285,2.041,2.041,0,0,0-.539-1.461,1.885,1.885,0,0,0-1.437-.57A2.232,2.232,0,0,0,2.77-9.73a2.343,2.343,0,0,0-.6,1.707H.727a3.355,3.355,0,0,1,1.012-2.539,3.751,3.751,0,0,1,2.707-.969,3.6,3.6,0,0,1,2.508.832,2.838,2.838,0,0,1,.922,2.215q0,1.68-2.141,4L2.688-1.18H8.4Zm8.664-4.852A6.61,6.61,0,0,1,16.2-1.078,3.084,3.084,0,0,1,13.484.156a3.107,3.107,0,0,1-2.7-1.207,6.274,6.274,0,0,1-.906-3.605v-1.93a6.463,6.463,0,0,1,.867-3.727,3.108,3.108,0,0,1,2.719-1.219,3.136,3.136,0,0,1,2.7,1.176,6.237,6.237,0,0,1,.891,3.629ZM15.617-6.828A5.3,5.3,0,0,0,15.1-9.5a1.775,1.775,0,0,0-1.633-.84,1.751,1.751,0,0,0-1.617.836,5.171,5.171,0,0,0-.523,2.57v2.313A5.381,5.381,0,0,0,11.863-1.9a1.771,1.771,0,0,0,1.621.879,1.747,1.747,0,0,0,1.59-.828,5.186,5.186,0,0,0,.543-2.609ZM23.664,0H22.211V-9.633L19.3-8.562V-9.875l4.141-1.555h.227ZM35.242-10.562,30.531,0H29.016l4.7-10.187H27.555v-1.187h7.688Z" transform="translate(-3574.882 -4814.261)" fill="#12263f"/>
    <g id="Grupo_1117675" data-name="Grupo 1117675" transform="translate(-3810.846 -5204.805)">
      <g id="Grupo_1117674" data-name="Grupo 1117674" clip-path="url(#clip-path)">
        <line id="Línea_3329" data-name="Línea 3329" x2="26" transform="translate(209.744 386.213)" fill="none" stroke="#ffb937" stroke-miterlimit="10" stroke-width="2"/>
        <path id="Trazado_878317" data-name="Trazado 878317" d="M298.621,386.214a6,6,0,1,0-6,6,6,6,0,0,0,6-6" fill="#09614d"/>
      </g>
    </g>
    <path id="Trazado_905864" data-name="Trazado 905864" d="M8.4,0H.945V-1.039L4.883-5.414A9.354,9.354,0,0,0,6.09-7.027a2.693,2.693,0,0,0,.332-1.285,2.041,2.041,0,0,0-.539-1.461,1.885,1.885,0,0,0-1.437-.57A2.232,2.232,0,0,0,2.77-9.73a2.343,2.343,0,0,0-.6,1.707H.727a3.355,3.355,0,0,1,1.012-2.539,3.751,3.751,0,0,1,2.707-.969,3.6,3.6,0,0,1,2.508.832,2.838,2.838,0,0,1,.922,2.215q0,1.68-2.141,4L2.688-1.18H8.4Zm8.664-4.852A6.61,6.61,0,0,1,16.2-1.078,3.084,3.084,0,0,1,13.484.156a3.107,3.107,0,0,1-2.7-1.207,6.274,6.274,0,0,1-.906-3.605v-1.93a6.463,6.463,0,0,1,.867-3.727,3.108,3.108,0,0,1,2.719-1.219,3.136,3.136,0,0,1,2.7,1.176,6.237,6.237,0,0,1,.891,3.629ZM15.617-6.828A5.3,5.3,0,0,0,15.1-9.5a1.775,1.775,0,0,0-1.633-.84,1.751,1.751,0,0,0-1.617.836,5.171,5.171,0,0,0-.523,2.57v2.313A5.381,5.381,0,0,0,11.863-1.9a1.771,1.771,0,0,0,1.621.879,1.747,1.747,0,0,0,1.59-.828,5.186,5.186,0,0,0,.543-2.609ZM23.664,0H22.211V-9.633L19.3-8.562V-9.875l4.141-1.555h.227ZM34.8-8.406a2.641,2.641,0,0,1-.449,1.516,3.057,3.057,0,0,1-1.215,1.039,3.26,3.26,0,0,1,1.41,1.117,2.811,2.811,0,0,1,.52,1.664,2.972,2.972,0,0,1-1,2.352,3.827,3.827,0,0,1-2.621.875,3.81,3.81,0,0,1-2.629-.879,2.986,2.986,0,0,1-.988-2.348,2.9,2.9,0,0,1,.5-1.664,3.136,3.136,0,0,1,1.395-1.125,2.981,2.981,0,0,1-1.2-1.039,2.679,2.679,0,0,1-.437-1.508,2.94,2.94,0,0,1,.922-2.281,3.458,3.458,0,0,1,2.43-.844,3.461,3.461,0,0,1,2.426.844A2.934,2.934,0,0,1,34.8-8.406Zm-1.18,5.3a2.1,2.1,0,0,0-.605-1.555,2.147,2.147,0,0,0-1.582-.6,2.11,2.11,0,0,0-1.566.594,2.12,2.12,0,0,0-.59,1.563,2.019,2.019,0,0,0,.574,1.523,2.2,2.2,0,0,0,1.6.555,2.2,2.2,0,0,0,1.594-.559A2.014,2.014,0,0,0,33.617-3.1Zm-2.172-7.242a1.865,1.865,0,0,0-1.379.527,1.937,1.937,0,0,0-.527,1.434,1.928,1.928,0,0,0,.52,1.4,1.844,1.844,0,0,0,1.387.535,1.844,1.844,0,0,0,1.387-.535,1.928,1.928,0,0,0,.52-1.4A1.929,1.929,0,0,0,32.813-9.8,1.839,1.839,0,0,0,31.445-10.344Z" transform="translate(-3504.006 -4814.26)" fill="#12263f"/>
    <g id="Grupo_1117677" data-name="Grupo 1117677" transform="translate(-3810.846 -5204.805)">
      <g id="Grupo_1117676" data-name="Grupo 1117676" clip-path="url(#clip-path)">
        <line id="Línea_3330" data-name="Línea 3330" x2="26" transform="translate(279.621 386.214)" fill="none" stroke="#09614d" stroke-miterlimit="10" stroke-width="2"/>
        <path id="Trazado_878318" data-name="Trazado 878318" d="M126.153,216.053a4.5,4.5,0,1,0-4.315,4.678,4.5,4.5,0,0,0,4.315-4.678" fill="#ffb937"/>
        <path id="Trazado_878319" data-name="Trazado 878319" d="M152.926,284.584a4.5,4.5,0,1,0-4.315,4.678,4.5,4.5,0,0,0,4.315-4.678" fill="#ffb937"/>
        <path id="Trazado_878320" data-name="Trazado 878320" d="M179.079,212.427a4.5,4.5,0,1,0-4.5,4.5,4.5,4.5,0,0,0,4.5-4.5" fill="#09614d"/>
      </g>
    </g>
  </g>
</svg>
