<svg xmlns="http://www.w3.org/2000/svg" xmlns:xlink="http://www.w3.org/1999/xlink" width="400" height="381" viewBox="0 0 400 381">
  <defs>
    <clipPath id="clip-path">
      <rect id="Rectángulo_408568" data-name="Rectángulo 408568" width="400" height="381" fill="none"/>
    </clipPath>
  </defs>
  <g id="Grupo_1118372" data-name="Grupo 1118372" transform="translate(1509 5965)">
    <path id="Trazado_878264" data-name="Trazado 878264" d="M0,0V381H400V0Z" transform="translate(-1509 -5965)" fill="#feebcf"/>
    <g id="Grupo_1117659" data-name="Grupo 1117659" transform="translate(-1509 -5965)">
      <g id="Grupo_1117658" data-name="Grupo 1117658" clip-path="url(#clip-path)">
        <path id="Trazado_878265" data-name="Trazado 878265" d="M18.078,64h98.363a5.352,5.352,0,0,0-3.942-9.949,8.275,8.275,0,0,0-3.076-3.486c-2.82-1.727-6.629-1.5-9.876.483.195-.742,1.514-6.1-1.877-10.7a12.942,12.942,0,0,0-13.7-4.505c-7.822-9.691-19.8-12.538-27.782-8.072-6.114,3.42-8.108,10.14-8.635,12.2a9.719,9.719,0,0,0-8.071,2.065,9.128,9.128,0,0,0-2.816,5.069,10.459,10.459,0,0,0-10.324-4.318,10.631,10.631,0,0,0-8.26,10.7,5.316,5.316,0,0,0,0,10.512" fill="#fcfcfa"/>
        <line id="Línea_3294" data-name="Línea 3294" x2="291.987" transform="translate(91.711 290.624)" fill="none" stroke="#7d3a1b" stroke-miterlimit="10" stroke-width="1"/>
        <line id="Línea_3295" data-name="Línea 3295" x2="291.987" transform="translate(91.711 260.724)" fill="none" stroke="#7d3a1b" stroke-miterlimit="10" stroke-width="1"/>
        <line id="Línea_3296" data-name="Línea 3296" x2="291.987" transform="translate(91.711 230.824)" fill="none" stroke="#7d3a1b" stroke-miterlimit="10" stroke-width="1"/>
        <line id="Línea_3297" data-name="Línea 3297" x2="291.987" transform="translate(91.711 200.924)" fill="none" stroke="#7d3a1b" stroke-miterlimit="10" stroke-width="1"/>
        <line id="Línea_3298" data-name="Línea 3298" x2="291.987" transform="translate(91.711 171.025)" fill="none" stroke="#7d3a1b" stroke-miterlimit="10" stroke-width="1"/>
        <line id="Línea_3299" data-name="Línea 3299" x2="291.987" transform="translate(91.711 141.125)" fill="none" stroke="#7d3a1b" stroke-miterlimit="10" stroke-width="1"/>
        <line id="Línea_3300" data-name="Línea 3300" x2="291.987" transform="translate(91.711 111.225)" fill="none" stroke="#7d3a1b" stroke-miterlimit="10" stroke-width="1"/>
        <line id="Línea_3301" data-name="Línea 3301" x2="291.987" transform="translate(91.711 81.325)" fill="none" stroke="#7d3a1b" stroke-miterlimit="10" stroke-width="1"/>
        <line id="Línea_3302" data-name="Línea 3302" x2="291.987" transform="translate(91.711 51.425)" fill="none" stroke="#7d3a1b" stroke-miterlimit="10" stroke-width="1"/>
        <rect id="Rectángulo_408565" data-name="Rectángulo 408565" width="47" height="131.958" transform="translate(113.698 188.558)" fill="#ffb937"/>
        <rect id="Rectángulo_408566" data-name="Rectángulo 408566" width="47" height="191.562" transform="translate(219.338 128.527)" fill="#ffb937"/>
        <rect id="Rectángulo_408567" data-name="Rectángulo 408567" width="47" height="249.562" transform="translate(319.338 70.527)" fill="#ffb937"/>
      </g>
    </g>
    <path id="Trazado_905799" data-name="Trazado 905799" d="M5.7,0H4.242V-9.633L1.328-8.562V-9.875L5.469-11.43H5.7ZM17.383,0H9.93V-1.039l3.938-4.375a9.354,9.354,0,0,0,1.207-1.613,2.693,2.693,0,0,0,.332-1.285,2.041,2.041,0,0,0-.539-1.461,1.885,1.885,0,0,0-1.437-.57,2.232,2.232,0,0,0-1.676.613,2.343,2.343,0,0,0-.6,1.707H9.711a3.355,3.355,0,0,1,1.012-2.539,3.751,3.751,0,0,1,2.707-.969,3.6,3.6,0,0,1,2.508.832,2.838,2.838,0,0,1,.922,2.215q0,1.68-2.141,4l-3.047,3.3h5.711Zm8.664-4.852a6.61,6.61,0,0,1-.867,3.773A3.084,3.084,0,0,1,22.469.156a3.107,3.107,0,0,1-2.7-1.207,6.274,6.274,0,0,1-.906-3.605v-1.93a6.463,6.463,0,0,1,.867-3.727,3.108,3.108,0,0,1,2.719-1.219,3.136,3.136,0,0,1,2.7,1.176,6.237,6.237,0,0,1,.891,3.629ZM24.6-6.828A5.3,5.3,0,0,0,24.086-9.5a1.775,1.775,0,0,0-1.633-.84,1.751,1.751,0,0,0-1.617.836,5.171,5.171,0,0,0-.523,2.57v2.313A5.381,5.381,0,0,0,20.848-1.9a1.771,1.771,0,0,0,1.621.879,1.747,1.747,0,0,0,1.59-.828A5.186,5.186,0,0,0,24.6-4.461Zm10.43,1.977a6.61,6.61,0,0,1-.867,3.773A3.084,3.084,0,0,1,31.453.156a3.107,3.107,0,0,1-2.7-1.207,6.274,6.274,0,0,1-.906-3.605v-1.93a6.463,6.463,0,0,1,.867-3.727,3.108,3.108,0,0,1,2.719-1.219,3.136,3.136,0,0,1,2.7,1.176,6.237,6.237,0,0,1,.891,3.629ZM33.586-6.828A5.3,5.3,0,0,0,33.07-9.5a1.775,1.775,0,0,0-1.633-.84,1.751,1.751,0,0,0-1.617.836,5.171,5.171,0,0,0-.523,2.57v2.313A5.381,5.381,0,0,0,29.832-1.9a1.771,1.771,0,0,0,1.621.879,1.747,1.747,0,0,0,1.59-.828,5.186,5.186,0,0,0,.543-2.609Zm10.43,1.977a6.61,6.61,0,0,1-.867,3.773A3.084,3.084,0,0,1,40.438.156a3.107,3.107,0,0,1-2.7-1.207,6.274,6.274,0,0,1-.906-3.605v-1.93a6.463,6.463,0,0,1,.867-3.727,3.108,3.108,0,0,1,2.719-1.219,3.136,3.136,0,0,1,2.7,1.176,6.237,6.237,0,0,1,.891,3.629ZM42.57-6.828A5.3,5.3,0,0,0,42.055-9.5a1.775,1.775,0,0,0-1.633-.84,1.751,1.751,0,0,0-1.617.836,5.171,5.171,0,0,0-.523,2.57v2.313A5.381,5.381,0,0,0,38.816-1.9a1.771,1.771,0,0,0,1.621.879,1.747,1.747,0,0,0,1.59-.828,5.186,5.186,0,0,0,.543-2.609Z" transform="translate(-1470.241 -5819.199)" fill="#12263f"/>
    <path id="Trazado_905800" data-name="Trazado 905800" d="M5.7,0H4.242V-9.633L1.328-8.562V-9.875L5.469-11.43H5.7ZM17.063-4.852A6.61,6.61,0,0,1,16.2-1.078,3.084,3.084,0,0,1,13.484.156a3.107,3.107,0,0,1-2.7-1.207,6.274,6.274,0,0,1-.906-3.605v-1.93a6.463,6.463,0,0,1,.867-3.727,3.108,3.108,0,0,1,2.719-1.219,3.136,3.136,0,0,1,2.7,1.176,6.237,6.237,0,0,1,.891,3.629ZM15.617-6.828A5.3,5.3,0,0,0,15.1-9.5a1.775,1.775,0,0,0-1.633-.84,1.751,1.751,0,0,0-1.617.836,5.171,5.171,0,0,0-.523,2.57v2.313A5.381,5.381,0,0,0,11.863-1.9a1.771,1.771,0,0,0,1.621.879,1.747,1.747,0,0,0,1.59-.828,5.186,5.186,0,0,0,.543-2.609Zm10.43,1.977a6.61,6.61,0,0,1-.867,3.773A3.084,3.084,0,0,1,22.469.156a3.107,3.107,0,0,1-2.7-1.207,6.274,6.274,0,0,1-.906-3.605v-1.93a6.463,6.463,0,0,1,.867-3.727,3.108,3.108,0,0,1,2.719-1.219,3.136,3.136,0,0,1,2.7,1.176,6.237,6.237,0,0,1,.891,3.629ZM24.6-6.828A5.3,5.3,0,0,0,24.086-9.5a1.775,1.775,0,0,0-1.633-.84,1.751,1.751,0,0,0-1.617.836,5.171,5.171,0,0,0-.523,2.57v2.313A5.381,5.381,0,0,0,20.848-1.9a1.771,1.771,0,0,0,1.621.879,1.747,1.747,0,0,0,1.59-.828A5.186,5.186,0,0,0,24.6-4.461Zm10.43,1.977a6.61,6.61,0,0,1-.867,3.773A3.084,3.084,0,0,1,31.453.156a3.107,3.107,0,0,1-2.7-1.207,6.274,6.274,0,0,1-.906-3.605v-1.93a6.463,6.463,0,0,1,.867-3.727,3.108,3.108,0,0,1,2.719-1.219,3.136,3.136,0,0,1,2.7,1.176,6.237,6.237,0,0,1,.891,3.629ZM33.586-6.828A5.3,5.3,0,0,0,33.07-9.5a1.775,1.775,0,0,0-1.633-.84,1.751,1.751,0,0,0-1.617.836,5.171,5.171,0,0,0-.523,2.57v2.313A5.381,5.381,0,0,0,29.832-1.9a1.771,1.771,0,0,0,1.621.879,1.747,1.747,0,0,0,1.59-.828,5.186,5.186,0,0,0,.543-2.609Zm10.43,1.977a6.61,6.61,0,0,1-.867,3.773A3.084,3.084,0,0,1,40.438.156a3.107,3.107,0,0,1-2.7-1.207,6.274,6.274,0,0,1-.906-3.605v-1.93a6.463,6.463,0,0,1,.867-3.727,3.108,3.108,0,0,1,2.719-1.219,3.136,3.136,0,0,1,2.7,1.176,6.237,6.237,0,0,1,.891,3.629ZM42.57-6.828A5.3,5.3,0,0,0,42.055-9.5a1.775,1.775,0,0,0-1.633-.84,1.751,1.751,0,0,0-1.617.836,5.171,5.171,0,0,0-.523,2.57v2.313A5.381,5.381,0,0,0,38.816-1.9a1.771,1.771,0,0,0,1.621.879,1.747,1.747,0,0,0,1.59-.828,5.186,5.186,0,0,0,.543-2.609Z" transform="translate(-1470.241 -5789.295)" fill="#12263f"/>
    <path id="Trazado_905802" data-name="Trazado 905802" d="M7.844-8.406a2.641,2.641,0,0,1-.449,1.516A3.057,3.057,0,0,1,6.18-5.852,3.26,3.26,0,0,1,7.59-4.734a2.811,2.811,0,0,1,.52,1.664,2.972,2.972,0,0,1-1,2.352A3.827,3.827,0,0,1,4.492.156,3.81,3.81,0,0,1,1.863-.723,2.986,2.986,0,0,1,.875-3.07a2.9,2.9,0,0,1,.5-1.664A3.136,3.136,0,0,1,2.773-5.859,2.981,2.981,0,0,1,1.578-6.9a2.679,2.679,0,0,1-.437-1.508,2.94,2.94,0,0,1,.922-2.281,3.458,3.458,0,0,1,2.43-.844,3.461,3.461,0,0,1,2.426.844A2.934,2.934,0,0,1,7.844-8.406ZM6.664-3.1a2.1,2.1,0,0,0-.605-1.555,2.147,2.147,0,0,0-1.582-.6,2.11,2.11,0,0,0-1.566.594A2.12,2.12,0,0,0,2.32-3.1a2.019,2.019,0,0,0,.574,1.523,2.2,2.2,0,0,0,1.6.555,2.2,2.2,0,0,0,1.594-.559A2.014,2.014,0,0,0,6.664-3.1ZM4.492-10.344a1.865,1.865,0,0,0-1.379.527,1.937,1.937,0,0,0-.527,1.434,1.928,1.928,0,0,0,.52,1.4,1.844,1.844,0,0,0,1.387.535A1.844,1.844,0,0,0,5.879-6.98a1.928,1.928,0,0,0,.52-1.4A1.929,1.929,0,0,0,5.859-9.8,1.839,1.839,0,0,0,4.492-10.344Zm12.57,5.492A6.61,6.61,0,0,1,16.2-1.078,3.084,3.084,0,0,1,13.484.156a3.107,3.107,0,0,1-2.7-1.207,6.274,6.274,0,0,1-.906-3.605v-1.93a6.463,6.463,0,0,1,.867-3.727,3.108,3.108,0,0,1,2.719-1.219,3.136,3.136,0,0,1,2.7,1.176,6.237,6.237,0,0,1,.891,3.629ZM15.617-6.828A5.3,5.3,0,0,0,15.1-9.5a1.775,1.775,0,0,0-1.633-.84,1.751,1.751,0,0,0-1.617.836,5.171,5.171,0,0,0-.523,2.57v2.313A5.381,5.381,0,0,0,11.863-1.9a1.771,1.771,0,0,0,1.621.879,1.747,1.747,0,0,0,1.59-.828,5.186,5.186,0,0,0,.543-2.609Zm10.43,1.977a6.61,6.61,0,0,1-.867,3.773A3.084,3.084,0,0,1,22.469.156a3.107,3.107,0,0,1-2.7-1.207,6.274,6.274,0,0,1-.906-3.605v-1.93a6.463,6.463,0,0,1,.867-3.727,3.108,3.108,0,0,1,2.719-1.219,3.136,3.136,0,0,1,2.7,1.176,6.237,6.237,0,0,1,.891,3.629ZM24.6-6.828A5.3,5.3,0,0,0,24.086-9.5a1.775,1.775,0,0,0-1.633-.84,1.751,1.751,0,0,0-1.617.836,5.171,5.171,0,0,0-.523,2.57v2.313A5.381,5.381,0,0,0,20.848-1.9a1.771,1.771,0,0,0,1.621.879,1.747,1.747,0,0,0,1.59-.828A5.186,5.186,0,0,0,24.6-4.461Zm10.43,1.977a6.61,6.61,0,0,1-.867,3.773A3.084,3.084,0,0,1,31.453.156a3.107,3.107,0,0,1-2.7-1.207,6.274,6.274,0,0,1-.906-3.605v-1.93a6.463,6.463,0,0,1,.867-3.727,3.108,3.108,0,0,1,2.719-1.219,3.136,3.136,0,0,1,2.7,1.176,6.237,6.237,0,0,1,.891,3.629ZM33.586-6.828A5.3,5.3,0,0,0,33.07-9.5a1.775,1.775,0,0,0-1.633-.84,1.751,1.751,0,0,0-1.617.836,5.171,5.171,0,0,0-.523,2.57v2.313A5.381,5.381,0,0,0,29.832-1.9a1.771,1.771,0,0,0,1.621.879,1.747,1.747,0,0,0,1.59-.828,5.186,5.186,0,0,0,.543-2.609Z" transform="translate(-1461.249 -5759.392)" fill="#12263f"/>
    <path id="Trazado_905796" data-name="Trazado 905796" d="M5.7,0H4.242V-9.633L1.328-8.562V-9.875L5.469-11.43H5.7ZM16.828-8.406a2.641,2.641,0,0,1-.449,1.516,3.056,3.056,0,0,1-1.215,1.039,3.26,3.26,0,0,1,1.41,1.117,2.811,2.811,0,0,1,.52,1.664,2.972,2.972,0,0,1-1,2.352,3.827,3.827,0,0,1-2.621.875,3.81,3.81,0,0,1-2.629-.879A2.986,2.986,0,0,1,9.859-3.07a2.9,2.9,0,0,1,.5-1.664,3.136,3.136,0,0,1,1.395-1.125,2.981,2.981,0,0,1-1.2-1.039,2.679,2.679,0,0,1-.437-1.508,2.94,2.94,0,0,1,.922-2.281,3.458,3.458,0,0,1,2.43-.844,3.461,3.461,0,0,1,2.426.844A2.934,2.934,0,0,1,16.828-8.406Zm-1.18,5.3a2.1,2.1,0,0,0-.605-1.555,2.147,2.147,0,0,0-1.582-.6,2.11,2.11,0,0,0-1.566.594A2.12,2.12,0,0,0,11.3-3.1a2.019,2.019,0,0,0,.574,1.523,2.2,2.2,0,0,0,1.6.555,2.2,2.2,0,0,0,1.594-.559A2.014,2.014,0,0,0,15.648-3.1Zm-2.172-7.242a1.865,1.865,0,0,0-1.379.527,1.937,1.937,0,0,0-.527,1.434,1.928,1.928,0,0,0,.52,1.4,1.844,1.844,0,0,0,1.387.535,1.844,1.844,0,0,0,1.387-.535,1.928,1.928,0,0,0,.52-1.4A1.929,1.929,0,0,0,14.844-9.8,1.839,1.839,0,0,0,13.477-10.344Zm12.57,5.492a6.61,6.61,0,0,1-.867,3.773A3.084,3.084,0,0,1,22.469.156a3.107,3.107,0,0,1-2.7-1.207,6.274,6.274,0,0,1-.906-3.605v-1.93a6.463,6.463,0,0,1,.867-3.727,3.108,3.108,0,0,1,2.719-1.219,3.136,3.136,0,0,1,2.7,1.176,6.237,6.237,0,0,1,.891,3.629ZM24.6-6.828A5.3,5.3,0,0,0,24.086-9.5a1.775,1.775,0,0,0-1.633-.84,1.751,1.751,0,0,0-1.617.836,5.171,5.171,0,0,0-.523,2.57v2.313A5.381,5.381,0,0,0,20.848-1.9a1.771,1.771,0,0,0,1.621.879,1.747,1.747,0,0,0,1.59-.828A5.186,5.186,0,0,0,24.6-4.461Zm10.43,1.977a6.61,6.61,0,0,1-.867,3.773A3.084,3.084,0,0,1,31.453.156a3.107,3.107,0,0,1-2.7-1.207,6.274,6.274,0,0,1-.906-3.605v-1.93a6.463,6.463,0,0,1,.867-3.727,3.108,3.108,0,0,1,2.719-1.219,3.136,3.136,0,0,1,2.7,1.176,6.237,6.237,0,0,1,.891,3.629ZM33.586-6.828A5.3,5.3,0,0,0,33.07-9.5a1.775,1.775,0,0,0-1.633-.84,1.751,1.751,0,0,0-1.617.836,5.171,5.171,0,0,0-.523,2.57v2.313A5.381,5.381,0,0,0,29.832-1.9a1.771,1.771,0,0,0,1.621.879,1.747,1.747,0,0,0,1.59-.828,5.186,5.186,0,0,0,.543-2.609Zm10.43,1.977a6.61,6.61,0,0,1-.867,3.773A3.084,3.084,0,0,1,40.438.156a3.107,3.107,0,0,1-2.7-1.207,6.274,6.274,0,0,1-.906-3.605v-1.93a6.463,6.463,0,0,1,.867-3.727,3.108,3.108,0,0,1,2.719-1.219,3.136,3.136,0,0,1,2.7,1.176,6.237,6.237,0,0,1,.891,3.629ZM42.57-6.828A5.3,5.3,0,0,0,42.055-9.5a1.775,1.775,0,0,0-1.633-.84,1.751,1.751,0,0,0-1.617.836,5.171,5.171,0,0,0-.523,2.57v2.313A5.381,5.381,0,0,0,38.816-1.9a1.771,1.771,0,0,0,1.621.879,1.747,1.747,0,0,0,1.59-.828,5.186,5.186,0,0,0,.543-2.609Z" transform="translate(-1470.241 -5908.895)" fill="#12263f"/>
    <path id="Trazado_905797" data-name="Trazado 905797" d="M5.7,0H4.242V-9.633L1.328-8.562V-9.875L5.469-11.43H5.7ZM15.6-11.383v1.227h-.266a3.805,3.805,0,0,0-2.687,1A4.161,4.161,0,0,0,11.492-6.43a3.085,3.085,0,0,1,2.453-1.031,2.95,2.95,0,0,1,2.371,1.047,4.038,4.038,0,0,1,.887,2.7A4.025,4.025,0,0,1,16.246-.9,3.3,3.3,0,0,1,13.68.156,3.247,3.247,0,0,1,11.031-1.1a4.97,4.97,0,0,1-1.016-3.23v-.555a7.488,7.488,0,0,1,1.34-4.8,4.921,4.921,0,0,1,3.988-1.7ZM13.7-6.258a2.306,2.306,0,0,0-1.367.445A2.32,2.32,0,0,0,11.469-4.7v.531A3.731,3.731,0,0,0,12.1-1.9a1.9,1.9,0,0,0,1.578.859,1.838,1.838,0,0,0,1.535-.719,2.982,2.982,0,0,0,.559-1.883,2.983,2.983,0,0,0-.566-1.895A1.816,1.816,0,0,0,13.7-6.258ZM26.047-4.852a6.61,6.61,0,0,1-.867,3.773A3.084,3.084,0,0,1,22.469.156a3.107,3.107,0,0,1-2.7-1.207,6.274,6.274,0,0,1-.906-3.605v-1.93a6.463,6.463,0,0,1,.867-3.727,3.108,3.108,0,0,1,2.719-1.219,3.136,3.136,0,0,1,2.7,1.176,6.237,6.237,0,0,1,.891,3.629ZM24.6-6.828A5.3,5.3,0,0,0,24.086-9.5a1.775,1.775,0,0,0-1.633-.84,1.751,1.751,0,0,0-1.617.836,5.171,5.171,0,0,0-.523,2.57v2.313A5.381,5.381,0,0,0,20.848-1.9a1.771,1.771,0,0,0,1.621.879,1.747,1.747,0,0,0,1.59-.828A5.186,5.186,0,0,0,24.6-4.461Zm10.43,1.977a6.61,6.61,0,0,1-.867,3.773A3.084,3.084,0,0,1,31.453.156a3.107,3.107,0,0,1-2.7-1.207,6.274,6.274,0,0,1-.906-3.605v-1.93a6.463,6.463,0,0,1,.867-3.727,3.108,3.108,0,0,1,2.719-1.219,3.136,3.136,0,0,1,2.7,1.176,6.237,6.237,0,0,1,.891,3.629ZM33.586-6.828A5.3,5.3,0,0,0,33.07-9.5a1.775,1.775,0,0,0-1.633-.84,1.751,1.751,0,0,0-1.617.836,5.171,5.171,0,0,0-.523,2.57v2.313A5.381,5.381,0,0,0,29.832-1.9a1.771,1.771,0,0,0,1.621.879,1.747,1.747,0,0,0,1.59-.828,5.186,5.186,0,0,0,.543-2.609Zm10.43,1.977a6.61,6.61,0,0,1-.867,3.773A3.084,3.084,0,0,1,40.438.156a3.107,3.107,0,0,1-2.7-1.207,6.274,6.274,0,0,1-.906-3.605v-1.93a6.463,6.463,0,0,1,.867-3.727,3.108,3.108,0,0,1,2.719-1.219,3.136,3.136,0,0,1,2.7,1.176,6.237,6.237,0,0,1,.891,3.629ZM42.57-6.828A5.3,5.3,0,0,0,42.055-9.5a1.775,1.775,0,0,0-1.633-.84,1.751,1.751,0,0,0-1.617.836,5.171,5.171,0,0,0-.523,2.57v2.313A5.381,5.381,0,0,0,38.816-1.9a1.771,1.771,0,0,0,1.621.879,1.747,1.747,0,0,0,1.59-.828,5.186,5.186,0,0,0,.543-2.609Z" transform="translate(-1470.241 -5878.991)" fill="#12263f"/>
    <path id="Trazado_905798" data-name="Trazado 905798" d="M5.7,0H4.242V-9.633L1.328-8.562V-9.875L5.469-11.43H5.7ZM16.031-3.82h1.578v1.18H16.031V0H14.578V-2.641H9.4v-.852l5.094-7.883h1.539Zm-4.992,0h3.539V-9.4l-.172.313ZM26.047-4.852a6.61,6.61,0,0,1-.867,3.773A3.084,3.084,0,0,1,22.469.156a3.107,3.107,0,0,1-2.7-1.207,6.274,6.274,0,0,1-.906-3.605v-1.93a6.463,6.463,0,0,1,.867-3.727,3.108,3.108,0,0,1,2.719-1.219,3.136,3.136,0,0,1,2.7,1.176,6.237,6.237,0,0,1,.891,3.629ZM24.6-6.828A5.3,5.3,0,0,0,24.086-9.5a1.775,1.775,0,0,0-1.633-.84,1.751,1.751,0,0,0-1.617.836,5.171,5.171,0,0,0-.523,2.57v2.313A5.381,5.381,0,0,0,20.848-1.9a1.771,1.771,0,0,0,1.621.879,1.747,1.747,0,0,0,1.59-.828A5.186,5.186,0,0,0,24.6-4.461Zm10.43,1.977a6.61,6.61,0,0,1-.867,3.773A3.084,3.084,0,0,1,31.453.156a3.107,3.107,0,0,1-2.7-1.207,6.274,6.274,0,0,1-.906-3.605v-1.93a6.463,6.463,0,0,1,.867-3.727,3.108,3.108,0,0,1,2.719-1.219,3.136,3.136,0,0,1,2.7,1.176,6.237,6.237,0,0,1,.891,3.629ZM33.586-6.828A5.3,5.3,0,0,0,33.07-9.5a1.775,1.775,0,0,0-1.633-.84,1.751,1.751,0,0,0-1.617.836,5.171,5.171,0,0,0-.523,2.57v2.313A5.381,5.381,0,0,0,29.832-1.9a1.771,1.771,0,0,0,1.621.879,1.747,1.747,0,0,0,1.59-.828,5.186,5.186,0,0,0,.543-2.609Zm10.43,1.977a6.61,6.61,0,0,1-.867,3.773A3.084,3.084,0,0,1,40.438.156a3.107,3.107,0,0,1-2.7-1.207,6.274,6.274,0,0,1-.906-3.605v-1.93a6.463,6.463,0,0,1,.867-3.727,3.108,3.108,0,0,1,2.719-1.219,3.136,3.136,0,0,1,2.7,1.176,6.237,6.237,0,0,1,.891,3.629ZM42.57-6.828A5.3,5.3,0,0,0,42.055-9.5a1.775,1.775,0,0,0-1.633-.84,1.751,1.751,0,0,0-1.617.836,5.171,5.171,0,0,0-.523,2.57v2.313A5.381,5.381,0,0,0,38.816-1.9a1.771,1.771,0,0,0,1.621.879,1.747,1.747,0,0,0,1.59-.828,5.186,5.186,0,0,0,.543-2.609Z" transform="translate(-1470.241 -5849.087)" fill="#12263f"/>
    <path id="Trazado_905803" data-name="Trazado 905803" d="M6.617-11.383v1.227H6.352a3.805,3.805,0,0,0-2.687,1A4.161,4.161,0,0,0,2.508-6.43,3.085,3.085,0,0,1,4.961-7.461,2.95,2.95,0,0,1,7.332-6.414a4.038,4.038,0,0,1,.887,2.7A4.025,4.025,0,0,1,7.262-.9,3.3,3.3,0,0,1,4.7.156,3.247,3.247,0,0,1,2.047-1.1a4.97,4.97,0,0,1-1.016-3.23v-.555a7.488,7.488,0,0,1,1.34-4.8,4.921,4.921,0,0,1,3.988-1.7Zm-1.9,5.125a2.306,2.306,0,0,0-1.367.445A2.32,2.32,0,0,0,2.484-4.7v.531A3.731,3.731,0,0,0,3.117-1.9,1.9,1.9,0,0,0,4.7-1.039,1.838,1.838,0,0,0,6.23-1.758a2.982,2.982,0,0,0,.559-1.883,2.983,2.983,0,0,0-.566-1.895A1.816,1.816,0,0,0,4.719-6.258ZM17.063-4.852A6.61,6.61,0,0,1,16.2-1.078,3.084,3.084,0,0,1,13.484.156a3.107,3.107,0,0,1-2.7-1.207,6.274,6.274,0,0,1-.906-3.605v-1.93a6.463,6.463,0,0,1,.867-3.727,3.108,3.108,0,0,1,2.719-1.219,3.136,3.136,0,0,1,2.7,1.176,6.237,6.237,0,0,1,.891,3.629ZM15.617-6.828A5.3,5.3,0,0,0,15.1-9.5a1.775,1.775,0,0,0-1.633-.84,1.751,1.751,0,0,0-1.617.836,5.171,5.171,0,0,0-.523,2.57v2.313A5.381,5.381,0,0,0,11.863-1.9a1.771,1.771,0,0,0,1.621.879,1.747,1.747,0,0,0,1.59-.828,5.186,5.186,0,0,0,.543-2.609Zm10.43,1.977a6.61,6.61,0,0,1-.867,3.773A3.084,3.084,0,0,1,22.469.156a3.107,3.107,0,0,1-2.7-1.207,6.274,6.274,0,0,1-.906-3.605v-1.93a6.463,6.463,0,0,1,.867-3.727,3.108,3.108,0,0,1,2.719-1.219,3.136,3.136,0,0,1,2.7,1.176,6.237,6.237,0,0,1,.891,3.629ZM24.6-6.828A5.3,5.3,0,0,0,24.086-9.5a1.775,1.775,0,0,0-1.633-.84,1.751,1.751,0,0,0-1.617.836,5.171,5.171,0,0,0-.523,2.57v2.313A5.381,5.381,0,0,0,20.848-1.9a1.771,1.771,0,0,0,1.621.879,1.747,1.747,0,0,0,1.59-.828A5.186,5.186,0,0,0,24.6-4.461Zm10.43,1.977a6.61,6.61,0,0,1-.867,3.773A3.084,3.084,0,0,1,31.453.156a3.107,3.107,0,0,1-2.7-1.207,6.274,6.274,0,0,1-.906-3.605v-1.93a6.463,6.463,0,0,1,.867-3.727,3.108,3.108,0,0,1,2.719-1.219,3.136,3.136,0,0,1,2.7,1.176,6.237,6.237,0,0,1,.891,3.629ZM33.586-6.828A5.3,5.3,0,0,0,33.07-9.5a1.775,1.775,0,0,0-1.633-.84,1.751,1.751,0,0,0-1.617.836,5.171,5.171,0,0,0-.523,2.57v2.313A5.381,5.381,0,0,0,29.832-1.9a1.771,1.771,0,0,0,1.621.879,1.747,1.747,0,0,0,1.59-.828,5.186,5.186,0,0,0,.543-2.609Z" transform="translate(-1461.249 -5729.487)" fill="#12263f"/>
    <path id="Trazado_905804" data-name="Trazado 905804" d="M7.047-3.82H8.625v1.18H7.047V0H5.594V-2.641H.414v-.852l5.094-7.883H7.047Zm-4.992,0H5.594V-9.4l-.172.313ZM17.063-4.852A6.61,6.61,0,0,1,16.2-1.078,3.084,3.084,0,0,1,13.484.156a3.107,3.107,0,0,1-2.7-1.207,6.274,6.274,0,0,1-.906-3.605v-1.93a6.463,6.463,0,0,1,.867-3.727,3.108,3.108,0,0,1,2.719-1.219,3.136,3.136,0,0,1,2.7,1.176,6.237,6.237,0,0,1,.891,3.629ZM15.617-6.828A5.3,5.3,0,0,0,15.1-9.5a1.775,1.775,0,0,0-1.633-.84,1.751,1.751,0,0,0-1.617.836,5.171,5.171,0,0,0-.523,2.57v2.313A5.381,5.381,0,0,0,11.863-1.9a1.771,1.771,0,0,0,1.621.879,1.747,1.747,0,0,0,1.59-.828,5.186,5.186,0,0,0,.543-2.609Zm10.43,1.977a6.61,6.61,0,0,1-.867,3.773A3.084,3.084,0,0,1,22.469.156a3.107,3.107,0,0,1-2.7-1.207,6.274,6.274,0,0,1-.906-3.605v-1.93a6.463,6.463,0,0,1,.867-3.727,3.108,3.108,0,0,1,2.719-1.219,3.136,3.136,0,0,1,2.7,1.176,6.237,6.237,0,0,1,.891,3.629ZM24.6-6.828A5.3,5.3,0,0,0,24.086-9.5a1.775,1.775,0,0,0-1.633-.84,1.751,1.751,0,0,0-1.617.836,5.171,5.171,0,0,0-.523,2.57v2.313A5.381,5.381,0,0,0,20.848-1.9a1.771,1.771,0,0,0,1.621.879,1.747,1.747,0,0,0,1.59-.828A5.186,5.186,0,0,0,24.6-4.461Zm10.43,1.977a6.61,6.61,0,0,1-.867,3.773A3.084,3.084,0,0,1,31.453.156a3.107,3.107,0,0,1-2.7-1.207,6.274,6.274,0,0,1-.906-3.605v-1.93a6.463,6.463,0,0,1,.867-3.727,3.108,3.108,0,0,1,2.719-1.219,3.136,3.136,0,0,1,2.7,1.176,6.237,6.237,0,0,1,.891,3.629ZM33.586-6.828A5.3,5.3,0,0,0,33.07-9.5a1.775,1.775,0,0,0-1.633-.84,1.751,1.751,0,0,0-1.617.836,5.171,5.171,0,0,0-.523,2.57v2.313A5.381,5.381,0,0,0,29.832-1.9a1.771,1.771,0,0,0,1.621.879,1.747,1.747,0,0,0,1.59-.828,5.186,5.186,0,0,0,.543-2.609Z" transform="translate(-1461.249 -5699.583)" fill="#12263f"/>
    <path id="Trazado_905805" data-name="Trazado 905805" d="M8.4,0H.945V-1.039L4.883-5.414A9.354,9.354,0,0,0,6.09-7.027a2.693,2.693,0,0,0,.332-1.285,2.041,2.041,0,0,0-.539-1.461,1.885,1.885,0,0,0-1.437-.57A2.232,2.232,0,0,0,2.77-9.73a2.343,2.343,0,0,0-.6,1.707H.727a3.355,3.355,0,0,1,1.012-2.539,3.751,3.751,0,0,1,2.707-.969,3.6,3.6,0,0,1,2.508.832,2.838,2.838,0,0,1,.922,2.215q0,1.68-2.141,4L2.688-1.18H8.4Zm8.664-4.852A6.61,6.61,0,0,1,16.2-1.078,3.084,3.084,0,0,1,13.484.156a3.107,3.107,0,0,1-2.7-1.207,6.274,6.274,0,0,1-.906-3.605v-1.93a6.463,6.463,0,0,1,.867-3.727,3.108,3.108,0,0,1,2.719-1.219,3.136,3.136,0,0,1,2.7,1.176,6.237,6.237,0,0,1,.891,3.629ZM15.617-6.828A5.3,5.3,0,0,0,15.1-9.5a1.775,1.775,0,0,0-1.633-.84,1.751,1.751,0,0,0-1.617.836,5.171,5.171,0,0,0-.523,2.57v2.313A5.381,5.381,0,0,0,11.863-1.9a1.771,1.771,0,0,0,1.621.879,1.747,1.747,0,0,0,1.59-.828,5.186,5.186,0,0,0,.543-2.609Zm10.43,1.977a6.61,6.61,0,0,1-.867,3.773A3.084,3.084,0,0,1,22.469.156a3.107,3.107,0,0,1-2.7-1.207,6.274,6.274,0,0,1-.906-3.605v-1.93a6.463,6.463,0,0,1,.867-3.727,3.108,3.108,0,0,1,2.719-1.219,3.136,3.136,0,0,1,2.7,1.176,6.237,6.237,0,0,1,.891,3.629ZM24.6-6.828A5.3,5.3,0,0,0,24.086-9.5a1.775,1.775,0,0,0-1.633-.84,1.751,1.751,0,0,0-1.617.836,5.171,5.171,0,0,0-.523,2.57v2.313A5.381,5.381,0,0,0,20.848-1.9a1.771,1.771,0,0,0,1.621.879,1.747,1.747,0,0,0,1.59-.828A5.186,5.186,0,0,0,24.6-4.461Zm10.43,1.977a6.61,6.61,0,0,1-.867,3.773A3.084,3.084,0,0,1,31.453.156a3.107,3.107,0,0,1-2.7-1.207,6.274,6.274,0,0,1-.906-3.605v-1.93a6.463,6.463,0,0,1,.867-3.727,3.108,3.108,0,0,1,2.719-1.219,3.136,3.136,0,0,1,2.7,1.176,6.237,6.237,0,0,1,.891,3.629ZM33.586-6.828A5.3,5.3,0,0,0,33.07-9.5a1.775,1.775,0,0,0-1.633-.84,1.751,1.751,0,0,0-1.617.836,5.171,5.171,0,0,0-.523,2.57v2.313A5.381,5.381,0,0,0,29.832-1.9a1.771,1.771,0,0,0,1.621.879,1.747,1.747,0,0,0,1.59-.828,5.186,5.186,0,0,0,.543-2.609Z" transform="translate(-1461.249 -5669.68)" fill="#12263f"/>
    <path id="Trazado_905806" data-name="Trazado 905806" d="M8.078-4.852a6.61,6.61,0,0,1-.867,3.773A3.084,3.084,0,0,1,4.5.156,3.107,3.107,0,0,1,1.8-1.051,6.274,6.274,0,0,1,.9-4.656v-1.93a6.463,6.463,0,0,1,.867-3.727,3.108,3.108,0,0,1,2.719-1.219,3.136,3.136,0,0,1,2.7,1.176,6.237,6.237,0,0,1,.891,3.629ZM6.633-6.828A5.3,5.3,0,0,0,6.117-9.5a1.775,1.775,0,0,0-1.633-.84,1.751,1.751,0,0,0-1.617.836,5.171,5.171,0,0,0-.523,2.57v2.313A5.381,5.381,0,0,0,2.879-1.9,1.771,1.771,0,0,0,4.5-1.023a1.747,1.747,0,0,0,1.59-.828,5.186,5.186,0,0,0,.543-2.609Z" transform="translate(-1434.289 -5639.775)" fill="#12263f"/>
    <path id="Trazado_905795" data-name="Trazado 905795" d="M7.844-8.406a2.641,2.641,0,0,1-.449,1.516A3.057,3.057,0,0,1,6.18-5.852,3.26,3.26,0,0,1,7.59-4.734a2.811,2.811,0,0,1,.52,1.664,2.972,2.972,0,0,1-1,2.352A3.827,3.827,0,0,1,4.492.156,3.81,3.81,0,0,1,1.863-.723,2.986,2.986,0,0,1,.875-3.07a2.9,2.9,0,0,1,.5-1.664A3.136,3.136,0,0,1,2.773-5.859,2.981,2.981,0,0,1,1.578-6.9a2.679,2.679,0,0,1-.437-1.508,2.94,2.94,0,0,1,.922-2.281,3.458,3.458,0,0,1,2.43-.844,3.461,3.461,0,0,1,2.426.844A2.934,2.934,0,0,1,7.844-8.406ZM6.664-3.1a2.1,2.1,0,0,0-.605-1.555,2.147,2.147,0,0,0-1.582-.6,2.11,2.11,0,0,0-1.566.594A2.12,2.12,0,0,0,2.32-3.1a2.019,2.019,0,0,0,.574,1.523,2.2,2.2,0,0,0,1.6.555,2.2,2.2,0,0,0,1.594-.559A2.014,2.014,0,0,0,6.664-3.1ZM4.492-10.344a1.865,1.865,0,0,0-1.379.527,1.937,1.937,0,0,0-.527,1.434,1.928,1.928,0,0,0,.52,1.4,1.844,1.844,0,0,0,1.387.535A1.844,1.844,0,0,0,5.879-6.98a1.928,1.928,0,0,0,.52-1.4A1.929,1.929,0,0,0,5.859-9.8,1.839,1.839,0,0,0,4.492-10.344ZM15.6-11.383v1.227h-.266a3.805,3.805,0,0,0-2.687,1A4.161,4.161,0,0,0,11.492-6.43a3.085,3.085,0,0,1,2.453-1.031,2.95,2.95,0,0,1,2.371,1.047,4.038,4.038,0,0,1,.887,2.7A4.025,4.025,0,0,1,16.246-.9,3.3,3.3,0,0,1,13.68.156,3.247,3.247,0,0,1,11.031-1.1a4.97,4.97,0,0,1-1.016-3.23v-.555a7.488,7.488,0,0,1,1.34-4.8,4.921,4.921,0,0,1,3.988-1.7ZM13.7-6.258a2.306,2.306,0,0,0-1.367.445A2.32,2.32,0,0,0,11.469-4.7v.531A3.731,3.731,0,0,0,12.1-1.9a1.9,1.9,0,0,0,1.578.859,1.838,1.838,0,0,0,1.535-.719,2.982,2.982,0,0,0,.559-1.883,2.983,2.983,0,0,0-.566-1.895A1.816,1.816,0,0,0,13.7-6.258ZM26.047-4.852a6.61,6.61,0,0,1-.867,3.773A3.084,3.084,0,0,1,22.469.156a3.107,3.107,0,0,1-2.7-1.207,6.274,6.274,0,0,1-.906-3.605v-1.93a6.463,6.463,0,0,1,.867-3.727,3.108,3.108,0,0,1,2.719-1.219,3.136,3.136,0,0,1,2.7,1.176,6.237,6.237,0,0,1,.891,3.629ZM24.6-6.828A5.3,5.3,0,0,0,24.086-9.5a1.775,1.775,0,0,0-1.633-.84,1.751,1.751,0,0,0-1.617.836,5.171,5.171,0,0,0-.523,2.57v2.313A5.381,5.381,0,0,0,20.848-1.9a1.771,1.771,0,0,0,1.621.879,1.747,1.747,0,0,0,1.59-.828A5.186,5.186,0,0,0,24.6-4.461Zm5.4.438h1.086A2.387,2.387,0,0,0,32.7-6.93a1.8,1.8,0,0,0,.586-1.414,1.764,1.764,0,0,0-1.992-2,2.072,2.072,0,0,0-1.5.535,1.873,1.873,0,0,0-.559,1.418H27.789a2.9,2.9,0,0,1,.988-2.246,3.6,3.6,0,0,1,2.512-.895,3.558,3.558,0,0,1,2.523.852,3.076,3.076,0,0,1,.914,2.367,2.5,2.5,0,0,1-.48,1.438,2.9,2.9,0,0,1-1.309,1.039,2.8,2.8,0,0,1,1.449.984,2.734,2.734,0,0,1,.512,1.68,3.1,3.1,0,0,1-1,2.43,3.745,3.745,0,0,1-2.6.9,3.844,3.844,0,0,1-2.605-.867,2.877,2.877,0,0,1-1-2.289h1.453a1.859,1.859,0,0,0,.586,1.438,2.229,2.229,0,0,0,1.57.539,2.187,2.187,0,0,0,1.6-.547,2.108,2.108,0,0,0,.555-1.57,1.912,1.912,0,0,0-.609-1.523,2.655,2.655,0,0,0-1.758-.547H30Z" transform="translate(-1389.761 -5779.551)" fill="#12263f"/>
    <path id="Trazado_905794" data-name="Trazado 905794" d="M5.7,0H4.242V-9.633L1.328-8.562V-9.875L5.469-11.43H5.7ZM17.383,0H9.93V-1.039l3.938-4.375a9.354,9.354,0,0,0,1.207-1.613,2.693,2.693,0,0,0,.332-1.285,2.041,2.041,0,0,0-.539-1.461,1.885,1.885,0,0,0-1.437-.57,2.232,2.232,0,0,0-1.676.613,2.343,2.343,0,0,0-.6,1.707H9.711a3.355,3.355,0,0,1,1.012-2.539,3.751,3.751,0,0,1,2.707-.969,3.6,3.6,0,0,1,2.508.832,2.838,2.838,0,0,1,.922,2.215q0,1.68-2.141,4l-3.047,3.3h5.711Zm7.2-11.383v1.227H24.32a3.805,3.805,0,0,0-2.687,1A4.161,4.161,0,0,0,20.477-6.43,3.085,3.085,0,0,1,22.93-7.461,2.95,2.95,0,0,1,25.3-6.414a4.038,4.038,0,0,1,.887,2.7A4.025,4.025,0,0,1,25.23-.9,3.3,3.3,0,0,1,22.664.156,3.247,3.247,0,0,1,20.016-1.1,4.97,4.97,0,0,1,19-4.328v-.555a7.488,7.488,0,0,1,1.34-4.8,4.921,4.921,0,0,1,3.988-1.7Zm-1.9,5.125a2.306,2.306,0,0,0-1.367.445A2.32,2.32,0,0,0,20.453-4.7v.531A3.731,3.731,0,0,0,21.086-1.9a1.9,1.9,0,0,0,1.578.859A1.838,1.838,0,0,0,24.2-1.758a2.982,2.982,0,0,0,.559-1.883,2.983,2.983,0,0,0-.566-1.895A1.816,1.816,0,0,0,22.688-6.258ZM35.031-4.852a6.61,6.61,0,0,1-.867,3.773A3.084,3.084,0,0,1,31.453.156a3.107,3.107,0,0,1-2.7-1.207,6.274,6.274,0,0,1-.906-3.605v-1.93a6.463,6.463,0,0,1,.867-3.727,3.108,3.108,0,0,1,2.719-1.219,3.136,3.136,0,0,1,2.7,1.176,6.237,6.237,0,0,1,.891,3.629ZM33.586-6.828A5.3,5.3,0,0,0,33.07-9.5a1.775,1.775,0,0,0-1.633-.84,1.751,1.751,0,0,0-1.617.836,5.171,5.171,0,0,0-.523,2.57v2.313A5.381,5.381,0,0,0,29.832-1.9a1.771,1.771,0,0,0,1.621.879,1.747,1.747,0,0,0,1.59-.828,5.186,5.186,0,0,0,.543-2.609Zm8.969-4.555v1.227h-.266a3.805,3.805,0,0,0-2.687,1A4.161,4.161,0,0,0,38.445-6.43,3.085,3.085,0,0,1,40.9-7.461,2.95,2.95,0,0,1,43.27-6.414a4.038,4.038,0,0,1,.887,2.7A4.025,4.025,0,0,1,43.2-.9,3.3,3.3,0,0,1,40.633.156,3.247,3.247,0,0,1,37.984-1.1a4.97,4.97,0,0,1-1.016-3.23v-.555a7.488,7.488,0,0,1,1.34-4.8,4.921,4.921,0,0,1,3.988-1.7Zm-1.9,5.125a2.306,2.306,0,0,0-1.367.445A2.32,2.32,0,0,0,38.422-4.7v.531A3.731,3.731,0,0,0,39.055-1.9a1.9,1.9,0,0,0,1.578.859,1.838,1.838,0,0,0,1.535-.719,2.982,2.982,0,0,0,.559-1.883,2.983,2.983,0,0,0-.566-1.895A1.816,1.816,0,0,0,40.656-6.258Z" transform="translate(-1288.609 -5839.295)" fill="#12263f"/>
    <path id="Trazado_905793" data-name="Trazado 905793" d="M5.7,0H4.242V-9.633L1.328-8.562V-9.875L5.469-11.43H5.7ZM15.6-11.383v1.227h-.266a3.805,3.805,0,0,0-2.687,1A4.161,4.161,0,0,0,11.492-6.43a3.085,3.085,0,0,1,2.453-1.031,2.95,2.95,0,0,1,2.371,1.047,4.038,4.038,0,0,1,.887,2.7A4.025,4.025,0,0,1,16.246-.9,3.3,3.3,0,0,1,13.68.156,3.247,3.247,0,0,1,11.031-1.1a4.97,4.97,0,0,1-1.016-3.23v-.555a7.488,7.488,0,0,1,1.34-4.8,4.921,4.921,0,0,1,3.988-1.7ZM13.7-6.258a2.306,2.306,0,0,0-1.367.445A2.32,2.32,0,0,0,11.469-4.7v.531A3.731,3.731,0,0,0,12.1-1.9a1.9,1.9,0,0,0,1.578.859,1.838,1.838,0,0,0,1.535-.719,2.982,2.982,0,0,0,.559-1.883,2.983,2.983,0,0,0-.566-1.895A1.816,1.816,0,0,0,13.7-6.258ZM25.016-3.82h1.578v1.18H25.016V0H23.563V-2.641h-5.18v-.852l5.094-7.883h1.539Zm-4.992,0h3.539V-9.4l-.172.313ZM32.648,0H31.2V-9.633l-2.914,1.07V-9.875l4.141-1.555h.227ZM44.227-10.562,39.516,0H38l4.7-10.187H36.539v-1.187h7.688Z" transform="translate(-1188.609 -5897.295)" fill="#12263f"/>
    <path id="Trazado_905807" data-name="Trazado 905807" d="M7.6-2.977H2.836L1.766,0H.219L4.563-11.375H5.875L10.227,0H8.688ZM3.289-4.2H7.156L5.219-9.523ZM12.9-8.453l.047,1.063a3.08,3.08,0,0,1,2.531-1.219q2.68,0,2.7,3.023V0H16.734V-5.594a1.946,1.946,0,0,0-.418-1.352,1.675,1.675,0,0,0-1.277-.437,2.086,2.086,0,0,0-1.234.375,2.546,2.546,0,0,0-.828.984V0H11.531V-8.453Zm4.781-3.3a1.942,1.942,0,0,1-.48,1.367,1.561,1.561,0,0,1-1.2.523,1.76,1.76,0,0,1-.555-.078,2.993,2.993,0,0,1-.613-.32,2.656,2.656,0,0,0-.547-.293A1.338,1.338,0,0,0,13.9-10.6a.717.717,0,0,0-.547.246.892.892,0,0,0-.227.629l-.969-.055a2.039,2.039,0,0,1,.473-1.383,1.516,1.516,0,0,1,1.2-.547,1.457,1.457,0,0,1,.492.078,3.587,3.587,0,0,1,.594.3,3.494,3.494,0,0,0,.574.3,1.319,1.319,0,0,0,.441.07.7.7,0,0,0,.559-.266.932.932,0,0,0,.223-.617Zm2.3,7.445a4.993,4.993,0,0,1,.488-2.234A3.643,3.643,0,0,1,21.824-8.07a3.7,3.7,0,0,1,1.988-.539,3.565,3.565,0,0,1,2.793,1.2,4.6,4.6,0,0,1,1.066,3.18v.1A5.036,5.036,0,0,1,27.2-1.918,3.589,3.589,0,0,1,25.848-.391a3.743,3.743,0,0,1-2.02.547,3.556,3.556,0,0,1-2.785-1.2A4.575,4.575,0,0,1,19.977-4.2Zm1.453.172a3.616,3.616,0,0,0,.652,2.258,2.088,2.088,0,0,0,1.746.852,2.075,2.075,0,0,0,1.75-.863A3.955,3.955,0,0,0,26.227-4.3a3.61,3.61,0,0,0-.66-2.254,2.1,2.1,0,0,0-1.754-.863,2.075,2.075,0,0,0-1.727.852A3.925,3.925,0,0,0,21.43-4.133ZM40.75,0H33.3V-1.039l3.938-4.375a9.355,9.355,0,0,0,1.207-1.613,2.693,2.693,0,0,0,.332-1.285,2.041,2.041,0,0,0-.539-1.461,1.885,1.885,0,0,0-1.437-.57,2.232,2.232,0,0,0-1.676.613,2.343,2.343,0,0,0-.6,1.707H33.078a3.355,3.355,0,0,1,1.012-2.539,3.751,3.751,0,0,1,2.707-.969A3.6,3.6,0,0,1,39.3-10.7a2.838,2.838,0,0,1,.922,2.215q0,1.68-2.141,4l-3.047,3.3H40.75Zm8.664-4.852a6.61,6.61,0,0,1-.867,3.773A3.084,3.084,0,0,1,45.836.156a3.107,3.107,0,0,1-2.7-1.207,6.274,6.274,0,0,1-.906-3.605v-1.93a6.463,6.463,0,0,1,.867-3.727,3.108,3.108,0,0,1,2.719-1.219,3.136,3.136,0,0,1,2.7,1.176,6.237,6.237,0,0,1,.891,3.629ZM47.969-6.828A5.3,5.3,0,0,0,47.453-9.5a1.775,1.775,0,0,0-1.633-.84,1.751,1.751,0,0,0-1.617.836,5.171,5.171,0,0,0-.523,2.57v2.313A5.381,5.381,0,0,0,44.215-1.9a1.771,1.771,0,0,0,1.621.879,1.747,1.747,0,0,0,1.59-.828,5.186,5.186,0,0,0,.543-2.609ZM56.016,0H54.563V-9.633l-2.914,1.07V-9.875l4.141-1.555h.227Zm9.906-11.383v1.227h-.266a3.805,3.805,0,0,0-2.687,1A4.161,4.161,0,0,0,61.813-6.43a3.085,3.085,0,0,1,2.453-1.031,2.95,2.95,0,0,1,2.371,1.047,4.038,4.038,0,0,1,.887,2.7A4.025,4.025,0,0,1,66.566-.9,3.3,3.3,0,0,1,64,.156,3.247,3.247,0,0,1,61.352-1.1a4.97,4.97,0,0,1-1.016-3.23v-.555a7.488,7.488,0,0,1,1.34-4.8,4.921,4.921,0,0,1,3.988-1.7Zm-1.9,5.125a2.306,2.306,0,0,0-1.367.445A2.32,2.32,0,0,0,61.789-4.7v.531A3.731,3.731,0,0,0,62.422-1.9,1.9,1.9,0,0,0,64-1.039a1.838,1.838,0,0,0,1.535-.719,2.982,2.982,0,0,0,.559-1.883,2.983,2.983,0,0,0-.566-1.895A1.816,1.816,0,0,0,64.023-6.258Z" transform="translate(-1405.105 -5626.543)" fill="#12263f"/>
    <path id="Trazado_905808" data-name="Trazado 905808" d="M7.6-2.977H2.836L1.766,0H.219L4.563-11.375H5.875L10.227,0H8.688ZM3.289-4.2H7.156L5.219-9.523ZM12.9-8.453l.047,1.063a3.08,3.08,0,0,1,2.531-1.219q2.68,0,2.7,3.023V0H16.734V-5.594a1.946,1.946,0,0,0-.418-1.352,1.675,1.675,0,0,0-1.277-.437,2.086,2.086,0,0,0-1.234.375,2.546,2.546,0,0,0-.828.984V0H11.531V-8.453Zm4.781-3.3a1.942,1.942,0,0,1-.48,1.367,1.561,1.561,0,0,1-1.2.523,1.76,1.76,0,0,1-.555-.078,2.993,2.993,0,0,1-.613-.32,2.656,2.656,0,0,0-.547-.293A1.338,1.338,0,0,0,13.9-10.6a.717.717,0,0,0-.547.246.892.892,0,0,0-.227.629l-.969-.055a2.039,2.039,0,0,1,.473-1.383,1.516,1.516,0,0,1,1.2-.547,1.457,1.457,0,0,1,.492.078,3.587,3.587,0,0,1,.594.3,3.494,3.494,0,0,0,.574.3,1.319,1.319,0,0,0,.441.07.7.7,0,0,0,.559-.266.932.932,0,0,0,.223-.617Zm2.3,7.445a4.993,4.993,0,0,1,.488-2.234A3.643,3.643,0,0,1,21.824-8.07a3.7,3.7,0,0,1,1.988-.539,3.565,3.565,0,0,1,2.793,1.2,4.6,4.6,0,0,1,1.066,3.18v.1A5.036,5.036,0,0,1,27.2-1.918,3.589,3.589,0,0,1,25.848-.391a3.743,3.743,0,0,1-2.02.547,3.556,3.556,0,0,1-2.785-1.2A4.575,4.575,0,0,1,19.977-4.2Zm1.453.172a3.616,3.616,0,0,0,.652,2.258,2.088,2.088,0,0,0,1.746.852,2.075,2.075,0,0,0,1.75-.863A3.955,3.955,0,0,0,26.227-4.3a3.61,3.61,0,0,0-.66-2.254,2.1,2.1,0,0,0-1.754-.863,2.075,2.075,0,0,0-1.727.852A3.925,3.925,0,0,0,21.43-4.133ZM40.75,0H33.3V-1.039l3.938-4.375a9.355,9.355,0,0,0,1.207-1.613,2.693,2.693,0,0,0,.332-1.285,2.041,2.041,0,0,0-.539-1.461,1.885,1.885,0,0,0-1.437-.57,2.232,2.232,0,0,0-1.676.613,2.343,2.343,0,0,0-.6,1.707H33.078a3.355,3.355,0,0,1,1.012-2.539,3.751,3.751,0,0,1,2.707-.969A3.6,3.6,0,0,1,39.3-10.7a2.838,2.838,0,0,1,.922,2.215q0,1.68-2.141,4l-3.047,3.3H40.75Zm8.664-4.852a6.61,6.61,0,0,1-.867,3.773A3.084,3.084,0,0,1,45.836.156a3.107,3.107,0,0,1-2.7-1.207,6.274,6.274,0,0,1-.906-3.605v-1.93a6.463,6.463,0,0,1,.867-3.727,3.108,3.108,0,0,1,2.719-1.219,3.136,3.136,0,0,1,2.7,1.176,6.237,6.237,0,0,1,.891,3.629ZM47.969-6.828A5.3,5.3,0,0,0,47.453-9.5a1.775,1.775,0,0,0-1.633-.84,1.751,1.751,0,0,0-1.617.836,5.171,5.171,0,0,0-.523,2.57v2.313A5.381,5.381,0,0,0,44.215-1.9a1.771,1.771,0,0,0,1.621.879,1.747,1.747,0,0,0,1.59-.828,5.186,5.186,0,0,0,.543-2.609ZM56.016,0H54.563V-9.633l-2.914,1.07V-9.875l4.141-1.555h.227ZM67.594-10.562,62.883,0H61.367l4.7-10.187H59.906v-1.187h7.688Z" transform="translate(-1302.465 -5625.567)" fill="#12263f"/>
    <path id="Trazado_905809" data-name="Trazado 905809" d="M7.6-2.977H2.836L1.766,0H.219L4.563-11.375H5.875L10.227,0H8.688ZM3.289-4.2H7.156L5.219-9.523ZM12.9-8.453l.047,1.063a3.08,3.08,0,0,1,2.531-1.219q2.68,0,2.7,3.023V0H16.734V-5.594a1.946,1.946,0,0,0-.418-1.352,1.675,1.675,0,0,0-1.277-.437,2.086,2.086,0,0,0-1.234.375,2.546,2.546,0,0,0-.828.984V0H11.531V-8.453Zm4.781-3.3a1.942,1.942,0,0,1-.48,1.367,1.561,1.561,0,0,1-1.2.523,1.76,1.76,0,0,1-.555-.078,2.993,2.993,0,0,1-.613-.32,2.656,2.656,0,0,0-.547-.293A1.338,1.338,0,0,0,13.9-10.6a.717.717,0,0,0-.547.246.892.892,0,0,0-.227.629l-.969-.055a2.039,2.039,0,0,1,.473-1.383,1.516,1.516,0,0,1,1.2-.547,1.457,1.457,0,0,1,.492.078,3.587,3.587,0,0,1,.594.3,3.494,3.494,0,0,0,.574.3,1.319,1.319,0,0,0,.441.07.7.7,0,0,0,.559-.266.932.932,0,0,0,.223-.617Zm2.3,7.445a4.993,4.993,0,0,1,.488-2.234A3.643,3.643,0,0,1,21.824-8.07a3.7,3.7,0,0,1,1.988-.539,3.565,3.565,0,0,1,2.793,1.2,4.6,4.6,0,0,1,1.066,3.18v.1A5.036,5.036,0,0,1,27.2-1.918,3.589,3.589,0,0,1,25.848-.391a3.743,3.743,0,0,1-2.02.547,3.556,3.556,0,0,1-2.785-1.2A4.575,4.575,0,0,1,19.977-4.2Zm1.453.172a3.616,3.616,0,0,0,.652,2.258,2.088,2.088,0,0,0,1.746.852,2.075,2.075,0,0,0,1.75-.863A3.955,3.955,0,0,0,26.227-4.3a3.61,3.61,0,0,0-.66-2.254,2.1,2.1,0,0,0-1.754-.863,2.075,2.075,0,0,0-1.727.852A3.925,3.925,0,0,0,21.43-4.133ZM40.75,0H33.3V-1.039l3.938-4.375a9.355,9.355,0,0,0,1.207-1.613,2.693,2.693,0,0,0,.332-1.285,2.041,2.041,0,0,0-.539-1.461,1.885,1.885,0,0,0-1.437-.57,2.232,2.232,0,0,0-1.676.613,2.343,2.343,0,0,0-.6,1.707H33.078a3.355,3.355,0,0,1,1.012-2.539,3.751,3.751,0,0,1,2.707-.969A3.6,3.6,0,0,1,39.3-10.7a2.838,2.838,0,0,1,.922,2.215q0,1.68-2.141,4l-3.047,3.3H40.75Zm8.664-4.852a6.61,6.61,0,0,1-.867,3.773A3.084,3.084,0,0,1,45.836.156a3.107,3.107,0,0,1-2.7-1.207,6.274,6.274,0,0,1-.906-3.605v-1.93a6.463,6.463,0,0,1,.867-3.727,3.108,3.108,0,0,1,2.719-1.219,3.136,3.136,0,0,1,2.7,1.176,6.237,6.237,0,0,1,.891,3.629ZM47.969-6.828A5.3,5.3,0,0,0,47.453-9.5a1.775,1.775,0,0,0-1.633-.84,1.751,1.751,0,0,0-1.617.836,5.171,5.171,0,0,0-.523,2.57v2.313A5.381,5.381,0,0,0,44.215-1.9a1.771,1.771,0,0,0,1.621.879,1.747,1.747,0,0,0,1.59-.828,5.186,5.186,0,0,0,.543-2.609ZM56.016,0H54.563V-9.633l-2.914,1.07V-9.875l4.141-1.555h.227ZM67.148-8.406A2.641,2.641,0,0,1,66.7-6.891a3.057,3.057,0,0,1-1.215,1.039,3.26,3.26,0,0,1,1.41,1.117,2.811,2.811,0,0,1,.52,1.664,2.972,2.972,0,0,1-1,2.352A3.827,3.827,0,0,1,63.8.156a3.81,3.81,0,0,1-2.629-.879A2.986,2.986,0,0,1,60.18-3.07a2.9,2.9,0,0,1,.5-1.664,3.136,3.136,0,0,1,1.395-1.125,2.981,2.981,0,0,1-1.2-1.039,2.679,2.679,0,0,1-.437-1.508,2.94,2.94,0,0,1,.922-2.281,3.458,3.458,0,0,1,2.43-.844,3.461,3.461,0,0,1,2.426.844A2.934,2.934,0,0,1,67.148-8.406Zm-1.18,5.3a2.1,2.1,0,0,0-.605-1.555,2.147,2.147,0,0,0-1.582-.6,2.11,2.11,0,0,0-1.566.594,2.12,2.12,0,0,0-.59,1.563A2.019,2.019,0,0,0,62.2-1.578a2.2,2.2,0,0,0,1.6.555,2.2,2.2,0,0,0,1.594-.559A2.014,2.014,0,0,0,65.969-3.1ZM63.8-10.344a1.865,1.865,0,0,0-1.379.527,1.937,1.937,0,0,0-.527,1.434,1.928,1.928,0,0,0,.52,1.4,1.844,1.844,0,0,0,1.387.535,1.844,1.844,0,0,0,1.387-.535,1.928,1.928,0,0,0,.52-1.4A1.929,1.929,0,0,0,65.164-9.8,1.839,1.839,0,0,0,63.8-10.344Z" transform="translate(-1203.474 -5625.567)" fill="#12263f"/>
    <path id="Trazado_905801" data-name="Trazado 905801" d="M10.063,0H8.555L2.828-8.766V0H1.32V-11.375H2.828L8.57-2.57v-8.8h1.492Zm7.656-.836a3.07,3.07,0,0,1-2.477.992,2.628,2.628,0,0,1-2.059-.785,3.4,3.4,0,0,1-.715-2.324v-5.5h1.445v5.461q0,1.922,1.563,1.922A2.163,2.163,0,0,0,17.68-2.3V-8.453h1.445V0H17.75ZM16.547-12H18.3L16.2-9.7l-1.164,0ZM22.68-8.453l.039.938a3.122,3.122,0,0,1,2.508-1.094A2.417,2.417,0,0,1,27.641-7.25a3.2,3.2,0,0,1,1.1-.984,3.242,3.242,0,0,1,1.6-.375q2.781,0,2.828,2.945V0H31.719V-5.578A1.941,1.941,0,0,0,31.3-6.934a1.823,1.823,0,0,0-1.391-.449,1.916,1.916,0,0,0-1.336.48,1.949,1.949,0,0,0-.617,1.293V0H26.508V-5.539a1.613,1.613,0,0,0-1.8-1.844,1.934,1.934,0,0,0-1.945,1.211V0H21.313V-8.453ZM38.852.156a3.693,3.693,0,0,1-2.8-1.129,4.19,4.19,0,0,1-1.078-3.02v-.266a5.073,5.073,0,0,1,.48-2.246A3.748,3.748,0,0,1,36.8-8.051a3.378,3.378,0,0,1,1.871-.559,3.166,3.166,0,0,1,2.563,1.086,4.7,4.7,0,0,1,.914,3.109v.6H36.422a3,3,0,0,0,.73,2.02,2.3,2.3,0,0,0,1.777.77,2.517,2.517,0,0,0,1.3-.312,3.259,3.259,0,0,0,.93-.828l.883.688A3.55,3.55,0,0,1,38.852.156Zm-.18-7.578a1.928,1.928,0,0,0-1.469.637A3.1,3.1,0,0,0,36.469-5H40.7v-.109a2.753,2.753,0,0,0-.594-1.707A1.815,1.815,0,0,0,38.672-7.422Zm9.234.266a4.331,4.331,0,0,0-.711-.055A1.9,1.9,0,0,0,45.266-6V0H43.82V-8.453h1.406l.023.977a2.251,2.251,0,0,1,2.016-1.133,1.477,1.477,0,0,1,.641.109ZM48.551-4.3a4.993,4.993,0,0,1,.488-2.234A3.643,3.643,0,0,1,50.4-8.07a3.7,3.7,0,0,1,1.988-.539,3.565,3.565,0,0,1,2.793,1.2,4.6,4.6,0,0,1,1.066,3.18v.1a5.036,5.036,0,0,1-.473,2.215A3.589,3.589,0,0,1,54.422-.391,3.743,3.743,0,0,1,52.4.156a3.556,3.556,0,0,1-2.785-1.2A4.575,4.575,0,0,1,48.551-4.2ZM50-4.133a3.616,3.616,0,0,0,.652,2.258,2.088,2.088,0,0,0,1.746.852,2.075,2.075,0,0,0,1.75-.863A3.955,3.955,0,0,0,54.8-4.3a3.61,3.61,0,0,0-.66-2.254,2.1,2.1,0,0,0-1.754-.863,2.075,2.075,0,0,0-1.727.852A3.925,3.925,0,0,0,50-4.133ZM61.668-4.3a4.952,4.952,0,0,1,.922-3.129A2.915,2.915,0,0,1,65-8.609a2.932,2.932,0,0,1,2.352,1.016V-12H68.8V0H67.473L67.4-.906A2.943,2.943,0,0,1,64.989.156a2.887,2.887,0,0,1-2.395-1.2,5.008,5.008,0,0,1-.926-3.141Zm1.445.164a3.749,3.749,0,0,0,.594,2.25,1.92,1.92,0,0,0,1.641.813A2.109,2.109,0,0,0,67.356-2.3V-6.187a2.125,2.125,0,0,0-1.992-1.2,1.929,1.929,0,0,0-1.656.82A4.128,4.128,0,0,0,63.114-4.133ZM74.551.156a3.693,3.693,0,0,1-2.8-1.129,4.19,4.19,0,0,1-1.078-3.02v-.266a5.073,5.073,0,0,1,.48-2.246A3.748,3.748,0,0,1,72.5-8.051a3.378,3.378,0,0,1,1.871-.559,3.166,3.166,0,0,1,2.563,1.086,4.7,4.7,0,0,1,.914,3.109v.6H72.122a3,3,0,0,0,.73,2.02,2.3,2.3,0,0,0,1.777.77,2.517,2.517,0,0,0,1.3-.312,3.259,3.259,0,0,0,.93-.828l.883.688A3.55,3.55,0,0,1,74.551.156Zm-.18-7.578a1.928,1.928,0,0,0-1.469.637A3.1,3.1,0,0,0,72.169-5H76.4v-.109a2.753,2.753,0,0,0-.594-1.707A1.815,1.815,0,0,0,74.372-7.422Zm16.25,3.289a5.062,5.062,0,0,1-.883,3.109A2.829,2.829,0,0,1,87.348.156,3.1,3.1,0,0,1,84.926-.82V3.25H83.481v-11.7H84.8l.07.938a2.977,2.977,0,0,1,2.453-1.094,2.882,2.882,0,0,1,2.41,1.148,5.117,5.117,0,0,1,.887,3.2ZM89.176-4.3a3.735,3.735,0,0,0-.609-2.258A1.963,1.963,0,0,0,86.9-7.383a2.125,2.125,0,0,0-1.969,1.164V-2.18a2.129,2.129,0,0,0,1.984,1.156,1.954,1.954,0,0,0,1.652-.824A4.077,4.077,0,0,0,89.176-4.3ZM95.965.156a3.693,3.693,0,0,1-2.8-1.129,4.19,4.19,0,0,1-1.078-3.02v-.266a5.073,5.073,0,0,1,.48-2.246,3.748,3.748,0,0,1,1.344-1.547,3.378,3.378,0,0,1,1.871-.559,3.166,3.166,0,0,1,2.563,1.086,4.7,4.7,0,0,1,.914,3.109v.6H93.536a3,3,0,0,0,.73,2.02,2.3,2.3,0,0,0,1.777.77,2.517,2.517,0,0,0,1.3-.312,3.259,3.259,0,0,0,.93-.828l.883.688A3.55,3.55,0,0,1,95.965.156Zm-.18-7.578a1.928,1.928,0,0,0-1.469.637A3.1,3.1,0,0,0,93.583-5h4.234v-.109a2.753,2.753,0,0,0-.594-1.707A1.815,1.815,0,0,0,95.786-7.422Zm9.234.266a4.331,4.331,0,0,0-.711-.055A1.9,1.9,0,0,0,102.379-6V0h-1.445V-8.453h1.406l.023.977a2.251,2.251,0,0,1,2.016-1.133,1.477,1.477,0,0,1,.641.109Zm6.25,4.914a1.064,1.064,0,0,0-.441-.91,4.249,4.249,0,0,0-1.539-.559,7.277,7.277,0,0,1-1.742-.562,2.479,2.479,0,0,1-.953-.781,1.869,1.869,0,0,1-.309-1.078,2.193,2.193,0,0,1,.879-1.758,3.432,3.432,0,0,1,2.246-.719,3.532,3.532,0,0,1,2.332.742,2.357,2.357,0,0,1,.895,1.9h-1.453a1.3,1.3,0,0,0-.5-1.023,1.888,1.888,0,0,0-1.27-.43,1.976,1.976,0,0,0-1.234.344,1.082,1.082,0,0,0-.445.9.877.877,0,0,0,.414.789,5.1,5.1,0,0,0,1.5.508A7.8,7.8,0,0,1,111.4-4.3a2.558,2.558,0,0,1,1,.809,1.988,1.988,0,0,1,.324,1.152,2.163,2.163,0,0,1-.906,1.816,3.8,3.8,0,0,1-2.352.684,4.257,4.257,0,0,1-1.8-.359,2.922,2.922,0,0,1-1.223-1A2.42,2.42,0,0,1,106-2.6h1.445a1.5,1.5,0,0,0,.582,1.152,2.258,2.258,0,0,0,1.434.426,2.331,2.331,0,0,0,1.316-.332A1.02,1.02,0,0,0,111.27-2.242ZM114.215-4.3a4.993,4.993,0,0,1,.488-2.234,3.643,3.643,0,0,1,1.359-1.531,3.7,3.7,0,0,1,1.988-.539,3.565,3.565,0,0,1,2.793,1.2,4.6,4.6,0,0,1,1.066,3.18v.1a5.036,5.036,0,0,1-.473,2.215,3.589,3.589,0,0,1-1.352,1.527,3.743,3.743,0,0,1-2.02.547,3.556,3.556,0,0,1-2.785-1.2A4.575,4.575,0,0,1,114.215-4.2Zm1.453.172a3.616,3.616,0,0,0,.652,2.258,2.088,2.088,0,0,0,1.746.852,2.075,2.075,0,0,0,1.75-.863,3.955,3.955,0,0,0,.648-2.418,3.61,3.61,0,0,0-.66-2.254,2.1,2.1,0,0,0-1.754-.863,2.075,2.075,0,0,0-1.727.852A3.925,3.925,0,0,0,115.669-4.133Zm9.422-4.32.047,1.063a3.08,3.08,0,0,1,2.531-1.219q2.68,0,2.7,3.023V0h-1.445V-5.594a1.946,1.946,0,0,0-.418-1.352,1.675,1.675,0,0,0-1.277-.437A2.086,2.086,0,0,0,126-7.008a2.546,2.546,0,0,0-.828.984V0h-1.445V-8.453ZM137.77,0a3.036,3.036,0,0,1-.2-.891A3.225,3.225,0,0,1,135.161.156a2.984,2.984,0,0,1-2.051-.707,2.287,2.287,0,0,1-.8-1.793,2.39,2.39,0,0,1,1-2.051,4.733,4.733,0,0,1,2.824-.73h1.406v-.664A1.623,1.623,0,0,0,137.09-7a1.821,1.821,0,0,0-1.336-.449,2.107,2.107,0,0,0-1.3.391,1.151,1.151,0,0,0-.523.945h-1.453a2,2,0,0,1,.449-1.223,3.066,3.066,0,0,1,1.219-.934,4.1,4.1,0,0,1,1.691-.344,3.342,3.342,0,0,1,2.289.73,2.635,2.635,0,0,1,.859,2.012v3.891a4.757,4.757,0,0,0,.3,1.852V0Zm-2.4-1.1a2.54,2.54,0,0,0,1.289-.352,2.127,2.127,0,0,0,.883-.914V-4.1h-1.133q-2.656,0-2.656,1.555a1.316,1.316,0,0,0,.453,1.063A1.742,1.742,0,0,0,135.372-1.1Zm10.8-1.141a1.064,1.064,0,0,0-.441-.91,4.249,4.249,0,0,0-1.539-.559,7.277,7.277,0,0,1-1.742-.562,2.479,2.479,0,0,1-.953-.781,1.869,1.869,0,0,1-.309-1.078,2.193,2.193,0,0,1,.879-1.758,3.432,3.432,0,0,1,2.246-.719,3.532,3.532,0,0,1,2.332.742,2.357,2.357,0,0,1,.895,1.9H146.09a1.3,1.3,0,0,0-.5-1.023,1.888,1.888,0,0,0-1.27-.43,1.976,1.976,0,0,0-1.234.344,1.082,1.082,0,0,0-.445.9.877.877,0,0,0,.414.789,5.1,5.1,0,0,0,1.5.508A7.8,7.8,0,0,1,146.3-4.3a2.558,2.558,0,0,1,1,.809,1.988,1.988,0,0,1,.324,1.152,2.163,2.163,0,0,1-.906,1.816,3.8,3.8,0,0,1-2.352.684,4.257,4.257,0,0,1-1.8-.359,2.922,2.922,0,0,1-1.223-1A2.42,2.42,0,0,1,140.9-2.6h1.445a1.5,1.5,0,0,0,.582,1.152,2.258,2.258,0,0,0,1.434.426,2.331,2.331,0,0,0,1.316-.332A1.02,1.02,0,0,0,146.176-2.242Z" transform="translate(-1477.587 -5705.63) rotate(-90)" fill="#12263f"/>
    <g id="Grupo_1117661" data-name="Grupo 1117661" transform="translate(-1509 -5965)">
      <g id="Grupo_1117660" data-name="Grupo 1117660" clip-path="url(#clip-path)">
        <line id="Línea_3303" data-name="Línea 3303" x2="291.987" transform="translate(91.711 320.524)" fill="none" stroke="#7d3a1b" stroke-miterlimit="10" stroke-width="1"/>
      </g>
    </g>
  </g>
</svg>
