<svg xmlns="http://www.w3.org/2000/svg" xmlns:xlink="http://www.w3.org/1999/xlink" width="1030" height="440" viewBox="0 0 1030 440">
  <defs>
    <clipPath id="clip-path">
      <path id="Trazado_905365" data-name="Trazado 905365" d="M283,0H0V440H1030V0Z" fill="none"/>
    </clipPath>
    <clipPath id="clip-path-3">
      <path id="Trazado_905375" data-name="Trazado 905375" d="M140.83,264.54a30.307,30.307,0,0,0,5.98,1.86c1.97.42,4.39.58,6.13,1.57,10.1,5.77,13.24,18.31,15.25,27.7q4.755,22.23,7.92,44.69c2.33,16.54,2.69,32.48,5.8,48.87q2.85,15.06,4.47,30.26c.66,6.18,4.45,17.03.33,22.75-4.06,5.64-19.84,4.39-27.46,5.06-22.18,1.95-44.42,3.54-66.72,3.88-8.11.12-16.23.12-24.33-.16-7.39-.25-9.63.13-9.94-6.29-.6-12.3,4.47-26.65,6.52-38.87,1.87-11.17,2.34-23.55,6.08-34.36,6.8-19.66,5.2-40.95,5.62-61.53.17-8.48.71-17.27-.39-25.72-.3-2.31-1.1-4.37-.71-6.7.12-.71-.08-2.28.37-2.84.68-.83,3.05-.81,4.11-.99,5.5,0,12.34-2.46,17.57-3.89a2.55,2.55,0,0,1,1.19-.13,2.221,2.221,0,0,1,1.19.85,67.7,67.7,0,0,0,9.51,9.41,24.34,24.34,0,0,0,12.87,5.15,18.319,18.319,0,0,0,15.02-6.44,9.09,9.09,0,0,0,2.25-6.11c.03-1.24,1.15-8.1-.12-8.72.51.25,1,.47,1.49.68Z" fill="none"/>
    </clipPath>
  </defs>
  <g id="Grupo_1118385" data-name="Grupo 1118385" transform="translate(-284.578 -2428)">
    <path id="Trazado_905320" data-name="Trazado 905320" d="M283,0H0V440H1030V0Z" transform="translate(284.578 2428)" fill="#feebcf"/>
    <g id="Grupo_1118290" data-name="Grupo 1118290" transform="translate(284.578 2428)" clip-path="url(#clip-path)">
      <g id="Grupo_1118289" data-name="Grupo 1118289">
        <path id="Trazado_905321" data-name="Trazado 905321" d="M691.37,380.26c8.4,3.91,14.21,7.94,19.54,15.94" fill="#f9d8ac"/>
        <path id="Trazado_905322" data-name="Trazado 905322" d="M1.07,363.36q-3.18-13.08-6.37-26.15c-.55-2.26-1.5-4.93-3.78-5.41a4.224,4.224,0,0,0-4.02,1.8,12.347,12.347,0,0,0-1.8,4.25c-2.62,9.27-7.26,19.66-8.06,29.27-.47,5.62,4.42,7.62,9.65,7.98-.45,2.71-.92,5.61-.57,7.91.22,1.46-.12,1.84,1.08,2.84.46.38,3.79.54,3.79.68.03-3.82.05-7.64.08-11.46a32.147,32.147,0,0,0,4.24-.61C-2.6,374-.42,373.18.78,371.4c1.54-2.3.95-5.35.29-8.04Z" fill="#f9d8ac"/>
        <path id="Trazado_905323" data-name="Trazado 905323" d="M37.66,369.24q-3.18-13.08-6.37-26.15c-.55-2.26-1.5-4.93-3.78-5.41a4.224,4.224,0,0,0-4.02,1.8,12.347,12.347,0,0,0-1.8,4.25C19.07,353,14.43,363.39,13.63,373c-.47,5.62,4.42,7.62,9.65,7.98-.45,2.71-.92,5.61-.57,7.91.22,1.46-.12,1.84,1.08,2.84.46.38,3.79.54,3.79.68.03-3.82.05-7.64.08-11.46a32.147,32.147,0,0,0,4.24-.61c2.09-.46,4.27-1.28,5.47-3.06C38.91,374.98,38.32,371.93,37.66,369.24Z" fill="#f9d8ac"/>
        <g id="Grupo_1118285" data-name="Grupo 1118285">
          <path id="Trazado_905324" data-name="Trazado 905324" d="M-49.36,424.95a200.078,200.078,0,0,1-.6,27.47H276.66a110.975,110.975,0,0,0-71.3-25.93H160.92a72.58,72.58,0,0,1-51.32-21.26,72.58,72.58,0,0,0-51.32-21.26H-2.5a108.2,108.2,0,0,1-53.65-14.24c3.18,18.25,5.83,36.72,6.78,55.21Z" fill="#f9d8ac"/>
          <g id="Grupo_1118284" data-name="Grupo 1118284">
            <path id="Trazado_905325" data-name="Trazado 905325" d="M17.14,407.8c4.41,0,4.41-6.85,0-6.85s-4.41,6.85,0,6.85Z" fill="#f9d8ac"/>
            <path id="Trazado_905326" data-name="Trazado 905326" d="M65.96,402.75q4.335,3.645,8.67,7.28a2.951,2.951,0,0,0,1.9.81,2.74,2.74,0,0,0,1.97-4.68q-4.335-3.645-8.67-7.28a3,3,0,0,0-1.9-.81,2.74,2.74,0,0,0-1.97,4.68Z" fill="#f9d8ac"/>
          </g>
        </g>
        <path id="Trazado_905327" data-name="Trazado 905327" d="M956.98,196.84q7.23-29.715,14.47-59.44c1.25-5.14,3.41-11.21,8.6-12.29,3.45-.72,7,1.3,9.14,4.1s3.13,6.28,4.09,9.67c5.96,21.08,16.5,44.68,18.31,66.53,1.06,12.78-10.05,17.31-21.94,18.14,1.03,6.17,2.09,12.75,1.29,17.97-.51,3.31.27,4.18-2.45,6.46-1.03.87-8.61,1.22-8.61,1.55q-.09-13.035-.18-26.06a70.845,70.845,0,0,1-9.63-1.4c-4.75-1.05-9.71-2.92-12.42-6.96-3.5-5.22-2.15-12.17-.66-18.27Z" fill="#f9d8ac"/>
        <path id="Trazado_905328" data-name="Trazado 905328" d="M899.52,217.48q5.97-24.525,11.94-49.04c1.03-4.24,2.82-9.25,7.09-10.14,2.84-.59,5.78,1.07,7.54,3.38s2.58,5.18,3.37,7.98c4.91,17.39,13.61,36.86,15.11,54.88.87,10.55-8.29,14.28-18.1,14.96.85,5.09,1.73,10.52,1.06,14.82-.42,2.73.23,3.45-2.02,5.33-.85.72-7.1,1.01-7.1,1.28q-.075-10.74-.14-21.49a59.1,59.1,0,0,1-7.95-1.15c-3.92-.87-8.01-2.41-10.25-5.74-2.89-4.3-1.77-10.04-.55-15.07Z" fill="#f9d8ac"/>
        <path id="Trazado_905329" data-name="Trazado 905329" d="M621.39,303.78q3.84-15.765,7.68-31.54c.66-2.73,1.81-5.95,4.56-6.52a5.115,5.115,0,0,1,4.85,2.17,15.079,15.079,0,0,1,2.17,5.13c3.16,11.19,8.76,23.71,9.72,35.3.56,6.78-5.33,9.19-11.64,9.63.55,3.27,1.11,6.76.68,9.54-.27,1.76.15,2.22-1.3,3.43-.55.46-4.57.65-4.57.82q-.045-6.915-.09-13.83a38.572,38.572,0,0,1-5.11-.74c-2.52-.56-5.15-1.55-6.59-3.69-1.86-2.77-1.14-6.46-.35-9.7Z" fill="#f9d8ac"/>
        <path id="Trazado_905330" data-name="Trazado 905330" d="M523.66,301.46q3.84-15.765,7.68-31.54c.66-2.73,1.81-5.95,4.56-6.52a5.115,5.115,0,0,1,4.85,2.17,15.079,15.079,0,0,1,2.17,5.13c3.16,11.19,8.76,23.71,9.72,35.3.56,6.78-5.33,9.19-11.64,9.63.55,3.27,1.11,6.76.68,9.54-.27,1.76.15,2.22-1.3,3.43-.55.46-4.57.65-4.57.82l-.09-13.83a38.572,38.572,0,0,1-5.11-.74c-2.52-.56-5.15-1.55-6.59-3.69-1.86-2.77-1.14-6.46-.35-9.7Z" fill="#f9d8ac"/>
        <path id="Trazado_905331" data-name="Trazado 905331" d="M373.08,361.49q3.39-13.92,6.77-27.83c.59-2.41,1.6-5.25,4.03-5.76a4.507,4.507,0,0,1,4.28,1.92,13.222,13.222,0,0,1,1.92,4.53c2.79,9.87,7.73,20.92,8.58,31.15.5,5.99-4.71,8.11-10.27,8.49.48,2.89.98,5.97.6,8.41-.24,1.55.13,1.96-1.15,3.02-.48.41-4.03.57-4.03.73q-.045-6.105-.08-12.2a34.071,34.071,0,0,1-4.51-.65c-2.22-.49-4.55-1.37-5.82-3.26-1.64-2.44-1.01-5.7-.31-8.56Z" fill="#f9d8ac"/>
        <path id="Trazado_905332" data-name="Trazado 905332" d="M414.66,345.79q3.81-15.675,7.63-31.34c.66-2.71,1.8-5.91,4.53-6.48a5.068,5.068,0,0,1,4.82,2.16,15.108,15.108,0,0,1,2.16,5.1c3.14,11.11,8.7,23.56,9.66,35.08.56,6.74-5.3,9.13-11.57,9.56.54,3.25,1.1,6.72.68,9.47-.27,1.74.14,2.2-1.29,3.41-.55.46-4.54.64-4.54.82l-.09-13.74a36.508,36.508,0,0,1-5.08-.74c-2.5-.56-5.12-1.54-6.55-3.67-1.85-2.75-1.13-6.41-.35-9.63Z" fill="#f9d8ac"/>
        <g id="Grupo_1118288" data-name="Grupo 1118288">
          <path id="Trazado_905333" data-name="Trazado 905333" d="M95.1,452.42a110.975,110.975,0,0,1,71.3-25.93h44.44a72.58,72.58,0,0,0,51.32-21.26h0a72.58,72.58,0,0,1,51.32-21.26h60.78a108.189,108.189,0,0,0,76.52-31.7h0a108.232,108.232,0,0,1,76.52-31.7H691.22a87.394,87.394,0,0,0,35.72-7.78,132.28,132.28,0,0,1,53.86-11.26h12.86c29.23,0,57.25-9.27,77.92-25.78l15.24-12.17c20.67-16.51,48.69-25.78,77.92-25.78h93.27V452.42H95.1Z" fill="#f9d8ac"/>
          <path id="Trazado_905334" data-name="Trazado 905334" d="M1058,294.3h-41.25c-13.7,0-26.84,4.43-36.53,12.31h0c-9.69,7.88-22.83,12.31-36.53,12.31H883.45c-10.57,0-20.7,3.41-28.17,9.49l-.87.71c-7.47,6.08-17.6,9.49-28.17,9.49h0c-10.57,0-20.7,3.41-28.17,9.49l-49.9,40.59c-7.47,6.08-17.6,9.49-28.17,9.49H689.88c-10.57,0-20.7-3.41-28.17-9.49L649.2,378.52c-8.33-6.78-19.64-10.59-31.42-10.59h0c-11.79,0-23.09,3.81-31.42,10.59l-28.02,22.79c-7.41,6.03-17.46,9.41-27.93,9.41h0c-10.48,0-20.53,3.39-27.93,9.41l-3.9,3.17c-7.41,6.03-17.46,9.41-27.93,9.41h-33.5c-10.38,0-20.34,3.32-27.73,9.25l-13.06,10.47h661.66V294.31Z" fill="#f9d8ac"/>
          <g id="Grupo_1118286" data-name="Grupo 1118286">
            <path id="Trazado_905335" data-name="Trazado 905335" d="M625.41,387.94c-4.41,0-4.41-6.85,0-6.85s4.41,6.85,0,6.85Z" fill="#f9d8ac"/>
            <path id="Trazado_905336" data-name="Trazado 905336" d="M602.82,394.18c-4.41,0-4.41-6.85,0-6.85s4.41,6.85,0,6.85Z" fill="#f9d8ac"/>
            <path id="Trazado_905337" data-name="Trazado 905337" d="M785.42,381.42c-4.41,0-4.41-6.85,0-6.85s4.41,6.85,0,6.85Z" fill="#f9d8ac"/>
            <path id="Trazado_905338" data-name="Trazado 905338" d="M618.23,402.44c-4.41,0-4.41-6.85,0-6.85s4.41,6.85,0,6.85Z" fill="#f9d8ac"/>
            <path id="Trazado_905339" data-name="Trazado 905339" d="M809.38,366.75c-4.41,0-4.41-6.85,0-6.85s4.41,6.85,0,6.85Z" fill="#f9d8ac"/>
            <path id="Trazado_905340" data-name="Trazado 905340" d="M900.33,342.32c-4.41,0-4.41-6.85,0-6.85s4.41,6.85,0,6.85Z" fill="#f9d8ac"/>
            <path id="Trazado_905341" data-name="Trazado 905341" d="M1006.78,322.47c-4.41,0-4.41-6.85,0-6.85s4.41,6.85,0,6.85Z" fill="#f9d8ac"/>
            <path id="Trazado_905342" data-name="Trazado 905342" d="M970.59,343.03c-4.41,0-4.41-6.85,0-6.85s4.41,6.85,0,6.85Z" fill="#f9d8ac"/>
            <path id="Trazado_905343" data-name="Trazado 905343" d="M1037.77,350.21q-5.67-2.79-11.35-5.58a2.757,2.757,0,0,1-.98-3.75,2.808,2.808,0,0,1,3.75-.98q5.67,2.79,11.35,5.58a2.757,2.757,0,0,1,.98,3.75,2.808,2.808,0,0,1-3.75.98Z" fill="#f9d8ac"/>
            <path id="Trazado_905344" data-name="Trazado 905344" d="M895.38,383.77q-5.34,1.26-10.68,2.51a2.739,2.739,0,0,1-1.46-5.28q5.34-1.26,10.68-2.51a2.739,2.739,0,0,1,1.46,5.28Z" fill="#f9d8ac"/>
            <path id="Trazado_905345" data-name="Trazado 905345" d="M954.34,366.74q-.945,5.34-1.88,10.68a2.741,2.741,0,0,1-3.37,1.91,2.809,2.809,0,0,1-1.91-3.37q.945-5.34,1.88-10.68a2.749,2.749,0,0,1,3.37-1.91,2.809,2.809,0,0,1,1.91,3.37Z" fill="#f9d8ac"/>
            <path id="Trazado_905346" data-name="Trazado 905346" d="M646.13,394.48l10.55,2.97a2.739,2.739,0,0,1-1.46,5.28l-10.55-2.97a2.739,2.739,0,0,1,1.46-5.28Z" fill="#f9d8ac"/>
            <path id="Trazado_905347" data-name="Trazado 905347" d="M809.28,390.15q-4.665-3.2-9.34-6.4a2.972,2.972,0,0,1-1.29-1.62,2.8,2.8,0,0,1,.24-2.12,2.77,2.77,0,0,1,3.73-1.05q4.665,3.2,9.34,6.4a2.972,2.972,0,0,1,1.29,1.62,2.8,2.8,0,0,1-.24,2.12,2.77,2.77,0,0,1-3.73,1.05Z" fill="#f9d8ac"/>
            <path id="Trazado_905348" data-name="Trazado 905348" d="M874,351.06c-1.89-2.09-3.79-4.17-5.68-6.25a2.873,2.873,0,0,1-.8-1.94,2.827,2.827,0,0,1,.8-1.94,2.752,2.752,0,0,1,3.88,0l5.68,6.25a2.873,2.873,0,0,1,.8,1.94,2.827,2.827,0,0,1-.8,1.94,2.752,2.752,0,0,1-3.88,0Z" fill="#f9d8ac"/>
          </g>
          <g id="Grupo_1118287" data-name="Grupo 1118287">
            <path id="Trazado_905349" data-name="Trazado 905349" d="M920.57,283.92c-4.41,0-4.41-6.85,0-6.85s4.41,6.85,0,6.85Z" fill="#f9d8ac"/>
            <path id="Trazado_905350" data-name="Trazado 905350" d="M979.67,276.49c-4.41,0-4.41-6.85,0-6.85s4.41,6.85,0,6.85Z" fill="#f9d8ac"/>
            <path id="Trazado_905351" data-name="Trazado 905351" d="M944.53,269.25c-4.41,0-4.41-6.85,0-6.85s4.41,6.85,0,6.85Z" fill="#f9d8ac"/>
            <path id="Trazado_905352" data-name="Trazado 905352" d="M736.02,340.52c-4.41,0-4.41-6.85,0-6.85s4.41,6.85,0,6.85Z" fill="#f9d8ac"/>
            <path id="Trazado_905353" data-name="Trazado 905353" d="M715.58,365.72c-4.41,0-4.41-6.85,0-6.85s4.41,6.85,0,6.85Z" fill="#f9d8ac"/>
            <path id="Trazado_905354" data-name="Trazado 905354" d="M696.42,348.54c-4.41,0-4.41-6.85,0-6.85s4.41,6.85,0,6.85Z" fill="#f9d8ac"/>
            <path id="Trazado_905355" data-name="Trazado 905355" d="M550.48,356.92c-4.41,0-4.41-6.85,0-6.85s4.41,6.85,0,6.85Z" fill="#f9d8ac"/>
            <path id="Trazado_905356" data-name="Trazado 905356" d="M520.16,372.21c-4.41,0-4.41-6.85,0-6.85s4.41,6.85,0,6.85Z" fill="#f9d8ac"/>
            <path id="Trazado_905357" data-name="Trazado 905357" d="M945.82,293.11q-4.665-3.2-9.34-6.4a2.972,2.972,0,0,1-1.29-1.62,2.8,2.8,0,0,1,.24-2.12,2.77,2.77,0,0,1,3.73-1.05q4.665,3.2,9.34,6.4a2.972,2.972,0,0,1,1.29,1.62,2.8,2.8,0,0,1-.24,2.12,2.77,2.77,0,0,1-3.73,1.05Z" fill="#f9d8ac"/>
            <path id="Trazado_905358" data-name="Trazado 905358" d="M778.51,333.14q-4.665-3.2-9.34-6.4a2.972,2.972,0,0,1-1.29-1.62,2.8,2.8,0,0,1,.24-2.12,2.77,2.77,0,0,1,3.73-1.05q4.665,3.2,9.34,6.4a2.972,2.972,0,0,1,1.29,1.62,2.8,2.8,0,0,1-.24,2.12,2.77,2.77,0,0,1-3.73,1.05Z" fill="#f9d8ac"/>
            <path id="Trazado_905359" data-name="Trazado 905359" d="M647.59,343.48q-4.335,3.645-8.67,7.28a2.951,2.951,0,0,1-1.9.81,2.74,2.74,0,0,1-1.97-4.68q4.335-3.645,8.67-7.28a3,3,0,0,1,1.9-.81,2.74,2.74,0,0,1,1.97,4.68Z" fill="#f9d8ac"/>
            <path id="Trazado_905360" data-name="Trazado 905360" d="M354.62,407.8c-4.41,0-4.41-6.85,0-6.85s4.41,6.85,0,6.85Z" fill="#f9d8ac"/>
            <path id="Trazado_905361" data-name="Trazado 905361" d="M305.79,402.75q-4.335,3.645-8.67,7.28a2.951,2.951,0,0,1-1.9.81,2.74,2.74,0,0,1-1.97-4.68q4.335-3.645,8.67-7.28a3,3,0,0,1,1.9-.81,2.74,2.74,0,0,1,1.97,4.68Z" fill="#f9d8ac"/>
            <path id="Trazado_905362" data-name="Trazado 905362" d="M461.71,379.23q-4.335,3.645-8.67,7.28a2.951,2.951,0,0,1-1.9.81,2.74,2.74,0,0,1-1.97-4.68q4.335-3.645,8.67-7.28a2.951,2.951,0,0,1,1.9-.81,2.74,2.74,0,0,1,1.97,4.68Z" fill="#f9d8ac"/>
            <path id="Trazado_905363" data-name="Trazado 905363" d="M524.26,355.66q-5.16-2.325-10.33-4.64a2.916,2.916,0,0,1-1.55-1.36,2.743,2.743,0,0,1-.14-2.12,2.788,2.788,0,0,1,3.49-1.7q5.16,2.325,10.33,4.64a2.916,2.916,0,0,1,1.55,1.36,2.743,2.743,0,0,1,.14,2.12,2.788,2.788,0,0,1-3.49,1.7Z" fill="#f9d8ac"/>
            <path id="Trazado_905364" data-name="Trazado 905364" d="M1018.91,271.2l-5.68-6.25a2.873,2.873,0,0,1-.8-1.94,2.827,2.827,0,0,1,.8-1.94,2.752,2.752,0,0,1,3.88,0l5.68,6.25a2.873,2.873,0,0,1,.8,1.94,2.827,2.827,0,0,1-.8,1.94,2.752,2.752,0,0,1-3.88,0Z" fill="#f9d8ac"/>
          </g>
        </g>
      </g>
    </g>
    <g id="Grupo_1118291" data-name="Grupo 1118291" transform="translate(284.578 2428)">
      <path id="Trazado_905366" data-name="Trazado 905366" d="M949.27,388.4c0-174.33-141.32-315.66-315.66-315.66S317.95,214.06,317.95,388.4h.08a5.288,5.288,0,0,0-.08.8,5.38,5.38,0,0,0,10.76,0,5.165,5.165,0,0,0-.08-.8h.08c0-168.39,136.51-304.89,304.89-304.89S938.15,219.69,938.49,387.79a6,6,0,0,0-.06.61,5.38,5.38,0,1,0,10.76,0h.07Z" fill="#727997"/>
      <path id="Trazado_905367" data-name="Trazado 905367" d="M371.06,264.58a21.78,21.78,0,1,1-21.78-21.78A21.778,21.778,0,0,1,371.06,264.58Z" fill="#727997"/>
      <path id="Trazado_905368" data-name="Trazado 905368" d="M536.77,100.9a21.78,21.78,0,1,1-21.78-21.78A21.778,21.778,0,0,1,536.77,100.9Z" fill="#727997"/>
      <path id="Trazado_905369" data-name="Trazado 905369" d="M773.21,95.66a21.78,21.78,0,1,1-21.78-21.78A21.778,21.778,0,0,1,773.21,95.66Z" fill="#727997"/>
      <circle id="Elipse_11609" data-name="Elipse 11609" cx="21.78" cy="21.78" r="21.78" transform="translate(893.274 283.081) rotate(-80.78)" fill="#727997"/>
    </g>
    <path id="Trazado_905370" data-name="Trazado 905370" d="M649.57,112.4c-158.39-9.55-288.14,115.87-288.14,275.17h0a5.55,5.55,0,0,0,5.55,5.55H899.09a5.55,5.55,0,0,0,5.55-5.55v-2.99c0-145.02-112.76-263.6-255.06-272.18Z" transform="translate(284.578 2428)" fill="#7d3a1b"/>
    <g id="Grupo_1118309" data-name="Grupo 1118309" transform="translate(284.578 2428)" clip-path="url(#clip-path)">
      <g id="Grupo_1118308" data-name="Grupo 1118308">
        <path id="Trazado_905371" data-name="Trazado 905371" d="M114.48,166.8S82.1,165.49,77.8,213.69c-3.06,34.3-2.42,63.88-2.42,63.88l83.35-2.65s-3.15-43.36-2.1-55.62.8-56.81-42.14-52.5Z" fill="#311e28"/>
        <g id="Grupo_1118307" data-name="Grupo 1118307">
          <g id="Grupo_1118292" data-name="Grupo 1118292">
            <path id="Trazado_905372" data-name="Trazado 905372" d="M158.84,280.57a39.977,39.977,0,0,0-34.87-28.06,229.62,229.62,0,0,0-40.11.23c-8.24.77-16.66,2.05-23.86,6.13-10.72,6.07-17.29,17.5-21.59,29.04-12.52,33.61-9.74,70.73-6.8,106.47.45,5.45,1.04,11.27,4.48,15.51,3.05,3.76,7.81,5.62,12.34,7.32q14.16,5.31,28.31,10.62c3.57,1.34,7.61,2.67,11.06,1.05,3.47-1.63,5.06-5.7,5.68-9.48s.64-7.78,2.35-11.21c3.23-6.45,11.1-8.7,17.25-12.46,13.48-8.25,19.29-24.64,23.16-39.96,7.78-30.75,24.85-36.36,24.79-68.08l-2.21-7.12Z" fill="#4c303a"/>
            <path id="Trazado_905373" data-name="Trazado 905373" d="M139.64,267.97c-53.02-20.97-78.08,4.97-85.6,20.19s-9.62,32.49-10.86,49.41c-1.45,19.84.57,49.97,1.21,69.85" fill="none" stroke="#fff" stroke-miterlimit="10" stroke-width="3.69"/>
          </g>
          <g id="Grupo_1118294" data-name="Grupo 1118294">
            <path id="Trazado_905374" data-name="Trazado 905374" d="M140.83,264.54a30.307,30.307,0,0,0,5.98,1.86c1.97.42,4.39.58,6.13,1.57,10.1,5.77,13.24,18.31,15.25,27.7q4.755,22.23,7.92,44.69c2.33,16.54,2.69,32.48,5.8,48.87q2.85,15.06,4.47,30.26c.66,6.18,4.45,17.03.33,22.75-4.06,5.64-19.84,4.39-27.46,5.06-22.18,1.95-44.42,3.54-66.72,3.88-8.11.12-16.23.12-24.33-.16-7.39-.25-9.63.13-9.94-6.29-.6-12.3,4.47-26.65,6.52-38.87,1.87-11.17,2.34-23.55,6.08-34.36,6.8-19.66,5.2-40.95,5.62-61.53.17-8.48.71-17.27-.39-25.72-.3-2.31-1.1-4.37-.71-6.7.12-.71-.08-2.28.37-2.84.68-.83,3.05-.81,4.11-.99,5.5,0,12.34-2.46,17.57-3.89a2.55,2.55,0,0,1,1.19-.13,2.221,2.221,0,0,1,1.19.85,67.7,67.7,0,0,0,9.51,9.41,24.34,24.34,0,0,0,12.87,5.15,18.319,18.319,0,0,0,15.02-6.44,9.09,9.09,0,0,0,2.25-6.11c.03-1.24,1.15-8.1-.12-8.72.51.25,1,.47,1.49.68Z" fill="#fff"/>
            <g id="Grupo_1118293" data-name="Grupo 1118293" clip-path="url(#clip-path-3)">
              <circle id="Elipse_11610" data-name="Elipse 11610" cx="11.31" cy="11.31" r="11.31" transform="translate(82.069 286.799) rotate(-76.72)" fill="#be375f"/>
              <circle id="Elipse_11611" data-name="Elipse 11611" cx="11.31" cy="11.31" r="11.31" transform="translate(89.901 316.557) rotate(-76.72)" fill="#be375f"/>
              <circle id="Elipse_11612" data-name="Elipse 11612" cx="11.31" cy="11.31" r="11.31" transform="translate(120.46 283.14)" fill="#be375f"/>
              <circle id="Elipse_11613" data-name="Elipse 11613" cx="11.31" cy="11.31" r="11.31" transform="matrix(0.233, -0.973, 0.973, 0.233, 116.401, 332.589)" fill="#be375f"/>
              <circle id="Elipse_11614" data-name="Elipse 11614" cx="11.31" cy="11.31" r="11.31" transform="translate(91.33 333.98)" fill="#be375f"/>
              <circle id="Elipse_11615" data-name="Elipse 11615" cx="11.31" cy="11.31" r="11.31" transform="translate(135.999 359.221) rotate(-76.83)" fill="#be375f"/>
              <circle id="Elipse_11616" data-name="Elipse 11616" cx="11.31" cy="11.31" r="11.31" transform="translate(144.039 434.076) rotate(-45)" fill="#fff"/>
              <circle id="Elipse_11617" data-name="Elipse 11617" cx="11.31" cy="11.31" r="11.31" transform="translate(105.339 370.827) rotate(-45)" fill="#be375f"/>
              <circle id="Elipse_11618" data-name="Elipse 11618" cx="11.31" cy="11.31" r="11.31" transform="translate(98.72 390.58)" fill="#be375f"/>
              <circle id="Elipse_11619" data-name="Elipse 11619" cx="11.31" cy="11.31" r="11.31" transform="translate(127.714 397.253) rotate(-42.31)" fill="#be375f"/>
              <circle id="Elipse_11620" data-name="Elipse 11620" cx="11.31" cy="11.31" r="11.31" transform="translate(46.642 428.424) rotate(-45)" fill="#fff"/>
              <circle id="Elipse_11621" data-name="Elipse 11621" cx="11.31" cy="11.31" r="11.31" transform="translate(82.513 441.796) rotate(-76.72)" fill="#fff"/>
              <circle id="Elipse_11622" data-name="Elipse 11622" cx="11.31" cy="11.31" r="11.31" transform="translate(113.171 422.295) rotate(-45)" fill="#be375f"/>
              <circle id="Elipse_11623" data-name="Elipse 11623" cx="11.31" cy="11.31" r="11.31" transform="matrix(0.682, -0.731, 0.731, 0.682, 162.307, 409.172)" fill="#be375f"/>
            </g>
          </g>
          <g id="Grupo_1118298" data-name="Grupo 1118298">
            <path id="Trazado_905376" data-name="Trazado 905376" d="M139.46,273.85a11.343,11.343,0,0,1-2.25,7,17.357,17.357,0,0,1-15.02,7.38c-4.79-.35-9.24-2.77-12.87-5.9s-9.11-7.17-10.93-11.61c-.61-1.48,4.22-3.19,5.31-5.83,1.93-4.67,1.8-11.39,1.41-17.47a32.468,32.468,0,0,0,12.17,4.89c6.34,1.05,11.5-1.96,15.47-6.39.22,2.82.02,5.75.2,8.49.15,2.21.38,5.17,1.7,6.99a11.661,11.661,0,0,0,5.18,3.68c.35,2.43-.36,7.65-.39,8.78Z" fill="#ffa485"/>
            <path id="Trazado_905377" data-name="Trazado 905377" d="M103.71,264.89c1.93-4.67,1.8-11.39,1.41-17.47a32.468,32.468,0,0,0,12.17,4.89,14.677,14.677,0,0,0,9.45-1.55,21.034,21.034,0,0,0,4.17-1.16l.14.05-27.58,15.73a3.582,3.582,0,0,0,.24-.48Z" fill="#ed755d"/>
            <path id="Trazado_905378" data-name="Trazado 905378" d="M92.58,227.59c.33.06.67.1,1.02.13a1.9,1.9,0,0,0,.86-.07,1.08,1.08,0,0,0,.53-.59c2.86-6.04,3.09-11.71-3.7-16.19a6.384,6.384,0,0,0-4.23-1.29,4.325,4.325,0,0,0-3.51,3.05c-1.73,5.17.88,13.63,9.03,14.98Z" fill="#ffa485"/>
            <path id="Trazado_905379" data-name="Trazado 905379" d="M146.75,226.44c-.34.01-.68,0-1.02-.01a1.819,1.819,0,0,1-.84-.19,1.089,1.089,0,0,1-.45-.66c-2.04-6.37-1.5-12.02,5.82-15.56a6.373,6.373,0,0,1,4.36-.72,4.306,4.306,0,0,1,3.07,3.49c1.03,5.36-2.68,13.39-10.95,13.64Z" fill="#ffa485"/>
            <path id="Trazado_905380" data-name="Trazado 905380" d="M92.71,204.62c5.22-2.49,8.26-9,13.17-12.25a18.965,18.965,0,0,1,8.71-2.75,39.205,39.205,0,0,1,11.7.61,53.215,53.215,0,0,1,21.11,9.81,3.03,3.03,0,0,0,2.04.71c.1,10.52-.99,20.36-4.73,29.85a61.328,61.328,0,0,1-3.54,7.44c-5.4,9.62-14.82,20.64-25.49,16.73-9.97-3.65-17.91-13.79-21.06-25.04-1.24-4.45-1.3-9.16-1.64-13.84-.27-3.72-.43-7.46-.53-11.2a2.333,2.333,0,0,0,.25-.07Z" fill="#ffa485"/>
            <g id="Grupo_1118297" data-name="Grupo 1118297">
              <g id="Grupo_1118295" data-name="Grupo 1118295">
                <path id="Trazado_905381" data-name="Trazado 905381" d="M148.48,219.75a11.233,11.233,0,0,1,1.38-3.49c.86-1.32,2.16-2.31,4.07-1.46" fill="none" stroke="#ed755d" stroke-linecap="round" stroke-miterlimit="10" stroke-width="0.94"/>
                <path id="Trazado_905382" data-name="Trazado 905382" d="M154.5,219.41s-4.45,2.45-4.65-3.14" fill="none" stroke="#ed755d" stroke-linecap="round" stroke-miterlimit="10" stroke-width="0.94"/>
              </g>
              <g id="Grupo_1118296" data-name="Grupo 1118296">
                <path id="Trazado_905383" data-name="Trazado 905383" d="M92.17,220.98a11.4,11.4,0,0,0-.9-3.64c-.67-1.42-1.84-2.58-3.84-1.99" fill="none" stroke="#ed755d" stroke-linecap="round" stroke-miterlimit="10" stroke-width="0.94"/>
                <path id="Trazado_905384" data-name="Trazado 905384" d="M86.25,219.84s4.09,3.02,5.02-2.49" fill="none" stroke="#ed755d" stroke-linecap="round" stroke-miterlimit="10" stroke-width="0.94"/>
              </g>
              <ellipse id="Elipse_11624" data-name="Elipse 11624" cx="2.74" cy="3.81" rx="2.74" ry="3.81" transform="translate(131.59 211.12)" fill="#311e28"/>
              <path id="Trazado_905385" data-name="Trazado 905385" d="M140.69,209.99s-4.75-3.57-12.22-1.36" fill="none" stroke="#311e28" stroke-linecap="round" stroke-miterlimit="10" stroke-width="2.46"/>
              <ellipse id="Elipse_11625" data-name="Elipse 11625" cx="2.74" cy="3.81" rx="2.74" ry="3.81" transform="translate(103.49 211.12)" fill="#311e28"/>
              <path id="Trazado_905386" data-name="Trazado 905386" d="M98.85,209.99s4.75-3.57,12.22-1.36" fill="none" stroke="#311e28" stroke-linecap="round" stroke-miterlimit="10" stroke-width="2.46"/>
              <path id="Trazado_905387" data-name="Trazado 905387" d="M123.28,236.92s-6.05,3.81-10.63-3.07" fill="none" stroke="#ed755d" stroke-linecap="round" stroke-miterlimit="10" stroke-width="1.85"/>
            </g>
            <path id="Trazado_905388" data-name="Trazado 905388" d="M90.58,205.99s12.48-3.44,14.42-4.3l1.72-4.95,1.51,4.73s13.56-1.72,23.67-.22l.86-7.75,1.29,7.96,17.21,5.81.22-12.7-29.91-13.56-29.7,13.34-1.29,11.62Z" fill="#311e28"/>
          </g>
          <path id="Trazado_905389" data-name="Trazado 905389" d="M119.93,218.59l-2.55,12.16a1.86,1.86,0,0,0,2.22,2.2l1.08-.24" fill="none" stroke="#ed755d" stroke-linecap="round" stroke-miterlimit="10" stroke-width="1.85"/>
          <g id="Grupo_1118300" data-name="Grupo 1118300">
            <path id="Trazado_905390" data-name="Trazado 905390" d="M115.69,210.64l-.46,18.8a4.937,4.937,0,0,0,.09.95,4.158,4.158,0,0,0,3.96,3.3l36.4.89a4.159,4.159,0,0,0,4.13-3.1,4.1,4.1,0,0,0,.14-.94l.46-18.8a4.162,4.162,0,0,0-4.06-4.25l-36.4-.89a4.16,4.16,0,0,0-4.25,4.05Z" fill="#737fe0"/>
            <rect id="Rectángulo_408989" data-name="Rectángulo 408989" width="3.6" height="5.41" rx="1.8" transform="matrix(-1, -0.024, 0.024, -1, 148.849, 209.774)" fill="#4d53c5"/>
            <g id="Grupo_1118299" data-name="Grupo 1118299">
              <path id="Trazado_905391" data-name="Trazado 905391" d="M115.69,210.64l-.09,3.85,44.71,1.09.09-3.85a4.162,4.162,0,0,0-4.06-4.25l-36.4-.89a4.16,4.16,0,0,0-4.25,4.05Z" fill="#2c3e84"/>
              <path id="Trazado_905392" data-name="Trazado 905392" d="M115.32,230.39a4.158,4.158,0,0,0,3.96,3.3l36.4.89a4.159,4.159,0,0,0,4.13-3.1l-44.49-1.09Z" fill="#2c3e84"/>
            </g>
            <path id="Trazado_905393" data-name="Trazado 905393" d="M127.79,219.63a9,9,0,1,0,9.22-8.78,9,9,0,0,0-9.22,8.78Z" fill="#4d53c5"/>
            <path id="Trazado_905394" data-name="Trazado 905394" d="M131.81,219.64a4.977,4.977,0,1,0,5.1-4.85A4.98,4.98,0,0,0,131.81,219.64Z" fill="#fff"/>
            <path id="Trazado_905395" data-name="Trazado 905395" d="M123.54,224.24a1.7,1.7,0,1,0,1.92-1.44A1.695,1.695,0,0,0,123.54,224.24Z" fill="#2c3e84"/>
          </g>
          <g id="Grupo_1118304" data-name="Grupo 1118304">
            <g id="Grupo_1118303" data-name="Grupo 1118303">
              <g id="Grupo_1118302" data-name="Grupo 1118302">
                <path id="Trazado_905396" data-name="Trazado 905396" d="M181.31,228.17l24.02,35.03-20.89,18.51-15.26-41.43Z" fill="#ffa485"/>
                <g id="Grupo_1118301" data-name="Grupo 1118301">
                  <path id="Trazado_905397" data-name="Trazado 905397" d="M178.07,210.77l-15.2-15.5a5.226,5.226,0,0,0-6.56-.73l-9.35,6.05a2.3,2.3,0,0,0,1.91,4.14l.1-.03c3.3-1.17,10.02-3.86,10.02-3.86l3.85,3.18,15.22,6.75Z" fill="#ffa485"/>
                  <path id="Trazado_905398" data-name="Trazado 905398" d="M148.49,222.3l2.59-14.39a3.941,3.941,0,0,1,3.56-3.23l16.17-1.31,7.26,7.4a3.291,3.291,0,0,1,.91,1.83l3.41,22.76-7.32,13.75-6.02-8.78h0a6.673,6.673,0,0,1-5.03-6.87l.3-5.16-5.18-.73s1.46,5.3-.96,5.69-5.45-8.75-5.45-8.75-4.64-.04-4.25-2.21Z" fill="#ffa485"/>
                </g>
              </g>
              <path id="Trazado_905399" data-name="Trazado 905399" d="M167.12,223.03l-6.33,1.13s6.14-.08,3.52,4.14" fill="none" stroke="#ed755d" stroke-linecap="round" stroke-linejoin="round" stroke-width="1.32"/>
              <path id="Trazado_905400" data-name="Trazado 905400" d="M168.38,214.27l-8.96,2.31a3.946,3.946,0,0,0-3.05,4.19s-.22,5.86,2.78,6.8" fill="none" stroke="#ed755d" stroke-linecap="round" stroke-linejoin="round" stroke-width="1.32"/>
              <path id="Trazado_905401" data-name="Trazado 905401" d="M167.38,209.77l-11.28,2.78a4.26,4.26,0,0,0-2.91,3.88s-1.21,5.37-.46,8.08" fill="none" stroke="#ed755d" stroke-linecap="round" stroke-linejoin="round" stroke-width="1.32"/>
            </g>
            <path id="Trazado_905402" data-name="Trazado 905402" d="M139.33,274.42c.7,5.11,1.64,10.18,2.6,15.25,2.61,13.75,6.42,37.45,6.83,40.19,4.51,29.82,3.79,51.75-1.15,81.5,2.99.94,7.04.4,10.05-.32q8.13-1.935,16.06-4.6c2.14-.72,14.24-1.91,14.24-20.59,0-6.41-.54-13.11-.85-19.71a193.332,193.332,0,0,0-6.22-41.43c21.45,16.38,35.4,2.41,35.51,2.02a12.619,12.619,0,0,0,3.71-7.5c2.42-14.32-.29-29.13-5.44-42.71a162.045,162.045,0,0,0-16.05-31.31q-2.97-4.53-6.21-8.83a3.469,3.469,0,0,0-4.65-.85l-22.93,14.71a3.46,3.46,0,0,0-1.43,3.97c1.49,4.65,4.21,13.21,5.16,15.37-4.6-1.31-18.59-2.97-21.05-3.81-2.86-.98-5.74-2.3-8.76-2.07-.58.04.47,9.92.58,10.73Z" fill="#ffb22b"/>
            <path id="Trazado_905403" data-name="Trazado 905403" d="M170.29,272.44c8.28,20.62,9.64,31.09,17.88,46.18,2.76,5.05,9.51,10.19,15.39,11.09" fill="none" stroke="#e68b36" stroke-linecap="round" stroke-miterlimit="10" stroke-width="2.46"/>
          </g>
          <g id="Grupo_1118306" data-name="Grupo 1118306">
            <path id="Trazado_905404" data-name="Trazado 905404" d="M51.08,327c-.92-15.25-1.49-32.6,9.76-44.16,4.61-4.85,10.73-7.04,16.69-9.3,2.91-1.1,5.81-2.22,8.73-3.31a22.251,22.251,0,0,1,6.77-1.58c3.58.04,4.87,5.35,5.99,8.12,1.36,3.37,7.22,36.64,8.92,75.46,1.15,26.22,1.36,38.33-3.72,64.03-.44,2.23-.95,4.56-2.38,6.27-1.53,1.82-3.86,2.62-6.09,3.24-9.86,2.7-24.88,6.61-30.99-4.32-7.53-13.47-10.84-32.29-12.45-47.61-.67-6.31.76-12.38.49-18.76-.4-9.36-1.13-18.71-1.69-28.06Z" fill="#ffb22b"/>
            <path id="Trazado_905405" data-name="Trazado 905405" d="M98.08,372.16c6.07-14.17,9.03-29.79,7.6-45.14s-7.38-30.39-17.56-41.97c-5.09-5.79-11.84-10.93-19.55-10.98S53.02,281.29,55,288.74c14.09.78,26.8,10.81,32.47,23.72s4.82,28.15-.58,41.18-15.02,24-26.12,32.71c-3.92,3.07-8.07,5.93-11.34,9.67-5.5,6.29-7.83,16.34-.23,22.13,6.86,5.22,13.5-1.35,18.89-5.84a107.759,107.759,0,0,0,29.99-40.14Z" fill="#4c303a"/>
            <g id="Grupo_1118305" data-name="Grupo 1118305">
              <path id="Trazado_905406" data-name="Trazado 905406" d="M77.73,337.09s6.21-7.35,6.11-9.57-2.93-10.7,3.71-15.13,3.18-8.98,6.13-10.26,6.29,7.04,1.31,13.22l5.53-6.07a1.52,1.52,0,0,1,1.51-.47,3.126,3.126,0,0,1,2.15,2.48c.82,2.99-.69,4.09.42,4.98s3.13,4.2,2.6,6.53.51,2.74.68,4.02c.5,3.94-4.08,8.32-8.55,9.22s-5.31,11.31-5.31,11.31L77.72,337.1Z" fill="#ffa485"/>
              <path id="Trazado_905407" data-name="Trazado 905407" d="M103.79,315.4a23.986,23.986,0,0,1-2.82,4.29" fill="none" stroke="#ed755d" stroke-linecap="round" stroke-linejoin="round" stroke-width="1.15"/>
              <path id="Trazado_905408" data-name="Trazado 905408" d="M106.27,319.14s-1.83,3.5-3.75,4.76" fill="none" stroke="#ed755d" stroke-linecap="round" stroke-linejoin="round" stroke-width="1.15"/>
              <path id="Trazado_905409" data-name="Trazado 905409" d="M106.94,325.15a6.5,6.5,0,0,1-2.28,3.01" fill="none" stroke="#ed755d" stroke-linecap="round" stroke-linejoin="round" stroke-width="1.15"/>
              <path id="Trazado_905410" data-name="Trazado 905410" d="M93.69,302.13s1.77,6.59-2.38,6.23l.42-1.09a20.436,20.436,0,0,0,.51-2.74s.25-2.16,1.45-2.4Z" fill="#ed755d"/>
            </g>
            <path id="Trazado_905411" data-name="Trazado 905411" d="M21.99,356.2c1.31-3.43,2.71-6.89,4.03-10.61A251.72,251.72,0,0,1,43.14,306.7c5.67-10.16,12.65-19.52,21.75-26.66,3.81-2.99,7.58-3.66,12.12-4.96a5.873,5.873,0,0,1,3.76-.21.993.993,0,0,1,.4.26,1.147,1.147,0,0,1,.16.58,90.508,90.508,0,0,0,.81,9.17c2.21,12.63-2.69,29.09-6.8,40.95-.92,2.66-1.88,5.3-2.87,7.95.63-.6,1.26-1.2,1.88-1.8a4.767,4.767,0,0,1,2.47-1.53,4.634,4.634,0,0,1,2.59.67c6.42,3.13,21.59,8.97,17.82,17.41s-9.53,17.52-14.61,25.34c-10.63,16.37-34.74,49.66-57.69,39.44a18.665,18.665,0,0,1-10.5-14.94c-.85-7.95,1.26-16.15,2.41-23.99A83.438,83.438,0,0,1,22,356.22Z" fill="#ffb22b"/>
            <path id="Trazado_905412" data-name="Trazado 905412" d="M55.64,288.79c2.82-3.17,4.36-8.11,7.72-10.75,3.39-2.66,8.28-1.48,12.18-2.55a27.05,27.05,0,0,1,5.97,3.39c.12,2.01,2.82,5.59,3.16,7.56.97,5.52,1.99,12.68-3.07,16.5-6.49-7.88-15.84-13.39-25.96-14.15Z" fill="#4c303a"/>
            <path id="Trazado_905413" data-name="Trazado 905413" d="M77.22,331.66a92.077,92.077,0,0,0-38.54,43.82" fill="none" stroke="#e68b36" stroke-linecap="round" stroke-miterlimit="10" stroke-width="2.46"/>
          </g>
          <path id="Trazado_905414" data-name="Trazado 905414" d="M58.33,345.9a77.739,77.739,0,0,0,20.71-37.09" fill="none" stroke="#e68b36" stroke-linecap="round" stroke-miterlimit="10" stroke-width="2.46"/>
          <path id="Trazado_905415" data-name="Trazado 905415" d="M95.31,228.26a2.69,2.69,0,1,1-2.69-2.69A2.684,2.684,0,0,1,95.31,228.26Z" fill="#be375f"/>
          <path id="Trazado_905416" data-name="Trazado 905416" d="M154.96,277.82a16.467,16.467,0,0,1,.79-7.26c.95-2.26,3.14-4.18,5.59-4.07,2.5.11,4.51,2.28,5.31,4.65s.65,4.94.62,7.44a80.536,80.536,0,0,0,8.4,36.86c3.03,6.08,6.83,11.78,9.4,18.07,1.02,2.51,5.83,18.56.86,19.22-1.74.23-5.05-5.72-5.99-7.05q-2.91-4.1-5.55-8.38a134.973,134.973,0,0,1-15.94-37.1,114.645,114.645,0,0,1-3.47-22.39Z" fill="#4c303a"/>
        </g>
      </g>
    </g>
    <g id="Grupo_1118383" data-name="Grupo 1118383">
      <path id="Trazado_905418" data-name="Trazado 905418" d="M266.3,207.65h-4.5v3.05h5.28v1.88h-7.62V201.2h7.61v1.9H261.8v2.71h4.5Z" transform="translate(284.578 2428)" fill="#12263f"/>
      <path id="Trazado_905419" data-name="Trazado 905419" d="M270.39,204.12l.07.98a2.966,2.966,0,0,1,2.43-1.13,2.439,2.439,0,0,1,2,.79,3.668,3.668,0,0,1,.67,2.36v5.46H273.3v-5.41a1.438,1.438,0,0,0-.31-1.04,1.379,1.379,0,0,0-1.04-.32,1.563,1.563,0,0,0-1.43.81v5.96h-2.26v-8.45h2.12Z" transform="translate(284.578 2428)" fill="#12263f"/>
      <path id="Trazado_905420" data-name="Trazado 905420" d="M280.79,210.91a1.48,1.48,0,0,0,1.02-.34,1.2,1.2,0,0,0,.41-.91h2.12a2.81,2.81,0,0,1-.47,1.57,3.085,3.085,0,0,1-1.26,1.11,3.965,3.965,0,0,1-1.77.39,3.664,3.664,0,0,1-2.86-1.15,4.552,4.552,0,0,1-1.05-3.18v-.15a4.539,4.539,0,0,1,1.04-3.12,3.6,3.6,0,0,1,2.85-1.16,3.536,3.536,0,0,1,2.54.9,3.177,3.177,0,0,1,.97,2.4h-2.12a1.455,1.455,0,0,0-.41-1.07,1.363,1.363,0,0,0-1.03-.41,1.343,1.343,0,0,0-1.19.58,3.307,3.307,0,0,0-.4,1.87v.23a3.345,3.345,0,0,0,.4,1.88,1.383,1.383,0,0,0,1.21.57Z" transform="translate(284.578 2428)" fill="#12263f"/>
      <path id="Trazado_905421" data-name="Trazado 905421" d="M290.68,211.72a2.831,2.831,0,0,1-2.31,1.02,2.648,2.648,0,0,1-2.07-.78,3.358,3.358,0,0,1-.73-2.29v-5.54h2.26v5.47q0,1.32,1.2,1.32a1.608,1.608,0,0,0,1.58-.8v-5.99h2.27v8.45h-2.12l-.06-.86Z" transform="translate(284.578 2428)" fill="#12263f"/>
      <path id="Trazado_905422" data-name="Trazado 905422" d="M298.46,212.73a4.159,4.159,0,0,1-3.03-1.14,4.045,4.045,0,0,1-1.17-3.04v-.22a5.091,5.091,0,0,1,.49-2.28,3.675,3.675,0,0,1,1.39-1.55,3.843,3.843,0,0,1,2.06-.54,3.491,3.491,0,0,1,2.73,1.09,4.46,4.46,0,0,1,1,3.1v.92h-5.38a2.072,2.072,0,0,0,.66,1.33,2.009,2.009,0,0,0,1.39.5,2.443,2.443,0,0,0,2.04-.95l1.11,1.24a3.407,3.407,0,0,1-1.38,1.12,4.491,4.491,0,0,1-1.92.4Zm-.26-6.94a1.392,1.392,0,0,0-1.09.46,2.359,2.359,0,0,0-.54,1.3h3.14v-.18a1.618,1.618,0,0,0-.41-1.17,1.472,1.472,0,0,0-1.11-.41Z" transform="translate(284.578 2428)" fill="#12263f"/>
      <path id="Trazado_905423" data-name="Trazado 905423" d="M307.79,210.24a.727.727,0,0,0-.41-.65,4.688,4.688,0,0,0-1.32-.43c-2.01-.42-3.02-1.28-3.02-2.56a2.324,2.324,0,0,1,.93-1.88,3.781,3.781,0,0,1,2.44-.75,4.012,4.012,0,0,1,2.57.76,2.384,2.384,0,0,1,.96,1.97h-2.26a1.085,1.085,0,0,0-.31-.8,1.327,1.327,0,0,0-.98-.32,1.357,1.357,0,0,0-.88.26.806.806,0,0,0-.31.66.709.709,0,0,0,.36.61,3.747,3.747,0,0,0,1.2.4,9.485,9.485,0,0,1,1.42.38,2.345,2.345,0,0,1,1.79,2.27,2.21,2.21,0,0,1-.99,1.87,4.258,4.258,0,0,1-2.56.71,4.523,4.523,0,0,1-1.89-.38,3.119,3.119,0,0,1-1.29-1.04,2.446,2.446,0,0,1-.47-1.43h2.14a1.161,1.161,0,0,0,.45.92,1.806,1.806,0,0,0,1.11.32,1.593,1.593,0,0,0,.98-.25.761.761,0,0,0,.33-.64Z" transform="translate(284.578 2428)" fill="#12263f"/>
      <path id="Trazado_905424" data-name="Trazado 905424" d="M314.14,202.04v2.08h1.45v1.66h-1.45V210a1,1,0,0,0,.18.67.89.89,0,0,0,.69.2,4.228,4.228,0,0,0,.66-.05v1.71a4.5,4.5,0,0,1-1.37.2,2.156,2.156,0,0,1-2.42-2.4v-4.55h-1.23v-1.66h1.23v-2.08Z" transform="translate(284.578 2428)" fill="#12263f"/>
      <path id="Trazado_905425" data-name="Trazado 905425" d="M321.75,212.58a2.735,2.735,0,0,1-.23-.76,2.732,2.732,0,0,1-2.13.91,3.009,3.009,0,0,1-2.06-.72,2.323,2.323,0,0,1-.82-1.81,2.369,2.369,0,0,1,1-2.06,4.95,4.95,0,0,1,2.88-.73h1.04v-.48a1.414,1.414,0,0,0-.3-.94,1.2,1.2,0,0,0-.95-.35,1.333,1.333,0,0,0-.89.27.938.938,0,0,0-.32.75h-2.26a2.287,2.287,0,0,1,.45-1.36,2.988,2.988,0,0,1,1.28-.98,4.606,4.606,0,0,1,1.86-.36,3.655,3.655,0,0,1,2.48.79,2.753,2.753,0,0,1,.92,2.21v3.66a3.949,3.949,0,0,0,.34,1.82v.13h-2.28ZM319.88,211a1.923,1.923,0,0,0,.92-.22,1.44,1.44,0,0,0,.62-.6v-1.45h-.84q-1.7,0-1.8,1.17v.13a.914.914,0,0,0,.29.7,1.166,1.166,0,0,0,.81.27Z" transform="translate(284.578 2428)" fill="#12263f"/>
      <path id="Trazado_905426" data-name="Trazado 905426" d="M330,210.24a.727.727,0,0,0-.41-.65,4.688,4.688,0,0,0-1.32-.43c-2.01-.42-3.02-1.28-3.02-2.56a2.324,2.324,0,0,1,.93-1.88,3.781,3.781,0,0,1,2.44-.75,4.012,4.012,0,0,1,2.57.76,2.384,2.384,0,0,1,.96,1.97h-2.26a1.085,1.085,0,0,0-.31-.8,1.327,1.327,0,0,0-.98-.32,1.357,1.357,0,0,0-.88.26.806.806,0,0,0-.31.66.709.709,0,0,0,.36.61,3.747,3.747,0,0,0,1.2.4,9.485,9.485,0,0,1,1.42.38,2.345,2.345,0,0,1,1.79,2.27,2.21,2.21,0,0,1-.99,1.87,4.258,4.258,0,0,1-2.56.71,4.523,4.523,0,0,1-1.89-.38,3.119,3.119,0,0,1-1.29-1.04,2.446,2.446,0,0,1-.47-1.43h2.14a1.161,1.161,0,0,0,.45.92,1.806,1.806,0,0,0,1.11.32,1.593,1.593,0,0,0,.98-.25.761.761,0,0,0,.33-.64Z" transform="translate(284.578 2428)" fill="#12263f"/>
    </g>
    <g id="Grupo_1118384" data-name="Grupo 1118384">
      <path id="Trazado_905427" data-name="Trazado 905427" d="M244.75,231.38l1.56-5.26h2.42l-3.4,9.77-.19.45a2.582,2.582,0,0,1-2.5,1.66,3.516,3.516,0,0,1-1-.15v-1.71h.34a1.868,1.868,0,0,0,.96-.19,1.307,1.307,0,0,0,.5-.65l.27-.7-2.96-8.48h2.43l1.57,5.26Z" transform="translate(284.578 2428)" fill="#12263f"/>
      <path id="Trazado_905428" data-name="Trazado 905428" d="M257.12,232.91a1.48,1.48,0,0,0,1.02-.34,1.2,1.2,0,0,0,.41-.91h2.12a2.81,2.81,0,0,1-.47,1.57,3.085,3.085,0,0,1-1.26,1.11,3.965,3.965,0,0,1-1.77.39,3.664,3.664,0,0,1-2.86-1.15,4.552,4.552,0,0,1-1.05-3.18v-.15a4.539,4.539,0,0,1,1.04-3.12,3.6,3.6,0,0,1,2.85-1.16,3.536,3.536,0,0,1,2.54.9,3.177,3.177,0,0,1,.97,2.4h-2.12a1.455,1.455,0,0,0-.41-1.07,1.363,1.363,0,0,0-1.03-.41,1.343,1.343,0,0,0-1.19.58,3.307,3.307,0,0,0-.4,1.87v.23a3.345,3.345,0,0,0,.4,1.88,1.383,1.383,0,0,0,1.21.57Z" transform="translate(284.578 2428)" fill="#12263f"/>
      <path id="Trazado_905429" data-name="Trazado 905429" d="M267.02,233.72a2.831,2.831,0,0,1-2.31,1.02,2.648,2.648,0,0,1-2.07-.78,3.358,3.358,0,0,1-.73-2.29v-5.54h2.26v5.47q0,1.32,1.2,1.32a1.608,1.608,0,0,0,1.58-.8v-5.99h2.27v8.45H267.1l-.06-.86Z" transform="translate(284.578 2428)" fill="#12263f"/>
      <path id="Trazado_905430" data-name="Trazado 905430" d="M274.8,234.73a4.159,4.159,0,0,1-3.03-1.14,4.045,4.045,0,0,1-1.17-3.04v-.22a5.091,5.091,0,0,1,.49-2.28,3.675,3.675,0,0,1,1.39-1.55,3.843,3.843,0,0,1,2.06-.54,3.491,3.491,0,0,1,2.73,1.09,4.46,4.46,0,0,1,1,3.1v.92h-5.38a2.072,2.072,0,0,0,.66,1.33,2.009,2.009,0,0,0,1.39.5,2.443,2.443,0,0,0,2.04-.95l1.11,1.24a3.407,3.407,0,0,1-1.38,1.12,4.491,4.491,0,0,1-1.92.4Zm-.26-6.94a1.392,1.392,0,0,0-1.09.46,2.359,2.359,0,0,0-.54,1.3h3.14v-.18a1.618,1.618,0,0,0-.41-1.17,1.472,1.472,0,0,0-1.11-.41Z" transform="translate(284.578 2428)" fill="#12263f"/>
      <path id="Trazado_905431" data-name="Trazado 905431" d="M284.13,232.24a.727.727,0,0,0-.41-.65,4.688,4.688,0,0,0-1.32-.43c-2.01-.42-3.02-1.28-3.02-2.56a2.324,2.324,0,0,1,.93-1.88,3.781,3.781,0,0,1,2.44-.75,4.012,4.012,0,0,1,2.57.76,2.384,2.384,0,0,1,.96,1.97h-2.26a1.085,1.085,0,0,0-.31-.8,1.327,1.327,0,0,0-.98-.32,1.357,1.357,0,0,0-.88.26.806.806,0,0,0-.31.66.709.709,0,0,0,.36.61,3.747,3.747,0,0,0,1.2.4,9.485,9.485,0,0,1,1.42.38,2.345,2.345,0,0,1,1.79,2.27,2.21,2.21,0,0,1-.99,1.87,4.258,4.258,0,0,1-2.56.71,4.523,4.523,0,0,1-1.89-.38,3.119,3.119,0,0,1-1.29-1.04,2.446,2.446,0,0,1-.47-1.43h2.14a1.161,1.161,0,0,0,.45.92,1.806,1.806,0,0,0,1.11.32,1.593,1.593,0,0,0,.98-.25.761.761,0,0,0,.33-.64Z" transform="translate(284.578 2428)" fill="#12263f"/>
      <path id="Trazado_905432" data-name="Trazado 905432" d="M290.48,224.04v2.08h1.45v1.66h-1.45V232a1,1,0,0,0,.18.67.89.89,0,0,0,.69.2,4.228,4.228,0,0,0,.66-.05v1.71a4.5,4.5,0,0,1-1.37.2,2.156,2.156,0,0,1-2.42-2.4v-4.55h-1.23v-1.66h1.23v-2.08Z" transform="translate(284.578 2428)" fill="#12263f"/>
      <path id="Trazado_905433" data-name="Trazado 905433" d="M293.17,223.93a1.108,1.108,0,0,1,.34-.84,1.289,1.289,0,0,1,.93-.33,1.265,1.265,0,0,1,.92.33,1.2,1.2,0,0,1-.01,1.68,1.447,1.447,0,0,1-1.84,0,1.116,1.116,0,0,1-.35-.84Zm2.4,10.65H293.3v-8.45h2.27Z" transform="translate(284.578 2428)" fill="#12263f"/>
      <path id="Trazado_905434" data-name="Trazado 905434" d="M297.08,230.27a5.019,5.019,0,0,1,.48-2.24,3.533,3.533,0,0,1,1.39-1.52,4.064,4.064,0,0,1,2.11-.54,3.835,3.835,0,0,1,2.79,1.05,4.252,4.252,0,0,1,1.21,2.84l.02.58a4.379,4.379,0,0,1-1.09,3.12,4.2,4.2,0,0,1-5.83.01,4.475,4.475,0,0,1-1.09-3.19v-.1Zm2.26.16a3.163,3.163,0,0,0,.45,1.84,1.5,1.5,0,0,0,1.3.64,1.471,1.471,0,0,0,1.28-.63,3.427,3.427,0,0,0,.46-2.01,3.094,3.094,0,0,0-.46-1.83,1.511,1.511,0,0,0-1.3-.65,1.442,1.442,0,0,0-1.28.65,3.543,3.543,0,0,0-.45,2Z" transform="translate(284.578 2428)" fill="#12263f"/>
      <path id="Trazado_905435" data-name="Trazado 905435" d="M308.55,226.12l.07.98a2.966,2.966,0,0,1,2.43-1.13,2.439,2.439,0,0,1,2,.79,3.668,3.668,0,0,1,.67,2.36v5.46h-2.26v-5.41a1.438,1.438,0,0,0-.31-1.04,1.379,1.379,0,0,0-1.04-.32,1.563,1.563,0,0,0-1.43.81v5.96h-2.26v-8.45h2.12Z" transform="translate(284.578 2428)" fill="#12263f"/>
      <path id="Trazado_905436" data-name="Trazado 905436" d="M320.34,234.58a2.735,2.735,0,0,1-.23-.76,2.732,2.732,0,0,1-2.13.91,3.009,3.009,0,0,1-2.06-.72,2.323,2.323,0,0,1-.82-1.81,2.369,2.369,0,0,1,1-2.06,4.95,4.95,0,0,1,2.88-.73h1.04v-.48a1.414,1.414,0,0,0-.3-.94,1.2,1.2,0,0,0-.95-.35,1.333,1.333,0,0,0-.89.27.938.938,0,0,0-.32.75H315.3a2.287,2.287,0,0,1,.45-1.36,2.988,2.988,0,0,1,1.28-.98,4.606,4.606,0,0,1,1.86-.36,3.655,3.655,0,0,1,2.48.79,2.753,2.753,0,0,1,.92,2.21v3.66a3.949,3.949,0,0,0,.34,1.82v.13h-2.28ZM318.47,233a1.923,1.923,0,0,0,.92-.22,1.44,1.44,0,0,0,.62-.6v-1.45h-.84q-1.7,0-1.8,1.17v.13a.914.914,0,0,0,.29.7,1.166,1.166,0,0,0,.81.27Z" transform="translate(284.578 2428)" fill="#12263f"/>
      <path id="Trazado_905437" data-name="Trazado 905437" d="M328.77,228.24a6.441,6.441,0,0,0-.81-.06,1.661,1.661,0,0,0-1.68.87v5.53h-2.26v-8.45h2.13l.06,1.01a2.076,2.076,0,0,1,1.88-1.16,2.279,2.279,0,0,1,.7.1l-.03,2.17Z" transform="translate(284.578 2428)" fill="#12263f"/>
      <path id="Trazado_905438" data-name="Trazado 905438" d="M329.84,223.93a1.108,1.108,0,0,1,.34-.84,1.289,1.289,0,0,1,.93-.33,1.265,1.265,0,0,1,.92.33,1.2,1.2,0,0,1-.01,1.68,1.447,1.447,0,0,1-1.84,0,1.116,1.116,0,0,1-.35-.84Zm2.39,10.65h-2.27v-8.45h2.27Z" transform="translate(284.578 2428)" fill="#12263f"/>
      <path id="Trazado_905439" data-name="Trazado 905439" d="M333.74,230.27a5.019,5.019,0,0,1,.48-2.24,3.533,3.533,0,0,1,1.39-1.52,4.064,4.064,0,0,1,2.11-.54,3.835,3.835,0,0,1,2.79,1.05,4.252,4.252,0,0,1,1.21,2.84l.02.58a4.379,4.379,0,0,1-1.09,3.12,4.2,4.2,0,0,1-5.83.01,4.475,4.475,0,0,1-1.09-3.19v-.1Zm2.26.16a3.163,3.163,0,0,0,.45,1.84,1.5,1.5,0,0,0,1.3.64,1.471,1.471,0,0,0,1.28-.63,3.427,3.427,0,0,0,.46-2.01,3.094,3.094,0,0,0-.46-1.83,1.511,1.511,0,0,0-1.3-.65,1.442,1.442,0,0,0-1.28.65,3.543,3.543,0,0,0-.45,2Z" transform="translate(284.578 2428)" fill="#12263f"/>
      <path id="Trazado_905440" data-name="Trazado 905440" d="M347.72,232.24a.727.727,0,0,0-.41-.65,4.688,4.688,0,0,0-1.32-.43c-2.01-.42-3.02-1.28-3.02-2.56a2.324,2.324,0,0,1,.93-1.88,3.781,3.781,0,0,1,2.44-.75,4.012,4.012,0,0,1,2.57.76,2.384,2.384,0,0,1,.96,1.97h-2.26a1.085,1.085,0,0,0-.31-.8,1.327,1.327,0,0,0-.98-.32,1.357,1.357,0,0,0-.88.26.806.806,0,0,0-.31.66.709.709,0,0,0,.36.61,3.747,3.747,0,0,0,1.2.4,9.485,9.485,0,0,1,1.42.38,2.345,2.345,0,0,1,1.79,2.27,2.21,2.21,0,0,1-.99,1.87,4.258,4.258,0,0,1-2.56.71,4.523,4.523,0,0,1-1.89-.38,3.119,3.119,0,0,1-1.29-1.04,2.446,2.446,0,0,1-.47-1.43h2.14a1.161,1.161,0,0,0,.45.92,1.806,1.806,0,0,0,1.11.32,1.593,1.593,0,0,0,.98-.25.761.761,0,0,0,.33-.64Z" transform="translate(284.578 2428)" fill="#12263f"/>
    </g>
    <path id="Trazado_906185" data-name="Trazado 906185" d="M7.438-2.344H3.328L2.547,0H.055L4.289-11.375H6.461L10.719,0H8.227Zm-3.477-1.9H6.8L5.375-8.5Z" transform="translate(694.778 2481.58)" fill="#12263f"/>
    <path id="Trazado_906184" data-name="Trazado 906184" d="M2.945-8.453l.07.977a2.951,2.951,0,0,1,2.43-1.133,2.453,2.453,0,0,1,2,.789,3.682,3.682,0,0,1,.672,2.359V0H5.859V-5.406a1.465,1.465,0,0,0-.312-1.043,1.4,1.4,0,0,0-1.039-.324,1.553,1.553,0,0,0-1.43.813V0H.82V-8.453ZM14.727,0A2.507,2.507,0,0,1,14.5-.758a2.732,2.732,0,0,1-2.133.914,3,3,0,0,1-2.059-.719,2.312,2.312,0,0,1-.816-1.812,2.389,2.389,0,0,1,1-2.062,4.915,4.915,0,0,1,2.879-.727h1.039v-.484a1.393,1.393,0,0,0-.3-.937,1.183,1.183,0,0,0-.949-.352,1.345,1.345,0,0,0-.895.273.929.929,0,0,0-.324.75H9.68a2.268,2.268,0,0,1,.453-1.359,3,3,0,0,1,1.281-.98,4.669,4.669,0,0,1,1.859-.355,3.689,3.689,0,0,1,2.48.785,2.747,2.747,0,0,1,.918,2.207v3.664a4.041,4.041,0,0,0,.336,1.82V0ZM12.859-1.57a1.945,1.945,0,0,0,.922-.223,1.462,1.462,0,0,0,.625-.6V-3.844h-.844q-1.7,0-1.8,1.172l-.008.133a.9.9,0,0,0,.3.7A1.153,1.153,0,0,0,12.859-1.57ZM13.719-12H16.18L14.016-9.578H12.18Zm7.07,12H18.523V-12h2.266Zm4.242,0H22.766V-8.453h2.266Zm-2.4-10.641a1.112,1.112,0,0,1,.34-.836A1.277,1.277,0,0,1,23.9-11.8a1.28,1.28,0,0,1,.922.328,1.105,1.105,0,0,1,.344.836,1.108,1.108,0,0,1-.348.844,1.283,1.283,0,0,1-.918.328A1.283,1.283,0,0,1,22.98-9.8,1.108,1.108,0,0,1,22.633-10.641Zm8.836,8.3a.727.727,0,0,0-.41-.652,4.659,4.659,0,0,0-1.316-.426q-3.016-.633-3.016-2.562a2.323,2.323,0,0,1,.934-1.879A3.766,3.766,0,0,1,30.1-8.609a4.053,4.053,0,0,1,2.574.758,2.388,2.388,0,0,1,.965,1.969H31.383a1.092,1.092,0,0,0-.312-.8A1.322,1.322,0,0,0,30.094-7a1.351,1.351,0,0,0-.883.258.814.814,0,0,0-.312.656.7.7,0,0,0,.355.605,3.657,3.657,0,0,0,1.2.4,9.8,9.8,0,0,1,1.422.379A2.336,2.336,0,0,1,33.664-2.43a2.2,2.2,0,0,1-.992,1.871,4.28,4.28,0,0,1-2.562.715,4.47,4.47,0,0,1-1.887-.379A3.166,3.166,0,0,1,26.93-1.262a2.414,2.414,0,0,1-.469-1.426H28.6a1.179,1.179,0,0,0,.445.922,1.766,1.766,0,0,0,1.109.32,1.635,1.635,0,0,0,.98-.246A.766.766,0,0,0,31.469-2.336ZM37.5,0H35.234V-8.453H37.5ZM35.1-10.641a1.112,1.112,0,0,1,.34-.836,1.277,1.277,0,0,1,.926-.328,1.28,1.28,0,0,1,.922.328,1.105,1.105,0,0,1,.344.836,1.108,1.108,0,0,1-.348.844,1.283,1.283,0,0,1-.918.328,1.283,1.283,0,0,1-.918-.328A1.108,1.108,0,0,1,35.1-10.641Zm8.836,8.3a.727.727,0,0,0-.41-.652,4.659,4.659,0,0,0-1.316-.426Q39.2-4.047,39.2-5.977a2.323,2.323,0,0,1,.934-1.879,3.766,3.766,0,0,1,2.441-.754,4.053,4.053,0,0,1,2.574.758,2.388,2.388,0,0,1,.965,1.969H43.852a1.092,1.092,0,0,0-.312-.8A1.322,1.322,0,0,0,42.563-7a1.351,1.351,0,0,0-.883.258.814.814,0,0,0-.312.656.7.7,0,0,0,.355.605,3.657,3.657,0,0,0,1.2.4,9.8,9.8,0,0,1,1.422.379A2.336,2.336,0,0,1,46.133-2.43a2.2,2.2,0,0,1-.992,1.871,4.28,4.28,0,0,1-2.562.715,4.47,4.47,0,0,1-1.887-.379A3.166,3.166,0,0,1,39.4-1.262a2.414,2.414,0,0,1-.469-1.426H41.07a1.179,1.179,0,0,0,.445.922,1.766,1.766,0,0,0,1.109.32,1.635,1.635,0,0,0,.98-.246A.766.766,0,0,0,43.938-2.336Z" transform="translate(705.168 2481.58)" fill="#12263f"/>
    <path id="Trazado_906186" data-name="Trazado 906186" d="M.516-4.289A5.094,5.094,0,0,1,1.4-7.437,2.877,2.877,0,0,1,3.828-8.609a2.589,2.589,0,0,1,2.039.922V-12H8.133V0H6.094L5.984-.9A2.657,2.657,0,0,1,3.813.156,2.869,2.869,0,0,1,1.418-1.02,5.258,5.258,0,0,1,.516-4.289Zm2.258.168A3.337,3.337,0,0,0,3.188-2.3a1.349,1.349,0,0,0,1.2.634,1.511,1.511,0,0,0,1.477-.884V-5.889a1.489,1.489,0,0,0-1.461-.884Q2.773-6.773,2.773-4.121Zm11,4.277A4.15,4.15,0,0,1,10.746-.984,4.054,4.054,0,0,1,9.578-4.023v-.219A5.106,5.106,0,0,1,10.07-6.52a3.612,3.612,0,0,1,1.395-1.547,3.914,3.914,0,0,1,2.059-.543,3.508,3.508,0,0,1,2.73,1.094,4.444,4.444,0,0,1,1,3.1v.922H11.867a2.1,2.1,0,0,0,.66,1.328,2,2,0,0,0,1.395.5,2.437,2.437,0,0,0,2.039-.945L17.07-1.367A3.389,3.389,0,0,1,15.7-.246,4.511,4.511,0,0,1,13.773.156Zm-.258-6.945a1.411,1.411,0,0,0-1.09.455,2.357,2.357,0,0,0-.535,1.3h3.141v-.181a1.681,1.681,0,0,0-.406-1.165A1.456,1.456,0,0,0,13.516-6.789Zm8.648,2.5a5.094,5.094,0,0,1,.887-3.148,2.877,2.877,0,0,1,2.426-1.172,2.589,2.589,0,0,1,2.039.922V-12h2.266V0H27.742l-.109-.9A2.657,2.657,0,0,1,25.461.156,2.869,2.869,0,0,1,23.066-1.02,5.258,5.258,0,0,1,22.164-4.289Zm2.258.168A3.337,3.337,0,0,0,24.836-2.3a1.349,1.349,0,0,0,1.2.634,1.511,1.511,0,0,0,1.477-.884V-5.889a1.489,1.489,0,0,0-1.461-.884Q24.422-6.773,24.422-4.121ZM36.43,0A2.507,2.507,0,0,1,36.2-.758,2.732,2.732,0,0,1,34.07.156a3,3,0,0,1-2.059-.719A2.312,2.312,0,0,1,31.2-2.375a2.389,2.389,0,0,1,1-2.062,4.915,4.915,0,0,1,2.879-.727h1.039v-.484a1.393,1.393,0,0,0-.3-.937,1.183,1.183,0,0,0-.949-.352,1.345,1.345,0,0,0-.895.273.929.929,0,0,0-.324.75H31.383a2.268,2.268,0,0,1,.453-1.359,3,3,0,0,1,1.281-.98,4.669,4.669,0,0,1,1.859-.355,3.689,3.689,0,0,1,2.48.785,2.747,2.747,0,0,1,.918,2.207v3.664a4.041,4.041,0,0,0,.336,1.82V0ZM34.563-1.57a1.945,1.945,0,0,0,.922-.223,1.462,1.462,0,0,0,.625-.6V-3.844h-.844q-1.7,0-1.8,1.172l-.008.133a.9.9,0,0,0,.3.7A1.153,1.153,0,0,0,34.563-1.57Z" transform="translate(692.488 2503.58)" fill="#12263f"/>
    <path id="Trazado_906187" data-name="Trazado 906187" d="M3.57-10.531v2.078H5.016V-6.8H3.57v4.219a1.007,1.007,0,0,0,.18.672.9.9,0,0,0,.688.2A3.6,3.6,0,0,0,5.1-1.758V-.047a4.648,4.648,0,0,1-1.367.2,2.156,2.156,0,0,1-2.422-2.4V-6.8H.078V-8.453H1.313v-2.078Z" transform="translate(731.728 2503.58)" fill="#12263f"/>
    <path id="Trazado_906188" data-name="Trazado 906188" d="M.516-4.3A5.013,5.013,0,0,1,1-6.547,3.546,3.546,0,0,1,2.395-8.07a4.069,4.069,0,0,1,2.113-.539A3.849,3.849,0,0,1,7.3-7.562,4.2,4.2,0,0,1,8.508-4.719l.016.578A4.418,4.418,0,0,1,7.438-1.02,3.775,3.775,0,0,1,4.523.156,3.793,3.793,0,0,1,1.605-1.016,4.5,4.5,0,0,1,.516-4.2Zm2.258.16A3.16,3.16,0,0,0,3.227-2.3a1.5,1.5,0,0,0,1.3.638A1.5,1.5,0,0,0,5.8-2.294a3.457,3.457,0,0,0,.461-2.015A3.128,3.128,0,0,0,5.8-6.14a1.5,1.5,0,0,0-1.3-.649,1.474,1.474,0,0,0-1.281.646A3.516,3.516,0,0,0,2.773-4.144ZM14.492-2.336a.727.727,0,0,0-.41-.652,4.659,4.659,0,0,0-1.316-.426Q9.75-4.047,9.75-5.977a2.323,2.323,0,0,1,.934-1.879,3.766,3.766,0,0,1,2.441-.754,4.053,4.053,0,0,1,2.574.758,2.388,2.388,0,0,1,.965,1.969H14.406a1.092,1.092,0,0,0-.312-.8A1.322,1.322,0,0,0,13.117-7a1.351,1.351,0,0,0-.883.258.814.814,0,0,0-.312.656.7.7,0,0,0,.355.605,3.657,3.657,0,0,0,1.2.4A9.8,9.8,0,0,1,14.9-4.7,2.336,2.336,0,0,1,16.688-2.43,2.2,2.2,0,0,1,15.7-.559a4.28,4.28,0,0,1-2.562.715,4.47,4.47,0,0,1-1.887-.379A3.166,3.166,0,0,1,9.953-1.262a2.414,2.414,0,0,1-.469-1.426h2.141a1.179,1.179,0,0,0,.445.922,1.766,1.766,0,0,0,1.109.32,1.635,1.635,0,0,0,.98-.246A.766.766,0,0,0,14.492-2.336Z" transform="translate(736.898 2503.58)" fill="#12263f"/>
    <path id="Trazado_906189" data-name="Trazado 906189" d="M4.758.156A4.15,4.15,0,0,1,1.73-.984,4.054,4.054,0,0,1,.563-4.023v-.219A5.106,5.106,0,0,1,1.055-6.52,3.612,3.612,0,0,1,2.449-8.066a3.914,3.914,0,0,1,2.059-.543,3.508,3.508,0,0,1,2.73,1.094,4.444,4.444,0,0,1,1,3.1v.922H2.852a2.1,2.1,0,0,0,.66,1.328,2,2,0,0,0,1.395.5,2.437,2.437,0,0,0,2.039-.945L8.055-1.367A3.389,3.389,0,0,1,6.68-.246,4.511,4.511,0,0,1,4.758.156ZM4.5-6.789a1.411,1.411,0,0,0-1.09.455,2.357,2.357,0,0,0-.535,1.3H6.016v-.181a1.681,1.681,0,0,0-.406-1.165A1.456,1.456,0,0,0,4.5-6.789Zm8.531,5.125a1.481,1.481,0,0,0,1.016-.344,1.2,1.2,0,0,0,.406-.914H16.57A2.9,2.9,0,0,1,16.1-1.348,3.093,3.093,0,0,1,14.84-.238a3.949,3.949,0,0,1-1.77.395A3.67,3.67,0,0,1,10.211-1,4.56,4.56,0,0,1,9.164-4.18v-.148A4.508,4.508,0,0,1,10.2-7.445a3.627,3.627,0,0,1,2.852-1.164,3.555,3.555,0,0,1,2.543.9,3.2,3.2,0,0,1,.973,2.4H14.453a1.551,1.551,0,0,0-.406-1.072,1.354,1.354,0,0,0-1.031-.412,1.36,1.36,0,0,0-1.191.575,3.333,3.333,0,0,0-.4,1.866v.235a3.375,3.375,0,0,0,.4,1.878A1.377,1.377,0,0,0,13.031-1.664ZM17.508-4.3a5.013,5.013,0,0,1,.484-2.242A3.546,3.546,0,0,1,19.387-8.07,4.069,4.069,0,0,1,21.5-8.609a3.849,3.849,0,0,1,2.793,1.047A4.2,4.2,0,0,1,25.5-4.719l.016.578A4.418,4.418,0,0,1,24.43-1.02,3.775,3.775,0,0,1,21.516.156,3.793,3.793,0,0,1,18.6-1.016,4.5,4.5,0,0,1,17.508-4.2Zm2.258.16A3.16,3.16,0,0,0,20.219-2.3a1.5,1.5,0,0,0,1.3.638,1.5,1.5,0,0,0,1.281-.63,3.457,3.457,0,0,0,.461-2.015A3.128,3.128,0,0,0,22.8-6.14a1.5,1.5,0,0,0-1.3-.649,1.474,1.474,0,0,0-1.281.646A3.516,3.516,0,0,0,19.766-4.144Zm9.219-4.309.07.977a2.951,2.951,0,0,1,2.43-1.133,2.453,2.453,0,0,1,2,.789,3.682,3.682,0,0,1,.672,2.359V0H31.9V-5.406a1.465,1.465,0,0,0-.312-1.043,1.4,1.4,0,0,0-1.039-.324,1.553,1.553,0,0,0-1.43.813V0H26.859V-8.453ZM35.516-4.3A5.013,5.013,0,0,1,36-6.547,3.546,3.546,0,0,1,37.395-8.07a4.069,4.069,0,0,1,2.113-.539A3.849,3.849,0,0,1,42.3-7.562a4.2,4.2,0,0,1,1.207,2.844l.016.578A4.418,4.418,0,0,1,42.438-1.02,3.775,3.775,0,0,1,39.523.156a3.793,3.793,0,0,1-2.918-1.172A4.5,4.5,0,0,1,35.516-4.2Zm2.258.16A3.16,3.16,0,0,0,38.227-2.3a1.5,1.5,0,0,0,1.3.638,1.5,1.5,0,0,0,1.281-.63,3.457,3.457,0,0,0,.461-2.015A3.128,3.128,0,0,0,40.8-6.14a1.5,1.5,0,0,0-1.3-.649,1.474,1.474,0,0,0-1.281.646A3.516,3.516,0,0,0,37.773-4.144ZM39.953-12h2.461L40.25-9.578H38.414Zm7.078,3.547.07.945a2.971,2.971,0,0,1,2.43-1.1A2.255,2.255,0,0,1,51.773-7.32a2.9,2.9,0,0,1,2.539-1.289,2.521,2.521,0,0,1,2.047.8,3.681,3.681,0,0,1,.672,2.41V0H54.766V-5.391a1.61,1.61,0,0,0-.281-1.051,1.246,1.246,0,0,0-.992-.332,1.409,1.409,0,0,0-1.406.969L52.094,0H49.836V-5.383a1.59,1.59,0,0,0-.289-1.062,1.259,1.259,0,0,0-.984-.328,1.463,1.463,0,0,0-1.391.8V0H44.914V-8.453ZM61.148,0H58.883V-8.453h2.266Zm-2.4-10.641a1.112,1.112,0,0,1,.34-.836,1.277,1.277,0,0,1,.926-.328,1.28,1.28,0,0,1,.922.328,1.105,1.105,0,0,1,.344.836,1.108,1.108,0,0,1-.348.844,1.283,1.283,0,0,1-.918.328A1.283,1.283,0,0,1,59.1-9.8,1.108,1.108,0,0,1,58.75-10.641Zm7.773,8.977a1.481,1.481,0,0,0,1.016-.344,1.2,1.2,0,0,0,.406-.914h2.117a2.9,2.9,0,0,1-.469,1.574A3.093,3.093,0,0,1,68.332-.238a3.949,3.949,0,0,1-1.77.395A3.67,3.67,0,0,1,63.7-1,4.56,4.56,0,0,1,62.656-4.18v-.148A4.508,4.508,0,0,1,63.7-7.445a3.627,3.627,0,0,1,2.852-1.164,3.555,3.555,0,0,1,2.543.9,3.2,3.2,0,0,1,.973,2.4H67.945a1.551,1.551,0,0,0-.406-1.072,1.354,1.354,0,0,0-1.031-.412,1.36,1.36,0,0,0-1.191.575,3.333,3.333,0,0,0-.4,1.866v.235a3.375,3.375,0,0,0,.4,1.878A1.377,1.377,0,0,0,66.523-1.664ZM71-4.3a5.013,5.013,0,0,1,.484-2.242A3.546,3.546,0,0,1,72.879-8.07a4.069,4.069,0,0,1,2.113-.539,3.849,3.849,0,0,1,2.793,1.047,4.2,4.2,0,0,1,1.207,2.844l.016.578A4.418,4.418,0,0,1,77.922-1.02,3.775,3.775,0,0,1,75.008.156,3.793,3.793,0,0,1,72.09-1.016,4.5,4.5,0,0,1,71-4.2Zm2.258.16A3.16,3.16,0,0,0,73.711-2.3a1.5,1.5,0,0,0,1.3.638,1.5,1.5,0,0,0,1.281-.63,3.457,3.457,0,0,0,.461-2.015,3.128,3.128,0,0,0-.461-1.831,1.5,1.5,0,0,0-1.3-.649,1.474,1.474,0,0,0-1.281.646A3.516,3.516,0,0,0,73.258-4.144ZM84.977-2.336a.727.727,0,0,0-.41-.652,4.659,4.659,0,0,0-1.316-.426q-3.016-.633-3.016-2.562a2.323,2.323,0,0,1,.934-1.879,3.766,3.766,0,0,1,2.441-.754,4.053,4.053,0,0,1,2.574.758,2.388,2.388,0,0,1,.965,1.969H84.891a1.092,1.092,0,0,0-.312-.8A1.322,1.322,0,0,0,83.6-7a1.351,1.351,0,0,0-.883.258.814.814,0,0,0-.312.656.7.7,0,0,0,.355.605,3.657,3.657,0,0,0,1.2.4,9.8,9.8,0,0,1,1.422.379A2.336,2.336,0,0,1,87.172-2.43,2.2,2.2,0,0,1,86.18-.559a4.28,4.28,0,0,1-2.562.715A4.47,4.47,0,0,1,81.73-.223a3.166,3.166,0,0,1-1.293-1.039,2.414,2.414,0,0,1-.469-1.426h2.141a1.179,1.179,0,0,0,.445.922,1.766,1.766,0,0,0,1.109.32,1.635,1.635,0,0,0,.98-.246A.766.766,0,0,0,84.977-2.336Z" transform="translate(679.458 2525.58)" fill="#12263f"/>
    <g id="Grupo_1118311" data-name="Grupo 1118311" transform="translate(284.578 2428)">
      <path id="Trazado_905441" data-name="Trazado 905441" d="M630.04,124.05a255.208,255.208,0,0,0-177.33,74.27l66.39,66.39a161.744,161.744,0,0,1,110.94-46.72V124.05Z" fill="#ffce73"/>
      <path id="Trazado_905442" data-name="Trazado 905442" d="M813.45,198.32a255.3,255.3,0,0,0-177.33-74.27v93.94a161.744,161.744,0,0,1,110.94,46.72l66.39-66.39Z" fill="#ffe2b7"/>
      <path id="Trazado_905443" data-name="Trazado 905443" d="M889.18,380.12A255.227,255.227,0,0,0,817.7,202.65l-66.41,66.41a161.748,161.748,0,0,1,44.1,111.07h93.78Z" fill="#efb499"/>
      <path id="Trazado_905444" data-name="Trazado 905444" d="M448.45,202.64a255.227,255.227,0,0,0-71.48,177.47h93.78a161.766,161.766,0,0,1,44.1-111.07l-66.41-66.41Z" fill="#e2f5f1"/>
    </g>
    <path id="Trazado_905445" data-name="Trazado 905445" d="M650.19,348.87,542.53,189.07a3.094,3.094,0,0,0-5.33,3.12l86.95,171.95a12.892,12.892,0,0,0,.8,1.57,15.2,15.2,0,1,0,26.22-15.38,14.948,14.948,0,0,0-.99-1.46Z" transform="translate(284.578 2428)" fill="#727997"/>
    <path id="Trazado_905446" data-name="Trazado 905446" d="M95.87,100.47h-66a3.592,3.592,0,0,1,2.64-6.68,5.585,5.585,0,0,1,2.06-2.34,6.391,6.391,0,0,1,6.63.32,8.281,8.281,0,0,1,10.45-10.2c5.25-6.5,13.29-8.41,18.64-5.42,4.1,2.3,5.44,6.8,5.79,8.19a6.506,6.506,0,0,1,5.42,1.39,6.113,6.113,0,0,1,1.89,3.4,7.018,7.018,0,0,1,6.93-2.9,7.127,7.127,0,0,1,5.54,7.18,3.566,3.566,0,0,1,0,7.05Z" transform="translate(284.578 2428)" fill="#fcfcfa"/>
    <path id="Trazado_905447" data-name="Trazado 905447" d="M302.08,167H192.21a5.978,5.978,0,0,1,4.41-11.11,9.236,9.236,0,0,1,3.44-3.89c3.15-1.93,7.4-1.67,11.03.54-.22-.83-1.69-6.82,2.1-11.95a14.449,14.449,0,0,1,15.31-5.03c8.74-10.82,22.12-14,31.03-9.02,6.83,3.82,9.06,11.33,9.65,13.63a10.849,10.849,0,0,1,9.02,2.31,10.253,10.253,0,0,1,3.15,5.66,11.682,11.682,0,0,1,11.53-4.82,11.886,11.886,0,0,1,9.23,11.95,5.937,5.937,0,0,1,0,11.74Z" transform="translate(284.578 2428)" fill="#fcfcfa"/>
    <path id="Trazado_905448" data-name="Trazado 905448" d="M241.61,56.1H189.98a2.808,2.808,0,0,1,2.07-5.22,4.324,4.324,0,0,1,1.61-1.83,4.983,4.983,0,0,1,5.18.25,6.9,6.9,0,0,1,.99-5.62,6.774,6.774,0,0,1,7.19-2.36c4.11-5.09,10.39-6.58,14.58-4.24a10.245,10.245,0,0,1,4.53,6.4,5.119,5.119,0,0,1,4.24,1.08,4.8,4.8,0,0,1,1.48,2.66,5.485,5.485,0,0,1,5.42-2.27,5.587,5.587,0,0,1,4.34,5.62,2.793,2.793,0,0,1,0,5.52Z" transform="translate(284.578 2428)" fill="#fcfcfa"/>
    <path id="Trazado_906190" data-name="Trazado 906190" d="M7.859-4.93h-4.5v3.047H8.641V0H1.016V-11.375H8.625v1.9H3.359v2.711h4.5Zm6.586,2.594a.727.727,0,0,0-.41-.652,4.659,4.659,0,0,0-1.316-.426Q9.7-4.047,9.7-5.977a2.323,2.323,0,0,1,.934-1.879,3.766,3.766,0,0,1,2.441-.754,4.053,4.053,0,0,1,2.574.758,2.388,2.388,0,0,1,.965,1.969H14.359a1.092,1.092,0,0,0-.312-.8A1.322,1.322,0,0,0,13.07-7a1.351,1.351,0,0,0-.883.258.814.814,0,0,0-.312.656.7.7,0,0,0,.355.605,3.657,3.657,0,0,0,1.2.4,9.8,9.8,0,0,1,1.422.379A2.336,2.336,0,0,1,16.641-2.43a2.2,2.2,0,0,1-.992,1.871,4.28,4.28,0,0,1-2.562.715A4.47,4.47,0,0,1,11.2-.223,3.166,3.166,0,0,1,9.906-1.262a2.414,2.414,0,0,1-.469-1.426h2.141a1.179,1.179,0,0,0,.445.922,1.766,1.766,0,0,0,1.109.32,1.635,1.635,0,0,0,.98-.246A.766.766,0,0,0,14.445-2.336Zm6.352-8.2v2.078h1.445V-6.8H20.8v4.219a1.007,1.007,0,0,0,.18.672.9.9,0,0,0,.688.2,3.6,3.6,0,0,0,.664-.055V-.047a4.648,4.648,0,0,1-1.367.2,2.156,2.156,0,0,1-2.422-2.4V-6.8H17.3V-8.453h1.234v-2.078ZM28.563-.859A2.831,2.831,0,0,1,26.25.156a2.67,2.67,0,0,1-2.074-.781,3.335,3.335,0,0,1-.73-2.289V-8.453H25.7v5.467q0,1.322,1.2,1.322a1.63,1.63,0,0,0,1.578-.8V-8.453H30.75V0H28.625ZM32.1-4.289a5.094,5.094,0,0,1,.887-3.148,2.877,2.877,0,0,1,2.426-1.172,2.589,2.589,0,0,1,2.039.922V-12h2.266V0H37.68L37.57-.9A2.657,2.657,0,0,1,35.4.156,2.869,2.869,0,0,1,33-1.02,5.258,5.258,0,0,1,32.1-4.289Zm2.258.168A3.337,3.337,0,0,0,34.773-2.3a1.349,1.349,0,0,0,1.2.634,1.511,1.511,0,0,0,1.477-.884V-5.889a1.489,1.489,0,0,0-1.461-.884Q34.359-6.773,34.359-4.121ZM43.852,0H41.586V-8.453h2.266Zm-2.4-10.641a1.112,1.112,0,0,1,.34-.836,1.277,1.277,0,0,1,.926-.328,1.28,1.28,0,0,1,.922.328,1.105,1.105,0,0,1,.344.836,1.108,1.108,0,0,1-.348.844,1.283,1.283,0,0,1-.918.328A1.283,1.283,0,0,1,41.8-9.8,1.108,1.108,0,0,1,41.453-10.641ZM45.359-4.3a5.013,5.013,0,0,1,.484-2.242A3.546,3.546,0,0,1,47.238-8.07a4.069,4.069,0,0,1,2.113-.539,3.849,3.849,0,0,1,2.793,1.047,4.2,4.2,0,0,1,1.207,2.844l.016.578A4.418,4.418,0,0,1,52.281-1.02,3.775,3.775,0,0,1,49.367.156a3.793,3.793,0,0,1-2.918-1.172A4.5,4.5,0,0,1,45.359-4.2Zm2.258.16A3.16,3.16,0,0,0,48.07-2.3a1.5,1.5,0,0,0,1.3.638,1.5,1.5,0,0,0,1.281-.63,3.457,3.457,0,0,0,.461-2.015,3.128,3.128,0,0,0-.461-1.831,1.5,1.5,0,0,0-1.3-.649,1.474,1.474,0,0,0-1.281.646A3.516,3.516,0,0,0,47.617-4.144ZM59.336-2.336a.727.727,0,0,0-.41-.652,4.659,4.659,0,0,0-1.316-.426q-3.016-.633-3.016-2.562a2.323,2.323,0,0,1,.934-1.879,3.766,3.766,0,0,1,2.441-.754,4.053,4.053,0,0,1,2.574.758,2.388,2.388,0,0,1,.965,1.969H59.25a1.092,1.092,0,0,0-.312-.8A1.322,1.322,0,0,0,57.961-7a1.351,1.351,0,0,0-.883.258.814.814,0,0,0-.312.656.7.7,0,0,0,.355.605,3.657,3.657,0,0,0,1.2.4,9.8,9.8,0,0,1,1.422.379A2.336,2.336,0,0,1,61.531-2.43a2.2,2.2,0,0,1-.992,1.871,4.28,4.28,0,0,1-2.562.715A4.47,4.47,0,0,1,56.09-.223,3.166,3.166,0,0,1,54.8-1.262a2.414,2.414,0,0,1-.469-1.426h2.141a1.179,1.179,0,0,0,.445.922,1.766,1.766,0,0,0,1.109.32A1.635,1.635,0,0,0,59-1.691.766.766,0,0,0,59.336-2.336Z" transform="translate(1068.068 2507.02)" fill="#12263f"/>
    <path id="Trazado_906191" data-name="Trazado 906191" d="M.516-4.289A5.094,5.094,0,0,1,1.4-7.437,2.877,2.877,0,0,1,3.828-8.609a2.589,2.589,0,0,1,2.039.922V-12H8.133V0H6.094L5.984-.9A2.657,2.657,0,0,1,3.813.156,2.869,2.869,0,0,1,1.418-1.02,5.258,5.258,0,0,1,.516-4.289Zm2.258.168A3.337,3.337,0,0,0,3.188-2.3a1.349,1.349,0,0,0,1.2.634,1.511,1.511,0,0,0,1.477-.884V-5.889a1.489,1.489,0,0,0-1.461-.884Q2.773-6.773,2.773-4.121Zm11,4.277A4.15,4.15,0,0,1,10.746-.984,4.054,4.054,0,0,1,9.578-4.023v-.219A5.106,5.106,0,0,1,10.07-6.52a3.612,3.612,0,0,1,1.395-1.547,3.914,3.914,0,0,1,2.059-.543,3.508,3.508,0,0,1,2.73,1.094,4.444,4.444,0,0,1,1,3.1v.922H11.867a2.1,2.1,0,0,0,.66,1.328,2,2,0,0,0,1.395.5,2.437,2.437,0,0,0,2.039-.945L17.07-1.367A3.389,3.389,0,0,1,15.7-.246,4.511,4.511,0,0,1,13.773.156Zm-.258-6.945a1.411,1.411,0,0,0-1.09.455,2.357,2.357,0,0,0-.535,1.3h3.141v-.181a1.681,1.681,0,0,0-.406-1.165A1.456,1.456,0,0,0,13.516-6.789ZM26.031-1.664a1.481,1.481,0,0,0,1.016-.344,1.2,1.2,0,0,0,.406-.914H29.57A2.9,2.9,0,0,1,29.1-1.348,3.093,3.093,0,0,1,27.84-.238a3.949,3.949,0,0,1-1.77.395A3.67,3.67,0,0,1,23.211-1,4.56,4.56,0,0,1,22.164-4.18v-.148A4.508,4.508,0,0,1,23.2-7.445a3.627,3.627,0,0,1,2.852-1.164,3.555,3.555,0,0,1,2.543.9,3.2,3.2,0,0,1,.973,2.4H27.453a1.551,1.551,0,0,0-.406-1.072,1.354,1.354,0,0,0-1.031-.412,1.36,1.36,0,0,0-1.191.575,3.333,3.333,0,0,0-.4,1.866v.235a3.375,3.375,0,0,0,.4,1.878A1.377,1.377,0,0,0,26.031-1.664ZM35.758,0a2.507,2.507,0,0,1-.227-.758A2.732,2.732,0,0,1,33.4.156,3,3,0,0,1,31.34-.562a2.312,2.312,0,0,1-.816-1.812,2.389,2.389,0,0,1,1-2.062A4.915,4.915,0,0,1,34.4-5.164h1.039v-.484a1.393,1.393,0,0,0-.3-.937,1.183,1.183,0,0,0-.949-.352,1.345,1.345,0,0,0-.895.273.929.929,0,0,0-.324.75H30.711a2.268,2.268,0,0,1,.453-1.359,3,3,0,0,1,1.281-.98A4.669,4.669,0,0,1,34.3-8.609a3.689,3.689,0,0,1,2.48.785A2.747,2.747,0,0,1,37.7-5.617v3.664a4.041,4.041,0,0,0,.336,1.82V0ZM33.891-1.57a1.945,1.945,0,0,0,.922-.223,1.462,1.462,0,0,0,.625-.6V-3.844h-.844q-1.7,0-1.8,1.172l-.008.133a.9.9,0,0,0,.3.7A1.153,1.153,0,0,0,33.891-1.57Zm10.125-.766a.727.727,0,0,0-.41-.652,4.659,4.659,0,0,0-1.316-.426q-3.016-.633-3.016-2.562a2.323,2.323,0,0,1,.934-1.879,3.766,3.766,0,0,1,2.441-.754,4.053,4.053,0,0,1,2.574.758,2.388,2.388,0,0,1,.965,1.969H43.93a1.092,1.092,0,0,0-.312-.8A1.322,1.322,0,0,0,42.641-7a1.351,1.351,0,0,0-.883.258.814.814,0,0,0-.312.656.7.7,0,0,0,.355.605,3.657,3.657,0,0,0,1.2.4,9.8,9.8,0,0,1,1.422.379A2.336,2.336,0,0,1,46.211-2.43a2.2,2.2,0,0,1-.992,1.871,4.28,4.28,0,0,1-2.562.715A4.47,4.47,0,0,1,40.77-.223a3.166,3.166,0,0,1-1.293-1.039,2.414,2.414,0,0,1-.469-1.426h2.141a1.179,1.179,0,0,0,.445.922,1.766,1.766,0,0,0,1.109.32,1.635,1.635,0,0,0,.98-.246A.766.766,0,0,0,44.016-2.336Zm3.3-1.969A5.013,5.013,0,0,1,47.8-6.547,3.546,3.546,0,0,1,49.191-8.07,4.069,4.069,0,0,1,51.3-8.609,3.849,3.849,0,0,1,54.1-7.562,4.2,4.2,0,0,1,55.3-4.719l.016.578A4.418,4.418,0,0,1,54.234-1.02,3.775,3.775,0,0,1,51.32.156,3.793,3.793,0,0,1,48.4-1.016,4.5,4.5,0,0,1,47.313-4.2Zm2.258.16A3.16,3.16,0,0,0,50.023-2.3a1.5,1.5,0,0,0,1.3.638,1.5,1.5,0,0,0,1.281-.63,3.457,3.457,0,0,0,.461-2.015A3.128,3.128,0,0,0,52.6-6.14a1.5,1.5,0,0,0-1.3-.649,1.474,1.474,0,0,0-1.281.646A3.516,3.516,0,0,0,49.57-4.144Z" transform="translate(1071.208 2529.02)" fill="#12263f"/>
    <path id="Trazado_906192" data-name="Trazado 906192" d="M4.078-11.375,7-3.125l2.906-8.25h3.078V0H10.633V-3.109l.234-5.367L7.8,0H6.188L3.125-8.469l.234,5.359V0H1.016V-11.375ZM14.531-4.3a5.013,5.013,0,0,1,.484-2.242A3.546,3.546,0,0,1,16.41-8.07a4.069,4.069,0,0,1,2.113-.539,3.849,3.849,0,0,1,2.793,1.047,4.2,4.2,0,0,1,1.207,2.844l.016.578A4.418,4.418,0,0,1,21.453-1.02,3.775,3.775,0,0,1,18.539.156a3.793,3.793,0,0,1-2.918-1.172A4.5,4.5,0,0,1,14.531-4.2Zm2.258.16A3.16,3.16,0,0,0,17.242-2.3a1.5,1.5,0,0,0,1.3.638,1.5,1.5,0,0,0,1.281-.63,3.457,3.457,0,0,0,.461-2.015A3.128,3.128,0,0,0,19.82-6.14a1.5,1.5,0,0,0-1.3-.649,1.474,1.474,0,0,0-1.281.646A3.516,3.516,0,0,0,16.789-4.144Zm9.219-4.309.07.977a2.951,2.951,0,0,1,2.43-1.133,2.453,2.453,0,0,1,2,.789,3.682,3.682,0,0,1,.672,2.359V0H28.922V-5.406a1.465,1.465,0,0,0-.312-1.043,1.4,1.4,0,0,0-1.039-.324,1.553,1.553,0,0,0-1.43.813V0H23.883V-8.453ZM35.273,0H33.008V-8.453h2.266Zm-2.4-10.641a1.112,1.112,0,0,1,.34-.836,1.277,1.277,0,0,1,.926-.328,1.28,1.28,0,0,1,.922.328,1.105,1.105,0,0,1,.344.836,1.108,1.108,0,0,1-.348.844,1.283,1.283,0,0,1-.918.328,1.283,1.283,0,0,1-.918-.328A1.108,1.108,0,0,1,32.875-10.641Z" transform="translate(1202.878 2619.02)" fill="#12263f"/>
    <path id="Trazado_906193" data-name="Trazado 906193" d="M3.57-10.531v2.078H5.016V-6.8H3.57v4.219a1.007,1.007,0,0,0,.18.672.9.9,0,0,0,.688.2A3.6,3.6,0,0,0,5.1-1.758V-.047a4.648,4.648,0,0,1-1.367.2,2.156,2.156,0,0,1-2.422-2.4V-6.8H.078V-8.453H1.313v-2.078Z" transform="translate(1239.148 2619.02)" fill="#12263f"/>
    <path id="Trazado_906194" data-name="Trazado 906194" d="M.516-4.3A5.013,5.013,0,0,1,1-6.547,3.546,3.546,0,0,1,2.395-8.07a4.069,4.069,0,0,1,2.113-.539A3.849,3.849,0,0,1,7.3-7.562,4.2,4.2,0,0,1,8.508-4.719l.016.578A4.418,4.418,0,0,1,7.438-1.02,3.775,3.775,0,0,1,4.523.156,3.793,3.793,0,0,1,1.605-1.016,4.5,4.5,0,0,1,.516-4.2Zm2.258.16A3.16,3.16,0,0,0,3.227-2.3a1.5,1.5,0,0,0,1.3.638A1.5,1.5,0,0,0,5.8-2.294a3.457,3.457,0,0,0,.461-2.015A3.128,3.128,0,0,0,5.8-6.14a1.5,1.5,0,0,0-1.3-.649,1.474,1.474,0,0,0-1.281.646A3.516,3.516,0,0,0,2.773-4.144Z" transform="translate(1244.318 2619.02)" fill="#12263f"/>
    <path id="Trazado_906195" data-name="Trazado 906195" d="M5.617-6.336A6.134,6.134,0,0,0,4.8-6.4a1.654,1.654,0,0,0-1.68.867V0H.867V-8.453H3l.063,1.008A2.092,2.092,0,0,1,4.945-8.609a2.366,2.366,0,0,1,.7.1Z" transform="translate(1253.358 2619.02)" fill="#12263f"/>
    <path id="Trazado_906196" data-name="Trazado 906196" d="M4.758.156A4.15,4.15,0,0,1,1.73-.984,4.054,4.054,0,0,1,.563-4.023v-.219A5.106,5.106,0,0,1,1.055-6.52,3.612,3.612,0,0,1,2.449-8.066a3.914,3.914,0,0,1,2.059-.543,3.508,3.508,0,0,1,2.73,1.094,4.444,4.444,0,0,1,1,3.1v.922H2.852a2.1,2.1,0,0,0,.66,1.328,2,2,0,0,0,1.395.5,2.437,2.437,0,0,0,2.039-.945L8.055-1.367A3.389,3.389,0,0,1,6.68-.246,4.511,4.511,0,0,1,4.758.156ZM4.5-6.789a1.411,1.411,0,0,0-1.09.455,2.357,2.357,0,0,0-.535,1.3H6.016v-.181a1.681,1.681,0,0,0-.406-1.165A1.456,1.456,0,0,0,4.5-6.789ZM9.164-4.3a5.013,5.013,0,0,1,.484-2.242A3.546,3.546,0,0,1,11.043-8.07a4.069,4.069,0,0,1,2.113-.539,3.849,3.849,0,0,1,2.793,1.047,4.2,4.2,0,0,1,1.207,2.844l.016.578A4.418,4.418,0,0,1,16.086-1.02,3.775,3.775,0,0,1,13.172.156a3.793,3.793,0,0,1-2.918-1.172A4.5,4.5,0,0,1,9.164-4.2Zm2.258.16A3.16,3.16,0,0,0,11.875-2.3a1.5,1.5,0,0,0,1.3.638,1.5,1.5,0,0,0,1.281-.63,3.457,3.457,0,0,0,.461-2.015,3.128,3.128,0,0,0-.461-1.831,1.5,1.5,0,0,0-1.3-.649,1.474,1.474,0,0,0-1.281.646A3.516,3.516,0,0,0,11.422-4.144Z" transform="translate(1259.048 2619.02)" fill="#12263f"/>
    <path id="Trazado_906199" data-name="Trazado 906199" d="M.516-4.289A5.094,5.094,0,0,1,1.4-7.437,2.877,2.877,0,0,1,3.828-8.609a2.589,2.589,0,0,1,2.039.922V-12H8.133V0H6.094L5.984-.9A2.657,2.657,0,0,1,3.813.156,2.869,2.869,0,0,1,1.418-1.02,5.258,5.258,0,0,1,.516-4.289Zm2.258.168A3.337,3.337,0,0,0,3.188-2.3a1.349,1.349,0,0,0,1.2.634,1.511,1.511,0,0,0,1.477-.884V-5.889a1.489,1.489,0,0,0-1.461-.884Q2.773-6.773,2.773-4.121Zm11,4.277A4.15,4.15,0,0,1,10.746-.984,4.054,4.054,0,0,1,9.578-4.023v-.219A5.106,5.106,0,0,1,10.07-6.52a3.612,3.612,0,0,1,1.395-1.547,3.914,3.914,0,0,1,2.059-.543,3.508,3.508,0,0,1,2.73,1.094,4.444,4.444,0,0,1,1,3.1v.922H11.867a2.1,2.1,0,0,0,.66,1.328,2,2,0,0,0,1.395.5,2.437,2.437,0,0,0,2.039-.945L17.07-1.367A3.389,3.389,0,0,1,15.7-.246,4.511,4.511,0,0,1,13.773.156Zm-.258-6.945a1.411,1.411,0,0,0-1.09.455,2.357,2.357,0,0,0-.535,1.3h3.141v-.181a1.681,1.681,0,0,0-.406-1.165A1.456,1.456,0,0,0,13.516-6.789Z" transform="translate(1208.878 2641.02)" fill="#12263f"/>
    <path id="Trazado_906198" data-name="Trazado 906198" d="M5.617-6.336A6.134,6.134,0,0,0,4.8-6.4a1.654,1.654,0,0,0-1.68.867V0H.867V-8.453H3l.063,1.008A2.092,2.092,0,0,1,4.945-8.609a2.366,2.366,0,0,1,.7.1Z" transform="translate(1230.518 2641.02)" fill="#12263f"/>
    <path id="Trazado_906197" data-name="Trazado 906197" d="M4.758.156A4.15,4.15,0,0,1,1.73-.984,4.054,4.054,0,0,1,.563-4.023v-.219A5.106,5.106,0,0,1,1.055-6.52,3.612,3.612,0,0,1,2.449-8.066a3.914,3.914,0,0,1,2.059-.543,3.508,3.508,0,0,1,2.73,1.094,4.444,4.444,0,0,1,1,3.1v.922H2.852a2.1,2.1,0,0,0,.66,1.328,2,2,0,0,0,1.395.5,2.437,2.437,0,0,0,2.039-.945L8.055-1.367A3.389,3.389,0,0,1,6.68-.246,4.511,4.511,0,0,1,4.758.156ZM4.5-6.789a1.411,1.411,0,0,0-1.09.455,2.357,2.357,0,0,0-.535,1.3H6.016v-.181a1.681,1.681,0,0,0-.406-1.165A1.456,1.456,0,0,0,4.5-6.789Zm4.664,2.5a5.094,5.094,0,0,1,.887-3.148,2.877,2.877,0,0,1,2.426-1.172,2.589,2.589,0,0,1,2.039.922V-12h2.266V0H14.742l-.109-.9A2.657,2.657,0,0,1,12.461.156,2.869,2.869,0,0,1,10.066-1.02,5.258,5.258,0,0,1,9.164-4.289Zm2.258.168A3.337,3.337,0,0,0,11.836-2.3a1.349,1.349,0,0,0,1.2.634,1.511,1.511,0,0,0,1.477-.884V-5.889a1.489,1.489,0,0,0-1.461-.884Q11.422-6.773,11.422-4.121Zm11,4.277A4.15,4.15,0,0,1,19.395-.984a4.054,4.054,0,0,1-1.168-3.039v-.219a5.106,5.106,0,0,1,.492-2.277,3.612,3.612,0,0,1,1.395-1.547,3.914,3.914,0,0,1,2.059-.543A3.508,3.508,0,0,1,24.9-7.516a4.444,4.444,0,0,1,1,3.1v.922H20.516a2.1,2.1,0,0,0,.66,1.328,2,2,0,0,0,1.395.5,2.437,2.437,0,0,0,2.039-.945l1.109,1.242A3.389,3.389,0,0,1,24.344-.246,4.511,4.511,0,0,1,22.422.156Zm-.258-6.945a1.411,1.411,0,0,0-1.09.455,2.357,2.357,0,0,0-.535,1.3H23.68v-.181a1.681,1.681,0,0,0-.406-1.165A1.456,1.456,0,0,0,22.164-6.789Zm9.594,4.453a.727.727,0,0,0-.41-.652,4.659,4.659,0,0,0-1.316-.426q-3.016-.633-3.016-2.562a2.323,2.323,0,0,1,.934-1.879,3.766,3.766,0,0,1,2.441-.754,4.053,4.053,0,0,1,2.574.758,2.388,2.388,0,0,1,.965,1.969H31.672a1.092,1.092,0,0,0-.312-.8A1.322,1.322,0,0,0,30.383-7a1.351,1.351,0,0,0-.883.258.814.814,0,0,0-.312.656.7.7,0,0,0,.355.605,3.657,3.657,0,0,0,1.2.4,9.8,9.8,0,0,1,1.422.379A2.336,2.336,0,0,1,33.953-2.43a2.2,2.2,0,0,1-.992,1.871A4.28,4.28,0,0,1,30.4.156a4.47,4.47,0,0,1-1.887-.379,3.166,3.166,0,0,1-1.293-1.039,2.414,2.414,0,0,1-.469-1.426h2.141a1.179,1.179,0,0,0,.445.922,1.766,1.766,0,0,0,1.109.32,1.635,1.635,0,0,0,.98-.246A.766.766,0,0,0,31.758-2.336Z" transform="translate(1236.208 2641.02)" fill="#12263f"/>
    <path id="Trazado_906200" data-name="Trazado 906200" d="M9.43-2.336a.727.727,0,0,0-.41-.652A4.659,4.659,0,0,0,7.7-3.414Q4.687-4.047,4.688-5.977a2.323,2.323,0,0,1,.934-1.879,3.766,3.766,0,0,1,2.441-.754,4.053,4.053,0,0,1,2.574.758A2.388,2.388,0,0,1,11.6-5.883H9.344a1.092,1.092,0,0,0-.312-.8A1.322,1.322,0,0,0,8.055-7a1.351,1.351,0,0,0-.883.258.814.814,0,0,0-.312.656.7.7,0,0,0,.355.605,3.657,3.657,0,0,0,1.2.4A9.8,9.8,0,0,1,9.836-4.7,2.336,2.336,0,0,1,11.625-2.43a2.2,2.2,0,0,1-.992,1.871A4.28,4.28,0,0,1,8.07.156,4.47,4.47,0,0,1,6.184-.223,3.166,3.166,0,0,1,4.891-1.262a2.414,2.414,0,0,1-.469-1.426H6.563a1.179,1.179,0,0,0,.445.922,1.766,1.766,0,0,0,1.109.32,1.635,1.635,0,0,0,.98-.246A.766.766,0,0,0,9.43-2.336Zm3.3-1.969a5.013,5.013,0,0,1,.484-2.242A3.546,3.546,0,0,1,14.605-8.07a4.069,4.069,0,0,1,2.113-.539,3.849,3.849,0,0,1,2.793,1.047,4.2,4.2,0,0,1,1.207,2.844l.016.578A4.418,4.418,0,0,1,19.648-1.02,3.775,3.775,0,0,1,16.734.156a3.793,3.793,0,0,1-2.918-1.172A4.5,4.5,0,0,1,12.727-4.2Zm2.258.16A3.16,3.16,0,0,0,15.438-2.3a1.5,1.5,0,0,0,1.3.638,1.5,1.5,0,0,0,1.281-.63,3.457,3.457,0,0,0,.461-2.015,3.128,3.128,0,0,0-.461-1.831,1.5,1.5,0,0,0-1.3-.649,1.474,1.474,0,0,0-1.281.646A3.516,3.516,0,0,0,14.984-4.144Zm10.656,2.48a1.481,1.481,0,0,0,1.016-.344,1.2,1.2,0,0,0,.406-.914H29.18a2.9,2.9,0,0,1-.469,1.574A3.093,3.093,0,0,1,27.449-.238a3.949,3.949,0,0,1-1.77.395A3.67,3.67,0,0,1,22.82-1,4.56,4.56,0,0,1,21.773-4.18v-.148a4.508,4.508,0,0,1,1.039-3.117,3.627,3.627,0,0,1,2.852-1.164,3.555,3.555,0,0,1,2.543.9,3.2,3.2,0,0,1,.973,2.4H27.063a1.551,1.551,0,0,0-.406-1.072,1.354,1.354,0,0,0-1.031-.412,1.36,1.36,0,0,0-1.191.575,3.333,3.333,0,0,0-.4,1.866v.235a3.375,3.375,0,0,0,.4,1.878A1.377,1.377,0,0,0,25.641-1.664ZM32.852,0H30.586V-8.453h2.266Zm-2.4-10.641a1.112,1.112,0,0,1,.34-.836,1.277,1.277,0,0,1,.926-.328,1.28,1.28,0,0,1,.922.328,1.105,1.105,0,0,1,.344.836,1.108,1.108,0,0,1-.348.844,1.283,1.283,0,0,1-.918.328A1.283,1.283,0,0,1,30.8-9.8,1.108,1.108,0,0,1,30.453-10.641ZM39.609,0a2.507,2.507,0,0,1-.227-.758A2.732,2.732,0,0,1,37.25.156a3,3,0,0,1-2.059-.719,2.312,2.312,0,0,1-.816-1.812,2.389,2.389,0,0,1,1-2.062,4.915,4.915,0,0,1,2.879-.727h1.039v-.484a1.393,1.393,0,0,0-.3-.937,1.183,1.183,0,0,0-.949-.352,1.345,1.345,0,0,0-.895.273.929.929,0,0,0-.324.75H34.563a2.268,2.268,0,0,1,.453-1.359,3,3,0,0,1,1.281-.98,4.669,4.669,0,0,1,1.859-.355,3.689,3.689,0,0,1,2.48.785,2.747,2.747,0,0,1,.918,2.207v3.664a4.041,4.041,0,0,0,.336,1.82V0ZM37.742-1.57a1.945,1.945,0,0,0,.922-.223,1.462,1.462,0,0,0,.625-.6V-3.844h-.844q-1.7,0-1.8,1.172l-.008.133a.9.9,0,0,0,.3.7A1.153,1.153,0,0,0,37.742-1.57ZM45.672,0H43.406V-12h2.266Zm5.75.156A4.15,4.15,0,0,1,48.395-.984a4.054,4.054,0,0,1-1.168-3.039v-.219a5.106,5.106,0,0,1,.492-2.277,3.612,3.612,0,0,1,1.395-1.547,3.914,3.914,0,0,1,2.059-.543A3.508,3.508,0,0,1,53.9-7.516a4.444,4.444,0,0,1,1,3.1v.922H49.516a2.1,2.1,0,0,0,.66,1.328,2,2,0,0,0,1.395.5,2.437,2.437,0,0,0,2.039-.945l1.109,1.242A3.389,3.389,0,0,1,53.344-.246,4.511,4.511,0,0,1,51.422.156Zm-.258-6.945a1.411,1.411,0,0,0-1.09.455,2.357,2.357,0,0,0-.535,1.3H52.68v-.181a1.681,1.681,0,0,0-.406-1.165A1.456,1.456,0,0,0,51.164-6.789Zm9.594,4.453a.727.727,0,0,0-.41-.652,4.659,4.659,0,0,0-1.316-.426q-3.016-.633-3.016-2.562a2.323,2.323,0,0,1,.934-1.879,3.766,3.766,0,0,1,2.441-.754,4.053,4.053,0,0,1,2.574.758,2.388,2.388,0,0,1,.965,1.969H60.672a1.092,1.092,0,0,0-.312-.8A1.322,1.322,0,0,0,59.383-7a1.351,1.351,0,0,0-.883.258.814.814,0,0,0-.312.656.7.7,0,0,0,.355.605,3.657,3.657,0,0,0,1.2.4,9.8,9.8,0,0,1,1.422.379A2.336,2.336,0,0,1,62.953-2.43a2.2,2.2,0,0,1-.992,1.871A4.28,4.28,0,0,1,59.4.156a4.47,4.47,0,0,1-1.887-.379,3.166,3.166,0,0,1-1.293-1.039,2.414,2.414,0,0,1-.469-1.426h2.141a1.179,1.179,0,0,0,.445.922,1.766,1.766,0,0,0,1.109.32,1.635,1.635,0,0,0,.98-.246A.766.766,0,0,0,60.758-2.336Z" transform="translate(1208.038 2663.02)" fill="#12263f"/>
  </g>
</svg>
