<svg xmlns="http://www.w3.org/2000/svg" xmlns:xlink="http://www.w3.org/1999/xlink" width="1030" height="346.1" viewBox="0 0 1030 346.1">
  <defs>
    <clipPath id="clip-path">
      <path id="Trazado_904915" data-name="Trazado 904915" d="M283,0H0V346.1H1030V0Z" fill="none"/>
    </clipPath>
  </defs>
  <g id="Grupo_1118371" data-name="Grupo 1118371" transform="translate(-285 -5302.453)">
    <g id="Grupo_1118096" data-name="Grupo 1118096" transform="translate(285 5302.453)">
      <path id="Trazado_904804" data-name="Trazado 904804" d="M283,0H0V346.1H1030V0Z" fill="#feebcf"/>
      <path id="Trazado_904805" data-name="Trazado 904805" d="M30.25,53.1h98.36a5.354,5.354,0,0,0-3.95-9.95,8.376,8.376,0,0,0-3.08-3.49c-2.82-1.73-6.63-1.5-9.88.48a13.082,13.082,0,0,0-1.88-10.7,12.965,12.965,0,0,0-13.7-4.51c-7.82-9.69-19.8-12.54-27.78-8.07C62.23,20.28,60.23,27,59.7,29.06a9.73,9.73,0,0,0-8.07,2.06,9.179,9.179,0,0,0-2.82,5.07,10.475,10.475,0,0,0-10.32-4.32,10.632,10.632,0,0,0-8.26,10.7,5.314,5.314,0,0,0,0,10.51Z" fill="#fcfcfa"/>
      <path id="Trazado_904806" data-name="Trazado 904806" d="M901.25,89.84h98.36a5.354,5.354,0,0,0-3.95-9.95,8.376,8.376,0,0,0-3.08-3.49c-2.82-1.73-6.63-1.5-9.88.48a12.351,12.351,0,0,0-15.58-15.21c-7.82-9.69-19.8-12.54-27.78-8.07-6.11,3.42-8.11,10.14-8.64,12.2a9.73,9.73,0,0,0-8.07,2.06,9.179,9.179,0,0,0-2.82,5.07,10.475,10.475,0,0,0-10.32-4.32,10.632,10.632,0,0,0-8.26,10.7,5.314,5.314,0,0,0,0,10.51Z" fill="#fcfcfa"/>
    </g>
    <line id="Línea_3454" data-name="Línea 3454" x2="432.63" transform="translate(616.99 5579.393)" fill="none" stroke="#7d3a1b" stroke-miterlimit="10" stroke-width="1"/>
    <line id="Línea_3455" data-name="Línea 3455" x2="432.63" transform="translate(616.99 5549.493)" fill="none" stroke="#7d3a1b" stroke-miterlimit="10" stroke-width="1"/>
    <line id="Línea_3456" data-name="Línea 3456" x2="432.63" transform="translate(616.99 5519.593)" fill="none" stroke="#7d3a1b" stroke-miterlimit="10" stroke-width="1"/>
    <line id="Línea_3457" data-name="Línea 3457" x2="432.63" transform="translate(616.99 5489.693)" fill="none" stroke="#7d3a1b" stroke-miterlimit="10" stroke-width="1"/>
    <line id="Línea_3458" data-name="Línea 3458" x2="432.63" transform="translate(616.99 5459.793)" fill="none" stroke="#7d3a1b" stroke-miterlimit="10" stroke-width="1"/>
    <line id="Línea_3459" data-name="Línea 3459" x2="432.63" transform="translate(616.99 5429.893)" fill="none" stroke="#7d3a1b" stroke-miterlimit="10" stroke-width="1"/>
    <line id="Línea_3460" data-name="Línea 3460" x2="432.63" transform="translate(616.99 5399.993)" fill="none" stroke="#7d3a1b" stroke-miterlimit="10" stroke-width="1"/>
    <line id="Línea_3461" data-name="Línea 3461" x2="432.63" transform="translate(616.99 5370.093)" fill="none" stroke="#7d3a1b" stroke-miterlimit="10" stroke-width="1"/>
    <line id="Línea_3462" data-name="Línea 3462" x2="432.63" transform="translate(616.99 5340.193)" fill="none" stroke="#7d3a1b" stroke-miterlimit="10" stroke-width="1"/>
    <rect id="Rectángulo_408936" data-name="Rectángulo 408936" width="131.96" height="47" transform="translate(667.62 5610.253) rotate(-90)" fill="#ffb937"/>
    <rect id="Rectángulo_408937" data-name="Rectángulo 408937" width="191.56" height="47" transform="translate(809.62 5608.863) rotate(-90)" fill="#ffb937"/>
    <rect id="Rectángulo_408938" data-name="Rectángulo 408938" width="249.56" height="47" transform="translate(953.62 5608.863) rotate(-90)" fill="#ffb937"/>
    <path id="Trazado_905780" data-name="Trazado 905780" d="M5.7,0H4.242V-9.633L1.328-8.562V-9.875L5.469-11.43H5.7ZM17.383,0H9.93V-1.039l3.938-4.375a9.354,9.354,0,0,0,1.207-1.613,2.693,2.693,0,0,0,.332-1.285,2.041,2.041,0,0,0-.539-1.461,1.885,1.885,0,0,0-1.437-.57,2.232,2.232,0,0,0-1.676.613,2.343,2.343,0,0,0-.6,1.707H9.711a3.355,3.355,0,0,1,1.012-2.539,3.751,3.751,0,0,1,2.707-.969,3.6,3.6,0,0,1,2.508.832,2.838,2.838,0,0,1,.922,2.215q0,1.68-2.141,4l-3.047,3.3h5.711Zm8.664-4.852a6.61,6.61,0,0,1-.867,3.773A3.084,3.084,0,0,1,22.469.156a3.107,3.107,0,0,1-2.7-1.207,6.274,6.274,0,0,1-.906-3.605v-1.93a6.463,6.463,0,0,1,.867-3.727,3.108,3.108,0,0,1,2.719-1.219,3.136,3.136,0,0,1,2.7,1.176,6.237,6.237,0,0,1,.891,3.629ZM24.6-6.828A5.3,5.3,0,0,0,24.086-9.5a1.775,1.775,0,0,0-1.633-.84,1.751,1.751,0,0,0-1.617.836,5.171,5.171,0,0,0-.523,2.57v2.313A5.381,5.381,0,0,0,20.848-1.9a1.771,1.771,0,0,0,1.621.879,1.747,1.747,0,0,0,1.59-.828A5.186,5.186,0,0,0,24.6-4.461Zm10.43,1.977a6.61,6.61,0,0,1-.867,3.773A3.084,3.084,0,0,1,31.453.156a3.107,3.107,0,0,1-2.7-1.207,6.274,6.274,0,0,1-.906-3.605v-1.93a6.463,6.463,0,0,1,.867-3.727,3.108,3.108,0,0,1,2.719-1.219,3.136,3.136,0,0,1,2.7,1.176,6.237,6.237,0,0,1,.891,3.629ZM33.586-6.828A5.3,5.3,0,0,0,33.07-9.5a1.775,1.775,0,0,0-1.633-.84,1.751,1.751,0,0,0-1.617.836,5.171,5.171,0,0,0-.523,2.57v2.313A5.381,5.381,0,0,0,29.832-1.9a1.771,1.771,0,0,0,1.621.879,1.747,1.747,0,0,0,1.59-.828,5.186,5.186,0,0,0,.543-2.609Zm10.43,1.977a6.61,6.61,0,0,1-.867,3.773A3.084,3.084,0,0,1,40.438.156a3.107,3.107,0,0,1-2.7-1.207,6.274,6.274,0,0,1-.906-3.605v-1.93a6.463,6.463,0,0,1,.867-3.727,3.108,3.108,0,0,1,2.719-1.219,3.136,3.136,0,0,1,2.7,1.176,6.237,6.237,0,0,1,.891,3.629ZM42.57-6.828A5.3,5.3,0,0,0,42.055-9.5a1.775,1.775,0,0,0-1.633-.84,1.751,1.751,0,0,0-1.617.836,5.171,5.171,0,0,0-.523,2.57v2.313A5.381,5.381,0,0,0,38.816-1.9a1.771,1.771,0,0,0,1.621.879,1.747,1.747,0,0,0,1.59-.828,5.186,5.186,0,0,0,.543-2.609Z" transform="translate(564.04 5434.573)" fill="#12263f"/>
    <path id="Trazado_905781" data-name="Trazado 905781" d="M5.7,0H4.242V-9.633L1.328-8.562V-9.875L5.469-11.43H5.7ZM17.063-4.852A6.61,6.61,0,0,1,16.2-1.078,3.084,3.084,0,0,1,13.484.156a3.107,3.107,0,0,1-2.7-1.207,6.274,6.274,0,0,1-.906-3.605v-1.93a6.463,6.463,0,0,1,.867-3.727,3.108,3.108,0,0,1,2.719-1.219,3.136,3.136,0,0,1,2.7,1.176,6.237,6.237,0,0,1,.891,3.629ZM15.617-6.828A5.3,5.3,0,0,0,15.1-9.5a1.775,1.775,0,0,0-1.633-.84,1.751,1.751,0,0,0-1.617.836,5.171,5.171,0,0,0-.523,2.57v2.313A5.381,5.381,0,0,0,11.863-1.9a1.771,1.771,0,0,0,1.621.879,1.747,1.747,0,0,0,1.59-.828,5.186,5.186,0,0,0,.543-2.609Zm10.43,1.977a6.61,6.61,0,0,1-.867,3.773A3.084,3.084,0,0,1,22.469.156a3.107,3.107,0,0,1-2.7-1.207,6.274,6.274,0,0,1-.906-3.605v-1.93a6.463,6.463,0,0,1,.867-3.727,3.108,3.108,0,0,1,2.719-1.219,3.136,3.136,0,0,1,2.7,1.176,6.237,6.237,0,0,1,.891,3.629ZM24.6-6.828A5.3,5.3,0,0,0,24.086-9.5a1.775,1.775,0,0,0-1.633-.84,1.751,1.751,0,0,0-1.617.836,5.171,5.171,0,0,0-.523,2.57v2.313A5.381,5.381,0,0,0,20.848-1.9a1.771,1.771,0,0,0,1.621.879,1.747,1.747,0,0,0,1.59-.828A5.186,5.186,0,0,0,24.6-4.461Zm10.43,1.977a6.61,6.61,0,0,1-.867,3.773A3.084,3.084,0,0,1,31.453.156a3.107,3.107,0,0,1-2.7-1.207,6.274,6.274,0,0,1-.906-3.605v-1.93a6.463,6.463,0,0,1,.867-3.727,3.108,3.108,0,0,1,2.719-1.219,3.136,3.136,0,0,1,2.7,1.176,6.237,6.237,0,0,1,.891,3.629ZM33.586-6.828A5.3,5.3,0,0,0,33.07-9.5a1.775,1.775,0,0,0-1.633-.84,1.751,1.751,0,0,0-1.617.836,5.171,5.171,0,0,0-.523,2.57v2.313A5.381,5.381,0,0,0,29.832-1.9a1.771,1.771,0,0,0,1.621.879,1.747,1.747,0,0,0,1.59-.828,5.186,5.186,0,0,0,.543-2.609Zm10.43,1.977a6.61,6.61,0,0,1-.867,3.773A3.084,3.084,0,0,1,40.438.156a3.107,3.107,0,0,1-2.7-1.207,6.274,6.274,0,0,1-.906-3.605v-1.93a6.463,6.463,0,0,1,.867-3.727,3.108,3.108,0,0,1,2.719-1.219,3.136,3.136,0,0,1,2.7,1.176,6.237,6.237,0,0,1,.891,3.629ZM42.57-6.828A5.3,5.3,0,0,0,42.055-9.5a1.775,1.775,0,0,0-1.633-.84,1.751,1.751,0,0,0-1.617.836,5.171,5.171,0,0,0-.523,2.57v2.313A5.381,5.381,0,0,0,38.816-1.9a1.771,1.771,0,0,0,1.621.879,1.747,1.747,0,0,0,1.59-.828,5.186,5.186,0,0,0,.543-2.609Z" transform="translate(564.04 5464.473)" fill="#12263f"/>
    <path id="Trazado_905782" data-name="Trazado 905782" d="M7.844-8.406a2.641,2.641,0,0,1-.449,1.516A3.057,3.057,0,0,1,6.18-5.852,3.26,3.26,0,0,1,7.59-4.734a2.811,2.811,0,0,1,.52,1.664,2.972,2.972,0,0,1-1,2.352A3.827,3.827,0,0,1,4.492.156,3.81,3.81,0,0,1,1.863-.723,2.986,2.986,0,0,1,.875-3.07a2.9,2.9,0,0,1,.5-1.664A3.136,3.136,0,0,1,2.773-5.859,2.981,2.981,0,0,1,1.578-6.9a2.679,2.679,0,0,1-.437-1.508,2.94,2.94,0,0,1,.922-2.281,3.458,3.458,0,0,1,2.43-.844,3.461,3.461,0,0,1,2.426.844A2.934,2.934,0,0,1,7.844-8.406ZM6.664-3.1a2.1,2.1,0,0,0-.605-1.555,2.147,2.147,0,0,0-1.582-.6,2.11,2.11,0,0,0-1.566.594A2.12,2.12,0,0,0,2.32-3.1a2.019,2.019,0,0,0,.574,1.523,2.2,2.2,0,0,0,1.6.555,2.2,2.2,0,0,0,1.594-.559A2.014,2.014,0,0,0,6.664-3.1ZM4.492-10.344a1.865,1.865,0,0,0-1.379.527,1.937,1.937,0,0,0-.527,1.434,1.928,1.928,0,0,0,.52,1.4,1.844,1.844,0,0,0,1.387.535A1.844,1.844,0,0,0,5.879-6.98a1.928,1.928,0,0,0,.52-1.4A1.929,1.929,0,0,0,5.859-9.8,1.839,1.839,0,0,0,4.492-10.344Zm12.57,5.492A6.61,6.61,0,0,1,16.2-1.078,3.084,3.084,0,0,1,13.484.156a3.107,3.107,0,0,1-2.7-1.207,6.274,6.274,0,0,1-.906-3.605v-1.93a6.463,6.463,0,0,1,.867-3.727,3.108,3.108,0,0,1,2.719-1.219,3.136,3.136,0,0,1,2.7,1.176,6.237,6.237,0,0,1,.891,3.629ZM15.617-6.828A5.3,5.3,0,0,0,15.1-9.5a1.775,1.775,0,0,0-1.633-.84,1.751,1.751,0,0,0-1.617.836,5.171,5.171,0,0,0-.523,2.57v2.313A5.381,5.381,0,0,0,11.863-1.9a1.771,1.771,0,0,0,1.621.879,1.747,1.747,0,0,0,1.59-.828,5.186,5.186,0,0,0,.543-2.609Zm10.43,1.977a6.61,6.61,0,0,1-.867,3.773A3.084,3.084,0,0,1,22.469.156a3.107,3.107,0,0,1-2.7-1.207,6.274,6.274,0,0,1-.906-3.605v-1.93a6.463,6.463,0,0,1,.867-3.727,3.108,3.108,0,0,1,2.719-1.219,3.136,3.136,0,0,1,2.7,1.176,6.237,6.237,0,0,1,.891,3.629ZM24.6-6.828A5.3,5.3,0,0,0,24.086-9.5a1.775,1.775,0,0,0-1.633-.84,1.751,1.751,0,0,0-1.617.836,5.171,5.171,0,0,0-.523,2.57v2.313A5.381,5.381,0,0,0,20.848-1.9a1.771,1.771,0,0,0,1.621.879,1.747,1.747,0,0,0,1.59-.828A5.186,5.186,0,0,0,24.6-4.461Zm10.43,1.977a6.61,6.61,0,0,1-.867,3.773A3.084,3.084,0,0,1,31.453.156a3.107,3.107,0,0,1-2.7-1.207,6.274,6.274,0,0,1-.906-3.605v-1.93a6.463,6.463,0,0,1,.867-3.727,3.108,3.108,0,0,1,2.719-1.219,3.136,3.136,0,0,1,2.7,1.176,6.237,6.237,0,0,1,.891,3.629ZM33.586-6.828A5.3,5.3,0,0,0,33.07-9.5a1.775,1.775,0,0,0-1.633-.84,1.751,1.751,0,0,0-1.617.836,5.171,5.171,0,0,0-.523,2.57v2.313A5.381,5.381,0,0,0,29.832-1.9a1.771,1.771,0,0,0,1.621.879,1.747,1.747,0,0,0,1.59-.828,5.186,5.186,0,0,0,.543-2.609Z" transform="translate(573.02 5494.373)" fill="#12263f"/>
    <path id="Trazado_905776" data-name="Trazado 905776" d="M5.7,0H4.242V-9.633L1.328-8.562V-9.875L5.469-11.43H5.7ZM16.828-8.406a2.641,2.641,0,0,1-.449,1.516,3.056,3.056,0,0,1-1.215,1.039,3.26,3.26,0,0,1,1.41,1.117,2.811,2.811,0,0,1,.52,1.664,2.972,2.972,0,0,1-1,2.352,3.827,3.827,0,0,1-2.621.875,3.81,3.81,0,0,1-2.629-.879A2.986,2.986,0,0,1,9.859-3.07a2.9,2.9,0,0,1,.5-1.664,3.136,3.136,0,0,1,1.395-1.125,2.981,2.981,0,0,1-1.2-1.039,2.679,2.679,0,0,1-.437-1.508,2.94,2.94,0,0,1,.922-2.281,3.458,3.458,0,0,1,2.43-.844,3.461,3.461,0,0,1,2.426.844A2.934,2.934,0,0,1,16.828-8.406Zm-1.18,5.3a2.1,2.1,0,0,0-.605-1.555,2.147,2.147,0,0,0-1.582-.6,2.11,2.11,0,0,0-1.566.594A2.12,2.12,0,0,0,11.3-3.1a2.019,2.019,0,0,0,.574,1.523,2.2,2.2,0,0,0,1.6.555,2.2,2.2,0,0,0,1.594-.559A2.014,2.014,0,0,0,15.648-3.1Zm-2.172-7.242a1.865,1.865,0,0,0-1.379.527,1.937,1.937,0,0,0-.527,1.434,1.928,1.928,0,0,0,.52,1.4,1.844,1.844,0,0,0,1.387.535,1.844,1.844,0,0,0,1.387-.535,1.928,1.928,0,0,0,.52-1.4A1.929,1.929,0,0,0,14.844-9.8,1.839,1.839,0,0,0,13.477-10.344Zm12.57,5.492a6.61,6.61,0,0,1-.867,3.773A3.084,3.084,0,0,1,22.469.156a3.107,3.107,0,0,1-2.7-1.207,6.274,6.274,0,0,1-.906-3.605v-1.93a6.463,6.463,0,0,1,.867-3.727,3.108,3.108,0,0,1,2.719-1.219,3.136,3.136,0,0,1,2.7,1.176,6.237,6.237,0,0,1,.891,3.629ZM24.6-6.828A5.3,5.3,0,0,0,24.086-9.5a1.775,1.775,0,0,0-1.633-.84,1.751,1.751,0,0,0-1.617.836,5.171,5.171,0,0,0-.523,2.57v2.313A5.381,5.381,0,0,0,20.848-1.9a1.771,1.771,0,0,0,1.621.879,1.747,1.747,0,0,0,1.59-.828A5.186,5.186,0,0,0,24.6-4.461Zm10.43,1.977a6.61,6.61,0,0,1-.867,3.773A3.084,3.084,0,0,1,31.453.156a3.107,3.107,0,0,1-2.7-1.207,6.274,6.274,0,0,1-.906-3.605v-1.93a6.463,6.463,0,0,1,.867-3.727,3.108,3.108,0,0,1,2.719-1.219,3.136,3.136,0,0,1,2.7,1.176,6.237,6.237,0,0,1,.891,3.629ZM33.586-6.828A5.3,5.3,0,0,0,33.07-9.5a1.775,1.775,0,0,0-1.633-.84,1.751,1.751,0,0,0-1.617.836,5.171,5.171,0,0,0-.523,2.57v2.313A5.381,5.381,0,0,0,29.832-1.9a1.771,1.771,0,0,0,1.621.879,1.747,1.747,0,0,0,1.59-.828,5.186,5.186,0,0,0,.543-2.609Zm10.43,1.977a6.61,6.61,0,0,1-.867,3.773A3.084,3.084,0,0,1,40.438.156a3.107,3.107,0,0,1-2.7-1.207,6.274,6.274,0,0,1-.906-3.605v-1.93a6.463,6.463,0,0,1,.867-3.727,3.108,3.108,0,0,1,2.719-1.219,3.136,3.136,0,0,1,2.7,1.176,6.237,6.237,0,0,1,.891,3.629ZM42.57-6.828A5.3,5.3,0,0,0,42.055-9.5a1.775,1.775,0,0,0-1.633-.84,1.751,1.751,0,0,0-1.617.836,5.171,5.171,0,0,0-.523,2.57v2.313A5.381,5.381,0,0,0,38.816-1.9a1.771,1.771,0,0,0,1.621.879,1.747,1.747,0,0,0,1.59-.828,5.186,5.186,0,0,0,.543-2.609Z" transform="translate(564.04 5344.873)" fill="#12263f"/>
    <path id="Trazado_905778" data-name="Trazado 905778" d="M5.7,0H4.242V-9.633L1.328-8.562V-9.875L5.469-11.43H5.7ZM15.6-11.383v1.227h-.266a3.805,3.805,0,0,0-2.687,1A4.161,4.161,0,0,0,11.492-6.43a3.085,3.085,0,0,1,2.453-1.031,2.95,2.95,0,0,1,2.371,1.047,4.038,4.038,0,0,1,.887,2.7A4.025,4.025,0,0,1,16.246-.9,3.3,3.3,0,0,1,13.68.156,3.247,3.247,0,0,1,11.031-1.1a4.97,4.97,0,0,1-1.016-3.23v-.555a7.488,7.488,0,0,1,1.34-4.8,4.921,4.921,0,0,1,3.988-1.7ZM13.7-6.258a2.306,2.306,0,0,0-1.367.445A2.32,2.32,0,0,0,11.469-4.7v.531A3.731,3.731,0,0,0,12.1-1.9a1.9,1.9,0,0,0,1.578.859,1.838,1.838,0,0,0,1.535-.719,2.982,2.982,0,0,0,.559-1.883,2.983,2.983,0,0,0-.566-1.895A1.816,1.816,0,0,0,13.7-6.258ZM26.047-4.852a6.61,6.61,0,0,1-.867,3.773A3.084,3.084,0,0,1,22.469.156a3.107,3.107,0,0,1-2.7-1.207,6.274,6.274,0,0,1-.906-3.605v-1.93a6.463,6.463,0,0,1,.867-3.727,3.108,3.108,0,0,1,2.719-1.219,3.136,3.136,0,0,1,2.7,1.176,6.237,6.237,0,0,1,.891,3.629ZM24.6-6.828A5.3,5.3,0,0,0,24.086-9.5a1.775,1.775,0,0,0-1.633-.84,1.751,1.751,0,0,0-1.617.836,5.171,5.171,0,0,0-.523,2.57v2.313A5.381,5.381,0,0,0,20.848-1.9a1.771,1.771,0,0,0,1.621.879,1.747,1.747,0,0,0,1.59-.828A5.186,5.186,0,0,0,24.6-4.461Zm10.43,1.977a6.61,6.61,0,0,1-.867,3.773A3.084,3.084,0,0,1,31.453.156a3.107,3.107,0,0,1-2.7-1.207,6.274,6.274,0,0,1-.906-3.605v-1.93a6.463,6.463,0,0,1,.867-3.727,3.108,3.108,0,0,1,2.719-1.219,3.136,3.136,0,0,1,2.7,1.176,6.237,6.237,0,0,1,.891,3.629ZM33.586-6.828A5.3,5.3,0,0,0,33.07-9.5a1.775,1.775,0,0,0-1.633-.84,1.751,1.751,0,0,0-1.617.836,5.171,5.171,0,0,0-.523,2.57v2.313A5.381,5.381,0,0,0,29.832-1.9a1.771,1.771,0,0,0,1.621.879,1.747,1.747,0,0,0,1.59-.828,5.186,5.186,0,0,0,.543-2.609Zm10.43,1.977a6.61,6.61,0,0,1-.867,3.773A3.084,3.084,0,0,1,40.438.156a3.107,3.107,0,0,1-2.7-1.207,6.274,6.274,0,0,1-.906-3.605v-1.93a6.463,6.463,0,0,1,.867-3.727,3.108,3.108,0,0,1,2.719-1.219,3.136,3.136,0,0,1,2.7,1.176,6.237,6.237,0,0,1,.891,3.629ZM42.57-6.828A5.3,5.3,0,0,0,42.055-9.5a1.775,1.775,0,0,0-1.633-.84,1.751,1.751,0,0,0-1.617.836,5.171,5.171,0,0,0-.523,2.57v2.313A5.381,5.381,0,0,0,38.816-1.9a1.771,1.771,0,0,0,1.621.879,1.747,1.747,0,0,0,1.59-.828,5.186,5.186,0,0,0,.543-2.609Z" transform="translate(564.04 5374.773)" fill="#12263f"/>
    <path id="Trazado_905779" data-name="Trazado 905779" d="M5.7,0H4.242V-9.633L1.328-8.562V-9.875L5.469-11.43H5.7ZM16.031-3.82h1.578v1.18H16.031V0H14.578V-2.641H9.4v-.852l5.094-7.883h1.539Zm-4.992,0h3.539V-9.4l-.172.313ZM26.047-4.852a6.61,6.61,0,0,1-.867,3.773A3.084,3.084,0,0,1,22.469.156a3.107,3.107,0,0,1-2.7-1.207,6.274,6.274,0,0,1-.906-3.605v-1.93a6.463,6.463,0,0,1,.867-3.727,3.108,3.108,0,0,1,2.719-1.219,3.136,3.136,0,0,1,2.7,1.176,6.237,6.237,0,0,1,.891,3.629ZM24.6-6.828A5.3,5.3,0,0,0,24.086-9.5a1.775,1.775,0,0,0-1.633-.84,1.751,1.751,0,0,0-1.617.836,5.171,5.171,0,0,0-.523,2.57v2.313A5.381,5.381,0,0,0,20.848-1.9a1.771,1.771,0,0,0,1.621.879,1.747,1.747,0,0,0,1.59-.828A5.186,5.186,0,0,0,24.6-4.461Zm10.43,1.977a6.61,6.61,0,0,1-.867,3.773A3.084,3.084,0,0,1,31.453.156a3.107,3.107,0,0,1-2.7-1.207,6.274,6.274,0,0,1-.906-3.605v-1.93a6.463,6.463,0,0,1,.867-3.727,3.108,3.108,0,0,1,2.719-1.219,3.136,3.136,0,0,1,2.7,1.176,6.237,6.237,0,0,1,.891,3.629ZM33.586-6.828A5.3,5.3,0,0,0,33.07-9.5a1.775,1.775,0,0,0-1.633-.84,1.751,1.751,0,0,0-1.617.836,5.171,5.171,0,0,0-.523,2.57v2.313A5.381,5.381,0,0,0,29.832-1.9a1.771,1.771,0,0,0,1.621.879,1.747,1.747,0,0,0,1.59-.828,5.186,5.186,0,0,0,.543-2.609Zm10.43,1.977a6.61,6.61,0,0,1-.867,3.773A3.084,3.084,0,0,1,40.438.156a3.107,3.107,0,0,1-2.7-1.207,6.274,6.274,0,0,1-.906-3.605v-1.93a6.463,6.463,0,0,1,.867-3.727,3.108,3.108,0,0,1,2.719-1.219,3.136,3.136,0,0,1,2.7,1.176,6.237,6.237,0,0,1,.891,3.629ZM42.57-6.828A5.3,5.3,0,0,0,42.055-9.5a1.775,1.775,0,0,0-1.633-.84,1.751,1.751,0,0,0-1.617.836,5.171,5.171,0,0,0-.523,2.57v2.313A5.381,5.381,0,0,0,38.816-1.9a1.771,1.771,0,0,0,1.621.879,1.747,1.747,0,0,0,1.59-.828,5.186,5.186,0,0,0,.543-2.609Z" transform="translate(564.04 5404.673)" fill="#12263f"/>
    <path id="Trazado_905783" data-name="Trazado 905783" d="M6.617-11.383v1.227H6.352a3.805,3.805,0,0,0-2.687,1A4.161,4.161,0,0,0,2.508-6.43,3.085,3.085,0,0,1,4.961-7.461,2.95,2.95,0,0,1,7.332-6.414a4.038,4.038,0,0,1,.887,2.7A4.025,4.025,0,0,1,7.262-.9,3.3,3.3,0,0,1,4.7.156,3.247,3.247,0,0,1,2.047-1.1a4.97,4.97,0,0,1-1.016-3.23v-.555a7.488,7.488,0,0,1,1.34-4.8,4.921,4.921,0,0,1,3.988-1.7Zm-1.9,5.125a2.306,2.306,0,0,0-1.367.445A2.32,2.32,0,0,0,2.484-4.7v.531A3.731,3.731,0,0,0,3.117-1.9,1.9,1.9,0,0,0,4.7-1.039,1.838,1.838,0,0,0,6.23-1.758a2.982,2.982,0,0,0,.559-1.883,2.983,2.983,0,0,0-.566-1.895A1.816,1.816,0,0,0,4.719-6.258ZM17.063-4.852A6.61,6.61,0,0,1,16.2-1.078,3.084,3.084,0,0,1,13.484.156a3.107,3.107,0,0,1-2.7-1.207,6.274,6.274,0,0,1-.906-3.605v-1.93a6.463,6.463,0,0,1,.867-3.727,3.108,3.108,0,0,1,2.719-1.219,3.136,3.136,0,0,1,2.7,1.176,6.237,6.237,0,0,1,.891,3.629ZM15.617-6.828A5.3,5.3,0,0,0,15.1-9.5a1.775,1.775,0,0,0-1.633-.84,1.751,1.751,0,0,0-1.617.836,5.171,5.171,0,0,0-.523,2.57v2.313A5.381,5.381,0,0,0,11.863-1.9a1.771,1.771,0,0,0,1.621.879,1.747,1.747,0,0,0,1.59-.828,5.186,5.186,0,0,0,.543-2.609Zm10.43,1.977a6.61,6.61,0,0,1-.867,3.773A3.084,3.084,0,0,1,22.469.156a3.107,3.107,0,0,1-2.7-1.207,6.274,6.274,0,0,1-.906-3.605v-1.93a6.463,6.463,0,0,1,.867-3.727,3.108,3.108,0,0,1,2.719-1.219,3.136,3.136,0,0,1,2.7,1.176,6.237,6.237,0,0,1,.891,3.629ZM24.6-6.828A5.3,5.3,0,0,0,24.086-9.5a1.775,1.775,0,0,0-1.633-.84,1.751,1.751,0,0,0-1.617.836,5.171,5.171,0,0,0-.523,2.57v2.313A5.381,5.381,0,0,0,20.848-1.9a1.771,1.771,0,0,0,1.621.879,1.747,1.747,0,0,0,1.59-.828A5.186,5.186,0,0,0,24.6-4.461Zm10.43,1.977a6.61,6.61,0,0,1-.867,3.773A3.084,3.084,0,0,1,31.453.156a3.107,3.107,0,0,1-2.7-1.207,6.274,6.274,0,0,1-.906-3.605v-1.93a6.463,6.463,0,0,1,.867-3.727,3.108,3.108,0,0,1,2.719-1.219,3.136,3.136,0,0,1,2.7,1.176,6.237,6.237,0,0,1,.891,3.629ZM33.586-6.828A5.3,5.3,0,0,0,33.07-9.5a1.775,1.775,0,0,0-1.633-.84,1.751,1.751,0,0,0-1.617.836,5.171,5.171,0,0,0-.523,2.57v2.313A5.381,5.381,0,0,0,29.832-1.9a1.771,1.771,0,0,0,1.621.879,1.747,1.747,0,0,0,1.59-.828,5.186,5.186,0,0,0,.543-2.609Z" transform="translate(573.02 5524.273)" fill="#12263f"/>
    <path id="Trazado_905784" data-name="Trazado 905784" d="M7.047-3.82H8.625v1.18H7.047V0H5.594V-2.641H.414v-.852l5.094-7.883H7.047Zm-4.992,0H5.594V-9.4l-.172.313ZM17.063-4.852A6.61,6.61,0,0,1,16.2-1.078,3.084,3.084,0,0,1,13.484.156a3.107,3.107,0,0,1-2.7-1.207,6.274,6.274,0,0,1-.906-3.605v-1.93a6.463,6.463,0,0,1,.867-3.727,3.108,3.108,0,0,1,2.719-1.219,3.136,3.136,0,0,1,2.7,1.176,6.237,6.237,0,0,1,.891,3.629ZM15.617-6.828A5.3,5.3,0,0,0,15.1-9.5a1.775,1.775,0,0,0-1.633-.84,1.751,1.751,0,0,0-1.617.836,5.171,5.171,0,0,0-.523,2.57v2.313A5.381,5.381,0,0,0,11.863-1.9a1.771,1.771,0,0,0,1.621.879,1.747,1.747,0,0,0,1.59-.828,5.186,5.186,0,0,0,.543-2.609Zm10.43,1.977a6.61,6.61,0,0,1-.867,3.773A3.084,3.084,0,0,1,22.469.156a3.107,3.107,0,0,1-2.7-1.207,6.274,6.274,0,0,1-.906-3.605v-1.93a6.463,6.463,0,0,1,.867-3.727,3.108,3.108,0,0,1,2.719-1.219,3.136,3.136,0,0,1,2.7,1.176,6.237,6.237,0,0,1,.891,3.629ZM24.6-6.828A5.3,5.3,0,0,0,24.086-9.5a1.775,1.775,0,0,0-1.633-.84,1.751,1.751,0,0,0-1.617.836,5.171,5.171,0,0,0-.523,2.57v2.313A5.381,5.381,0,0,0,20.848-1.9a1.771,1.771,0,0,0,1.621.879,1.747,1.747,0,0,0,1.59-.828A5.186,5.186,0,0,0,24.6-4.461Zm10.43,1.977a6.61,6.61,0,0,1-.867,3.773A3.084,3.084,0,0,1,31.453.156a3.107,3.107,0,0,1-2.7-1.207,6.274,6.274,0,0,1-.906-3.605v-1.93a6.463,6.463,0,0,1,.867-3.727,3.108,3.108,0,0,1,2.719-1.219,3.136,3.136,0,0,1,2.7,1.176,6.237,6.237,0,0,1,.891,3.629ZM33.586-6.828A5.3,5.3,0,0,0,33.07-9.5a1.775,1.775,0,0,0-1.633-.84,1.751,1.751,0,0,0-1.617.836,5.171,5.171,0,0,0-.523,2.57v2.313A5.381,5.381,0,0,0,29.832-1.9a1.771,1.771,0,0,0,1.621.879,1.747,1.747,0,0,0,1.59-.828,5.186,5.186,0,0,0,.543-2.609Z" transform="translate(573.02 5554.173)" fill="#12263f"/>
    <path id="Trazado_905785" data-name="Trazado 905785" d="M8.4,0H.945V-1.039L4.883-5.414A9.354,9.354,0,0,0,6.09-7.027a2.693,2.693,0,0,0,.332-1.285,2.041,2.041,0,0,0-.539-1.461,1.885,1.885,0,0,0-1.437-.57A2.232,2.232,0,0,0,2.77-9.73a2.343,2.343,0,0,0-.6,1.707H.727a3.355,3.355,0,0,1,1.012-2.539,3.751,3.751,0,0,1,2.707-.969,3.6,3.6,0,0,1,2.508.832,2.838,2.838,0,0,1,.922,2.215q0,1.68-2.141,4L2.688-1.18H8.4Zm8.664-4.852A6.61,6.61,0,0,1,16.2-1.078,3.084,3.084,0,0,1,13.484.156a3.107,3.107,0,0,1-2.7-1.207,6.274,6.274,0,0,1-.906-3.605v-1.93a6.463,6.463,0,0,1,.867-3.727,3.108,3.108,0,0,1,2.719-1.219,3.136,3.136,0,0,1,2.7,1.176,6.237,6.237,0,0,1,.891,3.629ZM15.617-6.828A5.3,5.3,0,0,0,15.1-9.5a1.775,1.775,0,0,0-1.633-.84,1.751,1.751,0,0,0-1.617.836,5.171,5.171,0,0,0-.523,2.57v2.313A5.381,5.381,0,0,0,11.863-1.9a1.771,1.771,0,0,0,1.621.879,1.747,1.747,0,0,0,1.59-.828,5.186,5.186,0,0,0,.543-2.609Zm10.43,1.977a6.61,6.61,0,0,1-.867,3.773A3.084,3.084,0,0,1,22.469.156a3.107,3.107,0,0,1-2.7-1.207,6.274,6.274,0,0,1-.906-3.605v-1.93a6.463,6.463,0,0,1,.867-3.727,3.108,3.108,0,0,1,2.719-1.219,3.136,3.136,0,0,1,2.7,1.176,6.237,6.237,0,0,1,.891,3.629ZM24.6-6.828A5.3,5.3,0,0,0,24.086-9.5a1.775,1.775,0,0,0-1.633-.84,1.751,1.751,0,0,0-1.617.836,5.171,5.171,0,0,0-.523,2.57v2.313A5.381,5.381,0,0,0,20.848-1.9a1.771,1.771,0,0,0,1.621.879,1.747,1.747,0,0,0,1.59-.828A5.186,5.186,0,0,0,24.6-4.461Zm10.43,1.977a6.61,6.61,0,0,1-.867,3.773A3.084,3.084,0,0,1,31.453.156a3.107,3.107,0,0,1-2.7-1.207,6.274,6.274,0,0,1-.906-3.605v-1.93a6.463,6.463,0,0,1,.867-3.727,3.108,3.108,0,0,1,2.719-1.219,3.136,3.136,0,0,1,2.7,1.176,6.237,6.237,0,0,1,.891,3.629ZM33.586-6.828A5.3,5.3,0,0,0,33.07-9.5a1.775,1.775,0,0,0-1.633-.84,1.751,1.751,0,0,0-1.617.836,5.171,5.171,0,0,0-.523,2.57v2.313A5.381,5.381,0,0,0,29.832-1.9a1.771,1.771,0,0,0,1.621.879,1.747,1.747,0,0,0,1.59-.828,5.186,5.186,0,0,0,.543-2.609Z" transform="translate(573.02 5584.073)" fill="#12263f"/>
    <path id="Trazado_905786" data-name="Trazado 905786" d="M8.078-4.852a6.61,6.61,0,0,1-.867,3.773A3.084,3.084,0,0,1,4.5.156,3.107,3.107,0,0,1,1.8-1.051,6.274,6.274,0,0,1,.9-4.656v-1.93a6.463,6.463,0,0,1,.867-3.727,3.108,3.108,0,0,1,2.719-1.219,3.136,3.136,0,0,1,2.7,1.176,6.237,6.237,0,0,1,.891,3.629ZM6.633-6.828A5.3,5.3,0,0,0,6.117-9.5a1.775,1.775,0,0,0-1.633-.84,1.751,1.751,0,0,0-1.617.836,5.171,5.171,0,0,0-.523,2.57v2.313A5.381,5.381,0,0,0,2.879-1.9,1.771,1.771,0,0,0,4.5-1.023a1.747,1.747,0,0,0,1.59-.828,5.186,5.186,0,0,0,.543-2.609Z" transform="translate(599.98 5613.973)" fill="#12263f"/>
    <path id="Trazado_905792" data-name="Trazado 905792" d="M7.844-8.406a2.641,2.641,0,0,1-.449,1.516A3.057,3.057,0,0,1,6.18-5.852,3.26,3.26,0,0,1,7.59-4.734a2.811,2.811,0,0,1,.52,1.664,2.972,2.972,0,0,1-1,2.352A3.827,3.827,0,0,1,4.492.156,3.81,3.81,0,0,1,1.863-.723,2.986,2.986,0,0,1,.875-3.07a2.9,2.9,0,0,1,.5-1.664A3.136,3.136,0,0,1,2.773-5.859,2.981,2.981,0,0,1,1.578-6.9a2.679,2.679,0,0,1-.437-1.508,2.94,2.94,0,0,1,.922-2.281,3.458,3.458,0,0,1,2.43-.844,3.461,3.461,0,0,1,2.426.844A2.934,2.934,0,0,1,7.844-8.406ZM6.664-3.1a2.1,2.1,0,0,0-.605-1.555,2.147,2.147,0,0,0-1.582-.6,2.11,2.11,0,0,0-1.566.594A2.12,2.12,0,0,0,2.32-3.1a2.019,2.019,0,0,0,.574,1.523,2.2,2.2,0,0,0,1.6.555,2.2,2.2,0,0,0,1.594-.559A2.014,2.014,0,0,0,6.664-3.1ZM4.492-10.344a1.865,1.865,0,0,0-1.379.527,1.937,1.937,0,0,0-.527,1.434,1.928,1.928,0,0,0,.52,1.4,1.844,1.844,0,0,0,1.387.535A1.844,1.844,0,0,0,5.879-6.98a1.928,1.928,0,0,0,.52-1.4A1.929,1.929,0,0,0,5.859-9.8,1.839,1.839,0,0,0,4.492-10.344ZM15.6-11.383v1.227h-.266a3.805,3.805,0,0,0-2.687,1A4.161,4.161,0,0,0,11.492-6.43a3.085,3.085,0,0,1,2.453-1.031,2.95,2.95,0,0,1,2.371,1.047,4.038,4.038,0,0,1,.887,2.7A4.025,4.025,0,0,1,16.246-.9,3.3,3.3,0,0,1,13.68.156,3.247,3.247,0,0,1,11.031-1.1a4.97,4.97,0,0,1-1.016-3.23v-.555a7.488,7.488,0,0,1,1.34-4.8,4.921,4.921,0,0,1,3.988-1.7ZM13.7-6.258a2.306,2.306,0,0,0-1.367.445A2.32,2.32,0,0,0,11.469-4.7v.531A3.731,3.731,0,0,0,12.1-1.9a1.9,1.9,0,0,0,1.578.859,1.838,1.838,0,0,0,1.535-.719,2.982,2.982,0,0,0,.559-1.883,2.983,2.983,0,0,0-.566-1.895A1.816,1.816,0,0,0,13.7-6.258ZM26.047-4.852a6.61,6.61,0,0,1-.867,3.773A3.084,3.084,0,0,1,22.469.156a3.107,3.107,0,0,1-2.7-1.207,6.274,6.274,0,0,1-.906-3.605v-1.93a6.463,6.463,0,0,1,.867-3.727,3.108,3.108,0,0,1,2.719-1.219,3.136,3.136,0,0,1,2.7,1.176,6.237,6.237,0,0,1,.891,3.629ZM24.6-6.828A5.3,5.3,0,0,0,24.086-9.5a1.775,1.775,0,0,0-1.633-.84,1.751,1.751,0,0,0-1.617.836,5.171,5.171,0,0,0-.523,2.57v2.313A5.381,5.381,0,0,0,20.848-1.9a1.771,1.771,0,0,0,1.621.879,1.747,1.747,0,0,0,1.59-.828A5.186,5.186,0,0,0,24.6-4.461Zm5.4.438h1.086A2.387,2.387,0,0,0,32.7-6.93a1.8,1.8,0,0,0,.586-1.414,1.764,1.764,0,0,0-1.992-2,2.072,2.072,0,0,0-1.5.535,1.873,1.873,0,0,0-.559,1.418H27.789a2.9,2.9,0,0,1,.988-2.246,3.6,3.6,0,0,1,2.512-.895,3.558,3.558,0,0,1,2.523.852,3.076,3.076,0,0,1,.914,2.367,2.5,2.5,0,0,1-.48,1.438,2.9,2.9,0,0,1-1.309,1.039,2.8,2.8,0,0,1,1.449.984,2.734,2.734,0,0,1,.512,1.68,3.1,3.1,0,0,1-1,2.43,3.745,3.745,0,0,1-2.6.9,3.844,3.844,0,0,1-2.605-.867,2.877,2.877,0,0,1-1-2.289h1.453a1.859,1.859,0,0,0,.586,1.438,2.229,2.229,0,0,0,1.57.539,2.187,2.187,0,0,0,1.6-.547,2.108,2.108,0,0,0,.555-1.57,1.912,1.912,0,0,0-.609-1.523,2.655,2.655,0,0,0-1.758-.547H30Z" transform="translate(673.15 5475.163)" fill="#12263f"/>
    <path id="Trazado_905791" data-name="Trazado 905791" d="M5.7,0H4.242V-9.633L1.328-8.562V-9.875L5.469-11.43H5.7ZM17.383,0H9.93V-1.039l3.938-4.375a9.354,9.354,0,0,0,1.207-1.613,2.693,2.693,0,0,0,.332-1.285,2.041,2.041,0,0,0-.539-1.461,1.885,1.885,0,0,0-1.437-.57,2.232,2.232,0,0,0-1.676.613,2.343,2.343,0,0,0-.6,1.707H9.711a3.355,3.355,0,0,1,1.012-2.539,3.751,3.751,0,0,1,2.707-.969,3.6,3.6,0,0,1,2.508.832,2.838,2.838,0,0,1,.922,2.215q0,1.68-2.141,4l-3.047,3.3h5.711Zm7.2-11.383v1.227H24.32a3.805,3.805,0,0,0-2.687,1A4.161,4.161,0,0,0,20.477-6.43,3.085,3.085,0,0,1,22.93-7.461,2.95,2.95,0,0,1,25.3-6.414a4.038,4.038,0,0,1,.887,2.7A4.025,4.025,0,0,1,25.23-.9,3.3,3.3,0,0,1,22.664.156,3.247,3.247,0,0,1,20.016-1.1,4.97,4.97,0,0,1,19-4.328v-.555a7.488,7.488,0,0,1,1.34-4.8,4.921,4.921,0,0,1,3.988-1.7Zm-1.9,5.125a2.306,2.306,0,0,0-1.367.445A2.32,2.32,0,0,0,20.453-4.7v.531A3.731,3.731,0,0,0,21.086-1.9a1.9,1.9,0,0,0,1.578.859A1.838,1.838,0,0,0,24.2-1.758a2.982,2.982,0,0,0,.559-1.883,2.983,2.983,0,0,0-.566-1.895A1.816,1.816,0,0,0,22.688-6.258ZM35.031-4.852a6.61,6.61,0,0,1-.867,3.773A3.084,3.084,0,0,1,31.453.156a3.107,3.107,0,0,1-2.7-1.207,6.274,6.274,0,0,1-.906-3.605v-1.93a6.463,6.463,0,0,1,.867-3.727,3.108,3.108,0,0,1,2.719-1.219,3.136,3.136,0,0,1,2.7,1.176,6.237,6.237,0,0,1,.891,3.629ZM33.586-6.828A5.3,5.3,0,0,0,33.07-9.5a1.775,1.775,0,0,0-1.633-.84,1.751,1.751,0,0,0-1.617.836,5.171,5.171,0,0,0-.523,2.57v2.313A5.381,5.381,0,0,0,29.832-1.9a1.771,1.771,0,0,0,1.621.879,1.747,1.747,0,0,0,1.59-.828,5.186,5.186,0,0,0,.543-2.609Zm8.969-4.555v1.227h-.266a3.805,3.805,0,0,0-2.687,1A4.161,4.161,0,0,0,38.445-6.43,3.085,3.085,0,0,1,40.9-7.461,2.95,2.95,0,0,1,43.27-6.414a4.038,4.038,0,0,1,.887,2.7A4.025,4.025,0,0,1,43.2-.9,3.3,3.3,0,0,1,40.633.156,3.247,3.247,0,0,1,37.984-1.1a4.97,4.97,0,0,1-1.016-3.23v-.555a7.488,7.488,0,0,1,1.34-4.8,4.921,4.921,0,0,1,3.988-1.7Zm-1.9,5.125a2.306,2.306,0,0,0-1.367.445A2.32,2.32,0,0,0,38.422-4.7v.531A3.731,3.731,0,0,0,39.055-1.9a1.9,1.9,0,0,0,1.578.859,1.838,1.838,0,0,0,1.535-.719,2.982,2.982,0,0,0,.559-1.883,2.983,2.983,0,0,0-.566-1.895A1.816,1.816,0,0,0,40.656-6.258Z" transform="translate(810.66 5414.453)" fill="#12263f"/>
    <path id="Trazado_905790" data-name="Trazado 905790" d="M5.7,0H4.242V-9.633L1.328-8.562V-9.875L5.469-11.43H5.7ZM15.6-11.383v1.227h-.266a3.805,3.805,0,0,0-2.687,1A4.161,4.161,0,0,0,11.492-6.43a3.085,3.085,0,0,1,2.453-1.031,2.95,2.95,0,0,1,2.371,1.047,4.038,4.038,0,0,1,.887,2.7A4.025,4.025,0,0,1,16.246-.9,3.3,3.3,0,0,1,13.68.156,3.247,3.247,0,0,1,11.031-1.1a4.97,4.97,0,0,1-1.016-3.23v-.555a7.488,7.488,0,0,1,1.34-4.8,4.921,4.921,0,0,1,3.988-1.7ZM13.7-6.258a2.306,2.306,0,0,0-1.367.445A2.32,2.32,0,0,0,11.469-4.7v.531A3.731,3.731,0,0,0,12.1-1.9a1.9,1.9,0,0,0,1.578.859,1.838,1.838,0,0,0,1.535-.719,2.982,2.982,0,0,0,.559-1.883,2.983,2.983,0,0,0-.566-1.895A1.816,1.816,0,0,0,13.7-6.258ZM25.016-3.82h1.578v1.18H25.016V0H23.563V-2.641h-5.18v-.852l5.094-7.883h1.539Zm-4.992,0h3.539V-9.4l-.172.313ZM32.648,0H31.2V-9.633l-2.914,1.07V-9.875l4.141-1.555h.227ZM44.227-10.562,39.516,0H38l4.7-10.187H36.539v-1.187h7.688Z" transform="translate(954.66 5356.453)" fill="#12263f"/>
    <path id="Trazado_905787" data-name="Trazado 905787" d="M7.6-2.977H2.836L1.766,0H.219L4.563-11.375H5.875L10.227,0H8.688ZM3.289-4.2H7.156L5.219-9.523ZM12.9-8.453l.047,1.063a3.08,3.08,0,0,1,2.531-1.219q2.68,0,2.7,3.023V0H16.734V-5.594a1.946,1.946,0,0,0-.418-1.352,1.675,1.675,0,0,0-1.277-.437,2.086,2.086,0,0,0-1.234.375,2.546,2.546,0,0,0-.828.984V0H11.531V-8.453Zm4.781-3.3a1.942,1.942,0,0,1-.48,1.367,1.561,1.561,0,0,1-1.2.523,1.76,1.76,0,0,1-.555-.078,2.993,2.993,0,0,1-.613-.32,2.656,2.656,0,0,0-.547-.293A1.338,1.338,0,0,0,13.9-10.6a.717.717,0,0,0-.547.246.892.892,0,0,0-.227.629l-.969-.055a2.039,2.039,0,0,1,.473-1.383,1.516,1.516,0,0,1,1.2-.547,1.457,1.457,0,0,1,.492.078,3.587,3.587,0,0,1,.594.3,3.494,3.494,0,0,0,.574.3,1.319,1.319,0,0,0,.441.07.7.7,0,0,0,.559-.266.932.932,0,0,0,.223-.617Zm2.3,7.445a4.993,4.993,0,0,1,.488-2.234A3.643,3.643,0,0,1,21.824-8.07a3.7,3.7,0,0,1,1.988-.539,3.565,3.565,0,0,1,2.793,1.2,4.6,4.6,0,0,1,1.066,3.18v.1A5.036,5.036,0,0,1,27.2-1.918,3.589,3.589,0,0,1,25.848-.391a3.743,3.743,0,0,1-2.02.547,3.556,3.556,0,0,1-2.785-1.2A4.575,4.575,0,0,1,19.977-4.2Zm1.453.172a3.616,3.616,0,0,0,.652,2.258,2.088,2.088,0,0,0,1.746.852,2.075,2.075,0,0,0,1.75-.863A3.955,3.955,0,0,0,26.227-4.3a3.61,3.61,0,0,0-.66-2.254,2.1,2.1,0,0,0-1.754-.863,2.075,2.075,0,0,0-1.727.852A3.925,3.925,0,0,0,21.43-4.133ZM40.75,0H33.3V-1.039l3.938-4.375a9.355,9.355,0,0,0,1.207-1.613,2.693,2.693,0,0,0,.332-1.285,2.041,2.041,0,0,0-.539-1.461,1.885,1.885,0,0,0-1.437-.57,2.232,2.232,0,0,0-1.676.613,2.343,2.343,0,0,0-.6,1.707H33.078a3.355,3.355,0,0,1,1.012-2.539,3.751,3.751,0,0,1,2.707-.969A3.6,3.6,0,0,1,39.3-10.7a2.838,2.838,0,0,1,.922,2.215q0,1.68-2.141,4l-3.047,3.3H40.75Zm8.664-4.852a6.61,6.61,0,0,1-.867,3.773A3.084,3.084,0,0,1,45.836.156a3.107,3.107,0,0,1-2.7-1.207,6.274,6.274,0,0,1-.906-3.605v-1.93a6.463,6.463,0,0,1,.867-3.727,3.108,3.108,0,0,1,2.719-1.219,3.136,3.136,0,0,1,2.7,1.176,6.237,6.237,0,0,1,.891,3.629ZM47.969-6.828A5.3,5.3,0,0,0,47.453-9.5a1.775,1.775,0,0,0-1.633-.84,1.751,1.751,0,0,0-1.617.836,5.171,5.171,0,0,0-.523,2.57v2.313A5.381,5.381,0,0,0,44.215-1.9a1.771,1.771,0,0,0,1.621.879,1.747,1.747,0,0,0,1.59-.828,5.186,5.186,0,0,0,.543-2.609ZM56.016,0H54.563V-9.633l-2.914,1.07V-9.875l4.141-1.555h.227Zm9.906-11.383v1.227h-.266a3.805,3.805,0,0,0-2.687,1A4.161,4.161,0,0,0,61.813-6.43a3.085,3.085,0,0,1,2.453-1.031,2.95,2.95,0,0,1,2.371,1.047,4.038,4.038,0,0,1,.887,2.7A4.025,4.025,0,0,1,66.566-.9,3.3,3.3,0,0,1,64,.156,3.247,3.247,0,0,1,61.352-1.1a4.97,4.97,0,0,1-1.016-3.23v-.555a7.488,7.488,0,0,1,1.34-4.8,4.921,4.921,0,0,1,3.988-1.7Zm-1.9,5.125a2.306,2.306,0,0,0-1.367.445A2.32,2.32,0,0,0,61.789-4.7v.531A3.731,3.731,0,0,0,62.422-1.9,1.9,1.9,0,0,0,64-1.039a1.838,1.838,0,0,0,1.535-.719,2.982,2.982,0,0,0,.559-1.883,2.983,2.983,0,0,0-.566-1.895A1.816,1.816,0,0,0,64.023-6.258Z" transform="translate(657.8 5628.163)" fill="#12263f"/>
    <path id="Trazado_905788" data-name="Trazado 905788" d="M7.6-2.977H2.836L1.766,0H.219L4.563-11.375H5.875L10.227,0H8.688ZM3.289-4.2H7.156L5.219-9.523ZM12.9-8.453l.047,1.063a3.08,3.08,0,0,1,2.531-1.219q2.68,0,2.7,3.023V0H16.734V-5.594a1.946,1.946,0,0,0-.418-1.352,1.675,1.675,0,0,0-1.277-.437,2.086,2.086,0,0,0-1.234.375,2.546,2.546,0,0,0-.828.984V0H11.531V-8.453Zm4.781-3.3a1.942,1.942,0,0,1-.48,1.367,1.561,1.561,0,0,1-1.2.523,1.76,1.76,0,0,1-.555-.078,2.993,2.993,0,0,1-.613-.32,2.656,2.656,0,0,0-.547-.293A1.338,1.338,0,0,0,13.9-10.6a.717.717,0,0,0-.547.246.892.892,0,0,0-.227.629l-.969-.055a2.039,2.039,0,0,1,.473-1.383,1.516,1.516,0,0,1,1.2-.547,1.457,1.457,0,0,1,.492.078,3.587,3.587,0,0,1,.594.3,3.494,3.494,0,0,0,.574.3,1.319,1.319,0,0,0,.441.07.7.7,0,0,0,.559-.266.932.932,0,0,0,.223-.617Zm2.3,7.445a4.993,4.993,0,0,1,.488-2.234A3.643,3.643,0,0,1,21.824-8.07a3.7,3.7,0,0,1,1.988-.539,3.565,3.565,0,0,1,2.793,1.2,4.6,4.6,0,0,1,1.066,3.18v.1A5.036,5.036,0,0,1,27.2-1.918,3.589,3.589,0,0,1,25.848-.391a3.743,3.743,0,0,1-2.02.547,3.556,3.556,0,0,1-2.785-1.2A4.575,4.575,0,0,1,19.977-4.2Zm1.453.172a3.616,3.616,0,0,0,.652,2.258,2.088,2.088,0,0,0,1.746.852,2.075,2.075,0,0,0,1.75-.863A3.955,3.955,0,0,0,26.227-4.3a3.61,3.61,0,0,0-.66-2.254,2.1,2.1,0,0,0-1.754-.863,2.075,2.075,0,0,0-1.727.852A3.925,3.925,0,0,0,21.43-4.133ZM40.75,0H33.3V-1.039l3.938-4.375a9.355,9.355,0,0,0,1.207-1.613,2.693,2.693,0,0,0,.332-1.285,2.041,2.041,0,0,0-.539-1.461,1.885,1.885,0,0,0-1.437-.57,2.232,2.232,0,0,0-1.676.613,2.343,2.343,0,0,0-.6,1.707H33.078a3.355,3.355,0,0,1,1.012-2.539,3.751,3.751,0,0,1,2.707-.969A3.6,3.6,0,0,1,39.3-10.7a2.838,2.838,0,0,1,.922,2.215q0,1.68-2.141,4l-3.047,3.3H40.75Zm8.664-4.852a6.61,6.61,0,0,1-.867,3.773A3.084,3.084,0,0,1,45.836.156a3.107,3.107,0,0,1-2.7-1.207,6.274,6.274,0,0,1-.906-3.605v-1.93a6.463,6.463,0,0,1,.867-3.727,3.108,3.108,0,0,1,2.719-1.219,3.136,3.136,0,0,1,2.7,1.176,6.237,6.237,0,0,1,.891,3.629ZM47.969-6.828A5.3,5.3,0,0,0,47.453-9.5a1.775,1.775,0,0,0-1.633-.84,1.751,1.751,0,0,0-1.617.836,5.171,5.171,0,0,0-.523,2.57v2.313A5.381,5.381,0,0,0,44.215-1.9a1.771,1.771,0,0,0,1.621.879,1.747,1.747,0,0,0,1.59-.828,5.186,5.186,0,0,0,.543-2.609ZM56.016,0H54.563V-9.633l-2.914,1.07V-9.875l4.141-1.555h.227ZM67.594-10.562,62.883,0H61.367l4.7-10.187H59.906v-1.187h7.688Z" transform="translate(796.8 5628.163)" fill="#12263f"/>
    <path id="Trazado_905789" data-name="Trazado 905789" d="M7.6-2.977H2.836L1.766,0H.219L4.563-11.375H5.875L10.227,0H8.688ZM3.289-4.2H7.156L5.219-9.523ZM12.9-8.453l.047,1.063a3.08,3.08,0,0,1,2.531-1.219q2.68,0,2.7,3.023V0H16.734V-5.594a1.946,1.946,0,0,0-.418-1.352,1.675,1.675,0,0,0-1.277-.437,2.086,2.086,0,0,0-1.234.375,2.546,2.546,0,0,0-.828.984V0H11.531V-8.453Zm4.781-3.3a1.942,1.942,0,0,1-.48,1.367,1.561,1.561,0,0,1-1.2.523,1.76,1.76,0,0,1-.555-.078,2.993,2.993,0,0,1-.613-.32,2.656,2.656,0,0,0-.547-.293A1.338,1.338,0,0,0,13.9-10.6a.717.717,0,0,0-.547.246.892.892,0,0,0-.227.629l-.969-.055a2.039,2.039,0,0,1,.473-1.383,1.516,1.516,0,0,1,1.2-.547,1.457,1.457,0,0,1,.492.078,3.587,3.587,0,0,1,.594.3,3.494,3.494,0,0,0,.574.3,1.319,1.319,0,0,0,.441.07.7.7,0,0,0,.559-.266.932.932,0,0,0,.223-.617Zm2.3,7.445a4.993,4.993,0,0,1,.488-2.234A3.643,3.643,0,0,1,21.824-8.07a3.7,3.7,0,0,1,1.988-.539,3.565,3.565,0,0,1,2.793,1.2,4.6,4.6,0,0,1,1.066,3.18v.1A5.036,5.036,0,0,1,27.2-1.918,3.589,3.589,0,0,1,25.848-.391a3.743,3.743,0,0,1-2.02.547,3.556,3.556,0,0,1-2.785-1.2A4.575,4.575,0,0,1,19.977-4.2Zm1.453.172a3.616,3.616,0,0,0,.652,2.258,2.088,2.088,0,0,0,1.746.852,2.075,2.075,0,0,0,1.75-.863A3.955,3.955,0,0,0,26.227-4.3a3.61,3.61,0,0,0-.66-2.254,2.1,2.1,0,0,0-1.754-.863,2.075,2.075,0,0,0-1.727.852A3.925,3.925,0,0,0,21.43-4.133ZM40.75,0H33.3V-1.039l3.938-4.375a9.355,9.355,0,0,0,1.207-1.613,2.693,2.693,0,0,0,.332-1.285,2.041,2.041,0,0,0-.539-1.461,1.885,1.885,0,0,0-1.437-.57,2.232,2.232,0,0,0-1.676.613,2.343,2.343,0,0,0-.6,1.707H33.078a3.355,3.355,0,0,1,1.012-2.539,3.751,3.751,0,0,1,2.707-.969A3.6,3.6,0,0,1,39.3-10.7a2.838,2.838,0,0,1,.922,2.215q0,1.68-2.141,4l-3.047,3.3H40.75Zm8.664-4.852a6.61,6.61,0,0,1-.867,3.773A3.084,3.084,0,0,1,45.836.156a3.107,3.107,0,0,1-2.7-1.207,6.274,6.274,0,0,1-.906-3.605v-1.93a6.463,6.463,0,0,1,.867-3.727,3.108,3.108,0,0,1,2.719-1.219,3.136,3.136,0,0,1,2.7,1.176,6.237,6.237,0,0,1,.891,3.629ZM47.969-6.828A5.3,5.3,0,0,0,47.453-9.5a1.775,1.775,0,0,0-1.633-.84,1.751,1.751,0,0,0-1.617.836,5.171,5.171,0,0,0-.523,2.57v2.313A5.381,5.381,0,0,0,44.215-1.9a1.771,1.771,0,0,0,1.621.879,1.747,1.747,0,0,0,1.59-.828,5.186,5.186,0,0,0,.543-2.609ZM56.016,0H54.563V-9.633l-2.914,1.07V-9.875l4.141-1.555h.227ZM67.148-8.406A2.641,2.641,0,0,1,66.7-6.891a3.057,3.057,0,0,1-1.215,1.039,3.26,3.26,0,0,1,1.41,1.117,2.811,2.811,0,0,1,.52,1.664,2.972,2.972,0,0,1-1,2.352A3.827,3.827,0,0,1,63.8.156a3.81,3.81,0,0,1-2.629-.879A2.986,2.986,0,0,1,60.18-3.07a2.9,2.9,0,0,1,.5-1.664,3.136,3.136,0,0,1,1.395-1.125,2.981,2.981,0,0,1-1.2-1.039,2.679,2.679,0,0,1-.437-1.508,2.94,2.94,0,0,1,.922-2.281,3.458,3.458,0,0,1,2.43-.844,3.461,3.461,0,0,1,2.426.844A2.934,2.934,0,0,1,67.148-8.406Zm-1.18,5.3a2.1,2.1,0,0,0-.605-1.555,2.147,2.147,0,0,0-1.582-.6,2.11,2.11,0,0,0-1.566.594,2.12,2.12,0,0,0-.59,1.563A2.019,2.019,0,0,0,62.2-1.578a2.2,2.2,0,0,0,1.6.555,2.2,2.2,0,0,0,1.594-.559A2.014,2.014,0,0,0,65.969-3.1ZM63.8-10.344a1.865,1.865,0,0,0-1.379.527,1.937,1.937,0,0,0-.527,1.434,1.928,1.928,0,0,0,.52,1.4,1.844,1.844,0,0,0,1.387.535,1.844,1.844,0,0,0,1.387-.535,1.928,1.928,0,0,0,.52-1.4A1.929,1.929,0,0,0,65.164-9.8,1.839,1.839,0,0,0,63.8-10.344Z" transform="translate(939.8 5628.163)" fill="#12263f"/>
    <path id="Trazado_905777" data-name="Trazado 905777" d="M10.063,0H8.555L2.828-8.766V0H1.32V-11.375H2.828L8.57-2.57v-8.8h1.492Zm7.656-.836a3.07,3.07,0,0,1-2.477.992,2.628,2.628,0,0,1-2.059-.785,3.4,3.4,0,0,1-.715-2.324v-5.5h1.445v5.461q0,1.922,1.563,1.922A2.163,2.163,0,0,0,17.68-2.3V-8.453h1.445V0H17.75ZM16.547-12H18.3L16.2-9.7l-1.164,0ZM22.68-8.453l.039.938a3.122,3.122,0,0,1,2.508-1.094A2.417,2.417,0,0,1,27.641-7.25a3.2,3.2,0,0,1,1.1-.984,3.242,3.242,0,0,1,1.6-.375q2.781,0,2.828,2.945V0H31.719V-5.578A1.941,1.941,0,0,0,31.3-6.934a1.823,1.823,0,0,0-1.391-.449,1.916,1.916,0,0,0-1.336.48,1.949,1.949,0,0,0-.617,1.293V0H26.508V-5.539a1.613,1.613,0,0,0-1.8-1.844,1.934,1.934,0,0,0-1.945,1.211V0H21.313V-8.453ZM38.852.156a3.693,3.693,0,0,1-2.8-1.129,4.19,4.19,0,0,1-1.078-3.02v-.266a5.073,5.073,0,0,1,.48-2.246A3.748,3.748,0,0,1,36.8-8.051a3.378,3.378,0,0,1,1.871-.559,3.166,3.166,0,0,1,2.563,1.086,4.7,4.7,0,0,1,.914,3.109v.6H36.422a3,3,0,0,0,.73,2.02,2.3,2.3,0,0,0,1.777.77,2.517,2.517,0,0,0,1.3-.312,3.259,3.259,0,0,0,.93-.828l.883.688A3.55,3.55,0,0,1,38.852.156Zm-.18-7.578a1.928,1.928,0,0,0-1.469.637A3.1,3.1,0,0,0,36.469-5H40.7v-.109a2.753,2.753,0,0,0-.594-1.707A1.815,1.815,0,0,0,38.672-7.422Zm9.234.266a4.331,4.331,0,0,0-.711-.055A1.9,1.9,0,0,0,45.266-6V0H43.82V-8.453h1.406l.023.977a2.251,2.251,0,0,1,2.016-1.133,1.477,1.477,0,0,1,.641.109ZM48.7-4.3a4.993,4.993,0,0,1,.488-2.234A3.643,3.643,0,0,1,50.543-8.07a3.7,3.7,0,0,1,1.988-.539,3.565,3.565,0,0,1,2.793,1.2,4.6,4.6,0,0,1,1.066,3.18v.1a5.036,5.036,0,0,1-.473,2.215A3.589,3.589,0,0,1,54.566-.391a3.743,3.743,0,0,1-2.02.547,3.556,3.556,0,0,1-2.785-1.2A4.575,4.575,0,0,1,48.7-4.2Zm1.453.172A3.616,3.616,0,0,0,50.8-1.875a2.088,2.088,0,0,0,1.746.852,2.075,2.075,0,0,0,1.75-.863A3.955,3.955,0,0,0,54.945-4.3a3.61,3.61,0,0,0-.66-2.254,2.1,2.1,0,0,0-1.754-.863A2.075,2.075,0,0,0,50.8-6.57,3.925,3.925,0,0,0,50.148-4.133ZM61.813-4.3a4.952,4.952,0,0,1,.922-3.129,2.915,2.915,0,0,1,2.414-1.184A2.932,2.932,0,0,1,67.5-7.594V-12h1.445V0H67.617l-.07-.906A2.943,2.943,0,0,1,65.133.156a2.887,2.887,0,0,1-2.395-1.2,5.008,5.008,0,0,1-.926-3.141Zm1.445.164a3.749,3.749,0,0,0,.594,2.25,1.92,1.92,0,0,0,1.641.813A2.109,2.109,0,0,0,67.5-2.3V-6.187a2.125,2.125,0,0,0-1.992-1.2,1.929,1.929,0,0,0-1.656.82A4.128,4.128,0,0,0,63.258-4.133ZM74.7.156A3.693,3.693,0,0,1,71.9-.973a4.19,4.19,0,0,1-1.078-3.02v-.266A5.073,5.073,0,0,1,71.3-6.5a3.748,3.748,0,0,1,1.344-1.547,3.378,3.378,0,0,1,1.871-.559,3.166,3.166,0,0,1,2.563,1.086,4.7,4.7,0,0,1,.914,3.109v.6H72.266A3,3,0,0,0,73-1.793a2.3,2.3,0,0,0,1.777.77,2.517,2.517,0,0,0,1.3-.312A3.259,3.259,0,0,0,77-2.164l.883.688A3.55,3.55,0,0,1,74.7.156Zm-.18-7.578a1.928,1.928,0,0,0-1.469.637A3.1,3.1,0,0,0,72.313-5h4.234v-.109a2.753,2.753,0,0,0-.594-1.707A1.815,1.815,0,0,0,74.516-7.422Zm16.25,3.289a5.062,5.062,0,0,1-.883,3.109A2.829,2.829,0,0,1,87.492.156,3.1,3.1,0,0,1,85.07-.82V3.25H83.625v-11.7h1.32l.07.938a2.977,2.977,0,0,1,2.453-1.094,2.882,2.882,0,0,1,2.41,1.148,5.117,5.117,0,0,1,.887,3.2ZM89.32-4.3a3.735,3.735,0,0,0-.609-2.258,1.963,1.963,0,0,0-1.672-.828A2.125,2.125,0,0,0,85.07-6.219V-2.18a2.129,2.129,0,0,0,1.984,1.156,1.954,1.954,0,0,0,1.652-.824A4.077,4.077,0,0,0,89.32-4.3ZM96.109.156a3.693,3.693,0,0,1-2.8-1.129,4.19,4.19,0,0,1-1.078-3.02v-.266a5.073,5.073,0,0,1,.48-2.246,3.748,3.748,0,0,1,1.344-1.547,3.378,3.378,0,0,1,1.871-.559,3.166,3.166,0,0,1,2.563,1.086,4.7,4.7,0,0,1,.914,3.109v.6H93.68a3,3,0,0,0,.73,2.02,2.3,2.3,0,0,0,1.777.77,2.517,2.517,0,0,0,1.3-.312,3.259,3.259,0,0,0,.93-.828l.883.688A3.55,3.55,0,0,1,96.109.156Zm-.18-7.578a1.928,1.928,0,0,0-1.469.637A3.1,3.1,0,0,0,93.727-5h4.234v-.109a2.753,2.753,0,0,0-.594-1.707A1.815,1.815,0,0,0,95.93-7.422Zm9.234.266a4.331,4.331,0,0,0-.711-.055A1.9,1.9,0,0,0,102.523-6V0h-1.445V-8.453h1.406l.023.977a2.251,2.251,0,0,1,2.016-1.133,1.477,1.477,0,0,1,.641.109Zm6.25,4.914a1.064,1.064,0,0,0-.441-.91,4.249,4.249,0,0,0-1.539-.559,7.277,7.277,0,0,1-1.742-.562,2.479,2.479,0,0,1-.953-.781,1.869,1.869,0,0,1-.309-1.078,2.193,2.193,0,0,1,.879-1.758,3.432,3.432,0,0,1,2.246-.719,3.532,3.532,0,0,1,2.332.742,2.357,2.357,0,0,1,.895,1.9h-1.453a1.3,1.3,0,0,0-.5-1.023,1.888,1.888,0,0,0-1.27-.43,1.976,1.976,0,0,0-1.234.344,1.082,1.082,0,0,0-.445.9.877.877,0,0,0,.414.789,5.1,5.1,0,0,0,1.5.508,7.8,7.8,0,0,1,1.754.578,2.558,2.558,0,0,1,1,.809,1.988,1.988,0,0,1,.324,1.152,2.163,2.163,0,0,1-.906,1.816A3.8,3.8,0,0,1,109.6.156,4.257,4.257,0,0,1,107.8-.2a2.922,2.922,0,0,1-1.223-1,2.42,2.42,0,0,1-.441-1.395h1.445a1.5,1.5,0,0,0,.582,1.152,2.258,2.258,0,0,0,1.434.426,2.331,2.331,0,0,0,1.316-.332A1.02,1.02,0,0,0,111.414-2.242ZM114.359-4.3a4.993,4.993,0,0,1,.488-2.234,3.643,3.643,0,0,1,1.359-1.531,3.7,3.7,0,0,1,1.988-.539,3.565,3.565,0,0,1,2.793,1.2,4.6,4.6,0,0,1,1.066,3.18v.1a5.036,5.036,0,0,1-.473,2.215A3.589,3.589,0,0,1,120.23-.391a3.743,3.743,0,0,1-2.02.547,3.556,3.556,0,0,1-2.785-1.2A4.575,4.575,0,0,1,114.359-4.2Zm1.453.172a3.616,3.616,0,0,0,.652,2.258,2.088,2.088,0,0,0,1.746.852,2.075,2.075,0,0,0,1.75-.863,3.955,3.955,0,0,0,.648-2.418,3.61,3.61,0,0,0-.66-2.254,2.1,2.1,0,0,0-1.754-.863,2.075,2.075,0,0,0-1.727.852A3.925,3.925,0,0,0,115.813-4.133Zm9.422-4.32.047,1.063a3.08,3.08,0,0,1,2.531-1.219q2.68,0,2.7,3.023V0H129.07V-5.594a1.946,1.946,0,0,0-.418-1.352,1.675,1.675,0,0,0-1.277-.437,2.086,2.086,0,0,0-1.234.375,2.546,2.546,0,0,0-.828.984V0h-1.445V-8.453ZM137.914,0a3.036,3.036,0,0,1-.2-.891A3.225,3.225,0,0,1,135.3.156a2.984,2.984,0,0,1-2.051-.707,2.287,2.287,0,0,1-.8-1.793,2.39,2.39,0,0,1,1-2.051,4.733,4.733,0,0,1,2.824-.73h1.406v-.664A1.623,1.623,0,0,0,137.234-7a1.821,1.821,0,0,0-1.336-.449,2.107,2.107,0,0,0-1.3.391,1.151,1.151,0,0,0-.523.945h-1.453a2,2,0,0,1,.449-1.223,3.066,3.066,0,0,1,1.219-.934,4.1,4.1,0,0,1,1.691-.344,3.342,3.342,0,0,1,2.289.73,2.635,2.635,0,0,1,.859,2.012v3.891a4.757,4.757,0,0,0,.3,1.852V0Zm-2.4-1.1a2.54,2.54,0,0,0,1.289-.352,2.127,2.127,0,0,0,.883-.914V-4.1h-1.133q-2.656,0-2.656,1.555a1.316,1.316,0,0,0,.453,1.063A1.742,1.742,0,0,0,135.516-1.1Zm10.8-1.141a1.064,1.064,0,0,0-.441-.91,4.249,4.249,0,0,0-1.539-.559,7.277,7.277,0,0,1-1.742-.562,2.479,2.479,0,0,1-.953-.781,1.869,1.869,0,0,1-.309-1.078,2.193,2.193,0,0,1,.879-1.758,3.432,3.432,0,0,1,2.246-.719,3.532,3.532,0,0,1,2.332.742,2.357,2.357,0,0,1,.895,1.9h-1.453a1.3,1.3,0,0,0-.5-1.023,1.888,1.888,0,0,0-1.27-.43,1.976,1.976,0,0,0-1.234.344,1.082,1.082,0,0,0-.445.9.877.877,0,0,0,.414.789,5.1,5.1,0,0,0,1.5.508,7.8,7.8,0,0,1,1.754.578,2.558,2.558,0,0,1,1,.809,1.988,1.988,0,0,1,.324,1.152,2.163,2.163,0,0,1-.906,1.816,3.8,3.8,0,0,1-2.352.684,4.257,4.257,0,0,1-1.8-.359,2.922,2.922,0,0,1-1.223-1,2.42,2.42,0,0,1-.441-1.395h1.445a1.5,1.5,0,0,0,.582,1.152,2.258,2.258,0,0,0,1.434.426,2.331,2.331,0,0,0,1.316-.332A1.02,1.02,0,0,0,146.32-2.242Z" transform="translate(556.7 5548.143) rotate(-90)" fill="#12263f"/>
    <g id="Grupo_1118134" data-name="Grupo 1118134" transform="translate(285 5302.453)" clip-path="url(#clip-path)">
      <g id="Grupo_1118112" data-name="Grupo 1118112">
        <g id="Grupo_1118100" data-name="Grupo 1118100">
          <path id="Trazado_904807" data-name="Trazado 904807" d="M947.76,206.7c-2.8-16.12-18.72-37-24.55-52.54-1.46-3.89-12.7.88-11.5,5.8,3.1,12.81,4.85,34.61,13.92,57.25,6.32,15.78,25.66,9.83,22.13-10.51Z" fill="#ffa794"/>
          <path id="Trazado_904808" data-name="Trazado 904808" d="M970.59,141.78c-15.09,11.71-33.13,47.88-41.08,66.2-5.59,12.87,2.84,22.2,13.39,16.52,12.54-6.75,33.99-32.52,44.71-52.91,11.33-21.54,2.21-44.72-17.02-29.8Z" fill="#ffa794"/>
          <path id="Trazado_904809" data-name="Trazado 904809" d="M946.75,170.64c3.61-7.17,14.62-28.7,30.12-33.96,17.28-5.86,23.14,15.57,16.9,30.2s-10.65,20.26-12.36,23.29c-.9,1.59-10.24-.27-18.49-7.71-6.28-5.67-17.83-8.51-16.17-11.82Z" fill="#ffa959"/>
          <g id="Grupo_1118099" data-name="Grupo 1118099">
            <g id="Grupo_1118098" data-name="Grupo 1118098">
              <path id="Trazado_904810" data-name="Trazado 904810" d="M923.67,155.34c-1.27-3.22-1.96-4.95-1.98-7.63s.67-6.95-2.04-10.44-15.62,8.53-14.81,11.77,5.76,6.88,6.95,11.29c1.31,4.85,13.44-1,11.87-4.99Z" fill="#ffa794"/>
              <g id="Grupo_1118097" data-name="Grupo 1118097">
                <path id="Trazado_904811" data-name="Trazado 904811" d="M904.99,142.52a11.228,11.228,0,0,1,3.07,2.64c.76,1.05-2.17,6.27-3.05,4.39s-1.71-3.61-2.04-4.48c-.64-1.68.68-3.24,2.02-2.55Z" fill="#ffa794"/>
                <path id="Trazado_904812" data-name="Trazado 904812" d="M907.38,144.75a14.958,14.958,0,0,1-3.21-3.31c-.96-1.52-.12-4.15,2.14-2.93,1.16.62,3.75,2.72,4.13,3.75s-1.42,3.69-3.06,2.5Z" fill="#ffa794"/>
                <path id="Trazado_904813" data-name="Trazado 904813" d="M914.16,139.11a24.154,24.154,0,0,0-5.86-4.73c-2.4-1.19-4.31,1.37-2.3,3.77a18.034,18.034,0,0,0,4.69,4.16c2.16,1.16,4.43-1.84,3.48-3.19Z" fill="#ffa794"/>
                <path id="Trazado_904814" data-name="Trazado 904814" d="M919.62,137.23c-1.85-2.26-6.55-5.26-9.27-6.8-2.98-1.69-4.15,1.4-2.28,3.67a42.737,42.737,0,0,0,5.83,5.4c2.44,1.97,7.07-.63,5.72-2.28Z" fill="#ffa794"/>
              </g>
            </g>
            <path id="Trazado_904815" data-name="Trazado 904815" d="M921.23,144.21c.5-1.35.52-4.77-1.68-8.1s-2.38-5.87-3.21-6.99-3.6.25-2.74,4.35,1.64,4.13,1.39,6.76c-.51,5.46,4.84,7.74,6.24,3.98Z" fill="#ffa794"/>
          </g>
        </g>
        <g id="Grupo_1118101" data-name="Grupo 1118101">
          <path id="Trazado_904816" data-name="Trazado 904816" d="M790.74,103.99l32.06,97.96,42.6,8.43,30.19-12.3,24.03-2.32L910.39,89.53l-25.72,5.53-41.11,15.6Z" fill="#fffae6"/>
          <path id="Trazado_904817" data-name="Trazado 904817" d="M800.59,111.52l27.62,85.79,36.15,7.78,29.65-12.03,18.04-2.57-7.48-94.61-18.5,3.93-42.06,16.06Z" fill="#ebdfd4"/>
          <path id="Trazado_904818" data-name="Trazado 904818" d="M906.91,125.46,873.6,137.21l-2.08-31.85-1.98.75,2.04,31.33-23.87-3.35-4.19-18.28-3.54-.35,4.29,18.68-35.08,4.07,1.05,3.27,34.91-4.06,7.09,22.33-34.3,5.64.63,1.94,34.29-5.64,7.23,22.77-34.41,4.96,1.05,3.25,35.44-5.11,25.99,7.84,4.97-2.02-29.5-8.9-7.33-23.06,21.35-.24h.17l16.98,31.73,2.13-.3-16.85-31.48,29.58-.77-.16-2.02-30.32.79-5.07-18.56,33.06-11.66-.27-3.47Zm-29.8,33.74-21.44.24-6.92-21.8,23.37,3.28,4.99,18.27Z" fill="#fffae6"/>
          <path id="Trazado_904819" data-name="Trazado 904819" d="M821.98,125.65l.67,4.1,7.56-.6-1.15-4.09-1.99-.59-1.08-3.95-1.92-1.46-1.3,1.78.96,3.82Z" fill="#ab8787"/>
        </g>
        <g id="Grupo_1118102" data-name="Grupo 1118102">
          <path id="Trazado_904820" data-name="Trazado 904820" d="M939.95,277.66c.02,32.12,3.11,85.72,5.41,105.74,2.82,24.5,21.56,111.44,24.29,116.66,2.84,5.42,32.66,2.58,32.84-3.62.09-2.94,2.41-10.04.05-18.67-3.17-11.62.12-22.2-2.41-31.07-6.29-21.98,3.78-28-1.79-63.37-2.67-16.94,4.81-70.28-.11-109.64-4.37-34.89-58.3-34.21-58.28,3.97Z" fill="#85b3c9"/>
          <path id="Trazado_904821" data-name="Trazado 904821" d="M986.69,314.43c-2.03,0-11.11-3.52-11.37-4.7-.19-.87-.05-14.78-.04-16.37v-.34h.35c.15,0,15.53.34,20.7-2.64l.5-.29v.58c0,.54,0,13.23-.75,16.43-.48,2.09-7.57,7.31-9.4,7.31Zm-10.74-20.72c-.06,6.19-.11,15.28.02,15.88.46.76,8.75,4.17,10.72,4.17,1.5,0,8.34-5.05,8.74-6.79.64-2.75.72-13.18.73-15.72-5.31,2.58-17.91,2.5-20.21,2.47Z" fill="#b3d3e3"/>
        </g>
        <g id="Grupo_1118103" data-name="Grupo 1118103">
          <path id="Trazado_904822" data-name="Trazado 904822" d="M896.01,278.89c-3.28,27.03-5.78,71.82-5.78,97.59,0,18.83,10.27,115.62,12.37,123.59,1.35,5.13,30.88,5.83,33,0,3.79-10.42-.73-14.32.25-26.34.63-7.71,3.86-13.35,3.03-22.48-2.05-22.5,4.8-25.76,2.47-68.04-.65-11.69,10.52-39.9,14.87-64.71,1.05-5.97,8.71-14.64,7.93-38.74-1.24-38.36-63.74-37.17-68.15-.86Z" fill="#85b3c9"/>
          <path id="Trazado_904823" data-name="Trazado 904823" d="M935.61,500.39a.352.352,0,0,1-.12-.02.333.333,0,0,1-.2-.43c2.17-5.96,1.57-9.8.89-14.24a47,47,0,0,1-.65-12.01,56.772,56.772,0,0,1,1.52-8.4c.99-4.17,2.01-8.48,1.51-14.02-.91-10-.05-16.36.94-23.72,1.26-9.28,2.82-20.82,1.52-44.34-.36-6.49,2.85-17.89,6.57-31.09,2.98-10.57,6.35-22.55,8.31-33.7a28.5,28.5,0,0,1,2-5.7c2.59-6.13,6.5-15.4,5.93-32.96a.34.34,0,0,1,.68-.02c.57,17.7-3.37,27.06-5.98,33.25a28.723,28.723,0,0,0-1.96,5.56c-1.96,11.18-5.34,23.18-8.32,33.76-3.7,13.14-6.9,24.5-6.55,30.87,1.3,23.58-.27,35.16-1.53,44.46-1.03,7.62-1.85,13.64-.94,23.57.52,5.65-.52,10.01-1.52,14.24a54.849,54.849,0,0,0-1.51,8.3,46.32,46.32,0,0,0,.65,11.86c.7,4.53,1.31,8.44-.92,14.57a.333.333,0,0,1-.32.22Z" fill="#b3d3e3"/>
          <path id="Trazado_904824" data-name="Trazado 904824" d="M940.97,315.76c-3.07,0-13.5-5.55-13.65-6.85-.1-.88.55-15.06.63-16.67l.02-.38.38.07c.15.03,15.17,2.73,26.19,1.22l.41-.06-.03.41c-.09,1.37-.89,13.4-1.85,15.13-1.51,2.71-10.25,7.14-12.1,7.14ZM928.6,292.65c-.29,6.32-.69,15.57-.61,16.18.39.75,9.82,6.25,12.99,6.25,1.65,0,10.1-4.25,11.51-6.79.72-1.3,1.47-10.49,1.74-14.43-10.1,1.28-23.23-.81-25.62-1.21Z" fill="#b3d3e3"/>
          <path id="Trazado_904825" data-name="Trazado 904825" d="M915.09,496.24a.335.335,0,0,1-.34-.33c-.04-6.24-.51-13.33-1.01-20.83-.76-11.41-1.54-23.21-.98-34,.53-10.25-.75-20.88-2.11-32.14-1.05-8.73-2.14-17.75-2.64-27.95-1.17-23.89,6.11-86.79,9.64-101.32a.34.34,0,1,1,.66.16c-3.52,14.5-10.78,77.28-9.62,101.13.5,10.17,1.59,19.19,2.64,27.9,1.36,11.28,2.65,21.94,2.11,32.25-.56,10.75.22,22.53.98,33.92.5,7.51.97,14.61,1.01,20.87a.335.335,0,0,1-.33.34h0Z" fill="#b3d3e3"/>
          <path id="Trazado_904826" data-name="Trazado 904826" d="M913.52,308.52h-.08c-12.51-2.96-13.98-18.51-11.44-30.92a.337.337,0,0,1,.66.14c-2.48,12.12-1.1,27.28,10.93,30.13a.339.339,0,0,1,.25.41.342.342,0,0,1-.33.26Z" fill="#b3d3e3"/>
        </g>
        <g id="Grupo_1118104" data-name="Grupo 1118104">
          <path id="Trazado_904827" data-name="Trazado 904827" d="M929.66,136.58c-12.14-.14-16.43-10.37-17.82-21.64-.25-2.02-3.49-1.43-2.53-4.38.95-2.9,2.75-5.01,1.88-10.65-.52-3.36.63-6.11,1-7.6,3.21-13.08,29.29-17,37.46,7.32C954.16,113.03,949.3,136.8,929.66,136.58Z" fill="#ffa794"/>
          <path id="Trazado_904828" data-name="Trazado 904828" d="M926.69,112.31c-.27,15.38-1.03,18.77-7.07,20.83a15.376,15.376,0,0,0,10.04,3.45c10.75.12,17.07-6.94,19.85-15.57-5.84-6.17-22.76-11.87-22.82-8.71Z" fill="#ff9782"/>
          <path id="Trazado_904829" data-name="Trazado 904829" d="M925.24,103.31c0,4.7,2.64,21.34,4.18,33.83.32,2.64,28.97,2.11,28.3-1.74-1.68-9.57-6.12-27.55-7.29-33.95s-25.19-5.87-25.18,1.86Z" fill="#ffa794"/>
          <path id="Trazado_904830" data-name="Trazado 904830" d="M954.58,98.43a62.37,62.37,0,0,0-1.62,9.71c-.23,6.38-14.95,7.32-19.48,2.86-8.04-7.92-10.69-2.49-10.73-4.68a20.344,20.344,0,0,0-2.18-8.77c-1.02-2.14,34,.88,34,.88Z" fill="#353a52"/>
          <path id="Trazado_904831" data-name="Trazado 904831" d="M923.86,109.23c.12,2.84.06,5.16,2.03,5.31,2.02.15,3.58-3.4,3.82-6.23.3-3.57-1.62-5.18-3.55-4.88-2.42.37-2.42,2.87-2.3,5.79Z" fill="#ffa794"/>
          <path id="Trazado_904832" data-name="Trazado 904832" d="M951.86,102.8c-9.27,6.11-22.51,1.44-28.06-2.01-2.69-1.67-3.51-5.04-6.8-5.27-8.45-.61-12.49-5.65-10.75-10.67,1.54-4.44,7.08-1.34,6.1-4.33-1.97-6.07,2.08-7.05,8.13-5.63,2.38.56,2.3-8.2,9.37-3.33,4.32,2.98,6.31,1.74,15.02,2.68,4.84.52,5.22,4.73,6.61,5.98s3.39-.05,6.07,4.7c1.38,2.44,3.18,12.03-5.7,17.88Z" fill="#282c3d"/>
        </g>
        <path id="Trazado_904833" data-name="Trazado 904833" d="M894.92,277.56c4.22,3.78,10.59-1.1,34.03,8.52,46.6,19.13,64.17,6.25,70.17-3.62,5.68-9.35-1.88-30.02-.37-47.45,3.68-42.34,6.18-85.27-8.66-96.92-16.72-13.12-69.98-9.25-88.73.24-12.1,6.12.5,80.53-1.39,110.37-.68,10.64-6.05,27.94-5.04,28.85Z" fill="#ffa959"/>
        <path id="Trazado_904834" data-name="Trazado 904834" d="M962.01,156.37c-.3,0-.35-.04-.41-.1a5.84,5.84,0,0,1-.39-3.26h0c.48-.59,13.26-2.26,13.81-1.8.27.23.98,2.8.65,3.23-.35.47-11.79,1.79-11.9,1.8-.96.1-1.47.14-1.75.14Zm-.25-2.93a10.188,10.188,0,0,0,.27,2.26c1.4-.01,11.6-1.35,13.06-1.72a11.265,11.265,0,0,0-.52-2.21h-.05c-1.61,0-11.57,1.19-12.77,1.66Z" fill="#2e75bf"/>
        <g id="Grupo_1118107" data-name="Grupo 1118107">
          <path id="Trazado_904835" data-name="Trazado 904835" d="M952.82,138.79c-1.2-1.66-3.92-5.01-.38-6.08s5.81,5.47,5.81,5.47h-1.12s-2.48-5.28-4.37-4.99,1.52,5.37,1.52,5.37l-1.45.24Z" fill="#34394f"/>
          <g id="Grupo_1118105" data-name="Grupo 1118105">
            <path id="Trazado_904836" data-name="Trazado 904836" d="M914.44,133.83c5.18,1.08,14.64,7.36,17.13,15.74,1.08,3.66,8.57-.15,7.71-3.48-1.08-4.19-7.96-13.97-16.58-14.82-3.14-.31-9.45,2.32-8.26,2.56Z" fill="#34394f"/>
            <path id="Trazado_904837" data-name="Trazado 904837" d="M969.4,130.88c2.23,3.03,2.93,6.24,3.5,9.33s8.07,3.26,8.15,1.83-1.26-7.12-3.43-9.57c-2.03-2.3-9.4-3.2-8.22-1.59Z" fill="#34394f"/>
            <path id="Trazado_904838" data-name="Trazado 904838" d="M900.15,239.36c7.82,2.01,21.73-3.25,28.81-15.49,4.69-8.11,8.31,6.38,5.41,11.61-6.42,11.53-18.36,18.6-34.64,15.84-1.18-.2-1.21-12.38.42-11.96Z" fill="#34394f"/>
            <path id="Trazado_904839" data-name="Trazado 904839" d="M930.85,147.52c-4.76,5.99-3.16,57.34-4.62,95.61-.69,18.02,74.5,25.29,83.31-6.26,7.44-26.65-6.65-71.39-17.82-87.27-13.39-19.03-51.18-14.29-60.88-2.08Z" fill="#1c5b9e"/>
            <path id="Trazado_904840" data-name="Trazado 904840" d="M952.32,202.51c4.88-4.73,47.7-8.75,52.29-4.29,2.72,2.64,4.8,28.29.25,38.14s-49.43,14.38-53.47,6.98c-2.67-4.9-2.46-37.54.93-40.82Z" fill="#1e63ab"/>
            <path id="Trazado_904841" data-name="Trazado 904841" d="M966.74,247.34c-5.49,0-13.86-.56-15.65-3.85-2.53-4.64-2.59-37.76.99-41.23,2.64-2.56,15.19-4.7,26.46-5.68,10.52-.92,23.72-1.11,26.3,1.39,2.85,2.76,4.95,28.5.32,38.52-2.82,6.11-20.34,10.29-35.65,10.8-.77.03-1.72.05-2.77.05Zm25.1-50.67c-14.29,0-35.82,2.73-39.28,6.08h0c-1.42,1.37-2.47,9.24-2.64,19.57-.16,10.08.57,18.66,1.76,20.85,1.34,2.45,8.16,3.77,17.81,3.45,14.78-.49,32.39-4.61,35.06-10.41,4.49-9.72,2.41-35.25-.18-37.76-1.29-1.25-6.2-1.79-12.54-1.79Zm-39.52,5.84Z" fill="#2e75bf"/>
            <path id="Trazado_904842" data-name="Trazado 904842" d="M961.13,206.14c-1.94,0-2.94-.06-2.98-.06a.324.324,0,0,1-.31-.36.33.33,0,0,1,.36-.31c.14,0,14.82.88,42.61-4.26a.332.332,0,0,1,.39.27.339.339,0,0,1-.27.39c-20.72,3.83-34.19,4.33-39.8,4.33Z" fill="#2e75bf"/>
          </g>
          <path id="Trazado_904843" data-name="Trazado 904843" d="M934.39,189.81a.349.349,0,0,1-.34-.33c-.02-1.49-.56-36.56,3.09-40.22,6.75-6.75,33.67-13.12,50.22-4.83a.335.335,0,1,1-.3.6c-16.01-8.02-42.98-1.77-49.44,4.7-2.77,2.77-3.1,27.2-2.9,39.73a.335.335,0,0,1-.33.34h0Z" fill="#2e75bf"/>
          <g id="Grupo_1118106" data-name="Grupo 1118106">
            <path id="Trazado_904844" data-name="Trazado 904844" d="M932.37,199.63l-2.61.28-2.61.28c.24,2.26-3.64,3.25-3.14,8.01.31,2.89,2.56,24.08,2.83,26.64,0,0,.14,1.33,6.7.64s6.41-2.03,6.41-2.03c-.27-2.56-2.53-23.75-2.83-26.64-.51-4.75-4.51-4.91-4.75-7.17Z" fill="#add6ff"/>
            <path id="Trazado_904845" data-name="Trazado 904845" d="M926.37,198.38l.19,1.8c.03.25,1.47.29,3.23.11s3.16-.54,3.14-.78l-.19-1.8-6.37.68Z" fill="#12398c"/>
            <path id="Trazado_904846" data-name="Trazado 904846" d="M932.74,197.7c.03.25-1.38.6-3.14.78s-3.21.14-3.23-.11,1.38-.6,3.14-.78S932.72,197.45,932.74,197.7Z" fill="#214aa3"/>
          </g>
          <path id="Trazado_904847" data-name="Trazado 904847" d="M923.14,211.89c-1.29,7.12-1.14,24.38,1.89,29.17s13.83,5.42,15.28,4.8c2.82-1.2,3.81-34.44,2.4-34.3-16.49,1.59-19.32-1.06-19.58.33Z" fill="#1c5b9e"/>
        </g>
        <g id="Grupo_1118111" data-name="Grupo 1118111">
          <g id="Grupo_1118108" data-name="Grupo 1118108">
            <path id="Trazado_904848" data-name="Trazado 904848" d="M828.63,162.48c-4.67-7.15-7.59-11.42-12.26-12.05a20.585,20.585,0,0,1-5.22-1.39c-2.64-1.14-4.64,2.78-5.17,5.7s-2.69,6.96-.33,8.72c1.96,1.46,10.23,3.49,14,7.86,2.57,2.98,13.01-2.66,8.98-8.83Z" fill="#ffa794"/>
            <path id="Trazado_904849" data-name="Trazado 904849" d="M816.27,139.75a52.448,52.448,0,0,0,3.18,6.84c1.36,2.15,3.94,6.97,6.05,11.22,1.63,3.29-6.64,5.64-10.11-.41-2.78-4.84-.18-8.5-.75-9.65a13.957,13.957,0,0,1-1.77-6.2c.09-2.36,2.44-3.97,3.41-1.8Z" fill="#ffa794"/>
            <path id="Trazado_904850" data-name="Trazado 904850" d="M809.43,154.06a25.228,25.228,0,0,1-7.4-5.23,34.33,34.33,0,0,1-3.19-6.21,1.819,1.819,0,0,1,2.98-1.8c1.59,1.09,2.68,4.14,3.4,4.76a33.052,33.052,0,0,0,6.95,3.94c2.53,1.16-.49,5.39-2.73,4.54Z" fill="#ffa794"/>
            <path id="Trazado_904851" data-name="Trazado 904851" d="M805.69,156.92a18.313,18.313,0,0,1-4.9-5.17c-1.15-2.05-.23-4.28,1.5-3.89,1.2.27,4.87,3.94,6.75,5.65S806.73,157.76,805.69,156.92Z" fill="#ffa794"/>
            <path id="Trazado_904852" data-name="Trazado 904852" d="M806.39,160.27a17.426,17.426,0,0,1-5.69-4.12c-1.5-1.86-.91-5,1.38-4.03,1.06.45,4.61,3.12,6.69,4.58s-.99,4.1-2.38,3.57Z" fill="#ffa794"/>
            <path id="Trazado_904853" data-name="Trazado 904853" d="M805.73,163.51a11.246,11.246,0,0,1-4.47-4.2c-.79-1.43-.29-3.61.8-3.25a46.132,46.132,0,0,1,6.42,3.98C810.56,161.5,806.87,164.22,805.73,163.51Z" fill="#ffa794"/>
          </g>
          <path id="Trazado_904854" data-name="Trazado 904854" d="M869.19,201.84c-8.26-14.12-30.49-28.1-41.39-40.62-2.73-3.13-11.58,5.27-8.74,9.46,7.39,10.91,16.66,30.72,33.08,48.75,11.44,12.56,27.47.22,17.05-17.6Z" fill="#ffa794"/>
          <g id="Grupo_1118109" data-name="Grupo 1118109">
            <path id="Trazado_904855" data-name="Trazado 904855" d="M899.07,141.55c-15.55,11.1-35.01,46.52-43.69,64.51-6.1,12.64,1.95,22.29,12.72,17.04,12.8-6.24,35.25-31.14,46.78-51.09,12.18-21.07,3.99-44.6-15.82-30.46Z" fill="#ffa794"/>
            <path id="Trazado_904856" data-name="Trazado 904856" d="M855.38,206.39a.744.744,0,0,1-.15-.03.336.336,0,0,1-.16-.45c2.51-5.21,25.09-51.28,43.79-64.63a.337.337,0,1,1,.39.55c-18.57,13.26-41.07,59.18-43.58,64.38a.34.34,0,0,1-.3.19Z" fill="#ff9782"/>
          </g>
          <g id="Grupo_1118110" data-name="Grupo 1118110">
            <path id="Trazado_904857" data-name="Trazado 904857" d="M874.1,169.43c3.89-7.02,15.75-28.09,31.45-32.74,17.5-5.17,22.5,16.48,15.68,30.85s-11.45,19.82-13.28,22.78c-.96,1.55-10.23-.67-18.17-8.44-6.05-5.91-17.48-9.22-15.68-12.46Z" fill="#ffa959"/>
            <path id="Trazado_904858" data-name="Trazado 904858" d="M906.47,191.13c-3.42,0-10.71-2.93-16.92-9-2.58-2.52-6.13-4.55-9.27-6.35-3.29-1.88-5.88-3.36-6.54-4.9a.336.336,0,1,1,.62-.26c.57,1.33,3.21,2.84,6.26,4.58,3.17,1.81,6.77,3.87,9.4,6.45,6.88,6.73,14.55,9.07,16.95,8.78.51-.06.66-.21.7-.28.39-.63.89-1.35,1.53-2.27a118.857,118.857,0,0,0,7.97-12.99.34.34,0,0,1,.6.32,120.493,120.493,0,0,1-8.01,13.06c-.63.91-1.13,1.62-1.51,2.24a1.531,1.531,0,0,1-1.19.59,5.22,5.22,0,0,1-.58.03Z" fill="#ffc38c"/>
            <path id="Trazado_904859" data-name="Trazado 904859" d="M914,197.06h-.04a.34.34,0,0,1-.29-.38c.01-.09,1.11-8.86.16-15.73a.338.338,0,1,1,.67-.09c.97,6.96-.14,15.82-.15,15.91a.334.334,0,0,1-.33.29Z" fill="#ffc38c"/>
          </g>
        </g>
      </g>
      <g id="Grupo_1118133" data-name="Grupo 1118133">
        <path id="Trazado_904860" data-name="Trazado 904860" d="M72.98,130.93c4.26,7.79,3.79,11.38.4,19.4s-.85,12.04,3.07,18.84,6.62,11.84,4.08,18.81-6.53,9.25-3.42,9.72a21.5,21.5,0,0,0,21.21-12.39c6.05-12.32,20.42-14.79,20.14-34.51s5.34-17.59,2.85-28.81,6.82-22.26,4.63-30.19-10.73-9.48-17.39-8.44c-10.18,1.59-41.16,37.35-35.58,47.57Z" fill="#592b2d"/>
        <g id="Grupo_1118113" data-name="Grupo 1118113">
          <path id="Trazado_904861" data-name="Trazado 904861" d="M136.68,228.51c-1.68,7.96-32.49,14.95-42.54,15.21s-27.31-1.29-31.7-8.76-.52-59.15,4.9-73.91,33.56-17.49,44.04-15.42,28.72,66.64,25.3,82.88Z" fill="#e84d4d"/>
          <path id="Trazado_904862" data-name="Trazado 904862" d="M71.8,220.89h.08a.35.35,0,0,0,.26-.41c-2.7-11.83-1.61-30.72-.89-43.22.19-3.21.34-5.99.42-8.25.35-10.12,2.07-15.61,5.58-17.81a.341.341,0,0,0-.36-.58c-3.73,2.33-5.55,7.99-5.91,18.37-.08,2.25-.24,5.02-.42,8.23-.72,12.54-1.82,31.49.91,43.41a.349.349,0,0,0,.33.27Z" fill="#fa7a7a"/>
        </g>
        <path id="Trazado_904863" data-name="Trazado 904863" d="M154.84,247.2c20.94,54.35,26.39,99.98,30.24,130.42,2.41,19.06-2.25,73.25-2.25,112.11,0,5.8-29.39,6.38-31.71,0-1.41-3.89-3.29-8.31-2.13-19.72.6-5.9-5.97-12.68-4.3-20.13,4.3-19.12-7.3-13.12-2.92-57.2,1.11-11.2-38.7-52.43-37.69-96.45.94-40.87,40.72-75.09,50.75-49.03Z" fill="#76bae3"/>
        <path id="Trazado_904864" data-name="Trazado 904864" d="M82.27,280.25c3.78-14.01,14-35.28,14.88-43.66.61-5.9,38.83-2.69,41.15,2.91s9.13,34,4.45,49.23c-11.99,39.05-67.82,18.67-60.49-8.49Z" fill="#76bae3"/>
        <g id="Grupo_1118115" data-name="Grupo 1118115">
          <path id="Trazado_904865" data-name="Trazado 904865" d="M135.83,260.9c12.77,61.61-8.12,113.96-13.29,133.09-5.01,18.54-20.8,73.9-29.12,94.68-2.68,6.68-32.98,1.46-32.97-4.54,0-8.01-.35-14.69,5.41-22.43,3.29-4.42-2.36-12.36.32-18.46,6.23-14.21-.55-26.47,13.04-53.76,7.27-14.61-13.35-66.11,2.05-107.35,15.41-41.28,49.74-44.49,54.56-21.22Z" fill="#76bae3"/>
          <g id="Grupo_1118114" data-name="Grupo 1118114">
            <path id="Trazado_904866" data-name="Trazado 904866" d="M93.43,489.01a.333.333,0,0,0,.32-.22c8.31-20.75,24.26-76.69,29.13-94.72.68-2.5,1.63-5.59,2.73-9.16,7.58-24.62,21.69-70.46,10.57-124.08a.347.347,0,0,0-.68.14c11.08,53.45-2.99,99.18-10.55,123.74-1.1,3.58-2.05,6.67-2.73,9.19-4.87,18.02-20.8,73.91-29.11,94.64a.351.351,0,0,0,.19.45.3.3,0,0,0,.13.02Z" fill="#9ad4f7"/>
            <path id="Trazado_904867" data-name="Trazado 904867" d="M139.83,296.06a.362.362,0,0,0,.29-.16c7.92-12.19,2.91-38.56,2.69-39.68a.341.341,0,1,0-.67.13c.05.27,5.18,27.21-2.59,39.17a.352.352,0,0,0,.1.48.329.329,0,0,0,.19.06Z" fill="#9ad4f7"/>
            <path id="Trazado_904868" data-name="Trazado 904868" d="M72.41,485.81a.34.34,0,0,0,.34-.32c.25-4.57,1.48-10.12,3.02-17.16,1.59-7.25,3.4-15.47,4.77-25.35,1.49-10.75,4-20.25,6.65-30.3,2.22-8.41,4.51-17.1,6.57-27.64,2.13-10.93,2.13-31.31,2.13-52.89,0-24.94,0-50.73,3.26-64.68a.342.342,0,0,0-.26-.41.338.338,0,0,0-.41.26c-3.28,14.02-3.28,39.85-3.28,64.83,0,21.54,0,41.89-2.12,52.75-2.05,10.52-4.34,19.2-6.56,27.6-2.66,10.07-5.17,19.59-6.66,30.38-1.37,9.85-3.17,18.05-4.76,25.29-1.55,7.06-2.78,12.64-3.04,17.26a.338.338,0,0,0,.32.36h.02Z" fill="#9ad4f7"/>
            <path id="Trazado_904869" data-name="Trazado 904869" d="M96.58,292.94a9.419,9.419,0,0,0,6.65-2.68c6.67-6.27,6.95-21.26,6.96-21.89a.346.346,0,0,0-.34-.35.34.34,0,0,0-.35.34c0,.15-.29,15.33-6.75,21.4a8.787,8.787,0,0,1-6.66,2.48.346.346,0,0,0-.36.33.353.353,0,0,0,.33.36c.17,0,.34.01.51.01Z" fill="#9ad4f7"/>
          </g>
        </g>
        <path id="Trazado_904870" data-name="Trazado 904870" d="M156.74,252.24c-14.41,16.64-55.48,28.46-70.64,16.35-.59-.64-3.22,3.82-1.78,5.01s14.49,10.59,44.2,1.7c19.35-5.79,29.96-15.45,30.59-16.52s-1.74-7.26-2.37-6.54Z" fill="#cf3434"/>
        <g id="Grupo_1118118" data-name="Grupo 1118118">
          <g id="Grupo_1118117" data-name="Grupo 1118117">
            <path id="Trazado_904871" data-name="Trazado 904871" d="M168.43,196.02c4.76-17.09,20.26-27.67,24.37-38.98,2.22-6.11,9.04-2.27,7.27,1.91-2.85,6.72-5.92,27.17-18.44,45.07-5.9,8.44-16.32,3.22-13.2-8Z" fill="#ffa794"/>
            <path id="Trazado_904872" data-name="Trazado 904872" d="M131.56,152.3c13.57,7.65,35.68,30.55,45,41.05,7.1,7.99,4.15,18.48-7.03,13.59-13.32-5.82-37.19-19.9-50.51-34.84C108.53,160.34,113.12,141.9,131.56,152.3Z" fill="#ffa794"/>
            <g id="Grupo_1118116" data-name="Grupo 1118116">
              <path id="Trazado_904873" data-name="Trazado 904873" d="M192.61,157.49c1.66-3.65-.59-6.58,3.25-9.28a11.971,11.971,0,0,0,2.32-2.09c1.06-1.29,3.13.2,4.18,1.57s3.23,2.87,2.48,4.41c-.62,1.27-4.18,5.47-5.26,7.76-.97,2.06-8.74,1.52-6.97-2.36Z" fill="#ffa794"/>
              <path id="Trazado_904874" data-name="Trazado 904874" d="M193.08,142.68a29.805,29.805,0,0,1,.17,4.37c-.13,1.47.02,4.65.06,7.4.03,2.12,4.71,1.14,4.9-2.9.15-3.23-2.16-4.43-2.17-5.17a8.144,8.144,0,0,0-.73-3.67C194.64,141.52,193,141.31,193.08,142.68Z" fill="#ffa794"/>
              <path id="Trazado_904875" data-name="Trazado 904875" d="M200.39,148.25a14.639,14.639,0,0,0,2.43-4.66,19.523,19.523,0,0,0,0-4.05,1.052,1.052,0,0,0-2.01-.14c-.53.98-.28,2.84-.49,3.35a19.628,19.628,0,0,1-2.54,3.87c-1,1.27,1.68,2.65,2.61,1.62Z" fill="#ffa794"/>
              <path id="Trazado_904876" data-name="Trazado 904876" d="M203.08,148.73a10.656,10.656,0,0,0,1.16-3.96c.05-1.36-1.01-2.26-1.8-1.61-.55.46-1.46,3.32-1.98,4.7s2.31,1.58,2.63.87Z" fill="#ffa794"/>
              <path id="Trazado_904877" data-name="Trazado 904877" d="M203.6,150.64a10.055,10.055,0,0,0,1.84-3.63c.28-1.35-.85-2.82-1.78-1.71a46.5,46.5,0,0,0-2.23,4.13C200.74,150.73,203.03,151.28,203.6,150.64Z" fill="#ffa794"/>
              <path id="Trazado_904878" data-name="Trazado 904878" d="M204.8,152.14a6.5,6.5,0,0,0,1.19-3.35c.03-.95-.81-1.94-1.28-1.46a25.351,25.351,0,0,0-2.25,3.75c-.69,1.3,1.93,1.73,2.33,1.06Z" fill="#ffa794"/>
            </g>
          </g>
          <path id="Trazado_904879" data-name="Trazado 904879" d="M158.88,172.59c1.9,2.42-1.2,8.77-6.57,12.14s-6.71,9.59-10.59,9.34-26.44-18.84-30.06-29.68.12-20.43,14.18-15.55c11.59,4.03,31.64,21.96,33.04,23.74Z" fill="#e2f5f1"/>
        </g>
        <g id="Grupo_1118120" data-name="Grupo 1118120">
          <path id="Trazado_904880" data-name="Trazado 904880" d="M186.15,136.6h2.76a1.435,1.435,0,0,0,1.31-1.54h0a3.3,3.3,0,0,1,3.02-3.53h5.85a1.784,1.784,0,0,1,1.63,1.91v1.94a1.8,1.8,0,0,0,.9,1.6,3.978,3.978,0,0,1,1.9,3.51v8.2a3.641,3.641,0,0,1-3.33,3.89H186.14a3.641,3.641,0,0,1-3.33-3.89v-8.2a3.641,3.641,0,0,1,3.33-3.89Z" fill="#252838"/>
          <path id="Trazado_904881" data-name="Trazado 904881" d="M191.34,136.6h2.76a1.435,1.435,0,0,0,1.31-1.54h0a3.3,3.3,0,0,1,3.02-3.53h5.85a1.784,1.784,0,0,1,1.63,1.91v1.94a1.8,1.8,0,0,0,.9,1.6,3.978,3.978,0,0,1,1.9,3.51v8.2a3.641,3.641,0,0,1-3.33,3.89H191.33a3.641,3.641,0,0,1-3.33-3.89v-8.2a3.641,3.641,0,0,1,3.33-3.89Z" fill="#393e57"/>
          <g id="Grupo_1118119" data-name="Grupo 1118119">
            <ellipse id="Elipse_11551" data-name="Elipse 11551" cx="5.11" cy="6.03" rx="5.11" ry="6.03" transform="translate(196.16 138.44)" fill="#252838"/>
            <rect id="Rectángulo_408939" data-name="Rectángulo 408939" width="8.89" height="12.06" transform="translate(210.15 150.5) rotate(180)" fill="#252838"/>
            <rect id="Rectángulo_408940" data-name="Rectángulo 408940" width="6.85" height="12.92" transform="translate(217.15 150.92) rotate(180)" fill="#393e57"/>
            <ellipse id="Elipse_11552" data-name="Elipse 11552" cx="5.48" cy="6.46" rx="5.48" ry="6.46" transform="translate(204.81 138.01)" fill="#393e57"/>
            <ellipse id="Elipse_11553" data-name="Elipse 11553" cx="5.11" cy="6.03" rx="5.11" ry="6.03" transform="translate(205.05 138.44)" fill="#393e57"/>
            <ellipse id="Elipse_11554" data-name="Elipse 11554" cx="5.48" cy="6.46" rx="5.48" ry="6.46" transform="translate(211.66 138.01)" fill="#252838"/>
            <ellipse id="Elipse_11555" data-name="Elipse 11555" cx="4.67" cy="5.5" rx="4.67" ry="5.5" transform="translate(212.47 138.97)" fill="#1a1c26"/>
          </g>
          <path id="Trazado_904882" data-name="Trazado 904882" d="M199.75,132.53h2.88a1.784,1.784,0,0,1,1.78,1.78h0a1.786,1.786,0,0,1-1.78,1.79h-2.88a1.784,1.784,0,0,1-1.78-1.78h0A1.786,1.786,0,0,1,199.75,132.53Z" transform="translate(402.37 268.63) rotate(180)" fill="#e3e7ff"/>
        </g>
        <g id="Grupo_1118121" data-name="Grupo 1118121">
          <path id="Trazado_904883" data-name="Trazado 904883" d="M159.24,253.3c2.48,9.56-7.51-.72-26.93,10.33-29.28,16.66-50.33,3.61-46.86-9.17,13.59-50.01-18.25-81.77-3.79-97.58,8.65-9.45,46.83-16.44,53.23,0,7.97,20.51,27.25,24.89,15.68,45.19-2.83,4.96-1.4,20.68,1.77,34.48C153.46,241.41,157.88,248.08,159.24,253.3Z" fill="#e2f5f1"/>
          <path id="Trazado_904884" data-name="Trazado 904884" d="M159.24,253.64a.387.387,0,0,0,.09-.01.36.36,0,0,0,.25-.42,50.55,50.55,0,0,0-3.5-8.46,43.663,43.663,0,0,1-3.39-8.28c-3.04-13.25-4.64-29.26-1.81-34.23,7.54-13.23,2.12-19.87-4.73-28.28-.58-.71-1.17-1.44-1.77-2.18a.341.341,0,1,0-.53.43c.6.75,1.19,1.47,1.77,2.19,6.95,8.52,11.98,14.68,4.67,27.5-3.05,5.36-1.24,21.76,1.74,34.72a44.081,44.081,0,0,0,3.44,8.43,49.664,49.664,0,0,1,3.46,8.33.351.351,0,0,0,.33.26Z" fill="#e6d0bf"/>
          <path id="Trazado_904885" data-name="Trazado 904885" d="M101.01,265.86c2.37,0,5.46-1.14,9-2.45,4.94-1.82,10.53-3.89,16.4-3.89a.34.34,0,0,0,0-.68c-6,0-11.9,2.18-16.64,3.93-5.53,2.04-9.9,3.66-11.79,1.05-.38-.53-.51-.93-.39-1.19.35-.75,2.71-.93,4.99-1.11,3.1-.24,6.62-.51,8.76-2.05a.344.344,0,1,0-.4-.56c-1.98,1.43-5.39,1.69-8.41,1.92-2.82.22-5.04.39-5.56,1.5a1.865,1.865,0,0,0,.45,1.88,4.094,4.094,0,0,0,3.58,1.65Z" fill="#e6d0bf"/>
        </g>
        <g id="Grupo_1118122" data-name="Grupo 1118122">
          <path id="Trazado_904886" data-name="Trazado 904886" d="M143.16,170.81A101.016,101.016,0,0,0,114.61,147c-.29-1.18,3.95-1.71,8.75.54,5.7,2.68,12.98,7.89,17.3,13.69S143.74,171.53,143.16,170.81Z" fill="#cf3434"/>
          <path id="Trazado_904887" data-name="Trazado 904887" d="M88.86,149.97c8.39,2.33,32.35,23.25,32.11,44.11-.19,17.31-12.65,41.28-33.79,44.04-1.55,0-1.93-7.64-.9-7.8,6.44-1.03,28.09-12.72,28.23-34.8.16-26.03-26.81-40.66-28.74-41.79s1.32-4.25,3.1-3.75Z" fill="#cf3434"/>
        </g>
        <path id="Trazado_904888" data-name="Trazado 904888" d="M130.47,270.84c.32,10.57-6.56,23.01-24.6,25.33s-28.95-7.99-28.07-14.69,2.85-13.61,7.96-14.05,5.54,4.07,19.01,4.52,25.47-8.6,25.7-1.1Z" fill="#e84d4d"/>
        <path id="Trazado_904889" data-name="Trazado 904889" d="M103.43,275.57a57.686,57.686,0,0,0,14.29-2.25c3.36-.84,6.26-1.57,8.69-1.52h0a.337.337,0,0,0,.34-.34.346.346,0,0,0-.34-.35,36.246,36.246,0,0,0-8.87,1.54c-8.56,2.15-19.21,4.83-31.16-2.84a.34.34,0,0,0-.37.57,31.418,31.418,0,0,0,17.42,5.17Z" fill="#fa7a7a"/>
        <g id="Grupo_1118128" data-name="Grupo 1118128">
          <g id="Grupo_1118126" data-name="Grupo 1118126">
            <g id="Grupo_1118124" data-name="Grupo 1118124">
              <path id="Trazado_904890" data-name="Trazado 904890" d="M150.1,198.33c6.52-16.5,25.51-30.16,30.78-40.98,2.85-5.85,9.11-1.49,6.91,2.48-3.53,6.39-11.08,31.34-25.4,47.84-6.75,7.78-16.57,1.5-12.29-9.34Z" fill="#ffa794"/>
              <path id="Trazado_904891" data-name="Trazado 904891" d="M150.1,198.67a.333.333,0,0,0,.32-.22c3.73-9.45,11.64-18.02,18.61-25.58,4.41-4.79,8.58-9.31,11.08-13.41a.341.341,0,0,0-.58-.36c-2.46,4.04-6.61,8.54-11,13.3-7.01,7.61-14.96,16.23-18.74,25.8a.351.351,0,0,0,.19.45.274.274,0,0,0,.13.02Z" fill="#ff9782"/>
              <path id="Trazado_904892" data-name="Trazado 904892" d="M162.39,208.01a.337.337,0,0,0,.26-.12c10.65-12.27,17.67-29.45,21.87-39.72.87-2.12,1.61-3.95,2.27-5.46a.333.333,0,0,0-.18-.45.341.341,0,0,0-.45.18c-.66,1.51-1.41,3.35-2.28,5.47-4.18,10.23-11.17,27.34-21.75,39.53a.345.345,0,0,0,.03.48.341.341,0,0,0,.23.08Z" fill="#ff9782"/>
              <g id="Grupo_1118123" data-name="Grupo 1118123">
                <path id="Trazado_904893" data-name="Trazado 904893" d="M180.78,157.55c1.66-3.65-.59-6.58,3.25-9.28a11.971,11.971,0,0,0,2.32-2.09c1.06-1.29,3.13.2,4.18,1.57s3.23,2.87,2.48,4.41c-.62,1.27-4.18,5.47-5.26,7.76-.97,2.06-8.74,1.52-6.97-2.36Z" fill="#ffa794"/>
                <path id="Trazado_904894" data-name="Trazado 904894" d="M181.25,142.74a29.805,29.805,0,0,1,.17,4.37c-.13,1.47.02,4.65.06,7.4.03,2.12,4.71,1.14,4.9-2.9.15-3.23-2.16-4.43-2.17-5.17a8.144,8.144,0,0,0-.73-3.67C182.81,141.58,181.17,141.37,181.25,142.74Z" fill="#ffa794"/>
                <path id="Trazado_904895" data-name="Trazado 904895" d="M188.56,148.3a14.639,14.639,0,0,0,2.43-4.66,19.523,19.523,0,0,0,0-4.05,1.052,1.052,0,0,0-2.01-.14c-.53.98-.28,2.84-.49,3.35a19.628,19.628,0,0,1-2.54,3.87c-1,1.27,1.68,2.65,2.61,1.62Z" fill="#ffa794"/>
                <path id="Trazado_904896" data-name="Trazado 904896" d="M191.25,148.79a10.656,10.656,0,0,0,1.16-3.96c.05-1.36-1.01-2.26-1.8-1.61-.55.46-1.46,3.32-1.98,4.7s2.31,1.58,2.63.87Z" fill="#ffa794"/>
                <path id="Trazado_904897" data-name="Trazado 904897" d="M191.77,150.7a10.055,10.055,0,0,0,1.84-3.63c.28-1.35-.85-2.82-1.78-1.71a46.5,46.5,0,0,0-2.23,4.13C188.91,150.79,191.2,151.34,191.77,150.7Z" fill="#ffa794"/>
                <path id="Trazado_904898" data-name="Trazado 904898" d="M192.97,152.19a6.5,6.5,0,0,0,1.19-3.35c.03-.95-.81-1.94-1.28-1.46a25.9,25.9,0,0,0-2.25,3.75c-.69,1.3,1.93,1.73,2.33,1.06Z" fill="#ffa794"/>
              </g>
            </g>
            <g id="Grupo_1118125" data-name="Grupo 1118125">
              <path id="Trazado_904899" data-name="Trazado 904899" d="M96.95,159.1c16.33,6.2,45.39,26.96,57.85,36.59,9.48,7.33,8.8,18.42-4.32,14.76-15.63-4.35-44.5-15.88-62.28-29.57-14-10.77-13.44-30.2,8.75-21.78Z" fill="#ffa794"/>
              <path id="Trazado_904900" data-name="Trazado 904900" d="M154.8,196.02a.368.368,0,0,0,.27-.13.337.337,0,0,0-.06-.48c-12.9-9.96-41.6-30.44-57.94-36.64a.342.342,0,0,0-.24.64c16.26,6.17,44.89,26.6,57.76,36.54a.332.332,0,0,0,.21.07Z" fill="#ff9782"/>
            </g>
          </g>
          <g id="Grupo_1118127" data-name="Grupo 1118127">
            <path id="Trazado_904901" data-name="Trazado 904901" d="M129.07,176.18c2.37,1.96-1.42,10.18-6.44,14.05s-5.77,10.18-9.65,10.31S84.87,184.3,80.23,173.86s-1.82-20.35,12.63-16.83c11.92,2.91,34.73,17.92,36.22,19.15Z" fill="#e2f5f1"/>
            <path id="Trazado_904902" data-name="Trazado 904902" d="M112.94,200.88h.05c2.3-.08,3.57-2.13,5.04-4.5a20.568,20.568,0,0,1,4.81-5.88c3.83-2.94,7.24-8.67,7.3-12.26a2.785,2.785,0,0,0-.85-2.32c-1.09-.9-16.67-11.23-28.9-16.56a.343.343,0,1,0-.27.63c12.17,5.3,27.66,15.57,28.74,16.46a2.178,2.178,0,0,1,.6,1.78c-.05,3.02-3.07,8.68-7.03,11.73a21.053,21.053,0,0,0-4.98,6.07c-1.42,2.3-2.54,4.11-4.48,4.17h-.04c-2.4,0-12.89-6.45-21.41-13.81a.341.341,0,1,0-.44.52c8.07,6.97,19.05,13.97,21.88,13.97Z" fill="#e6d0bf"/>
          </g>
        </g>
        <g id="Grupo_1118132" data-name="Grupo 1118132">
          <g id="Grupo_1118129" data-name="Grupo 1118129">
            <path id="Trazado_904903" data-name="Trazado 904903" d="M109.19,120.55c1.3,3.83,3.7,20.52,7.46,27.2,9.64,17.11-17.38,5.67-18.21,1.68-2-9.54-2.43-18.19-4.15-24.59s12.37-11.75,14.9-4.29Z" fill="#ffa794"/>
            <path id="Trazado_904904" data-name="Trazado 904904" d="M95.93,120c3.58-3.54,11.43-4.84,13.26.55,1.13,3.33,3.1,16.4,6.06,24.14C105.77,145.64,97.17,131.57,95.93,120Z" fill="#ff9782"/>
          </g>
          <g id="Grupo_1118131" data-name="Grupo 1118131">
            <g id="Grupo_1118130" data-name="Grupo 1118130">
              <path id="Trazado_904905" data-name="Trazado 904905" d="M95.9,119.75c1.01,2.17,1.62,5.02.09,5.76s-3.63-1.22-4.92-3.23c-1.68-2.63-1.36-4.36.12-5.08C93.04,116.3,94.89,117.59,95.9,119.75Z" fill="#ffa794"/>
              <path id="Trazado_904906" data-name="Trazado 904906" d="M122.96,140.41c13.53-4.17,7.16-36.05-.16-45.78-9.6-12.77-35.23-7.28-31.06,18.56,2.89,17.93,19.5,30.84,31.22,27.23Z" fill="#ffa794"/>
              <path id="Trazado_904907" data-name="Trazado 904907" d="M126.27,100.38c-.15-.43-1.8.31-2.88.95-1.31.77-2.74,1.63-2.34,2.11s1.85-.49,3.24-1.32c1.17-.7,2.13-1.32,1.98-1.73Z" fill="#282c3d"/>
              <path id="Trazado_904908" data-name="Trazado 904908" d="M105.72,108.9c-.09-.39,1.7-1.27,3.16-1.79,1.77-.64,3.75-1.2,3.84-.64.12.72-1.98,1.17-3.87,1.83-1.6.56-3.05.99-3.14.61Z" fill="#282c3d"/>
              <path id="Trazado_904909" data-name="Trazado 904909" d="M124.23,107.35a.855.855,0,0,0,1.63-.42.855.855,0,0,0-1.63.42Z" fill="#2e3142"/>
              <path id="Trazado_904910" data-name="Trazado 904910" d="M110.6,112.43a.852.852,0,1,0,.51-.97A.772.772,0,0,0,110.6,112.43Z" fill="#2e3142"/>
              <path id="Trazado_904911" data-name="Trazado 904911" d="M118.83,107.67a24.875,24.875,0,0,0,4.23,7.84c1.11,1.24-.19,2.56-.42,3.09-.67,1.55,3.25-1.75,2.16-2.64-3.84-3.16-6.65-10.17-5.98-8.29Z" fill="#ff9782"/>
              <path id="Trazado_904912" data-name="Trazado 904912" d="M121.17,128.05c1.07,1.78,5.31.93,5.24-2.11C126.4,125.45,120.85,127.51,121.17,128.05Z" fill="#fff"/>
            </g>
            <path id="Trazado_904913" data-name="Trazado 904913" d="M116.41,81.62c3.42,3.28,1.44,9.98-3.68,14.81-9.17,8.65,1.44,13.44-12,21.85-7.36,4.61,5.91,13.42-.1,25.62s-.55,12.11,5.8,15.85-.45,8.8,7.15,12.76c5.85,3.05-4.65,2.07-8.8-.1-7.78-4.06-8.8-13.92-16.41-14.95-9.77-1.32-9.72-1.34-9.37-12.04s-9.32-12.59-7.44-23.53,8.49-9.95,9-16.98.36-15.34,8.37-21.14,22.02-7.38,27.47-2.15Z" fill="#592b2d"/>
            <path id="Trazado_904914" data-name="Trazado 904914" d="M100.03,142.27c1.99-2.46,3.35-8.03,1.91-14.92-.14-.69-.28-1.31-.41-1.89-1.09-4.88-1.35-6.04,3.31-9.82,4.62-3.75,5.04-7.31,5.41-10.45.28-2.41.53-4.48,2.69-6.18,6.25-4.88,5.96-9.07,3.47-14.24l-.62.3c2.4,4.99,2.64,8.79-3.27,13.4-2.39,1.87-2.67,4.18-2.95,6.64-.35,3.01-.76,6.42-5.16,9.99-5,4.05-4.66,5.55-3.55,10.5.13.57.27,1.2.41,1.88,1.39,6.63.06,12.08-1.77,14.34l.53.43Z" fill="#592b2d"/>
          </g>
        </g>
      </g>
    </g>
    <line id="Línea_3463" data-name="Línea 3463" x2="432.63" transform="translate(616.99 5609.293)" fill="none" stroke="#7d3a1b" stroke-miterlimit="10" stroke-width="1"/>
  </g>
</svg>
