<svg xmlns="http://www.w3.org/2000/svg" xmlns:xlink="http://www.w3.org/1999/xlink" width="400" height="389.714" viewBox="0 0 400 389.714">
  <defs>
    <clipPath id="clip-path">
      <rect id="Rectángulo_408684" data-name="Rectángulo 408684" width="400" height="389.714" fill="none"/>
    </clipPath>
  </defs>
  <g id="Grupo_1117756" data-name="Grupo 1117756" transform="translate(0 0)">
    <path id="Trazado_879936" data-name="Trazado 879936" d="M0,0V389.714H400V0Z" fill="#feebcf"/>
    <g id="Grupo_1117751" data-name="Grupo 1117751">
      <g id="Grupo_1117750" data-name="Grupo 1117750" clip-path="url(#clip-path)">
        <path id="Trazado_879937" data-name="Trazado 879937" d="M19.078,51.139h98.363A5.352,5.352,0,0,0,113.5,41.19a8.275,8.275,0,0,0-3.076-3.486c-2.82-1.727-6.629-1.5-9.876.483.195-.742,1.514-6.1-1.877-10.7a12.942,12.942,0,0,0-13.7-4.5c-7.822-9.691-19.8-12.538-27.782-8.072-6.114,3.42-8.108,10.14-8.635,12.2a9.719,9.719,0,0,0-8.071,2.065,9.127,9.127,0,0,0-2.816,5.069,10.459,10.459,0,0,0-10.324-4.318,10.631,10.631,0,0,0-8.26,10.7,5.316,5.316,0,0,0,0,10.512" fill="#fcfcfa"/>
        <line id="Línea_3403" data-name="Línea 3403" y2="236.23" transform="translate(154.532 72.336)" fill="none" stroke="#fecab2" stroke-miterlimit="10" stroke-width="1"/>
        <line id="Línea_3404" data-name="Línea 3404" y2="236.23" transform="translate(179.199 72.336)" fill="none" stroke="#fecab2" stroke-miterlimit="10" stroke-width="1"/>
        <line id="Línea_3405" data-name="Línea 3405" y2="236.23" transform="translate(203.865 72.336)" fill="none" stroke="#fecab2" stroke-miterlimit="10" stroke-width="1"/>
        <line id="Línea_3406" data-name="Línea 3406" y2="236.23" transform="translate(228.532 72.336)" fill="none" stroke="#fecab2" stroke-miterlimit="10" stroke-width="1"/>
        <line id="Línea_3407" data-name="Línea 3407" y2="236.23" transform="translate(253.199 72.336)" fill="none" stroke="#fecab2" stroke-miterlimit="10" stroke-width="1"/>
        <line id="Línea_3408" data-name="Línea 3408" y2="236.23" transform="translate(277.866 72.336)" fill="none" stroke="#fecab2" stroke-miterlimit="10" stroke-width="1"/>
        <line id="Línea_3409" data-name="Línea 3409" y2="236.23" transform="translate(302.532 72.336)" fill="none" stroke="#fecab2" stroke-miterlimit="10" stroke-width="1"/>
        <line id="Línea_3410" data-name="Línea 3410" y2="236.23" transform="translate(327.199 72.336)" fill="none" stroke="#fecab2" stroke-miterlimit="10" stroke-width="1"/>
        <line id="Línea_3411" data-name="Línea 3411" y2="236.23" transform="translate(351.866 72.336)" fill="none" stroke="#fecab2" stroke-miterlimit="10" stroke-width="1"/>
        <rect id="Rectángulo_408678" data-name="Rectángulo 408678" width="98.05" height="16" transform="translate(129.956 274.336)" fill="#7d3a1b"/>
        <rect id="Rectángulo_408679" data-name="Rectángulo 408679" width="122.153" height="16" transform="translate(129.956 234.336)" fill="#7d3a1b"/>
        <rect id="Rectángulo_408680" data-name="Rectángulo 408680" width="131.273" height="16" transform="translate(129.956 194.336)" fill="#7d3a1b"/>
        <rect id="Rectángulo_408681" data-name="Rectángulo 408681" width="137.136" height="16" transform="translate(129.956 155.336)" fill="#7d3a1b"/>
        <rect id="Rectángulo_408682" data-name="Rectángulo 408682" width="159.933" height="16" transform="translate(129.956 115.336)" fill="#7d3a1b"/>
        <rect id="Rectángulo_408683" data-name="Rectángulo 408683" width="205.536" height="16" transform="translate(129.956 75.336)" fill="#7d3a1b"/>
      </g>
    </g>
    <text id="Estrategia" transform="translate(49.245 86.667)" fill="#12263f" font-size="16" font-family="Roboto-Regular, Roboto"><tspan x="0" y="0">Est</tspan><tspan y="0" letter-spacing="-0.019em">r</tspan><tspan y="0">ategia</tspan></text>
    <text id="de_mercadeo" data-name="de mercadeo" transform="translate(27.949 102.667)" fill="#12263f" font-size="16" font-family="Roboto-Regular, Roboto"><tspan x="0" y="0">de me</tspan><tspan y="0" letter-spacing="-0.009em">r</tspan><tspan y="0">cadeo</tspan></text>
    <text id="Gestión" transform="translate(66.189 129.467)" fill="#12263f" font-size="16" font-family="Roboto-Regular, Roboto"><tspan x="0" y="0">Gestión</tspan></text>
    <text id="de_destino" data-name="de destino" transform="translate(46.605 145.467)" fill="#12263f" font-size="16" font-family="Roboto-Regular, Roboto"><tspan x="0" y="0">de destino</tspan></text>
    <text id="Infraestructura" transform="translate(16.925 177.275)" fill="#12263f" font-size="16" font-family="Roboto-Regular, Roboto"><tspan x="0" y="0">Inf</tspan><tspan y="0" letter-spacing="-0.019em">r</tspan><tspan y="0">aestructu</tspan><tspan y="0" letter-spacing="-0.019em">r</tspan><tspan y="0">a</tspan></text>
    <text id="Cultural" transform="translate(67.021 217.083)" fill="#12263f" font-size="16" font-family="Roboto-Regular, Roboto"><tspan x="0" y="0">Cultu</tspan><tspan y="0" letter-spacing="-0.019em">r</tspan><tspan y="0">al</tspan></text>
    <text id="Ambiental" transform="translate(49.437 256.875)" fill="#12263f" font-size="16" font-family="Roboto-Regular, Roboto"><tspan x="0" y="0">Ambiental</tspan></text>
    <text id="Empresarial" transform="translate(37.197 295.675)" fill="#12263f" font-size="16" font-family="Roboto-Regular, Roboto"><tspan x="0" y="0">Emp</tspan><tspan y="0" letter-spacing="-0.008em">r</tspan><tspan y="0">esarial</tspan></text>
    <text id="_0" data-name="0" transform="translate(125.149 328.747)" fill="#12263f" font-size="16" font-family="Roboto-Regular, Roboto"><tspan x="0" y="0">0</tspan></text>
    <text id="_1" data-name="1" transform="translate(149.821 328.747)" fill="#12263f" font-size="16" font-family="Roboto-Regular, Roboto"><tspan x="0" y="0">1</tspan></text>
    <text id="_2" data-name="2" transform="translate(174.493 328.747)" fill="#12263f" font-size="16" font-family="Roboto-Regular, Roboto"><tspan x="0" y="0">2</tspan></text>
    <text id="_3" data-name="3" transform="translate(199.165 328.747)" fill="#12263f" font-size="16" font-family="Roboto-Regular, Roboto"><tspan x="0" y="0">3</tspan></text>
    <text id="_4" data-name="4" transform="translate(223.837 328.747)" fill="#12263f" font-size="16" font-family="Roboto-Regular, Roboto"><tspan x="0" y="0">4</tspan></text>
    <text id="_5" data-name="5" transform="translate(248.509 328.747)" fill="#12263f" font-size="16" font-family="Roboto-Regular, Roboto"><tspan x="0" y="0">5</tspan></text>
    <text id="_6" data-name="6" transform="translate(273.181 328.747)" fill="#12263f" font-size="16" font-family="Roboto-Regular, Roboto"><tspan x="0" y="0">6</tspan></text>
    <text id="_7" data-name="7" transform="translate(297.854 328.747)" fill="#12263f" font-size="16" font-family="Roboto-Regular, Roboto"><tspan x="0" y="0">7</tspan></text>
    <text id="_8" data-name="8" transform="translate(322.525 328.747)" fill="#12263f" font-size="16" font-family="Roboto-Regular, Roboto"><tspan x="0" y="0">8</tspan></text>
    <text id="_9" data-name="9" transform="translate(347.197 328.747)" fill="#12263f" font-size="16" font-family="Roboto-Regular, Roboto"><tspan x="0" y="0">9</tspan></text>
    <g id="Grupo_1117753" data-name="Grupo 1117753">
      <g id="Grupo_1117752" data-name="Grupo 1117752" clip-path="url(#clip-path)">
        <rect id="Rectángulo_408685" data-name="Rectángulo 408685" width="96.747" height="16" transform="translate(129.956 290.336)" fill="#ffb937"/>
        <rect id="Rectángulo_408686" data-name="Rectángulo 408686" width="114.987" height="16" transform="translate(129.956 250.336)" fill="#ffb937"/>
        <rect id="Rectángulo_408687" data-name="Rectángulo 408687" width="106.518" height="16" transform="translate(129.956 210.336)" fill="#ffb937"/>
        <rect id="Rectángulo_408688" data-name="Rectángulo 408688" width="143.65" height="16" transform="translate(129.956 171.336)" fill="#ffb937"/>
        <rect id="Rectángulo_408689" data-name="Rectángulo 408689" width="169.707" height="16" transform="translate(129.956 131.336)" fill="#ffb937"/>
        <rect id="Rectángulo_408690" data-name="Rectángulo 408690" width="195.765" height="16" transform="translate(129.956 90.336)" fill="#ffb937"/>
        <line id="Línea_3412" data-name="Línea 3412" y2="236.23" transform="translate(129.865 72.336)" fill="none" stroke="#fecab2" stroke-miterlimit="10" stroke-width="1"/>
      </g>
    </g>
    <text id="_8_33" data-name="8,33" transform="translate(339.772 88.255)" fill="#12263f" font-size="16" font-family="Roboto-Regular, Roboto"><tspan x="0" y="0">8,33</tspan></text>
    <text id="_7_93" data-name="7,93" transform="translate(329.452 105.871)" fill="#12263f" font-size="16" font-family="Roboto-Regular, Roboto"><tspan x="0" y="0">7,93</tspan></text>
    <text id="_6_45" data-name="6,45" transform="translate(295.58 129.567)" fill="#12263f" font-size="16" font-family="Roboto-Regular, Roboto"><tspan x="0" y="0">6,45</tspan></text>
    <text id="_6_82" data-name="6,82" transform="translate(305.084 147.183)" fill="#12263f" font-size="16" font-family="Roboto-Regular, Roboto"><tspan x="0" y="0">6,82</tspan></text>
    <text id="_5_56" data-name="5,56" transform="translate(269.58 168.559)" fill="#12263f" font-size="16" font-family="Roboto-Regular, Roboto"><tspan x="0" y="0">5,56</tspan></text>
    <text id="_5_79" data-name="5,79" transform="translate(279.261 186.175)" fill="#12263f" font-size="16" font-family="Roboto-Regular, Roboto"><tspan x="0" y="0">5,79</tspan></text>
    <text id="_5_28" data-name="5,28" transform="translate(265.068 210.559)" fill="#12263f" font-size="16" font-family="Roboto-Regular, Roboto"><tspan x="0" y="0">5,28</tspan></text>
    <text id="_4_29" data-name="4,29" transform="translate(239.757 226.175)" fill="#12263f" font-size="16" font-family="Roboto-Regular, Roboto"><tspan x="0" y="0">4,29</tspan></text>
    <text id="_4_92" data-name="4,92" transform="translate(255.9 251.295)" fill="#12263f" font-size="16" font-family="Roboto-Regular, Roboto"><tspan x="0" y="0">4,92</tspan></text>
    <text id="_4_63" data-name="4,63" transform="translate(248.589 266.911)" fill="#12263f" font-size="16" font-family="Roboto-Regular, Roboto"><tspan x="0" y="0">4,63</tspan></text>
    <text id="_3_91" data-name=" 3,91" transform="translate(227.916 289.295)" fill="#12263f" font-size="16" font-family="Roboto-Regular, Roboto"><tspan x="0" y="0" xml:space="preserve"> 3,91</tspan></text>
    <text id="_3_88" data-name="3,88" transform="translate(229.58 304.911)" fill="#12263f" font-size="16" font-family="Roboto-Regular, Roboto"><tspan x="0" y="0">3,88</tspan></text>
    <text id="_2020" data-name="2020" transform="translate(147.645 367.391)" fill="#12263f" font-size="16" font-family="Roboto-Regular, Roboto"><tspan x="0" y="0">2020</tspan></text>
    <text id="_2019" data-name="2019" transform="translate(222.637 368.383)" fill="#12263f" font-size="16" font-family="Roboto-Regular, Roboto"><tspan x="0" y="0">2019</tspan></text>
    <g id="Grupo_1117755" data-name="Grupo 1117755">
      <g id="Grupo_1117754" data-name="Grupo 1117754" clip-path="url(#clip-path)">
        <rect id="Rectángulo_408692" data-name="Rectángulo 408692" width="17" height="17" transform="translate(127.865 353.714)" fill="#7d3a1b"/>
        <rect id="Rectángulo_408693" data-name="Rectángulo 408693" width="17" height="17" transform="translate(202.865 353.714)" fill="#ffb937"/>
      </g>
    </g>
  </g>
</svg>
